<?xml version="1.0" encoding="utf-8" standalone="no"?>
<!DOCTYPE svg PUBLIC "-//W3C//DTD SVG 1.1//EN"
  "http://www.w3.org/Graphics/SVG/1.1/DTD/svg11.dtd">
<!-- Created with matplotlib (https://matplotlib.org/) -->
<svg height="173.39261pt" version="1.1" viewBox="0 0 174.909491 173.39261" width="174.909491pt" xmlns="http://www.w3.org/2000/svg" xmlns:xlink="http://www.w3.org/1999/xlink">
 <defs>
  <style type="text/css">
*{stroke-linecap:butt;stroke-linejoin:round;}
  </style>
 </defs>
 <g id="figure_1">
  <g id="patch_1">
   <path d="M 0 173.39261 
L 174.909491 173.39261 
L 174.909491 0 
L 0 0 
z
" style="fill:none;"/>
  </g>
  <g id="axes_1">
   <g id="patch_2">
    <path d="M 31.826531 144.11506 
L 167.709491 144.11506 
L 167.709491 7.2 
L 31.826531 7.2 
z
" style="fill:#ffffff;"/>
   </g>
   <g id="matplotlib.axis_1">
    <g id="xtick_1">
     <g id="line2d_1">
      <defs>
       <path d="M 0 2 
L 0 -2 
" id="m3ccf410108" style="stroke:#000000;stroke-width:0.8;"/>
      </defs>
      <g>
       <use style="stroke:#000000;stroke-width:0.8;" x="46.671639" xlink:href="#m3ccf410108" y="144.11506"/>
      </g>
     </g>
     <g id="text_1">
      <!-- $\mathdefault{10^{-6}}$ -->
      <defs>
       <path d="M 37.25 0 
L 28.46875 0 
L 28.46875 56 
Q 25.296875 52.984375 20.140625 49.953125 
Q 14.984375 46.921875 10.890625 45.40625 
L 10.890625 53.90625 
Q 18.265625 57.375 23.78125 62.296875 
Q 29.296875 67.234375 31.59375 71.875 
L 37.25 71.875 
z
" id="ArialMT-49"/>
       <path d="M 4.15625 35.296875 
Q 4.15625 48 6.765625 55.734375 
Q 9.375 63.484375 14.515625 67.671875 
Q 19.671875 71.875 27.484375 71.875 
Q 33.25 71.875 37.59375 69.546875 
Q 41.9375 67.234375 44.765625 62.859375 
Q 47.609375 58.5 49.21875 52.21875 
Q 50.828125 45.953125 50.828125 35.296875 
Q 50.828125 22.703125 48.234375 14.96875 
Q 45.65625 7.234375 40.5 3 
Q 35.359375 -1.21875 27.484375 -1.21875 
Q 17.140625 -1.21875 11.234375 6.203125 
Q 4.15625 15.140625 4.15625 35.296875 
z
M 13.1875 35.296875 
Q 13.1875 17.671875 17.3125 11.828125 
Q 21.4375 6 27.484375 6 
Q 33.546875 6 37.671875 11.859375 
Q 41.796875 17.71875 41.796875 35.296875 
Q 41.796875 52.984375 37.671875 58.78125 
Q 33.546875 64.59375 27.390625 64.59375 
Q 21.34375 64.59375 17.71875 59.46875 
Q 13.1875 52.9375 13.1875 35.296875 
z
" id="ArialMT-48"/>
       <path d="M 52.828125 31.203125 
L 5.5625 31.203125 
L 5.5625 39.40625 
L 52.828125 39.40625 
z
" id="ArialMT-8722"/>
       <path d="M 49.75 54.046875 
L 41.015625 53.375 
Q 39.84375 58.546875 37.703125 60.890625 
Q 34.125 64.65625 28.90625 64.65625 
Q 24.703125 64.65625 21.53125 62.3125 
Q 17.390625 59.28125 14.984375 53.46875 
Q 12.59375 47.65625 12.5 36.921875 
Q 15.671875 41.75 20.265625 44.09375 
Q 24.859375 46.4375 29.890625 46.4375 
Q 38.671875 46.4375 44.84375 39.96875 
Q 51.03125 33.5 51.03125 23.25 
Q 51.03125 16.5 48.125 10.71875 
Q 45.21875 4.9375 40.140625 1.859375 
Q 35.0625 -1.21875 28.609375 -1.21875 
Q 17.625 -1.21875 10.6875 6.859375 
Q 3.765625 14.9375 3.765625 33.5 
Q 3.765625 54.25 11.421875 63.671875 
Q 18.109375 71.875 29.4375 71.875 
Q 37.890625 71.875 43.28125 67.140625 
Q 48.6875 62.40625 49.75 54.046875 
z
M 13.875 23.1875 
Q 13.875 18.65625 15.796875 14.5 
Q 17.71875 10.359375 21.1875 8.171875 
Q 24.65625 6 28.46875 6 
Q 34.03125 6 38.03125 10.484375 
Q 42.046875 14.984375 42.046875 22.703125 
Q 42.046875 30.125 38.078125 34.390625 
Q 34.125 38.671875 28.125 38.671875 
Q 22.171875 38.671875 18.015625 34.390625 
Q 13.875 30.125 13.875 23.1875 
z
" id="ArialMT-54"/>
      </defs>
      <g transform="translate(39.249609 156.346341)scale(0.07497 -0.07497)">
       <use transform="translate(0 0.99375)" xlink:href="#ArialMT-49"/>
       <use transform="translate(55.615234 0.99375)" xlink:href="#ArialMT-48"/>
       <use transform="translate(112.972813 70.6875)scale(0.7)" xlink:href="#ArialMT-8722"/>
       <use transform="translate(153.851719 70.6875)scale(0.7)" xlink:href="#ArialMT-54"/>
      </g>
     </g>
    </g>
    <g id="xtick_2">
     <g id="line2d_2">
      <g>
       <use style="stroke:#000000;stroke-width:0.8;" x="67.910188" xlink:href="#m3ccf410108" y="144.11506"/>
      </g>
     </g>
     <g id="text_2">
      <!-- $\mathdefault{10^{-5}}$ -->
      <defs>
       <path d="M 4.15625 18.75 
L 13.375 19.53125 
Q 14.40625 12.796875 18.140625 9.390625 
Q 21.875 6 27.15625 6 
Q 33.5 6 37.890625 10.78125 
Q 42.28125 15.578125 42.28125 23.484375 
Q 42.28125 31 38.0625 35.34375 
Q 33.84375 39.703125 27 39.703125 
Q 22.75 39.703125 19.328125 37.765625 
Q 15.921875 35.84375 13.96875 32.765625 
L 5.71875 33.84375 
L 12.640625 70.609375 
L 48.25 70.609375 
L 48.25 62.203125 
L 19.671875 62.203125 
L 15.828125 42.96875 
Q 22.265625 47.46875 29.34375 47.46875 
Q 38.71875 47.46875 45.15625 40.96875 
Q 51.609375 34.46875 51.609375 24.265625 
Q 51.609375 14.546875 45.953125 7.46875 
Q 39.0625 -1.21875 27.15625 -1.21875 
Q 17.390625 -1.21875 11.203125 4.25 
Q 5.03125 9.71875 4.15625 18.75 
z
" id="ArialMT-53"/>
      </defs>
      <g transform="translate(60.488158 156.271371)scale(0.07497 -0.07497)">
       <use transform="translate(0 0.879688)" xlink:href="#ArialMT-49"/>
       <use transform="translate(55.615234 0.879688)" xlink:href="#ArialMT-48"/>
       <use transform="translate(112.972813 70.573438)scale(0.7)" xlink:href="#ArialMT-8722"/>
       <use transform="translate(153.851719 70.573438)scale(0.7)" xlink:href="#ArialMT-53"/>
      </g>
     </g>
    </g>
    <g id="xtick_3">
     <g id="line2d_3">
      <g>
       <use style="stroke:#000000;stroke-width:0.8;" x="89.148737" xlink:href="#m3ccf410108" y="144.11506"/>
      </g>
     </g>
     <g id="text_3">
      <!-- $\mathdefault{10^{-4}}$ -->
      <defs>
       <path d="M 32.328125 0 
L 32.328125 17.140625 
L 1.265625 17.140625 
L 1.265625 25.203125 
L 33.9375 71.578125 
L 41.109375 71.578125 
L 41.109375 25.203125 
L 50.78125 25.203125 
L 50.78125 17.140625 
L 41.109375 17.140625 
L 41.109375 0 
z
M 32.328125 25.203125 
L 32.328125 57.46875 
L 9.90625 25.203125 
z
" id="ArialMT-52"/>
      </defs>
      <g transform="translate(81.726707 156.271371)scale(0.07497 -0.07497)">
       <use transform="translate(0 0.201563)" xlink:href="#ArialMT-49"/>
       <use transform="translate(55.615234 0.201563)" xlink:href="#ArialMT-48"/>
       <use transform="translate(112.972813 69.895313)scale(0.7)" xlink:href="#ArialMT-8722"/>
       <use transform="translate(153.851719 69.895313)scale(0.7)" xlink:href="#ArialMT-52"/>
      </g>
     </g>
    </g>
    <g id="xtick_4">
     <g id="line2d_4">
      <g>
       <use style="stroke:#000000;stroke-width:0.8;" x="110.387285" xlink:href="#m3ccf410108" y="144.11506"/>
      </g>
     </g>
     <g id="text_4">
      <!-- $\mathdefault{10^{-3}}$ -->
      <defs>
       <path d="M 4.203125 18.890625 
L 12.984375 20.0625 
Q 14.5 12.59375 18.140625 9.296875 
Q 21.78125 6 27 6 
Q 33.203125 6 37.46875 10.296875 
Q 41.75 14.59375 41.75 20.953125 
Q 41.75 27 37.796875 30.921875 
Q 33.84375 34.859375 27.734375 34.859375 
Q 25.25 34.859375 21.53125 33.890625 
L 22.515625 41.609375 
Q 23.390625 41.5 23.921875 41.5 
Q 29.546875 41.5 34.03125 44.421875 
Q 38.53125 47.359375 38.53125 53.46875 
Q 38.53125 58.296875 35.25 61.46875 
Q 31.984375 64.65625 26.8125 64.65625 
Q 21.6875 64.65625 18.265625 61.421875 
Q 14.84375 58.203125 13.875 51.765625 
L 5.078125 53.328125 
Q 6.6875 62.15625 12.390625 67.015625 
Q 18.109375 71.875 26.609375 71.875 
Q 32.46875 71.875 37.390625 69.359375 
Q 42.328125 66.84375 44.9375 62.5 
Q 47.5625 58.15625 47.5625 53.265625 
Q 47.5625 48.640625 45.0625 44.828125 
Q 42.578125 41.015625 37.703125 38.765625 
Q 44.046875 37.3125 47.5625 32.6875 
Q 51.078125 28.078125 51.078125 21.140625 
Q 51.078125 11.765625 44.234375 5.25 
Q 37.40625 -1.265625 26.953125 -1.265625 
Q 17.53125 -1.265625 11.296875 4.34375 
Q 5.078125 9.96875 4.203125 18.890625 
z
" id="ArialMT-51"/>
      </defs>
      <g transform="translate(102.965255 156.346341)scale(0.07497 -0.07497)">
       <use transform="translate(0 0.99375)" xlink:href="#ArialMT-49"/>
       <use transform="translate(55.615234 0.99375)" xlink:href="#ArialMT-48"/>
       <use transform="translate(112.972813 70.6875)scale(0.7)" xlink:href="#ArialMT-8722"/>
       <use transform="translate(153.851719 70.6875)scale(0.7)" xlink:href="#ArialMT-51"/>
      </g>
     </g>
    </g>
    <g id="xtick_5">
     <g id="line2d_5">
      <g>
       <use style="stroke:#000000;stroke-width:0.8;" x="131.625834" xlink:href="#m3ccf410108" y="144.11506"/>
      </g>
     </g>
     <g id="text_5">
      <!-- $\mathdefault{10^{-2}}$ -->
      <defs>
       <path d="M 50.34375 8.453125 
L 50.34375 0 
L 3.03125 0 
Q 2.9375 3.171875 4.046875 6.109375 
Q 5.859375 10.9375 9.828125 15.625 
Q 13.8125 20.3125 21.34375 26.46875 
Q 33.015625 36.03125 37.109375 41.625 
Q 41.21875 47.21875 41.21875 52.203125 
Q 41.21875 57.421875 37.46875 61 
Q 33.734375 64.59375 27.734375 64.59375 
Q 21.390625 64.59375 17.578125 60.78125 
Q 13.765625 56.984375 13.71875 50.25 
L 4.6875 51.171875 
Q 5.609375 61.28125 11.65625 66.578125 
Q 17.71875 71.875 27.9375 71.875 
Q 38.234375 71.875 44.234375 66.15625 
Q 50.25 60.453125 50.25 52 
Q 50.25 47.703125 48.484375 43.546875 
Q 46.734375 39.40625 42.65625 34.8125 
Q 38.578125 30.21875 29.109375 22.21875 
Q 21.1875 15.578125 18.9375 13.203125 
Q 16.703125 10.84375 15.234375 8.453125 
z
" id="ArialMT-50"/>
      </defs>
      <g transform="translate(124.203804 156.346341)scale(0.07497 -0.07497)">
       <use transform="translate(0 0.99375)" xlink:href="#ArialMT-49"/>
       <use transform="translate(55.615234 0.99375)" xlink:href="#ArialMT-48"/>
       <use transform="translate(112.972813 70.6875)scale(0.7)" xlink:href="#ArialMT-8722"/>
       <use transform="translate(153.851719 70.6875)scale(0.7)" xlink:href="#ArialMT-50"/>
      </g>
     </g>
    </g>
    <g id="xtick_6">
     <g id="line2d_6">
      <g>
       <use style="stroke:#000000;stroke-width:0.8;" x="152.864383" xlink:href="#m3ccf410108" y="144.11506"/>
      </g>
     </g>
     <g id="text_6">
      <!-- $\mathdefault{10^{-1}}$ -->
      <g transform="translate(145.442353 156.346341)scale(0.07497 -0.07497)">
       <use transform="translate(0 0.99375)" xlink:href="#ArialMT-49"/>
       <use transform="translate(55.615234 0.99375)" xlink:href="#ArialMT-48"/>
       <use transform="translate(112.972813 70.6875)scale(0.7)" xlink:href="#ArialMT-8722"/>
       <use transform="translate(153.851719 70.6875)scale(0.7)" xlink:href="#ArialMT-49"/>
      </g>
     </g>
    </g>
    <g id="text_7">
     <!-- Normalized clone size -->
     <defs>
      <path d="M 7.625 0 
L 7.625 71.578125 
L 17.328125 71.578125 
L 54.9375 15.375 
L 54.9375 71.578125 
L 64.015625 71.578125 
L 64.015625 0 
L 54.296875 0 
L 16.703125 56.25 
L 16.703125 0 
z
" id="ArialMT-78"/>
      <path d="M 3.328125 25.921875 
Q 3.328125 40.328125 11.328125 47.265625 
Q 18.015625 53.03125 27.640625 53.03125 
Q 38.328125 53.03125 45.109375 46.015625 
Q 51.90625 39.015625 51.90625 26.65625 
Q 51.90625 16.65625 48.90625 10.90625 
Q 45.90625 5.171875 40.15625 2 
Q 34.421875 -1.171875 27.640625 -1.171875 
Q 16.75 -1.171875 10.03125 5.8125 
Q 3.328125 12.796875 3.328125 25.921875 
z
M 12.359375 25.921875 
Q 12.359375 15.96875 16.703125 11.015625 
Q 21.046875 6.0625 27.640625 6.0625 
Q 34.1875 6.0625 38.53125 11.03125 
Q 42.875 16.015625 42.875 26.21875 
Q 42.875 35.84375 38.5 40.796875 
Q 34.125 45.75 27.640625 45.75 
Q 21.046875 45.75 16.703125 40.8125 
Q 12.359375 35.890625 12.359375 25.921875 
z
" id="ArialMT-111"/>
      <path d="M 6.5 0 
L 6.5 51.859375 
L 14.40625 51.859375 
L 14.40625 44 
Q 17.4375 49.515625 20 51.265625 
Q 22.5625 53.03125 25.640625 53.03125 
Q 30.078125 53.03125 34.671875 50.203125 
L 31.640625 42.046875 
Q 28.421875 43.953125 25.203125 43.953125 
Q 22.3125 43.953125 20.015625 42.21875 
Q 17.71875 40.484375 16.75 37.40625 
Q 15.28125 32.71875 15.28125 27.15625 
L 15.28125 0 
z
" id="ArialMT-114"/>
      <path d="M 6.59375 0 
L 6.59375 51.859375 
L 14.453125 51.859375 
L 14.453125 44.578125 
Q 16.890625 48.390625 20.9375 50.703125 
Q 25 53.03125 30.171875 53.03125 
Q 35.9375 53.03125 39.625 50.640625 
Q 43.3125 48.25 44.828125 43.953125 
Q 50.984375 53.03125 60.84375 53.03125 
Q 68.5625 53.03125 72.703125 48.75 
Q 76.859375 44.484375 76.859375 35.59375 
L 76.859375 0 
L 68.109375 0 
L 68.109375 32.671875 
Q 68.109375 37.9375 67.25 40.25 
Q 66.40625 42.578125 64.15625 43.984375 
Q 61.921875 45.40625 58.890625 45.40625 
Q 53.421875 45.40625 49.796875 41.765625 
Q 46.1875 38.140625 46.1875 30.125 
L 46.1875 0 
L 37.40625 0 
L 37.40625 33.6875 
Q 37.40625 39.546875 35.25 42.46875 
Q 33.109375 45.40625 28.21875 45.40625 
Q 24.515625 45.40625 21.359375 43.453125 
Q 18.21875 41.5 16.796875 37.734375 
Q 15.375 33.984375 15.375 26.90625 
L 15.375 0 
z
" id="ArialMT-109"/>
      <path d="M 40.4375 6.390625 
Q 35.546875 2.25 31.03125 0.53125 
Q 26.515625 -1.171875 21.34375 -1.171875 
Q 12.796875 -1.171875 8.203125 3 
Q 3.609375 7.171875 3.609375 13.671875 
Q 3.609375 17.484375 5.34375 20.625 
Q 7.078125 23.78125 9.890625 25.6875 
Q 12.703125 27.59375 16.21875 28.5625 
Q 18.796875 29.25 24.03125 29.890625 
Q 34.671875 31.15625 39.703125 32.90625 
Q 39.75 34.71875 39.75 35.203125 
Q 39.75 40.578125 37.25 42.78125 
Q 33.890625 45.75 27.25 45.75 
Q 21.046875 45.75 18.09375 43.578125 
Q 15.140625 41.40625 13.71875 35.890625 
L 5.125 37.0625 
Q 6.296875 42.578125 8.984375 45.96875 
Q 11.671875 49.359375 16.75 51.1875 
Q 21.828125 53.03125 28.515625 53.03125 
Q 35.15625 53.03125 39.296875 51.46875 
Q 43.453125 49.90625 45.40625 47.53125 
Q 47.359375 45.171875 48.140625 41.546875 
Q 48.578125 39.3125 48.578125 33.453125 
L 48.578125 21.734375 
Q 48.578125 9.46875 49.140625 6.21875 
Q 49.703125 2.984375 51.375 0 
L 42.1875 0 
Q 40.828125 2.734375 40.4375 6.390625 
z
M 39.703125 26.03125 
Q 34.90625 24.078125 25.34375 22.703125 
Q 19.921875 21.921875 17.671875 20.9375 
Q 15.4375 19.96875 14.203125 18.09375 
Q 12.984375 16.21875 12.984375 13.921875 
Q 12.984375 10.40625 15.640625 8.0625 
Q 18.3125 5.71875 23.4375 5.71875 
Q 28.515625 5.71875 32.46875 7.9375 
Q 36.421875 10.15625 38.28125 14.015625 
Q 39.703125 17 39.703125 22.796875 
z
" id="ArialMT-97"/>
      <path d="M 6.390625 0 
L 6.390625 71.578125 
L 15.1875 71.578125 
L 15.1875 0 
z
" id="ArialMT-108"/>
      <path d="M 6.640625 61.46875 
L 6.640625 71.578125 
L 15.4375 71.578125 
L 15.4375 61.46875 
z
M 6.640625 0 
L 6.640625 51.859375 
L 15.4375 51.859375 
L 15.4375 0 
z
" id="ArialMT-105"/>
      <path d="M 1.953125 0 
L 1.953125 7.125 
L 34.96875 45.015625 
Q 29.34375 44.734375 25.046875 44.734375 
L 3.90625 44.734375 
L 3.90625 51.859375 
L 46.296875 51.859375 
L 46.296875 46.046875 
L 18.21875 13.140625 
L 12.796875 7.125 
Q 18.703125 7.5625 23.875 7.5625 
L 47.859375 7.5625 
L 47.859375 0 
z
" id="ArialMT-122"/>
      <path d="M 42.09375 16.703125 
L 51.171875 15.578125 
Q 49.03125 7.625 43.21875 3.21875 
Q 37.40625 -1.171875 28.375 -1.171875 
Q 17 -1.171875 10.328125 5.828125 
Q 3.65625 12.84375 3.65625 25.484375 
Q 3.65625 38.578125 10.390625 45.796875 
Q 17.140625 53.03125 27.875 53.03125 
Q 38.28125 53.03125 44.875 45.953125 
Q 51.46875 38.875 51.46875 26.03125 
Q 51.46875 25.25 51.421875 23.6875 
L 12.75 23.6875 
Q 13.234375 15.140625 17.578125 10.59375 
Q 21.921875 6.0625 28.421875 6.0625 
Q 33.25 6.0625 36.671875 8.59375 
Q 40.09375 11.140625 42.09375 16.703125 
z
M 13.234375 30.90625 
L 42.1875 30.90625 
Q 41.609375 37.453125 38.875 40.71875 
Q 34.671875 45.796875 27.984375 45.796875 
Q 21.921875 45.796875 17.796875 41.75 
Q 13.671875 37.703125 13.234375 30.90625 
z
" id="ArialMT-101"/>
      <path d="M 40.234375 0 
L 40.234375 6.546875 
Q 35.296875 -1.171875 25.734375 -1.171875 
Q 19.53125 -1.171875 14.328125 2.25 
Q 9.125 5.671875 6.265625 11.796875 
Q 3.421875 17.921875 3.421875 25.875 
Q 3.421875 33.640625 6 39.96875 
Q 8.59375 46.296875 13.765625 49.65625 
Q 18.953125 53.03125 25.34375 53.03125 
Q 30.03125 53.03125 33.6875 51.046875 
Q 37.359375 49.078125 39.65625 45.90625 
L 39.65625 71.578125 
L 48.390625 71.578125 
L 48.390625 0 
z
M 12.453125 25.875 
Q 12.453125 15.921875 16.640625 10.984375 
Q 20.84375 6.0625 26.5625 6.0625 
Q 32.328125 6.0625 36.34375 10.765625 
Q 40.375 15.484375 40.375 25.140625 
Q 40.375 35.796875 36.265625 40.765625 
Q 32.171875 45.75 26.171875 45.75 
Q 20.3125 45.75 16.375 40.96875 
Q 12.453125 36.1875 12.453125 25.875 
z
" id="ArialMT-100"/>
      <path id="ArialMT-32"/>
      <path d="M 40.4375 19 
L 49.078125 17.875 
Q 47.65625 8.9375 41.8125 3.875 
Q 35.984375 -1.171875 27.484375 -1.171875 
Q 16.84375 -1.171875 10.375 5.78125 
Q 3.90625 12.75 3.90625 25.734375 
Q 3.90625 34.125 6.6875 40.421875 
Q 9.46875 46.734375 15.15625 49.875 
Q 20.84375 53.03125 27.546875 53.03125 
Q 35.984375 53.03125 41.359375 48.75 
Q 46.734375 44.484375 48.25 36.625 
L 39.703125 35.296875 
Q 38.484375 40.53125 35.375 43.15625 
Q 32.28125 45.796875 27.875 45.796875 
Q 21.234375 45.796875 17.078125 41.03125 
Q 12.9375 36.28125 12.9375 25.984375 
Q 12.9375 15.53125 16.9375 10.796875 
Q 20.953125 6.0625 27.390625 6.0625 
Q 32.5625 6.0625 36.03125 9.234375 
Q 39.5 12.40625 40.4375 19 
z
" id="ArialMT-99"/>
      <path d="M 6.59375 0 
L 6.59375 51.859375 
L 14.5 51.859375 
L 14.5 44.484375 
Q 20.21875 53.03125 31 53.03125 
Q 35.6875 53.03125 39.625 51.34375 
Q 43.5625 49.65625 45.515625 46.921875 
Q 47.46875 44.1875 48.25 40.4375 
Q 48.734375 37.984375 48.734375 31.890625 
L 48.734375 0 
L 39.9375 0 
L 39.9375 31.546875 
Q 39.9375 36.921875 38.90625 39.578125 
Q 37.890625 42.234375 35.28125 43.8125 
Q 32.671875 45.40625 29.15625 45.40625 
Q 23.53125 45.40625 19.453125 41.84375 
Q 15.375 38.28125 15.375 28.328125 
L 15.375 0 
z
" id="ArialMT-110"/>
      <path d="M 3.078125 15.484375 
L 11.765625 16.84375 
Q 12.5 11.625 15.84375 8.84375 
Q 19.1875 6.0625 25.203125 6.0625 
Q 31.25 6.0625 34.171875 8.515625 
Q 37.109375 10.984375 37.109375 14.3125 
Q 37.109375 17.28125 34.515625 19 
Q 32.71875 20.171875 25.53125 21.96875 
Q 15.875 24.421875 12.140625 26.203125 
Q 8.40625 27.984375 6.46875 31.125 
Q 4.546875 34.28125 4.546875 38.09375 
Q 4.546875 41.546875 6.125 44.5 
Q 7.71875 47.46875 10.453125 49.421875 
Q 12.5 50.921875 16.03125 51.96875 
Q 19.578125 53.03125 23.640625 53.03125 
Q 29.734375 53.03125 34.34375 51.265625 
Q 38.96875 49.515625 41.15625 46.5 
Q 43.359375 43.5 44.1875 38.484375 
L 35.59375 37.3125 
Q 35.015625 41.3125 32.203125 43.546875 
Q 29.390625 45.796875 24.265625 45.796875 
Q 18.21875 45.796875 15.625 43.796875 
Q 13.03125 41.796875 13.03125 39.109375 
Q 13.03125 37.40625 14.109375 36.03125 
Q 15.1875 34.625 17.484375 33.6875 
Q 18.796875 33.203125 25.25 31.453125 
Q 34.578125 28.953125 38.25 27.359375 
Q 41.9375 25.78125 44.03125 22.75 
Q 46.140625 19.734375 46.140625 15.234375 
Q 46.140625 10.84375 43.578125 6.953125 
Q 41.015625 3.078125 36.171875 0.953125 
Q 31.34375 -1.171875 25.25 -1.171875 
Q 15.140625 -1.171875 9.84375 3.03125 
Q 4.546875 7.234375 3.078125 15.484375 
z
" id="ArialMT-115"/>
     </defs>
     <g transform="translate(63.102995 164.702582)scale(0.07497 -0.07497)">
      <use xlink:href="#ArialMT-78"/>
      <use x="72.216797" xlink:href="#ArialMT-111"/>
      <use x="127.832031" xlink:href="#ArialMT-114"/>
      <use x="161.132812" xlink:href="#ArialMT-109"/>
      <use x="244.433594" xlink:href="#ArialMT-97"/>
      <use x="300.048828" xlink:href="#ArialMT-108"/>
      <use x="322.265625" xlink:href="#ArialMT-105"/>
      <use x="344.482422" xlink:href="#ArialMT-122"/>
      <use x="394.482422" xlink:href="#ArialMT-101"/>
      <use x="450.097656" xlink:href="#ArialMT-100"/>
      <use x="505.712891" xlink:href="#ArialMT-32"/>
      <use x="533.496094" xlink:href="#ArialMT-99"/>
      <use x="583.496094" xlink:href="#ArialMT-108"/>
      <use x="605.712891" xlink:href="#ArialMT-111"/>
      <use x="661.328125" xlink:href="#ArialMT-110"/>
      <use x="716.943359" xlink:href="#ArialMT-101"/>
      <use x="772.558594" xlink:href="#ArialMT-32"/>
      <use x="800.341797" xlink:href="#ArialMT-115"/>
      <use x="850.341797" xlink:href="#ArialMT-105"/>
      <use x="872.558594" xlink:href="#ArialMT-122"/>
      <use x="922.558594" xlink:href="#ArialMT-101"/>
     </g>
    </g>
   </g>
   <g id="matplotlib.axis_2">
    <g id="ytick_1">
     <g id="line2d_7">
      <defs>
       <path d="M 2 0 
L -2 -0 
" id="medd31b44c7" style="stroke:#000000;stroke-width:0.8;"/>
      </defs>
      <g>
       <use style="stroke:#000000;stroke-width:0.8;" x="31.826531" xlink:href="#medd31b44c7" y="144.11506"/>
      </g>
     </g>
     <g id="text_8">
      <!-- $\mathdefault{10^{0}}$ -->
      <g transform="translate(15.556241 147.9807)scale(0.07497 -0.07497)">
       <use transform="translate(0 0.99375)" xlink:href="#ArialMT-49"/>
       <use transform="translate(55.615234 0.99375)" xlink:href="#ArialMT-48"/>
       <use transform="translate(112.972813 70.6875)scale(0.7)" xlink:href="#ArialMT-48"/>
      </g>
     </g>
    </g>
    <g id="ytick_2">
     <g id="line2d_8">
      <g>
       <use style="stroke:#000000;stroke-width:0.8;" x="31.826531" xlink:href="#medd31b44c7" y="122.715193"/>
      </g>
     </g>
     <g id="text_9">
      <!-- $\mathdefault{10^{1}}$ -->
      <g transform="translate(15.556241 126.580834)scale(0.07497 -0.07497)">
       <use transform="translate(0 0.99375)" xlink:href="#ArialMT-49"/>
       <use transform="translate(55.615234 0.99375)" xlink:href="#ArialMT-48"/>
       <use transform="translate(112.972813 70.6875)scale(0.7)" xlink:href="#ArialMT-49"/>
      </g>
     </g>
    </g>
    <g id="ytick_3">
     <g id="line2d_9">
      <g>
       <use style="stroke:#000000;stroke-width:0.8;" x="31.826531" xlink:href="#medd31b44c7" y="101.315327"/>
      </g>
     </g>
     <g id="text_10">
      <!-- $\mathdefault{10^{2}}$ -->
      <g transform="translate(15.556241 105.180968)scale(0.07497 -0.07497)">
       <use transform="translate(0 0.99375)" xlink:href="#ArialMT-49"/>
       <use transform="translate(55.615234 0.99375)" xlink:href="#ArialMT-48"/>
       <use transform="translate(112.972813 70.6875)scale(0.7)" xlink:href="#ArialMT-50"/>
      </g>
     </g>
    </g>
    <g id="ytick_4">
     <g id="line2d_10">
      <g>
       <use style="stroke:#000000;stroke-width:0.8;" x="31.826531" xlink:href="#medd31b44c7" y="79.915461"/>
      </g>
     </g>
     <g id="text_11">
      <!-- $\mathdefault{10^{3}}$ -->
      <g transform="translate(15.556241 83.781102)scale(0.07497 -0.07497)">
       <use transform="translate(0 0.99375)" xlink:href="#ArialMT-49"/>
       <use transform="translate(55.615234 0.99375)" xlink:href="#ArialMT-48"/>
       <use transform="translate(112.972813 70.6875)scale(0.7)" xlink:href="#ArialMT-51"/>
      </g>
     </g>
    </g>
    <g id="ytick_5">
     <g id="line2d_11">
      <g>
       <use style="stroke:#000000;stroke-width:0.8;" x="31.826531" xlink:href="#medd31b44c7" y="58.515595"/>
      </g>
     </g>
     <g id="text_12">
      <!-- $\mathdefault{10^{4}}$ -->
      <g transform="translate(15.556241 62.343751)scale(0.07497 -0.07497)">
       <use transform="translate(0 0.201563)" xlink:href="#ArialMT-49"/>
       <use transform="translate(55.615234 0.201563)" xlink:href="#ArialMT-48"/>
       <use transform="translate(112.972813 69.895313)scale(0.7)" xlink:href="#ArialMT-52"/>
      </g>
     </g>
    </g>
    <g id="ytick_6">
     <g id="line2d_12">
      <g>
       <use style="stroke:#000000;stroke-width:0.8;" x="31.826531" xlink:href="#medd31b44c7" y="37.115729"/>
      </g>
     </g>
     <g id="text_13">
      <!-- $\mathdefault{10^{5}}$ -->
      <g transform="translate(15.556241 40.943885)scale(0.07497 -0.07497)">
       <use transform="translate(0 0.879688)" xlink:href="#ArialMT-49"/>
       <use transform="translate(55.615234 0.879688)" xlink:href="#ArialMT-48"/>
       <use transform="translate(112.972813 70.573438)scale(0.7)" xlink:href="#ArialMT-53"/>
      </g>
     </g>
    </g>
    <g id="ytick_7">
     <g id="line2d_13">
      <g>
       <use style="stroke:#000000;stroke-width:0.8;" x="31.826531" xlink:href="#medd31b44c7" y="15.715863"/>
      </g>
     </g>
     <g id="text_14">
      <!-- $\mathdefault{10^{6}}$ -->
      <g transform="translate(15.556241 19.581504)scale(0.07497 -0.07497)">
       <use transform="translate(0 0.99375)" xlink:href="#ArialMT-49"/>
       <use transform="translate(55.615234 0.99375)" xlink:href="#ArialMT-48"/>
       <use transform="translate(112.972813 70.6875)scale(0.7)" xlink:href="#ArialMT-54"/>
      </g>
     </g>
    </g>
    <g id="ytick_8">
     <g id="line2d_14">
      <defs>
       <path d="M 1 0 
L -1 -0 
" id="m0c940d8c92" style="stroke:#000000;stroke-width:0.4;"/>
      </defs>
      <g>
       <use style="stroke:#000000;stroke-width:0.4;" x="31.826531" xlink:href="#m0c940d8c92" y="137.673058"/>
      </g>
     </g>
    </g>
    <g id="ytick_9">
     <g id="line2d_15">
      <g>
       <use style="stroke:#000000;stroke-width:0.4;" x="31.826531" xlink:href="#m0c940d8c92" y="133.904729"/>
      </g>
     </g>
    </g>
    <g id="ytick_10">
     <g id="line2d_16">
      <g>
       <use style="stroke:#000000;stroke-width:0.4;" x="31.826531" xlink:href="#m0c940d8c92" y="131.231056"/>
      </g>
     </g>
    </g>
    <g id="ytick_11">
     <g id="line2d_17">
      <g>
       <use style="stroke:#000000;stroke-width:0.4;" x="31.826531" xlink:href="#m0c940d8c92" y="129.157195"/>
      </g>
     </g>
    </g>
    <g id="ytick_12">
     <g id="line2d_18">
      <g>
       <use style="stroke:#000000;stroke-width:0.4;" x="31.826531" xlink:href="#m0c940d8c92" y="127.462727"/>
      </g>
     </g>
    </g>
    <g id="ytick_13">
     <g id="line2d_19">
      <g>
       <use style="stroke:#000000;stroke-width:0.4;" x="31.826531" xlink:href="#m0c940d8c92" y="126.030075"/>
      </g>
     </g>
    </g>
    <g id="ytick_14">
     <g id="line2d_20">
      <g>
       <use style="stroke:#000000;stroke-width:0.4;" x="31.826531" xlink:href="#m0c940d8c92" y="124.789055"/>
      </g>
     </g>
    </g>
    <g id="ytick_15">
     <g id="line2d_21">
      <g>
       <use style="stroke:#000000;stroke-width:0.4;" x="31.826531" xlink:href="#m0c940d8c92" y="123.694398"/>
      </g>
     </g>
    </g>
    <g id="ytick_16">
     <g id="line2d_22">
      <g>
       <use style="stroke:#000000;stroke-width:0.4;" x="31.826531" xlink:href="#m0c940d8c92" y="116.273192"/>
      </g>
     </g>
    </g>
    <g id="ytick_17">
     <g id="line2d_23">
      <g>
       <use style="stroke:#000000;stroke-width:0.4;" x="31.826531" xlink:href="#m0c940d8c92" y="112.504862"/>
      </g>
     </g>
    </g>
    <g id="ytick_18">
     <g id="line2d_24">
      <g>
       <use style="stroke:#000000;stroke-width:0.4;" x="31.826531" xlink:href="#m0c940d8c92" y="109.83119"/>
      </g>
     </g>
    </g>
    <g id="ytick_19">
     <g id="line2d_25">
      <g>
       <use style="stroke:#000000;stroke-width:0.4;" x="31.826531" xlink:href="#m0c940d8c92" y="107.757329"/>
      </g>
     </g>
    </g>
    <g id="ytick_20">
     <g id="line2d_26">
      <g>
       <use style="stroke:#000000;stroke-width:0.4;" x="31.826531" xlink:href="#m0c940d8c92" y="106.062861"/>
      </g>
     </g>
    </g>
    <g id="ytick_21">
     <g id="line2d_27">
      <g>
       <use style="stroke:#000000;stroke-width:0.4;" x="31.826531" xlink:href="#m0c940d8c92" y="104.630209"/>
      </g>
     </g>
    </g>
    <g id="ytick_22">
     <g id="line2d_28">
      <g>
       <use style="stroke:#000000;stroke-width:0.4;" x="31.826531" xlink:href="#m0c940d8c92" y="103.389189"/>
      </g>
     </g>
    </g>
    <g id="ytick_23">
     <g id="line2d_29">
      <g>
       <use style="stroke:#000000;stroke-width:0.4;" x="31.826531" xlink:href="#m0c940d8c92" y="102.294532"/>
      </g>
     </g>
    </g>
    <g id="ytick_24">
     <g id="line2d_30">
      <g>
       <use style="stroke:#000000;stroke-width:0.4;" x="31.826531" xlink:href="#m0c940d8c92" y="94.873326"/>
      </g>
     </g>
    </g>
    <g id="ytick_25">
     <g id="line2d_31">
      <g>
       <use style="stroke:#000000;stroke-width:0.4;" x="31.826531" xlink:href="#m0c940d8c92" y="91.104996"/>
      </g>
     </g>
    </g>
    <g id="ytick_26">
     <g id="line2d_32">
      <g>
       <use style="stroke:#000000;stroke-width:0.4;" x="31.826531" xlink:href="#m0c940d8c92" y="88.431324"/>
      </g>
     </g>
    </g>
    <g id="ytick_27">
     <g id="line2d_33">
      <g>
       <use style="stroke:#000000;stroke-width:0.4;" x="31.826531" xlink:href="#m0c940d8c92" y="86.357463"/>
      </g>
     </g>
    </g>
    <g id="ytick_28">
     <g id="line2d_34">
      <g>
       <use style="stroke:#000000;stroke-width:0.4;" x="31.826531" xlink:href="#m0c940d8c92" y="84.662995"/>
      </g>
     </g>
    </g>
    <g id="ytick_29">
     <g id="line2d_35">
      <g>
       <use style="stroke:#000000;stroke-width:0.4;" x="31.826531" xlink:href="#m0c940d8c92" y="83.230342"/>
      </g>
     </g>
    </g>
    <g id="ytick_30">
     <g id="line2d_36">
      <g>
       <use style="stroke:#000000;stroke-width:0.4;" x="31.826531" xlink:href="#m0c940d8c92" y="81.989323"/>
      </g>
     </g>
    </g>
    <g id="ytick_31">
     <g id="line2d_37">
      <g>
       <use style="stroke:#000000;stroke-width:0.4;" x="31.826531" xlink:href="#m0c940d8c92" y="80.894665"/>
      </g>
     </g>
    </g>
    <g id="ytick_32">
     <g id="line2d_38">
      <g>
       <use style="stroke:#000000;stroke-width:0.4;" x="31.826531" xlink:href="#m0c940d8c92" y="73.47346"/>
      </g>
     </g>
    </g>
    <g id="ytick_33">
     <g id="line2d_39">
      <g>
       <use style="stroke:#000000;stroke-width:0.4;" x="31.826531" xlink:href="#m0c940d8c92" y="69.70513"/>
      </g>
     </g>
    </g>
    <g id="ytick_34">
     <g id="line2d_40">
      <g>
       <use style="stroke:#000000;stroke-width:0.4;" x="31.826531" xlink:href="#m0c940d8c92" y="67.031458"/>
      </g>
     </g>
    </g>
    <g id="ytick_35">
     <g id="line2d_41">
      <g>
       <use style="stroke:#000000;stroke-width:0.4;" x="31.826531" xlink:href="#m0c940d8c92" y="64.957597"/>
      </g>
     </g>
    </g>
    <g id="ytick_36">
     <g id="line2d_42">
      <g>
       <use style="stroke:#000000;stroke-width:0.4;" x="31.826531" xlink:href="#m0c940d8c92" y="63.263129"/>
      </g>
     </g>
    </g>
    <g id="ytick_37">
     <g id="line2d_43">
      <g>
       <use style="stroke:#000000;stroke-width:0.4;" x="31.826531" xlink:href="#m0c940d8c92" y="61.830476"/>
      </g>
     </g>
    </g>
    <g id="ytick_38">
     <g id="line2d_44">
      <g>
       <use style="stroke:#000000;stroke-width:0.4;" x="31.826531" xlink:href="#m0c940d8c92" y="60.589456"/>
      </g>
     </g>
    </g>
    <g id="ytick_39">
     <g id="line2d_45">
      <g>
       <use style="stroke:#000000;stroke-width:0.4;" x="31.826531" xlink:href="#m0c940d8c92" y="59.494799"/>
      </g>
     </g>
    </g>
    <g id="ytick_40">
     <g id="line2d_46">
      <g>
       <use style="stroke:#000000;stroke-width:0.4;" x="31.826531" xlink:href="#m0c940d8c92" y="52.073594"/>
      </g>
     </g>
    </g>
    <g id="ytick_41">
     <g id="line2d_47">
      <g>
       <use style="stroke:#000000;stroke-width:0.4;" x="31.826531" xlink:href="#m0c940d8c92" y="48.305264"/>
      </g>
     </g>
    </g>
    <g id="ytick_42">
     <g id="line2d_48">
      <g>
       <use style="stroke:#000000;stroke-width:0.4;" x="31.826531" xlink:href="#m0c940d8c92" y="45.631592"/>
      </g>
     </g>
    </g>
    <g id="ytick_43">
     <g id="line2d_49">
      <g>
       <use style="stroke:#000000;stroke-width:0.4;" x="31.826531" xlink:href="#m0c940d8c92" y="43.557731"/>
      </g>
     </g>
    </g>
    <g id="ytick_44">
     <g id="line2d_50">
      <g>
       <use style="stroke:#000000;stroke-width:0.4;" x="31.826531" xlink:href="#m0c940d8c92" y="41.863263"/>
      </g>
     </g>
    </g>
    <g id="ytick_45">
     <g id="line2d_51">
      <g>
       <use style="stroke:#000000;stroke-width:0.4;" x="31.826531" xlink:href="#m0c940d8c92" y="40.43061"/>
      </g>
     </g>
    </g>
    <g id="ytick_46">
     <g id="line2d_52">
      <g>
       <use style="stroke:#000000;stroke-width:0.4;" x="31.826531" xlink:href="#m0c940d8c92" y="39.18959"/>
      </g>
     </g>
    </g>
    <g id="ytick_47">
     <g id="line2d_53">
      <g>
       <use style="stroke:#000000;stroke-width:0.4;" x="31.826531" xlink:href="#m0c940d8c92" y="38.094933"/>
      </g>
     </g>
    </g>
    <g id="ytick_48">
     <g id="line2d_54">
      <g>
       <use style="stroke:#000000;stroke-width:0.4;" x="31.826531" xlink:href="#m0c940d8c92" y="30.673727"/>
      </g>
     </g>
    </g>
    <g id="ytick_49">
     <g id="line2d_55">
      <g>
       <use style="stroke:#000000;stroke-width:0.4;" x="31.826531" xlink:href="#m0c940d8c92" y="26.905398"/>
      </g>
     </g>
    </g>
    <g id="ytick_50">
     <g id="line2d_56">
      <g>
       <use style="stroke:#000000;stroke-width:0.4;" x="31.826531" xlink:href="#m0c940d8c92" y="24.231726"/>
      </g>
     </g>
    </g>
    <g id="ytick_51">
     <g id="line2d_57">
      <g>
       <use style="stroke:#000000;stroke-width:0.4;" x="31.826531" xlink:href="#m0c940d8c92" y="22.157865"/>
      </g>
     </g>
    </g>
    <g id="ytick_52">
     <g id="line2d_58">
      <g>
       <use style="stroke:#000000;stroke-width:0.4;" x="31.826531" xlink:href="#m0c940d8c92" y="20.463396"/>
      </g>
     </g>
    </g>
    <g id="ytick_53">
     <g id="line2d_59">
      <g>
       <use style="stroke:#000000;stroke-width:0.4;" x="31.826531" xlink:href="#m0c940d8c92" y="19.030744"/>
      </g>
     </g>
    </g>
    <g id="ytick_54">
     <g id="line2d_60">
      <g>
       <use style="stroke:#000000;stroke-width:0.4;" x="31.826531" xlink:href="#m0c940d8c92" y="17.789724"/>
      </g>
     </g>
    </g>
    <g id="ytick_55">
     <g id="line2d_61">
      <g>
       <use style="stroke:#000000;stroke-width:0.4;" x="31.826531" xlink:href="#m0c940d8c92" y="16.695067"/>
      </g>
     </g>
    </g>
    <g id="ytick_56">
     <g id="line2d_62">
      <g>
       <use style="stroke:#000000;stroke-width:0.4;" x="31.826531" xlink:href="#m0c940d8c92" y="9.273861"/>
      </g>
     </g>
    </g>
    <g id="text_15">
     <!-- Clone size rank -->
     <defs>
      <path d="M 58.796875 25.09375 
L 68.265625 22.703125 
Q 65.28125 11.03125 57.546875 4.90625 
Q 49.8125 -1.21875 38.625 -1.21875 
Q 27.046875 -1.21875 19.796875 3.484375 
Q 12.546875 8.203125 8.765625 17.140625 
Q 4.984375 26.078125 4.984375 36.328125 
Q 4.984375 47.515625 9.25 55.828125 
Q 13.53125 64.15625 21.40625 68.46875 
Q 29.296875 72.796875 38.765625 72.796875 
Q 49.515625 72.796875 56.828125 67.328125 
Q 64.15625 61.859375 67.046875 51.953125 
L 57.71875 49.75 
Q 55.21875 57.5625 50.484375 61.125 
Q 45.75 64.703125 38.578125 64.703125 
Q 30.328125 64.703125 24.78125 60.734375 
Q 19.234375 56.78125 16.984375 50.109375 
Q 14.75 43.453125 14.75 36.375 
Q 14.75 27.25 17.40625 20.4375 
Q 20.0625 13.625 25.671875 10.25 
Q 31.296875 6.890625 37.84375 6.890625 
Q 45.796875 6.890625 51.3125 11.46875 
Q 56.84375 16.0625 58.796875 25.09375 
z
" id="ArialMT-67"/>
      <path d="M 6.640625 0 
L 6.640625 71.578125 
L 15.4375 71.578125 
L 15.4375 30.765625 
L 36.234375 51.859375 
L 47.609375 51.859375 
L 27.78125 32.625 
L 49.609375 0 
L 38.765625 0 
L 21.625 26.515625 
L 15.4375 20.5625 
L 15.4375 0 
z
" id="ArialMT-107"/>
     </defs>
     <g transform="translate(12.566212 101.491138)rotate(-90)scale(0.07497 -0.07497)">
      <use xlink:href="#ArialMT-67"/>
      <use x="72.216797" xlink:href="#ArialMT-108"/>
      <use x="94.433594" xlink:href="#ArialMT-111"/>
      <use x="150.048828" xlink:href="#ArialMT-110"/>
      <use x="205.664062" xlink:href="#ArialMT-101"/>
      <use x="261.279297" xlink:href="#ArialMT-32"/>
      <use x="289.0625" xlink:href="#ArialMT-115"/>
      <use x="339.0625" xlink:href="#ArialMT-105"/>
      <use x="361.279297" xlink:href="#ArialMT-122"/>
      <use x="411.279297" xlink:href="#ArialMT-101"/>
      <use x="466.894531" xlink:href="#ArialMT-32"/>
      <use x="494.677734" xlink:href="#ArialMT-114"/>
      <use x="527.978516" xlink:href="#ArialMT-97"/>
      <use x="583.59375" xlink:href="#ArialMT-110"/>
      <use x="639.208984" xlink:href="#ArialMT-107"/>
     </g>
    </g>
   </g>
   <g id="line2d_63">
    <path clip-path="url(#p7266acbcbd)" d="M 101.416025 174.39261 
L 101.416025 144.11506 
L 99.931638 144.11506 
L 99.931638 137.673058 
L 97.891693 137.673058 
L 97.891693 133.904729 
L 97.518964 133.904729 
L 97.518964 131.231056 
L 96.51539 131.231056 
L 96.51539 127.462727 
L 95.625661 127.462727 
L 95.625661 126.030075 
L 95.146396 126.030075 
L 95.146396 124.789055 
L 94.897089 124.789055 
L 94.897089 122.715193 
L 94.769862 122.715193 
L 94.769862 121.829396 
L 94.640856 121.829396 
L 94.640856 121.020725 
L 94.242645 121.020725 
L 94.242645 120.276821 
L 93.967288 120.276821 
L 93.967288 119.588073 
L 93.538198 119.588073 
L 93.538198 118.946864 
L 93.24063 118.946864 
L 93.24063 117.783617 
L 92.615049 117.783617 
L 92.615049 117.252396 
L 92.285593 117.252396 
L 92.285593 116.749904 
L 92.116345 116.749904 
L 92.116345 116.273192 
L 91.943933 116.273192 
L 91.943933 115.819744 
L 91.768236 115.819744 
L 91.768236 115.387394 
L 91.406473 115.387394 
L 91.406473 114.578724 
L 91.220127 114.578724 
L 91.220127 113.834819 
L 90.835747 113.834819 
L 90.835747 112.819938 
L 90.637379 112.819938 
L 90.637379 111.905052 
L 90.43465 111.905052 
L 90.43465 111.341616 
L 90.015315 111.341616 
L 90.015315 111.07221 
L 89.798275 111.07221 
L 89.798275 110.555753 
L 89.576004 110.555753 
L 89.576004 110.307902 
L 89.348245 110.307902 
L 89.348245 110.06649 
L 89.114719 110.06649 
L 89.114719 108.736533 
L 88.875126 108.736533 
L 88.875126 108.332389 
L 88.629144 108.332389 
L 88.629144 107.94509 
L 88.376422 107.94509 
L 88.376422 107.392818 
L 88.11658 107.392818 
L 88.11658 106.871531 
L 87.849205 106.871531 
L 87.849205 106.539573 
L 87.573848 106.539573 
L 87.573848 105.758117 
L 87.290017 105.758117 
L 87.290017 104.763935 
L 86.997174 104.763935 
L 86.997174 104.2402 
L 86.694727 104.2402 
L 86.694727 103.624488 
L 86.382027 103.624488 
L 86.382027 103.047045 
L 86.058352 103.047045 
L 86.058352 102.294532 
L 85.722905 102.294532 
L 85.722905 102.191836 
L 85.722905 101.989788 
L 85.374796 101.989788 
L 85.374796 101.890388 
L 85.374796 101.503088 
L 85.013033 101.503088 
L 85.013033 101.408734 
L 85.013033 101.315327 
L 84.636499 101.315327 
L 84.636499 101.222851 
L 84.636499 100.600063 
L 84.243939 100.600063 
L 84.243939 100.514405 
L 84.243939 99.935935 
L 83.833925 99.935935 
L 83.833925 99.856159 
L 83.833925 99.021048 
L 83.404835 98.948722 
L 83.404835 98.948722 
L 83.404835 97.546998 
L 82.954805 97.546998 
L 82.954805 97.485245 
L 82.954805 96.383751 
L 82.481686 96.383751 
L 82.481686 96.27505 
L 82.481686 95.01379 
L 81.982982 95.01379 
L 81.982982 94.919912 
L 81.982982 94.244517 
L 81.455765 94.244517 
L 81.455765 94.158062 
L 81.455765 92.799464 
L 80.896577 92.799464 
L 80.896577 92.688602 
L 80.896577 91.516716 
L 80.301287 91.516716 
L 80.301287 91.420072 
L 80.301287 90.135091 
L 79.664912 90.135091 
L 79.664912 90.024118 
L 79.664912 89.055952 
L 78.981356 89.055952 
L 78.981356 88.95708 
L 78.981356 88.134079 
L 78.243059 88.134079 
L 78.243059 88.044499 
L 78.243059 87.295453 
L 77.440485 87.274914 
L 77.440485 87.193209 
L 77.440485 86.717514 
L 76.561364 86.717514 
L 76.561364 86.621403 
L 76.561364 86.6023 
L 75.589542 86.6023 
L 75.589542 86.507367 
L 75.589542 84.77206 
L 74.503136 84.77206 
L 74.503136 84.662995 
L 74.503136 82.726453 
L 73.271472 82.726453 
L 73.271472 82.626383 
L 73.271472 80.314237 
L 71.849619 80.314237 
L 71.849619 80.208131 
L 71.849619 77.391693 
L 70.167924 77.391693 
L 70.167924 77.28604 
L 70.167924 73.89652 
L 68.109696 73.89652 
L 68.109696 73.790138 
L 68.109696 68.352483 
L 65.456179 68.352483 
L 65.456179 68.243315 
L 65.456179 58.716642 
L 61.716256 58.716642 
L 61.716256 58.606185 
L 61.716256 44.315509 
L 55.322816 44.315307 
L 55.322816 44.204451 
L 55.322816 26.292759 
L 55.322816 26.292759 
" style="fill:none;stroke:#1f77b4;stroke-linecap:round;stroke-width:0.8;"/>
   </g>
   <g id="line2d_64">
    <path clip-path="url(#p7266acbcbd)" d="M 111.102017 174.39261 
L 111.102017 144.11506 
L 104.47797 144.11506 
L 104.47797 137.673058 
L 102.678773 137.673058 
L 102.678773 131.231056 
L 102.242923 131.231056 
L 102.242923 129.157195 
L 101.137902 129.157195 
L 101.137902 127.462727 
L 100.968654 127.462727 
L 100.968654 124.789055 
L 100.796241 124.789055 
L 100.796241 123.694398 
L 100.258782 123.694398 
L 100.258782 122.715193 
L 100.072436 122.715193 
L 100.072436 121.829396 
L 99.882248 121.829396 
L 99.882248 119.588073 
L 99.688056 119.588073 
L 99.688056 118.946864 
L 97.967027 118.946864 
L 97.967027 118.347053 
L 96.968889 118.347053 
L 96.968889 117.252396 
L 96.701514 117.252396 
L 96.701514 116.749904 
L 96.426157 116.749904 
L 96.426157 116.273192 
L 96.142325 116.273192 
L 96.142325 115.819744 
L 95.849482 115.819744 
L 95.849482 115.387394 
L 95.547036 115.387394 
L 95.547036 113.834819 
L 95.234335 113.834819 
L 95.234335 113.484067 
L 94.227105 113.484067 
L 94.227105 112.819938 
L 93.865341 112.819938 
L 93.865341 112.200119 
L 93.488808 112.200119 
L 93.488808 111.905052 
L 93.096247 111.905052 
L 93.096247 111.619065 
L 92.257143 111.619065 
L 92.257143 110.810394 
L 91.807113 110.810394 
L 91.807113 109.83119 
L 91.333995 109.83119 
L 91.333995 109.601701 
L 90.835291 109.601701 
L 90.835291 108.945392 
L 90.308074 108.945392 
L 90.308074 107.94509 
L 89.748885 107.94509 
L 89.748885 107.042065 
L 89.153596 107.042065 
L 89.153596 106.219064 
L 88.51722 106.219064 
L 88.51722 104.899614 
L 87.833664 104.899614 
L 87.833664 103.989 
L 87.095368 103.989 
L 87.095368 103.389189 
L 86.292794 103.389189 
L 86.292794 102.609607 
L 85.413673 102.609607 
L 85.413673 102.503391 
L 85.413673 101.890388 
L 84.44185 101.890388 
L 84.44185 101.792039 
L 84.44185 99.620859 
L 83.355445 99.620859 
L 83.355445 99.543732 
L 83.355445 97.546998 
L 82.12378 97.546998 
L 82.12378 97.485245 
L 82.12378 95.301251 
L 80.701928 95.301251 
L 80.701928 95.204439 
L 80.701928 92.084201 
L 79.020233 92.084201 
L 79.020233 91.981505 
L 79.020233 88.022238 
L 76.962005 88.022238 
L 76.962005 87.911727 
L 76.962005 81.071895 
L 74.308487 81.071895 
L 74.308487 80.967233 
L 74.308487 69.77978 
L 70.568565 69.77978 
L 70.568565 69.671115 
L 70.568565 53.728924 
L 64.175124 53.728369 
L 64.175124 53.617976 
L 64.175124 34.918891 
L 64.175124 34.918891 
" style="fill:none;stroke:#ff7f0e;stroke-linecap:round;stroke-width:0.8;"/>
   </g>
   <g id="line2d_65">
    <path clip-path="url(#p7266acbcbd)" d="M 103.321126 174.39261 
L 103.321126 144.11506 
L 95.830025 144.11506 
L 95.830025 137.673058 
L 95.036661 137.673058 
L 95.036661 133.904729 
L 94.641699 133.904729 
L 94.641699 131.231056 
L 93.860064 131.231056 
L 93.860064 129.157195 
L 93.410034 129.157195 
L 93.410034 127.462727 
L 91.515063 127.462727 
L 91.515063 126.030075 
L 90.025537 126.030075 
L 89.929953 123.694398 
L 89.833368 123.694398 
L 89.833368 122.715193 
L 89.436585 122.715193 
L 89.334664 121.020725 
L 89.127379 121.020725 
L 89.021963 118.347053 
L 88.476018 118.347053 
L 88.476018 117.783617 
L 88.362841 117.783617 
L 88.362841 116.749904 
L 88.248258 116.749904 
L 88.248258 116.273192 
L 88.132234 116.273192 
L 88.132234 115.387394 
L 87.895714 115.387394 
L 87.895714 114.578724 
L 87.77514 114.578724 
L 87.77514 114.199331 
L 87.652969 114.199331 
L 87.652969 113.146071 
L 87.529158 113.146071 
L 87.529158 112.819938 
L 87.403662 112.819938 
L 87.403662 112.200119 
L 87.14743 112.200119 
L 87.14743 111.341616 
L 86.883875 111.341616 
L 86.883875 111.07221 
L 86.749219 111.07221 
L 86.749219 110.555753 
L 86.612568 110.555753 
L 86.612568 109.83119 
L 86.473862 109.83119 
L 86.473862 109.377742 
L 86.333038 109.377742 
L 86.333038 109.159053 
L 85.897187 109.159053 
L 85.897187 108.136722 
L 85.747204 108.136722 
L 85.747204 107.392818 
L 85.594741 107.392818 
L 85.594741 107.215787 
L 85.439716 107.215787 
L 85.439716 106.70407 
L 85.121623 106.70407 
L 85.121623 105.90924 
L 84.958366 105.90924 
L 84.958366 105.758117 
L 84.792167 105.758117 
L 84.792167 105.318956 
L 84.622918 105.318956 
L 84.622918 105.177063 
L 84.450506 105.177063 
L 84.450506 104.498379 
L 84.27481 104.498379 
L 84.27481 104.2402 
L 84.095701 104.2402 
L 84.095701 103.506094 
L 83.913046 103.506094 
L 83.913046 103.047045 
L 83.726701 103.047045 
L 83.726701 101.792039 
L 83.536513 101.792039 
L 83.536513 101.694721 
L 83.536513 101.503088 
L 83.342321 101.503088 
L 83.342321 101.408734 
L 83.342321 101.222851 
L 83.143952 101.222851 
L 83.143952 101.131285 
L 83.143952 100.686518 
L 82.941224 100.686518 
L 82.941224 100.600063 
L 82.941224 100.514405 
L 82.733939 100.514405 
L 82.733939 100.429529 
L 82.733939 100.262068 
L 82.304848 100.179456 
L 82.304848 99.856159 
L 82.082578 99.856159 
L 82.082578 99.777062 
L 82.082578 99.167411 
L 81.854818 99.167411 
L 81.854818 99.093942 
L 81.854818 98.876955 
L 81.621292 98.876955 
L 81.621292 98.805737 
L 81.621292 98.526202 
L 81.3817 98.526202 
L 81.3817 98.457613 
L 81.3817 98.25483 
L 81.135718 98.25483 
L 81.135718 98.188207 
L 81.135718 97.671749 
L 80.882996 97.671749 
L 80.882996 97.609164 
L 80.882996 97.362955 
L 80.623153 97.362955 
L 80.623153 97.302409 
L 80.623153 96.717698 
L 80.355779 96.717698 
L 80.355779 96.6612 
L 80.355779 96.27505 
L 80.080421 96.27505 
L 80.080421 96.167606 
L 80.080421 95.80104 
L 79.79659 95.80104 
L 79.79659 95.698909 
L 79.79659 95.108625 
L 79.503747 95.108625 
L 79.503747 95.01379 
L 79.503747 94.508815 
L 79.201301 94.508815 
L 79.201301 94.419878 
L 79.201301 94.115134 
L 78.8886 94.115134 
L 78.8886 94.029869 
L 78.8886 93.10173 
L 78.564925 93.10173 
L 78.564925 93.025237 
L 78.564925 92.434953 
L 78.229478 92.434953 
L 78.229478 92.328331 
L 78.229478 92.084201 
L 77.881369 92.084201 
L 77.881369 91.981505 
L 77.881369 91.614376 
L 77.519606 91.614376 
L 77.519606 91.516716 
L 77.519606 91.292757 
L 77.143073 91.292757 
L 77.143073 91.198403 
L 77.143073 90.981897 
L 76.750512 90.981897 
L 76.750512 90.890631 
L 76.750512 90.740485 
L 76.340499 90.740485 
L 76.340499 90.651548 
L 76.340499 89.996581 
L 75.911408 89.969125 
L 75.911408 89.88724 
L 75.911408 89.231549 
L 75.461378 89.231549 
L 75.461378 89.130802 
L 75.461378 88.408119 
L 74.98826 88.408119 
L 74.98826 88.315871 
L 74.98826 87.44051 
L 74.489555 87.44051 
L 74.489555 87.336667 
L 74.489555 86.469664 
L 73.962338 86.469664 
L 73.962338 86.376069 
L 73.962338 85.421109 
L 73.40315 85.421109 
L 73.40315 85.320815 
L 73.40315 84.121453 
L 72.807861 84.121453 
L 72.807861 84.019721 
L 72.807861 82.981444 
L 72.171485 82.981444 
L 72.171485 82.878606 
L 72.171485 81.862403 
L 71.487929 81.862403 
L 71.487929 81.759833 
L 71.487929 80.853451 
L 70.749633 80.853451 
L 70.749633 80.751207 
L 70.749633 79.74966 
L 69.947058 79.740535 
L 69.947058 79.640746 
L 69.947058 79.200197 
L 69.067938 79.200197 
L 69.067938 79.097502 
L 69.067938 78.845621 
L 68.096115 78.845621 
L 68.096115 78.738557 
L 68.096115 77.016834 
L 67.00971 77.016834 
L 67.00971 76.908608 
L 67.00971 74.385783 
L 65.778045 74.385783 
L 65.778045 74.278751 
L 65.778045 71.121275 
L 64.356192 71.121275 
L 64.356192 71.013665 
L 64.356192 66.772547 
L 62.674498 66.772547 
L 62.674498 66.66248 
L 62.674498 60.380391 
L 60.61627 60.380391 
L 60.61627 60.269735 
L 60.61627 51.896843 
L 57.962752 51.896843 
L 57.962752 51.785804 
L 57.962752 41.987072 
L 54.222829 41.987072 
L 54.222829 41.875973 
L 54.222829 31.502155 
L 47.829389 31.502104 
L 47.829389 31.391058 
L 47.829389 20.690613 
L 47.829389 20.690613 
" style="fill:none;stroke:#2ca02c;stroke-linecap:round;stroke-width:0.8;"/>
   </g>
   <g id="line2d_66">
    <path clip-path="url(#p7266acbcbd)" d="M 95.398172 174.39261 
L 95.398172 144.11506 
L 95.272105 144.11506 
L 95.272105 137.673058 
L 93.192697 137.673058 
L 93.192697 133.904729 
L 92.646752 133.904729 
L 92.646752 131.231056 
L 88.962901 131.231056 
L 88.878665 127.462727 
L 88.62124 127.462727 
L 88.62124 126.030075 
L 88.445543 126.030075 
L 88.445543 124.789055 
L 88.17556 124.789055 
L 88.17556 122.715193 
L 87.707247 122.715193 
L 87.610662 121.020725 
L 87.414404 121.020725 
L 87.414404 120.276821 
L 87.213879 120.276821 
L 87.111957 118.946864 
L 86.475582 118.946864 
L 86.475582 118.347053 
L 86.140135 118.347053 
L 86.140135 117.783617 
L 86.025552 117.783617 
L 86.025552 116.749904 
L 85.552434 116.749904 
L 85.552434 115.387394 
L 85.430263 115.387394 
L 85.430263 114.974266 
L 85.053729 114.974266 
L 85.053729 114.199331 
L 84.924723 114.199331 
L 84.924723 113.834819 
L 84.793887 113.834819 
L 84.793887 113.146071 
L 84.661169 113.146071 
L 84.661169 112.200119 
L 84.526512 112.200119 
L 84.526512 111.619065 
L 84.389861 111.619065 
L 84.389861 111.07221 
L 84.110331 111.07221 
L 84.110331 110.307902 
L 83.967324 110.307902 
L 83.967324 110.06649 
L 83.822065 110.06649 
L 83.822065 109.83119 
L 83.372035 109.83119 
L 83.372035 109.159053 
L 83.217009 109.159053 
L 83.217009 108.136722 
L 83.059334 108.136722 
L 83.059334 107.94509 
L 82.898916 107.94509 
L 82.898916 107.757329 
L 82.735659 107.757329 
L 82.735659 107.392818 
L 82.56946 107.392818 
L 82.56946 106.871531 
L 82.400212 106.871531 
L 82.400212 106.062861 
L 82.2278 106.062861 
L 82.2278 105.609413 
L 82.052103 105.609413 
L 82.052103 105.318956 
L 81.872995 105.318956 
L 81.872995 105.037303 
L 81.69034 105.037303 
L 81.69034 104.630209 
L 81.503994 104.630209 
L 81.503994 104.368393 
L 81.313807 104.368393 
L 81.313807 104.113751 
L 81.119614 104.113751 
L 81.119614 103.159699 
L 80.921246 103.159699 
L 80.921246 102.825753 
L 80.718517 102.825753 
L 80.718517 102.717052 
L 80.718517 102.191836 
L 80.511232 102.191836 
L 80.511232 102.090263 
L 80.511232 101.792039 
L 80.299182 101.792039 
L 80.299182 101.694721 
L 80.299182 101.222851 
L 80.082142 101.222851 
L 80.082142 101.131285 
L 80.082142 101.040612 
L 79.859871 101.040612 
L 79.859871 100.950816 
L 79.859871 100.429529 
L 79.632112 100.429529 
L 79.632112 100.345422 
L 79.632112 99.856159 
L 79.398586 99.856159 
L 79.398586 99.777062 
L 79.398586 99.467239 
L 78.913011 99.39137 
L 78.913011 99.093942 
L 78.660289 99.093942 
L 78.660289 99.021048 
L 78.660289 98.664919 
L 78.400447 98.664919 
L 78.400447 98.595302 
L 78.400447 98.122058 
L 78.133072 98.122058 
L 78.133072 98.056377 
L 78.133072 97.423899 
L 77.857715 97.423899 
L 77.857715 97.362955 
L 77.857715 96.831734 
L 77.573884 96.831734 
L 77.573884 96.774541 
L 77.573884 96.329242 
L 77.281041 96.329242 
L 77.281041 96.221173 
L 77.281041 95.547786 
L 76.978594 95.547786 
L 76.978594 95.448386 
L 76.978594 94.826972 
L 76.665894 94.826972 
L 76.665894 94.734953 
L 76.665894 94.158062 
L 76.342219 94.158062 
L 76.342219 94.072404 
L 76.342219 93.820067 
L 76.006772 93.820067 
L 76.006772 93.737454 
L 76.006772 93.493933 
L 75.658663 93.493933 
L 75.658663 93.414157 
L 75.658663 93.178858 
L 75.2969 93.178858 
L 75.2969 93.10173 
L 75.2969 92.799464 
L 74.920366 92.799464 
L 74.920366 92.688602 
L 74.920366 92.118686 
L 74.527806 92.118686 
L 74.527806 92.015611 
L 74.527806 91.420072 
L 74.117792 91.420072 
L 74.117792 91.324423 
L 74.117792 90.710745 
L 73.688702 90.681099 
L 73.688702 90.622091 
L 73.688702 89.540514 
L 73.238672 89.540514 
L 73.238672 89.43638 
L 73.238672 88.156609 
L 72.765553 88.156609 
L 72.765553 88.066813 
L 72.765553 87.172895 
L 72.266849 87.172895 
L 72.266849 87.071983 
L 72.266849 85.780916 
L 71.739632 85.780916 
L 71.739632 85.676684 
L 71.739632 84.44863 
L 71.180444 84.44863 
L 71.180444 84.343273 
L 71.180444 83.243629 
L 70.585154 83.243629 
L 70.585154 83.137866 
L 70.585154 81.896846 
L 69.948779 81.896846 
L 69.948779 81.793897 
L 69.948779 80.781763 
L 69.265223 80.781763 
L 69.265223 80.6803 
L 69.265223 79.943385 
L 68.526926 79.943385 
L 68.526926 79.841406 
L 68.526926 79.321461 
L 67.724352 79.312746 
L 67.724352 79.217424 
L 67.724352 78.995929 
L 66.845231 78.995929 
L 66.845231 78.88713 
L 66.845231 78.862202 
L 65.873409 78.862202 
L 65.873409 78.754948 
L 65.873409 76.881747 
L 64.787003 76.881747 
L 64.787003 76.775073 
L 64.787003 74.629893 
L 63.555338 74.629893 
L 63.555338 74.52003 
L 63.555338 72.098074 
L 62.133486 72.098074 
L 62.133486 71.990491 
L 62.133486 68.50914 
L 60.451791 68.50914 
L 60.451791 68.398127 
L 60.451791 63.38788 
L 58.393563 63.38788 
L 58.393563 63.27708 
L 58.393563 55.764411 
L 55.740046 55.764411 
L 55.740046 55.653781 
L 55.740046 45.0557 
L 52.000123 45.0557 
L 52.000123 44.944769 
L 52.000123 31.83769 
L 45.606683 31.83769 
L 45.606683 31.726592 
L 45.606683 17.120949 
L 45.606683 17.120949 
" style="fill:none;stroke:#d62728;stroke-linecap:round;stroke-width:0.8;"/>
   </g>
   <g id="line2d_67">
    <path clip-path="url(#p7266acbcbd)" d="M 95.837507 174.39261 
L 95.837507 144.11506 
L 93.08657 144.11506 
L 93.08657 137.673058 
L 92.383818 137.673058 
L 92.383818 133.904729 
L 92.110789 133.904729 
L 92.110789 131.231056 
L 90.929882 131.231056 
L 90.884778 127.462727 
L 90.793903 127.462727 
L 90.793903 126.030075 
L 90.373506 126.030075 
L 90.373506 124.789055 
L 90.131398 124.789055 
L 90.131398 123.694398 
L 89.575275 123.694398 
L 89.575275 122.715193 
L 89.148666 122.715193 
L 89.148666 121.829396 
L 88.701364 121.829396 
L 88.701364 121.020725 
L 88.586065 121.020725 
L 88.586065 120.276821 
L 88.351052 120.276821 
L 88.351052 119.588073 
L 88.048606 119.588073 
L 87.986908 117.783617 
L 87.607795 117.783617 
L 87.607795 117.252396 
L 87.144855 117.252396 
L 87.144855 116.749904 
L 86.066924 116.749904 
L 86.066924 116.273192 
L 85.835352 116.273192 
L 85.756852 115.387394 
L 85.677677 115.387394 
L 85.677677 114.974266 
L 85.517259 114.974266 
L 85.517259 114.578724 
L 85.187803 114.578724 
L 85.103567 113.834819 
L 84.932752 113.834819 
L 84.846143 113.146071 
L 84.670446 113.146071 
L 84.670446 112.819938 
L 84.491338 112.819938 
L 84.400463 112.200119 
L 84.215981 112.200119 
L 84.122337 111.341616 
L 83.835565 111.341616 
L 83.835565 110.810394 
L 83.33686 110.810394 
L 83.33686 109.83119 
L 83.129575 109.83119 
L 83.02416 109.377742 
L 82.809643 109.377742 
L 82.700485 108.736533 
L 82.365037 108.736533 
L 82.365037 108.332389 
L 82.250455 108.332389 
L 82.250455 107.94509 
L 82.134431 107.94509 
L 82.134431 107.757329 
L 82.016929 107.757329 
L 82.016929 107.215787 
L 81.897911 107.215787 
L 81.897911 107.042065 
L 81.777337 107.042065 
L 81.777337 106.70407 
L 81.655165 106.70407 
L 81.655165 106.539573 
L 81.531354 106.539573 
L 81.531354 106.377937 
L 81.405859 106.377937 
L 81.405859 106.062861 
L 81.278632 106.062861 
L 81.278632 105.758117 
L 81.149626 105.758117 
L 81.149626 105.46305 
L 81.01879 105.46305 
L 81.01879 105.037303 
L 80.886071 105.037303 
L 80.886071 104.630209 
L 80.614764 104.630209 
L 80.614764 104.113751 
L 80.476058 104.113751 
L 80.476058 103.506094 
L 80.335234 103.506094 
L 80.335234 103.159699 
L 80.192227 103.159699 
L 80.192227 102.825753 
L 80.046967 102.825753 
L 80.046967 102.717052 
L 80.046967 102.090263 
L 79.7494 102.090263 
L 79.7494 101.989788 
L 79.7494 101.694721 
L 79.596937 101.694721 
L 79.596937 101.59841 
L 79.596937 101.503088 
L 79.441912 101.503088 
L 79.441912 101.408734 
L 79.441912 101.315327 
L 79.284237 101.315327 
L 79.284237 101.222851 
L 79.284237 100.861879 
L 79.123819 100.861879 
L 79.123819 100.773785 
L 79.123819 100.514405 
L 78.794363 100.429529 
L 78.794363 99.777062 
L 78.625115 99.777062 
L 78.625115 99.698632 
L 78.625115 99.543732 
L 78.452702 99.543732 
L 78.452702 99.467239 
L 78.452702 99.021048 
L 78.277006 99.021048 
L 78.277006 98.948722 
L 78.277006 98.664919 
L 78.097898 98.664919 
L 78.097898 98.595302 
L 78.097898 98.188207 
L 77.915243 98.188207 
L 77.915243 98.122058 
L 77.915243 97.671749 
L 77.728897 97.671749 
L 77.728897 97.609164 
L 77.728897 97.242254 
L 77.538709 97.242254 
L 77.538709 97.182487 
L 77.538709 96.831734 
L 77.344517 96.831734 
L 77.344517 96.774541 
L 77.344517 96.605044 
L 77.146149 96.605044 
L 77.146149 96.549225 
L 77.146149 96.493739 
L 76.94342 96.493739 
L 76.94342 96.383751 
L 76.94342 95.956373 
L 76.736135 95.956373 
L 76.736135 95.85253 
L 76.736135 95.698909 
L 76.524085 95.698909 
L 76.524085 95.597888 
L 76.524085 95.301251 
L 76.307045 95.252719 
L 76.307045 95.204439 
L 76.307045 94.966732 
L 76.084774 94.966732 
L 76.084774 94.873326 
L 76.084774 94.689283 
L 75.857015 94.689283 
L 75.857015 94.598611 
L 75.857015 94.244517 
L 75.623489 94.244517 
L 75.623489 94.158062 
L 75.623489 93.945379 
L 75.383896 93.945379 
L 75.383896 93.86165 
L 75.383896 93.45396 
L 75.137914 93.45396 
L 75.137914 93.374525 
L 75.137914 92.911665 
L 74.885192 92.911665 
L 74.885192 92.836714 
L 74.885192 92.470768 
L 74.62535 92.470768 
L 74.62535 92.363736 
L 74.62535 91.947524 
L 74.357975 91.947524 
L 74.357975 91.84632 
L 74.357975 91.198403 
L 74.082618 91.198403 
L 74.082618 91.104996 
L 74.082618 90.830281 
L 73.798787 90.830281 
L 73.798787 90.740485 
L 73.798787 90.051737 
L 73.505943 90.051737 
L 73.505943 89.94175 
L 73.505943 89.619388 
L 73.203497 89.619388 
L 73.203497 89.514371 
L 73.203497 89.130802 
L 72.890797 89.130802 
L 72.890797 89.031135 
L 72.890797 88.690485 
L 72.567122 88.690485 
L 72.567122 88.595406 
L 72.567122 88.315871 
L 72.231674 88.315871 
L 72.231674 88.22453 
L 72.231674 87.889782 
L 71.883566 87.889782 
L 71.883566 87.780826 
L 71.883566 87.233972 
L 71.521802 87.233972 
L 71.521802 87.132398 
L 71.521802 86.659728 
L 71.145269 86.659728 
L 71.145269 86.56421 
L 71.145269 86.338894 
L 70.752708 86.338894 
L 70.752708 86.228251 
L 70.752708 85.939487 
L 70.342695 85.939487 
L 70.342695 85.833473 
L 70.342695 85.205157 
L 69.913604 85.188751 
L 69.913604 85.107154 
L 69.913604 84.239098 
L 69.463574 84.239098 
L 69.463574 84.136077 
L 69.463574 83.323749 
L 68.990456 83.323749 
L 68.990456 83.217075 
L 68.990456 82.248483 
L 68.491752 82.248483 
L 68.491752 82.141588 
L 68.491752 81.082426 
L 67.964535 81.082426 
L 67.964535 80.977647 
L 67.964535 79.767937 
L 67.405346 79.767937 
L 67.405346 79.65881 
L 67.405346 78.632713 
L 66.810057 78.632713 
L 66.810057 78.52806 
L 66.810057 77.563276 
L 66.173682 77.563276 
L 66.173682 77.455666 
L 66.173682 76.38561 
L 65.490126 76.38561 
L 65.490126 76.278165 
L 65.490126 75.193987 
L 64.751829 75.193987 
L 64.751829 75.088342 
L 64.751829 74.349968 
L 63.949255 74.344863 
L 63.949255 74.243346 
L 63.949255 73.775725 
L 63.070134 73.775725 
L 63.070134 73.665963 
L 63.070134 73.422484 
L 62.098311 73.422484 
L 62.098311 73.312224 
L 62.098311 71.307122 
L 61.011906 71.307122 
L 61.011906 71.19735 
L 61.011906 68.49825 
L 59.780241 68.49825 
L 59.780241 68.387367 
L 59.780241 64.914943 
L 58.358389 64.914943 
L 58.358389 64.804585 
L 58.358389 60.111699 
L 56.676694 60.111699 
L 56.676694 60.000907 
L 56.676694 53.563813 
L 54.618466 53.563813 
L 54.618466 53.45319 
L 54.618466 45.266187 
L 51.964948 45.266187 
L 51.964948 45.155159 
L 51.964948 35.832495 
L 48.225026 35.832495 
L 48.225026 35.721446 
L 48.225026 25.496941 
L 41.831585 25.496941 
L 41.831585 25.385844 
L 41.831585 14.670914 
L 41.831585 14.670914 
" style="fill:none;stroke:#9467bd;stroke-linecap:round;stroke-width:0.8;"/>
   </g>
   <g id="line2d_68">
    <path clip-path="url(#p7266acbcbd)" d="M 101.283131 174.39261 
L 101.283131 144.11506 
L 97.432743 144.11506 
L 97.432743 137.673058 
L 93.885275 137.673058 
L 93.885275 133.904729 
L 92.571621 133.904729 
L 92.571621 131.231056 
L 91.683084 131.231056 
L 91.683084 129.157195 
L 91.039302 129.157195 
L 91.039302 127.462727 
L 90.699738 127.462727 
L 90.699738 126.030075 
L 90.583714 126.030075 
L 90.583714 123.694398 
L 90.22662 123.694398 
L 90.22662 122.715193 
L 89.727916 122.715193 
L 89.727916 121.829396 
L 89.468074 121.829396 
L 89.468074 121.020725 
L 89.200699 121.020725 
L 89.200699 120.276821 
L 88.784518 120.276821 
L 88.784518 119.588073 
L 88.64151 119.588073 
L 88.64151 118.946864 
L 88.348667 118.946864 
L 88.348667 118.347053 
L 88.046221 118.347053 
L 88.046221 117.252396 
L 87.891196 117.252396 
L 87.891196 116.749904 
L 87.573103 116.749904 
L 87.573103 116.273192 
L 86.901986 116.273192 
L 86.901986 115.819744 
L 86.72629 115.819744 
L 86.72629 115.387394 
L 86.547181 115.387394 
L 86.547181 114.578724 
L 86.364526 114.578724 
L 86.364526 114.199331 
L 86.178181 114.199331 
L 86.178181 113.834819 
L 85.793801 113.834819 
L 85.793801 113.146071 
L 85.595432 113.146071 
L 85.595432 112.819938 
L 85.185419 112.819938 
L 85.185419 112.504862 
L 84.973368 112.504862 
L 84.973368 111.905052 
L 84.756328 111.905052 
L 84.756328 111.07221 
L 84.534057 111.07221 
L 84.534057 110.555753 
L 84.306298 110.555753 
L 84.306298 110.06649 
L 84.072772 110.06649 
L 84.072772 109.83119 
L 83.83318 109.83119 
L 83.83318 109.159053 
L 83.587198 109.159053 
L 83.587198 108.532265 
L 83.334475 108.532265 
L 83.334475 107.042065 
L 83.074633 107.042065 
L 83.074633 106.219064 
L 82.807258 106.219064 
L 82.807258 105.318956 
L 82.531901 105.318956 
L 82.531901 104.630209 
L 82.24807 104.630209 
L 82.24807 104.2402 
L 81.955227 104.2402 
L 81.955227 103.624488 
L 81.652781 103.624488 
L 81.652781 102.825753 
L 81.34008 102.825753 
L 81.34008 102.717052 
L 81.34008 102.294532 
L 81.016405 102.294532 
L 81.016405 102.191836 
L 81.016405 101.503088 
L 80.680958 101.408734 
L 80.680958 101.408734 
L 80.680958 100.861879 
L 80.332849 100.861879 
L 80.332849 100.773785 
L 80.332849 100.179456 
L 79.971086 100.179456 
L 79.971086 100.097571 
L 79.971086 99.777062 
L 79.594553 99.777062 
L 79.594553 99.698632 
L 79.594553 98.526202 
L 79.201992 98.526202 
L 79.201992 98.457613 
L 79.201992 97.362955 
L 78.791978 97.362955 
L 78.791978 97.302409 
L 78.791978 96.717698 
L 78.362888 96.6612 
L 78.362888 96.6612 
L 78.362888 95.904306 
L 77.912858 95.904306 
L 77.912858 95.80104 
L 77.912858 95.061087 
L 77.43974 95.061087 
L 77.43974 94.966732 
L 77.43974 93.90342 
L 76.941035 93.90342 
L 76.941035 93.820067 
L 76.941035 92.688602 
L 76.413818 92.688602 
L 76.413818 92.579047 
L 76.413818 91.388079 
L 75.85463 91.388079 
L 75.85463 91.292757 
L 75.85463 89.94175 
L 75.25934 89.94175 
L 75.25934 89.833049 
L 75.25934 88.454588 
L 74.622965 88.454588 
L 74.622965 88.36188 
L 74.622965 87.172895 
L 73.939409 87.172895 
L 73.939409 87.071983 
L 73.939409 86.507367 
L 73.201112 86.507367 
L 73.201112 86.413394 
L 73.201112 86.010842 
L 72.398538 85.992952 
L 72.398538 85.904015 
L 72.398538 85.625004 
L 71.519418 85.625004 
L 71.519418 85.522497 
L 71.519418 85.404318 
L 70.547595 85.404318 
L 70.547595 85.304204 
L 70.547595 83.098513 
L 69.46119 83.098513 
L 69.46119 82.994379 
L 69.46119 80.832912 
L 68.229525 80.832912 
L 68.229525 80.730893 
L 68.229525 78.259798 
L 66.807672 78.259798 
L 66.807672 78.151549 
L 66.807672 74.746399 
L 65.125977 74.746399 
L 65.125977 74.640425 
L 65.125977 69.972258 
L 63.067749 69.972258 
L 63.067749 69.861333 
L 63.067749 62.909049 
L 60.414232 62.909049 
L 60.414232 62.79936 
L 60.414232 52.497627 
L 56.674309 52.497627 
L 56.674309 52.386907 
L 56.674309 38.460031 
L 50.280869 38.460031 
L 50.280869 38.348998 
L 50.280869 21.277019 
L 50.280869 21.277019 
" style="fill:none;stroke:#8c564b;stroke-linecap:round;stroke-width:0.8;"/>
   </g>
   <g id="line2d_69">
    <path clip-path="url(#p7266acbcbd)" d="M 94.382325 174.39261 
L 94.311644 137.673058 
L 92.936972 137.673058 
L 92.936972 133.904729 
L 91.79895 133.904729 
L 91.79895 131.231056 
L 90.061184 131.231056 
L 90.061184 129.157195 
L 89.599898 129.157195 
L 89.599898 127.462727 
L 89.238135 127.462727 
L 89.238135 126.030075 
L 88.60176 126.030075 
L 88.60176 124.789055 
L 88.334385 124.789055 
L 88.334385 123.694398 
L 88.059028 123.694398 
L 88.059028 122.715193 
L 87.775196 122.715193 
L 87.775196 121.829396 
L 86.208084 121.829396 
L 86.208084 120.276821 
L 86.035672 120.276821 
L 86.035672 118.347053 
L 85.859976 118.347053 
L 85.859976 117.252396 
L 85.498212 117.252396 
L 85.498212 116.273192 
L 85.311867 116.273192 
L 85.311867 114.974266 
L 85.121679 114.974266 
L 85.121679 114.199331 
L 84.927487 114.199331 
L 84.927487 113.834819 
L 84.729118 113.834819 
L 84.729118 113.146071 
L 84.52639 113.146071 
L 84.52639 112.819938 
L 84.319105 112.819938 
L 84.319105 112.504862 
L 83.890014 112.504862 
L 83.890014 111.341616 
L 83.667744 111.341616 
L 83.667744 110.810394 
L 83.439984 110.810394 
L 83.439984 110.06649 
L 83.206458 110.06649 
L 83.206458 109.377742 
L 82.966866 109.377742 
L 82.966866 108.532265 
L 82.720884 108.532265 
L 82.720884 107.94509 
L 82.468161 107.94509 
L 82.468161 107.392818 
L 82.208319 107.392818 
L 82.208319 107.215787 
L 81.940945 107.215787 
L 81.940945 106.539573 
L 81.665587 106.539573 
L 81.665587 105.609413 
L 81.381756 105.609413 
L 81.381756 105.177063 
L 81.088913 105.177063 
L 81.088913 103.989 
L 80.786467 103.989 
L 80.786467 103.506094 
L 80.473766 103.506094 
L 80.473766 102.825753 
L 80.150091 102.825753 
L 80.150091 102.717052 
L 80.150091 102.503391 
L 79.814644 102.398374 
L 79.814644 102.398374 
L 79.814644 101.694721 
L 79.466535 101.694721 
L 79.466535 101.59841 
L 79.466535 101.315327 
L 79.104772 101.315327 
L 79.104772 101.222851 
L 79.104772 100.686518 
L 78.728239 100.686518 
L 78.728239 100.600063 
L 78.728239 99.856159 
L 78.335678 99.856159 
L 78.335678 99.777062 
L 78.335678 99.316116 
L 77.925665 99.316116 
L 77.925665 99.241466 
L 77.925665 98.25483 
L 77.496574 98.188207 
L 77.496574 98.188207 
L 77.496574 97.423899 
L 77.046544 97.423899 
L 77.046544 97.362955 
L 77.046544 96.114346 
L 76.573426 96.114346 
L 76.573426 96.008733 
L 76.573426 94.553604 
L 76.074721 94.553604 
L 76.074721 94.46424 
L 76.074721 93.217663 
L 75.547504 93.217663 
L 75.547504 93.140214 
L 75.547504 92.015611 
L 74.988316 92.015611 
L 74.988316 91.913667 
L 74.988316 90.534274 
L 74.393026 90.534274 
L 74.393026 90.44728 
L 74.393026 89.384748 
L 73.756651 89.384748 
L 73.756651 89.282335 
L 73.756651 88.066813 
L 73.073095 88.066813 
L 73.073095 87.955774 
L 73.073095 87.336667 
L 72.334798 87.336667 
L 72.334798 87.233972 
L 72.334798 86.56421 
L 71.532224 86.545224 
L 71.532224 86.469664 
L 71.532224 86.082748 
L 70.653104 86.082748 
L 70.653104 85.975096 
L 70.653104 85.556541 
L 69.681281 85.556541 
L 69.681281 85.454782 
L 69.681281 83.458836 
L 68.594876 83.458836 
L 68.594876 83.35061 
L 68.594876 81.082426 
L 67.363211 81.082426 
L 67.363211 80.977647 
L 67.363211 78.190065 
L 65.941358 78.190065 
L 65.941358 78.082621 
L 65.941358 74.799843 
L 64.259663 74.799843 
L 64.259663 74.693261 
L 64.259663 69.833022 
L 62.201435 69.833022 
L 62.201435 69.723737 
L 62.201435 62.357637 
L 59.547918 62.357637 
L 59.547918 62.247286 
L 59.547918 51.71534 
L 55.807995 51.71534 
L 55.807995 51.604669 
L 55.807995 37.599879 
L 49.414555 37.599781 
L 49.414555 37.488832 
L 49.414555 20.361186 
L 49.414555 20.361186 
" style="fill:none;stroke:#e377c2;stroke-linecap:round;stroke-width:0.8;"/>
   </g>
   <g id="line2d_70">
    <path clip-path="url(#p7266acbcbd)" d="M 96.300438 174.39261 
L 96.300438 144.11506 
L 94.618743 144.11506 
L 94.618743 137.673058 
L 94.306043 137.673058 
L 94.306043 133.904729 
L 91.416281 133.904729 
L 91.416281 131.231056 
L 87.719764 131.231056 
L 87.719764 129.157195 
L 87.588928 129.157195 
L 87.588928 127.462727 
L 87.456209 127.462727 
L 87.456209 126.030075 
L 86.905372 126.030075 
L 86.905372 124.789055 
L 86.167075 124.789055 
L 86.167075 122.715193 
L 86.01205 122.715193 
L 86.01205 121.020725 
L 85.693957 121.020725 
L 85.693957 120.276821 
L 85.5307 120.276821 
L 85.5307 119.588073 
L 85.02284 119.588073 
L 85.02284 118.347053 
L 84.847144 118.347053 
L 84.847144 117.783617 
L 84.48538 117.783617 
L 84.48538 116.749904 
L 84.299035 116.749904 
L 84.299035 116.273192 
L 84.108847 116.273192 
L 84.108847 115.819744 
L 83.914655 115.819744 
L 83.914655 114.974266 
L 83.716286 114.974266 
L 83.716286 114.578724 
L 83.513558 114.578724 
L 83.513558 113.834819 
L 83.306273 113.834819 
L 83.306273 113.146071 
L 83.094223 113.146071 
L 83.094223 112.819938 
L 82.877182 112.819938 
L 82.877182 112.504862 
L 82.427152 112.504862 
L 82.427152 112.200119 
L 81.954034 112.200119 
L 81.954034 111.341616 
L 81.708052 111.341616 
L 81.708052 110.307902 
L 81.45533 110.307902 
L 81.45533 109.377742 
L 81.195488 109.377742 
L 81.195488 108.736533 
L 80.928113 108.736533 
L 80.928113 107.573286 
L 80.652756 107.573286 
L 80.652756 106.70407 
L 80.368924 106.70407 
L 80.368924 105.318956 
L 80.076081 105.318956 
L 80.076081 104.498379 
L 79.773635 104.498379 
L 79.773635 103.273736 
L 79.460934 103.273736 
L 79.460934 102.609607 
L 78.801812 102.503391 
L 78.801812 102.191836 
L 78.453704 102.191836 
L 78.453704 102.090263 
L 78.453704 101.59841 
L 78.09194 101.59841 
L 78.09194 101.503088 
L 78.09194 101.040612 
L 77.715407 101.040612 
L 77.715407 100.950816 
L 77.715407 99.467239 
L 77.322846 99.467239 
L 77.322846 99.39137 
L 77.322846 98.735061 
L 76.912833 98.664919 
L 76.912833 98.664919 
L 76.912833 97.926391 
L 76.483742 97.926391 
L 76.483742 97.862074 
L 76.483742 96.6612 
L 76.033712 96.6612 
L 76.033712 96.605044 
L 76.033712 95.698909 
L 75.560594 95.698909 
L 75.560594 95.597888 
L 75.560594 94.072404 
L 75.061889 94.072404 
L 75.061889 93.987528 
L 75.061889 92.762363 
L 74.534673 92.762363 
L 74.534673 92.65194 
L 74.534673 91.420072 
L 73.975484 91.420072 
L 73.975484 91.324423 
L 73.975484 90.275696 
L 73.380195 90.275696 
L 73.380195 90.191078 
L 73.380195 89.307833 
L 72.743819 89.307833 
L 72.743819 89.20626 
L 72.743819 88.22453 
L 72.060263 88.22453 
L 72.060263 88.134079 
L 72.060263 87.357343 
L 71.321967 87.357343 
L 71.321967 87.25442 
L 71.321967 86.952318 
L 70.519393 86.952318 
L 70.519393 86.853761 
L 70.519393 86.775661 
L 69.640272 86.775661 
L 69.640272 86.67895 
L 69.640272 86.526276 
L 68.668449 86.526276 
L 68.668449 86.432113 
L 68.668449 84.756401 
L 67.582044 84.756401 
L 67.582044 84.647518 
L 67.582044 82.466034 
L 66.350379 82.466034 
L 66.350379 82.356622 
L 66.350379 79.695044 
L 64.928526 79.695044 
L 64.928526 79.586765 
L 64.928526 76.841601 
L 63.246832 76.834927 
L 63.246832 76.735384 
L 63.246832 72.936302 
L 61.188604 72.936302 
L 61.188604 72.827295 
L 61.188604 66.836033 
L 58.535086 66.836033 
L 58.535086 66.725216 
L 58.535086 56.328668 
L 54.795163 56.328668 
L 54.795163 56.217686 
L 54.795163 39.646147 
L 48.401723 39.646147 
L 48.401723 39.535041 
L 48.401723 18.718581 
L 48.401723 18.718581 
" style="fill:none;stroke:#7f7f7f;stroke-linecap:round;stroke-width:0.8;"/>
   </g>
   <g id="line2d_71">
    <path clip-path="url(#p7266acbcbd)" d="M 80.697068 49.999732 
L 144.412715 114.199331 
" style="fill:none;stroke:#000000;stroke-linecap:round;stroke-width:1.3;"/>
   </g>
   <g id="patch_3">
    <path d="M 31.826531 144.11506 
L 31.826531 7.2 
" style="fill:none;stroke:#000000;stroke-linecap:square;stroke-linejoin:miter;"/>
   </g>
   <g id="patch_4">
    <path d="M 31.826531 144.11506 
L 167.709491 144.11506 
" style="fill:none;stroke:#000000;stroke-linecap:square;stroke-linejoin:miter;"/>
   </g>
   <g id="text_16">
    <!-- -1 -->
    <defs>
     <path d="M 3.171875 21.484375 
L 3.171875 30.328125 
L 30.171875 30.328125 
L 30.171875 21.484375 
z
" id="ArialMT-45"/>
    </defs>
    <g transform="translate(113.004921 80.310781)scale(0.09 -0.09)">
     <use xlink:href="#ArialMT-45"/>
     <use x="33.300781" xlink:href="#ArialMT-49"/>
    </g>
   </g>
  </g>
 </g>
 <defs>
  <clipPath id="p7266acbcbd">
   <rect height="136.91506" width="135.88296" x="31.826531" y="7.2"/>
  </clipPath>
 </defs>
</svg>
