<?xml version="1.0" encoding="utf-8" standalone="no"?>
<!DOCTYPE svg PUBLIC "-//W3C//DTD SVG 1.1//EN"
  "http://www.w3.org/Graphics/SVG/1.1/DTD/svg11.dtd">
<!-- Created with matplotlib (https://matplotlib.org/) -->
<svg height="190.803425pt" version="1.1" viewBox="0 0 503.040977 190.803425" width="503.040977pt" xmlns="http://www.w3.org/2000/svg" xmlns:xlink="http://www.w3.org/1999/xlink">
 <defs>
  <style type="text/css">
*{stroke-linecap:butt;stroke-linejoin:round;}
  </style>
 </defs>
 <g id="figure_1">
  <g id="patch_1">
   <path d="M 0 190.803425 
L 503.040977 190.803425 
L 503.040977 0 
L 0 0 
z
" style="fill:none;"/>
  </g>
  <g id="axes_1">
   <g id="patch_2">
    <path d="M 29.035523 163.711719 
L 247.39075 163.711719 
L 247.39075 19.751719 
L 29.035523 19.751719 
z
" style="fill:#ffffff;"/>
   </g>
   <g id="matplotlib.axis_1">
    <g id="xtick_1">
     <g id="line2d_1">
      <defs>
       <path d="M 0 2 
L 0 -2 
" id="m8b877fedbc" style="stroke:#000000;stroke-width:0.8;"/>
      </defs>
      <g>
       <use style="stroke:#000000;stroke-width:0.8;" x="29.035523" xlink:href="#m8b877fedbc" y="163.711719"/>
      </g>
     </g>
     <g id="text_1">
      <!-- 0 -->
      <defs>
       <path d="M 4.15625 35.296875 
Q 4.15625 48 6.765625 55.734375 
Q 9.375 63.484375 14.515625 67.671875 
Q 19.671875 71.875 27.484375 71.875 
Q 33.25 71.875 37.59375 69.546875 
Q 41.9375 67.234375 44.765625 62.859375 
Q 47.609375 58.5 49.21875 52.21875 
Q 50.828125 45.953125 50.828125 35.296875 
Q 50.828125 22.703125 48.234375 14.96875 
Q 45.65625 7.234375 40.5 3 
Q 35.359375 -1.21875 27.484375 -1.21875 
Q 17.140625 -1.21875 11.234375 6.203125 
Q 4.15625 15.140625 4.15625 35.296875 
z
M 13.1875 35.296875 
Q 13.1875 17.671875 17.3125 11.828125 
Q 21.4375 6 27.484375 6 
Q 33.546875 6 37.671875 11.859375 
Q 41.796875 17.71875 41.796875 35.296875 
Q 41.796875 52.984375 37.671875 58.78125 
Q 33.546875 64.59375 27.390625 64.59375 
Q 21.34375 64.59375 17.71875 59.46875 
Q 13.1875 52.9375 13.1875 35.296875 
z
" id="ArialMT-48"/>
      </defs>
      <g transform="translate(26.951005 173.577931)scale(0.07497 -0.07497)">
       <use xlink:href="#ArialMT-48"/>
      </g>
     </g>
    </g>
    <g id="xtick_2">
     <g id="line2d_2">
      <g>
       <use style="stroke:#000000;stroke-width:0.8;" x="70.626995" xlink:href="#m8b877fedbc" y="163.711719"/>
      </g>
     </g>
     <g id="text_2">
      <!-- 20 -->
      <defs>
       <path d="M 50.34375 8.453125 
L 50.34375 0 
L 3.03125 0 
Q 2.9375 3.171875 4.046875 6.109375 
Q 5.859375 10.9375 9.828125 15.625 
Q 13.8125 20.3125 21.34375 26.46875 
Q 33.015625 36.03125 37.109375 41.625 
Q 41.21875 47.21875 41.21875 52.203125 
Q 41.21875 57.421875 37.46875 61 
Q 33.734375 64.59375 27.734375 64.59375 
Q 21.390625 64.59375 17.578125 60.78125 
Q 13.765625 56.984375 13.71875 50.25 
L 4.6875 51.171875 
Q 5.609375 61.28125 11.65625 66.578125 
Q 17.71875 71.875 27.9375 71.875 
Q 38.234375 71.875 44.234375 66.15625 
Q 50.25 60.453125 50.25 52 
Q 50.25 47.703125 48.484375 43.546875 
Q 46.734375 39.40625 42.65625 34.8125 
Q 38.578125 30.21875 29.109375 22.21875 
Q 21.1875 15.578125 18.9375 13.203125 
Q 16.703125 10.84375 15.234375 8.453125 
z
" id="ArialMT-50"/>
      </defs>
      <g transform="translate(66.45796 173.577931)scale(0.07497 -0.07497)">
       <use xlink:href="#ArialMT-50"/>
       <use x="55.615234" xlink:href="#ArialMT-48"/>
      </g>
     </g>
    </g>
    <g id="xtick_3">
     <g id="line2d_3">
      <g>
       <use style="stroke:#000000;stroke-width:0.8;" x="112.218466" xlink:href="#m8b877fedbc" y="163.711719"/>
      </g>
     </g>
     <g id="text_3">
      <!-- 40 -->
      <defs>
       <path d="M 32.328125 0 
L 32.328125 17.140625 
L 1.265625 17.140625 
L 1.265625 25.203125 
L 33.9375 71.578125 
L 41.109375 71.578125 
L 41.109375 25.203125 
L 50.78125 25.203125 
L 50.78125 17.140625 
L 41.109375 17.140625 
L 41.109375 0 
z
M 32.328125 25.203125 
L 32.328125 57.46875 
L 9.90625 25.203125 
z
" id="ArialMT-52"/>
      </defs>
      <g transform="translate(108.049432 173.577931)scale(0.07497 -0.07497)">
       <use xlink:href="#ArialMT-52"/>
       <use x="55.615234" xlink:href="#ArialMT-48"/>
      </g>
     </g>
    </g>
    <g id="xtick_4">
     <g id="line2d_4">
      <g>
       <use style="stroke:#000000;stroke-width:0.8;" x="153.809938" xlink:href="#m8b877fedbc" y="163.711719"/>
      </g>
     </g>
     <g id="text_4">
      <!-- 60 -->
      <defs>
       <path d="M 49.75 54.046875 
L 41.015625 53.375 
Q 39.84375 58.546875 37.703125 60.890625 
Q 34.125 64.65625 28.90625 64.65625 
Q 24.703125 64.65625 21.53125 62.3125 
Q 17.390625 59.28125 14.984375 53.46875 
Q 12.59375 47.65625 12.5 36.921875 
Q 15.671875 41.75 20.265625 44.09375 
Q 24.859375 46.4375 29.890625 46.4375 
Q 38.671875 46.4375 44.84375 39.96875 
Q 51.03125 33.5 51.03125 23.25 
Q 51.03125 16.5 48.125 10.71875 
Q 45.21875 4.9375 40.140625 1.859375 
Q 35.0625 -1.21875 28.609375 -1.21875 
Q 17.625 -1.21875 10.6875 6.859375 
Q 3.765625 14.9375 3.765625 33.5 
Q 3.765625 54.25 11.421875 63.671875 
Q 18.109375 71.875 29.4375 71.875 
Q 37.890625 71.875 43.28125 67.140625 
Q 48.6875 62.40625 49.75 54.046875 
z
M 13.875 23.1875 
Q 13.875 18.65625 15.796875 14.5 
Q 17.71875 10.359375 21.1875 8.171875 
Q 24.65625 6 28.46875 6 
Q 34.03125 6 38.03125 10.484375 
Q 42.046875 14.984375 42.046875 22.703125 
Q 42.046875 30.125 38.078125 34.390625 
Q 34.125 38.671875 28.125 38.671875 
Q 22.171875 38.671875 18.015625 34.390625 
Q 13.875 30.125 13.875 23.1875 
z
" id="ArialMT-54"/>
      </defs>
      <g transform="translate(149.640903 173.577931)scale(0.07497 -0.07497)">
       <use xlink:href="#ArialMT-54"/>
       <use x="55.615234" xlink:href="#ArialMT-48"/>
      </g>
     </g>
    </g>
    <g id="xtick_5">
     <g id="line2d_5">
      <g>
       <use style="stroke:#000000;stroke-width:0.8;" x="195.40141" xlink:href="#m8b877fedbc" y="163.711719"/>
      </g>
     </g>
     <g id="text_5">
      <!-- 80 -->
      <defs>
       <path d="M 17.671875 38.8125 
Q 12.203125 40.828125 9.5625 44.53125 
Q 6.9375 48.25 6.9375 53.421875 
Q 6.9375 61.234375 12.546875 66.546875 
Q 18.171875 71.875 27.484375 71.875 
Q 36.859375 71.875 42.578125 66.421875 
Q 48.296875 60.984375 48.296875 53.171875 
Q 48.296875 48.1875 45.671875 44.5 
Q 43.0625 40.828125 37.75 38.8125 
Q 44.34375 36.671875 47.78125 31.875 
Q 51.21875 27.09375 51.21875 20.453125 
Q 51.21875 11.28125 44.71875 5.03125 
Q 38.234375 -1.21875 27.640625 -1.21875 
Q 17.046875 -1.21875 10.546875 5.046875 
Q 4.046875 11.328125 4.046875 20.703125 
Q 4.046875 27.6875 7.59375 32.390625 
Q 11.140625 37.109375 17.671875 38.8125 
z
M 15.921875 53.71875 
Q 15.921875 48.640625 19.1875 45.40625 
Q 22.46875 42.1875 27.6875 42.1875 
Q 32.765625 42.1875 36.015625 45.375 
Q 39.265625 48.578125 39.265625 53.21875 
Q 39.265625 58.0625 35.90625 61.359375 
Q 32.5625 64.65625 27.59375 64.65625 
Q 22.5625 64.65625 19.234375 61.421875 
Q 15.921875 58.203125 15.921875 53.71875 
z
M 13.09375 20.65625 
Q 13.09375 16.890625 14.875 13.375 
Q 16.65625 9.859375 20.171875 7.921875 
Q 23.6875 6 27.734375 6 
Q 34.03125 6 38.125 10.046875 
Q 42.234375 14.109375 42.234375 20.359375 
Q 42.234375 26.703125 38.015625 30.859375 
Q 33.796875 35.015625 27.4375 35.015625 
Q 21.234375 35.015625 17.15625 30.90625 
Q 13.09375 26.8125 13.09375 20.65625 
z
" id="ArialMT-56"/>
      </defs>
      <g transform="translate(191.232375 173.577931)scale(0.07497 -0.07497)">
       <use xlink:href="#ArialMT-56"/>
       <use x="55.615234" xlink:href="#ArialMT-48"/>
      </g>
     </g>
    </g>
    <g id="xtick_6">
     <g id="line2d_6">
      <g>
       <use style="stroke:#000000;stroke-width:0.8;" x="236.992882" xlink:href="#m8b877fedbc" y="163.711719"/>
      </g>
     </g>
     <g id="text_6">
      <!-- 100 -->
      <defs>
       <path d="M 37.25 0 
L 28.46875 0 
L 28.46875 56 
Q 25.296875 52.984375 20.140625 49.953125 
Q 14.984375 46.921875 10.890625 45.40625 
L 10.890625 53.90625 
Q 18.265625 57.375 23.78125 62.296875 
Q 29.296875 67.234375 31.59375 71.875 
L 37.25 71.875 
z
" id="ArialMT-49"/>
      </defs>
      <g transform="translate(230.73933 173.577931)scale(0.07497 -0.07497)">
       <use xlink:href="#ArialMT-49"/>
       <use x="55.615234" xlink:href="#ArialMT-48"/>
       <use x="111.230469" xlink:href="#ArialMT-48"/>
      </g>
     </g>
    </g>
    <g id="text_7">
     <!-- Age in years (binned) -->
     <defs>
      <path d="M -0.140625 0 
L 27.34375 71.578125 
L 37.546875 71.578125 
L 66.84375 0 
L 56.0625 0 
L 47.703125 21.6875 
L 17.78125 21.6875 
L 9.90625 0 
z
M 20.515625 29.390625 
L 44.78125 29.390625 
L 37.3125 49.21875 
Q 33.890625 58.25 32.234375 64.0625 
Q 30.859375 57.171875 28.375 50.390625 
z
" id="ArialMT-65"/>
      <path d="M 4.984375 -4.296875 
L 13.53125 -5.5625 
Q 14.0625 -9.515625 16.5 -11.328125 
Q 19.78125 -13.765625 25.4375 -13.765625 
Q 31.546875 -13.765625 34.859375 -11.328125 
Q 38.1875 -8.890625 39.359375 -4.5 
Q 40.046875 -1.8125 39.984375 6.78125 
Q 34.234375 0 25.640625 0 
Q 14.9375 0 9.078125 7.71875 
Q 3.21875 15.4375 3.21875 26.21875 
Q 3.21875 33.640625 5.90625 39.90625 
Q 8.59375 46.1875 13.6875 49.609375 
Q 18.796875 53.03125 25.6875 53.03125 
Q 34.859375 53.03125 40.828125 45.609375 
L 40.828125 51.859375 
L 48.921875 51.859375 
L 48.921875 7.03125 
Q 48.921875 -5.078125 46.453125 -10.125 
Q 44 -15.1875 38.640625 -18.109375 
Q 33.296875 -21.046875 25.484375 -21.046875 
Q 16.21875 -21.046875 10.5 -16.875 
Q 4.78125 -12.703125 4.984375 -4.296875 
z
M 12.25 26.859375 
Q 12.25 16.65625 16.296875 11.96875 
Q 20.359375 7.28125 26.46875 7.28125 
Q 32.515625 7.28125 36.609375 11.9375 
Q 40.71875 16.609375 40.71875 26.5625 
Q 40.71875 36.078125 36.5 40.90625 
Q 32.28125 45.75 26.3125 45.75 
Q 20.453125 45.75 16.34375 40.984375 
Q 12.25 36.234375 12.25 26.859375 
z
" id="ArialMT-103"/>
      <path d="M 42.09375 16.703125 
L 51.171875 15.578125 
Q 49.03125 7.625 43.21875 3.21875 
Q 37.40625 -1.171875 28.375 -1.171875 
Q 17 -1.171875 10.328125 5.828125 
Q 3.65625 12.84375 3.65625 25.484375 
Q 3.65625 38.578125 10.390625 45.796875 
Q 17.140625 53.03125 27.875 53.03125 
Q 38.28125 53.03125 44.875 45.953125 
Q 51.46875 38.875 51.46875 26.03125 
Q 51.46875 25.25 51.421875 23.6875 
L 12.75 23.6875 
Q 13.234375 15.140625 17.578125 10.59375 
Q 21.921875 6.0625 28.421875 6.0625 
Q 33.25 6.0625 36.671875 8.59375 
Q 40.09375 11.140625 42.09375 16.703125 
z
M 13.234375 30.90625 
L 42.1875 30.90625 
Q 41.609375 37.453125 38.875 40.71875 
Q 34.671875 45.796875 27.984375 45.796875 
Q 21.921875 45.796875 17.796875 41.75 
Q 13.671875 37.703125 13.234375 30.90625 
z
" id="ArialMT-101"/>
      <path id="ArialMT-32"/>
      <path d="M 6.640625 61.46875 
L 6.640625 71.578125 
L 15.4375 71.578125 
L 15.4375 61.46875 
z
M 6.640625 0 
L 6.640625 51.859375 
L 15.4375 51.859375 
L 15.4375 0 
z
" id="ArialMT-105"/>
      <path d="M 6.59375 0 
L 6.59375 51.859375 
L 14.5 51.859375 
L 14.5 44.484375 
Q 20.21875 53.03125 31 53.03125 
Q 35.6875 53.03125 39.625 51.34375 
Q 43.5625 49.65625 45.515625 46.921875 
Q 47.46875 44.1875 48.25 40.4375 
Q 48.734375 37.984375 48.734375 31.890625 
L 48.734375 0 
L 39.9375 0 
L 39.9375 31.546875 
Q 39.9375 36.921875 38.90625 39.578125 
Q 37.890625 42.234375 35.28125 43.8125 
Q 32.671875 45.40625 29.15625 45.40625 
Q 23.53125 45.40625 19.453125 41.84375 
Q 15.375 38.28125 15.375 28.328125 
L 15.375 0 
z
" id="ArialMT-110"/>
      <path d="M 6.203125 -19.96875 
L 5.21875 -11.71875 
Q 8.109375 -12.5 10.25 -12.5 
Q 13.1875 -12.5 14.9375 -11.515625 
Q 16.703125 -10.546875 17.828125 -8.796875 
Q 18.65625 -7.46875 20.515625 -2.25 
Q 20.75 -1.515625 21.296875 -0.09375 
L 1.609375 51.859375 
L 11.078125 51.859375 
L 21.875 21.828125 
Q 23.96875 16.109375 25.640625 9.8125 
Q 27.15625 15.875 29.25 21.625 
L 40.328125 51.859375 
L 49.125 51.859375 
L 29.390625 -0.875 
Q 26.21875 -9.421875 24.46875 -12.640625 
Q 22.125 -17 19.09375 -19.015625 
Q 16.0625 -21.046875 11.859375 -21.046875 
Q 9.328125 -21.046875 6.203125 -19.96875 
z
" id="ArialMT-121"/>
      <path d="M 40.4375 6.390625 
Q 35.546875 2.25 31.03125 0.53125 
Q 26.515625 -1.171875 21.34375 -1.171875 
Q 12.796875 -1.171875 8.203125 3 
Q 3.609375 7.171875 3.609375 13.671875 
Q 3.609375 17.484375 5.34375 20.625 
Q 7.078125 23.78125 9.890625 25.6875 
Q 12.703125 27.59375 16.21875 28.5625 
Q 18.796875 29.25 24.03125 29.890625 
Q 34.671875 31.15625 39.703125 32.90625 
Q 39.75 34.71875 39.75 35.203125 
Q 39.75 40.578125 37.25 42.78125 
Q 33.890625 45.75 27.25 45.75 
Q 21.046875 45.75 18.09375 43.578125 
Q 15.140625 41.40625 13.71875 35.890625 
L 5.125 37.0625 
Q 6.296875 42.578125 8.984375 45.96875 
Q 11.671875 49.359375 16.75 51.1875 
Q 21.828125 53.03125 28.515625 53.03125 
Q 35.15625 53.03125 39.296875 51.46875 
Q 43.453125 49.90625 45.40625 47.53125 
Q 47.359375 45.171875 48.140625 41.546875 
Q 48.578125 39.3125 48.578125 33.453125 
L 48.578125 21.734375 
Q 48.578125 9.46875 49.140625 6.21875 
Q 49.703125 2.984375 51.375 0 
L 42.1875 0 
Q 40.828125 2.734375 40.4375 6.390625 
z
M 39.703125 26.03125 
Q 34.90625 24.078125 25.34375 22.703125 
Q 19.921875 21.921875 17.671875 20.9375 
Q 15.4375 19.96875 14.203125 18.09375 
Q 12.984375 16.21875 12.984375 13.921875 
Q 12.984375 10.40625 15.640625 8.0625 
Q 18.3125 5.71875 23.4375 5.71875 
Q 28.515625 5.71875 32.46875 7.9375 
Q 36.421875 10.15625 38.28125 14.015625 
Q 39.703125 17 39.703125 22.796875 
z
" id="ArialMT-97"/>
      <path d="M 6.5 0 
L 6.5 51.859375 
L 14.40625 51.859375 
L 14.40625 44 
Q 17.4375 49.515625 20 51.265625 
Q 22.5625 53.03125 25.640625 53.03125 
Q 30.078125 53.03125 34.671875 50.203125 
L 31.640625 42.046875 
Q 28.421875 43.953125 25.203125 43.953125 
Q 22.3125 43.953125 20.015625 42.21875 
Q 17.71875 40.484375 16.75 37.40625 
Q 15.28125 32.71875 15.28125 27.15625 
L 15.28125 0 
z
" id="ArialMT-114"/>
      <path d="M 3.078125 15.484375 
L 11.765625 16.84375 
Q 12.5 11.625 15.84375 8.84375 
Q 19.1875 6.0625 25.203125 6.0625 
Q 31.25 6.0625 34.171875 8.515625 
Q 37.109375 10.984375 37.109375 14.3125 
Q 37.109375 17.28125 34.515625 19 
Q 32.71875 20.171875 25.53125 21.96875 
Q 15.875 24.421875 12.140625 26.203125 
Q 8.40625 27.984375 6.46875 31.125 
Q 4.546875 34.28125 4.546875 38.09375 
Q 4.546875 41.546875 6.125 44.5 
Q 7.71875 47.46875 10.453125 49.421875 
Q 12.5 50.921875 16.03125 51.96875 
Q 19.578125 53.03125 23.640625 53.03125 
Q 29.734375 53.03125 34.34375 51.265625 
Q 38.96875 49.515625 41.15625 46.5 
Q 43.359375 43.5 44.1875 38.484375 
L 35.59375 37.3125 
Q 35.015625 41.3125 32.203125 43.546875 
Q 29.390625 45.796875 24.265625 45.796875 
Q 18.21875 45.796875 15.625 43.796875 
Q 13.03125 41.796875 13.03125 39.109375 
Q 13.03125 37.40625 14.109375 36.03125 
Q 15.1875 34.625 17.484375 33.6875 
Q 18.796875 33.203125 25.25 31.453125 
Q 34.578125 28.953125 38.25 27.359375 
Q 41.9375 25.78125 44.03125 22.75 
Q 46.140625 19.734375 46.140625 15.234375 
Q 46.140625 10.84375 43.578125 6.953125 
Q 41.015625 3.078125 36.171875 0.953125 
Q 31.34375 -1.171875 25.25 -1.171875 
Q 15.140625 -1.171875 9.84375 3.03125 
Q 4.546875 7.234375 3.078125 15.484375 
z
" id="ArialMT-115"/>
      <path d="M 23.390625 -21.046875 
Q 16.109375 -11.859375 11.078125 0.4375 
Q 6.0625 12.75 6.0625 25.921875 
Q 6.0625 37.546875 9.8125 48.1875 
Q 14.203125 60.546875 23.390625 72.796875 
L 29.6875 72.796875 
Q 23.78125 62.640625 21.875 58.296875 
Q 18.890625 51.5625 17.1875 44.234375 
Q 15.09375 35.109375 15.09375 25.875 
Q 15.09375 2.390625 29.6875 -21.046875 
z
" id="ArialMT-40"/>
      <path d="M 14.703125 0 
L 6.546875 0 
L 6.546875 71.578125 
L 15.328125 71.578125 
L 15.328125 46.046875 
Q 20.90625 53.03125 29.546875 53.03125 
Q 34.328125 53.03125 38.59375 51.09375 
Q 42.875 49.171875 45.625 45.671875 
Q 48.390625 42.1875 49.953125 37.25 
Q 51.515625 32.328125 51.515625 26.703125 
Q 51.515625 13.375 44.921875 6.09375 
Q 38.328125 -1.171875 29.109375 -1.171875 
Q 19.921875 -1.171875 14.703125 6.5 
z
M 14.59375 26.3125 
Q 14.59375 17 17.140625 12.84375 
Q 21.296875 6.0625 28.375 6.0625 
Q 34.125 6.0625 38.328125 11.0625 
Q 42.53125 16.0625 42.53125 25.984375 
Q 42.53125 36.140625 38.5 40.96875 
Q 34.46875 45.796875 28.765625 45.796875 
Q 23 45.796875 18.796875 40.796875 
Q 14.59375 35.796875 14.59375 26.3125 
z
" id="ArialMT-98"/>
      <path d="M 40.234375 0 
L 40.234375 6.546875 
Q 35.296875 -1.171875 25.734375 -1.171875 
Q 19.53125 -1.171875 14.328125 2.25 
Q 9.125 5.671875 6.265625 11.796875 
Q 3.421875 17.921875 3.421875 25.875 
Q 3.421875 33.640625 6 39.96875 
Q 8.59375 46.296875 13.765625 49.65625 
Q 18.953125 53.03125 25.34375 53.03125 
Q 30.03125 53.03125 33.6875 51.046875 
Q 37.359375 49.078125 39.65625 45.90625 
L 39.65625 71.578125 
L 48.390625 71.578125 
L 48.390625 0 
z
M 12.453125 25.875 
Q 12.453125 15.921875 16.640625 10.984375 
Q 20.84375 6.0625 26.5625 6.0625 
Q 32.328125 6.0625 36.34375 10.765625 
Q 40.375 15.484375 40.375 25.140625 
Q 40.375 35.796875 36.265625 40.765625 
Q 32.171875 45.75 26.171875 45.75 
Q 20.3125 45.75 16.375 40.96875 
Q 12.453125 36.1875 12.453125 25.875 
z
" id="ArialMT-100"/>
      <path d="M 12.359375 -21.046875 
L 6.0625 -21.046875 
Q 20.65625 2.390625 20.65625 25.875 
Q 20.65625 35.0625 18.5625 44.09375 
Q 16.890625 51.421875 13.921875 58.15625 
Q 12.015625 62.546875 6.0625 72.796875 
L 12.359375 72.796875 
Q 21.53125 60.546875 25.921875 48.1875 
Q 29.6875 37.546875 29.6875 25.921875 
Q 29.6875 12.75 24.625 0.4375 
Q 19.578125 -11.859375 12.359375 -21.046875 
z
" id="ArialMT-41"/>
     </defs>
     <g transform="translate(102.584815 182.025541)scale(0.07497 -0.07497)">
      <use xlink:href="#ArialMT-65"/>
      <use x="66.699219" xlink:href="#ArialMT-103"/>
      <use x="122.314453" xlink:href="#ArialMT-101"/>
      <use x="177.929688" xlink:href="#ArialMT-32"/>
      <use x="205.712891" xlink:href="#ArialMT-105"/>
      <use x="227.929688" xlink:href="#ArialMT-110"/>
      <use x="283.544922" xlink:href="#ArialMT-32"/>
      <use x="311.328125" xlink:href="#ArialMT-121"/>
      <use x="361.328125" xlink:href="#ArialMT-101"/>
      <use x="416.943359" xlink:href="#ArialMT-97"/>
      <use x="472.558594" xlink:href="#ArialMT-114"/>
      <use x="505.859375" xlink:href="#ArialMT-115"/>
      <use x="555.859375" xlink:href="#ArialMT-32"/>
      <use x="583.642578" xlink:href="#ArialMT-40"/>
      <use x="616.943359" xlink:href="#ArialMT-98"/>
      <use x="672.558594" xlink:href="#ArialMT-105"/>
      <use x="694.775391" xlink:href="#ArialMT-110"/>
      <use x="750.390625" xlink:href="#ArialMT-110"/>
      <use x="806.005859" xlink:href="#ArialMT-101"/>
      <use x="861.621094" xlink:href="#ArialMT-100"/>
      <use x="917.236328" xlink:href="#ArialMT-41"/>
     </g>
    </g>
   </g>
   <g id="matplotlib.axis_2">
    <g id="ytick_1">
     <g id="line2d_7">
      <defs>
       <path d="M 2 0 
L -2 -0 
" id="m6c499bcf7b" style="stroke:#000000;stroke-width:0.8;"/>
      </defs>
      <g>
       <use style="stroke:#000000;stroke-width:0.8;" x="29.035523" xlink:href="#m6c499bcf7b" y="163.711719"/>
      </g>
     </g>
     <g id="text_8">
      <!-- 0 -->
      <g transform="translate(20.366488 166.394825)scale(0.07497 -0.07497)">
       <use xlink:href="#ArialMT-48"/>
      </g>
     </g>
    </g>
    <g id="ytick_2">
     <g id="line2d_8">
      <g>
       <use style="stroke:#000000;stroke-width:0.8;" x="29.035523" xlink:href="#m6c499bcf7b" y="140.860925"/>
      </g>
     </g>
     <g id="text_9">
      <!-- 1 -->
      <g transform="translate(20.366488 143.544031)scale(0.07497 -0.07497)">
       <use xlink:href="#ArialMT-49"/>
      </g>
     </g>
    </g>
    <g id="ytick_3">
     <g id="line2d_9">
      <g>
       <use style="stroke:#000000;stroke-width:0.8;" x="29.035523" xlink:href="#m6c499bcf7b" y="118.010131"/>
      </g>
     </g>
     <g id="text_10">
      <!-- 2 -->
      <g transform="translate(20.366488 120.693237)scale(0.07497 -0.07497)">
       <use xlink:href="#ArialMT-50"/>
      </g>
     </g>
    </g>
    <g id="ytick_4">
     <g id="line2d_10">
      <g>
       <use style="stroke:#000000;stroke-width:0.8;" x="29.035523" xlink:href="#m6c499bcf7b" y="95.159338"/>
      </g>
     </g>
     <g id="text_11">
      <!-- 3 -->
      <defs>
       <path d="M 4.203125 18.890625 
L 12.984375 20.0625 
Q 14.5 12.59375 18.140625 9.296875 
Q 21.78125 6 27 6 
Q 33.203125 6 37.46875 10.296875 
Q 41.75 14.59375 41.75 20.953125 
Q 41.75 27 37.796875 30.921875 
Q 33.84375 34.859375 27.734375 34.859375 
Q 25.25 34.859375 21.53125 33.890625 
L 22.515625 41.609375 
Q 23.390625 41.5 23.921875 41.5 
Q 29.546875 41.5 34.03125 44.421875 
Q 38.53125 47.359375 38.53125 53.46875 
Q 38.53125 58.296875 35.25 61.46875 
Q 31.984375 64.65625 26.8125 64.65625 
Q 21.6875 64.65625 18.265625 61.421875 
Q 14.84375 58.203125 13.875 51.765625 
L 5.078125 53.328125 
Q 6.6875 62.15625 12.390625 67.015625 
Q 18.109375 71.875 26.609375 71.875 
Q 32.46875 71.875 37.390625 69.359375 
Q 42.328125 66.84375 44.9375 62.5 
Q 47.5625 58.15625 47.5625 53.265625 
Q 47.5625 48.640625 45.0625 44.828125 
Q 42.578125 41.015625 37.703125 38.765625 
Q 44.046875 37.3125 47.5625 32.6875 
Q 51.078125 28.078125 51.078125 21.140625 
Q 51.078125 11.765625 44.234375 5.25 
Q 37.40625 -1.265625 26.953125 -1.265625 
Q 17.53125 -1.265625 11.296875 4.34375 
Q 5.078125 9.96875 4.203125 18.890625 
z
" id="ArialMT-51"/>
      </defs>
      <g transform="translate(20.366488 97.842444)scale(0.07497 -0.07497)">
       <use xlink:href="#ArialMT-51"/>
      </g>
     </g>
    </g>
    <g id="ytick_5">
     <g id="line2d_11">
      <g>
       <use style="stroke:#000000;stroke-width:0.8;" x="29.035523" xlink:href="#m6c499bcf7b" y="72.308544"/>
      </g>
     </g>
     <g id="text_12">
      <!-- 4 -->
      <g transform="translate(20.366488 74.99165)scale(0.07497 -0.07497)">
       <use xlink:href="#ArialMT-52"/>
      </g>
     </g>
    </g>
    <g id="ytick_6">
     <g id="line2d_12">
      <g>
       <use style="stroke:#000000;stroke-width:0.8;" x="29.035523" xlink:href="#m6c499bcf7b" y="49.45775"/>
      </g>
     </g>
     <g id="text_13">
      <!-- 5 -->
      <defs>
       <path d="M 4.15625 18.75 
L 13.375 19.53125 
Q 14.40625 12.796875 18.140625 9.390625 
Q 21.875 6 27.15625 6 
Q 33.5 6 37.890625 10.78125 
Q 42.28125 15.578125 42.28125 23.484375 
Q 42.28125 31 38.0625 35.34375 
Q 33.84375 39.703125 27 39.703125 
Q 22.75 39.703125 19.328125 37.765625 
Q 15.921875 35.84375 13.96875 32.765625 
L 5.71875 33.84375 
L 12.640625 70.609375 
L 48.25 70.609375 
L 48.25 62.203125 
L 19.671875 62.203125 
L 15.828125 42.96875 
Q 22.265625 47.46875 29.34375 47.46875 
Q 38.71875 47.46875 45.15625 40.96875 
Q 51.609375 34.46875 51.609375 24.265625 
Q 51.609375 14.546875 45.953125 7.46875 
Q 39.0625 -1.21875 27.15625 -1.21875 
Q 17.390625 -1.21875 11.203125 4.25 
Q 5.03125 9.71875 4.15625 18.75 
z
" id="ArialMT-53"/>
      </defs>
      <g transform="translate(20.366488 52.140857)scale(0.07497 -0.07497)">
       <use xlink:href="#ArialMT-53"/>
      </g>
     </g>
    </g>
    <g id="ytick_7">
     <g id="line2d_13">
      <g>
       <use style="stroke:#000000;stroke-width:0.8;" x="29.035523" xlink:href="#m6c499bcf7b" y="26.606957"/>
      </g>
     </g>
     <g id="text_14">
      <!-- 6 -->
      <g transform="translate(20.366488 29.290063)scale(0.07497 -0.07497)">
       <use xlink:href="#ArialMT-54"/>
      </g>
     </g>
    </g>
    <g id="text_15">
     <!-- Number of individuals -->
     <defs>
      <path d="M 7.625 0 
L 7.625 71.578125 
L 17.328125 71.578125 
L 54.9375 15.375 
L 54.9375 71.578125 
L 64.015625 71.578125 
L 64.015625 0 
L 54.296875 0 
L 16.703125 56.25 
L 16.703125 0 
z
" id="ArialMT-78"/>
      <path d="M 40.578125 0 
L 40.578125 7.625 
Q 34.515625 -1.171875 24.125 -1.171875 
Q 19.53125 -1.171875 15.546875 0.578125 
Q 11.578125 2.34375 9.640625 5 
Q 7.71875 7.671875 6.9375 11.53125 
Q 6.390625 14.109375 6.390625 19.734375 
L 6.390625 51.859375 
L 15.1875 51.859375 
L 15.1875 23.09375 
Q 15.1875 16.21875 15.71875 13.8125 
Q 16.546875 10.359375 19.234375 8.375 
Q 21.921875 6.390625 25.875 6.390625 
Q 29.828125 6.390625 33.296875 8.421875 
Q 36.765625 10.453125 38.203125 13.9375 
Q 39.65625 17.4375 39.65625 24.078125 
L 39.65625 51.859375 
L 48.4375 51.859375 
L 48.4375 0 
z
" id="ArialMT-117"/>
      <path d="M 6.59375 0 
L 6.59375 51.859375 
L 14.453125 51.859375 
L 14.453125 44.578125 
Q 16.890625 48.390625 20.9375 50.703125 
Q 25 53.03125 30.171875 53.03125 
Q 35.9375 53.03125 39.625 50.640625 
Q 43.3125 48.25 44.828125 43.953125 
Q 50.984375 53.03125 60.84375 53.03125 
Q 68.5625 53.03125 72.703125 48.75 
Q 76.859375 44.484375 76.859375 35.59375 
L 76.859375 0 
L 68.109375 0 
L 68.109375 32.671875 
Q 68.109375 37.9375 67.25 40.25 
Q 66.40625 42.578125 64.15625 43.984375 
Q 61.921875 45.40625 58.890625 45.40625 
Q 53.421875 45.40625 49.796875 41.765625 
Q 46.1875 38.140625 46.1875 30.125 
L 46.1875 0 
L 37.40625 0 
L 37.40625 33.6875 
Q 37.40625 39.546875 35.25 42.46875 
Q 33.109375 45.40625 28.21875 45.40625 
Q 24.515625 45.40625 21.359375 43.453125 
Q 18.21875 41.5 16.796875 37.734375 
Q 15.375 33.984375 15.375 26.90625 
L 15.375 0 
z
" id="ArialMT-109"/>
      <path d="M 3.328125 25.921875 
Q 3.328125 40.328125 11.328125 47.265625 
Q 18.015625 53.03125 27.640625 53.03125 
Q 38.328125 53.03125 45.109375 46.015625 
Q 51.90625 39.015625 51.90625 26.65625 
Q 51.90625 16.65625 48.90625 10.90625 
Q 45.90625 5.171875 40.15625 2 
Q 34.421875 -1.171875 27.640625 -1.171875 
Q 16.75 -1.171875 10.03125 5.8125 
Q 3.328125 12.796875 3.328125 25.921875 
z
M 12.359375 25.921875 
Q 12.359375 15.96875 16.703125 11.015625 
Q 21.046875 6.0625 27.640625 6.0625 
Q 34.1875 6.0625 38.53125 11.03125 
Q 42.875 16.015625 42.875 26.21875 
Q 42.875 35.84375 38.5 40.796875 
Q 34.125 45.75 27.640625 45.75 
Q 21.046875 45.75 16.703125 40.8125 
Q 12.359375 35.890625 12.359375 25.921875 
z
" id="ArialMT-111"/>
      <path d="M 8.6875 0 
L 8.6875 45.015625 
L 0.921875 45.015625 
L 0.921875 51.859375 
L 8.6875 51.859375 
L 8.6875 57.375 
Q 8.6875 62.59375 9.625 65.140625 
Q 10.890625 68.5625 14.078125 70.671875 
Q 17.28125 72.796875 23.046875 72.796875 
Q 26.765625 72.796875 31.25 71.921875 
L 29.9375 64.265625 
Q 27.203125 64.75 24.75 64.75 
Q 20.75 64.75 19.09375 63.03125 
Q 17.4375 61.328125 17.4375 56.640625 
L 17.4375 51.859375 
L 27.546875 51.859375 
L 27.546875 45.015625 
L 17.4375 45.015625 
L 17.4375 0 
z
" id="ArialMT-102"/>
      <path d="M 21 0 
L 1.265625 51.859375 
L 10.546875 51.859375 
L 21.6875 20.796875 
Q 23.484375 15.765625 25 10.359375 
Q 26.171875 14.453125 28.265625 20.21875 
L 39.796875 51.859375 
L 48.828125 51.859375 
L 29.203125 0 
z
" id="ArialMT-118"/>
      <path d="M 6.390625 0 
L 6.390625 71.578125 
L 15.1875 71.578125 
L 15.1875 0 
z
" id="ArialMT-108"/>
     </defs>
     <g transform="translate(17.376459 127.774132)rotate(-90)scale(0.07497 -0.07497)">
      <use xlink:href="#ArialMT-78"/>
      <use x="72.216797" xlink:href="#ArialMT-117"/>
      <use x="127.832031" xlink:href="#ArialMT-109"/>
      <use x="211.132812" xlink:href="#ArialMT-98"/>
      <use x="266.748047" xlink:href="#ArialMT-101"/>
      <use x="322.363281" xlink:href="#ArialMT-114"/>
      <use x="355.664062" xlink:href="#ArialMT-32"/>
      <use x="383.447266" xlink:href="#ArialMT-111"/>
      <use x="439.0625" xlink:href="#ArialMT-102"/>
      <use x="466.845703" xlink:href="#ArialMT-32"/>
      <use x="494.628906" xlink:href="#ArialMT-105"/>
      <use x="516.845703" xlink:href="#ArialMT-110"/>
      <use x="572.460938" xlink:href="#ArialMT-100"/>
      <use x="628.076172" xlink:href="#ArialMT-105"/>
      <use x="650.292969" xlink:href="#ArialMT-118"/>
      <use x="700.292969" xlink:href="#ArialMT-105"/>
      <use x="722.509766" xlink:href="#ArialMT-100"/>
      <use x="778.125" xlink:href="#ArialMT-117"/>
      <use x="833.740234" xlink:href="#ArialMT-97"/>
      <use x="889.355469" xlink:href="#ArialMT-108"/>
      <use x="911.572266" xlink:href="#ArialMT-115"/>
     </g>
    </g>
   </g>
   <g id="patch_3">
    <path clip-path="url(#p6d70676506)" d="M 29.035523 163.711719 
L 29.035523 163.711719 
L 31.115096 163.711719 
L 31.115096 163.711719 
L 33.19467 163.711719 
L 33.19467 163.711719 
L 35.274244 163.711719 
L 35.274244 163.711719 
L 37.353817 163.711719 
L 37.353817 163.711719 
L 39.433391 163.711719 
L 39.433391 163.711719 
L 41.512964 163.711719 
L 41.512964 140.860925 
L 43.592538 140.860925 
L 43.592538 163.711719 
L 45.672111 163.711719 
L 45.672111 163.711719 
L 47.751685 163.711719 
L 47.751685 140.860925 
L 49.831259 140.860925 
L 49.831259 140.860925 
L 51.910832 140.860925 
L 51.910832 140.860925 
L 53.990406 140.860925 
L 53.990406 163.711719 
L 56.069979 163.711719 
L 56.069979 163.711719 
L 58.149553 163.711719 
L 58.149553 163.711719 
L 60.229127 163.711719 
L 60.229127 163.711719 
L 62.3087 163.711719 
L 62.3087 118.010131 
L 64.388274 118.010131 
L 64.388274 163.711719 
L 66.467847 163.711719 
L 66.467847 163.711719 
L 68.547421 163.711719 
L 68.547421 163.711719 
L 70.626995 163.711719 
L 70.626995 140.860925 
L 72.706568 140.860925 
L 72.706568 140.860925 
L 74.786142 140.860925 
L 74.786142 140.860925 
L 76.865715 140.860925 
L 76.865715 163.711719 
L 78.945289 163.711719 
L 78.945289 140.860925 
L 81.024863 140.860925 
L 81.024863 118.010131 
L 83.104436 118.010131 
L 83.104436 163.711719 
L 85.18401 163.711719 
L 85.18401 140.860925 
L 87.263583 140.860925 
L 87.263583 163.711719 
L 89.343157 163.711719 
L 89.343157 163.711719 
L 91.422731 163.711719 
L 91.422731 140.860925 
L 93.502304 140.860925 
L 93.502304 163.711719 
L 95.581878 163.711719 
L 95.581878 163.711719 
L 97.661451 163.711719 
L 97.661451 163.711719 
L 99.741025 163.711719 
L 99.741025 140.860925 
L 101.820598 140.860925 
L 101.820598 163.711719 
L 103.900172 163.711719 
L 103.900172 118.010131 
L 105.979746 118.010131 
L 105.979746 140.860925 
L 108.059319 140.860925 
L 108.059319 163.711719 
L 110.138893 163.711719 
L 110.138893 118.010131 
L 112.218466 118.010131 
L 112.218466 163.711719 
L 114.29804 163.711719 
L 114.29804 163.711719 
L 116.377614 163.711719 
L 116.377614 163.711719 
L 118.457187 163.711719 
L 118.457187 72.308544 
L 120.536761 72.308544 
L 120.536761 163.711719 
L 122.616334 163.711719 
L 122.616334 163.711719 
L 124.695908 163.711719 
L 124.695908 163.711719 
L 126.775482 163.711719 
L 126.775482 140.860925 
L 128.855055 140.860925 
L 128.855055 163.711719 
L 130.934629 163.711719 
L 130.934629 163.711719 
L 133.014202 163.711719 
L 133.014202 118.010131 
L 135.093776 118.010131 
L 135.093776 26.606957 
L 137.17335 26.606957 
L 137.17335 163.711719 
L 139.252923 163.711719 
L 139.252923 163.711719 
L 141.332497 163.711719 
L 141.332497 163.711719 
L 143.41207 163.711719 
L 143.41207 140.860925 
L 145.491644 140.860925 
L 145.491644 163.711719 
L 147.571218 163.711719 
L 147.571218 163.711719 
L 149.650791 163.711719 
L 149.650791 163.711719 
L 151.730365 163.711719 
L 151.730365 163.711719 
L 153.809938 163.711719 
L 153.809938 163.711719 
L 155.889512 163.711719 
L 155.889512 72.308544 
L 157.969085 72.308544 
L 157.969085 140.860925 
L 160.048659 140.860925 
L 160.048659 163.711719 
L 162.128233 163.711719 
L 162.128233 140.860925 
L 164.207806 140.860925 
L 164.207806 163.711719 
L 166.28738 163.711719 
L 166.28738 140.860925 
L 168.366953 140.860925 
L 168.366953 163.711719 
L 170.446527 163.711719 
L 170.446527 163.711719 
L 172.526101 163.711719 
L 172.526101 163.711719 
L 174.605674 163.711719 
L 174.605674 163.711719 
L 176.685248 163.711719 
L 176.685248 140.860925 
L 178.764821 140.860925 
L 178.764821 163.711719 
L 180.844395 163.711719 
L 180.844395 140.860925 
L 182.923969 140.860925 
L 182.923969 140.860925 
L 185.003542 140.860925 
L 185.003542 140.860925 
L 187.083116 140.860925 
L 187.083116 163.711719 
L 189.162689 163.711719 
L 189.162689 163.711719 
L 191.242263 163.711719 
L 191.242263 163.711719 
L 193.321837 163.711719 
L 193.321837 163.711719 
L 195.40141 163.711719 
L 195.40141 163.711719 
L 197.480984 163.711719 
L 197.480984 163.711719 
L 199.560557 163.711719 
L 199.560557 163.711719 
L 201.640131 163.711719 
L 201.640131 163.711719 
L 203.719705 163.711719 
L 203.719705 163.711719 
L 205.799278 163.711719 
L 205.799278 140.860925 
L 207.878852 140.860925 
L 207.878852 140.860925 
L 209.958425 140.860925 
L 209.958425 72.308544 
L 212.037999 72.308544 
L 212.037999 140.860925 
L 214.117573 140.860925 
L 214.117573 118.010131 
L 216.197146 118.010131 
L 216.197146 118.010131 
L 218.27672 118.010131 
L 218.27672 140.860925 
L 220.356293 140.860925 
L 220.356293 95.159338 
L 222.435867 95.159338 
L 222.435867 72.308544 
L 224.51544 72.308544 
L 224.51544 140.860925 
L 226.595014 140.860925 
L 226.595014 118.010131 
L 228.674588 118.010131 
L 228.674588 163.711719 
L 230.754161 163.711719 
L 230.754161 163.711719 
L 232.833735 163.711719 
L 232.833735 140.860925 
L 234.913308 140.860925 
L 234.913308 140.860925 
L 236.992882 140.860925 
L 236.992882 140.860925 
L 239.072456 140.860925 
L 239.072456 163.711719 
L 241.152029 163.711719 
L 241.152029 140.860925 
L 243.231603 140.860925 
L 243.231603 163.711719 
L 241.152029 163.711719 
L 241.152029 163.711719 
L 239.072456 163.711719 
L 239.072456 163.711719 
L 236.992882 163.711719 
L 236.992882 163.711719 
L 234.913308 163.711719 
L 234.913308 163.711719 
L 232.833735 163.711719 
L 232.833735 163.711719 
L 230.754161 163.711719 
L 230.754161 163.711719 
L 228.674588 163.711719 
L 228.674588 163.711719 
L 226.595014 163.711719 
L 226.595014 163.711719 
L 224.51544 163.711719 
L 224.51544 163.711719 
L 222.435867 163.711719 
L 222.435867 163.711719 
L 220.356293 163.711719 
L 220.356293 163.711719 
L 218.27672 163.711719 
L 218.27672 163.711719 
L 216.197146 163.711719 
L 216.197146 163.711719 
L 214.117573 163.711719 
L 214.117573 163.711719 
L 212.037999 163.711719 
L 212.037999 163.711719 
L 209.958425 163.711719 
L 209.958425 163.711719 
L 207.878852 163.711719 
L 207.878852 163.711719 
L 205.799278 163.711719 
L 205.799278 163.711719 
L 203.719705 163.711719 
L 203.719705 163.711719 
L 201.640131 163.711719 
L 201.640131 163.711719 
L 199.560557 163.711719 
L 199.560557 163.711719 
L 197.480984 163.711719 
L 197.480984 163.711719 
L 195.40141 163.711719 
L 195.40141 163.711719 
L 193.321837 163.711719 
L 193.321837 163.711719 
L 191.242263 163.711719 
L 191.242263 163.711719 
L 189.162689 163.711719 
L 189.162689 163.711719 
L 187.083116 163.711719 
L 187.083116 163.711719 
L 185.003542 163.711719 
L 185.003542 163.711719 
L 182.923969 163.711719 
L 182.923969 163.711719 
L 180.844395 163.711719 
L 180.844395 163.711719 
L 178.764821 163.711719 
L 178.764821 163.711719 
L 176.685248 163.711719 
L 176.685248 163.711719 
L 174.605674 163.711719 
L 174.605674 163.711719 
L 172.526101 163.711719 
L 172.526101 163.711719 
L 170.446527 163.711719 
L 170.446527 163.711719 
L 168.366953 163.711719 
L 168.366953 163.711719 
L 166.28738 163.711719 
L 166.28738 163.711719 
L 164.207806 163.711719 
L 164.207806 163.711719 
L 162.128233 163.711719 
L 162.128233 163.711719 
L 160.048659 163.711719 
L 160.048659 163.711719 
L 157.969085 163.711719 
L 157.969085 163.711719 
L 155.889512 163.711719 
L 155.889512 163.711719 
L 153.809938 163.711719 
L 153.809938 163.711719 
L 151.730365 163.711719 
L 151.730365 163.711719 
L 149.650791 163.711719 
L 149.650791 163.711719 
L 147.571218 163.711719 
L 147.571218 163.711719 
L 145.491644 163.711719 
L 145.491644 163.711719 
L 143.41207 163.711719 
L 143.41207 163.711719 
L 141.332497 163.711719 
L 141.332497 163.711719 
L 139.252923 163.711719 
L 139.252923 163.711719 
L 137.17335 163.711719 
L 137.17335 163.711719 
L 135.093776 163.711719 
L 135.093776 163.711719 
L 133.014202 163.711719 
L 133.014202 163.711719 
L 130.934629 163.711719 
L 130.934629 163.711719 
L 128.855055 163.711719 
L 128.855055 163.711719 
L 126.775482 163.711719 
L 126.775482 163.711719 
L 124.695908 163.711719 
L 124.695908 163.711719 
L 122.616334 163.711719 
L 122.616334 163.711719 
L 120.536761 163.711719 
L 120.536761 163.711719 
L 118.457187 163.711719 
L 118.457187 163.711719 
L 116.377614 163.711719 
L 116.377614 163.711719 
L 114.29804 163.711719 
L 114.29804 163.711719 
L 112.218466 163.711719 
L 112.218466 163.711719 
L 110.138893 163.711719 
L 110.138893 163.711719 
L 108.059319 163.711719 
L 108.059319 163.711719 
L 105.979746 163.711719 
L 105.979746 163.711719 
L 103.900172 163.711719 
L 103.900172 163.711719 
L 101.820598 163.711719 
L 101.820598 163.711719 
L 99.741025 163.711719 
L 99.741025 163.711719 
L 97.661451 163.711719 
L 97.661451 163.711719 
L 95.581878 163.711719 
L 95.581878 163.711719 
L 93.502304 163.711719 
L 93.502304 163.711719 
L 91.422731 163.711719 
L 91.422731 163.711719 
L 89.343157 163.711719 
L 89.343157 163.711719 
L 87.263583 163.711719 
L 87.263583 163.711719 
L 85.18401 163.711719 
L 85.18401 163.711719 
L 83.104436 163.711719 
L 83.104436 163.711719 
L 81.024863 163.711719 
L 81.024863 163.711719 
L 78.945289 163.711719 
L 78.945289 163.711719 
L 76.865715 163.711719 
L 76.865715 163.711719 
L 74.786142 163.711719 
L 74.786142 163.711719 
L 72.706568 163.711719 
L 72.706568 163.711719 
L 70.626995 163.711719 
L 70.626995 163.711719 
L 68.547421 163.711719 
L 68.547421 163.711719 
L 66.467847 163.711719 
L 66.467847 163.711719 
L 64.388274 163.711719 
L 64.388274 163.711719 
L 62.3087 163.711719 
L 62.3087 163.711719 
L 60.229127 163.711719 
L 60.229127 163.711719 
L 58.149553 163.711719 
L 58.149553 163.711719 
L 56.069979 163.711719 
L 56.069979 163.711719 
L 53.990406 163.711719 
L 53.990406 163.711719 
L 51.910832 163.711719 
L 51.910832 163.711719 
L 49.831259 163.711719 
L 49.831259 163.711719 
L 47.751685 163.711719 
L 47.751685 163.711719 
L 45.672111 163.711719 
L 45.672111 163.711719 
L 43.592538 163.711719 
L 43.592538 163.711719 
L 41.512964 163.711719 
L 41.512964 163.711719 
L 39.433391 163.711719 
L 39.433391 163.711719 
L 37.353817 163.711719 
L 37.353817 163.711719 
L 35.274244 163.711719 
L 35.274244 163.711719 
L 33.19467 163.711719 
L 33.19467 163.711719 
L 31.115096 163.711719 
L 31.115096 163.711719 
z
" style="fill:#1f77b4;"/>
   </g>
   <g id="patch_4">
    <path d="M 29.035523 163.711719 
L 29.035523 19.751719 
" style="fill:none;stroke:#000000;stroke-linecap:square;stroke-linejoin:miter;"/>
   </g>
   <g id="patch_5">
    <path d="M 29.035523 163.711719 
L 247.39075 163.711719 
" style="fill:none;stroke:#000000;stroke-linecap:square;stroke-linejoin:miter;"/>
   </g>
   <g id="text_16">
    <!-- A -->
    <defs>
     <path d="M 71.828125 0 
L 56.109375 0 
L 49.859375 16.265625 
L 21.234375 16.265625 
L 15.328125 0 
L 0 0 
L 27.875 71.578125 
L 43.171875 71.578125 
z
M 45.21875 28.328125 
L 35.359375 54.890625 
L 25.6875 28.328125 
z
" id="Arial-BoldMT-65"/>
    </defs>
    <g transform="translate(7.2 26.949719)scale(0.09 -0.09)">
     <use xlink:href="#Arial-BoldMT-65"/>
    </g>
   </g>
   <g id="text_17">
    <!-- Britanova cohort (N=71) -->
    <defs>
     <path d="M 7.328125 0 
L 7.328125 71.578125 
L 34.1875 71.578125 
Q 42.390625 71.578125 47.34375 69.40625 
Q 52.296875 67.234375 55.09375 62.71875 
Q 57.90625 58.203125 57.90625 53.265625 
Q 57.90625 48.6875 55.421875 44.625 
Q 52.9375 40.578125 47.90625 38.09375 
Q 54.390625 36.1875 57.875 31.59375 
Q 61.375 27 61.375 20.75 
Q 61.375 15.71875 59.25 11.390625 
Q 57.125 7.078125 54 4.734375 
Q 50.875 2.390625 46.15625 1.1875 
Q 41.453125 0 34.625 0 
z
M 16.796875 41.5 
L 32.28125 41.5 
Q 38.578125 41.5 41.3125 42.328125 
Q 44.921875 43.40625 46.75 45.890625 
Q 48.578125 48.390625 48.578125 52.15625 
Q 48.578125 55.71875 46.875 58.421875 
Q 45.171875 61.140625 41.984375 62.140625 
Q 38.8125 63.140625 31.109375 63.140625 
L 16.796875 63.140625 
z
M 16.796875 8.453125 
L 34.625 8.453125 
Q 39.203125 8.453125 41.0625 8.796875 
Q 44.34375 9.375 46.53125 10.734375 
Q 48.734375 12.109375 50.140625 14.71875 
Q 51.5625 17.328125 51.5625 20.75 
Q 51.5625 24.75 49.515625 27.703125 
Q 47.46875 30.671875 43.828125 31.859375 
Q 40.1875 33.0625 33.34375 33.0625 
L 16.796875 33.0625 
z
" id="ArialMT-66"/>
     <path d="M 25.78125 7.859375 
L 27.046875 0.09375 
Q 23.34375 -0.6875 20.40625 -0.6875 
Q 15.625 -0.6875 12.984375 0.828125 
Q 10.359375 2.34375 9.28125 4.8125 
Q 8.203125 7.28125 8.203125 15.1875 
L 8.203125 45.015625 
L 1.765625 45.015625 
L 1.765625 51.859375 
L 8.203125 51.859375 
L 8.203125 64.703125 
L 16.9375 69.96875 
L 16.9375 51.859375 
L 25.78125 51.859375 
L 25.78125 45.015625 
L 16.9375 45.015625 
L 16.9375 14.703125 
Q 16.9375 10.9375 17.40625 9.859375 
Q 17.875 8.796875 18.921875 8.15625 
Q 19.96875 7.515625 21.921875 7.515625 
Q 23.390625 7.515625 25.78125 7.859375 
z
" id="ArialMT-116"/>
     <path d="M 40.4375 19 
L 49.078125 17.875 
Q 47.65625 8.9375 41.8125 3.875 
Q 35.984375 -1.171875 27.484375 -1.171875 
Q 16.84375 -1.171875 10.375 5.78125 
Q 3.90625 12.75 3.90625 25.734375 
Q 3.90625 34.125 6.6875 40.421875 
Q 9.46875 46.734375 15.15625 49.875 
Q 20.84375 53.03125 27.546875 53.03125 
Q 35.984375 53.03125 41.359375 48.75 
Q 46.734375 44.484375 48.25 36.625 
L 39.703125 35.296875 
Q 38.484375 40.53125 35.375 43.15625 
Q 32.28125 45.796875 27.875 45.796875 
Q 21.234375 45.796875 17.078125 41.03125 
Q 12.9375 36.28125 12.9375 25.984375 
Q 12.9375 15.53125 16.9375 10.796875 
Q 20.953125 6.0625 27.390625 6.0625 
Q 32.5625 6.0625 36.03125 9.234375 
Q 39.5 12.40625 40.4375 19 
z
" id="ArialMT-99"/>
     <path d="M 6.59375 0 
L 6.59375 71.578125 
L 15.375 71.578125 
L 15.375 45.90625 
Q 21.53125 53.03125 30.90625 53.03125 
Q 36.671875 53.03125 40.921875 50.75 
Q 45.171875 48.484375 47 44.484375 
Q 48.828125 40.484375 48.828125 32.859375 
L 48.828125 0 
L 40.046875 0 
L 40.046875 32.859375 
Q 40.046875 39.453125 37.1875 42.453125 
Q 34.328125 45.453125 29.109375 45.453125 
Q 25.203125 45.453125 21.75 43.421875 
Q 18.3125 41.40625 16.84375 37.9375 
Q 15.375 34.46875 15.375 28.375 
L 15.375 0 
z
" id="ArialMT-104"/>
     <path d="M 52.828125 42.09375 
L 5.5625 42.09375 
L 5.5625 50.296875 
L 52.828125 50.296875 
z
M 52.828125 20.359375 
L 5.5625 20.359375 
L 5.5625 28.5625 
L 52.828125 28.5625 
z
" id="ArialMT-61"/>
     <path d="M 4.734375 62.203125 
L 4.734375 70.65625 
L 51.078125 70.65625 
L 51.078125 63.8125 
Q 44.234375 56.546875 37.515625 44.484375 
Q 30.8125 32.421875 27.15625 19.671875 
Q 24.515625 10.6875 23.78125 0 
L 14.75 0 
Q 14.890625 8.453125 18.0625 20.40625 
Q 21.234375 32.375 27.171875 43.484375 
Q 33.109375 54.59375 39.796875 62.203125 
z
" id="ArialMT-55"/>
    </defs>
    <g transform="translate(90.317668 13.751719)scale(0.09 -0.09)">
     <use xlink:href="#ArialMT-66"/>
     <use x="66.699219" xlink:href="#ArialMT-114"/>
     <use x="100" xlink:href="#ArialMT-105"/>
     <use x="122.216797" xlink:href="#ArialMT-116"/>
     <use x="150" xlink:href="#ArialMT-97"/>
     <use x="205.615234" xlink:href="#ArialMT-110"/>
     <use x="261.230469" xlink:href="#ArialMT-111"/>
     <use x="316.845703" xlink:href="#ArialMT-118"/>
     <use x="366.845703" xlink:href="#ArialMT-97"/>
     <use x="422.460938" xlink:href="#ArialMT-32"/>
     <use x="450.244141" xlink:href="#ArialMT-99"/>
     <use x="500.244141" xlink:href="#ArialMT-111"/>
     <use x="555.859375" xlink:href="#ArialMT-104"/>
     <use x="611.474609" xlink:href="#ArialMT-111"/>
     <use x="667.089844" xlink:href="#ArialMT-114"/>
     <use x="700.390625" xlink:href="#ArialMT-116"/>
     <use x="728.173828" xlink:href="#ArialMT-32"/>
     <use x="755.957031" xlink:href="#ArialMT-40"/>
     <use x="789.257812" xlink:href="#ArialMT-78"/>
     <use x="861.474609" xlink:href="#ArialMT-61"/>
     <use x="919.873047" xlink:href="#ArialMT-55"/>
     <use x="975.488281" xlink:href="#ArialMT-49"/>
     <use x="1031.103516" xlink:href="#ArialMT-41"/>
    </g>
   </g>
  </g>
  <g id="axes_2">
   <g id="patch_6">
    <path d="M 277.48575 163.711719 
L 495.840977 163.711719 
L 495.840977 19.751719 
L 277.48575 19.751719 
z
" style="fill:#ffffff;"/>
   </g>
   <g id="matplotlib.axis_3">
    <g id="xtick_7">
     <g id="line2d_14">
      <g>
       <use style="stroke:#000000;stroke-width:0.8;" x="277.48575" xlink:href="#m8b877fedbc" y="163.711719"/>
      </g>
     </g>
     <g id="text_18">
      <!-- 0 -->
      <g transform="translate(275.401233 173.577931)scale(0.07497 -0.07497)">
       <use xlink:href="#ArialMT-48"/>
      </g>
     </g>
    </g>
    <g id="xtick_8">
     <g id="line2d_15">
      <g>
       <use style="stroke:#000000;stroke-width:0.8;" x="306.59978" xlink:href="#m8b877fedbc" y="163.711719"/>
      </g>
     </g>
     <g id="text_19">
      <!-- 10 -->
      <g transform="translate(302.430745 173.577931)scale(0.07497 -0.07497)">
       <use xlink:href="#ArialMT-49"/>
       <use x="55.615234" xlink:href="#ArialMT-48"/>
      </g>
     </g>
    </g>
    <g id="xtick_9">
     <g id="line2d_16">
      <g>
       <use style="stroke:#000000;stroke-width:0.8;" x="335.713811" xlink:href="#m8b877fedbc" y="163.711719"/>
      </g>
     </g>
     <g id="text_20">
      <!-- 20 -->
      <g transform="translate(331.544776 173.577931)scale(0.07497 -0.07497)">
       <use xlink:href="#ArialMT-50"/>
       <use x="55.615234" xlink:href="#ArialMT-48"/>
      </g>
     </g>
    </g>
    <g id="xtick_10">
     <g id="line2d_17">
      <g>
       <use style="stroke:#000000;stroke-width:0.8;" x="364.827841" xlink:href="#m8b877fedbc" y="163.711719"/>
      </g>
     </g>
     <g id="text_21">
      <!-- 30 -->
      <g transform="translate(360.658806 173.577931)scale(0.07497 -0.07497)">
       <use xlink:href="#ArialMT-51"/>
       <use x="55.615234" xlink:href="#ArialMT-48"/>
      </g>
     </g>
    </g>
    <g id="xtick_11">
     <g id="line2d_18">
      <g>
       <use style="stroke:#000000;stroke-width:0.8;" x="393.941871" xlink:href="#m8b877fedbc" y="163.711719"/>
      </g>
     </g>
     <g id="text_22">
      <!-- 40 -->
      <g transform="translate(389.772836 173.577931)scale(0.07497 -0.07497)">
       <use xlink:href="#ArialMT-52"/>
       <use x="55.615234" xlink:href="#ArialMT-48"/>
      </g>
     </g>
    </g>
    <g id="xtick_12">
     <g id="line2d_19">
      <g>
       <use style="stroke:#000000;stroke-width:0.8;" x="423.055902" xlink:href="#m8b877fedbc" y="163.711719"/>
      </g>
     </g>
     <g id="text_23">
      <!-- 50 -->
      <g transform="translate(418.886867 173.577931)scale(0.07497 -0.07497)">
       <use xlink:href="#ArialMT-53"/>
       <use x="55.615234" xlink:href="#ArialMT-48"/>
      </g>
     </g>
    </g>
    <g id="xtick_13">
     <g id="line2d_20">
      <g>
       <use style="stroke:#000000;stroke-width:0.8;" x="452.169932" xlink:href="#m8b877fedbc" y="163.711719"/>
      </g>
     </g>
     <g id="text_24">
      <!-- 60 -->
      <g transform="translate(448.000897 173.577931)scale(0.07497 -0.07497)">
       <use xlink:href="#ArialMT-54"/>
       <use x="55.615234" xlink:href="#ArialMT-48"/>
      </g>
     </g>
    </g>
    <g id="xtick_14">
     <g id="line2d_21">
      <g>
       <use style="stroke:#000000;stroke-width:0.8;" x="481.283962" xlink:href="#m8b877fedbc" y="163.711719"/>
      </g>
     </g>
     <g id="text_25">
      <!-- 70 -->
      <g transform="translate(477.114927 173.577931)scale(0.07497 -0.07497)">
       <use xlink:href="#ArialMT-55"/>
       <use x="55.615234" xlink:href="#ArialMT-48"/>
      </g>
     </g>
    </g>
    <g id="text_26">
     <!-- Age in years (binned) -->
     <g transform="translate(351.035043 182.025541)scale(0.07497 -0.07497)">
      <use xlink:href="#ArialMT-65"/>
      <use x="66.699219" xlink:href="#ArialMT-103"/>
      <use x="122.314453" xlink:href="#ArialMT-101"/>
      <use x="177.929688" xlink:href="#ArialMT-32"/>
      <use x="205.712891" xlink:href="#ArialMT-105"/>
      <use x="227.929688" xlink:href="#ArialMT-110"/>
      <use x="283.544922" xlink:href="#ArialMT-32"/>
      <use x="311.328125" xlink:href="#ArialMT-121"/>
      <use x="361.328125" xlink:href="#ArialMT-101"/>
      <use x="416.943359" xlink:href="#ArialMT-97"/>
      <use x="472.558594" xlink:href="#ArialMT-114"/>
      <use x="505.859375" xlink:href="#ArialMT-115"/>
      <use x="555.859375" xlink:href="#ArialMT-32"/>
      <use x="583.642578" xlink:href="#ArialMT-40"/>
      <use x="616.943359" xlink:href="#ArialMT-98"/>
      <use x="672.558594" xlink:href="#ArialMT-105"/>
      <use x="694.775391" xlink:href="#ArialMT-110"/>
      <use x="750.390625" xlink:href="#ArialMT-110"/>
      <use x="806.005859" xlink:href="#ArialMT-101"/>
      <use x="861.621094" xlink:href="#ArialMT-100"/>
      <use x="917.236328" xlink:href="#ArialMT-41"/>
     </g>
    </g>
   </g>
   <g id="matplotlib.axis_4">
    <g id="ytick_8">
     <g id="line2d_22">
      <g>
       <use style="stroke:#000000;stroke-width:0.8;" x="277.48575" xlink:href="#m6c499bcf7b" y="163.711719"/>
      </g>
     </g>
     <g id="text_27">
      <!-- 0 -->
      <g transform="translate(268.816715 166.394825)scale(0.07497 -0.07497)">
       <use xlink:href="#ArialMT-48"/>
      </g>
     </g>
    </g>
    <g id="ytick_9">
     <g id="line2d_23">
      <g>
       <use style="stroke:#000000;stroke-width:0.8;" x="277.48575" xlink:href="#m6c499bcf7b" y="135.148227"/>
      </g>
     </g>
     <g id="text_28">
      <!-- 5 -->
      <g transform="translate(268.816715 137.831333)scale(0.07497 -0.07497)">
       <use xlink:href="#ArialMT-53"/>
      </g>
     </g>
    </g>
    <g id="ytick_10">
     <g id="line2d_24">
      <g>
       <use style="stroke:#000000;stroke-width:0.8;" x="277.48575" xlink:href="#m6c499bcf7b" y="106.584735"/>
      </g>
     </g>
     <g id="text_29">
      <!-- 10 -->
      <g transform="translate(264.64768 109.267841)scale(0.07497 -0.07497)">
       <use xlink:href="#ArialMT-49"/>
       <use x="55.615234" xlink:href="#ArialMT-48"/>
      </g>
     </g>
    </g>
    <g id="ytick_11">
     <g id="line2d_25">
      <g>
       <use style="stroke:#000000;stroke-width:0.8;" x="277.48575" xlink:href="#m6c499bcf7b" y="78.021243"/>
      </g>
     </g>
     <g id="text_30">
      <!-- 15 -->
      <g transform="translate(264.64768 80.704349)scale(0.07497 -0.07497)">
       <use xlink:href="#ArialMT-49"/>
       <use x="55.615234" xlink:href="#ArialMT-53"/>
      </g>
     </g>
    </g>
    <g id="ytick_12">
     <g id="line2d_26">
      <g>
       <use style="stroke:#000000;stroke-width:0.8;" x="277.48575" xlink:href="#m6c499bcf7b" y="49.45775"/>
      </g>
     </g>
     <g id="text_31">
      <!-- 20 -->
      <g transform="translate(264.64768 52.140857)scale(0.07497 -0.07497)">
       <use xlink:href="#ArialMT-50"/>
       <use x="55.615234" xlink:href="#ArialMT-48"/>
      </g>
     </g>
    </g>
    <g id="ytick_13">
     <g id="line2d_27">
      <g>
       <use style="stroke:#000000;stroke-width:0.8;" x="277.48575" xlink:href="#m6c499bcf7b" y="20.894258"/>
      </g>
     </g>
     <g id="text_32">
      <!-- 25 -->
      <g transform="translate(264.64768 23.577364)scale(0.07497 -0.07497)">
       <use xlink:href="#ArialMT-50"/>
       <use x="55.615234" xlink:href="#ArialMT-53"/>
      </g>
     </g>
    </g>
    <g id="text_33">
     <!-- Number of individuals -->
     <g transform="translate(261.657652 127.774132)rotate(-90)scale(0.07497 -0.07497)">
      <use xlink:href="#ArialMT-78"/>
      <use x="72.216797" xlink:href="#ArialMT-117"/>
      <use x="127.832031" xlink:href="#ArialMT-109"/>
      <use x="211.132812" xlink:href="#ArialMT-98"/>
      <use x="266.748047" xlink:href="#ArialMT-101"/>
      <use x="322.363281" xlink:href="#ArialMT-114"/>
      <use x="355.664062" xlink:href="#ArialMT-32"/>
      <use x="383.447266" xlink:href="#ArialMT-111"/>
      <use x="439.0625" xlink:href="#ArialMT-102"/>
      <use x="466.845703" xlink:href="#ArialMT-32"/>
      <use x="494.628906" xlink:href="#ArialMT-105"/>
      <use x="516.845703" xlink:href="#ArialMT-110"/>
      <use x="572.460938" xlink:href="#ArialMT-100"/>
      <use x="628.076172" xlink:href="#ArialMT-105"/>
      <use x="650.292969" xlink:href="#ArialMT-118"/>
      <use x="700.292969" xlink:href="#ArialMT-105"/>
      <use x="722.509766" xlink:href="#ArialMT-100"/>
      <use x="778.125" xlink:href="#ArialMT-117"/>
      <use x="833.740234" xlink:href="#ArialMT-97"/>
      <use x="889.355469" xlink:href="#ArialMT-108"/>
      <use x="911.572266" xlink:href="#ArialMT-115"/>
     </g>
    </g>
   </g>
   <g id="patch_7">
    <path clip-path="url(#pf5d3a15c9b)" d="M 277.48575 163.711719 
L 277.48575 163.711719 
L 280.397153 163.711719 
L 280.397153 152.286322 
L 283.308556 152.286322 
L 283.308556 152.286322 
L 286.219959 152.286322 
L 286.219959 157.99902 
L 289.131362 157.99902 
L 289.131362 163.711719 
L 292.042765 163.711719 
L 292.042765 152.286322 
L 294.954168 152.286322 
L 294.954168 152.286322 
L 297.865571 152.286322 
L 297.865571 152.286322 
L 300.776974 152.286322 
L 300.776974 140.860925 
L 303.688377 140.860925 
L 303.688377 140.860925 
L 306.59978 140.860925 
L 306.59978 146.573624 
L 309.511183 146.573624 
L 309.511183 157.99902 
L 312.422586 157.99902 
L 312.422586 152.286322 
L 315.333989 152.286322 
L 315.333989 152.286322 
L 318.245392 152.286322 
L 318.245392 146.573624 
L 321.156795 146.573624 
L 321.156795 152.286322 
L 324.068198 152.286322 
L 324.068198 163.711719 
L 326.979602 163.711719 
L 326.979602 135.148227 
L 329.891005 135.148227 
L 329.891005 157.99902 
L 332.802408 157.99902 
L 332.802408 118.010131 
L 335.713811 118.010131 
L 335.713811 89.446639 
L 338.625214 89.446639 
L 338.625214 78.021243 
L 341.536617 78.021243 
L 341.536617 43.745052 
L 344.44802 43.745052 
L 344.44802 60.883147 
L 347.359423 60.883147 
L 347.359423 49.45775 
L 350.270826 49.45775 
L 350.270826 72.308544 
L 353.182229 72.308544 
L 353.182229 100.872036 
L 356.093632 100.872036 
L 356.093632 49.45775 
L 359.005035 49.45775 
L 359.005035 78.021243 
L 361.916438 78.021243 
L 361.916438 95.159338 
L 364.827841 95.159338 
L 364.827841 100.872036 
L 367.739244 100.872036 
L 367.739244 95.159338 
L 370.650647 95.159338 
L 370.650647 43.745052 
L 373.56205 43.745052 
L 373.56205 66.595846 
L 376.473453 66.595846 
L 376.473453 26.606957 
L 379.384856 26.606957 
L 379.384856 49.45775 
L 382.296259 49.45775 
L 382.296259 89.446639 
L 385.207662 89.446639 
L 385.207662 140.860925 
L 388.119065 140.860925 
L 388.119065 95.159338 
L 391.030468 95.159338 
L 391.030468 66.595846 
L 393.941871 66.595846 
L 393.941871 112.297433 
L 396.853274 112.297433 
L 396.853274 66.595846 
L 399.764677 66.595846 
L 399.764677 49.45775 
L 402.67608 49.45775 
L 402.67608 118.010131 
L 405.587483 118.010131 
L 405.587483 83.733941 
L 408.498886 83.733941 
L 408.498886 89.446639 
L 411.410289 89.446639 
L 411.410289 66.595846 
L 414.321692 66.595846 
L 414.321692 66.595846 
L 417.233095 66.595846 
L 417.233095 106.584735 
L 420.144498 106.584735 
L 420.144498 95.159338 
L 423.055902 95.159338 
L 423.055902 72.308544 
L 425.967305 72.308544 
L 425.967305 112.297433 
L 428.878708 112.297433 
L 428.878708 118.010131 
L 431.790111 118.010131 
L 431.790111 123.72283 
L 434.701514 123.72283 
L 434.701514 89.446639 
L 437.612917 89.446639 
L 437.612917 106.584735 
L 440.52432 106.584735 
L 440.52432 123.72283 
L 443.435723 123.72283 
L 443.435723 129.435528 
L 446.347126 129.435528 
L 446.347126 146.573624 
L 449.258529 146.573624 
L 449.258529 129.435528 
L 452.169932 129.435528 
L 452.169932 123.72283 
L 455.081335 123.72283 
L 455.081335 123.72283 
L 457.992738 123.72283 
L 457.992738 146.573624 
L 460.904141 146.573624 
L 460.904141 157.99902 
L 463.815544 157.99902 
L 463.815544 146.573624 
L 466.726947 146.573624 
L 466.726947 146.573624 
L 469.63835 146.573624 
L 469.63835 146.573624 
L 472.549753 146.573624 
L 472.549753 157.99902 
L 475.461156 157.99902 
L 475.461156 163.711719 
L 478.372559 163.711719 
L 478.372559 163.711719 
L 481.283962 163.711719 
L 481.283962 129.435528 
L 484.195365 129.435528 
L 484.195365 157.99902 
L 487.106768 157.99902 
L 487.106768 152.286322 
L 490.018171 152.286322 
L 490.018171 140.860925 
L 492.929574 140.860925 
L 492.929574 163.711719 
L 490.018171 163.711719 
L 490.018171 163.711719 
L 487.106768 163.711719 
L 487.106768 163.711719 
L 484.195365 163.711719 
L 484.195365 163.711719 
L 481.283962 163.711719 
L 481.283962 163.711719 
L 478.372559 163.711719 
L 478.372559 163.711719 
L 475.461156 163.711719 
L 475.461156 163.711719 
L 472.549753 163.711719 
L 472.549753 163.711719 
L 469.63835 163.711719 
L 469.63835 163.711719 
L 466.726947 163.711719 
L 466.726947 163.711719 
L 463.815544 163.711719 
L 463.815544 163.711719 
L 460.904141 163.711719 
L 460.904141 163.711719 
L 457.992738 163.711719 
L 457.992738 163.711719 
L 455.081335 163.711719 
L 455.081335 163.711719 
L 452.169932 163.711719 
L 452.169932 163.711719 
L 449.258529 163.711719 
L 449.258529 163.711719 
L 446.347126 163.711719 
L 446.347126 163.711719 
L 443.435723 163.711719 
L 443.435723 163.711719 
L 440.52432 163.711719 
L 440.52432 163.711719 
L 437.612917 163.711719 
L 437.612917 163.711719 
L 434.701514 163.711719 
L 434.701514 163.711719 
L 431.790111 163.711719 
L 431.790111 163.711719 
L 428.878708 163.711719 
L 428.878708 163.711719 
L 425.967305 163.711719 
L 425.967305 163.711719 
L 423.055902 163.711719 
L 423.055902 163.711719 
L 420.144498 163.711719 
L 420.144498 163.711719 
L 417.233095 163.711719 
L 417.233095 163.711719 
L 414.321692 163.711719 
L 414.321692 163.711719 
L 411.410289 163.711719 
L 411.410289 163.711719 
L 408.498886 163.711719 
L 408.498886 163.711719 
L 405.587483 163.711719 
L 405.587483 163.711719 
L 402.67608 163.711719 
L 402.67608 163.711719 
L 399.764677 163.711719 
L 399.764677 163.711719 
L 396.853274 163.711719 
L 396.853274 163.711719 
L 393.941871 163.711719 
L 393.941871 163.711719 
L 391.030468 163.711719 
L 391.030468 163.711719 
L 388.119065 163.711719 
L 388.119065 163.711719 
L 385.207662 163.711719 
L 385.207662 163.711719 
L 382.296259 163.711719 
L 382.296259 163.711719 
L 379.384856 163.711719 
L 379.384856 163.711719 
L 376.473453 163.711719 
L 376.473453 163.711719 
L 373.56205 163.711719 
L 373.56205 163.711719 
L 370.650647 163.711719 
L 370.650647 163.711719 
L 367.739244 163.711719 
L 367.739244 163.711719 
L 364.827841 163.711719 
L 364.827841 163.711719 
L 361.916438 163.711719 
L 361.916438 163.711719 
L 359.005035 163.711719 
L 359.005035 163.711719 
L 356.093632 163.711719 
L 356.093632 163.711719 
L 353.182229 163.711719 
L 353.182229 163.711719 
L 350.270826 163.711719 
L 350.270826 163.711719 
L 347.359423 163.711719 
L 347.359423 163.711719 
L 344.44802 163.711719 
L 344.44802 163.711719 
L 341.536617 163.711719 
L 341.536617 163.711719 
L 338.625214 163.711719 
L 338.625214 163.711719 
L 335.713811 163.711719 
L 335.713811 163.711719 
L 332.802408 163.711719 
L 332.802408 163.711719 
L 329.891005 163.711719 
L 329.891005 163.711719 
L 326.979602 163.711719 
L 326.979602 163.711719 
L 324.068198 163.711719 
L 324.068198 163.711719 
L 321.156795 163.711719 
L 321.156795 163.711719 
L 318.245392 163.711719 
L 318.245392 163.711719 
L 315.333989 163.711719 
L 315.333989 163.711719 
L 312.422586 163.711719 
L 312.422586 163.711719 
L 309.511183 163.711719 
L 309.511183 163.711719 
L 306.59978 163.711719 
L 306.59978 163.711719 
L 303.688377 163.711719 
L 303.688377 163.711719 
L 300.776974 163.711719 
L 300.776974 163.711719 
L 297.865571 163.711719 
L 297.865571 163.711719 
L 294.954168 163.711719 
L 294.954168 163.711719 
L 292.042765 163.711719 
L 292.042765 163.711719 
L 289.131362 163.711719 
L 289.131362 163.711719 
L 286.219959 163.711719 
L 286.219959 163.711719 
L 283.308556 163.711719 
L 283.308556 163.711719 
L 280.397153 163.711719 
L 280.397153 163.711719 
z
" style="fill:#1f77b4;"/>
   </g>
   <g id="patch_8">
    <path d="M 277.48575 163.711719 
L 277.48575 19.751719 
" style="fill:none;stroke:#000000;stroke-linecap:square;stroke-linejoin:miter;"/>
   </g>
   <g id="patch_9">
    <path d="M 277.48575 163.711719 
L 495.840977 163.711719 
" style="fill:none;stroke:#000000;stroke-linecap:square;stroke-linejoin:miter;"/>
   </g>
   <g id="text_34">
    <!-- B -->
    <defs>
     <path d="M 7.328125 71.578125 
L 35.9375 71.578125 
Q 44.4375 71.578125 48.609375 70.875 
Q 52.78125 70.171875 56.078125 67.921875 
Q 59.375 65.671875 61.5625 61.9375 
Q 63.765625 58.203125 63.765625 53.5625 
Q 63.765625 48.53125 61.046875 44.328125 
Q 58.34375 40.140625 53.71875 38.03125 
Q 60.25 36.140625 63.765625 31.546875 
Q 67.28125 26.953125 67.28125 20.75 
Q 67.28125 15.875 65.015625 11.25 
Q 62.75 6.640625 58.8125 3.875 
Q 54.890625 1.125 49.125 0.484375 
Q 45.515625 0.09375 31.6875 0 
L 7.328125 0 
z
M 21.78125 59.671875 
L 21.78125 43.109375 
L 31.25 43.109375 
Q 39.703125 43.109375 41.75 43.359375 
Q 45.453125 43.796875 47.578125 45.921875 
Q 49.703125 48.046875 49.703125 51.515625 
Q 49.703125 54.828125 47.875 56.90625 
Q 46.046875 58.984375 42.4375 59.421875 
Q 40.28125 59.671875 30.078125 59.671875 
z
M 21.78125 31.203125 
L 21.78125 12.0625 
L 35.15625 12.0625 
Q 42.96875 12.0625 45.0625 12.5 
Q 48.296875 13.09375 50.3125 15.359375 
Q 52.34375 17.625 52.34375 21.4375 
Q 52.34375 24.65625 50.78125 26.90625 
Q 49.21875 29.15625 46.265625 30.171875 
Q 43.3125 31.203125 33.453125 31.203125 
z
" id="Arial-BoldMT-66"/>
    </defs>
    <g transform="translate(255.650227 26.949719)scale(0.09 -0.09)">
     <use xlink:href="#Arial-BoldMT-66"/>
    </g>
   </g>
   <g id="text_35">
    <!-- Emerson cohort  (N=621) -->
    <defs>
     <path d="M 7.90625 0 
L 7.90625 71.578125 
L 59.671875 71.578125 
L 59.671875 63.140625 
L 17.390625 63.140625 
L 17.390625 41.21875 
L 56.984375 41.21875 
L 56.984375 32.8125 
L 17.390625 32.8125 
L 17.390625 8.453125 
L 61.328125 8.453125 
L 61.328125 0 
z
" id="ArialMT-69"/>
    </defs>
    <g transform="translate(336.019379 13.751719)scale(0.09 -0.09)">
     <use xlink:href="#ArialMT-69"/>
     <use x="66.699219" xlink:href="#ArialMT-109"/>
     <use x="150" xlink:href="#ArialMT-101"/>
     <use x="205.615234" xlink:href="#ArialMT-114"/>
     <use x="238.916016" xlink:href="#ArialMT-115"/>
     <use x="288.916016" xlink:href="#ArialMT-111"/>
     <use x="344.53125" xlink:href="#ArialMT-110"/>
     <use x="400.146484" xlink:href="#ArialMT-32"/>
     <use x="427.929688" xlink:href="#ArialMT-99"/>
     <use x="477.929688" xlink:href="#ArialMT-111"/>
     <use x="533.544922" xlink:href="#ArialMT-104"/>
     <use x="589.160156" xlink:href="#ArialMT-111"/>
     <use x="644.775391" xlink:href="#ArialMT-114"/>
     <use x="678.076172" xlink:href="#ArialMT-116"/>
     <use x="705.859375" xlink:href="#ArialMT-32"/>
     <use x="733.642578" xlink:href="#ArialMT-32"/>
     <use x="761.425781" xlink:href="#ArialMT-40"/>
     <use x="794.726562" xlink:href="#ArialMT-78"/>
     <use x="866.943359" xlink:href="#ArialMT-61"/>
     <use x="925.341797" xlink:href="#ArialMT-54"/>
     <use x="980.957031" xlink:href="#ArialMT-50"/>
     <use x="1036.572266" xlink:href="#ArialMT-49"/>
     <use x="1092.1875" xlink:href="#ArialMT-41"/>
    </g>
   </g>
  </g>
 </g>
 <defs>
  <clipPath id="p6d70676506">
   <rect height="143.96" width="218.355227" x="29.035523" y="19.751719"/>
  </clipPath>
  <clipPath id="pf5d3a15c9b">
   <rect height="143.96" width="218.355227" x="277.48575" y="19.751719"/>
  </clipPath>
 </defs>
</svg>
