<?xml version="1.0" encoding="utf-8" standalone="no"?>
<!DOCTYPE svg PUBLIC "-//W3C//DTD SVG 1.1//EN"
  "http://www.w3.org/Graphics/SVG/1.1/DTD/svg11.dtd">
<!-- Created with matplotlib (https://matplotlib.org/) -->
<svg height="196.771707pt" version="1.1" viewBox="0 0 499.031106 196.771707" width="499.031106pt" xmlns="http://www.w3.org/2000/svg" xmlns:xlink="http://www.w3.org/1999/xlink">
 <defs>
  <style type="text/css">
*{stroke-linecap:butt;stroke-linejoin:round;}
  </style>
 </defs>
 <g id="figure_1">
  <g id="patch_1">
   <path d="M 0 196.771707 
L 499.031106 196.771707 
L 499.031106 0 
L 0 0 
z
" style="fill:none;"/>
  </g>
  <g id="axes_1">
   <g id="patch_2">
    <path d="M 34.646106 169.68 
L 244.691106 169.68 
L 244.691106 7.2 
L 34.646106 7.2 
z
" style="fill:#ffffff;"/>
   </g>
   <g id="matplotlib.axis_1">
    <g id="xtick_1">
     <g id="line2d_1">
      <defs>
       <path d="M 0 2 
L 0 -2 
" id="mab41efd3b2" style="stroke:#000000;stroke-width:0.8;"/>
      </defs>
      <g>
       <use style="stroke:#000000;stroke-width:0.8;" x="57.832891" xlink:href="#mab41efd3b2" y="169.68"/>
      </g>
     </g>
     <g id="text_1">
      <!-- 10 -->
      <defs>
       <path d="M 37.25 0 
L 28.46875 0 
L 28.46875 56 
Q 25.296875 52.984375 20.140625 49.953125 
Q 14.984375 46.921875 10.890625 45.40625 
L 10.890625 53.90625 
Q 18.265625 57.375 23.78125 62.296875 
Q 29.296875 67.234375 31.59375 71.875 
L 37.25 71.875 
z
" id="ArialMT-49"/>
       <path d="M 4.15625 35.296875 
Q 4.15625 48 6.765625 55.734375 
Q 9.375 63.484375 14.515625 67.671875 
Q 19.671875 71.875 27.484375 71.875 
Q 33.25 71.875 37.59375 69.546875 
Q 41.9375 67.234375 44.765625 62.859375 
Q 47.609375 58.5 49.21875 52.21875 
Q 50.828125 45.953125 50.828125 35.296875 
Q 50.828125 22.703125 48.234375 14.96875 
Q 45.65625 7.234375 40.5 3 
Q 35.359375 -1.21875 27.484375 -1.21875 
Q 17.140625 -1.21875 11.234375 6.203125 
Q 4.15625 15.140625 4.15625 35.296875 
z
M 13.1875 35.296875 
Q 13.1875 17.671875 17.3125 11.828125 
Q 21.4375 6 27.484375 6 
Q 33.546875 6 37.671875 11.859375 
Q 41.796875 17.71875 41.796875 35.296875 
Q 41.796875 52.984375 37.671875 58.78125 
Q 33.546875 64.59375 27.390625 64.59375 
Q 21.34375 64.59375 17.71875 59.46875 
Q 13.1875 52.9375 13.1875 35.296875 
z
" id="ArialMT-48"/>
      </defs>
      <g transform="translate(53.663856 179.546212)scale(0.07497 -0.07497)">
       <use xlink:href="#ArialMT-49"/>
       <use x="55.615234" xlink:href="#ArialMT-48"/>
      </g>
     </g>
    </g>
    <g id="xtick_2">
     <g id="line2d_2">
      <g>
       <use style="stroke:#000000;stroke-width:0.8;" x="85.111463" xlink:href="#mab41efd3b2" y="169.68"/>
      </g>
     </g>
     <g id="text_2">
      <!-- 20 -->
      <defs>
       <path d="M 50.34375 8.453125 
L 50.34375 0 
L 3.03125 0 
Q 2.9375 3.171875 4.046875 6.109375 
Q 5.859375 10.9375 9.828125 15.625 
Q 13.8125 20.3125 21.34375 26.46875 
Q 33.015625 36.03125 37.109375 41.625 
Q 41.21875 47.21875 41.21875 52.203125 
Q 41.21875 57.421875 37.46875 61 
Q 33.734375 64.59375 27.734375 64.59375 
Q 21.390625 64.59375 17.578125 60.78125 
Q 13.765625 56.984375 13.71875 50.25 
L 4.6875 51.171875 
Q 5.609375 61.28125 11.65625 66.578125 
Q 17.71875 71.875 27.9375 71.875 
Q 38.234375 71.875 44.234375 66.15625 
Q 50.25 60.453125 50.25 52 
Q 50.25 47.703125 48.484375 43.546875 
Q 46.734375 39.40625 42.65625 34.8125 
Q 38.578125 30.21875 29.109375 22.21875 
Q 21.1875 15.578125 18.9375 13.203125 
Q 16.703125 10.84375 15.234375 8.453125 
z
" id="ArialMT-50"/>
      </defs>
      <g transform="translate(80.942428 179.546212)scale(0.07497 -0.07497)">
       <use xlink:href="#ArialMT-50"/>
       <use x="55.615234" xlink:href="#ArialMT-48"/>
      </g>
     </g>
    </g>
    <g id="xtick_3">
     <g id="line2d_3">
      <g>
       <use style="stroke:#000000;stroke-width:0.8;" x="112.390034" xlink:href="#mab41efd3b2" y="169.68"/>
      </g>
     </g>
     <g id="text_3">
      <!-- 30 -->
      <defs>
       <path d="M 4.203125 18.890625 
L 12.984375 20.0625 
Q 14.5 12.59375 18.140625 9.296875 
Q 21.78125 6 27 6 
Q 33.203125 6 37.46875 10.296875 
Q 41.75 14.59375 41.75 20.953125 
Q 41.75 27 37.796875 30.921875 
Q 33.84375 34.859375 27.734375 34.859375 
Q 25.25 34.859375 21.53125 33.890625 
L 22.515625 41.609375 
Q 23.390625 41.5 23.921875 41.5 
Q 29.546875 41.5 34.03125 44.421875 
Q 38.53125 47.359375 38.53125 53.46875 
Q 38.53125 58.296875 35.25 61.46875 
Q 31.984375 64.65625 26.8125 64.65625 
Q 21.6875 64.65625 18.265625 61.421875 
Q 14.84375 58.203125 13.875 51.765625 
L 5.078125 53.328125 
Q 6.6875 62.15625 12.390625 67.015625 
Q 18.109375 71.875 26.609375 71.875 
Q 32.46875 71.875 37.390625 69.359375 
Q 42.328125 66.84375 44.9375 62.5 
Q 47.5625 58.15625 47.5625 53.265625 
Q 47.5625 48.640625 45.0625 44.828125 
Q 42.578125 41.015625 37.703125 38.765625 
Q 44.046875 37.3125 47.5625 32.6875 
Q 51.078125 28.078125 51.078125 21.140625 
Q 51.078125 11.765625 44.234375 5.25 
Q 37.40625 -1.265625 26.953125 -1.265625 
Q 17.53125 -1.265625 11.296875 4.34375 
Q 5.078125 9.96875 4.203125 18.890625 
z
" id="ArialMT-51"/>
      </defs>
      <g transform="translate(108.220999 179.546212)scale(0.07497 -0.07497)">
       <use xlink:href="#ArialMT-51"/>
       <use x="55.615234" xlink:href="#ArialMT-48"/>
      </g>
     </g>
    </g>
    <g id="xtick_4">
     <g id="line2d_4">
      <g>
       <use style="stroke:#000000;stroke-width:0.8;" x="139.668606" xlink:href="#mab41efd3b2" y="169.68"/>
      </g>
     </g>
     <g id="text_4">
      <!-- 40 -->
      <defs>
       <path d="M 32.328125 0 
L 32.328125 17.140625 
L 1.265625 17.140625 
L 1.265625 25.203125 
L 33.9375 71.578125 
L 41.109375 71.578125 
L 41.109375 25.203125 
L 50.78125 25.203125 
L 50.78125 17.140625 
L 41.109375 17.140625 
L 41.109375 0 
z
M 32.328125 25.203125 
L 32.328125 57.46875 
L 9.90625 25.203125 
z
" id="ArialMT-52"/>
      </defs>
      <g transform="translate(135.499571 179.546212)scale(0.07497 -0.07497)">
       <use xlink:href="#ArialMT-52"/>
       <use x="55.615234" xlink:href="#ArialMT-48"/>
      </g>
     </g>
    </g>
    <g id="xtick_5">
     <g id="line2d_5">
      <g>
       <use style="stroke:#000000;stroke-width:0.8;" x="166.947177" xlink:href="#mab41efd3b2" y="169.68"/>
      </g>
     </g>
     <g id="text_5">
      <!-- 50 -->
      <defs>
       <path d="M 4.15625 18.75 
L 13.375 19.53125 
Q 14.40625 12.796875 18.140625 9.390625 
Q 21.875 6 27.15625 6 
Q 33.5 6 37.890625 10.78125 
Q 42.28125 15.578125 42.28125 23.484375 
Q 42.28125 31 38.0625 35.34375 
Q 33.84375 39.703125 27 39.703125 
Q 22.75 39.703125 19.328125 37.765625 
Q 15.921875 35.84375 13.96875 32.765625 
L 5.71875 33.84375 
L 12.640625 70.609375 
L 48.25 70.609375 
L 48.25 62.203125 
L 19.671875 62.203125 
L 15.828125 42.96875 
Q 22.265625 47.46875 29.34375 47.46875 
Q 38.71875 47.46875 45.15625 40.96875 
Q 51.609375 34.46875 51.609375 24.265625 
Q 51.609375 14.546875 45.953125 7.46875 
Q 39.0625 -1.21875 27.15625 -1.21875 
Q 17.390625 -1.21875 11.203125 4.25 
Q 5.03125 9.71875 4.15625 18.75 
z
" id="ArialMT-53"/>
      </defs>
      <g transform="translate(162.778142 179.546212)scale(0.07497 -0.07497)">
       <use xlink:href="#ArialMT-53"/>
       <use x="55.615234" xlink:href="#ArialMT-48"/>
      </g>
     </g>
    </g>
    <g id="xtick_6">
     <g id="line2d_6">
      <g>
       <use style="stroke:#000000;stroke-width:0.8;" x="194.225748" xlink:href="#mab41efd3b2" y="169.68"/>
      </g>
     </g>
     <g id="text_6">
      <!-- 60 -->
      <defs>
       <path d="M 49.75 54.046875 
L 41.015625 53.375 
Q 39.84375 58.546875 37.703125 60.890625 
Q 34.125 64.65625 28.90625 64.65625 
Q 24.703125 64.65625 21.53125 62.3125 
Q 17.390625 59.28125 14.984375 53.46875 
Q 12.59375 47.65625 12.5 36.921875 
Q 15.671875 41.75 20.265625 44.09375 
Q 24.859375 46.4375 29.890625 46.4375 
Q 38.671875 46.4375 44.84375 39.96875 
Q 51.03125 33.5 51.03125 23.25 
Q 51.03125 16.5 48.125 10.71875 
Q 45.21875 4.9375 40.140625 1.859375 
Q 35.0625 -1.21875 28.609375 -1.21875 
Q 17.625 -1.21875 10.6875 6.859375 
Q 3.765625 14.9375 3.765625 33.5 
Q 3.765625 54.25 11.421875 63.671875 
Q 18.109375 71.875 29.4375 71.875 
Q 37.890625 71.875 43.28125 67.140625 
Q 48.6875 62.40625 49.75 54.046875 
z
M 13.875 23.1875 
Q 13.875 18.65625 15.796875 14.5 
Q 17.71875 10.359375 21.1875 8.171875 
Q 24.65625 6 28.46875 6 
Q 34.03125 6 38.03125 10.484375 
Q 42.046875 14.984375 42.046875 22.703125 
Q 42.046875 30.125 38.078125 34.390625 
Q 34.125 38.671875 28.125 38.671875 
Q 22.171875 38.671875 18.015625 34.390625 
Q 13.875 30.125 13.875 23.1875 
z
" id="ArialMT-54"/>
      </defs>
      <g transform="translate(190.056714 179.546212)scale(0.07497 -0.07497)">
       <use xlink:href="#ArialMT-54"/>
       <use x="55.615234" xlink:href="#ArialMT-48"/>
      </g>
     </g>
    </g>
    <g id="xtick_7">
     <g id="line2d_7">
      <g>
       <use style="stroke:#000000;stroke-width:0.8;" x="221.50432" xlink:href="#mab41efd3b2" y="169.68"/>
      </g>
     </g>
     <g id="text_7">
      <!-- 70 -->
      <defs>
       <path d="M 4.734375 62.203125 
L 4.734375 70.65625 
L 51.078125 70.65625 
L 51.078125 63.8125 
Q 44.234375 56.546875 37.515625 44.484375 
Q 30.8125 32.421875 27.15625 19.671875 
Q 24.515625 10.6875 23.78125 0 
L 14.75 0 
Q 14.890625 8.453125 18.0625 20.40625 
Q 21.234375 32.375 27.171875 43.484375 
Q 33.109375 54.59375 39.796875 62.203125 
z
" id="ArialMT-55"/>
      </defs>
      <g transform="translate(217.335285 179.546212)scale(0.07497 -0.07497)">
       <use xlink:href="#ArialMT-55"/>
       <use x="55.615234" xlink:href="#ArialMT-48"/>
      </g>
     </g>
    </g>
    <g id="text_8">
     <!-- Age in years (binned) -->
     <defs>
      <path d="M -0.140625 0 
L 27.34375 71.578125 
L 37.546875 71.578125 
L 66.84375 0 
L 56.0625 0 
L 47.703125 21.6875 
L 17.78125 21.6875 
L 9.90625 0 
z
M 20.515625 29.390625 
L 44.78125 29.390625 
L 37.3125 49.21875 
Q 33.890625 58.25 32.234375 64.0625 
Q 30.859375 57.171875 28.375 50.390625 
z
" id="ArialMT-65"/>
      <path d="M 4.984375 -4.296875 
L 13.53125 -5.5625 
Q 14.0625 -9.515625 16.5 -11.328125 
Q 19.78125 -13.765625 25.4375 -13.765625 
Q 31.546875 -13.765625 34.859375 -11.328125 
Q 38.1875 -8.890625 39.359375 -4.5 
Q 40.046875 -1.8125 39.984375 6.78125 
Q 34.234375 0 25.640625 0 
Q 14.9375 0 9.078125 7.71875 
Q 3.21875 15.4375 3.21875 26.21875 
Q 3.21875 33.640625 5.90625 39.90625 
Q 8.59375 46.1875 13.6875 49.609375 
Q 18.796875 53.03125 25.6875 53.03125 
Q 34.859375 53.03125 40.828125 45.609375 
L 40.828125 51.859375 
L 48.921875 51.859375 
L 48.921875 7.03125 
Q 48.921875 -5.078125 46.453125 -10.125 
Q 44 -15.1875 38.640625 -18.109375 
Q 33.296875 -21.046875 25.484375 -21.046875 
Q 16.21875 -21.046875 10.5 -16.875 
Q 4.78125 -12.703125 4.984375 -4.296875 
z
M 12.25 26.859375 
Q 12.25 16.65625 16.296875 11.96875 
Q 20.359375 7.28125 26.46875 7.28125 
Q 32.515625 7.28125 36.609375 11.9375 
Q 40.71875 16.609375 40.71875 26.5625 
Q 40.71875 36.078125 36.5 40.90625 
Q 32.28125 45.75 26.3125 45.75 
Q 20.453125 45.75 16.34375 40.984375 
Q 12.25 36.234375 12.25 26.859375 
z
" id="ArialMT-103"/>
      <path d="M 42.09375 16.703125 
L 51.171875 15.578125 
Q 49.03125 7.625 43.21875 3.21875 
Q 37.40625 -1.171875 28.375 -1.171875 
Q 17 -1.171875 10.328125 5.828125 
Q 3.65625 12.84375 3.65625 25.484375 
Q 3.65625 38.578125 10.390625 45.796875 
Q 17.140625 53.03125 27.875 53.03125 
Q 38.28125 53.03125 44.875 45.953125 
Q 51.46875 38.875 51.46875 26.03125 
Q 51.46875 25.25 51.421875 23.6875 
L 12.75 23.6875 
Q 13.234375 15.140625 17.578125 10.59375 
Q 21.921875 6.0625 28.421875 6.0625 
Q 33.25 6.0625 36.671875 8.59375 
Q 40.09375 11.140625 42.09375 16.703125 
z
M 13.234375 30.90625 
L 42.1875 30.90625 
Q 41.609375 37.453125 38.875 40.71875 
Q 34.671875 45.796875 27.984375 45.796875 
Q 21.921875 45.796875 17.796875 41.75 
Q 13.671875 37.703125 13.234375 30.90625 
z
" id="ArialMT-101"/>
      <path id="ArialMT-32"/>
      <path d="M 6.640625 61.46875 
L 6.640625 71.578125 
L 15.4375 71.578125 
L 15.4375 61.46875 
z
M 6.640625 0 
L 6.640625 51.859375 
L 15.4375 51.859375 
L 15.4375 0 
z
" id="ArialMT-105"/>
      <path d="M 6.59375 0 
L 6.59375 51.859375 
L 14.5 51.859375 
L 14.5 44.484375 
Q 20.21875 53.03125 31 53.03125 
Q 35.6875 53.03125 39.625 51.34375 
Q 43.5625 49.65625 45.515625 46.921875 
Q 47.46875 44.1875 48.25 40.4375 
Q 48.734375 37.984375 48.734375 31.890625 
L 48.734375 0 
L 39.9375 0 
L 39.9375 31.546875 
Q 39.9375 36.921875 38.90625 39.578125 
Q 37.890625 42.234375 35.28125 43.8125 
Q 32.671875 45.40625 29.15625 45.40625 
Q 23.53125 45.40625 19.453125 41.84375 
Q 15.375 38.28125 15.375 28.328125 
L 15.375 0 
z
" id="ArialMT-110"/>
      <path d="M 6.203125 -19.96875 
L 5.21875 -11.71875 
Q 8.109375 -12.5 10.25 -12.5 
Q 13.1875 -12.5 14.9375 -11.515625 
Q 16.703125 -10.546875 17.828125 -8.796875 
Q 18.65625 -7.46875 20.515625 -2.25 
Q 20.75 -1.515625 21.296875 -0.09375 
L 1.609375 51.859375 
L 11.078125 51.859375 
L 21.875 21.828125 
Q 23.96875 16.109375 25.640625 9.8125 
Q 27.15625 15.875 29.25 21.625 
L 40.328125 51.859375 
L 49.125 51.859375 
L 29.390625 -0.875 
Q 26.21875 -9.421875 24.46875 -12.640625 
Q 22.125 -17 19.09375 -19.015625 
Q 16.0625 -21.046875 11.859375 -21.046875 
Q 9.328125 -21.046875 6.203125 -19.96875 
z
" id="ArialMT-121"/>
      <path d="M 40.4375 6.390625 
Q 35.546875 2.25 31.03125 0.53125 
Q 26.515625 -1.171875 21.34375 -1.171875 
Q 12.796875 -1.171875 8.203125 3 
Q 3.609375 7.171875 3.609375 13.671875 
Q 3.609375 17.484375 5.34375 20.625 
Q 7.078125 23.78125 9.890625 25.6875 
Q 12.703125 27.59375 16.21875 28.5625 
Q 18.796875 29.25 24.03125 29.890625 
Q 34.671875 31.15625 39.703125 32.90625 
Q 39.75 34.71875 39.75 35.203125 
Q 39.75 40.578125 37.25 42.78125 
Q 33.890625 45.75 27.25 45.75 
Q 21.046875 45.75 18.09375 43.578125 
Q 15.140625 41.40625 13.71875 35.890625 
L 5.125 37.0625 
Q 6.296875 42.578125 8.984375 45.96875 
Q 11.671875 49.359375 16.75 51.1875 
Q 21.828125 53.03125 28.515625 53.03125 
Q 35.15625 53.03125 39.296875 51.46875 
Q 43.453125 49.90625 45.40625 47.53125 
Q 47.359375 45.171875 48.140625 41.546875 
Q 48.578125 39.3125 48.578125 33.453125 
L 48.578125 21.734375 
Q 48.578125 9.46875 49.140625 6.21875 
Q 49.703125 2.984375 51.375 0 
L 42.1875 0 
Q 40.828125 2.734375 40.4375 6.390625 
z
M 39.703125 26.03125 
Q 34.90625 24.078125 25.34375 22.703125 
Q 19.921875 21.921875 17.671875 20.9375 
Q 15.4375 19.96875 14.203125 18.09375 
Q 12.984375 16.21875 12.984375 13.921875 
Q 12.984375 10.40625 15.640625 8.0625 
Q 18.3125 5.71875 23.4375 5.71875 
Q 28.515625 5.71875 32.46875 7.9375 
Q 36.421875 10.15625 38.28125 14.015625 
Q 39.703125 17 39.703125 22.796875 
z
" id="ArialMT-97"/>
      <path d="M 6.5 0 
L 6.5 51.859375 
L 14.40625 51.859375 
L 14.40625 44 
Q 17.4375 49.515625 20 51.265625 
Q 22.5625 53.03125 25.640625 53.03125 
Q 30.078125 53.03125 34.671875 50.203125 
L 31.640625 42.046875 
Q 28.421875 43.953125 25.203125 43.953125 
Q 22.3125 43.953125 20.015625 42.21875 
Q 17.71875 40.484375 16.75 37.40625 
Q 15.28125 32.71875 15.28125 27.15625 
L 15.28125 0 
z
" id="ArialMT-114"/>
      <path d="M 3.078125 15.484375 
L 11.765625 16.84375 
Q 12.5 11.625 15.84375 8.84375 
Q 19.1875 6.0625 25.203125 6.0625 
Q 31.25 6.0625 34.171875 8.515625 
Q 37.109375 10.984375 37.109375 14.3125 
Q 37.109375 17.28125 34.515625 19 
Q 32.71875 20.171875 25.53125 21.96875 
Q 15.875 24.421875 12.140625 26.203125 
Q 8.40625 27.984375 6.46875 31.125 
Q 4.546875 34.28125 4.546875 38.09375 
Q 4.546875 41.546875 6.125 44.5 
Q 7.71875 47.46875 10.453125 49.421875 
Q 12.5 50.921875 16.03125 51.96875 
Q 19.578125 53.03125 23.640625 53.03125 
Q 29.734375 53.03125 34.34375 51.265625 
Q 38.96875 49.515625 41.15625 46.5 
Q 43.359375 43.5 44.1875 38.484375 
L 35.59375 37.3125 
Q 35.015625 41.3125 32.203125 43.546875 
Q 29.390625 45.796875 24.265625 45.796875 
Q 18.21875 45.796875 15.625 43.796875 
Q 13.03125 41.796875 13.03125 39.109375 
Q 13.03125 37.40625 14.109375 36.03125 
Q 15.1875 34.625 17.484375 33.6875 
Q 18.796875 33.203125 25.25 31.453125 
Q 34.578125 28.953125 38.25 27.359375 
Q 41.9375 25.78125 44.03125 22.75 
Q 46.140625 19.734375 46.140625 15.234375 
Q 46.140625 10.84375 43.578125 6.953125 
Q 41.015625 3.078125 36.171875 0.953125 
Q 31.34375 -1.171875 25.25 -1.171875 
Q 15.140625 -1.171875 9.84375 3.03125 
Q 4.546875 7.234375 3.078125 15.484375 
z
" id="ArialMT-115"/>
      <path d="M 23.390625 -21.046875 
Q 16.109375 -11.859375 11.078125 0.4375 
Q 6.0625 12.75 6.0625 25.921875 
Q 6.0625 37.546875 9.8125 48.1875 
Q 14.203125 60.546875 23.390625 72.796875 
L 29.6875 72.796875 
Q 23.78125 62.640625 21.875 58.296875 
Q 18.890625 51.5625 17.1875 44.234375 
Q 15.09375 35.109375 15.09375 25.875 
Q 15.09375 2.390625 29.6875 -21.046875 
z
" id="ArialMT-40"/>
      <path d="M 14.703125 0 
L 6.546875 0 
L 6.546875 71.578125 
L 15.328125 71.578125 
L 15.328125 46.046875 
Q 20.90625 53.03125 29.546875 53.03125 
Q 34.328125 53.03125 38.59375 51.09375 
Q 42.875 49.171875 45.625 45.671875 
Q 48.390625 42.1875 49.953125 37.25 
Q 51.515625 32.328125 51.515625 26.703125 
Q 51.515625 13.375 44.921875 6.09375 
Q 38.328125 -1.171875 29.109375 -1.171875 
Q 19.921875 -1.171875 14.703125 6.5 
z
M 14.59375 26.3125 
Q 14.59375 17 17.140625 12.84375 
Q 21.296875 6.0625 28.375 6.0625 
Q 34.125 6.0625 38.328125 11.0625 
Q 42.53125 16.0625 42.53125 25.984375 
Q 42.53125 36.140625 38.5 40.96875 
Q 34.46875 45.796875 28.765625 45.796875 
Q 23 45.796875 18.796875 40.796875 
Q 14.59375 35.796875 14.59375 26.3125 
z
" id="ArialMT-98"/>
      <path d="M 40.234375 0 
L 40.234375 6.546875 
Q 35.296875 -1.171875 25.734375 -1.171875 
Q 19.53125 -1.171875 14.328125 2.25 
Q 9.125 5.671875 6.265625 11.796875 
Q 3.421875 17.921875 3.421875 25.875 
Q 3.421875 33.640625 6 39.96875 
Q 8.59375 46.296875 13.765625 49.65625 
Q 18.953125 53.03125 25.34375 53.03125 
Q 30.03125 53.03125 33.6875 51.046875 
Q 37.359375 49.078125 39.65625 45.90625 
L 39.65625 71.578125 
L 48.390625 71.578125 
L 48.390625 0 
z
M 12.453125 25.875 
Q 12.453125 15.921875 16.640625 10.984375 
Q 20.84375 6.0625 26.5625 6.0625 
Q 32.328125 6.0625 36.34375 10.765625 
Q 40.375 15.484375 40.375 25.140625 
Q 40.375 35.796875 36.265625 40.765625 
Q 32.171875 45.75 26.171875 45.75 
Q 20.3125 45.75 16.375 40.96875 
Q 12.453125 36.1875 12.453125 25.875 
z
" id="ArialMT-100"/>
      <path d="M 12.359375 -21.046875 
L 6.0625 -21.046875 
Q 20.65625 2.390625 20.65625 25.875 
Q 20.65625 35.0625 18.5625 44.09375 
Q 16.890625 51.421875 13.921875 58.15625 
Q 12.015625 62.546875 6.0625 72.796875 
L 12.359375 72.796875 
Q 21.53125 60.546875 25.921875 48.1875 
Q 29.6875 37.546875 29.6875 25.921875 
Q 29.6875 12.75 24.625 0.4375 
Q 19.578125 -11.859375 12.359375 -21.046875 
z
" id="ArialMT-41"/>
     </defs>
     <g transform="translate(104.040285 187.993822)scale(0.07497 -0.07497)">
      <use xlink:href="#ArialMT-65"/>
      <use x="66.699219" xlink:href="#ArialMT-103"/>
      <use x="122.314453" xlink:href="#ArialMT-101"/>
      <use x="177.929688" xlink:href="#ArialMT-32"/>
      <use x="205.712891" xlink:href="#ArialMT-105"/>
      <use x="227.929688" xlink:href="#ArialMT-110"/>
      <use x="283.544922" xlink:href="#ArialMT-32"/>
      <use x="311.328125" xlink:href="#ArialMT-121"/>
      <use x="361.328125" xlink:href="#ArialMT-101"/>
      <use x="416.943359" xlink:href="#ArialMT-97"/>
      <use x="472.558594" xlink:href="#ArialMT-114"/>
      <use x="505.859375" xlink:href="#ArialMT-115"/>
      <use x="555.859375" xlink:href="#ArialMT-32"/>
      <use x="583.642578" xlink:href="#ArialMT-40"/>
      <use x="616.943359" xlink:href="#ArialMT-98"/>
      <use x="672.558594" xlink:href="#ArialMT-105"/>
      <use x="694.775391" xlink:href="#ArialMT-110"/>
      <use x="750.390625" xlink:href="#ArialMT-110"/>
      <use x="806.005859" xlink:href="#ArialMT-101"/>
      <use x="861.621094" xlink:href="#ArialMT-100"/>
      <use x="917.236328" xlink:href="#ArialMT-41"/>
     </g>
    </g>
   </g>
   <g id="matplotlib.axis_2">
    <g id="ytick_1">
     <g id="line2d_8">
      <defs>
       <path d="M 2 0 
L -2 -0 
" id="m1910c566ee" style="stroke:#000000;stroke-width:0.8;"/>
      </defs>
      <g>
       <use style="stroke:#000000;stroke-width:0.8;" x="34.646106" xlink:href="#m1910c566ee" y="169.68"/>
      </g>
     </g>
     <g id="text_9">
      <!-- 0.00 -->
      <defs>
       <path d="M 9.078125 0 
L 9.078125 10.015625 
L 19.09375 10.015625 
L 19.09375 0 
z
" id="ArialMT-46"/>
      </defs>
      <g transform="translate(15.556241 172.363106)scale(0.07497 -0.07497)">
       <use xlink:href="#ArialMT-48"/>
       <use x="55.615234" xlink:href="#ArialMT-46"/>
       <use x="83.398438" xlink:href="#ArialMT-48"/>
       <use x="139.013672" xlink:href="#ArialMT-48"/>
      </g>
     </g>
    </g>
    <g id="ytick_2">
     <g id="line2d_9">
      <g>
       <use style="stroke:#000000;stroke-width:0.8;" x="34.646106" xlink:href="#m1910c566ee" y="145.785882"/>
      </g>
     </g>
     <g id="text_10">
      <!-- 0.01 -->
      <g transform="translate(15.556241 148.468988)scale(0.07497 -0.07497)">
       <use xlink:href="#ArialMT-48"/>
       <use x="55.615234" xlink:href="#ArialMT-46"/>
       <use x="83.398438" xlink:href="#ArialMT-48"/>
       <use x="139.013672" xlink:href="#ArialMT-49"/>
      </g>
     </g>
    </g>
    <g id="ytick_3">
     <g id="line2d_10">
      <g>
       <use style="stroke:#000000;stroke-width:0.8;" x="34.646106" xlink:href="#m1910c566ee" y="121.891765"/>
      </g>
     </g>
     <g id="text_11">
      <!-- 0.02 -->
      <g transform="translate(15.556241 124.574871)scale(0.07497 -0.07497)">
       <use xlink:href="#ArialMT-48"/>
       <use x="55.615234" xlink:href="#ArialMT-46"/>
       <use x="83.398438" xlink:href="#ArialMT-48"/>
       <use x="139.013672" xlink:href="#ArialMT-50"/>
      </g>
     </g>
    </g>
    <g id="ytick_4">
     <g id="line2d_11">
      <g>
       <use style="stroke:#000000;stroke-width:0.8;" x="34.646106" xlink:href="#m1910c566ee" y="97.997647"/>
      </g>
     </g>
     <g id="text_12">
      <!-- 0.03 -->
      <g transform="translate(15.556241 100.680753)scale(0.07497 -0.07497)">
       <use xlink:href="#ArialMT-48"/>
       <use x="55.615234" xlink:href="#ArialMT-46"/>
       <use x="83.398438" xlink:href="#ArialMT-48"/>
       <use x="139.013672" xlink:href="#ArialMT-51"/>
      </g>
     </g>
    </g>
    <g id="ytick_5">
     <g id="line2d_12">
      <g>
       <use style="stroke:#000000;stroke-width:0.8;" x="34.646106" xlink:href="#m1910c566ee" y="74.103529"/>
      </g>
     </g>
     <g id="text_13">
      <!-- 0.04 -->
      <g transform="translate(15.556241 76.786635)scale(0.07497 -0.07497)">
       <use xlink:href="#ArialMT-48"/>
       <use x="55.615234" xlink:href="#ArialMT-46"/>
       <use x="83.398438" xlink:href="#ArialMT-48"/>
       <use x="139.013672" xlink:href="#ArialMT-52"/>
      </g>
     </g>
    </g>
    <g id="ytick_6">
     <g id="line2d_13">
      <g>
       <use style="stroke:#000000;stroke-width:0.8;" x="34.646106" xlink:href="#m1910c566ee" y="50.209412"/>
      </g>
     </g>
     <g id="text_14">
      <!-- 0.05 -->
      <g transform="translate(15.556241 52.892518)scale(0.07497 -0.07497)">
       <use xlink:href="#ArialMT-48"/>
       <use x="55.615234" xlink:href="#ArialMT-46"/>
       <use x="83.398438" xlink:href="#ArialMT-48"/>
       <use x="139.013672" xlink:href="#ArialMT-53"/>
      </g>
     </g>
    </g>
    <g id="ytick_7">
     <g id="line2d_14">
      <g>
       <use style="stroke:#000000;stroke-width:0.8;" x="34.646106" xlink:href="#m1910c566ee" y="26.315294"/>
      </g>
     </g>
     <g id="text_15">
      <!-- 0.06 -->
      <g transform="translate(15.556241 28.9984)scale(0.07497 -0.07497)">
       <use xlink:href="#ArialMT-48"/>
       <use x="55.615234" xlink:href="#ArialMT-46"/>
       <use x="83.398438" xlink:href="#ArialMT-48"/>
       <use x="139.013672" xlink:href="#ArialMT-54"/>
      </g>
     </g>
    </g>
    <g id="text_16">
     <!-- One insertion clones -->
     <defs>
      <path d="M 4.828125 34.859375 
Q 4.828125 52.6875 14.390625 62.765625 
Q 23.96875 72.859375 39.109375 72.859375 
Q 49.03125 72.859375 56.984375 68.109375 
Q 64.9375 63.375 69.109375 54.90625 
Q 73.296875 46.4375 73.296875 35.6875 
Q 73.296875 24.8125 68.890625 16.21875 
Q 64.5 7.625 56.4375 3.203125 
Q 48.390625 -1.21875 39.0625 -1.21875 
Q 28.953125 -1.21875 20.984375 3.65625 
Q 13.03125 8.546875 8.921875 16.984375 
Q 4.828125 25.4375 4.828125 34.859375 
z
M 14.59375 34.71875 
Q 14.59375 21.78125 21.546875 14.328125 
Q 28.515625 6.890625 39.015625 6.890625 
Q 49.703125 6.890625 56.609375 14.40625 
Q 63.53125 21.921875 63.53125 35.75 
Q 63.53125 44.484375 60.578125 51 
Q 57.625 57.515625 51.921875 61.109375 
Q 46.234375 64.703125 39.15625 64.703125 
Q 29.109375 64.703125 21.84375 57.78125 
Q 14.59375 50.875 14.59375 34.71875 
z
" id="ArialMT-79"/>
      <path d="M 25.78125 7.859375 
L 27.046875 0.09375 
Q 23.34375 -0.6875 20.40625 -0.6875 
Q 15.625 -0.6875 12.984375 0.828125 
Q 10.359375 2.34375 9.28125 4.8125 
Q 8.203125 7.28125 8.203125 15.1875 
L 8.203125 45.015625 
L 1.765625 45.015625 
L 1.765625 51.859375 
L 8.203125 51.859375 
L 8.203125 64.703125 
L 16.9375 69.96875 
L 16.9375 51.859375 
L 25.78125 51.859375 
L 25.78125 45.015625 
L 16.9375 45.015625 
L 16.9375 14.703125 
Q 16.9375 10.9375 17.40625 9.859375 
Q 17.875 8.796875 18.921875 8.15625 
Q 19.96875 7.515625 21.921875 7.515625 
Q 23.390625 7.515625 25.78125 7.859375 
z
" id="ArialMT-116"/>
      <path d="M 3.328125 25.921875 
Q 3.328125 40.328125 11.328125 47.265625 
Q 18.015625 53.03125 27.640625 53.03125 
Q 38.328125 53.03125 45.109375 46.015625 
Q 51.90625 39.015625 51.90625 26.65625 
Q 51.90625 16.65625 48.90625 10.90625 
Q 45.90625 5.171875 40.15625 2 
Q 34.421875 -1.171875 27.640625 -1.171875 
Q 16.75 -1.171875 10.03125 5.8125 
Q 3.328125 12.796875 3.328125 25.921875 
z
M 12.359375 25.921875 
Q 12.359375 15.96875 16.703125 11.015625 
Q 21.046875 6.0625 27.640625 6.0625 
Q 34.1875 6.0625 38.53125 11.03125 
Q 42.875 16.015625 42.875 26.21875 
Q 42.875 35.84375 38.5 40.796875 
Q 34.125 45.75 27.640625 45.75 
Q 21.046875 45.75 16.703125 40.8125 
Q 12.359375 35.890625 12.359375 25.921875 
z
" id="ArialMT-111"/>
      <path d="M 40.4375 19 
L 49.078125 17.875 
Q 47.65625 8.9375 41.8125 3.875 
Q 35.984375 -1.171875 27.484375 -1.171875 
Q 16.84375 -1.171875 10.375 5.78125 
Q 3.90625 12.75 3.90625 25.734375 
Q 3.90625 34.125 6.6875 40.421875 
Q 9.46875 46.734375 15.15625 49.875 
Q 20.84375 53.03125 27.546875 53.03125 
Q 35.984375 53.03125 41.359375 48.75 
Q 46.734375 44.484375 48.25 36.625 
L 39.703125 35.296875 
Q 38.484375 40.53125 35.375 43.15625 
Q 32.28125 45.796875 27.875 45.796875 
Q 21.234375 45.796875 17.078125 41.03125 
Q 12.9375 36.28125 12.9375 25.984375 
Q 12.9375 15.53125 16.9375 10.796875 
Q 20.953125 6.0625 27.390625 6.0625 
Q 32.5625 6.0625 36.03125 9.234375 
Q 39.5 12.40625 40.4375 19 
z
" id="ArialMT-99"/>
      <path d="M 6.390625 0 
L 6.390625 71.578125 
L 15.1875 71.578125 
L 15.1875 0 
z
" id="ArialMT-108"/>
     </defs>
     <g transform="translate(12.566212 122.60992)rotate(-90)scale(0.07497 -0.07497)">
      <use xlink:href="#ArialMT-79"/>
      <use x="77.783203" xlink:href="#ArialMT-110"/>
      <use x="133.398438" xlink:href="#ArialMT-101"/>
      <use x="189.013672" xlink:href="#ArialMT-32"/>
      <use x="216.796875" xlink:href="#ArialMT-105"/>
      <use x="239.013672" xlink:href="#ArialMT-110"/>
      <use x="294.628906" xlink:href="#ArialMT-115"/>
      <use x="344.628906" xlink:href="#ArialMT-101"/>
      <use x="400.244141" xlink:href="#ArialMT-114"/>
      <use x="433.544922" xlink:href="#ArialMT-116"/>
      <use x="461.328125" xlink:href="#ArialMT-105"/>
      <use x="483.544922" xlink:href="#ArialMT-111"/>
      <use x="539.160156" xlink:href="#ArialMT-110"/>
      <use x="594.775391" xlink:href="#ArialMT-32"/>
      <use x="622.558594" xlink:href="#ArialMT-99"/>
      <use x="672.558594" xlink:href="#ArialMT-108"/>
      <use x="694.775391" xlink:href="#ArialMT-111"/>
      <use x="750.390625" xlink:href="#ArialMT-110"/>
      <use x="806.005859" xlink:href="#ArialMT-101"/>
      <use x="861.621094" xlink:href="#ArialMT-115"/>
     </g>
    </g>
   </g>
   <g id="PolyCollection_1">
    <path clip-path="url(#pbca67a264c)" d="M 44.193606 43.874659 
L 44.193606 64.150342 
L 71.472177 61.595109 
L 98.750748 62.570016 
L 126.02932 69.961041 
L 153.307891 79.885595 
L 180.586463 82.041291 
L 207.865034 88.933323 
L 235.143606 101.392075 
L 235.143606 91.486177 
L 235.143606 91.486177 
L 207.865034 82.702288 
L 180.586463 76.269243 
L 153.307891 74.996356 
L 126.02932 64.966661 
L 98.750748 57.182661 
L 71.472177 46.804901 
L 44.193606 43.874659 
z
" style="fill:#472d7b;fill-opacity:0.5;"/>
   </g>
   <g id="PolyCollection_2">
    <path clip-path="url(#pbca67a264c)" d="M 44.193606 35.975062 
L 44.193606 52.873978 
L 71.472177 75.430527 
L 98.750748 76.04559 
L 126.02932 80.780529 
L 153.307891 86.335821 
L 180.586463 89.614252 
L 207.865034 91.089518 
L 235.143606 101.579753 
L 235.143606 85.813659 
L 235.143606 85.813659 
L 207.865034 83.323992 
L 180.586463 84.904447 
L 153.307891 82.312045 
L 126.02932 76.529051 
L 98.750748 71.738029 
L 71.472177 64.624421 
L 44.193606 35.975062 
z
" style="fill:#3b528b;fill-opacity:0.5;"/>
   </g>
   <g id="PolyCollection_3">
    <path clip-path="url(#pbca67a264c)" d="M 44.193606 33.615352 
L 44.193606 50.706382 
L 71.472177 73.516099 
L 98.750748 81.887334 
L 126.02932 87.418102 
L 153.307891 87.797936 
L 180.586463 94.368652 
L 207.865034 97.414026 
L 235.143606 96.355634 
L 235.143606 88.648366 
L 235.143606 88.648366 
L 207.865034 91.644266 
L 180.586463 90.832123 
L 153.307891 84.674064 
L 126.02932 84.390494 
L 98.750748 78.841453 
L 71.472177 64.852206 
L 44.193606 33.615352 
z
" style="fill:#2c728e;fill-opacity:0.5;"/>
   </g>
   <g id="PolyCollection_4">
    <path clip-path="url(#pbca67a264c)" d="M 44.193606 47.278467 
L 44.193606 57.835341 
L 71.472177 76.428955 
L 98.750748 82.319192 
L 126.02932 89.830716 
L 153.307891 93.954231 
L 180.586463 98.372919 
L 207.865034 99.208497 
L 235.143606 98.791514 
L 235.143606 93.380722 
L 235.143606 93.380722 
L 207.865034 94.988315 
L 180.586463 95.954472 
L 153.307891 92.003191 
L 126.02932 87.62361 
L 98.750748 80.103355 
L 71.472177 69.388692 
L 44.193606 47.278467 
z
" style="fill:#21918c;fill-opacity:0.5;"/>
   </g>
   <g id="PolyCollection_5">
    <path clip-path="url(#pbca67a264c)" d="M 44.193606 60.524512 
L 44.193606 69.12059 
L 71.472177 79.608821 
L 98.750748 81.458062 
L 126.02932 87.83085 
L 153.307891 90.248608 
L 180.586463 93.562898 
L 207.865034 99.418334 
L 235.143606 99.55146 
L 235.143606 94.532305 
L 235.143606 94.532305 
L 207.865034 95.035404 
L 180.586463 91.109396 
L 153.307891 88.159964 
L 126.02932 85.739733 
L 98.750748 79.282822 
L 71.472177 73.658169 
L 44.193606 60.524512 
z
" style="fill:#27ad81;fill-opacity:0.5;"/>
   </g>
   <g id="PolyCollection_6">
    <path clip-path="url(#pbca67a264c)" d="M 44.193606 83.261293 
L 44.193606 89.544131 
L 71.472177 93.601413 
L 98.750748 89.098887 
L 126.02932 91.511131 
L 153.307891 94.518779 
L 180.586463 95.814979 
L 207.865034 98.283459 
L 235.143606 96.45115 
L 235.143606 93.809556 
L 235.143606 93.809556 
L 207.865034 94.859957 
L 180.586463 93.821669 
L 153.307891 92.794645 
L 126.02932 89.471084 
L 98.750748 86.586407 
L 71.472177 88.268241 
L 44.193606 83.261293 
z
" style="fill:#5cc863;fill-opacity:0.5;"/>
   </g>
   <g id="PolyCollection_7">
    <path clip-path="url(#pbca67a264c)" d="M 44.193606 89.676702 
L 44.193606 93.323545 
L 71.472177 96.686724 
L 98.750748 97.60209 
L 126.02932 98.812904 
L 153.307891 100.478989 
L 180.586463 100.491025 
L 207.865034 103.857633 
L 235.143606 102.480353 
L 235.143606 100.03007 
L 235.143606 100.03007 
L 207.865034 101.456331 
L 180.586463 99.177859 
L 153.307891 99.465373 
L 126.02932 97.232858 
L 98.750748 95.70368 
L 71.472177 92.468293 
L 44.193606 89.676702 
z
" style="fill:#aadc32;fill-opacity:0.5;"/>
   </g>
   <g id="PolyCollection_8">
    <path clip-path="url(#pbca67a264c)" d="M 44.193606 102.295715 
L 44.193606 105.445424 
L 71.472177 104.29084 
L 98.750748 105.398542 
L 126.02932 105.474618 
L 153.307891 104.886078 
L 180.586463 105.875594 
L 207.865034 107.210364 
L 235.143606 110.569191 
L 235.143606 106.271332 
L 235.143606 106.271332 
L 207.865034 105.208101 
L 180.586463 104.844643 
L 153.307891 104.103995 
L 126.02932 104.635995 
L 98.750748 104.304243 
L 71.472177 102.659756 
L 44.193606 102.295715 
z
" style="fill:#fde725;fill-opacity:0.5;"/>
   </g>
   <g id="line2d_15">
    <path clip-path="url(#pbca67a264c)" d="M 44.193606 54.012501 
L 71.472177 54.200005 
L 98.750748 59.876339 
L 126.02932 67.463851 
L 153.307891 77.440976 
L 180.586463 79.155267 
L 207.865034 85.817806 
L 235.143606 96.439126 
" style="fill:none;stroke:#472d7b;stroke-linecap:round;stroke-width:1.3;"/>
    <defs>
     <path d="M 0 1.25 
C 0.331504 1.25 0.649475 1.118292 0.883883 0.883883 
C 1.118292 0.649475 1.25 0.331504 1.25 0 
C 1.25 -0.331504 1.118292 -0.649475 0.883883 -0.883883 
C 0.649475 -1.118292 0.331504 -1.25 0 -1.25 
C -0.331504 -1.25 -0.649475 -1.118292 -0.883883 -0.883883 
C -1.118292 -0.649475 -1.25 -0.331504 -1.25 0 
C -1.25 0.331504 -1.118292 0.649475 -0.883883 0.883883 
C -0.649475 1.118292 -0.331504 1.25 0 1.25 
z
" id="me8590b0a1c" style="stroke:#472d7b;stroke-width:0.8;"/>
    </defs>
    <g clip-path="url(#pbca67a264c)">
     <use style="fill:#472d7b;stroke:#472d7b;stroke-width:0.8;" x="44.193606" xlink:href="#me8590b0a1c" y="54.012501"/>
     <use style="fill:#472d7b;stroke:#472d7b;stroke-width:0.8;" x="71.472177" xlink:href="#me8590b0a1c" y="54.200005"/>
     <use style="fill:#472d7b;stroke:#472d7b;stroke-width:0.8;" x="98.750748" xlink:href="#me8590b0a1c" y="59.876339"/>
     <use style="fill:#472d7b;stroke:#472d7b;stroke-width:0.8;" x="126.02932" xlink:href="#me8590b0a1c" y="67.463851"/>
     <use style="fill:#472d7b;stroke:#472d7b;stroke-width:0.8;" x="153.307891" xlink:href="#me8590b0a1c" y="77.440976"/>
     <use style="fill:#472d7b;stroke:#472d7b;stroke-width:0.8;" x="180.586463" xlink:href="#me8590b0a1c" y="79.155267"/>
     <use style="fill:#472d7b;stroke:#472d7b;stroke-width:0.8;" x="207.865034" xlink:href="#me8590b0a1c" y="85.817806"/>
     <use style="fill:#472d7b;stroke:#472d7b;stroke-width:0.8;" x="235.143606" xlink:href="#me8590b0a1c" y="96.439126"/>
    </g>
   </g>
   <g id="line2d_16">
    <path clip-path="url(#pbca67a264c)" d="M 44.193606 44.42452 
L 71.472177 70.027474 
L 98.750748 73.891809 
L 126.02932 78.65479 
L 153.307891 84.323933 
L 180.586463 87.259349 
L 207.865034 87.206755 
L 235.143606 93.696706 
" style="fill:none;stroke:#3b528b;stroke-linecap:round;stroke-width:1.3;"/>
    <defs>
     <path d="M 0 1.25 
C 0.331504 1.25 0.649475 1.118292 0.883883 0.883883 
C 1.118292 0.649475 1.25 0.331504 1.25 0 
C 1.25 -0.331504 1.118292 -0.649475 0.883883 -0.883883 
C 0.649475 -1.118292 0.331504 -1.25 0 -1.25 
C -0.331504 -1.25 -0.649475 -1.118292 -0.883883 -0.883883 
C -1.118292 -0.649475 -1.25 -0.331504 -1.25 0 
C -1.25 0.331504 -1.118292 0.649475 -0.883883 0.883883 
C -0.649475 1.118292 -0.331504 1.25 0 1.25 
z
" id="m8b1e04240b" style="stroke:#3b528b;stroke-width:0.8;"/>
    </defs>
    <g clip-path="url(#pbca67a264c)">
     <use style="fill:#3b528b;stroke:#3b528b;stroke-width:0.8;" x="44.193606" xlink:href="#m8b1e04240b" y="44.42452"/>
     <use style="fill:#3b528b;stroke:#3b528b;stroke-width:0.8;" x="71.472177" xlink:href="#m8b1e04240b" y="70.027474"/>
     <use style="fill:#3b528b;stroke:#3b528b;stroke-width:0.8;" x="98.750748" xlink:href="#m8b1e04240b" y="73.891809"/>
     <use style="fill:#3b528b;stroke:#3b528b;stroke-width:0.8;" x="126.02932" xlink:href="#m8b1e04240b" y="78.65479"/>
     <use style="fill:#3b528b;stroke:#3b528b;stroke-width:0.8;" x="153.307891" xlink:href="#m8b1e04240b" y="84.323933"/>
     <use style="fill:#3b528b;stroke:#3b528b;stroke-width:0.8;" x="180.586463" xlink:href="#m8b1e04240b" y="87.259349"/>
     <use style="fill:#3b528b;stroke:#3b528b;stroke-width:0.8;" x="207.865034" xlink:href="#m8b1e04240b" y="87.206755"/>
     <use style="fill:#3b528b;stroke:#3b528b;stroke-width:0.8;" x="235.143606" xlink:href="#m8b1e04240b" y="93.696706"/>
    </g>
   </g>
   <g id="line2d_17">
    <path clip-path="url(#pbca67a264c)" d="M 44.193606 42.160867 
L 71.472177 69.184152 
L 98.750748 80.364393 
L 126.02932 85.904298 
L 153.307891 86.236 
L 180.586463 92.600388 
L 207.865034 94.529146 
L 235.143606 92.502 
" style="fill:none;stroke:#2c728e;stroke-linecap:round;stroke-width:1.3;"/>
    <defs>
     <path d="M 0 1.25 
C 0.331504 1.25 0.649475 1.118292 0.883883 0.883883 
C 1.118292 0.649475 1.25 0.331504 1.25 0 
C 1.25 -0.331504 1.118292 -0.649475 0.883883 -0.883883 
C 0.649475 -1.118292 0.331504 -1.25 0 -1.25 
C -0.331504 -1.25 -0.649475 -1.118292 -0.883883 -0.883883 
C -1.118292 -0.649475 -1.25 -0.331504 -1.25 0 
C -1.25 0.331504 -1.118292 0.649475 -0.883883 0.883883 
C -0.649475 1.118292 -0.331504 1.25 0 1.25 
z
" id="m5049096644" style="stroke:#2c728e;stroke-width:0.8;"/>
    </defs>
    <g clip-path="url(#pbca67a264c)">
     <use style="fill:#2c728e;stroke:#2c728e;stroke-width:0.8;" x="44.193606" xlink:href="#m5049096644" y="42.160867"/>
     <use style="fill:#2c728e;stroke:#2c728e;stroke-width:0.8;" x="71.472177" xlink:href="#m5049096644" y="69.184152"/>
     <use style="fill:#2c728e;stroke:#2c728e;stroke-width:0.8;" x="98.750748" xlink:href="#m5049096644" y="80.364393"/>
     <use style="fill:#2c728e;stroke:#2c728e;stroke-width:0.8;" x="126.02932" xlink:href="#m5049096644" y="85.904298"/>
     <use style="fill:#2c728e;stroke:#2c728e;stroke-width:0.8;" x="153.307891" xlink:href="#m5049096644" y="86.236"/>
     <use style="fill:#2c728e;stroke:#2c728e;stroke-width:0.8;" x="180.586463" xlink:href="#m5049096644" y="92.600388"/>
     <use style="fill:#2c728e;stroke:#2c728e;stroke-width:0.8;" x="207.865034" xlink:href="#m5049096644" y="94.529146"/>
     <use style="fill:#2c728e;stroke:#2c728e;stroke-width:0.8;" x="235.143606" xlink:href="#m5049096644" y="92.502"/>
    </g>
   </g>
   <g id="line2d_18">
    <path clip-path="url(#pbca67a264c)" d="M 44.193606 52.556904 
L 71.472177 72.908824 
L 98.750748 81.211273 
L 126.02932 88.727163 
L 153.307891 92.978711 
L 180.586463 97.163696 
L 207.865034 97.098406 
L 235.143606 96.086118 
" style="fill:none;stroke:#21918c;stroke-linecap:round;stroke-width:1.3;"/>
    <defs>
     <path d="M 0 1.25 
C 0.331504 1.25 0.649475 1.118292 0.883883 0.883883 
C 1.118292 0.649475 1.25 0.331504 1.25 0 
C 1.25 -0.331504 1.118292 -0.649475 0.883883 -0.883883 
C 0.649475 -1.118292 0.331504 -1.25 0 -1.25 
C -0.331504 -1.25 -0.649475 -1.118292 -0.883883 -0.883883 
C -1.118292 -0.649475 -1.25 -0.331504 -1.25 0 
C -1.25 0.331504 -1.118292 0.649475 -0.883883 0.883883 
C -0.649475 1.118292 -0.331504 1.25 0 1.25 
z
" id="m1c9e0be66b" style="stroke:#21918c;stroke-width:0.8;"/>
    </defs>
    <g clip-path="url(#pbca67a264c)">
     <use style="fill:#21918c;stroke:#21918c;stroke-width:0.8;" x="44.193606" xlink:href="#m1c9e0be66b" y="52.556904"/>
     <use style="fill:#21918c;stroke:#21918c;stroke-width:0.8;" x="71.472177" xlink:href="#m1c9e0be66b" y="72.908824"/>
     <use style="fill:#21918c;stroke:#21918c;stroke-width:0.8;" x="98.750748" xlink:href="#m1c9e0be66b" y="81.211273"/>
     <use style="fill:#21918c;stroke:#21918c;stroke-width:0.8;" x="126.02932" xlink:href="#m1c9e0be66b" y="88.727163"/>
     <use style="fill:#21918c;stroke:#21918c;stroke-width:0.8;" x="153.307891" xlink:href="#m1c9e0be66b" y="92.978711"/>
     <use style="fill:#21918c;stroke:#21918c;stroke-width:0.8;" x="180.586463" xlink:href="#m1c9e0be66b" y="97.163696"/>
     <use style="fill:#21918c;stroke:#21918c;stroke-width:0.8;" x="207.865034" xlink:href="#m1c9e0be66b" y="97.098406"/>
     <use style="fill:#21918c;stroke:#21918c;stroke-width:0.8;" x="235.143606" xlink:href="#m1c9e0be66b" y="96.086118"/>
    </g>
   </g>
   <g id="line2d_19">
    <path clip-path="url(#pbca67a264c)" d="M 44.193606 64.822551 
L 71.472177 76.633495 
L 98.750748 80.370442 
L 126.02932 86.785292 
L 153.307891 89.204286 
L 180.586463 92.336147 
L 207.865034 97.226869 
L 235.143606 97.041882 
" style="fill:none;stroke:#27ad81;stroke-linecap:round;stroke-width:1.3;"/>
    <defs>
     <path d="M 0 1.25 
C 0.331504 1.25 0.649475 1.118292 0.883883 0.883883 
C 1.118292 0.649475 1.25 0.331504 1.25 0 
C 1.25 -0.331504 1.118292 -0.649475 0.883883 -0.883883 
C 0.649475 -1.118292 0.331504 -1.25 0 -1.25 
C -0.331504 -1.25 -0.649475 -1.118292 -0.883883 -0.883883 
C -1.118292 -0.649475 -1.25 -0.331504 -1.25 0 
C -1.25 0.331504 -1.118292 0.649475 -0.883883 0.883883 
C -0.649475 1.118292 -0.331504 1.25 0 1.25 
z
" id="m802d6ae24a" style="stroke:#27ad81;stroke-width:0.8;"/>
    </defs>
    <g clip-path="url(#pbca67a264c)">
     <use style="fill:#27ad81;stroke:#27ad81;stroke-width:0.8;" x="44.193606" xlink:href="#m802d6ae24a" y="64.822551"/>
     <use style="fill:#27ad81;stroke:#27ad81;stroke-width:0.8;" x="71.472177" xlink:href="#m802d6ae24a" y="76.633495"/>
     <use style="fill:#27ad81;stroke:#27ad81;stroke-width:0.8;" x="98.750748" xlink:href="#m802d6ae24a" y="80.370442"/>
     <use style="fill:#27ad81;stroke:#27ad81;stroke-width:0.8;" x="126.02932" xlink:href="#m802d6ae24a" y="86.785292"/>
     <use style="fill:#27ad81;stroke:#27ad81;stroke-width:0.8;" x="153.307891" xlink:href="#m802d6ae24a" y="89.204286"/>
     <use style="fill:#27ad81;stroke:#27ad81;stroke-width:0.8;" x="180.586463" xlink:href="#m802d6ae24a" y="92.336147"/>
     <use style="fill:#27ad81;stroke:#27ad81;stroke-width:0.8;" x="207.865034" xlink:href="#m802d6ae24a" y="97.226869"/>
     <use style="fill:#27ad81;stroke:#27ad81;stroke-width:0.8;" x="235.143606" xlink:href="#m802d6ae24a" y="97.041882"/>
    </g>
   </g>
   <g id="line2d_20">
    <path clip-path="url(#pbca67a264c)" d="M 44.193606 86.402712 
L 71.472177 90.934827 
L 98.750748 87.842647 
L 126.02932 90.491108 
L 153.307891 93.656712 
L 180.586463 94.818324 
L 207.865034 96.571708 
L 235.143606 95.130353 
" style="fill:none;stroke:#5cc863;stroke-linecap:round;stroke-width:1.3;"/>
    <defs>
     <path d="M 0 1.25 
C 0.331504 1.25 0.649475 1.118292 0.883883 0.883883 
C 1.118292 0.649475 1.25 0.331504 1.25 0 
C 1.25 -0.331504 1.118292 -0.649475 0.883883 -0.883883 
C 0.649475 -1.118292 0.331504 -1.25 0 -1.25 
C -0.331504 -1.25 -0.649475 -1.118292 -0.883883 -0.883883 
C -1.118292 -0.649475 -1.25 -0.331504 -1.25 0 
C -1.25 0.331504 -1.118292 0.649475 -0.883883 0.883883 
C -0.649475 1.118292 -0.331504 1.25 0 1.25 
z
" id="m7c5ca4d15b" style="stroke:#5cc863;stroke-width:0.8;"/>
    </defs>
    <g clip-path="url(#pbca67a264c)">
     <use style="fill:#5cc863;stroke:#5cc863;stroke-width:0.8;" x="44.193606" xlink:href="#m7c5ca4d15b" y="86.402712"/>
     <use style="fill:#5cc863;stroke:#5cc863;stroke-width:0.8;" x="71.472177" xlink:href="#m7c5ca4d15b" y="90.934827"/>
     <use style="fill:#5cc863;stroke:#5cc863;stroke-width:0.8;" x="98.750748" xlink:href="#m7c5ca4d15b" y="87.842647"/>
     <use style="fill:#5cc863;stroke:#5cc863;stroke-width:0.8;" x="126.02932" xlink:href="#m7c5ca4d15b" y="90.491108"/>
     <use style="fill:#5cc863;stroke:#5cc863;stroke-width:0.8;" x="153.307891" xlink:href="#m7c5ca4d15b" y="93.656712"/>
     <use style="fill:#5cc863;stroke:#5cc863;stroke-width:0.8;" x="180.586463" xlink:href="#m7c5ca4d15b" y="94.818324"/>
     <use style="fill:#5cc863;stroke:#5cc863;stroke-width:0.8;" x="207.865034" xlink:href="#m7c5ca4d15b" y="96.571708"/>
     <use style="fill:#5cc863;stroke:#5cc863;stroke-width:0.8;" x="235.143606" xlink:href="#m7c5ca4d15b" y="95.130353"/>
    </g>
   </g>
   <g id="line2d_21">
    <path clip-path="url(#pbca67a264c)" d="M 44.193606 91.500124 
L 71.472177 94.577509 
L 98.750748 96.652885 
L 126.02932 98.022881 
L 153.307891 99.972181 
L 180.586463 99.834442 
L 207.865034 102.656982 
L 235.143606 101.255212 
" style="fill:none;stroke:#aadc32;stroke-linecap:round;stroke-width:1.3;"/>
    <defs>
     <path d="M 0 1.25 
C 0.331504 1.25 0.649475 1.118292 0.883883 0.883883 
C 1.118292 0.649475 1.25 0.331504 1.25 0 
C 1.25 -0.331504 1.118292 -0.649475 0.883883 -0.883883 
C 0.649475 -1.118292 0.331504 -1.25 0 -1.25 
C -0.331504 -1.25 -0.649475 -1.118292 -0.883883 -0.883883 
C -1.118292 -0.649475 -1.25 -0.331504 -1.25 0 
C -1.25 0.331504 -1.118292 0.649475 -0.883883 0.883883 
C -0.649475 1.118292 -0.331504 1.25 0 1.25 
z
" id="m5a0afd3f10" style="stroke:#aadc32;stroke-width:0.8;"/>
    </defs>
    <g clip-path="url(#pbca67a264c)">
     <use style="fill:#aadc32;stroke:#aadc32;stroke-width:0.8;" x="44.193606" xlink:href="#m5a0afd3f10" y="91.500124"/>
     <use style="fill:#aadc32;stroke:#aadc32;stroke-width:0.8;" x="71.472177" xlink:href="#m5a0afd3f10" y="94.577509"/>
     <use style="fill:#aadc32;stroke:#aadc32;stroke-width:0.8;" x="98.750748" xlink:href="#m5a0afd3f10" y="96.652885"/>
     <use style="fill:#aadc32;stroke:#aadc32;stroke-width:0.8;" x="126.02932" xlink:href="#m5a0afd3f10" y="98.022881"/>
     <use style="fill:#aadc32;stroke:#aadc32;stroke-width:0.8;" x="153.307891" xlink:href="#m5a0afd3f10" y="99.972181"/>
     <use style="fill:#aadc32;stroke:#aadc32;stroke-width:0.8;" x="180.586463" xlink:href="#m5a0afd3f10" y="99.834442"/>
     <use style="fill:#aadc32;stroke:#aadc32;stroke-width:0.8;" x="207.865034" xlink:href="#m5a0afd3f10" y="102.656982"/>
     <use style="fill:#aadc32;stroke:#aadc32;stroke-width:0.8;" x="235.143606" xlink:href="#m5a0afd3f10" y="101.255212"/>
    </g>
   </g>
   <g id="line2d_22">
    <path clip-path="url(#pbca67a264c)" d="M 44.193606 103.87057 
L 71.472177 103.475298 
L 98.750748 104.851393 
L 126.02932 105.055306 
L 153.307891 104.495037 
L 180.586463 105.360119 
L 207.865034 106.209232 
L 235.143606 108.420261 
" style="fill:none;stroke:#fde725;stroke-linecap:round;stroke-width:1.3;"/>
    <defs>
     <path d="M 0 1.25 
C 0.331504 1.25 0.649475 1.118292 0.883883 0.883883 
C 1.118292 0.649475 1.25 0.331504 1.25 0 
C 1.25 -0.331504 1.118292 -0.649475 0.883883 -0.883883 
C 0.649475 -1.118292 0.331504 -1.25 0 -1.25 
C -0.331504 -1.25 -0.649475 -1.118292 -0.883883 -0.883883 
C -1.118292 -0.649475 -1.25 -0.331504 -1.25 0 
C -1.25 0.331504 -1.118292 0.649475 -0.883883 0.883883 
C -0.649475 1.118292 -0.331504 1.25 0 1.25 
z
" id="m705e18e884" style="stroke:#fde725;stroke-width:0.8;"/>
    </defs>
    <g clip-path="url(#pbca67a264c)">
     <use style="fill:#fde725;stroke:#fde725;stroke-width:0.8;" x="44.193606" xlink:href="#m705e18e884" y="103.87057"/>
     <use style="fill:#fde725;stroke:#fde725;stroke-width:0.8;" x="71.472177" xlink:href="#m705e18e884" y="103.475298"/>
     <use style="fill:#fde725;stroke:#fde725;stroke-width:0.8;" x="98.750748" xlink:href="#m705e18e884" y="104.851393"/>
     <use style="fill:#fde725;stroke:#fde725;stroke-width:0.8;" x="126.02932" xlink:href="#m705e18e884" y="105.055306"/>
     <use style="fill:#fde725;stroke:#fde725;stroke-width:0.8;" x="153.307891" xlink:href="#m705e18e884" y="104.495037"/>
     <use style="fill:#fde725;stroke:#fde725;stroke-width:0.8;" x="180.586463" xlink:href="#m705e18e884" y="105.360119"/>
     <use style="fill:#fde725;stroke:#fde725;stroke-width:0.8;" x="207.865034" xlink:href="#m705e18e884" y="106.209232"/>
     <use style="fill:#fde725;stroke:#fde725;stroke-width:0.8;" x="235.143606" xlink:href="#m705e18e884" y="108.420261"/>
    </g>
   </g>
   <g id="patch_3">
    <path d="M 34.646106 169.68 
L 34.646106 7.2 
" style="fill:none;stroke:#000000;stroke-linecap:square;stroke-linejoin:miter;"/>
   </g>
   <g id="patch_4">
    <path d="M 34.646106 169.68 
L 244.691106 169.68 
" style="fill:none;stroke:#000000;stroke-linecap:square;stroke-linejoin:miter;"/>
   </g>
   <g id="text_17">
    <!-- A -->
    <defs>
     <path d="M 71.828125 0 
L 56.109375 0 
L 49.859375 16.265625 
L 21.234375 16.265625 
L 15.328125 0 
L 0 0 
L 27.875 71.578125 
L 43.171875 71.578125 
z
M 45.21875 28.328125 
L 35.359375 54.890625 
L 25.6875 28.328125 
z
" id="Arial-BoldMT-65"/>
    </defs>
    <g transform="translate(13.641606 15.324)scale(0.09 -0.09)">
     <use xlink:href="#Arial-BoldMT-65"/>
    </g>
   </g>
   <g id="legend_1">
    <g id="text_18">
     <!-- Clone size rank (binned) -->
     <defs>
      <path d="M 58.796875 25.09375 
L 68.265625 22.703125 
Q 65.28125 11.03125 57.546875 4.90625 
Q 49.8125 -1.21875 38.625 -1.21875 
Q 27.046875 -1.21875 19.796875 3.484375 
Q 12.546875 8.203125 8.765625 17.140625 
Q 4.984375 26.078125 4.984375 36.328125 
Q 4.984375 47.515625 9.25 55.828125 
Q 13.53125 64.15625 21.40625 68.46875 
Q 29.296875 72.796875 38.765625 72.796875 
Q 49.515625 72.796875 56.828125 67.328125 
Q 64.15625 61.859375 67.046875 51.953125 
L 57.71875 49.75 
Q 55.21875 57.5625 50.484375 61.125 
Q 45.75 64.703125 38.578125 64.703125 
Q 30.328125 64.703125 24.78125 60.734375 
Q 19.234375 56.78125 16.984375 50.109375 
Q 14.75 43.453125 14.75 36.375 
Q 14.75 27.25 17.40625 20.4375 
Q 20.0625 13.625 25.671875 10.25 
Q 31.296875 6.890625 37.84375 6.890625 
Q 45.796875 6.890625 51.3125 11.46875 
Q 56.84375 16.0625 58.796875 25.09375 
z
" id="ArialMT-67"/>
      <path d="M 1.953125 0 
L 1.953125 7.125 
L 34.96875 45.015625 
Q 29.34375 44.734375 25.046875 44.734375 
L 3.90625 44.734375 
L 3.90625 51.859375 
L 46.296875 51.859375 
L 46.296875 46.046875 
L 18.21875 13.140625 
L 12.796875 7.125 
Q 18.703125 7.5625 23.875 7.5625 
L 47.859375 7.5625 
L 47.859375 0 
z
" id="ArialMT-122"/>
      <path d="M 6.640625 0 
L 6.640625 71.578125 
L 15.4375 71.578125 
L 15.4375 30.765625 
L 36.234375 51.859375 
L 47.609375 51.859375 
L 27.78125 32.625 
L 49.609375 0 
L 38.765625 0 
L 21.625 26.515625 
L 15.4375 20.5625 
L 15.4375 0 
z
" id="ArialMT-107"/>
     </defs>
     <g transform="translate(171.374777 17.368293)scale(0.06246 -0.06246)">
      <use xlink:href="#ArialMT-67"/>
      <use x="72.216797" xlink:href="#ArialMT-108"/>
      <use x="94.433594" xlink:href="#ArialMT-111"/>
      <use x="150.048828" xlink:href="#ArialMT-110"/>
      <use x="205.664062" xlink:href="#ArialMT-101"/>
      <use x="261.279297" xlink:href="#ArialMT-32"/>
      <use x="289.0625" xlink:href="#ArialMT-115"/>
      <use x="339.0625" xlink:href="#ArialMT-105"/>
      <use x="361.279297" xlink:href="#ArialMT-122"/>
      <use x="411.279297" xlink:href="#ArialMT-101"/>
      <use x="466.894531" xlink:href="#ArialMT-32"/>
      <use x="494.677734" xlink:href="#ArialMT-114"/>
      <use x="527.978516" xlink:href="#ArialMT-97"/>
      <use x="583.59375" xlink:href="#ArialMT-110"/>
      <use x="639.208984" xlink:href="#ArialMT-107"/>
      <use x="689.208984" xlink:href="#ArialMT-32"/>
      <use x="716.992188" xlink:href="#ArialMT-40"/>
      <use x="750.292969" xlink:href="#ArialMT-98"/>
      <use x="805.908203" xlink:href="#ArialMT-105"/>
      <use x="828.125" xlink:href="#ArialMT-110"/>
      <use x="883.740234" xlink:href="#ArialMT-110"/>
      <use x="939.355469" xlink:href="#ArialMT-101"/>
      <use x="994.970703" xlink:href="#ArialMT-100"/>
      <use x="1050.585938" xlink:href="#ArialMT-41"/>
     </g>
    </g>
    <g id="line2d_23">
     <path d="M 175.363433 24.09055 
L 183.170933 24.09055 
" style="fill:none;stroke:#472d7b;stroke-linecap:round;stroke-width:1.3;"/>
    </g>
    <g id="line2d_24">
     <defs>
      <path d="M 0 0.9375 
C 0.248628 0.9375 0.487106 0.838719 0.662913 0.662913 
C 0.838719 0.487106 0.9375 0.248628 0.9375 0 
C 0.9375 -0.248628 0.838719 -0.487106 0.662913 -0.662913 
C 0.487106 -0.838719 0.248628 -0.9375 0 -0.9375 
C -0.248628 -0.9375 -0.487106 -0.838719 -0.662913 -0.662913 
C -0.838719 -0.487106 -0.9375 -0.248628 -0.9375 0 
C -0.9375 0.248628 -0.838719 0.487106 -0.662913 0.662913 
C -0.487106 0.838719 -0.248628 0.9375 0 0.9375 
z
" id="mf5aaef948e" style="stroke:#472d7b;stroke-width:0.8;"/>
     </defs>
     <g>
      <use style="fill:#472d7b;stroke:#472d7b;stroke-width:0.8;" x="179.267183" xlink:href="#mf5aaef948e" y="24.09055"/>
     </g>
    </g>
    <g id="text_19">
     <!-- 500 -->
     <g transform="translate(186.293933 26.27665)scale(0.06246 -0.06246)">
      <use xlink:href="#ArialMT-53"/>
      <use x="55.615234" xlink:href="#ArialMT-48"/>
      <use x="111.230469" xlink:href="#ArialMT-48"/>
     </g>
    </g>
    <g id="line2d_25">
     <path d="M 175.363433 32.925713 
L 183.170933 32.925713 
" style="fill:none;stroke:#3b528b;stroke-linecap:round;stroke-width:1.3;"/>
    </g>
    <g id="line2d_26">
     <defs>
      <path d="M 0 0.9375 
C 0.248628 0.9375 0.487106 0.838719 0.662913 0.662913 
C 0.838719 0.487106 0.9375 0.248628 0.9375 0 
C 0.9375 -0.248628 0.838719 -0.487106 0.662913 -0.662913 
C 0.487106 -0.838719 0.248628 -0.9375 0 -0.9375 
C -0.248628 -0.9375 -0.487106 -0.838719 -0.662913 -0.662913 
C -0.838719 -0.487106 -0.9375 -0.248628 -0.9375 0 
C -0.9375 0.248628 -0.838719 0.487106 -0.662913 0.662913 
C -0.487106 0.838719 -0.248628 0.9375 0 0.9375 
z
" id="mceaca773f3" style="stroke:#3b528b;stroke-width:0.8;"/>
     </defs>
     <g>
      <use style="fill:#3b528b;stroke:#3b528b;stroke-width:0.8;" x="179.267183" xlink:href="#mceaca773f3" y="32.925713"/>
     </g>
    </g>
    <g id="text_20">
     <!-- 1000 -->
     <g transform="translate(186.293933 35.111813)scale(0.06246 -0.06246)">
      <use xlink:href="#ArialMT-49"/>
      <use x="55.615234" xlink:href="#ArialMT-48"/>
      <use x="111.230469" xlink:href="#ArialMT-48"/>
      <use x="166.845703" xlink:href="#ArialMT-48"/>
     </g>
    </g>
    <g id="line2d_27">
     <path d="M 175.363433 41.760875 
L 183.170933 41.760875 
" style="fill:none;stroke:#2c728e;stroke-linecap:round;stroke-width:1.3;"/>
    </g>
    <g id="line2d_28">
     <defs>
      <path d="M 0 0.9375 
C 0.248628 0.9375 0.487106 0.838719 0.662913 0.662913 
C 0.838719 0.487106 0.9375 0.248628 0.9375 0 
C 0.9375 -0.248628 0.838719 -0.487106 0.662913 -0.662913 
C 0.487106 -0.838719 0.248628 -0.9375 0 -0.9375 
C -0.248628 -0.9375 -0.487106 -0.838719 -0.662913 -0.662913 
C -0.838719 -0.487106 -0.9375 -0.248628 -0.9375 0 
C -0.9375 0.248628 -0.838719 0.487106 -0.662913 0.662913 
C -0.487106 0.838719 -0.248628 0.9375 0 0.9375 
z
" id="mb7c1d8c3bc" style="stroke:#2c728e;stroke-width:0.8;"/>
     </defs>
     <g>
      <use style="fill:#2c728e;stroke:#2c728e;stroke-width:0.8;" x="179.267183" xlink:href="#mb7c1d8c3bc" y="41.760875"/>
     </g>
    </g>
    <g id="text_21">
     <!-- 2000 -->
     <g transform="translate(186.293933 43.946975)scale(0.06246 -0.06246)">
      <use xlink:href="#ArialMT-50"/>
      <use x="55.615234" xlink:href="#ArialMT-48"/>
      <use x="111.230469" xlink:href="#ArialMT-48"/>
      <use x="166.845703" xlink:href="#ArialMT-48"/>
     </g>
    </g>
    <g id="line2d_29">
     <path d="M 175.363433 50.596037 
L 183.170933 50.596037 
" style="fill:none;stroke:#21918c;stroke-linecap:round;stroke-width:1.3;"/>
    </g>
    <g id="line2d_30">
     <defs>
      <path d="M 0 0.9375 
C 0.248628 0.9375 0.487106 0.838719 0.662913 0.662913 
C 0.838719 0.487106 0.9375 0.248628 0.9375 0 
C 0.9375 -0.248628 0.838719 -0.487106 0.662913 -0.662913 
C 0.487106 -0.838719 0.248628 -0.9375 0 -0.9375 
C -0.248628 -0.9375 -0.487106 -0.838719 -0.662913 -0.662913 
C -0.838719 -0.487106 -0.9375 -0.248628 -0.9375 0 
C -0.9375 0.248628 -0.838719 0.487106 -0.662913 0.662913 
C -0.487106 0.838719 -0.248628 0.9375 0 0.9375 
z
" id="m5c2032a024" style="stroke:#21918c;stroke-width:0.8;"/>
     </defs>
     <g>
      <use style="fill:#21918c;stroke:#21918c;stroke-width:0.8;" x="179.267183" xlink:href="#m5c2032a024" y="50.596037"/>
     </g>
    </g>
    <g id="text_22">
     <!-- 5000 -->
     <g transform="translate(186.293933 52.782137)scale(0.06246 -0.06246)">
      <use xlink:href="#ArialMT-53"/>
      <use x="55.615234" xlink:href="#ArialMT-48"/>
      <use x="111.230469" xlink:href="#ArialMT-48"/>
      <use x="166.845703" xlink:href="#ArialMT-48"/>
     </g>
    </g>
    <g id="line2d_31">
     <path d="M 203.31038 24.09055 
L 211.11788 24.09055 
" style="fill:none;stroke:#27ad81;stroke-linecap:round;stroke-width:1.3;"/>
    </g>
    <g id="line2d_32">
     <defs>
      <path d="M 0 0.9375 
C 0.248628 0.9375 0.487106 0.838719 0.662913 0.662913 
C 0.838719 0.487106 0.9375 0.248628 0.9375 0 
C 0.9375 -0.248628 0.838719 -0.487106 0.662913 -0.662913 
C 0.487106 -0.838719 0.248628 -0.9375 0 -0.9375 
C -0.248628 -0.9375 -0.487106 -0.838719 -0.662913 -0.662913 
C -0.838719 -0.487106 -0.9375 -0.248628 -0.9375 0 
C -0.9375 0.248628 -0.838719 0.487106 -0.662913 0.662913 
C -0.487106 0.838719 -0.248628 0.9375 0 0.9375 
z
" id="mf2ce42b4a6" style="stroke:#27ad81;stroke-width:0.8;"/>
     </defs>
     <g>
      <use style="fill:#27ad81;stroke:#27ad81;stroke-width:0.8;" x="207.21413" xlink:href="#mf2ce42b4a6" y="24.09055"/>
     </g>
    </g>
    <g id="text_23">
     <!-- 10000 -->
     <g transform="translate(214.24088 26.27665)scale(0.06246 -0.06246)">
      <use xlink:href="#ArialMT-49"/>
      <use x="55.615234" xlink:href="#ArialMT-48"/>
      <use x="111.230469" xlink:href="#ArialMT-48"/>
      <use x="166.845703" xlink:href="#ArialMT-48"/>
      <use x="222.460938" xlink:href="#ArialMT-48"/>
     </g>
    </g>
    <g id="line2d_33">
     <path d="M 203.31038 32.925713 
L 211.11788 32.925713 
" style="fill:none;stroke:#5cc863;stroke-linecap:round;stroke-width:1.3;"/>
    </g>
    <g id="line2d_34">
     <defs>
      <path d="M 0 0.9375 
C 0.248628 0.9375 0.487106 0.838719 0.662913 0.662913 
C 0.838719 0.487106 0.9375 0.248628 0.9375 0 
C 0.9375 -0.248628 0.838719 -0.487106 0.662913 -0.662913 
C 0.487106 -0.838719 0.248628 -0.9375 0 -0.9375 
C -0.248628 -0.9375 -0.487106 -0.838719 -0.662913 -0.662913 
C -0.838719 -0.487106 -0.9375 -0.248628 -0.9375 0 
C -0.9375 0.248628 -0.838719 0.487106 -0.662913 0.662913 
C -0.487106 0.838719 -0.248628 0.9375 0 0.9375 
z
" id="mdebb224a8e" style="stroke:#5cc863;stroke-width:0.8;"/>
     </defs>
     <g>
      <use style="fill:#5cc863;stroke:#5cc863;stroke-width:0.8;" x="207.21413" xlink:href="#mdebb224a8e" y="32.925713"/>
     </g>
    </g>
    <g id="text_24">
     <!-- 20000 -->
     <g transform="translate(214.24088 35.111813)scale(0.06246 -0.06246)">
      <use xlink:href="#ArialMT-50"/>
      <use x="55.615234" xlink:href="#ArialMT-48"/>
      <use x="111.230469" xlink:href="#ArialMT-48"/>
      <use x="166.845703" xlink:href="#ArialMT-48"/>
      <use x="222.460938" xlink:href="#ArialMT-48"/>
     </g>
    </g>
    <g id="line2d_35">
     <path d="M 203.31038 41.760875 
L 211.11788 41.760875 
" style="fill:none;stroke:#aadc32;stroke-linecap:round;stroke-width:1.3;"/>
    </g>
    <g id="line2d_36">
     <defs>
      <path d="M 0 0.9375 
C 0.248628 0.9375 0.487106 0.838719 0.662913 0.662913 
C 0.838719 0.487106 0.9375 0.248628 0.9375 0 
C 0.9375 -0.248628 0.838719 -0.487106 0.662913 -0.662913 
C 0.487106 -0.838719 0.248628 -0.9375 0 -0.9375 
C -0.248628 -0.9375 -0.487106 -0.838719 -0.662913 -0.662913 
C -0.838719 -0.487106 -0.9375 -0.248628 -0.9375 0 
C -0.9375 0.248628 -0.838719 0.487106 -0.662913 0.662913 
C -0.487106 0.838719 -0.248628 0.9375 0 0.9375 
z
" id="m58787c512e" style="stroke:#aadc32;stroke-width:0.8;"/>
     </defs>
     <g>
      <use style="fill:#aadc32;stroke:#aadc32;stroke-width:0.8;" x="207.21413" xlink:href="#m58787c512e" y="41.760875"/>
     </g>
    </g>
    <g id="text_25">
     <!-- 50000 -->
     <g transform="translate(214.24088 43.946975)scale(0.06246 -0.06246)">
      <use xlink:href="#ArialMT-53"/>
      <use x="55.615234" xlink:href="#ArialMT-48"/>
      <use x="111.230469" xlink:href="#ArialMT-48"/>
      <use x="166.845703" xlink:href="#ArialMT-48"/>
      <use x="222.460938" xlink:href="#ArialMT-48"/>
     </g>
    </g>
    <g id="line2d_37">
     <path d="M 203.31038 50.596037 
L 211.11788 50.596037 
" style="fill:none;stroke:#fde725;stroke-linecap:round;stroke-width:1.3;"/>
    </g>
    <g id="line2d_38">
     <defs>
      <path d="M 0 0.9375 
C 0.248628 0.9375 0.487106 0.838719 0.662913 0.662913 
C 0.838719 0.487106 0.9375 0.248628 0.9375 0 
C 0.9375 -0.248628 0.838719 -0.487106 0.662913 -0.662913 
C 0.487106 -0.838719 0.248628 -0.9375 0 -0.9375 
C -0.248628 -0.9375 -0.487106 -0.838719 -0.662913 -0.662913 
C -0.838719 -0.487106 -0.9375 -0.248628 -0.9375 0 
C -0.9375 0.248628 -0.838719 0.487106 -0.662913 0.662913 
C -0.487106 0.838719 -0.248628 0.9375 0 0.9375 
z
" id="m8e2f0cbb5b" style="stroke:#fde725;stroke-width:0.8;"/>
     </defs>
     <g>
      <use style="fill:#fde725;stroke:#fde725;stroke-width:0.8;" x="207.21413" xlink:href="#m8e2f0cbb5b" y="50.596037"/>
     </g>
    </g>
    <g id="text_26">
     <!-- 100000 -->
     <g transform="translate(214.24088 52.782137)scale(0.06246 -0.06246)">
      <use xlink:href="#ArialMT-49"/>
      <use x="55.615234" xlink:href="#ArialMT-48"/>
      <use x="111.230469" xlink:href="#ArialMT-48"/>
      <use x="166.845703" xlink:href="#ArialMT-48"/>
      <use x="222.460938" xlink:href="#ArialMT-48"/>
      <use x="278.076172" xlink:href="#ArialMT-48"/>
     </g>
    </g>
   </g>
  </g>
  <g id="axes_2">
   <g id="patch_5">
    <path d="M 281.786106 169.68 
L 491.831106 169.68 
L 491.831106 7.2 
L 281.786106 7.2 
z
" style="fill:#ffffff;"/>
   </g>
   <g id="matplotlib.axis_3">
    <g id="xtick_8">
     <g id="line2d_39">
      <g>
       <use style="stroke:#000000;stroke-width:0.8;" x="304.972891" xlink:href="#mab41efd3b2" y="169.68"/>
      </g>
     </g>
     <g id="text_27">
      <!-- 10 -->
      <g transform="translate(300.803856 179.546212)scale(0.07497 -0.07497)">
       <use xlink:href="#ArialMT-49"/>
       <use x="55.615234" xlink:href="#ArialMT-48"/>
      </g>
     </g>
    </g>
    <g id="xtick_9">
     <g id="line2d_40">
      <g>
       <use style="stroke:#000000;stroke-width:0.8;" x="332.251463" xlink:href="#mab41efd3b2" y="169.68"/>
      </g>
     </g>
     <g id="text_28">
      <!-- 20 -->
      <g transform="translate(328.082428 179.546212)scale(0.07497 -0.07497)">
       <use xlink:href="#ArialMT-50"/>
       <use x="55.615234" xlink:href="#ArialMT-48"/>
      </g>
     </g>
    </g>
    <g id="xtick_10">
     <g id="line2d_41">
      <g>
       <use style="stroke:#000000;stroke-width:0.8;" x="359.530034" xlink:href="#mab41efd3b2" y="169.68"/>
      </g>
     </g>
     <g id="text_29">
      <!-- 30 -->
      <g transform="translate(355.360999 179.546212)scale(0.07497 -0.07497)">
       <use xlink:href="#ArialMT-51"/>
       <use x="55.615234" xlink:href="#ArialMT-48"/>
      </g>
     </g>
    </g>
    <g id="xtick_11">
     <g id="line2d_42">
      <g>
       <use style="stroke:#000000;stroke-width:0.8;" x="386.808606" xlink:href="#mab41efd3b2" y="169.68"/>
      </g>
     </g>
     <g id="text_30">
      <!-- 40 -->
      <g transform="translate(382.639571 179.546212)scale(0.07497 -0.07497)">
       <use xlink:href="#ArialMT-52"/>
       <use x="55.615234" xlink:href="#ArialMT-48"/>
      </g>
     </g>
    </g>
    <g id="xtick_12">
     <g id="line2d_43">
      <g>
       <use style="stroke:#000000;stroke-width:0.8;" x="414.087177" xlink:href="#mab41efd3b2" y="169.68"/>
      </g>
     </g>
     <g id="text_31">
      <!-- 50 -->
      <g transform="translate(409.918142 179.546212)scale(0.07497 -0.07497)">
       <use xlink:href="#ArialMT-53"/>
       <use x="55.615234" xlink:href="#ArialMT-48"/>
      </g>
     </g>
    </g>
    <g id="xtick_13">
     <g id="line2d_44">
      <g>
       <use style="stroke:#000000;stroke-width:0.8;" x="441.365748" xlink:href="#mab41efd3b2" y="169.68"/>
      </g>
     </g>
     <g id="text_32">
      <!-- 60 -->
      <g transform="translate(437.196714 179.546212)scale(0.07497 -0.07497)">
       <use xlink:href="#ArialMT-54"/>
       <use x="55.615234" xlink:href="#ArialMT-48"/>
      </g>
     </g>
    </g>
    <g id="xtick_14">
     <g id="line2d_45">
      <g>
       <use style="stroke:#000000;stroke-width:0.8;" x="468.64432" xlink:href="#mab41efd3b2" y="169.68"/>
      </g>
     </g>
     <g id="text_33">
      <!-- 70 -->
      <g transform="translate(464.475285 179.546212)scale(0.07497 -0.07497)">
       <use xlink:href="#ArialMT-55"/>
       <use x="55.615234" xlink:href="#ArialMT-48"/>
      </g>
     </g>
    </g>
    <g id="text_34">
     <!-- Age in years (binned) -->
     <g transform="translate(351.180285 187.993822)scale(0.07497 -0.07497)">
      <use xlink:href="#ArialMT-65"/>
      <use x="66.699219" xlink:href="#ArialMT-103"/>
      <use x="122.314453" xlink:href="#ArialMT-101"/>
      <use x="177.929688" xlink:href="#ArialMT-32"/>
      <use x="205.712891" xlink:href="#ArialMT-105"/>
      <use x="227.929688" xlink:href="#ArialMT-110"/>
      <use x="283.544922" xlink:href="#ArialMT-32"/>
      <use x="311.328125" xlink:href="#ArialMT-121"/>
      <use x="361.328125" xlink:href="#ArialMT-101"/>
      <use x="416.943359" xlink:href="#ArialMT-97"/>
      <use x="472.558594" xlink:href="#ArialMT-114"/>
      <use x="505.859375" xlink:href="#ArialMT-115"/>
      <use x="555.859375" xlink:href="#ArialMT-32"/>
      <use x="583.642578" xlink:href="#ArialMT-40"/>
      <use x="616.943359" xlink:href="#ArialMT-98"/>
      <use x="672.558594" xlink:href="#ArialMT-105"/>
      <use x="694.775391" xlink:href="#ArialMT-110"/>
      <use x="750.390625" xlink:href="#ArialMT-110"/>
      <use x="806.005859" xlink:href="#ArialMT-101"/>
      <use x="861.621094" xlink:href="#ArialMT-100"/>
      <use x="917.236328" xlink:href="#ArialMT-41"/>
     </g>
    </g>
   </g>
   <g id="matplotlib.axis_4">
    <g id="ytick_8">
     <g id="line2d_46">
      <g>
       <use style="stroke:#000000;stroke-width:0.8;" x="281.786106" xlink:href="#m1910c566ee" y="169.68"/>
      </g>
     </g>
     <g id="text_35">
      <!-- 0.00 -->
      <g transform="translate(262.696241 172.363106)scale(0.07497 -0.07497)">
       <use xlink:href="#ArialMT-48"/>
       <use x="55.615234" xlink:href="#ArialMT-46"/>
       <use x="83.398438" xlink:href="#ArialMT-48"/>
       <use x="139.013672" xlink:href="#ArialMT-48"/>
      </g>
     </g>
    </g>
    <g id="ytick_9">
     <g id="line2d_47">
      <g>
       <use style="stroke:#000000;stroke-width:0.8;" x="281.786106" xlink:href="#m1910c566ee" y="145.785882"/>
      </g>
     </g>
     <g id="text_36">
      <!-- 0.01 -->
      <g transform="translate(262.696241 148.468988)scale(0.07497 -0.07497)">
       <use xlink:href="#ArialMT-48"/>
       <use x="55.615234" xlink:href="#ArialMT-46"/>
       <use x="83.398438" xlink:href="#ArialMT-48"/>
       <use x="139.013672" xlink:href="#ArialMT-49"/>
      </g>
     </g>
    </g>
    <g id="ytick_10">
     <g id="line2d_48">
      <g>
       <use style="stroke:#000000;stroke-width:0.8;" x="281.786106" xlink:href="#m1910c566ee" y="121.891765"/>
      </g>
     </g>
     <g id="text_37">
      <!-- 0.02 -->
      <g transform="translate(262.696241 124.574871)scale(0.07497 -0.07497)">
       <use xlink:href="#ArialMT-48"/>
       <use x="55.615234" xlink:href="#ArialMT-46"/>
       <use x="83.398438" xlink:href="#ArialMT-48"/>
       <use x="139.013672" xlink:href="#ArialMT-50"/>
      </g>
     </g>
    </g>
    <g id="ytick_11">
     <g id="line2d_49">
      <g>
       <use style="stroke:#000000;stroke-width:0.8;" x="281.786106" xlink:href="#m1910c566ee" y="97.997647"/>
      </g>
     </g>
     <g id="text_38">
      <!-- 0.03 -->
      <g transform="translate(262.696241 100.680753)scale(0.07497 -0.07497)">
       <use xlink:href="#ArialMT-48"/>
       <use x="55.615234" xlink:href="#ArialMT-46"/>
       <use x="83.398438" xlink:href="#ArialMT-48"/>
       <use x="139.013672" xlink:href="#ArialMT-51"/>
      </g>
     </g>
    </g>
    <g id="ytick_12">
     <g id="line2d_50">
      <g>
       <use style="stroke:#000000;stroke-width:0.8;" x="281.786106" xlink:href="#m1910c566ee" y="74.103529"/>
      </g>
     </g>
     <g id="text_39">
      <!-- 0.04 -->
      <g transform="translate(262.696241 76.786635)scale(0.07497 -0.07497)">
       <use xlink:href="#ArialMT-48"/>
       <use x="55.615234" xlink:href="#ArialMT-46"/>
       <use x="83.398438" xlink:href="#ArialMT-48"/>
       <use x="139.013672" xlink:href="#ArialMT-52"/>
      </g>
     </g>
    </g>
    <g id="ytick_13">
     <g id="line2d_51">
      <g>
       <use style="stroke:#000000;stroke-width:0.8;" x="281.786106" xlink:href="#m1910c566ee" y="50.209412"/>
      </g>
     </g>
     <g id="text_40">
      <!-- 0.05 -->
      <g transform="translate(262.696241 52.892518)scale(0.07497 -0.07497)">
       <use xlink:href="#ArialMT-48"/>
       <use x="55.615234" xlink:href="#ArialMT-46"/>
       <use x="83.398438" xlink:href="#ArialMT-48"/>
       <use x="139.013672" xlink:href="#ArialMT-53"/>
      </g>
     </g>
    </g>
    <g id="ytick_14">
     <g id="line2d_52">
      <g>
       <use style="stroke:#000000;stroke-width:0.8;" x="281.786106" xlink:href="#m1910c566ee" y="26.315294"/>
      </g>
     </g>
     <g id="text_41">
      <!-- 0.06 -->
      <g transform="translate(262.696241 28.9984)scale(0.07497 -0.07497)">
       <use xlink:href="#ArialMT-48"/>
       <use x="55.615234" xlink:href="#ArialMT-46"/>
       <use x="83.398438" xlink:href="#ArialMT-48"/>
       <use x="139.013672" xlink:href="#ArialMT-54"/>
      </g>
     </g>
    </g>
    <g id="text_42">
     <!-- Two insertions clones -->
     <defs>
      <path d="M 25.921875 0 
L 25.921875 63.140625 
L 2.34375 63.140625 
L 2.34375 71.578125 
L 59.078125 71.578125 
L 59.078125 63.140625 
L 35.40625 63.140625 
L 35.40625 0 
z
" id="ArialMT-84"/>
      <path d="M 16.15625 0 
L 0.296875 51.859375 
L 9.375 51.859375 
L 17.625 21.921875 
L 20.703125 10.796875 
Q 20.90625 11.625 23.390625 21.484375 
L 31.640625 51.859375 
L 40.671875 51.859375 
L 48.4375 21.78125 
L 51.03125 11.859375 
L 54 21.875 
L 62.890625 51.859375 
L 71.4375 51.859375 
L 55.21875 0 
L 46.09375 0 
L 37.84375 31.0625 
L 35.84375 39.890625 
L 25.34375 0 
z
" id="ArialMT-119"/>
     </defs>
     <g transform="translate(259.706212 124.477728)rotate(-90)scale(0.07497 -0.07497)">
      <use xlink:href="#ArialMT-84"/>
      <use x="61.005859" xlink:href="#ArialMT-119"/>
      <use x="133.222656" xlink:href="#ArialMT-111"/>
      <use x="188.837891" xlink:href="#ArialMT-32"/>
      <use x="216.621094" xlink:href="#ArialMT-105"/>
      <use x="238.837891" xlink:href="#ArialMT-110"/>
      <use x="294.453125" xlink:href="#ArialMT-115"/>
      <use x="344.453125" xlink:href="#ArialMT-101"/>
      <use x="400.068359" xlink:href="#ArialMT-114"/>
      <use x="433.369141" xlink:href="#ArialMT-116"/>
      <use x="461.152344" xlink:href="#ArialMT-105"/>
      <use x="483.369141" xlink:href="#ArialMT-111"/>
      <use x="538.984375" xlink:href="#ArialMT-110"/>
      <use x="594.599609" xlink:href="#ArialMT-115"/>
      <use x="644.599609" xlink:href="#ArialMT-32"/>
      <use x="672.382812" xlink:href="#ArialMT-99"/>
      <use x="722.382812" xlink:href="#ArialMT-108"/>
      <use x="744.599609" xlink:href="#ArialMT-111"/>
      <use x="800.214844" xlink:href="#ArialMT-110"/>
      <use x="855.830078" xlink:href="#ArialMT-101"/>
      <use x="911.445312" xlink:href="#ArialMT-115"/>
     </g>
    </g>
   </g>
   <g id="PolyCollection_9">
    <path clip-path="url(#p0812e19f7a)" d="M 291.333606 21.401275 
L 291.333606 38.759657 
L 318.612177 48.760424 
L 345.890748 41.540447 
L 373.16932 46.588048 
L 400.447891 47.603735 
L 427.726463 45.678305 
L 455.005034 64.078885 
L 482.283606 68.178174 
L 482.283606 52.811203 
L 482.283606 52.811203 
L 455.005034 54.70537 
L 427.726463 39.251084 
L 400.447891 42.624658 
L 373.16932 42.00338 
L 345.890748 37.143104 
L 318.612177 38.519813 
L 291.333606 21.401275 
z
" style="fill:#472d7b;fill-opacity:0.5;"/>
   </g>
   <g id="PolyCollection_10">
    <path clip-path="url(#p0812e19f7a)" d="M 291.333606 11.569901 
L 291.333606 27.981802 
L 318.612177 45.993684 
L 345.890748 47.417335 
L 373.16932 46.881802 
L 400.447891 48.876482 
L 427.726463 53.946572 
L 455.005034 63.028067 
L 482.283606 61.250378 
L 482.283606 38.212681 
L 482.283606 38.212681 
L 455.005034 56.197739 
L 427.726463 47.821566 
L 400.447891 43.938082 
L 373.16932 42.744032 
L 345.890748 43.38335 
L 318.612177 37.839811 
L 291.333606 11.569901 
z
" style="fill:#3b528b;fill-opacity:0.5;"/>
   </g>
   <g id="PolyCollection_11">
    <path clip-path="url(#p0812e19f7a)" d="M 291.333606 21.858445 
L 291.333606 36.054001 
L 318.612177 47.341829 
L 345.890748 52.130719 
L 373.16932 54.053229 
L 400.447891 57.371908 
L 427.726463 58.643327 
L 455.005034 57.881957 
L 482.283606 64.624877 
L 482.283606 54.909241 
L 482.283606 54.909241 
L 455.005034 52.094514 
L 427.726463 53.919331 
L 400.447891 54.052764 
L 373.16932 50.689292 
L 345.890748 48.953511 
L 318.612177 38.881078 
L 291.333606 21.858445 
z
" style="fill:#2c728e;fill-opacity:0.5;"/>
   </g>
   <g id="PolyCollection_12">
    <path clip-path="url(#p0812e19f7a)" d="M 291.333606 22.790787 
L 291.333606 35.03782 
L 318.612177 43.46148 
L 345.890748 49.305151 
L 373.16932 55.51893 
L 400.447891 59.129532 
L 427.726463 62.628358 
L 455.005034 63.379374 
L 482.283606 57.648637 
L 482.283606 47.389716 
L 482.283606 47.389716 
L 455.005034 56.976907 
L 427.726463 59.735573 
L 400.447891 56.726766 
L 373.16932 53.037981 
L 345.890748 47.191811 
L 318.612177 38.123157 
L 291.333606 22.790787 
z
" style="fill:#21918c;fill-opacity:0.5;"/>
   </g>
   <g id="PolyCollection_13">
    <path clip-path="url(#p0812e19f7a)" d="M 291.333606 27.373283 
L 291.333606 36.977999 
L 318.612177 43.125921 
L 345.890748 46.710094 
L 373.16932 51.865568 
L 400.447891 54.473358 
L 427.726463 57.408104 
L 455.005034 62.162301 
L 482.283606 53.57896 
L 482.283606 46.266405 
L 482.283606 46.266405 
L 455.005034 57.18683 
L 427.726463 54.659805 
L 400.447891 51.876845 
L 373.16932 49.652059 
L 345.890748 44.501932 
L 318.612177 37.896501 
L 291.333606 27.373283 
z
" style="fill:#27ad81;fill-opacity:0.5;"/>
   </g>
   <g id="PolyCollection_14">
    <path clip-path="url(#p0812e19f7a)" d="M 291.333606 46.86367 
L 291.333606 54.53607 
L 318.612177 53.137869 
L 345.890748 50.858021 
L 373.16932 53.169111 
L 400.447891 56.486118 
L 427.726463 58.438276 
L 455.005034 60.558325 
L 482.283606 59.892074 
L 482.283606 54.33755 
L 482.283606 54.33755 
L 455.005034 56.27807 
L 427.726463 56.159598 
L 400.447891 54.457812 
L 373.16932 50.90214 
L 345.890748 48.163451 
L 318.612177 47.224733 
L 291.333606 46.86367 
z
" style="fill:#5cc863;fill-opacity:0.5;"/>
   </g>
   <g id="PolyCollection_15">
    <path clip-path="url(#p0812e19f7a)" d="M 291.333606 53.054638 
L 291.333606 57.77699 
L 318.612177 58.958838 
L 345.890748 57.924627 
L 373.16932 58.577658 
L 400.447891 60.780121 
L 427.726463 61.318658 
L 455.005034 62.024689 
L 482.283606 60.676564 
L 482.283606 57.041601 
L 482.283606 57.041601 
L 455.005034 59.129728 
L 427.726463 59.307552 
L 400.447891 59.386418 
L 373.16932 56.653853 
L 345.890748 55.638524 
L 318.612177 54.175405 
L 291.333606 53.054638 
z
" style="fill:#aadc32;fill-opacity:0.5;"/>
   </g>
   <g id="PolyCollection_16">
    <path clip-path="url(#p0812e19f7a)" d="M 291.333606 65.179611 
L 291.333606 68.680916 
L 318.612177 65.28399 
L 345.890748 66.960168 
L 373.16932 66.203905 
L 400.447891 65.261034 
L 427.726463 66.48833 
L 455.005034 68.206748 
L 482.283606 71.757598 
L 482.283606 64.139211 
L 482.283606 64.139211 
L 455.005034 65.342038 
L 427.726463 65.051014 
L 400.447891 64.122507 
L 373.16932 65.052624 
L 345.890748 65.634009 
L 318.612177 63.394931 
L 291.333606 65.179611 
z
" style="fill:#fde725;fill-opacity:0.5;"/>
   </g>
   <g id="line2d_53">
    <path clip-path="url(#p0812e19f7a)" d="M 291.333606 30.080466 
L 318.612177 43.640119 
L 345.890748 39.341776 
L 373.16932 44.295714 
L 400.447891 45.114197 
L 427.726463 42.464695 
L 455.005034 59.392128 
L 482.283606 60.494689 
" style="fill:none;stroke:#472d7b;stroke-linecap:round;stroke-width:1.3;"/>
    <g clip-path="url(#p0812e19f7a)">
     <use style="fill:#472d7b;stroke:#472d7b;stroke-width:0.8;" x="291.333606" xlink:href="#me8590b0a1c" y="30.080466"/>
     <use style="fill:#472d7b;stroke:#472d7b;stroke-width:0.8;" x="318.612177" xlink:href="#me8590b0a1c" y="43.640119"/>
     <use style="fill:#472d7b;stroke:#472d7b;stroke-width:0.8;" x="345.890748" xlink:href="#me8590b0a1c" y="39.341776"/>
     <use style="fill:#472d7b;stroke:#472d7b;stroke-width:0.8;" x="373.16932" xlink:href="#me8590b0a1c" y="44.295714"/>
     <use style="fill:#472d7b;stroke:#472d7b;stroke-width:0.8;" x="400.447891" xlink:href="#me8590b0a1c" y="45.114197"/>
     <use style="fill:#472d7b;stroke:#472d7b;stroke-width:0.8;" x="427.726463" xlink:href="#me8590b0a1c" y="42.464695"/>
     <use style="fill:#472d7b;stroke:#472d7b;stroke-width:0.8;" x="455.005034" xlink:href="#me8590b0a1c" y="59.392128"/>
     <use style="fill:#472d7b;stroke:#472d7b;stroke-width:0.8;" x="482.283606" xlink:href="#me8590b0a1c" y="60.494689"/>
    </g>
   </g>
   <g id="line2d_54">
    <path clip-path="url(#p0812e19f7a)" d="M 291.333606 19.775851 
L 318.612177 41.916747 
L 345.890748 45.400343 
L 373.16932 44.812917 
L 400.447891 46.407282 
L 427.726463 50.884069 
L 455.005034 59.612903 
L 482.283606 49.731529 
" style="fill:none;stroke:#3b528b;stroke-linecap:round;stroke-width:1.3;"/>
    <g clip-path="url(#p0812e19f7a)">
     <use style="fill:#3b528b;stroke:#3b528b;stroke-width:0.8;" x="291.333606" xlink:href="#m8b1e04240b" y="19.775851"/>
     <use style="fill:#3b528b;stroke:#3b528b;stroke-width:0.8;" x="318.612177" xlink:href="#m8b1e04240b" y="41.916747"/>
     <use style="fill:#3b528b;stroke:#3b528b;stroke-width:0.8;" x="345.890748" xlink:href="#m8b1e04240b" y="45.400343"/>
     <use style="fill:#3b528b;stroke:#3b528b;stroke-width:0.8;" x="373.16932" xlink:href="#m8b1e04240b" y="44.812917"/>
     <use style="fill:#3b528b;stroke:#3b528b;stroke-width:0.8;" x="400.447891" xlink:href="#m8b1e04240b" y="46.407282"/>
     <use style="fill:#3b528b;stroke:#3b528b;stroke-width:0.8;" x="427.726463" xlink:href="#m8b1e04240b" y="50.884069"/>
     <use style="fill:#3b528b;stroke:#3b528b;stroke-width:0.8;" x="455.005034" xlink:href="#m8b1e04240b" y="59.612903"/>
     <use style="fill:#3b528b;stroke:#3b528b;stroke-width:0.8;" x="482.283606" xlink:href="#m8b1e04240b" y="49.731529"/>
    </g>
   </g>
   <g id="line2d_55">
    <path clip-path="url(#p0812e19f7a)" d="M 291.333606 28.956223 
L 318.612177 43.111453 
L 345.890748 50.542115 
L 373.16932 52.371261 
L 400.447891 55.712336 
L 427.726463 56.281329 
L 455.005034 54.988235 
L 482.283606 59.767059 
" style="fill:none;stroke:#2c728e;stroke-linecap:round;stroke-width:1.3;"/>
    <g clip-path="url(#p0812e19f7a)">
     <use style="fill:#2c728e;stroke:#2c728e;stroke-width:0.8;" x="291.333606" xlink:href="#m5049096644" y="28.956223"/>
     <use style="fill:#2c728e;stroke:#2c728e;stroke-width:0.8;" x="318.612177" xlink:href="#m5049096644" y="43.111453"/>
     <use style="fill:#2c728e;stroke:#2c728e;stroke-width:0.8;" x="345.890748" xlink:href="#m5049096644" y="50.542115"/>
     <use style="fill:#2c728e;stroke:#2c728e;stroke-width:0.8;" x="373.16932" xlink:href="#m5049096644" y="52.371261"/>
     <use style="fill:#2c728e;stroke:#2c728e;stroke-width:0.8;" x="400.447891" xlink:href="#m5049096644" y="55.712336"/>
     <use style="fill:#2c728e;stroke:#2c728e;stroke-width:0.8;" x="427.726463" xlink:href="#m5049096644" y="56.281329"/>
     <use style="fill:#2c728e;stroke:#2c728e;stroke-width:0.8;" x="455.005034" xlink:href="#m5049096644" y="54.988235"/>
     <use style="fill:#2c728e;stroke:#2c728e;stroke-width:0.8;" x="482.283606" xlink:href="#m5049096644" y="59.767059"/>
    </g>
   </g>
   <g id="line2d_56">
    <path clip-path="url(#p0812e19f7a)" d="M 291.333606 28.914303 
L 318.612177 40.792318 
L 345.890748 48.248481 
L 373.16932 54.278455 
L 400.447891 57.928149 
L 427.726463 61.181965 
L 455.005034 60.17814 
L 482.283606 52.519176 
" style="fill:none;stroke:#21918c;stroke-linecap:round;stroke-width:1.3;"/>
    <g clip-path="url(#p0812e19f7a)">
     <use style="fill:#21918c;stroke:#21918c;stroke-width:0.8;" x="291.333606" xlink:href="#m1c9e0be66b" y="28.914303"/>
     <use style="fill:#21918c;stroke:#21918c;stroke-width:0.8;" x="318.612177" xlink:href="#m1c9e0be66b" y="40.792318"/>
     <use style="fill:#21918c;stroke:#21918c;stroke-width:0.8;" x="345.890748" xlink:href="#m1c9e0be66b" y="48.248481"/>
     <use style="fill:#21918c;stroke:#21918c;stroke-width:0.8;" x="373.16932" xlink:href="#m1c9e0be66b" y="54.278455"/>
     <use style="fill:#21918c;stroke:#21918c;stroke-width:0.8;" x="400.447891" xlink:href="#m1c9e0be66b" y="57.928149"/>
     <use style="fill:#21918c;stroke:#21918c;stroke-width:0.8;" x="427.726463" xlink:href="#m1c9e0be66b" y="61.181965"/>
     <use style="fill:#21918c;stroke:#21918c;stroke-width:0.8;" x="455.005034" xlink:href="#m1c9e0be66b" y="60.17814"/>
     <use style="fill:#21918c;stroke:#21918c;stroke-width:0.8;" x="482.283606" xlink:href="#m1c9e0be66b" y="52.519176"/>
    </g>
   </g>
   <g id="line2d_57">
    <path clip-path="url(#p0812e19f7a)" d="M 291.333606 32.175641 
L 318.612177 40.511211 
L 345.890748 45.606013 
L 373.16932 50.758814 
L 400.447891 53.175101 
L 427.726463 56.033954 
L 455.005034 59.674565 
L 482.283606 49.922682 
" style="fill:none;stroke:#27ad81;stroke-linecap:round;stroke-width:1.3;"/>
    <g clip-path="url(#p0812e19f7a)">
     <use style="fill:#27ad81;stroke:#27ad81;stroke-width:0.8;" x="291.333606" xlink:href="#m802d6ae24a" y="32.175641"/>
     <use style="fill:#27ad81;stroke:#27ad81;stroke-width:0.8;" x="318.612177" xlink:href="#m802d6ae24a" y="40.511211"/>
     <use style="fill:#27ad81;stroke:#27ad81;stroke-width:0.8;" x="345.890748" xlink:href="#m802d6ae24a" y="45.606013"/>
     <use style="fill:#27ad81;stroke:#27ad81;stroke-width:0.8;" x="373.16932" xlink:href="#m802d6ae24a" y="50.758814"/>
     <use style="fill:#27ad81;stroke:#27ad81;stroke-width:0.8;" x="400.447891" xlink:href="#m802d6ae24a" y="53.175101"/>
     <use style="fill:#27ad81;stroke:#27ad81;stroke-width:0.8;" x="427.726463" xlink:href="#m802d6ae24a" y="56.033954"/>
     <use style="fill:#27ad81;stroke:#27ad81;stroke-width:0.8;" x="455.005034" xlink:href="#m802d6ae24a" y="59.674565"/>
     <use style="fill:#27ad81;stroke:#27ad81;stroke-width:0.8;" x="482.283606" xlink:href="#m802d6ae24a" y="49.922682"/>
    </g>
   </g>
   <g id="line2d_58">
    <path clip-path="url(#p0812e19f7a)" d="M 291.333606 50.69987 
L 318.612177 50.181301 
L 345.890748 49.510736 
L 373.16932 52.035626 
L 400.447891 55.471965 
L 427.726463 57.298937 
L 455.005034 58.418197 
L 482.283606 57.114812 
" style="fill:none;stroke:#5cc863;stroke-linecap:round;stroke-width:1.3;"/>
    <g clip-path="url(#p0812e19f7a)">
     <use style="fill:#5cc863;stroke:#5cc863;stroke-width:0.8;" x="291.333606" xlink:href="#m7c5ca4d15b" y="50.69987"/>
     <use style="fill:#5cc863;stroke:#5cc863;stroke-width:0.8;" x="318.612177" xlink:href="#m7c5ca4d15b" y="50.181301"/>
     <use style="fill:#5cc863;stroke:#5cc863;stroke-width:0.8;" x="345.890748" xlink:href="#m7c5ca4d15b" y="49.510736"/>
     <use style="fill:#5cc863;stroke:#5cc863;stroke-width:0.8;" x="373.16932" xlink:href="#m7c5ca4d15b" y="52.035626"/>
     <use style="fill:#5cc863;stroke:#5cc863;stroke-width:0.8;" x="400.447891" xlink:href="#m7c5ca4d15b" y="55.471965"/>
     <use style="fill:#5cc863;stroke:#5cc863;stroke-width:0.8;" x="427.726463" xlink:href="#m7c5ca4d15b" y="57.298937"/>
     <use style="fill:#5cc863;stroke:#5cc863;stroke-width:0.8;" x="455.005034" xlink:href="#m7c5ca4d15b" y="58.418197"/>
     <use style="fill:#5cc863;stroke:#5cc863;stroke-width:0.8;" x="482.283606" xlink:href="#m7c5ca4d15b" y="57.114812"/>
    </g>
   </g>
   <g id="line2d_59">
    <path clip-path="url(#p0812e19f7a)" d="M 291.333606 55.415814 
L 318.612177 56.567121 
L 345.890748 56.781575 
L 373.16932 57.615755 
L 400.447891 60.08327 
L 427.726463 60.313105 
L 455.005034 60.577209 
L 482.283606 58.859082 
" style="fill:none;stroke:#aadc32;stroke-linecap:round;stroke-width:1.3;"/>
    <g clip-path="url(#p0812e19f7a)">
     <use style="fill:#aadc32;stroke:#aadc32;stroke-width:0.8;" x="291.333606" xlink:href="#m5a0afd3f10" y="55.415814"/>
     <use style="fill:#aadc32;stroke:#aadc32;stroke-width:0.8;" x="318.612177" xlink:href="#m5a0afd3f10" y="56.567121"/>
     <use style="fill:#aadc32;stroke:#aadc32;stroke-width:0.8;" x="345.890748" xlink:href="#m5a0afd3f10" y="56.781575"/>
     <use style="fill:#aadc32;stroke:#aadc32;stroke-width:0.8;" x="373.16932" xlink:href="#m5a0afd3f10" y="57.615755"/>
     <use style="fill:#aadc32;stroke:#aadc32;stroke-width:0.8;" x="400.447891" xlink:href="#m5a0afd3f10" y="60.08327"/>
     <use style="fill:#aadc32;stroke:#aadc32;stroke-width:0.8;" x="427.726463" xlink:href="#m5a0afd3f10" y="60.313105"/>
     <use style="fill:#aadc32;stroke:#aadc32;stroke-width:0.8;" x="455.005034" xlink:href="#m5a0afd3f10" y="60.577209"/>
     <use style="fill:#aadc32;stroke:#aadc32;stroke-width:0.8;" x="482.283606" xlink:href="#m5a0afd3f10" y="58.859082"/>
    </g>
   </g>
   <g id="line2d_60">
    <path clip-path="url(#p0812e19f7a)" d="M 291.333606 66.930264 
L 318.612177 64.339461 
L 345.890748 66.297088 
L 373.16932 65.628264 
L 400.447891 64.691771 
L 427.726463 65.769672 
L 455.005034 66.774393 
L 482.283606 67.948405 
" style="fill:none;stroke:#fde725;stroke-linecap:round;stroke-width:1.3;"/>
    <g clip-path="url(#p0812e19f7a)">
     <use style="fill:#fde725;stroke:#fde725;stroke-width:0.8;" x="291.333606" xlink:href="#m705e18e884" y="66.930264"/>
     <use style="fill:#fde725;stroke:#fde725;stroke-width:0.8;" x="318.612177" xlink:href="#m705e18e884" y="64.339461"/>
     <use style="fill:#fde725;stroke:#fde725;stroke-width:0.8;" x="345.890748" xlink:href="#m705e18e884" y="66.297088"/>
     <use style="fill:#fde725;stroke:#fde725;stroke-width:0.8;" x="373.16932" xlink:href="#m705e18e884" y="65.628264"/>
     <use style="fill:#fde725;stroke:#fde725;stroke-width:0.8;" x="400.447891" xlink:href="#m705e18e884" y="64.691771"/>
     <use style="fill:#fde725;stroke:#fde725;stroke-width:0.8;" x="427.726463" xlink:href="#m705e18e884" y="65.769672"/>
     <use style="fill:#fde725;stroke:#fde725;stroke-width:0.8;" x="455.005034" xlink:href="#m705e18e884" y="66.774393"/>
     <use style="fill:#fde725;stroke:#fde725;stroke-width:0.8;" x="482.283606" xlink:href="#m705e18e884" y="67.948405"/>
    </g>
   </g>
   <g id="patch_6">
    <path d="M 281.786106 169.68 
L 281.786106 7.2 
" style="fill:none;stroke:#000000;stroke-linecap:square;stroke-linejoin:miter;"/>
   </g>
   <g id="patch_7">
    <path d="M 281.786106 169.68 
L 491.831106 169.68 
" style="fill:none;stroke:#000000;stroke-linecap:square;stroke-linejoin:miter;"/>
   </g>
   <g id="text_43">
    <!-- B -->
    <defs>
     <path d="M 7.328125 71.578125 
L 35.9375 71.578125 
Q 44.4375 71.578125 48.609375 70.875 
Q 52.78125 70.171875 56.078125 67.921875 
Q 59.375 65.671875 61.5625 61.9375 
Q 63.765625 58.203125 63.765625 53.5625 
Q 63.765625 48.53125 61.046875 44.328125 
Q 58.34375 40.140625 53.71875 38.03125 
Q 60.25 36.140625 63.765625 31.546875 
Q 67.28125 26.953125 67.28125 20.75 
Q 67.28125 15.875 65.015625 11.25 
Q 62.75 6.640625 58.8125 3.875 
Q 54.890625 1.125 49.125 0.484375 
Q 45.515625 0.09375 31.6875 0 
L 7.328125 0 
z
M 21.78125 59.671875 
L 21.78125 43.109375 
L 31.25 43.109375 
Q 39.703125 43.109375 41.75 43.359375 
Q 45.453125 43.796875 47.578125 45.921875 
Q 49.703125 48.046875 49.703125 51.515625 
Q 49.703125 54.828125 47.875 56.90625 
Q 46.046875 58.984375 42.4375 59.421875 
Q 40.28125 59.671875 30.078125 59.671875 
z
M 21.78125 31.203125 
L 21.78125 12.0625 
L 35.15625 12.0625 
Q 42.96875 12.0625 45.0625 12.5 
Q 48.296875 13.09375 50.3125 15.359375 
Q 52.34375 17.625 52.34375 21.4375 
Q 52.34375 24.65625 50.78125 26.90625 
Q 49.21875 29.15625 46.265625 30.171875 
Q 43.3125 31.203125 33.453125 31.203125 
z
" id="Arial-BoldMT-66"/>
    </defs>
    <g transform="translate(260.781606 15.324)scale(0.09 -0.09)">
     <use xlink:href="#Arial-BoldMT-66"/>
    </g>
   </g>
  </g>
 </g>
 <defs>
  <clipPath id="pbca67a264c">
   <rect height="162.48" width="210.045" x="34.646106" y="7.2"/>
  </clipPath>
  <clipPath id="p0812e19f7a">
   <rect height="162.48" width="210.045" x="281.786106" y="7.2"/>
  </clipPath>
 </defs>
</svg>
