<?xml version="1.0" encoding="utf-8" standalone="no"?>
<!DOCTYPE svg PUBLIC "-//W3C//DTD SVG 1.1//EN"
  "http://www.w3.org/Graphics/SVG/1.1/DTD/svg11.dtd">
<!-- Created with matplotlib (https://matplotlib.org/) -->
<svg height="153.381821pt" version="1.1" viewBox="0 0 209.071171 153.381821" width="209.071171pt" xmlns="http://www.w3.org/2000/svg" xmlns:xlink="http://www.w3.org/1999/xlink">
 <defs>
  <style type="text/css">
*{stroke-linecap:butt;stroke-linejoin:round;}
  </style>
 </defs>
 <g id="figure_1">
  <g id="patch_1">
   <path d="M 0 153.381821 
L 209.071171 153.381821 
L 209.071171 0 
L 0 0 
z
" style="fill:none;"/>
  </g>
  <g id="axes_1">
   <g id="patch_2">
    <path d="M 35.09124 123.988301 
L 195.986026 123.988301 
L 195.986026 7.2 
L 35.09124 7.2 
z
" style="fill:#ffffff;"/>
   </g>
   <g id="matplotlib.axis_1">
    <g id="xtick_1">
     <g id="line2d_1">
      <defs>
       <path d="M 0 2 
L 0 -2 
" id="mfb0637967e" style="stroke:#000000;stroke-width:0.8;"/>
      </defs>
      <g>
       <use style="stroke:#000000;stroke-width:0.8;" x="35.09124" xlink:href="#mfb0637967e" y="123.988301"/>
      </g>
     </g>
     <g id="text_1">
      <!-- $\mathdefault{10^{-3}}$ -->
      <defs>
       <path d="M 37.25 0 
L 28.46875 0 
L 28.46875 56 
Q 25.296875 52.984375 20.140625 49.953125 
Q 14.984375 46.921875 10.890625 45.40625 
L 10.890625 53.90625 
Q 18.265625 57.375 23.78125 62.296875 
Q 29.296875 67.234375 31.59375 71.875 
L 37.25 71.875 
z
" id="ArialMT-49"/>
       <path d="M 4.15625 35.296875 
Q 4.15625 48 6.765625 55.734375 
Q 9.375 63.484375 14.515625 67.671875 
Q 19.671875 71.875 27.484375 71.875 
Q 33.25 71.875 37.59375 69.546875 
Q 41.9375 67.234375 44.765625 62.859375 
Q 47.609375 58.5 49.21875 52.21875 
Q 50.828125 45.953125 50.828125 35.296875 
Q 50.828125 22.703125 48.234375 14.96875 
Q 45.65625 7.234375 40.5 3 
Q 35.359375 -1.21875 27.484375 -1.21875 
Q 17.140625 -1.21875 11.234375 6.203125 
Q 4.15625 15.140625 4.15625 35.296875 
z
M 13.1875 35.296875 
Q 13.1875 17.671875 17.3125 11.828125 
Q 21.4375 6 27.484375 6 
Q 33.546875 6 37.671875 11.859375 
Q 41.796875 17.71875 41.796875 35.296875 
Q 41.796875 52.984375 37.671875 58.78125 
Q 33.546875 64.59375 27.390625 64.59375 
Q 21.34375 64.59375 17.71875 59.46875 
Q 13.1875 52.9375 13.1875 35.296875 
z
" id="ArialMT-48"/>
       <path d="M 52.828125 31.203125 
L 5.5625 31.203125 
L 5.5625 39.40625 
L 52.828125 39.40625 
z
" id="ArialMT-8722"/>
       <path d="M 4.203125 18.890625 
L 12.984375 20.0625 
Q 14.5 12.59375 18.140625 9.296875 
Q 21.78125 6 27 6 
Q 33.203125 6 37.46875 10.296875 
Q 41.75 14.59375 41.75 20.953125 
Q 41.75 27 37.796875 30.921875 
Q 33.84375 34.859375 27.734375 34.859375 
Q 25.25 34.859375 21.53125 33.890625 
L 22.515625 41.609375 
Q 23.390625 41.5 23.921875 41.5 
Q 29.546875 41.5 34.03125 44.421875 
Q 38.53125 47.359375 38.53125 53.46875 
Q 38.53125 58.296875 35.25 61.46875 
Q 31.984375 64.65625 26.8125 64.65625 
Q 21.6875 64.65625 18.265625 61.421875 
Q 14.84375 58.203125 13.875 51.765625 
L 5.078125 53.328125 
Q 6.6875 62.15625 12.390625 67.015625 
Q 18.109375 71.875 26.609375 71.875 
Q 32.46875 71.875 37.390625 69.359375 
Q 42.328125 66.84375 44.9375 62.5 
Q 47.5625 58.15625 47.5625 53.265625 
Q 47.5625 48.640625 45.0625 44.828125 
Q 42.578125 41.015625 37.703125 38.765625 
Q 44.046875 37.3125 47.5625 32.6875 
Q 51.078125 28.078125 51.078125 21.140625 
Q 51.078125 11.765625 44.234375 5.25 
Q 37.40625 -1.265625 26.953125 -1.265625 
Q 17.53125 -1.265625 11.296875 4.34375 
Q 5.078125 9.96875 4.203125 18.890625 
z
" id="ArialMT-51"/>
      </defs>
      <g transform="translate(27.66921 136.219583)scale(0.07497 -0.07497)">
       <use transform="translate(0 0.99375)" xlink:href="#ArialMT-49"/>
       <use transform="translate(55.615234 0.99375)" xlink:href="#ArialMT-48"/>
       <use transform="translate(112.972813 70.6875)scale(0.7)" xlink:href="#ArialMT-8722"/>
       <use transform="translate(153.851719 70.6875)scale(0.7)" xlink:href="#ArialMT-51"/>
      </g>
     </g>
    </g>
    <g id="xtick_2">
     <g id="line2d_2">
      <g>
       <use style="stroke:#000000;stroke-width:0.8;" x="55.203088" xlink:href="#mfb0637967e" y="123.988301"/>
      </g>
     </g>
     <g id="text_2">
      <!-- $\mathdefault{10^{-2}}$ -->
      <defs>
       <path d="M 50.34375 8.453125 
L 50.34375 0 
L 3.03125 0 
Q 2.9375 3.171875 4.046875 6.109375 
Q 5.859375 10.9375 9.828125 15.625 
Q 13.8125 20.3125 21.34375 26.46875 
Q 33.015625 36.03125 37.109375 41.625 
Q 41.21875 47.21875 41.21875 52.203125 
Q 41.21875 57.421875 37.46875 61 
Q 33.734375 64.59375 27.734375 64.59375 
Q 21.390625 64.59375 17.578125 60.78125 
Q 13.765625 56.984375 13.71875 50.25 
L 4.6875 51.171875 
Q 5.609375 61.28125 11.65625 66.578125 
Q 17.71875 71.875 27.9375 71.875 
Q 38.234375 71.875 44.234375 66.15625 
Q 50.25 60.453125 50.25 52 
Q 50.25 47.703125 48.484375 43.546875 
Q 46.734375 39.40625 42.65625 34.8125 
Q 38.578125 30.21875 29.109375 22.21875 
Q 21.1875 15.578125 18.9375 13.203125 
Q 16.703125 10.84375 15.234375 8.453125 
z
" id="ArialMT-50"/>
      </defs>
      <g transform="translate(47.781058 136.219583)scale(0.07497 -0.07497)">
       <use transform="translate(0 0.99375)" xlink:href="#ArialMT-49"/>
       <use transform="translate(55.615234 0.99375)" xlink:href="#ArialMT-48"/>
       <use transform="translate(112.972813 70.6875)scale(0.7)" xlink:href="#ArialMT-8722"/>
       <use transform="translate(153.851719 70.6875)scale(0.7)" xlink:href="#ArialMT-50"/>
      </g>
     </g>
    </g>
    <g id="xtick_3">
     <g id="line2d_3">
      <g>
       <use style="stroke:#000000;stroke-width:0.8;" x="75.314937" xlink:href="#mfb0637967e" y="123.988301"/>
      </g>
     </g>
     <g id="text_3">
      <!-- $\mathdefault{10^{-1}}$ -->
      <g transform="translate(67.892907 136.219583)scale(0.07497 -0.07497)">
       <use transform="translate(0 0.99375)" xlink:href="#ArialMT-49"/>
       <use transform="translate(55.615234 0.99375)" xlink:href="#ArialMT-48"/>
       <use transform="translate(112.972813 70.6875)scale(0.7)" xlink:href="#ArialMT-8722"/>
       <use transform="translate(153.851719 70.6875)scale(0.7)" xlink:href="#ArialMT-49"/>
      </g>
     </g>
    </g>
    <g id="xtick_4">
     <g id="line2d_4">
      <g>
       <use style="stroke:#000000;stroke-width:0.8;" x="95.426785" xlink:href="#mfb0637967e" y="123.988301"/>
      </g>
     </g>
     <g id="text_4">
      <!-- $\mathdefault{10^{0}}$ -->
      <g transform="translate(89.54164 136.219583)scale(0.07497 -0.07497)">
       <use transform="translate(0 0.99375)" xlink:href="#ArialMT-49"/>
       <use transform="translate(55.615234 0.99375)" xlink:href="#ArialMT-48"/>
       <use transform="translate(112.972813 70.6875)scale(0.7)" xlink:href="#ArialMT-48"/>
      </g>
     </g>
    </g>
    <g id="xtick_5">
     <g id="line2d_5">
      <g>
       <use style="stroke:#000000;stroke-width:0.8;" x="115.538633" xlink:href="#mfb0637967e" y="123.988301"/>
      </g>
     </g>
     <g id="text_5">
      <!-- $\mathdefault{10^{1}}$ -->
      <g transform="translate(109.653488 136.219583)scale(0.07497 -0.07497)">
       <use transform="translate(0 0.99375)" xlink:href="#ArialMT-49"/>
       <use transform="translate(55.615234 0.99375)" xlink:href="#ArialMT-48"/>
       <use transform="translate(112.972813 70.6875)scale(0.7)" xlink:href="#ArialMT-49"/>
      </g>
     </g>
    </g>
    <g id="xtick_6">
     <g id="line2d_6">
      <g>
       <use style="stroke:#000000;stroke-width:0.8;" x="135.650482" xlink:href="#mfb0637967e" y="123.988301"/>
      </g>
     </g>
     <g id="text_6">
      <!-- $\mathdefault{10^{2}}$ -->
      <g transform="translate(129.765337 136.219583)scale(0.07497 -0.07497)">
       <use transform="translate(0 0.99375)" xlink:href="#ArialMT-49"/>
       <use transform="translate(55.615234 0.99375)" xlink:href="#ArialMT-48"/>
       <use transform="translate(112.972813 70.6875)scale(0.7)" xlink:href="#ArialMT-50"/>
      </g>
     </g>
    </g>
    <g id="xtick_7">
     <g id="line2d_7">
      <g>
       <use style="stroke:#000000;stroke-width:0.8;" x="155.76233" xlink:href="#mfb0637967e" y="123.988301"/>
      </g>
     </g>
     <g id="text_7">
      <!-- $\mathdefault{10^{3}}$ -->
      <g transform="translate(149.877185 136.219583)scale(0.07497 -0.07497)">
       <use transform="translate(0 0.99375)" xlink:href="#ArialMT-49"/>
       <use transform="translate(55.615234 0.99375)" xlink:href="#ArialMT-48"/>
       <use transform="translate(112.972813 70.6875)scale(0.7)" xlink:href="#ArialMT-51"/>
      </g>
     </g>
    </g>
    <g id="xtick_8">
     <g id="line2d_8">
      <g>
       <use style="stroke:#000000;stroke-width:0.8;" x="175.874178" xlink:href="#mfb0637967e" y="123.988301"/>
      </g>
     </g>
     <g id="text_8">
      <!-- $\mathdefault{10^{4}}$ -->
      <defs>
       <path d="M 32.328125 0 
L 32.328125 17.140625 
L 1.265625 17.140625 
L 1.265625 25.203125 
L 33.9375 71.578125 
L 41.109375 71.578125 
L 41.109375 25.203125 
L 50.78125 25.203125 
L 50.78125 17.140625 
L 41.109375 17.140625 
L 41.109375 0 
z
M 32.328125 25.203125 
L 32.328125 57.46875 
L 9.90625 25.203125 
z
" id="ArialMT-52"/>
      </defs>
      <g transform="translate(169.989033 136.144613)scale(0.07497 -0.07497)">
       <use transform="translate(0 0.201563)" xlink:href="#ArialMT-49"/>
       <use transform="translate(55.615234 0.201563)" xlink:href="#ArialMT-48"/>
       <use transform="translate(112.972813 69.895313)scale(0.7)" xlink:href="#ArialMT-52"/>
      </g>
     </g>
    </g>
    <g id="xtick_9">
     <g id="line2d_9">
      <g>
       <use style="stroke:#000000;stroke-width:0.8;" x="195.986026" xlink:href="#mfb0637967e" y="123.988301"/>
      </g>
     </g>
     <g id="text_9">
      <!-- $\mathdefault{10^{5}}$ -->
      <defs>
       <path d="M 4.15625 18.75 
L 13.375 19.53125 
Q 14.40625 12.796875 18.140625 9.390625 
Q 21.875 6 27.15625 6 
Q 33.5 6 37.890625 10.78125 
Q 42.28125 15.578125 42.28125 23.484375 
Q 42.28125 31 38.0625 35.34375 
Q 33.84375 39.703125 27 39.703125 
Q 22.75 39.703125 19.328125 37.765625 
Q 15.921875 35.84375 13.96875 32.765625 
L 5.71875 33.84375 
L 12.640625 70.609375 
L 48.25 70.609375 
L 48.25 62.203125 
L 19.671875 62.203125 
L 15.828125 42.96875 
Q 22.265625 47.46875 29.34375 47.46875 
Q 38.71875 47.46875 45.15625 40.96875 
Q 51.609375 34.46875 51.609375 24.265625 
Q 51.609375 14.546875 45.953125 7.46875 
Q 39.0625 -1.21875 27.15625 -1.21875 
Q 17.390625 -1.21875 11.203125 4.25 
Q 5.03125 9.71875 4.15625 18.75 
z
" id="ArialMT-53"/>
      </defs>
      <g transform="translate(190.100881 136.144613)scale(0.07497 -0.07497)">
       <use transform="translate(0 0.879688)" xlink:href="#ArialMT-49"/>
       <use transform="translate(55.615234 0.879688)" xlink:href="#ArialMT-48"/>
       <use transform="translate(112.972813 70.573438)scale(0.7)" xlink:href="#ArialMT-53"/>
      </g>
     </g>
    </g>
    <g id="text_10">
     <!-- Clone size $C/C_0$ -->
     <defs>
      <path d="M 58.796875 25.09375 
L 68.265625 22.703125 
Q 65.28125 11.03125 57.546875 4.90625 
Q 49.8125 -1.21875 38.625 -1.21875 
Q 27.046875 -1.21875 19.796875 3.484375 
Q 12.546875 8.203125 8.765625 17.140625 
Q 4.984375 26.078125 4.984375 36.328125 
Q 4.984375 47.515625 9.25 55.828125 
Q 13.53125 64.15625 21.40625 68.46875 
Q 29.296875 72.796875 38.765625 72.796875 
Q 49.515625 72.796875 56.828125 67.328125 
Q 64.15625 61.859375 67.046875 51.953125 
L 57.71875 49.75 
Q 55.21875 57.5625 50.484375 61.125 
Q 45.75 64.703125 38.578125 64.703125 
Q 30.328125 64.703125 24.78125 60.734375 
Q 19.234375 56.78125 16.984375 50.109375 
Q 14.75 43.453125 14.75 36.375 
Q 14.75 27.25 17.40625 20.4375 
Q 20.0625 13.625 25.671875 10.25 
Q 31.296875 6.890625 37.84375 6.890625 
Q 45.796875 6.890625 51.3125 11.46875 
Q 56.84375 16.0625 58.796875 25.09375 
z
" id="ArialMT-67"/>
      <path d="M 6.390625 0 
L 6.390625 71.578125 
L 15.1875 71.578125 
L 15.1875 0 
z
" id="ArialMT-108"/>
      <path d="M 3.328125 25.921875 
Q 3.328125 40.328125 11.328125 47.265625 
Q 18.015625 53.03125 27.640625 53.03125 
Q 38.328125 53.03125 45.109375 46.015625 
Q 51.90625 39.015625 51.90625 26.65625 
Q 51.90625 16.65625 48.90625 10.90625 
Q 45.90625 5.171875 40.15625 2 
Q 34.421875 -1.171875 27.640625 -1.171875 
Q 16.75 -1.171875 10.03125 5.8125 
Q 3.328125 12.796875 3.328125 25.921875 
z
M 12.359375 25.921875 
Q 12.359375 15.96875 16.703125 11.015625 
Q 21.046875 6.0625 27.640625 6.0625 
Q 34.1875 6.0625 38.53125 11.03125 
Q 42.875 16.015625 42.875 26.21875 
Q 42.875 35.84375 38.5 40.796875 
Q 34.125 45.75 27.640625 45.75 
Q 21.046875 45.75 16.703125 40.8125 
Q 12.359375 35.890625 12.359375 25.921875 
z
" id="ArialMT-111"/>
      <path d="M 6.59375 0 
L 6.59375 51.859375 
L 14.5 51.859375 
L 14.5 44.484375 
Q 20.21875 53.03125 31 53.03125 
Q 35.6875 53.03125 39.625 51.34375 
Q 43.5625 49.65625 45.515625 46.921875 
Q 47.46875 44.1875 48.25 40.4375 
Q 48.734375 37.984375 48.734375 31.890625 
L 48.734375 0 
L 39.9375 0 
L 39.9375 31.546875 
Q 39.9375 36.921875 38.90625 39.578125 
Q 37.890625 42.234375 35.28125 43.8125 
Q 32.671875 45.40625 29.15625 45.40625 
Q 23.53125 45.40625 19.453125 41.84375 
Q 15.375 38.28125 15.375 28.328125 
L 15.375 0 
z
" id="ArialMT-110"/>
      <path d="M 42.09375 16.703125 
L 51.171875 15.578125 
Q 49.03125 7.625 43.21875 3.21875 
Q 37.40625 -1.171875 28.375 -1.171875 
Q 17 -1.171875 10.328125 5.828125 
Q 3.65625 12.84375 3.65625 25.484375 
Q 3.65625 38.578125 10.390625 45.796875 
Q 17.140625 53.03125 27.875 53.03125 
Q 38.28125 53.03125 44.875 45.953125 
Q 51.46875 38.875 51.46875 26.03125 
Q 51.46875 25.25 51.421875 23.6875 
L 12.75 23.6875 
Q 13.234375 15.140625 17.578125 10.59375 
Q 21.921875 6.0625 28.421875 6.0625 
Q 33.25 6.0625 36.671875 8.59375 
Q 40.09375 11.140625 42.09375 16.703125 
z
M 13.234375 30.90625 
L 42.1875 30.90625 
Q 41.609375 37.453125 38.875 40.71875 
Q 34.671875 45.796875 27.984375 45.796875 
Q 21.921875 45.796875 17.796875 41.75 
Q 13.671875 37.703125 13.234375 30.90625 
z
" id="ArialMT-101"/>
      <path id="ArialMT-32"/>
      <path d="M 3.078125 15.484375 
L 11.765625 16.84375 
Q 12.5 11.625 15.84375 8.84375 
Q 19.1875 6.0625 25.203125 6.0625 
Q 31.25 6.0625 34.171875 8.515625 
Q 37.109375 10.984375 37.109375 14.3125 
Q 37.109375 17.28125 34.515625 19 
Q 32.71875 20.171875 25.53125 21.96875 
Q 15.875 24.421875 12.140625 26.203125 
Q 8.40625 27.984375 6.46875 31.125 
Q 4.546875 34.28125 4.546875 38.09375 
Q 4.546875 41.546875 6.125 44.5 
Q 7.71875 47.46875 10.453125 49.421875 
Q 12.5 50.921875 16.03125 51.96875 
Q 19.578125 53.03125 23.640625 53.03125 
Q 29.734375 53.03125 34.34375 51.265625 
Q 38.96875 49.515625 41.15625 46.5 
Q 43.359375 43.5 44.1875 38.484375 
L 35.59375 37.3125 
Q 35.015625 41.3125 32.203125 43.546875 
Q 29.390625 45.796875 24.265625 45.796875 
Q 18.21875 45.796875 15.625 43.796875 
Q 13.03125 41.796875 13.03125 39.109375 
Q 13.03125 37.40625 14.109375 36.03125 
Q 15.1875 34.625 17.484375 33.6875 
Q 18.796875 33.203125 25.25 31.453125 
Q 34.578125 28.953125 38.25 27.359375 
Q 41.9375 25.78125 44.03125 22.75 
Q 46.140625 19.734375 46.140625 15.234375 
Q 46.140625 10.84375 43.578125 6.953125 
Q 41.015625 3.078125 36.171875 0.953125 
Q 31.34375 -1.171875 25.25 -1.171875 
Q 15.140625 -1.171875 9.84375 3.03125 
Q 4.546875 7.234375 3.078125 15.484375 
z
" id="ArialMT-115"/>
      <path d="M 6.640625 61.46875 
L 6.640625 71.578125 
L 15.4375 71.578125 
L 15.4375 61.46875 
z
M 6.640625 0 
L 6.640625 51.859375 
L 15.4375 51.859375 
L 15.4375 0 
z
" id="ArialMT-105"/>
      <path d="M 1.953125 0 
L 1.953125 7.125 
L 34.96875 45.015625 
Q 29.34375 44.734375 25.046875 44.734375 
L 3.90625 44.734375 
L 3.90625 51.859375 
L 46.296875 51.859375 
L 46.296875 46.046875 
L 18.21875 13.140625 
L 12.796875 7.125 
Q 18.703125 7.5625 23.875 7.5625 
L 47.859375 7.5625 
L 47.859375 0 
z
" id="ArialMT-122"/>
      <path d="M 69.484375 67.28125 
L 67.484375 56.890625 
Q 62.796875 61.625 57.546875 63.921875 
Q 52.296875 66.21875 46.1875 66.21875 
Q 37.84375 66.21875 31.515625 62.203125 
Q 25.203125 58.203125 20.609375 50 
Q 17.671875 44.734375 16.125 38.84375 
Q 14.59375 32.953125 14.59375 27 
Q 14.59375 17.046875 19.75 11.8125 
Q 24.90625 6.59375 34.71875 6.59375 
Q 41.5 6.59375 47.75 8.765625 
Q 54 10.9375 59.90625 15.28125 
L 57.625 3.609375 
Q 51.8125 1.125 45.875 -0.140625 
Q 39.9375 -1.421875 33.984375 -1.421875 
Q 19.96875 -1.421875 12.078125 6.1875 
Q 4.203125 13.8125 4.203125 27.390625 
Q 4.203125 36.078125 7.203125 44.46875 
Q 10.203125 52.875 15.828125 59.8125 
Q 21.78125 67.1875 29.421875 70.703125 
Q 37.0625 74.21875 47.21875 74.21875 
Q 53.46875 74.21875 59.0625 72.484375 
Q 64.65625 70.75 69.484375 67.28125 
z
" id="DejaVuSans-Oblique-67"/>
      <path d="M 25.390625 72.90625 
L 33.6875 72.90625 
L 8.296875 -9.28125 
L 0 -9.28125 
z
" id="DejaVuSans-47"/>
      <path d="M 31.78125 66.40625 
Q 24.171875 66.40625 20.328125 58.90625 
Q 16.5 51.421875 16.5 36.375 
Q 16.5 21.390625 20.328125 13.890625 
Q 24.171875 6.390625 31.78125 6.390625 
Q 39.453125 6.390625 43.28125 13.890625 
Q 47.125 21.390625 47.125 36.375 
Q 47.125 51.421875 43.28125 58.90625 
Q 39.453125 66.40625 31.78125 66.40625 
z
M 31.78125 74.21875 
Q 44.046875 74.21875 50.515625 64.515625 
Q 56.984375 54.828125 56.984375 36.375 
Q 56.984375 17.96875 50.515625 8.265625 
Q 44.046875 -1.421875 31.78125 -1.421875 
Q 19.53125 -1.421875 13.0625 8.265625 
Q 6.59375 17.96875 6.59375 36.375 
Q 6.59375 54.828125 13.0625 64.515625 
Q 19.53125 74.21875 31.78125 74.21875 
z
" id="DejaVuSans-48"/>
     </defs>
     <g transform="translate(88.699373 144.691793)scale(0.07497 -0.07497)">
      <use transform="translate(0 0.78125)" xlink:href="#ArialMT-67"/>
      <use transform="translate(72.216797 0.78125)" xlink:href="#ArialMT-108"/>
      <use transform="translate(94.433594 0.78125)" xlink:href="#ArialMT-111"/>
      <use transform="translate(150.048828 0.78125)" xlink:href="#ArialMT-110"/>
      <use transform="translate(205.664062 0.78125)" xlink:href="#ArialMT-101"/>
      <use transform="translate(261.279297 0.78125)" xlink:href="#ArialMT-32"/>
      <use transform="translate(289.0625 0.78125)" xlink:href="#ArialMT-115"/>
      <use transform="translate(339.0625 0.78125)" xlink:href="#ArialMT-105"/>
      <use transform="translate(361.279297 0.78125)" xlink:href="#ArialMT-122"/>
      <use transform="translate(411.279297 0.78125)" xlink:href="#ArialMT-101"/>
      <use transform="translate(466.894531 0.78125)" xlink:href="#ArialMT-32"/>
      <use transform="translate(494.677734 0.78125)" xlink:href="#DejaVuSans-Oblique-67"/>
      <use transform="translate(564.501953 0.78125)" xlink:href="#DejaVuSans-47"/>
      <use transform="translate(598.193359 0.78125)" xlink:href="#DejaVuSans-Oblique-67"/>
      <use transform="translate(668.017578 -15.625)scale(0.7)" xlink:href="#DejaVuSans-48"/>
     </g>
    </g>
   </g>
   <g id="matplotlib.axis_2">
    <g id="ytick_1">
     <g id="line2d_10">
      <defs>
       <path d="M 2 0 
L -2 -0 
" id="m3c243ea686" style="stroke:#000000;stroke-width:0.8;"/>
      </defs>
      <g>
       <use style="stroke:#000000;stroke-width:0.8;" x="35.09124" xlink:href="#m3c243ea686" y="123.988301"/>
      </g>
     </g>
     <g id="text_11">
      <!-- $\mathdefault{10^{-7}}$ -->
      <defs>
       <path d="M 4.734375 62.203125 
L 4.734375 70.65625 
L 51.078125 70.65625 
L 51.078125 63.8125 
Q 44.234375 56.546875 37.515625 44.484375 
Q 30.8125 32.421875 27.15625 19.671875 
Q 24.515625 10.6875 23.78125 0 
L 14.75 0 
Q 14.890625 8.453125 18.0625 20.40625 
Q 21.234375 32.375 27.171875 43.484375 
Q 33.109375 54.59375 39.796875 62.203125 
z
" id="ArialMT-55"/>
      </defs>
      <g transform="translate(15.74718 127.816457)scale(0.07497 -0.07497)">
       <use transform="translate(0 0.846875)" xlink:href="#ArialMT-49"/>
       <use transform="translate(55.615234 0.846875)" xlink:href="#ArialMT-48"/>
       <use transform="translate(112.972813 70.540625)scale(0.7)" xlink:href="#ArialMT-8722"/>
       <use transform="translate(153.851719 70.540625)scale(0.7)" xlink:href="#ArialMT-55"/>
      </g>
     </g>
    </g>
    <g id="ytick_2">
     <g id="line2d_11">
      <g>
       <use style="stroke:#000000;stroke-width:0.8;" x="35.09124" xlink:href="#m3c243ea686" y="107.992161"/>
      </g>
     </g>
     <g id="text_12">
      <!-- $\mathdefault{10^{-6}}$ -->
      <defs>
       <path d="M 49.75 54.046875 
L 41.015625 53.375 
Q 39.84375 58.546875 37.703125 60.890625 
Q 34.125 64.65625 28.90625 64.65625 
Q 24.703125 64.65625 21.53125 62.3125 
Q 17.390625 59.28125 14.984375 53.46875 
Q 12.59375 47.65625 12.5 36.921875 
Q 15.671875 41.75 20.265625 44.09375 
Q 24.859375 46.4375 29.890625 46.4375 
Q 38.671875 46.4375 44.84375 39.96875 
Q 51.03125 33.5 51.03125 23.25 
Q 51.03125 16.5 48.125 10.71875 
Q 45.21875 4.9375 40.140625 1.859375 
Q 35.0625 -1.21875 28.609375 -1.21875 
Q 17.625 -1.21875 10.6875 6.859375 
Q 3.765625 14.9375 3.765625 33.5 
Q 3.765625 54.25 11.421875 63.671875 
Q 18.109375 71.875 29.4375 71.875 
Q 37.890625 71.875 43.28125 67.140625 
Q 48.6875 62.40625 49.75 54.046875 
z
M 13.875 23.1875 
Q 13.875 18.65625 15.796875 14.5 
Q 17.71875 10.359375 21.1875 8.171875 
Q 24.65625 6 28.46875 6 
Q 34.03125 6 38.03125 10.484375 
Q 42.046875 14.984375 42.046875 22.703125 
Q 42.046875 30.125 38.078125 34.390625 
Q 34.125 38.671875 28.125 38.671875 
Q 22.171875 38.671875 18.015625 34.390625 
Q 13.875 30.125 13.875 23.1875 
z
" id="ArialMT-54"/>
      </defs>
      <g transform="translate(15.74718 111.857801)scale(0.07497 -0.07497)">
       <use transform="translate(0 0.99375)" xlink:href="#ArialMT-49"/>
       <use transform="translate(55.615234 0.99375)" xlink:href="#ArialMT-48"/>
       <use transform="translate(112.972813 70.6875)scale(0.7)" xlink:href="#ArialMT-8722"/>
       <use transform="translate(153.851719 70.6875)scale(0.7)" xlink:href="#ArialMT-54"/>
      </g>
     </g>
    </g>
    <g id="ytick_3">
     <g id="line2d_12">
      <g>
       <use style="stroke:#000000;stroke-width:0.8;" x="35.09124" xlink:href="#m3c243ea686" y="91.99602"/>
      </g>
     </g>
     <g id="text_13">
      <!-- $\mathdefault{10^{-5}}$ -->
      <g transform="translate(15.74718 95.824176)scale(0.07497 -0.07497)">
       <use transform="translate(0 0.879688)" xlink:href="#ArialMT-49"/>
       <use transform="translate(55.615234 0.879688)" xlink:href="#ArialMT-48"/>
       <use transform="translate(112.972813 70.573438)scale(0.7)" xlink:href="#ArialMT-8722"/>
       <use transform="translate(153.851719 70.573438)scale(0.7)" xlink:href="#ArialMT-53"/>
      </g>
     </g>
    </g>
    <g id="ytick_4">
     <g id="line2d_13">
      <g>
       <use style="stroke:#000000;stroke-width:0.8;" x="35.09124" xlink:href="#m3c243ea686" y="75.99988"/>
      </g>
     </g>
     <g id="text_14">
      <!-- $\mathdefault{10^{-4}}$ -->
      <g transform="translate(15.74718 79.828036)scale(0.07497 -0.07497)">
       <use transform="translate(0 0.201563)" xlink:href="#ArialMT-49"/>
       <use transform="translate(55.615234 0.201563)" xlink:href="#ArialMT-48"/>
       <use transform="translate(112.972813 69.895313)scale(0.7)" xlink:href="#ArialMT-8722"/>
       <use transform="translate(153.851719 69.895313)scale(0.7)" xlink:href="#ArialMT-52"/>
      </g>
     </g>
    </g>
    <g id="ytick_5">
     <g id="line2d_14">
      <g>
       <use style="stroke:#000000;stroke-width:0.8;" x="35.09124" xlink:href="#m3c243ea686" y="60.003739"/>
      </g>
     </g>
     <g id="text_15">
      <!-- $\mathdefault{10^{-3}}$ -->
      <g transform="translate(15.74718 63.86938)scale(0.07497 -0.07497)">
       <use transform="translate(0 0.99375)" xlink:href="#ArialMT-49"/>
       <use transform="translate(55.615234 0.99375)" xlink:href="#ArialMT-48"/>
       <use transform="translate(112.972813 70.6875)scale(0.7)" xlink:href="#ArialMT-8722"/>
       <use transform="translate(153.851719 70.6875)scale(0.7)" xlink:href="#ArialMT-51"/>
      </g>
     </g>
    </g>
    <g id="ytick_6">
     <g id="line2d_15">
      <g>
       <use style="stroke:#000000;stroke-width:0.8;" x="35.09124" xlink:href="#m3c243ea686" y="44.007599"/>
      </g>
     </g>
     <g id="text_16">
      <!-- $\mathdefault{10^{-2}}$ -->
      <g transform="translate(15.74718 47.87324)scale(0.07497 -0.07497)">
       <use transform="translate(0 0.99375)" xlink:href="#ArialMT-49"/>
       <use transform="translate(55.615234 0.99375)" xlink:href="#ArialMT-48"/>
       <use transform="translate(112.972813 70.6875)scale(0.7)" xlink:href="#ArialMT-8722"/>
       <use transform="translate(153.851719 70.6875)scale(0.7)" xlink:href="#ArialMT-50"/>
      </g>
     </g>
    </g>
    <g id="ytick_7">
     <g id="line2d_16">
      <g>
       <use style="stroke:#000000;stroke-width:0.8;" x="35.09124" xlink:href="#m3c243ea686" y="28.011459"/>
      </g>
     </g>
     <g id="text_17">
      <!-- $\mathdefault{10^{-1}}$ -->
      <g transform="translate(15.74718 31.877099)scale(0.07497 -0.07497)">
       <use transform="translate(0 0.99375)" xlink:href="#ArialMT-49"/>
       <use transform="translate(55.615234 0.99375)" xlink:href="#ArialMT-48"/>
       <use transform="translate(112.972813 70.6875)scale(0.7)" xlink:href="#ArialMT-8722"/>
       <use transform="translate(153.851719 70.6875)scale(0.7)" xlink:href="#ArialMT-49"/>
      </g>
     </g>
    </g>
    <g id="ytick_8">
     <g id="line2d_17">
      <g>
       <use style="stroke:#000000;stroke-width:0.8;" x="35.09124" xlink:href="#m3c243ea686" y="12.015318"/>
      </g>
     </g>
     <g id="text_18">
      <!-- $\mathdefault{10^{0}}$ -->
      <g transform="translate(18.82095 15.880959)scale(0.07497 -0.07497)">
       <use transform="translate(0 0.99375)" xlink:href="#ArialMT-49"/>
       <use transform="translate(55.615234 0.99375)" xlink:href="#ArialMT-48"/>
       <use transform="translate(112.972813 70.6875)scale(0.7)" xlink:href="#ArialMT-48"/>
      </g>
     </g>
    </g>
    <g id="text_19">
     <!-- $P(\mathrm{Clone} &gt; C/C_0)$ -->
     <defs>
      <path d="M 16.890625 72.90625 
L 39.703125 72.90625 
Q 49.65625 72.90625 54.875 68.265625 
Q 60.109375 63.625 60.109375 54.6875 
Q 60.109375 42.671875 52.390625 35.984375 
Q 44.671875 29.296875 30.71875 29.296875 
L 18.3125 29.296875 
L 12.59375 0 
L 2.6875 0 
z
M 25.203125 64.796875 
L 19.921875 37.40625 
L 32.328125 37.40625 
Q 40.71875 37.40625 45.203125 41.703125 
Q 49.703125 46 49.703125 54 
Q 49.703125 59.125 46.65625 61.953125 
Q 43.609375 64.796875 38.09375 64.796875 
z
" id="DejaVuSans-Oblique-80"/>
      <path d="M 31 75.875 
Q 24.46875 64.65625 21.28125 53.65625 
Q 18.109375 42.671875 18.109375 31.390625 
Q 18.109375 20.125 21.3125 9.0625 
Q 24.515625 -2 31 -13.1875 
L 23.1875 -13.1875 
Q 15.875 -1.703125 12.234375 9.375 
Q 8.59375 20.453125 8.59375 31.390625 
Q 8.59375 42.28125 12.203125 53.3125 
Q 15.828125 64.359375 23.1875 75.875 
z
" id="DejaVuSans-40"/>
      <path d="M 64.40625 67.28125 
L 64.40625 56.890625 
Q 59.421875 61.53125 53.78125 63.8125 
Q 48.140625 66.109375 41.796875 66.109375 
Q 29.296875 66.109375 22.65625 58.46875 
Q 16.015625 50.828125 16.015625 36.375 
Q 16.015625 21.96875 22.65625 14.328125 
Q 29.296875 6.6875 41.796875 6.6875 
Q 48.140625 6.6875 53.78125 8.984375 
Q 59.421875 11.28125 64.40625 15.921875 
L 64.40625 5.609375 
Q 59.234375 2.09375 53.4375 0.328125 
Q 47.65625 -1.421875 41.21875 -1.421875 
Q 24.65625 -1.421875 15.125 8.703125 
Q 5.609375 18.84375 5.609375 36.375 
Q 5.609375 53.953125 15.125 64.078125 
Q 24.65625 74.21875 41.21875 74.21875 
Q 47.75 74.21875 53.53125 72.484375 
Q 59.328125 70.75 64.40625 67.28125 
z
" id="DejaVuSans-67"/>
      <path d="M 9.421875 75.984375 
L 18.40625 75.984375 
L 18.40625 0 
L 9.421875 0 
z
" id="DejaVuSans-108"/>
      <path d="M 30.609375 48.390625 
Q 23.390625 48.390625 19.1875 42.75 
Q 14.984375 37.109375 14.984375 27.296875 
Q 14.984375 17.484375 19.15625 11.84375 
Q 23.34375 6.203125 30.609375 6.203125 
Q 37.796875 6.203125 41.984375 11.859375 
Q 46.1875 17.53125 46.1875 27.296875 
Q 46.1875 37.015625 41.984375 42.703125 
Q 37.796875 48.390625 30.609375 48.390625 
z
M 30.609375 56 
Q 42.328125 56 49.015625 48.375 
Q 55.71875 40.765625 55.71875 27.296875 
Q 55.71875 13.875 49.015625 6.21875 
Q 42.328125 -1.421875 30.609375 -1.421875 
Q 18.84375 -1.421875 12.171875 6.21875 
Q 5.515625 13.875 5.515625 27.296875 
Q 5.515625 40.765625 12.171875 48.375 
Q 18.84375 56 30.609375 56 
z
" id="DejaVuSans-111"/>
      <path d="M 54.890625 33.015625 
L 54.890625 0 
L 45.90625 0 
L 45.90625 32.71875 
Q 45.90625 40.484375 42.875 44.328125 
Q 39.84375 48.1875 33.796875 48.1875 
Q 26.515625 48.1875 22.3125 43.546875 
Q 18.109375 38.921875 18.109375 30.90625 
L 18.109375 0 
L 9.078125 0 
L 9.078125 54.6875 
L 18.109375 54.6875 
L 18.109375 46.1875 
Q 21.34375 51.125 25.703125 53.5625 
Q 30.078125 56 35.796875 56 
Q 45.21875 56 50.046875 50.171875 
Q 54.890625 44.34375 54.890625 33.015625 
z
" id="DejaVuSans-110"/>
      <path d="M 56.203125 29.59375 
L 56.203125 25.203125 
L 14.890625 25.203125 
Q 15.484375 15.921875 20.484375 11.0625 
Q 25.484375 6.203125 34.421875 6.203125 
Q 39.59375 6.203125 44.453125 7.46875 
Q 49.3125 8.734375 54.109375 11.28125 
L 54.109375 2.78125 
Q 49.265625 0.734375 44.1875 -0.34375 
Q 39.109375 -1.421875 33.890625 -1.421875 
Q 20.796875 -1.421875 13.15625 6.1875 
Q 5.515625 13.8125 5.515625 26.8125 
Q 5.515625 40.234375 12.765625 48.109375 
Q 20.015625 56 32.328125 56 
Q 43.359375 56 49.78125 48.890625 
Q 56.203125 41.796875 56.203125 29.59375 
z
M 47.21875 32.234375 
Q 47.125 39.59375 43.09375 43.984375 
Q 39.0625 48.390625 32.421875 48.390625 
Q 24.90625 48.390625 20.390625 44.140625 
Q 15.875 39.890625 15.1875 32.171875 
z
" id="DejaVuSans-101"/>
      <path d="M 10.59375 49.21875 
L 10.59375 58.109375 
L 73.1875 35.40625 
L 73.1875 27.296875 
L 10.59375 4.59375 
L 10.59375 13.484375 
L 60.890625 31.296875 
z
" id="DejaVuSans-62"/>
      <path d="M 8.015625 75.875 
L 15.828125 75.875 
Q 23.140625 64.359375 26.78125 53.3125 
Q 30.421875 42.28125 30.421875 31.390625 
Q 30.421875 20.453125 26.78125 9.375 
Q 23.140625 -1.703125 15.828125 -13.1875 
L 8.015625 -13.1875 
Q 14.5 -2 17.703125 9.0625 
Q 20.90625 20.125 20.90625 31.390625 
Q 20.90625 42.671875 17.703125 53.65625 
Q 14.5 64.65625 8.015625 75.875 
z
" id="DejaVuSans-41"/>
     </defs>
     <g transform="translate(12.757151 94.307661)rotate(-90)scale(0.07497 -0.07497)">
      <use transform="translate(0 0.015625)" xlink:href="#DejaVuSans-Oblique-80"/>
      <use transform="translate(60.302734 0.015625)" xlink:href="#DejaVuSans-40"/>
      <use transform="translate(99.316406 0.015625)" xlink:href="#DejaVuSans-67"/>
      <use transform="translate(169.140625 0.015625)" xlink:href="#DejaVuSans-108"/>
      <use transform="translate(196.923828 0.015625)" xlink:href="#DejaVuSans-111"/>
      <use transform="translate(258.105469 0.015625)" xlink:href="#DejaVuSans-110"/>
      <use transform="translate(321.484375 0.015625)" xlink:href="#DejaVuSans-101"/>
      <use transform="translate(402.490234 0.015625)" xlink:href="#DejaVuSans-62"/>
      <use transform="translate(505.761719 0.015625)" xlink:href="#DejaVuSans-Oblique-67"/>
      <use transform="translate(575.585938 0.015625)" xlink:href="#DejaVuSans-47"/>
      <use transform="translate(609.277344 0.015625)" xlink:href="#DejaVuSans-Oblique-67"/>
      <use transform="translate(679.101562 -16.390625)scale(0.7)" xlink:href="#DejaVuSans-48"/>
      <use transform="translate(726.37207 0.015625)" xlink:href="#DejaVuSans-41"/>
     </g>
    </g>
   </g>
   <g id="line2d_18">
    <path clip-path="url(#peb25506336)" d="M 35.09124 12.015318 
L 36.71644 12.015318 
L 38.34164 12.015318 
L 39.96684 12.015318 
L 41.592039 12.015318 
L 43.217239 12.015318 
L 44.842439 12.015318 
L 46.467639 12.015318 
L 48.092839 12.015318 
L 49.718039 12.015319 
L 51.343239 12.01532 
L 52.968438 12.015323 
L 54.593638 12.01533 
L 56.218838 12.015346 
L 57.844038 12.015383 
L 59.469238 12.01546 
L 61.094438 12.015621 
L 62.719638 12.015945 
L 64.344838 12.016579 
L 65.970037 12.017779 
L 67.595237 12.019981 
L 69.220437 12.023902 
L 70.845637 12.030679 
L 72.470837 12.042051 
L 74.096037 12.060591 
L 75.721237 12.089983 
L 77.346436 12.135344 
L 78.971636 12.203585 
L 80.596836 12.303824 
L 82.222036 12.447896 
L 83.847236 12.651032 
L 85.472436 12.93291 
L 87.097636 13.319418 
L 88.722835 13.845863 
L 90.348035 14.563203 
L 91.973235 15.551208 
L 93.598435 16.949787 
L 95.223635 19.049244 
L 96.848835 21.899523 
L 98.474035 24.895347 
L 100.099235 28.033232 
L 101.724434 31.319784 
L 103.349634 34.761249 
L 104.974834 38.363499 
L 106.600034 42.13203 
L 108.225234 46.071971 
L 109.850434 50.188087 
L 111.475634 54.484801 
L 113.100833 58.966204 
L 114.726033 63.636077 
L 116.351233 68.49791 
L 117.976433 73.554922 
L 119.601633 78.810079 
L 121.226833 84.266116 
L 122.852033 89.925553 
L 124.477232 95.79071 
L 126.102432 101.86373 
L 127.727632 108.146589 
L 129.352832 114.641109 
L 130.978032 121.348975 
L 132.603232 128.271745 
L 134.228432 135.41086 
L 135.853631 142.767655 
L 137.478831 150.343367 
L 138.320735 154.381821 
" style="fill:none;stroke:#440154;stroke-linecap:round;stroke-width:1.3;"/>
   </g>
   <g id="line2d_19">
    <path clip-path="url(#peb25506336)" d="M 35.09124 12.015332 
L 36.71644 12.015342 
L 38.34164 12.015362 
L 39.96684 12.015395 
L 41.592039 12.015452 
L 43.217239 12.015547 
L 44.842439 12.015704 
L 46.467639 12.015959 
L 48.092839 12.016365 
L 49.718039 12.017005 
L 51.343239 12.017994 
L 52.968438 12.019503 
L 54.593638 12.021768 
L 56.218838 12.025117 
L 57.844038 12.029995 
L 59.469238 12.036994 
L 61.094438 12.046893 
L 62.719638 12.060693 
L 64.344838 12.079662 
L 65.970037 12.105383 
L 67.595237 12.139798 
L 69.220437 12.18526 
L 70.845637 12.244586 
L 72.470837 12.321111 
L 74.096037 12.418756 
L 75.721237 12.54211 
L 77.346436 12.696538 
L 78.971636 12.888341 
L 80.596836 13.124986 
L 82.222036 13.415453 
L 83.847236 13.770774 
L 85.472436 14.204886 
L 87.097636 14.73602 
L 88.722835 15.38906 
L 90.348035 16.199788 
L 91.973235 17.223103 
L 93.598435 18.550693 
L 95.223635 20.355119 
L 96.848835 22.619556 
L 98.474035 24.953529 
L 100.099235 27.353534 
L 101.724434 29.822268 
L 103.349634 32.362325 
L 104.974834 34.976195 
L 106.600034 37.666256 
L 108.225234 40.434776 
L 109.850434 43.283914 
L 111.475634 46.215719 
L 113.100833 49.232131 
L 114.726033 52.334988 
L 116.351233 55.526025 
L 117.976433 58.806883 
L 119.601633 62.179105 
L 121.226833 65.644149 
L 122.852033 69.203387 
L 124.477232 72.85811 
L 126.102432 76.609534 
L 127.727632 80.458804 
L 129.352832 84.406997 
L 130.978032 88.455127 
L 132.603232 92.604146 
L 134.228432 96.854953 
L 135.853631 101.208395 
L 137.478831 105.665266 
L 139.104031 110.226318 
L 140.729231 114.892258 
L 142.354431 119.663754 
L 143.979631 124.541434 
L 145.604831 129.525892 
L 147.230031 134.617691 
L 148.85523 139.817359 
L 150.48043 145.125399 
L 152.10563 150.542284 
L 153.234804 154.381821 
" style="fill:none;stroke:#3d4d8a;stroke-linecap:round;stroke-width:1.3;"/>
   </g>
   <g id="line2d_20">
    <path clip-path="url(#peb25506336)" d="M 35.09124 12.026017 
L 36.71644 12.02947 
L 38.34164 12.033906 
L 39.96684 12.039563 
L 41.592039 12.046724 
L 43.217239 12.055725 
L 44.842439 12.066957 
L 46.467639 12.080877 
L 48.092839 12.098009 
L 49.718039 12.118951 
L 51.343239 12.144385 
L 52.968438 12.175076 
L 54.593638 12.21188 
L 56.218838 12.255749 
L 57.844038 12.307737 
L 59.469238 12.369005 
L 61.094438 12.440826 
L 62.719638 12.524595 
L 64.344838 12.621841 
L 65.970037 12.734236 
L 67.595237 12.863616 
L 69.220437 13.012006 
L 70.845637 13.18165 
L 72.470837 13.375059 
L 74.096037 13.595066 
L 75.721237 13.844907 
L 77.346436 14.128336 
L 78.971636 14.44977 
L 80.596836 14.814505 
L 82.222036 15.22902 
L 83.847236 15.701412 
L 85.472436 16.242065 
L 87.097636 16.864671 
L 88.722835 17.587896 
L 90.348035 18.438218 
L 91.973235 19.455099 
L 93.598435 20.70127 
L 95.223635 22.285705 
L 96.848835 24.171456 
L 98.474035 26.088652 
L 100.099235 28.034325 
L 101.724434 30.009637 
L 103.349634 32.015729 
L 104.974834 34.053712 
L 106.600034 36.124667 
L 108.225234 38.229645 
L 109.850434 40.369663 
L 111.475634 42.545705 
L 113.100833 44.758721 
L 114.726033 47.009626 
L 116.351233 49.299302 
L 117.976433 51.628596 
L 119.601633 53.99832 
L 121.226833 56.409254 
L 122.852033 58.862147 
L 124.477232 61.357713 
L 126.102432 63.896637 
L 127.727632 66.479574 
L 129.352832 69.107149 
L 130.978032 71.779962 
L 132.603232 74.498582 
L 134.228432 77.263556 
L 135.853631 80.075403 
L 137.478831 82.934622 
L 139.104031 85.841685 
L 140.729231 88.797046 
L 142.354431 91.801137 
L 143.979631 94.85437 
L 145.604831 97.957139 
L 147.230031 101.10982 
L 148.85523 104.312771 
L 150.48043 107.566336 
L 152.10563 110.870841 
L 153.73083 114.2266 
L 155.35603 117.633911 
L 156.98123 121.093061 
L 158.60643 124.604321 
L 160.231629 128.167955 
L 161.856829 131.784211 
L 163.482029 135.45333 
L 165.107229 139.175539 
L 166.732429 142.95106 
L 168.357629 146.780101 
L 169.982829 150.662864 
L 171.518145 154.381821 
" style="fill:none;stroke:#24878e;stroke-linecap:round;stroke-width:1.3;"/>
   </g>
   <g id="line2d_21">
    <path clip-path="url(#peb25506336)" d="M 35.09124 12.761317 
L 36.71644 12.835615 
L 38.34164 12.915724 
L 39.96684 13.001966 
L 41.592039 13.094677 
L 43.217239 13.194204 
L 44.842439 13.300914 
L 46.467639 13.415187 
L 48.092839 13.537427 
L 49.718039 13.66806 
L 51.343239 13.807538 
L 52.968438 13.956343 
L 54.593638 14.114995 
L 56.218838 14.284055 
L 57.844038 14.464131 
L 59.469238 14.655891 
L 61.094438 14.860066 
L 62.719638 15.077471 
L 64.344838 15.309012 
L 65.970037 15.555709 
L 67.595237 15.818714 
L 69.220437 16.099343 
L 70.845637 16.399105 
L 72.470837 16.719752 
L 74.096037 17.063327 
L 75.721237 17.432241 
L 77.346436 17.829365 
L 78.971636 18.258157 
L 80.596836 18.722833 
L 82.222036 19.228604 
L 83.847236 19.782017 
L 85.472436 20.391449 
L 87.097636 21.067852 
L 88.722835 21.825931 
L 90.348035 22.686058 
L 91.973235 23.677614 
L 93.598435 24.845206 
L 95.223635 26.261396 
L 96.848835 27.884633 
L 98.474035 29.517013 
L 100.099235 31.155931 
L 101.724434 32.801735 
L 103.349634 34.454775 
L 104.974834 36.115407 
L 106.600034 37.783988 
L 108.225234 39.460875 
L 109.850434 41.146429 
L 111.475634 42.841007 
L 113.100833 44.544968 
L 114.726033 46.258669 
L 116.351233 47.982463 
L 117.976433 49.716702 
L 119.601633 51.461732 
L 121.226833 53.217899 
L 122.852033 54.985541 
L 124.477232 56.764992 
L 126.102432 58.55658 
L 127.727632 60.36063 
L 129.352832 62.177457 
L 130.978032 64.007373 
L 132.603232 65.85068 
L 134.228432 67.707677 
L 135.853631 69.578654 
L 137.478831 71.463894 
L 139.104031 73.363673 
L 140.729231 75.278261 
L 142.354431 77.207919 
L 143.979631 79.152903 
L 145.604831 81.113459 
L 147.230031 83.089829 
L 148.85523 85.082247 
L 150.48043 87.090938 
L 152.10563 89.116124 
L 153.73083 91.158016 
L 155.35603 93.216823 
L 156.98123 95.292743 
L 158.60643 97.385972 
L 160.231629 99.496695 
L 161.856829 101.625097 
L 163.482029 103.771351 
L 165.107229 105.935629 
L 166.732429 108.118094 
L 168.357629 110.318907 
L 169.982829 112.538221 
L 171.608028 114.776185 
L 173.233228 117.032943 
L 174.858428 119.308634 
L 176.483628 121.603394 
L 178.108828 123.917352 
L 179.734028 126.250634 
L 181.359228 128.603362 
L 182.984428 130.975654 
L 184.609627 133.367624 
L 186.234827 135.779382 
L 187.860027 138.211034 
L 189.485227 140.662683 
L 191.110427 143.13443 
L 192.735627 145.62637 
L 194.360827 148.138598 
L 195.986026 150.671203 
" style="fill:none;stroke:#67cc5c;stroke-linecap:round;stroke-width:1.3;"/>
   </g>
   <g id="line2d_22">
    <path clip-path="url(#peb25506336)" d="M 35.09124 15.457152 
L 36.71644 15.605603 
L 38.34164 15.759157 
L 39.96684 15.91801 
L 41.592039 16.082373 
L 43.217239 16.252479 
L 44.842439 16.428577 
L 46.467639 16.610942 
L 48.092839 16.799874 
L 49.718039 16.995701 
L 51.343239 17.198785 
L 52.968438 17.409525 
L 54.593638 17.62836 
L 56.218838 17.855779 
L 57.844038 18.092326 
L 59.469238 18.338606 
L 61.094438 18.595298 
L 62.719638 18.863165 
L 64.344838 19.143069 
L 65.970037 19.435985 
L 67.595237 19.743027 
L 69.220437 20.065471 
L 70.845637 20.404785 
L 72.470837 20.762674 
L 74.096037 21.14113 
L 75.721237 21.542499 
L 77.346436 21.96957 
L 78.971636 22.425694 
L 80.596836 22.914938 
L 82.222036 23.442313 
L 83.847236 24.014082 
L 85.472436 24.638213 
L 87.097636 25.325061 
L 88.722835 26.088424 
L 90.348035 26.947259 
L 91.973235 27.928618 
L 93.598435 29.073033 
L 95.223635 30.445277 
L 96.848835 32.003494 
L 98.474035 33.565301 
L 100.099235 35.128073 
L 101.724434 36.691879 
L 103.349634 38.256794 
L 104.974834 39.822894 
L 106.600034 41.390259 
L 108.225234 42.958973 
L 109.850434 44.529122 
L 111.475634 46.100798 
L 113.100833 47.674093 
L 114.726033 49.249105 
L 116.351233 50.825934 
L 117.976433 52.404682 
L 119.601633 53.985457 
L 121.226833 55.568366 
L 122.852033 57.153523 
L 124.477232 58.741041 
L 126.102432 60.331038 
L 127.727632 61.923633 
L 129.352832 63.518948 
L 130.978032 65.117107 
L 132.603232 66.718236 
L 134.228432 68.322461 
L 135.853631 69.929914 
L 137.478831 71.540722 
L 139.104031 73.15502 
L 140.729231 74.772939 
L 142.354431 76.394614 
L 143.979631 78.020179 
L 145.604831 79.649768 
L 147.230031 81.283518 
L 148.85523 82.921564 
L 150.48043 84.564042 
L 152.10563 86.211086 
L 153.73083 87.862833 
L 155.35603 89.519417 
L 156.98123 91.180972 
L 158.60643 92.847632 
L 160.231629 94.519529 
L 161.856829 96.196796 
L 163.482029 97.879561 
L 165.107229 99.567956 
L 166.732429 101.262107 
L 168.357629 102.962142 
L 169.982829 104.668186 
L 171.608028 106.380362 
L 173.233228 108.098791 
L 174.858428 109.823595 
L 176.483628 111.554891 
L 178.108828 113.292797 
L 179.734028 115.037426 
L 181.359228 116.788893 
L 182.984428 118.547306 
L 184.609627 120.312776 
L 186.234827 122.085409 
L 187.860027 123.86531 
L 189.485227 125.652582 
L 191.110427 127.447326 
L 192.735627 129.24964 
L 194.360827 131.059622 
L 195.986026 132.877365 
" style="fill:none;stroke:#fde725;stroke-linecap:round;stroke-width:1.3;"/>
   </g>
   <g id="line2d_23">
    <path clip-path="url(#peb25506336)" d="M 115.538633 31.210687 
L 195.986026 107.992161 
" style="fill:none;stroke:#000000;stroke-linecap:round;stroke-width:1.3;"/>
   </g>
   <g id="patch_3">
    <path d="M 35.09124 123.988301 
L 35.09124 7.2 
" style="fill:none;stroke:#000000;stroke-linecap:square;stroke-linejoin:miter;"/>
   </g>
   <g id="patch_4">
    <path d="M 35.09124 123.988301 
L 195.986026 123.988301 
" style="fill:none;stroke:#000000;stroke-linecap:square;stroke-linejoin:miter;"/>
   </g>
   <g id="text_20">
    <!-- -1.2 -->
    <defs>
     <path d="M 3.171875 21.484375 
L 3.171875 30.328125 
L 30.171875 30.328125 
L 30.171875 21.484375 
z
" id="ArialMT-45"/>
     <path d="M 9.078125 0 
L 9.078125 10.015625 
L 19.09375 10.015625 
L 19.09375 0 
z
" id="ArialMT-46"/>
    </defs>
    <g transform="translate(156.188486 67.880463)scale(0.09 -0.09)">
     <use xlink:href="#ArialMT-45"/>
     <use x="33.300781" xlink:href="#ArialMT-49"/>
     <use x="88.916016" xlink:href="#ArialMT-46"/>
     <use x="116.699219" xlink:href="#ArialMT-50"/>
    </g>
   </g>
   <g id="legend_1">
    <g id="text_21">
     <!-- $\tau$ -->
     <defs>
      <path d="M 32.859375 9.96875 
Q 34.1875 7.625 39.453125 7.625 
L 43.75 7.625 
L 42.28125 0 
L 36.921875 0 
Q 28.125 0 25 4.6875 
Q 21.921875 9.46875 23.96875 19.828125 
L 29 45.703125 
L 8.453125 45.703125 
L 10.203125 54.6875 
L 60.640625 54.6875 
L 58.890625 45.703125 
L 38.1875 45.703125 
L 33.015625 19.28125 
Q 31.640625 12.203125 32.859375 9.96875 
z
" id="DejaVuSans-Oblique-964"/>
     </defs>
     <g transform="translate(48.61383 72.949698)scale(0.06246 -0.06246)">
      <use transform="translate(0 0.3125)" xlink:href="#DejaVuSans-Oblique-964"/>
     </g>
    </g>
    <g id="line2d_24">
     <path d="M 40.71264 79.59876 
L 48.52014 79.59876 
" style="fill:none;stroke:#440154;stroke-linecap:round;stroke-width:1.3;"/>
    </g>
    <g id="line2d_25"/>
    <g id="text_22">
     <!-- 0.5 -->
     <g transform="translate(51.64314 81.78486)scale(0.06246 -0.06246)">
      <use xlink:href="#ArialMT-48"/>
      <use x="55.615234" xlink:href="#ArialMT-46"/>
      <use x="83.398438" xlink:href="#ArialMT-53"/>
     </g>
    </g>
    <g id="line2d_26">
     <path d="M 40.71264 88.433922 
L 48.52014 88.433922 
" style="fill:none;stroke:#3d4d8a;stroke-linecap:round;stroke-width:1.3;"/>
    </g>
    <g id="line2d_27"/>
    <g id="text_23">
     <!-- 1 -->
     <g transform="translate(51.64314 90.620022)scale(0.06246 -0.06246)">
      <use xlink:href="#ArialMT-49"/>
     </g>
    </g>
    <g id="line2d_28">
     <path d="M 40.71264 97.269084 
L 48.52014 97.269084 
" style="fill:none;stroke:#24878e;stroke-linecap:round;stroke-width:1.3;"/>
    </g>
    <g id="line2d_29"/>
    <g id="text_24">
     <!-- 2 -->
     <g transform="translate(51.64314 99.455184)scale(0.06246 -0.06246)">
      <use xlink:href="#ArialMT-50"/>
     </g>
    </g>
    <g id="line2d_30">
     <path d="M 40.71264 106.104247 
L 48.52014 106.104247 
" style="fill:none;stroke:#67cc5c;stroke-linecap:round;stroke-width:1.3;"/>
    </g>
    <g id="line2d_31"/>
    <g id="text_25">
     <!-- 5 -->
     <g transform="translate(51.64314 108.290347)scale(0.06246 -0.06246)">
      <use xlink:href="#ArialMT-53"/>
     </g>
    </g>
    <g id="line2d_32">
     <path d="M 40.71264 114.939409 
L 48.52014 114.939409 
" style="fill:none;stroke:#fde725;stroke-linecap:round;stroke-width:1.3;"/>
    </g>
    <g id="line2d_33"/>
    <g id="text_26">
     <!-- 10 -->
     <g transform="translate(51.64314 117.125509)scale(0.06246 -0.06246)">
      <use xlink:href="#ArialMT-49"/>
      <use x="55.615234" xlink:href="#ArialMT-48"/>
     </g>
    </g>
   </g>
  </g>
 </g>
 <defs>
  <clipPath id="peb25506336">
   <rect height="116.788301" width="160.894786" x="35.09124" y="7.2"/>
  </clipPath>
 </defs>
</svg>
