<?xml version="1.0" encoding="utf-8" standalone="no"?>
<!DOCTYPE svg PUBLIC "-//W3C//DTD SVG 1.1//EN"
  "http://www.w3.org/Graphics/SVG/1.1/DTD/svg11.dtd">
<!-- Created with matplotlib (https://matplotlib.org/) -->
<svg height="200.122368pt" version="1.1" viewBox="0 0 394.632 200.122368" width="394.632pt" xmlns="http://www.w3.org/2000/svg" xmlns:xlink="http://www.w3.org/1999/xlink">
 <defs>
  <style type="text/css">
*{stroke-linecap:butt;stroke-linejoin:round;}
  </style>
 </defs>
 <g id="figure_1">
  <g id="patch_1">
   <path d="M 0 200.122368 
L 394.632 200.122368 
L 394.632 0 
L 0 0 
z
" style="fill:none;"/>
  </g>
  <g id="axes_1">
   <g id="patch_2">
    <path d="M 38.382 173.122031 
L 194.292 173.122031 
L 194.292 13.642031 
L 38.382 13.642031 
z
" style="fill:#ffffff;"/>
   </g>
   <g id="matplotlib.axis_1">
    <g id="xtick_1">
     <g id="line2d_1">
      <defs>
       <path d="M 0 2 
L 0 -2 
" id="md2f01e354e" style="stroke:#000000;stroke-width:0.8;"/>
      </defs>
      <g>
       <use style="stroke:#000000;stroke-width:0.8;" x="75.840896" xlink:href="#md2f01e354e" y="173.122031"/>
      </g>
     </g>
     <g id="text_1">
      <!-- 20 -->
      <defs>
       <path d="M 50.34375 8.453125 
L 50.34375 0 
L 3.03125 0 
Q 2.9375 3.171875 4.046875 6.109375 
Q 5.859375 10.9375 9.828125 15.625 
Q 13.8125 20.3125 21.34375 26.46875 
Q 33.015625 36.03125 37.109375 41.625 
Q 41.21875 47.21875 41.21875 52.203125 
Q 41.21875 57.421875 37.46875 61 
Q 33.734375 64.59375 27.734375 64.59375 
Q 21.390625 64.59375 17.578125 60.78125 
Q 13.765625 56.984375 13.71875 50.25 
L 4.6875 51.171875 
Q 5.609375 61.28125 11.65625 66.578125 
Q 17.71875 71.875 27.9375 71.875 
Q 38.234375 71.875 44.234375 66.15625 
Q 50.25 60.453125 50.25 52 
Q 50.25 47.703125 48.484375 43.546875 
Q 46.734375 39.40625 42.65625 34.8125 
Q 38.578125 30.21875 29.109375 22.21875 
Q 21.1875 15.578125 18.9375 13.203125 
Q 16.703125 10.84375 15.234375 8.453125 
z
" id="ArialMT-50"/>
       <path d="M 4.15625 35.296875 
Q 4.15625 48 6.765625 55.734375 
Q 9.375 63.484375 14.515625 67.671875 
Q 19.671875 71.875 27.484375 71.875 
Q 33.25 71.875 37.59375 69.546875 
Q 41.9375 67.234375 44.765625 62.859375 
Q 47.609375 58.5 49.21875 52.21875 
Q 50.828125 45.953125 50.828125 35.296875 
Q 50.828125 22.703125 48.234375 14.96875 
Q 45.65625 7.234375 40.5 3 
Q 35.359375 -1.21875 27.484375 -1.21875 
Q 17.140625 -1.21875 11.234375 6.203125 
Q 4.15625 15.140625 4.15625 35.296875 
z
M 13.1875 35.296875 
Q 13.1875 17.671875 17.3125 11.828125 
Q 21.4375 6 27.484375 6 
Q 33.546875 6 37.671875 11.859375 
Q 41.796875 17.71875 41.796875 35.296875 
Q 41.796875 52.984375 37.671875 58.78125 
Q 33.546875 64.59375 27.390625 64.59375 
Q 21.34375 64.59375 17.71875 59.46875 
Q 13.1875 52.9375 13.1875 35.296875 
z
" id="ArialMT-48"/>
      </defs>
      <g transform="translate(71.671861 182.988243)scale(0.07497 -0.07497)">
       <use xlink:href="#ArialMT-50"/>
       <use x="55.615234" xlink:href="#ArialMT-48"/>
      </g>
     </g>
    </g>
    <g id="xtick_2">
     <g id="line2d_2">
      <g>
       <use style="stroke:#000000;stroke-width:0.8;" x="116.337" xlink:href="#md2f01e354e" y="173.122031"/>
      </g>
     </g>
     <g id="text_2">
      <!-- 40 -->
      <defs>
       <path d="M 32.328125 0 
L 32.328125 17.140625 
L 1.265625 17.140625 
L 1.265625 25.203125 
L 33.9375 71.578125 
L 41.109375 71.578125 
L 41.109375 25.203125 
L 50.78125 25.203125 
L 50.78125 17.140625 
L 41.109375 17.140625 
L 41.109375 0 
z
M 32.328125 25.203125 
L 32.328125 57.46875 
L 9.90625 25.203125 
z
" id="ArialMT-52"/>
      </defs>
      <g transform="translate(112.167965 182.988243)scale(0.07497 -0.07497)">
       <use xlink:href="#ArialMT-52"/>
       <use x="55.615234" xlink:href="#ArialMT-48"/>
      </g>
     </g>
    </g>
    <g id="xtick_3">
     <g id="line2d_3">
      <g>
       <use style="stroke:#000000;stroke-width:0.8;" x="156.833104" xlink:href="#md2f01e354e" y="173.122031"/>
      </g>
     </g>
     <g id="text_3">
      <!-- 60 -->
      <defs>
       <path d="M 49.75 54.046875 
L 41.015625 53.375 
Q 39.84375 58.546875 37.703125 60.890625 
Q 34.125 64.65625 28.90625 64.65625 
Q 24.703125 64.65625 21.53125 62.3125 
Q 17.390625 59.28125 14.984375 53.46875 
Q 12.59375 47.65625 12.5 36.921875 
Q 15.671875 41.75 20.265625 44.09375 
Q 24.859375 46.4375 29.890625 46.4375 
Q 38.671875 46.4375 44.84375 39.96875 
Q 51.03125 33.5 51.03125 23.25 
Q 51.03125 16.5 48.125 10.71875 
Q 45.21875 4.9375 40.140625 1.859375 
Q 35.0625 -1.21875 28.609375 -1.21875 
Q 17.625 -1.21875 10.6875 6.859375 
Q 3.765625 14.9375 3.765625 33.5 
Q 3.765625 54.25 11.421875 63.671875 
Q 18.109375 71.875 29.4375 71.875 
Q 37.890625 71.875 43.28125 67.140625 
Q 48.6875 62.40625 49.75 54.046875 
z
M 13.875 23.1875 
Q 13.875 18.65625 15.796875 14.5 
Q 17.71875 10.359375 21.1875 8.171875 
Q 24.65625 6 28.46875 6 
Q 34.03125 6 38.03125 10.484375 
Q 42.046875 14.984375 42.046875 22.703125 
Q 42.046875 30.125 38.078125 34.390625 
Q 34.125 38.671875 28.125 38.671875 
Q 22.171875 38.671875 18.015625 34.390625 
Q 13.875 30.125 13.875 23.1875 
z
" id="ArialMT-54"/>
      </defs>
      <g transform="translate(152.664069 182.988243)scale(0.07497 -0.07497)">
       <use xlink:href="#ArialMT-54"/>
       <use x="55.615234" xlink:href="#ArialMT-48"/>
      </g>
     </g>
    </g>
    <g id="text_4">
     <!-- Age -->
     <defs>
      <path d="M -0.140625 0 
L 27.34375 71.578125 
L 37.546875 71.578125 
L 66.84375 0 
L 56.0625 0 
L 47.703125 21.6875 
L 17.78125 21.6875 
L 9.90625 0 
z
M 20.515625 29.390625 
L 44.78125 29.390625 
L 37.3125 49.21875 
Q 33.890625 58.25 32.234375 64.0625 
Q 30.859375 57.171875 28.375 50.390625 
z
" id="ArialMT-65"/>
      <path d="M 4.984375 -4.296875 
L 13.53125 -5.5625 
Q 14.0625 -9.515625 16.5 -11.328125 
Q 19.78125 -13.765625 25.4375 -13.765625 
Q 31.546875 -13.765625 34.859375 -11.328125 
Q 38.1875 -8.890625 39.359375 -4.5 
Q 40.046875 -1.8125 39.984375 6.78125 
Q 34.234375 0 25.640625 0 
Q 14.9375 0 9.078125 7.71875 
Q 3.21875 15.4375 3.21875 26.21875 
Q 3.21875 33.640625 5.90625 39.90625 
Q 8.59375 46.1875 13.6875 49.609375 
Q 18.796875 53.03125 25.6875 53.03125 
Q 34.859375 53.03125 40.828125 45.609375 
L 40.828125 51.859375 
L 48.921875 51.859375 
L 48.921875 7.03125 
Q 48.921875 -5.078125 46.453125 -10.125 
Q 44 -15.1875 38.640625 -18.109375 
Q 33.296875 -21.046875 25.484375 -21.046875 
Q 16.21875 -21.046875 10.5 -16.875 
Q 4.78125 -12.703125 4.984375 -4.296875 
z
M 12.25 26.859375 
Q 12.25 16.65625 16.296875 11.96875 
Q 20.359375 7.28125 26.46875 7.28125 
Q 32.515625 7.28125 36.609375 11.9375 
Q 40.71875 16.609375 40.71875 26.5625 
Q 40.71875 36.078125 36.5 40.90625 
Q 32.28125 45.75 26.3125 45.75 
Q 20.453125 45.75 16.34375 40.984375 
Q 12.25 36.234375 12.25 26.859375 
z
" id="ArialMT-103"/>
      <path d="M 42.09375 16.703125 
L 51.171875 15.578125 
Q 49.03125 7.625 43.21875 3.21875 
Q 37.40625 -1.171875 28.375 -1.171875 
Q 17 -1.171875 10.328125 5.828125 
Q 3.65625 12.84375 3.65625 25.484375 
Q 3.65625 38.578125 10.390625 45.796875 
Q 17.140625 53.03125 27.875 53.03125 
Q 38.28125 53.03125 44.875 45.953125 
Q 51.46875 38.875 51.46875 26.03125 
Q 51.46875 25.25 51.421875 23.6875 
L 12.75 23.6875 
Q 13.234375 15.140625 17.578125 10.59375 
Q 21.921875 6.0625 28.421875 6.0625 
Q 33.25 6.0625 36.671875 8.59375 
Q 40.09375 11.140625 42.09375 16.703125 
z
M 13.234375 30.90625 
L 42.1875 30.90625 
Q 41.609375 37.453125 38.875 40.71875 
Q 34.671875 45.796875 27.984375 45.796875 
Q 21.921875 45.796875 17.796875 41.75 
Q 13.671875 37.703125 13.234375 30.90625 
z
" id="ArialMT-101"/>
     </defs>
     <g transform="translate(109.667599 191.344484)scale(0.07497 -0.07497)">
      <use xlink:href="#ArialMT-65"/>
      <use x="66.699219" xlink:href="#ArialMT-103"/>
      <use x="122.314453" xlink:href="#ArialMT-101"/>
     </g>
    </g>
   </g>
   <g id="matplotlib.axis_2">
    <g id="ytick_1">
     <g id="line2d_4">
      <defs>
       <path d="M 2 0 
L -2 -0 
" id="m3d77476ac2" style="stroke:#000000;stroke-width:0.8;"/>
      </defs>
      <g>
       <use style="stroke:#000000;stroke-width:0.8;" x="38.382" xlink:href="#m3d77476ac2" y="173.122031"/>
      </g>
     </g>
     <g id="text_5">
      <!-- 0.00 -->
      <defs>
       <path d="M 9.078125 0 
L 9.078125 10.015625 
L 19.09375 10.015625 
L 19.09375 0 
z
" id="ArialMT-46"/>
      </defs>
      <g transform="translate(19.292135 175.805137)scale(0.07497 -0.07497)">
       <use xlink:href="#ArialMT-48"/>
       <use x="55.615234" xlink:href="#ArialMT-46"/>
       <use x="83.398438" xlink:href="#ArialMT-48"/>
       <use x="139.013672" xlink:href="#ArialMT-48"/>
      </g>
     </g>
    </g>
    <g id="ytick_2">
     <g id="line2d_5">
      <g>
       <use style="stroke:#000000;stroke-width:0.8;" x="38.382" xlink:href="#m3d77476ac2" y="141.226031"/>
      </g>
     </g>
     <g id="text_6">
      <!-- 0.01 -->
      <defs>
       <path d="M 37.25 0 
L 28.46875 0 
L 28.46875 56 
Q 25.296875 52.984375 20.140625 49.953125 
Q 14.984375 46.921875 10.890625 45.40625 
L 10.890625 53.90625 
Q 18.265625 57.375 23.78125 62.296875 
Q 29.296875 67.234375 31.59375 71.875 
L 37.25 71.875 
z
" id="ArialMT-49"/>
      </defs>
      <g transform="translate(19.292135 143.909137)scale(0.07497 -0.07497)">
       <use xlink:href="#ArialMT-48"/>
       <use x="55.615234" xlink:href="#ArialMT-46"/>
       <use x="83.398438" xlink:href="#ArialMT-48"/>
       <use x="139.013672" xlink:href="#ArialMT-49"/>
      </g>
     </g>
    </g>
    <g id="ytick_3">
     <g id="line2d_6">
      <g>
       <use style="stroke:#000000;stroke-width:0.8;" x="38.382" xlink:href="#m3d77476ac2" y="109.330031"/>
      </g>
     </g>
     <g id="text_7">
      <!-- 0.02 -->
      <g transform="translate(19.292135 112.013137)scale(0.07497 -0.07497)">
       <use xlink:href="#ArialMT-48"/>
       <use x="55.615234" xlink:href="#ArialMT-46"/>
       <use x="83.398438" xlink:href="#ArialMT-48"/>
       <use x="139.013672" xlink:href="#ArialMT-50"/>
      </g>
     </g>
    </g>
    <g id="ytick_4">
     <g id="line2d_7">
      <g>
       <use style="stroke:#000000;stroke-width:0.8;" x="38.382" xlink:href="#m3d77476ac2" y="77.434031"/>
      </g>
     </g>
     <g id="text_8">
      <!-- 0.03 -->
      <defs>
       <path d="M 4.203125 18.890625 
L 12.984375 20.0625 
Q 14.5 12.59375 18.140625 9.296875 
Q 21.78125 6 27 6 
Q 33.203125 6 37.46875 10.296875 
Q 41.75 14.59375 41.75 20.953125 
Q 41.75 27 37.796875 30.921875 
Q 33.84375 34.859375 27.734375 34.859375 
Q 25.25 34.859375 21.53125 33.890625 
L 22.515625 41.609375 
Q 23.390625 41.5 23.921875 41.5 
Q 29.546875 41.5 34.03125 44.421875 
Q 38.53125 47.359375 38.53125 53.46875 
Q 38.53125 58.296875 35.25 61.46875 
Q 31.984375 64.65625 26.8125 64.65625 
Q 21.6875 64.65625 18.265625 61.421875 
Q 14.84375 58.203125 13.875 51.765625 
L 5.078125 53.328125 
Q 6.6875 62.15625 12.390625 67.015625 
Q 18.109375 71.875 26.609375 71.875 
Q 32.46875 71.875 37.390625 69.359375 
Q 42.328125 66.84375 44.9375 62.5 
Q 47.5625 58.15625 47.5625 53.265625 
Q 47.5625 48.640625 45.0625 44.828125 
Q 42.578125 41.015625 37.703125 38.765625 
Q 44.046875 37.3125 47.5625 32.6875 
Q 51.078125 28.078125 51.078125 21.140625 
Q 51.078125 11.765625 44.234375 5.25 
Q 37.40625 -1.265625 26.953125 -1.265625 
Q 17.53125 -1.265625 11.296875 4.34375 
Q 5.078125 9.96875 4.203125 18.890625 
z
" id="ArialMT-51"/>
      </defs>
      <g transform="translate(19.292135 80.117137)scale(0.07497 -0.07497)">
       <use xlink:href="#ArialMT-48"/>
       <use x="55.615234" xlink:href="#ArialMT-46"/>
       <use x="83.398438" xlink:href="#ArialMT-48"/>
       <use x="139.013672" xlink:href="#ArialMT-51"/>
      </g>
     </g>
    </g>
    <g id="ytick_5">
     <g id="line2d_8">
      <g>
       <use style="stroke:#000000;stroke-width:0.8;" x="38.382" xlink:href="#m3d77476ac2" y="45.538031"/>
      </g>
     </g>
     <g id="text_9">
      <!-- 0.04 -->
      <g transform="translate(19.292135 48.221137)scale(0.07497 -0.07497)">
       <use xlink:href="#ArialMT-48"/>
       <use x="55.615234" xlink:href="#ArialMT-46"/>
       <use x="83.398438" xlink:href="#ArialMT-48"/>
       <use x="139.013672" xlink:href="#ArialMT-52"/>
      </g>
     </g>
    </g>
    <g id="ytick_6">
     <g id="line2d_9">
      <g>
       <use style="stroke:#000000;stroke-width:0.8;" x="38.382" xlink:href="#m3d77476ac2" y="13.642031"/>
      </g>
     </g>
     <g id="text_10">
      <!-- 0.05 -->
      <defs>
       <path d="M 4.15625 18.75 
L 13.375 19.53125 
Q 14.40625 12.796875 18.140625 9.390625 
Q 21.875 6 27.15625 6 
Q 33.5 6 37.890625 10.78125 
Q 42.28125 15.578125 42.28125 23.484375 
Q 42.28125 31 38.0625 35.34375 
Q 33.84375 39.703125 27 39.703125 
Q 22.75 39.703125 19.328125 37.765625 
Q 15.921875 35.84375 13.96875 32.765625 
L 5.71875 33.84375 
L 12.640625 70.609375 
L 48.25 70.609375 
L 48.25 62.203125 
L 19.671875 62.203125 
L 15.828125 42.96875 
Q 22.265625 47.46875 29.34375 47.46875 
Q 38.71875 47.46875 45.15625 40.96875 
Q 51.609375 34.46875 51.609375 24.265625 
Q 51.609375 14.546875 45.953125 7.46875 
Q 39.0625 -1.21875 27.15625 -1.21875 
Q 17.390625 -1.21875 11.203125 4.25 
Q 5.03125 9.71875 4.15625 18.75 
z
" id="ArialMT-53"/>
      </defs>
      <g transform="translate(19.292135 16.325137)scale(0.07497 -0.07497)">
       <use xlink:href="#ArialMT-48"/>
       <use x="55.615234" xlink:href="#ArialMT-46"/>
       <use x="83.398438" xlink:href="#ArialMT-48"/>
       <use x="139.013672" xlink:href="#ArialMT-53"/>
      </g>
     </g>
    </g>
    <g id="text_11">
     <!-- Fraction with exact match in VDJdb -->
     <defs>
      <path d="M 8.203125 0 
L 8.203125 71.578125 
L 56.5 71.578125 
L 56.5 63.140625 
L 17.671875 63.140625 
L 17.671875 40.96875 
L 51.265625 40.96875 
L 51.265625 32.515625 
L 17.671875 32.515625 
L 17.671875 0 
z
" id="ArialMT-70"/>
      <path d="M 6.5 0 
L 6.5 51.859375 
L 14.40625 51.859375 
L 14.40625 44 
Q 17.4375 49.515625 20 51.265625 
Q 22.5625 53.03125 25.640625 53.03125 
Q 30.078125 53.03125 34.671875 50.203125 
L 31.640625 42.046875 
Q 28.421875 43.953125 25.203125 43.953125 
Q 22.3125 43.953125 20.015625 42.21875 
Q 17.71875 40.484375 16.75 37.40625 
Q 15.28125 32.71875 15.28125 27.15625 
L 15.28125 0 
z
" id="ArialMT-114"/>
      <path d="M 40.4375 6.390625 
Q 35.546875 2.25 31.03125 0.53125 
Q 26.515625 -1.171875 21.34375 -1.171875 
Q 12.796875 -1.171875 8.203125 3 
Q 3.609375 7.171875 3.609375 13.671875 
Q 3.609375 17.484375 5.34375 20.625 
Q 7.078125 23.78125 9.890625 25.6875 
Q 12.703125 27.59375 16.21875 28.5625 
Q 18.796875 29.25 24.03125 29.890625 
Q 34.671875 31.15625 39.703125 32.90625 
Q 39.75 34.71875 39.75 35.203125 
Q 39.75 40.578125 37.25 42.78125 
Q 33.890625 45.75 27.25 45.75 
Q 21.046875 45.75 18.09375 43.578125 
Q 15.140625 41.40625 13.71875 35.890625 
L 5.125 37.0625 
Q 6.296875 42.578125 8.984375 45.96875 
Q 11.671875 49.359375 16.75 51.1875 
Q 21.828125 53.03125 28.515625 53.03125 
Q 35.15625 53.03125 39.296875 51.46875 
Q 43.453125 49.90625 45.40625 47.53125 
Q 47.359375 45.171875 48.140625 41.546875 
Q 48.578125 39.3125 48.578125 33.453125 
L 48.578125 21.734375 
Q 48.578125 9.46875 49.140625 6.21875 
Q 49.703125 2.984375 51.375 0 
L 42.1875 0 
Q 40.828125 2.734375 40.4375 6.390625 
z
M 39.703125 26.03125 
Q 34.90625 24.078125 25.34375 22.703125 
Q 19.921875 21.921875 17.671875 20.9375 
Q 15.4375 19.96875 14.203125 18.09375 
Q 12.984375 16.21875 12.984375 13.921875 
Q 12.984375 10.40625 15.640625 8.0625 
Q 18.3125 5.71875 23.4375 5.71875 
Q 28.515625 5.71875 32.46875 7.9375 
Q 36.421875 10.15625 38.28125 14.015625 
Q 39.703125 17 39.703125 22.796875 
z
" id="ArialMT-97"/>
      <path d="M 40.4375 19 
L 49.078125 17.875 
Q 47.65625 8.9375 41.8125 3.875 
Q 35.984375 -1.171875 27.484375 -1.171875 
Q 16.84375 -1.171875 10.375 5.78125 
Q 3.90625 12.75 3.90625 25.734375 
Q 3.90625 34.125 6.6875 40.421875 
Q 9.46875 46.734375 15.15625 49.875 
Q 20.84375 53.03125 27.546875 53.03125 
Q 35.984375 53.03125 41.359375 48.75 
Q 46.734375 44.484375 48.25 36.625 
L 39.703125 35.296875 
Q 38.484375 40.53125 35.375 43.15625 
Q 32.28125 45.796875 27.875 45.796875 
Q 21.234375 45.796875 17.078125 41.03125 
Q 12.9375 36.28125 12.9375 25.984375 
Q 12.9375 15.53125 16.9375 10.796875 
Q 20.953125 6.0625 27.390625 6.0625 
Q 32.5625 6.0625 36.03125 9.234375 
Q 39.5 12.40625 40.4375 19 
z
" id="ArialMT-99"/>
      <path d="M 25.78125 7.859375 
L 27.046875 0.09375 
Q 23.34375 -0.6875 20.40625 -0.6875 
Q 15.625 -0.6875 12.984375 0.828125 
Q 10.359375 2.34375 9.28125 4.8125 
Q 8.203125 7.28125 8.203125 15.1875 
L 8.203125 45.015625 
L 1.765625 45.015625 
L 1.765625 51.859375 
L 8.203125 51.859375 
L 8.203125 64.703125 
L 16.9375 69.96875 
L 16.9375 51.859375 
L 25.78125 51.859375 
L 25.78125 45.015625 
L 16.9375 45.015625 
L 16.9375 14.703125 
Q 16.9375 10.9375 17.40625 9.859375 
Q 17.875 8.796875 18.921875 8.15625 
Q 19.96875 7.515625 21.921875 7.515625 
Q 23.390625 7.515625 25.78125 7.859375 
z
" id="ArialMT-116"/>
      <path d="M 6.640625 61.46875 
L 6.640625 71.578125 
L 15.4375 71.578125 
L 15.4375 61.46875 
z
M 6.640625 0 
L 6.640625 51.859375 
L 15.4375 51.859375 
L 15.4375 0 
z
" id="ArialMT-105"/>
      <path d="M 3.328125 25.921875 
Q 3.328125 40.328125 11.328125 47.265625 
Q 18.015625 53.03125 27.640625 53.03125 
Q 38.328125 53.03125 45.109375 46.015625 
Q 51.90625 39.015625 51.90625 26.65625 
Q 51.90625 16.65625 48.90625 10.90625 
Q 45.90625 5.171875 40.15625 2 
Q 34.421875 -1.171875 27.640625 -1.171875 
Q 16.75 -1.171875 10.03125 5.8125 
Q 3.328125 12.796875 3.328125 25.921875 
z
M 12.359375 25.921875 
Q 12.359375 15.96875 16.703125 11.015625 
Q 21.046875 6.0625 27.640625 6.0625 
Q 34.1875 6.0625 38.53125 11.03125 
Q 42.875 16.015625 42.875 26.21875 
Q 42.875 35.84375 38.5 40.796875 
Q 34.125 45.75 27.640625 45.75 
Q 21.046875 45.75 16.703125 40.8125 
Q 12.359375 35.890625 12.359375 25.921875 
z
" id="ArialMT-111"/>
      <path d="M 6.59375 0 
L 6.59375 51.859375 
L 14.5 51.859375 
L 14.5 44.484375 
Q 20.21875 53.03125 31 53.03125 
Q 35.6875 53.03125 39.625 51.34375 
Q 43.5625 49.65625 45.515625 46.921875 
Q 47.46875 44.1875 48.25 40.4375 
Q 48.734375 37.984375 48.734375 31.890625 
L 48.734375 0 
L 39.9375 0 
L 39.9375 31.546875 
Q 39.9375 36.921875 38.90625 39.578125 
Q 37.890625 42.234375 35.28125 43.8125 
Q 32.671875 45.40625 29.15625 45.40625 
Q 23.53125 45.40625 19.453125 41.84375 
Q 15.375 38.28125 15.375 28.328125 
L 15.375 0 
z
" id="ArialMT-110"/>
      <path id="ArialMT-32"/>
      <path d="M 16.15625 0 
L 0.296875 51.859375 
L 9.375 51.859375 
L 17.625 21.921875 
L 20.703125 10.796875 
Q 20.90625 11.625 23.390625 21.484375 
L 31.640625 51.859375 
L 40.671875 51.859375 
L 48.4375 21.78125 
L 51.03125 11.859375 
L 54 21.875 
L 62.890625 51.859375 
L 71.4375 51.859375 
L 55.21875 0 
L 46.09375 0 
L 37.84375 31.0625 
L 35.84375 39.890625 
L 25.34375 0 
z
" id="ArialMT-119"/>
      <path d="M 6.59375 0 
L 6.59375 71.578125 
L 15.375 71.578125 
L 15.375 45.90625 
Q 21.53125 53.03125 30.90625 53.03125 
Q 36.671875 53.03125 40.921875 50.75 
Q 45.171875 48.484375 47 44.484375 
Q 48.828125 40.484375 48.828125 32.859375 
L 48.828125 0 
L 40.046875 0 
L 40.046875 32.859375 
Q 40.046875 39.453125 37.1875 42.453125 
Q 34.328125 45.453125 29.109375 45.453125 
Q 25.203125 45.453125 21.75 43.421875 
Q 18.3125 41.40625 16.84375 37.9375 
Q 15.375 34.46875 15.375 28.375 
L 15.375 0 
z
" id="ArialMT-104"/>
      <path d="M 0.734375 0 
L 19.671875 26.953125 
L 2.15625 51.859375 
L 13.140625 51.859375 
L 21.09375 39.703125 
Q 23.34375 36.234375 24.703125 33.890625 
Q 26.859375 37.109375 28.65625 39.59375 
L 37.40625 51.859375 
L 47.90625 51.859375 
L 29.984375 27.4375 
L 49.265625 0 
L 38.484375 0 
L 27.828125 16.109375 
L 25 20.453125 
L 11.375 0 
z
" id="ArialMT-120"/>
      <path d="M 6.59375 0 
L 6.59375 51.859375 
L 14.453125 51.859375 
L 14.453125 44.578125 
Q 16.890625 48.390625 20.9375 50.703125 
Q 25 53.03125 30.171875 53.03125 
Q 35.9375 53.03125 39.625 50.640625 
Q 43.3125 48.25 44.828125 43.953125 
Q 50.984375 53.03125 60.84375 53.03125 
Q 68.5625 53.03125 72.703125 48.75 
Q 76.859375 44.484375 76.859375 35.59375 
L 76.859375 0 
L 68.109375 0 
L 68.109375 32.671875 
Q 68.109375 37.9375 67.25 40.25 
Q 66.40625 42.578125 64.15625 43.984375 
Q 61.921875 45.40625 58.890625 45.40625 
Q 53.421875 45.40625 49.796875 41.765625 
Q 46.1875 38.140625 46.1875 30.125 
L 46.1875 0 
L 37.40625 0 
L 37.40625 33.6875 
Q 37.40625 39.546875 35.25 42.46875 
Q 33.109375 45.40625 28.21875 45.40625 
Q 24.515625 45.40625 21.359375 43.453125 
Q 18.21875 41.5 16.796875 37.734375 
Q 15.375 33.984375 15.375 26.90625 
L 15.375 0 
z
" id="ArialMT-109"/>
      <path d="M 28.171875 0 
L 0.4375 71.578125 
L 10.6875 71.578125 
L 29.296875 19.578125 
Q 31.546875 13.328125 33.0625 7.859375 
Q 34.71875 13.71875 36.921875 19.578125 
L 56.25 71.578125 
L 65.921875 71.578125 
L 37.890625 0 
z
" id="ArialMT-86"/>
      <path d="M 7.71875 0 
L 7.71875 71.578125 
L 32.375 71.578125 
Q 40.71875 71.578125 45.125 70.5625 
Q 51.265625 69.140625 55.609375 65.4375 
Q 61.28125 60.640625 64.078125 53.1875 
Q 66.890625 45.75 66.890625 36.1875 
Q 66.890625 28.03125 64.984375 21.734375 
Q 63.09375 15.4375 60.109375 11.296875 
Q 57.125 7.171875 53.578125 4.796875 
Q 50.046875 2.4375 45.046875 1.21875 
Q 40.046875 0 33.546875 0 
z
M 17.1875 8.453125 
L 32.46875 8.453125 
Q 39.546875 8.453125 43.578125 9.765625 
Q 47.609375 11.078125 50 13.484375 
Q 53.375 16.84375 55.25 22.53125 
Q 57.125 28.21875 57.125 36.328125 
Q 57.125 47.5625 53.4375 53.59375 
Q 49.75 59.625 44.484375 61.671875 
Q 40.671875 63.140625 32.234375 63.140625 
L 17.1875 63.140625 
z
" id="ArialMT-68"/>
      <path d="M 2.875 20.3125 
L 11.421875 21.484375 
Q 11.765625 13.28125 14.5 10.25 
Q 17.234375 7.234375 22.078125 7.234375 
Q 25.640625 7.234375 28.21875 8.859375 
Q 30.8125 10.5 31.78125 13.296875 
Q 32.765625 16.109375 32.765625 22.265625 
L 32.765625 71.578125 
L 42.234375 71.578125 
L 42.234375 22.796875 
Q 42.234375 13.8125 40.0625 8.875 
Q 37.890625 3.953125 33.171875 1.359375 
Q 28.46875 -1.21875 22.125 -1.21875 
Q 12.703125 -1.21875 7.6875 4.203125 
Q 2.6875 9.625 2.875 20.3125 
z
" id="ArialMT-74"/>
      <path d="M 40.234375 0 
L 40.234375 6.546875 
Q 35.296875 -1.171875 25.734375 -1.171875 
Q 19.53125 -1.171875 14.328125 2.25 
Q 9.125 5.671875 6.265625 11.796875 
Q 3.421875 17.921875 3.421875 25.875 
Q 3.421875 33.640625 6 39.96875 
Q 8.59375 46.296875 13.765625 49.65625 
Q 18.953125 53.03125 25.34375 53.03125 
Q 30.03125 53.03125 33.6875 51.046875 
Q 37.359375 49.078125 39.65625 45.90625 
L 39.65625 71.578125 
L 48.390625 71.578125 
L 48.390625 0 
z
M 12.453125 25.875 
Q 12.453125 15.921875 16.640625 10.984375 
Q 20.84375 6.0625 26.5625 6.0625 
Q 32.328125 6.0625 36.34375 10.765625 
Q 40.375 15.484375 40.375 25.140625 
Q 40.375 35.796875 36.265625 40.765625 
Q 32.171875 45.75 26.171875 45.75 
Q 20.3125 45.75 16.375 40.96875 
Q 12.453125 36.1875 12.453125 25.875 
z
" id="ArialMT-100"/>
      <path d="M 14.703125 0 
L 6.546875 0 
L 6.546875 71.578125 
L 15.328125 71.578125 
L 15.328125 46.046875 
Q 20.90625 53.03125 29.546875 53.03125 
Q 34.328125 53.03125 38.59375 51.09375 
Q 42.875 49.171875 45.625 45.671875 
Q 48.390625 42.1875 49.953125 37.25 
Q 51.515625 32.328125 51.515625 26.703125 
Q 51.515625 13.375 44.921875 6.09375 
Q 38.328125 -1.171875 29.109375 -1.171875 
Q 19.921875 -1.171875 14.703125 6.5 
z
M 14.59375 26.3125 
Q 14.59375 17 17.140625 12.84375 
Q 21.296875 6.0625 28.375 6.0625 
Q 34.125 6.0625 38.328125 11.0625 
Q 42.53125 16.0625 42.53125 25.984375 
Q 42.53125 36.140625 38.5 40.96875 
Q 34.46875 45.796875 28.765625 45.796875 
Q 23 45.796875 18.796875 40.796875 
Q 14.59375 35.796875 14.59375 26.3125 
z
" id="ArialMT-98"/>
     </defs>
     <g transform="translate(16.302106 152.12864)rotate(-90)scale(0.07497 -0.07497)">
      <use xlink:href="#ArialMT-70"/>
      <use x="61.083984" xlink:href="#ArialMT-114"/>
      <use x="94.384766" xlink:href="#ArialMT-97"/>
      <use x="150" xlink:href="#ArialMT-99"/>
      <use x="200" xlink:href="#ArialMT-116"/>
      <use x="227.783203" xlink:href="#ArialMT-105"/>
      <use x="250" xlink:href="#ArialMT-111"/>
      <use x="305.615234" xlink:href="#ArialMT-110"/>
      <use x="361.230469" xlink:href="#ArialMT-32"/>
      <use x="389.013672" xlink:href="#ArialMT-119"/>
      <use x="461.230469" xlink:href="#ArialMT-105"/>
      <use x="483.447266" xlink:href="#ArialMT-116"/>
      <use x="511.230469" xlink:href="#ArialMT-104"/>
      <use x="566.845703" xlink:href="#ArialMT-32"/>
      <use x="594.628906" xlink:href="#ArialMT-101"/>
      <use x="650.244141" xlink:href="#ArialMT-120"/>
      <use x="700.244141" xlink:href="#ArialMT-97"/>
      <use x="755.859375" xlink:href="#ArialMT-99"/>
      <use x="805.859375" xlink:href="#ArialMT-116"/>
      <use x="833.642578" xlink:href="#ArialMT-32"/>
      <use x="861.425781" xlink:href="#ArialMT-109"/>
      <use x="944.726562" xlink:href="#ArialMT-97"/>
      <use x="1000.341797" xlink:href="#ArialMT-116"/>
      <use x="1028.125" xlink:href="#ArialMT-99"/>
      <use x="1078.125" xlink:href="#ArialMT-104"/>
      <use x="1133.740234" xlink:href="#ArialMT-32"/>
      <use x="1161.523438" xlink:href="#ArialMT-105"/>
      <use x="1183.740234" xlink:href="#ArialMT-110"/>
      <use x="1239.355469" xlink:href="#ArialMT-32"/>
      <use x="1267.138672" xlink:href="#ArialMT-86"/>
      <use x="1333.837891" xlink:href="#ArialMT-68"/>
      <use x="1406.054688" xlink:href="#ArialMT-74"/>
      <use x="1456.054688" xlink:href="#ArialMT-100"/>
      <use x="1511.669922" xlink:href="#ArialMT-98"/>
     </g>
    </g>
   </g>
   <g id="PolyCollection_1">
    <path clip-path="url(#pd9a42cfe29)" d="M 45.468818 61.149526 
L 45.468818 87.69533 
L 65.71687 92.068791 
L 85.964922 75.069393 
L 106.212974 84.450586 
L 126.461026 88.453095 
L 146.709078 95.776781 
L 166.95713 99.322639 
L 187.205182 132.205612 
L 187.205182 117.869607 
L 187.205182 117.869607 
L 166.95713 80.435575 
L 146.709078 84.151751 
L 126.461026 81.130438 
L 106.212974 76.870166 
L 85.964922 67.475262 
L 65.71687 76.922892 
L 45.468818 61.149526 
z
" style="fill:#440154;fill-opacity:0.5;"/>
   </g>
   <g id="PolyCollection_2">
    <path clip-path="url(#pd9a42cfe29)" d="M 45.468818 70.372117 
L 45.468818 95.687525 
L 65.71687 97.388063 
L 85.964922 94.549847 
L 106.212974 101.879994 
L 126.461026 103.922213 
L 146.709078 111.957178 
L 166.95713 109.848961 
L 187.205182 124.701253 
L 187.205182 104.590809 
L 187.205182 104.590809 
L 166.95713 97.150198 
L 146.709078 105.702226 
L 126.461026 98.595835 
L 106.212974 96.383986 
L 85.964922 88.580494 
L 65.71687 85.623529 
L 45.468818 70.372117 
z
" style="fill:#472d7b;fill-opacity:0.5;"/>
   </g>
   <g id="PolyCollection_3">
    <path clip-path="url(#pd9a42cfe29)" d="M 45.468818 74.872002 
L 45.468818 98.797913 
L 65.71687 105.437346 
L 85.964922 102.520029 
L 106.212974 108.691812 
L 126.461026 111.736763 
L 146.709078 113.848098 
L 166.95713 115.709231 
L 187.205182 131.793438 
L 187.205182 120.038465 
L 187.205182 120.038465 
L 166.95713 105.420199 
L 146.709078 109.615127 
L 126.461026 108.13395 
L 106.212974 104.76074 
L 85.964922 98.213674 
L 65.71687 97.087093 
L 45.468818 74.872002 
z
" style="fill:#3b528b;fill-opacity:0.5;"/>
   </g>
   <g id="PolyCollection_4">
    <path clip-path="url(#pd9a42cfe29)" d="M 45.468818 76.992037 
L 45.468818 94.663394 
L 65.71687 110.868183 
L 85.964922 108.949141 
L 106.212974 116.027712 
L 126.461026 118.370544 
L 146.709078 120.61558 
L 166.95713 120.979494 
L 187.205182 129.465326 
L 187.205182 119.176977 
L 187.205182 119.176977 
L 166.95713 114.966143 
L 146.709078 117.257132 
L 126.461026 115.688815 
L 106.212974 113.437934 
L 85.964922 106.480947 
L 65.71687 104.602279 
L 45.468818 76.992037 
z
" style="fill:#2c728e;fill-opacity:0.5;"/>
   </g>
   <g id="PolyCollection_5">
    <path clip-path="url(#pd9a42cfe29)" d="M 45.468818 84.33903 
L 45.468818 97.16499 
L 65.71687 110.403638 
L 85.964922 113.258743 
L 106.212974 117.542486 
L 126.461026 121.675825 
L 146.709078 122.949444 
L 166.95713 125.700618 
L 187.205182 127.985995 
L 187.205182 122.782708 
L 187.205182 122.782708 
L 166.95713 119.024993 
L 146.709078 120.551974 
L 126.461026 119.717956 
L 106.212974 115.19232 
L 85.964922 111.309481 
L 65.71687 104.003625 
L 45.468818 84.33903 
z
" style="fill:#21918c;fill-opacity:0.5;"/>
   </g>
   <g id="PolyCollection_6">
    <path clip-path="url(#pd9a42cfe29)" d="M 45.468818 103.506274 
L 45.468818 109.446083 
L 65.71687 111.971295 
L 85.964922 112.299347 
L 106.212974 115.637765 
L 126.461026 118.823506 
L 146.709078 121.152454 
L 166.95713 123.99362 
L 187.205182 123.699451 
L 187.205182 120.477411 
L 187.205182 120.477411 
L 166.95713 120.224399 
L 146.709078 119.301958 
L 126.461026 116.906701 
L 106.212974 113.888635 
L 85.964922 110.559683 
L 65.71687 107.476786 
L 45.468818 103.506274 
z
" style="fill:#27ad81;fill-opacity:0.5;"/>
   </g>
   <g id="PolyCollection_7">
    <path clip-path="url(#pd9a42cfe29)" d="M 45.468818 117.271472 
L 45.468818 121.835606 
L 65.71687 121.297746 
L 85.964922 118.383937 
L 106.212974 119.738109 
L 126.461026 121.714773 
L 146.709078 122.592794 
L 166.95713 124.131923 
L 187.205182 128.306481 
L 187.205182 123.908173 
L 187.205182 123.908173 
L 166.95713 121.114998 
L 146.709078 120.953653 
L 126.461026 120.174702 
L 106.212974 118.110991 
L 85.964922 116.571348 
L 65.71687 117.719469 
L 45.468818 117.271472 
z
" style="fill:#5cc863;fill-opacity:0.5;"/>
   </g>
   <g id="PolyCollection_8">
    <path clip-path="url(#pd9a42cfe29)" d="M 45.468818 121.497639 
L 45.468818 123.72004 
L 65.71687 124.318806 
L 85.964922 124.177272 
L 106.212974 124.550512 
L 126.461026 125.59086 
L 146.709078 126.837674 
L 166.95713 128.462202 
L 187.205182 127.78735 
L 187.205182 125.979576 
L 187.205182 125.979576 
L 166.95713 126.166417 
L 146.709078 125.819207 
L 126.461026 124.706544 
L 106.212974 123.43124 
L 85.964922 122.899771 
L 65.71687 121.365299 
L 45.468818 121.497639 
z
" style="fill:#aadc32;fill-opacity:0.5;"/>
   </g>
   <g id="PolyCollection_9">
    <path clip-path="url(#pd9a42cfe29)" d="M 45.468818 129.789235 
L 45.468818 131.85992 
L 65.71687 129.506149 
L 85.964922 129.510779 
L 106.212974 129.96916 
L 126.461026 129.647741 
L 146.709078 130.809683 
L 166.95713 130.960157 
L 187.205182 132.932398 
L 187.205182 130.382065 
L 187.205182 130.382065 
L 166.95713 129.599492 
L 146.709078 130.095939 
L 126.461026 128.968677 
L 106.212974 129.262656 
L 85.964922 128.761201 
L 65.71687 128.234253 
L 45.468818 129.789235 
z
" style="fill:#fde725;fill-opacity:0.5;"/>
   </g>
   <g id="line2d_10">
    <path clip-path="url(#pd9a42cfe29)" d="M 45.468818 74.422428 
L 65.71687 84.495841 
L 85.964922 71.272327 
L 106.212974 80.660376 
L 126.461026 84.791767 
L 146.709078 89.964266 
L 166.95713 89.879107 
L 187.205182 125.037609 
" style="fill:none;stroke:#440154;stroke-linecap:round;stroke-width:1.3;"/>
    <defs>
     <path d="M 0 1.25 
C 0.331504 1.25 0.649475 1.118292 0.883883 0.883883 
C 1.118292 0.649475 1.25 0.331504 1.25 0 
C 1.25 -0.331504 1.118292 -0.649475 0.883883 -0.883883 
C 0.649475 -1.118292 0.331504 -1.25 0 -1.25 
C -0.331504 -1.25 -0.649475 -1.118292 -0.883883 -0.883883 
C -1.118292 -0.649475 -1.25 -0.331504 -1.25 0 
C -1.25 0.331504 -1.118292 0.649475 -0.883883 0.883883 
C -0.649475 1.118292 -0.331504 1.25 0 1.25 
z
" id="m3e75eda2a5" style="stroke:#440154;stroke-width:0.8;"/>
    </defs>
    <g clip-path="url(#pd9a42cfe29)">
     <use style="fill:#440154;stroke:#440154;stroke-width:0.8;" x="45.468818" xlink:href="#m3e75eda2a5" y="74.422428"/>
     <use style="fill:#440154;stroke:#440154;stroke-width:0.8;" x="65.71687" xlink:href="#m3e75eda2a5" y="84.495841"/>
     <use style="fill:#440154;stroke:#440154;stroke-width:0.8;" x="85.964922" xlink:href="#m3e75eda2a5" y="71.272327"/>
     <use style="fill:#440154;stroke:#440154;stroke-width:0.8;" x="106.212974" xlink:href="#m3e75eda2a5" y="80.660376"/>
     <use style="fill:#440154;stroke:#440154;stroke-width:0.8;" x="126.461026" xlink:href="#m3e75eda2a5" y="84.791767"/>
     <use style="fill:#440154;stroke:#440154;stroke-width:0.8;" x="146.709078" xlink:href="#m3e75eda2a5" y="89.964266"/>
     <use style="fill:#440154;stroke:#440154;stroke-width:0.8;" x="166.95713" xlink:href="#m3e75eda2a5" y="89.879107"/>
     <use style="fill:#440154;stroke:#440154;stroke-width:0.8;" x="187.205182" xlink:href="#m3e75eda2a5" y="125.037609"/>
    </g>
   </g>
   <g id="line2d_11">
    <path clip-path="url(#pd9a42cfe29)" d="M 45.468818 83.029821 
L 65.71687 91.505796 
L 85.964922 91.56517 
L 106.212974 99.13199 
L 126.461026 101.259024 
L 146.709078 108.829702 
L 166.95713 103.49958 
L 187.205182 114.646031 
" style="fill:none;stroke:#472d7b;stroke-linecap:round;stroke-width:1.3;"/>
    <defs>
     <path d="M 0 1.25 
C 0.331504 1.25 0.649475 1.118292 0.883883 0.883883 
C 1.118292 0.649475 1.25 0.331504 1.25 0 
C 1.25 -0.331504 1.118292 -0.649475 0.883883 -0.883883 
C 0.649475 -1.118292 0.331504 -1.25 0 -1.25 
C -0.331504 -1.25 -0.649475 -1.118292 -0.883883 -0.883883 
C -1.118292 -0.649475 -1.25 -0.331504 -1.25 0 
C -1.25 0.331504 -1.118292 0.649475 -0.883883 0.883883 
C -0.649475 1.118292 -0.331504 1.25 0 1.25 
z
" id="md3d68bdabe" style="stroke:#472d7b;stroke-width:0.8;"/>
    </defs>
    <g clip-path="url(#pd9a42cfe29)">
     <use style="fill:#472d7b;stroke:#472d7b;stroke-width:0.8;" x="45.468818" xlink:href="#md3d68bdabe" y="83.029821"/>
     <use style="fill:#472d7b;stroke:#472d7b;stroke-width:0.8;" x="65.71687" xlink:href="#md3d68bdabe" y="91.505796"/>
     <use style="fill:#472d7b;stroke:#472d7b;stroke-width:0.8;" x="85.964922" xlink:href="#md3d68bdabe" y="91.56517"/>
     <use style="fill:#472d7b;stroke:#472d7b;stroke-width:0.8;" x="106.212974" xlink:href="#md3d68bdabe" y="99.13199"/>
     <use style="fill:#472d7b;stroke:#472d7b;stroke-width:0.8;" x="126.461026" xlink:href="#md3d68bdabe" y="101.259024"/>
     <use style="fill:#472d7b;stroke:#472d7b;stroke-width:0.8;" x="146.709078" xlink:href="#md3d68bdabe" y="108.829702"/>
     <use style="fill:#472d7b;stroke:#472d7b;stroke-width:0.8;" x="166.95713" xlink:href="#md3d68bdabe" y="103.49958"/>
     <use style="fill:#472d7b;stroke:#472d7b;stroke-width:0.8;" x="187.205182" xlink:href="#md3d68bdabe" y="114.646031"/>
    </g>
   </g>
   <g id="line2d_12">
    <path clip-path="url(#pd9a42cfe29)" d="M 45.468818 86.834958 
L 65.71687 101.262219 
L 85.964922 100.366852 
L 106.212974 106.726276 
L 126.461026 109.935357 
L 146.709078 111.731612 
L 166.95713 110.564715 
L 187.205182 125.915951 
" style="fill:none;stroke:#3b528b;stroke-linecap:round;stroke-width:1.3;"/>
    <defs>
     <path d="M 0 1.25 
C 0.331504 1.25 0.649475 1.118292 0.883883 0.883883 
C 1.118292 0.649475 1.25 0.331504 1.25 0 
C 1.25 -0.331504 1.118292 -0.649475 0.883883 -0.883883 
C 0.649475 -1.118292 0.331504 -1.25 0 -1.25 
C -0.331504 -1.25 -0.649475 -1.118292 -0.883883 -0.883883 
C -1.118292 -0.649475 -1.25 -0.331504 -1.25 0 
C -1.25 0.331504 -1.118292 0.649475 -0.883883 0.883883 
C -0.649475 1.118292 -0.331504 1.25 0 1.25 
z
" id="m4a8f6d7560" style="stroke:#3b528b;stroke-width:0.8;"/>
    </defs>
    <g clip-path="url(#pd9a42cfe29)">
     <use style="fill:#3b528b;stroke:#3b528b;stroke-width:0.8;" x="45.468818" xlink:href="#m4a8f6d7560" y="86.834958"/>
     <use style="fill:#3b528b;stroke:#3b528b;stroke-width:0.8;" x="65.71687" xlink:href="#m4a8f6d7560" y="101.262219"/>
     <use style="fill:#3b528b;stroke:#3b528b;stroke-width:0.8;" x="85.964922" xlink:href="#m4a8f6d7560" y="100.366852"/>
     <use style="fill:#3b528b;stroke:#3b528b;stroke-width:0.8;" x="106.212974" xlink:href="#m4a8f6d7560" y="106.726276"/>
     <use style="fill:#3b528b;stroke:#3b528b;stroke-width:0.8;" x="126.461026" xlink:href="#m4a8f6d7560" y="109.935357"/>
     <use style="fill:#3b528b;stroke:#3b528b;stroke-width:0.8;" x="146.709078" xlink:href="#m4a8f6d7560" y="111.731612"/>
     <use style="fill:#3b528b;stroke:#3b528b;stroke-width:0.8;" x="166.95713" xlink:href="#m4a8f6d7560" y="110.564715"/>
     <use style="fill:#3b528b;stroke:#3b528b;stroke-width:0.8;" x="187.205182" xlink:href="#m4a8f6d7560" y="125.915951"/>
    </g>
   </g>
   <g id="line2d_13">
    <path clip-path="url(#pd9a42cfe29)" d="M 45.468818 85.827715 
L 65.71687 107.735231 
L 85.964922 107.715044 
L 106.212974 114.732823 
L 126.461026 117.02968 
L 146.709078 118.936356 
L 166.95713 117.972818 
L 187.205182 124.321151 
" style="fill:none;stroke:#2c728e;stroke-linecap:round;stroke-width:1.3;"/>
    <defs>
     <path d="M 0 1.25 
C 0.331504 1.25 0.649475 1.118292 0.883883 0.883883 
C 1.118292 0.649475 1.25 0.331504 1.25 0 
C 1.25 -0.331504 1.118292 -0.649475 0.883883 -0.883883 
C 0.649475 -1.118292 0.331504 -1.25 0 -1.25 
C -0.331504 -1.25 -0.649475 -1.118292 -0.883883 -0.883883 
C -1.118292 -0.649475 -1.25 -0.331504 -1.25 0 
C -1.25 0.331504 -1.118292 0.649475 -0.883883 0.883883 
C -0.649475 1.118292 -0.331504 1.25 0 1.25 
z
" id="m4e1145646f" style="stroke:#2c728e;stroke-width:0.8;"/>
    </defs>
    <g clip-path="url(#pd9a42cfe29)">
     <use style="fill:#2c728e;stroke:#2c728e;stroke-width:0.8;" x="45.468818" xlink:href="#m4e1145646f" y="85.827715"/>
     <use style="fill:#2c728e;stroke:#2c728e;stroke-width:0.8;" x="65.71687" xlink:href="#m4e1145646f" y="107.735231"/>
     <use style="fill:#2c728e;stroke:#2c728e;stroke-width:0.8;" x="85.964922" xlink:href="#m4e1145646f" y="107.715044"/>
     <use style="fill:#2c728e;stroke:#2c728e;stroke-width:0.8;" x="106.212974" xlink:href="#m4e1145646f" y="114.732823"/>
     <use style="fill:#2c728e;stroke:#2c728e;stroke-width:0.8;" x="126.461026" xlink:href="#m4e1145646f" y="117.02968"/>
     <use style="fill:#2c728e;stroke:#2c728e;stroke-width:0.8;" x="146.709078" xlink:href="#m4e1145646f" y="118.936356"/>
     <use style="fill:#2c728e;stroke:#2c728e;stroke-width:0.8;" x="166.95713" xlink:href="#m4e1145646f" y="117.972818"/>
     <use style="fill:#2c728e;stroke:#2c728e;stroke-width:0.8;" x="187.205182" xlink:href="#m4e1145646f" y="124.321151"/>
    </g>
   </g>
   <g id="line2d_14">
    <path clip-path="url(#pd9a42cfe29)" d="M 45.468818 90.75201 
L 65.71687 107.203631 
L 85.964922 112.284112 
L 106.212974 116.367403 
L 126.461026 120.69689 
L 146.709078 121.750709 
L 166.95713 122.362805 
L 187.205182 125.384351 
" style="fill:none;stroke:#21918c;stroke-linecap:round;stroke-width:1.3;"/>
    <defs>
     <path d="M 0 1.25 
C 0.331504 1.25 0.649475 1.118292 0.883883 0.883883 
C 1.118292 0.649475 1.25 0.331504 1.25 0 
C 1.25 -0.331504 1.118292 -0.649475 0.883883 -0.883883 
C 0.649475 -1.118292 0.331504 -1.25 0 -1.25 
C -0.331504 -1.25 -0.649475 -1.118292 -0.883883 -0.883883 
C -1.118292 -0.649475 -1.25 -0.331504 -1.25 0 
C -1.25 0.331504 -1.118292 0.649475 -0.883883 0.883883 
C -0.649475 1.118292 -0.331504 1.25 0 1.25 
z
" id="m7dec875d8a" style="stroke:#21918c;stroke-width:0.8;"/>
    </defs>
    <g clip-path="url(#pd9a42cfe29)">
     <use style="fill:#21918c;stroke:#21918c;stroke-width:0.8;" x="45.468818" xlink:href="#m7dec875d8a" y="90.75201"/>
     <use style="fill:#21918c;stroke:#21918c;stroke-width:0.8;" x="65.71687" xlink:href="#m7dec875d8a" y="107.203631"/>
     <use style="fill:#21918c;stroke:#21918c;stroke-width:0.8;" x="85.964922" xlink:href="#m7dec875d8a" y="112.284112"/>
     <use style="fill:#21918c;stroke:#21918c;stroke-width:0.8;" x="106.212974" xlink:href="#m7dec875d8a" y="116.367403"/>
     <use style="fill:#21918c;stroke:#21918c;stroke-width:0.8;" x="126.461026" xlink:href="#m7dec875d8a" y="120.69689"/>
     <use style="fill:#21918c;stroke:#21918c;stroke-width:0.8;" x="146.709078" xlink:href="#m7dec875d8a" y="121.750709"/>
     <use style="fill:#21918c;stroke:#21918c;stroke-width:0.8;" x="166.95713" xlink:href="#m7dec875d8a" y="122.362805"/>
     <use style="fill:#21918c;stroke:#21918c;stroke-width:0.8;" x="187.205182" xlink:href="#m7dec875d8a" y="125.384351"/>
    </g>
   </g>
   <g id="line2d_15">
    <path clip-path="url(#pd9a42cfe29)" d="M 45.468818 106.476179 
L 65.71687 109.724041 
L 85.964922 111.429515 
L 106.212974 114.7632 
L 126.461026 117.865104 
L 146.709078 120.227206 
L 166.95713 122.109009 
L 187.205182 122.088431 
" style="fill:none;stroke:#27ad81;stroke-linecap:round;stroke-width:1.3;"/>
    <defs>
     <path d="M 0 1.25 
C 0.331504 1.25 0.649475 1.118292 0.883883 0.883883 
C 1.118292 0.649475 1.25 0.331504 1.25 0 
C 1.25 -0.331504 1.118292 -0.649475 0.883883 -0.883883 
C 0.649475 -1.118292 0.331504 -1.25 0 -1.25 
C -0.331504 -1.25 -0.649475 -1.118292 -0.883883 -0.883883 
C -1.118292 -0.649475 -1.25 -0.331504 -1.25 0 
C -1.25 0.331504 -1.118292 0.649475 -0.883883 0.883883 
C -0.649475 1.118292 -0.331504 1.25 0 1.25 
z
" id="mee712a9fa1" style="stroke:#27ad81;stroke-width:0.8;"/>
    </defs>
    <g clip-path="url(#pd9a42cfe29)">
     <use style="fill:#27ad81;stroke:#27ad81;stroke-width:0.8;" x="45.468818" xlink:href="#mee712a9fa1" y="106.476179"/>
     <use style="fill:#27ad81;stroke:#27ad81;stroke-width:0.8;" x="65.71687" xlink:href="#mee712a9fa1" y="109.724041"/>
     <use style="fill:#27ad81;stroke:#27ad81;stroke-width:0.8;" x="85.964922" xlink:href="#mee712a9fa1" y="111.429515"/>
     <use style="fill:#27ad81;stroke:#27ad81;stroke-width:0.8;" x="106.212974" xlink:href="#mee712a9fa1" y="114.7632"/>
     <use style="fill:#27ad81;stroke:#27ad81;stroke-width:0.8;" x="126.461026" xlink:href="#mee712a9fa1" y="117.865104"/>
     <use style="fill:#27ad81;stroke:#27ad81;stroke-width:0.8;" x="146.709078" xlink:href="#mee712a9fa1" y="120.227206"/>
     <use style="fill:#27ad81;stroke:#27ad81;stroke-width:0.8;" x="166.95713" xlink:href="#mee712a9fa1" y="122.109009"/>
     <use style="fill:#27ad81;stroke:#27ad81;stroke-width:0.8;" x="187.205182" xlink:href="#mee712a9fa1" y="122.088431"/>
    </g>
   </g>
   <g id="line2d_16">
    <path clip-path="url(#pd9a42cfe29)" d="M 45.468818 119.553539 
L 65.71687 119.508608 
L 85.964922 117.477642 
L 106.212974 118.92455 
L 126.461026 120.944737 
L 146.709078 121.773224 
L 166.95713 122.623461 
L 187.205182 126.107327 
" style="fill:none;stroke:#5cc863;stroke-linecap:round;stroke-width:1.3;"/>
    <defs>
     <path d="M 0 1.25 
C 0.331504 1.25 0.649475 1.118292 0.883883 0.883883 
C 1.118292 0.649475 1.25 0.331504 1.25 0 
C 1.25 -0.331504 1.118292 -0.649475 0.883883 -0.883883 
C 0.649475 -1.118292 0.331504 -1.25 0 -1.25 
C -0.331504 -1.25 -0.649475 -1.118292 -0.883883 -0.883883 
C -1.118292 -0.649475 -1.25 -0.331504 -1.25 0 
C -1.25 0.331504 -1.118292 0.649475 -0.883883 0.883883 
C -0.649475 1.118292 -0.331504 1.25 0 1.25 
z
" id="m6ff69f2a1d" style="stroke:#5cc863;stroke-width:0.8;"/>
    </defs>
    <g clip-path="url(#pd9a42cfe29)">
     <use style="fill:#5cc863;stroke:#5cc863;stroke-width:0.8;" x="45.468818" xlink:href="#m6ff69f2a1d" y="119.553539"/>
     <use style="fill:#5cc863;stroke:#5cc863;stroke-width:0.8;" x="65.71687" xlink:href="#m6ff69f2a1d" y="119.508608"/>
     <use style="fill:#5cc863;stroke:#5cc863;stroke-width:0.8;" x="85.964922" xlink:href="#m6ff69f2a1d" y="117.477642"/>
     <use style="fill:#5cc863;stroke:#5cc863;stroke-width:0.8;" x="106.212974" xlink:href="#m6ff69f2a1d" y="118.92455"/>
     <use style="fill:#5cc863;stroke:#5cc863;stroke-width:0.8;" x="126.461026" xlink:href="#m6ff69f2a1d" y="120.944737"/>
     <use style="fill:#5cc863;stroke:#5cc863;stroke-width:0.8;" x="146.709078" xlink:href="#m6ff69f2a1d" y="121.773224"/>
     <use style="fill:#5cc863;stroke:#5cc863;stroke-width:0.8;" x="166.95713" xlink:href="#m6ff69f2a1d" y="122.623461"/>
     <use style="fill:#5cc863;stroke:#5cc863;stroke-width:0.8;" x="187.205182" xlink:href="#m6ff69f2a1d" y="126.107327"/>
    </g>
   </g>
   <g id="line2d_17">
    <path clip-path="url(#pd9a42cfe29)" d="M 45.468818 122.60884 
L 65.71687 122.842052 
L 85.964922 123.538522 
L 106.212974 123.990876 
L 126.461026 125.148702 
L 146.709078 126.328441 
L 166.95713 127.31431 
L 187.205182 126.883463 
" style="fill:none;stroke:#aadc32;stroke-linecap:round;stroke-width:1.3;"/>
    <defs>
     <path d="M 0 1.25 
C 0.331504 1.25 0.649475 1.118292 0.883883 0.883883 
C 1.118292 0.649475 1.25 0.331504 1.25 0 
C 1.25 -0.331504 1.118292 -0.649475 0.883883 -0.883883 
C 0.649475 -1.118292 0.331504 -1.25 0 -1.25 
C -0.331504 -1.25 -0.649475 -1.118292 -0.883883 -0.883883 
C -1.118292 -0.649475 -1.25 -0.331504 -1.25 0 
C -1.25 0.331504 -1.118292 0.649475 -0.883883 0.883883 
C -0.649475 1.118292 -0.331504 1.25 0 1.25 
z
" id="m799a5cb266" style="stroke:#aadc32;stroke-width:0.8;"/>
    </defs>
    <g clip-path="url(#pd9a42cfe29)">
     <use style="fill:#aadc32;stroke:#aadc32;stroke-width:0.8;" x="45.468818" xlink:href="#m799a5cb266" y="122.60884"/>
     <use style="fill:#aadc32;stroke:#aadc32;stroke-width:0.8;" x="65.71687" xlink:href="#m799a5cb266" y="122.842052"/>
     <use style="fill:#aadc32;stroke:#aadc32;stroke-width:0.8;" x="85.964922" xlink:href="#m799a5cb266" y="123.538522"/>
     <use style="fill:#aadc32;stroke:#aadc32;stroke-width:0.8;" x="106.212974" xlink:href="#m799a5cb266" y="123.990876"/>
     <use style="fill:#aadc32;stroke:#aadc32;stroke-width:0.8;" x="126.461026" xlink:href="#m799a5cb266" y="125.148702"/>
     <use style="fill:#aadc32;stroke:#aadc32;stroke-width:0.8;" x="146.709078" xlink:href="#m799a5cb266" y="126.328441"/>
     <use style="fill:#aadc32;stroke:#aadc32;stroke-width:0.8;" x="166.95713" xlink:href="#m799a5cb266" y="127.31431"/>
     <use style="fill:#aadc32;stroke:#aadc32;stroke-width:0.8;" x="187.205182" xlink:href="#m799a5cb266" y="126.883463"/>
    </g>
   </g>
   <g id="line2d_18">
    <path clip-path="url(#pd9a42cfe29)" d="M 45.468818 130.824578 
L 65.71687 128.870201 
L 85.964922 129.13599 
L 106.212974 129.615908 
L 126.461026 129.308209 
L 146.709078 130.452811 
L 166.95713 130.279825 
L 187.205182 131.657231 
" style="fill:none;stroke:#fde725;stroke-linecap:round;stroke-width:1.3;"/>
    <defs>
     <path d="M 0 1.25 
C 0.331504 1.25 0.649475 1.118292 0.883883 0.883883 
C 1.118292 0.649475 1.25 0.331504 1.25 0 
C 1.25 -0.331504 1.118292 -0.649475 0.883883 -0.883883 
C 0.649475 -1.118292 0.331504 -1.25 0 -1.25 
C -0.331504 -1.25 -0.649475 -1.118292 -0.883883 -0.883883 
C -1.118292 -0.649475 -1.25 -0.331504 -1.25 0 
C -1.25 0.331504 -1.118292 0.649475 -0.883883 0.883883 
C -0.649475 1.118292 -0.331504 1.25 0 1.25 
z
" id="m0b54f9b4a8" style="stroke:#fde725;stroke-width:0.8;"/>
    </defs>
    <g clip-path="url(#pd9a42cfe29)">
     <use style="fill:#fde725;stroke:#fde725;stroke-width:0.8;" x="45.468818" xlink:href="#m0b54f9b4a8" y="130.824578"/>
     <use style="fill:#fde725;stroke:#fde725;stroke-width:0.8;" x="65.71687" xlink:href="#m0b54f9b4a8" y="128.870201"/>
     <use style="fill:#fde725;stroke:#fde725;stroke-width:0.8;" x="85.964922" xlink:href="#m0b54f9b4a8" y="129.13599"/>
     <use style="fill:#fde725;stroke:#fde725;stroke-width:0.8;" x="106.212974" xlink:href="#m0b54f9b4a8" y="129.615908"/>
     <use style="fill:#fde725;stroke:#fde725;stroke-width:0.8;" x="126.461026" xlink:href="#m0b54f9b4a8" y="129.308209"/>
     <use style="fill:#fde725;stroke:#fde725;stroke-width:0.8;" x="146.709078" xlink:href="#m0b54f9b4a8" y="130.452811"/>
     <use style="fill:#fde725;stroke:#fde725;stroke-width:0.8;" x="166.95713" xlink:href="#m0b54f9b4a8" y="130.279825"/>
     <use style="fill:#fde725;stroke:#fde725;stroke-width:0.8;" x="187.205182" xlink:href="#m0b54f9b4a8" y="131.657231"/>
    </g>
   </g>
   <g id="patch_3">
    <path d="M 38.382 173.122031 
L 38.382 13.642031 
" style="fill:none;stroke:#000000;stroke-linecap:square;stroke-linejoin:miter;"/>
   </g>
   <g id="patch_4">
    <path d="M 38.382 173.122031 
L 194.292 173.122031 
" style="fill:none;stroke:#000000;stroke-linecap:square;stroke-linejoin:miter;"/>
   </g>
   <g id="text_12">
    <!-- A -->
    <defs>
     <path d="M 71.828125 0 
L 56.109375 0 
L 49.859375 16.265625 
L 21.234375 16.265625 
L 15.328125 0 
L 0 0 
L 27.875 71.578125 
L 43.171875 71.578125 
z
M 45.21875 28.328125 
L 35.359375 54.890625 
L 25.6875 28.328125 
z
" id="Arial-BoldMT-65"/>
    </defs>
    <g transform="translate(7.2 13.642031)scale(0.09 -0.09)">
     <use xlink:href="#Arial-BoldMT-65"/>
    </g>
   </g>
   <g id="legend_1">
    <g id="text_13">
     <!-- Clone size rank (binned) -->
     <defs>
      <path d="M 58.796875 25.09375 
L 68.265625 22.703125 
Q 65.28125 11.03125 57.546875 4.90625 
Q 49.8125 -1.21875 38.625 -1.21875 
Q 27.046875 -1.21875 19.796875 3.484375 
Q 12.546875 8.203125 8.765625 17.140625 
Q 4.984375 26.078125 4.984375 36.328125 
Q 4.984375 47.515625 9.25 55.828125 
Q 13.53125 64.15625 21.40625 68.46875 
Q 29.296875 72.796875 38.765625 72.796875 
Q 49.515625 72.796875 56.828125 67.328125 
Q 64.15625 61.859375 67.046875 51.953125 
L 57.71875 49.75 
Q 55.21875 57.5625 50.484375 61.125 
Q 45.75 64.703125 38.578125 64.703125 
Q 30.328125 64.703125 24.78125 60.734375 
Q 19.234375 56.78125 16.984375 50.109375 
Q 14.75 43.453125 14.75 36.375 
Q 14.75 27.25 17.40625 20.4375 
Q 20.0625 13.625 25.671875 10.25 
Q 31.296875 6.890625 37.84375 6.890625 
Q 45.796875 6.890625 51.3125 11.46875 
Q 56.84375 16.0625 58.796875 25.09375 
z
" id="ArialMT-67"/>
      <path d="M 6.390625 0 
L 6.390625 71.578125 
L 15.1875 71.578125 
L 15.1875 0 
z
" id="ArialMT-108"/>
      <path d="M 3.078125 15.484375 
L 11.765625 16.84375 
Q 12.5 11.625 15.84375 8.84375 
Q 19.1875 6.0625 25.203125 6.0625 
Q 31.25 6.0625 34.171875 8.515625 
Q 37.109375 10.984375 37.109375 14.3125 
Q 37.109375 17.28125 34.515625 19 
Q 32.71875 20.171875 25.53125 21.96875 
Q 15.875 24.421875 12.140625 26.203125 
Q 8.40625 27.984375 6.46875 31.125 
Q 4.546875 34.28125 4.546875 38.09375 
Q 4.546875 41.546875 6.125 44.5 
Q 7.71875 47.46875 10.453125 49.421875 
Q 12.5 50.921875 16.03125 51.96875 
Q 19.578125 53.03125 23.640625 53.03125 
Q 29.734375 53.03125 34.34375 51.265625 
Q 38.96875 49.515625 41.15625 46.5 
Q 43.359375 43.5 44.1875 38.484375 
L 35.59375 37.3125 
Q 35.015625 41.3125 32.203125 43.546875 
Q 29.390625 45.796875 24.265625 45.796875 
Q 18.21875 45.796875 15.625 43.796875 
Q 13.03125 41.796875 13.03125 39.109375 
Q 13.03125 37.40625 14.109375 36.03125 
Q 15.1875 34.625 17.484375 33.6875 
Q 18.796875 33.203125 25.25 31.453125 
Q 34.578125 28.953125 38.25 27.359375 
Q 41.9375 25.78125 44.03125 22.75 
Q 46.140625 19.734375 46.140625 15.234375 
Q 46.140625 10.84375 43.578125 6.953125 
Q 41.015625 3.078125 36.171875 0.953125 
Q 31.34375 -1.171875 25.25 -1.171875 
Q 15.140625 -1.171875 9.84375 3.03125 
Q 4.546875 7.234375 3.078125 15.484375 
z
" id="ArialMT-115"/>
      <path d="M 1.953125 0 
L 1.953125 7.125 
L 34.96875 45.015625 
Q 29.34375 44.734375 25.046875 44.734375 
L 3.90625 44.734375 
L 3.90625 51.859375 
L 46.296875 51.859375 
L 46.296875 46.046875 
L 18.21875 13.140625 
L 12.796875 7.125 
Q 18.703125 7.5625 23.875 7.5625 
L 47.859375 7.5625 
L 47.859375 0 
z
" id="ArialMT-122"/>
      <path d="M 6.640625 0 
L 6.640625 71.578125 
L 15.4375 71.578125 
L 15.4375 30.765625 
L 36.234375 51.859375 
L 47.609375 51.859375 
L 27.78125 32.625 
L 49.609375 0 
L 38.765625 0 
L 21.625 26.515625 
L 15.4375 20.5625 
L 15.4375 0 
z
" id="ArialMT-107"/>
      <path d="M 23.390625 -21.046875 
Q 16.109375 -11.859375 11.078125 0.4375 
Q 6.0625 12.75 6.0625 25.921875 
Q 6.0625 37.546875 9.8125 48.1875 
Q 14.203125 60.546875 23.390625 72.796875 
L 29.6875 72.796875 
Q 23.78125 62.640625 21.875 58.296875 
Q 18.890625 51.5625 17.1875 44.234375 
Q 15.09375 35.109375 15.09375 25.875 
Q 15.09375 2.390625 29.6875 -21.046875 
z
" id="ArialMT-40"/>
      <path d="M 12.359375 -21.046875 
L 6.0625 -21.046875 
Q 20.65625 2.390625 20.65625 25.875 
Q 20.65625 35.0625 18.5625 44.09375 
Q 16.890625 51.421875 13.921875 58.15625 
Q 12.015625 62.546875 6.0625 72.796875 
L 12.359375 72.796875 
Q 21.53125 60.546875 25.921875 48.1875 
Q 29.6875 37.546875 29.6875 25.921875 
Q 29.6875 12.75 24.625 0.4375 
Q 19.578125 -11.859375 12.359375 -21.046875 
z
" id="ArialMT-41"/>
     </defs>
     <g transform="translate(120.975671 23.810324)scale(0.06246 -0.06246)">
      <use xlink:href="#ArialMT-67"/>
      <use x="72.216797" xlink:href="#ArialMT-108"/>
      <use x="94.433594" xlink:href="#ArialMT-111"/>
      <use x="150.048828" xlink:href="#ArialMT-110"/>
      <use x="205.664062" xlink:href="#ArialMT-101"/>
      <use x="261.279297" xlink:href="#ArialMT-32"/>
      <use x="289.0625" xlink:href="#ArialMT-115"/>
      <use x="339.0625" xlink:href="#ArialMT-105"/>
      <use x="361.279297" xlink:href="#ArialMT-122"/>
      <use x="411.279297" xlink:href="#ArialMT-101"/>
      <use x="466.894531" xlink:href="#ArialMT-32"/>
      <use x="494.677734" xlink:href="#ArialMT-114"/>
      <use x="527.978516" xlink:href="#ArialMT-97"/>
      <use x="583.59375" xlink:href="#ArialMT-110"/>
      <use x="639.208984" xlink:href="#ArialMT-107"/>
      <use x="689.208984" xlink:href="#ArialMT-32"/>
      <use x="716.992188" xlink:href="#ArialMT-40"/>
      <use x="750.292969" xlink:href="#ArialMT-98"/>
      <use x="805.908203" xlink:href="#ArialMT-105"/>
      <use x="828.125" xlink:href="#ArialMT-110"/>
      <use x="883.740234" xlink:href="#ArialMT-110"/>
      <use x="939.355469" xlink:href="#ArialMT-101"/>
      <use x="994.970703" xlink:href="#ArialMT-100"/>
      <use x="1050.585938" xlink:href="#ArialMT-41"/>
     </g>
    </g>
    <g id="line2d_19">
     <path d="M 124.964328 30.532582 
L 132.771828 30.532582 
" style="fill:none;stroke:#440154;stroke-linecap:round;stroke-width:1.3;"/>
    </g>
    <g id="line2d_20">
     <defs>
      <path d="M 0 0.9375 
C 0.248628 0.9375 0.487106 0.838719 0.662913 0.662913 
C 0.838719 0.487106 0.9375 0.248628 0.9375 0 
C 0.9375 -0.248628 0.838719 -0.487106 0.662913 -0.662913 
C 0.487106 -0.838719 0.248628 -0.9375 0 -0.9375 
C -0.248628 -0.9375 -0.487106 -0.838719 -0.662913 -0.662913 
C -0.838719 -0.487106 -0.9375 -0.248628 -0.9375 0 
C -0.9375 0.248628 -0.838719 0.487106 -0.662913 0.662913 
C -0.487106 0.838719 -0.248628 0.9375 0 0.9375 
z
" id="mc1cdef9afd" style="stroke:#440154;stroke-width:0.8;"/>
     </defs>
     <g>
      <use style="fill:#440154;stroke:#440154;stroke-width:0.8;" x="128.868078" xlink:href="#mc1cdef9afd" y="30.532582"/>
     </g>
    </g>
    <g id="text_14">
     <!-- 200 -->
     <g transform="translate(135.894828 32.718682)scale(0.06246 -0.06246)">
      <use xlink:href="#ArialMT-50"/>
      <use x="55.615234" xlink:href="#ArialMT-48"/>
      <use x="111.230469" xlink:href="#ArialMT-48"/>
     </g>
    </g>
    <g id="line2d_21">
     <path d="M 124.964328 39.367744 
L 132.771828 39.367744 
" style="fill:none;stroke:#472d7b;stroke-linecap:round;stroke-width:1.3;"/>
    </g>
    <g id="line2d_22">
     <defs>
      <path d="M 0 0.9375 
C 0.248628 0.9375 0.487106 0.838719 0.662913 0.662913 
C 0.838719 0.487106 0.9375 0.248628 0.9375 0 
C 0.9375 -0.248628 0.838719 -0.487106 0.662913 -0.662913 
C 0.487106 -0.838719 0.248628 -0.9375 0 -0.9375 
C -0.248628 -0.9375 -0.487106 -0.838719 -0.662913 -0.662913 
C -0.838719 -0.487106 -0.9375 -0.248628 -0.9375 0 
C -0.9375 0.248628 -0.838719 0.487106 -0.662913 0.662913 
C -0.487106 0.838719 -0.248628 0.9375 0 0.9375 
z
" id="m186fa76882" style="stroke:#472d7b;stroke-width:0.8;"/>
     </defs>
     <g>
      <use style="fill:#472d7b;stroke:#472d7b;stroke-width:0.8;" x="128.868078" xlink:href="#m186fa76882" y="39.367744"/>
     </g>
    </g>
    <g id="text_15">
     <!-- 500 -->
     <g transform="translate(135.894828 41.553844)scale(0.06246 -0.06246)">
      <use xlink:href="#ArialMT-53"/>
      <use x="55.615234" xlink:href="#ArialMT-48"/>
      <use x="111.230469" xlink:href="#ArialMT-48"/>
     </g>
    </g>
    <g id="line2d_23">
     <path d="M 124.964328 48.202906 
L 132.771828 48.202906 
" style="fill:none;stroke:#3b528b;stroke-linecap:round;stroke-width:1.3;"/>
    </g>
    <g id="line2d_24">
     <defs>
      <path d="M 0 0.9375 
C 0.248628 0.9375 0.487106 0.838719 0.662913 0.662913 
C 0.838719 0.487106 0.9375 0.248628 0.9375 0 
C 0.9375 -0.248628 0.838719 -0.487106 0.662913 -0.662913 
C 0.487106 -0.838719 0.248628 -0.9375 0 -0.9375 
C -0.248628 -0.9375 -0.487106 -0.838719 -0.662913 -0.662913 
C -0.838719 -0.487106 -0.9375 -0.248628 -0.9375 0 
C -0.9375 0.248628 -0.838719 0.487106 -0.662913 0.662913 
C -0.487106 0.838719 -0.248628 0.9375 0 0.9375 
z
" id="m5116a5a3fa" style="stroke:#3b528b;stroke-width:0.8;"/>
     </defs>
     <g>
      <use style="fill:#3b528b;stroke:#3b528b;stroke-width:0.8;" x="128.868078" xlink:href="#m5116a5a3fa" y="48.202906"/>
     </g>
    </g>
    <g id="text_16">
     <!-- 1000 -->
     <g transform="translate(135.894828 50.389006)scale(0.06246 -0.06246)">
      <use xlink:href="#ArialMT-49"/>
      <use x="55.615234" xlink:href="#ArialMT-48"/>
      <use x="111.230469" xlink:href="#ArialMT-48"/>
      <use x="166.845703" xlink:href="#ArialMT-48"/>
     </g>
    </g>
    <g id="line2d_25">
     <path d="M 124.964328 57.038068 
L 132.771828 57.038068 
" style="fill:none;stroke:#2c728e;stroke-linecap:round;stroke-width:1.3;"/>
    </g>
    <g id="line2d_26">
     <defs>
      <path d="M 0 0.9375 
C 0.248628 0.9375 0.487106 0.838719 0.662913 0.662913 
C 0.838719 0.487106 0.9375 0.248628 0.9375 0 
C 0.9375 -0.248628 0.838719 -0.487106 0.662913 -0.662913 
C 0.487106 -0.838719 0.248628 -0.9375 0 -0.9375 
C -0.248628 -0.9375 -0.487106 -0.838719 -0.662913 -0.662913 
C -0.838719 -0.487106 -0.9375 -0.248628 -0.9375 0 
C -0.9375 0.248628 -0.838719 0.487106 -0.662913 0.662913 
C -0.487106 0.838719 -0.248628 0.9375 0 0.9375 
z
" id="ma11d892362" style="stroke:#2c728e;stroke-width:0.8;"/>
     </defs>
     <g>
      <use style="fill:#2c728e;stroke:#2c728e;stroke-width:0.8;" x="128.868078" xlink:href="#ma11d892362" y="57.038068"/>
     </g>
    </g>
    <g id="text_17">
     <!-- 2000 -->
     <g transform="translate(135.894828 59.224168)scale(0.06246 -0.06246)">
      <use xlink:href="#ArialMT-50"/>
      <use x="55.615234" xlink:href="#ArialMT-48"/>
      <use x="111.230469" xlink:href="#ArialMT-48"/>
      <use x="166.845703" xlink:href="#ArialMT-48"/>
     </g>
    </g>
    <g id="line2d_27">
     <path d="M 124.964328 65.87323 
L 132.771828 65.87323 
" style="fill:none;stroke:#21918c;stroke-linecap:round;stroke-width:1.3;"/>
    </g>
    <g id="line2d_28">
     <defs>
      <path d="M 0 0.9375 
C 0.248628 0.9375 0.487106 0.838719 0.662913 0.662913 
C 0.838719 0.487106 0.9375 0.248628 0.9375 0 
C 0.9375 -0.248628 0.838719 -0.487106 0.662913 -0.662913 
C 0.487106 -0.838719 0.248628 -0.9375 0 -0.9375 
C -0.248628 -0.9375 -0.487106 -0.838719 -0.662913 -0.662913 
C -0.838719 -0.487106 -0.9375 -0.248628 -0.9375 0 
C -0.9375 0.248628 -0.838719 0.487106 -0.662913 0.662913 
C -0.487106 0.838719 -0.248628 0.9375 0 0.9375 
z
" id="m3d9f633f22" style="stroke:#21918c;stroke-width:0.8;"/>
     </defs>
     <g>
      <use style="fill:#21918c;stroke:#21918c;stroke-width:0.8;" x="128.868078" xlink:href="#m3d9f633f22" y="65.87323"/>
     </g>
    </g>
    <g id="text_18">
     <!-- 5000 -->
     <g transform="translate(135.894828 68.05933)scale(0.06246 -0.06246)">
      <use xlink:href="#ArialMT-53"/>
      <use x="55.615234" xlink:href="#ArialMT-48"/>
      <use x="111.230469" xlink:href="#ArialMT-48"/>
      <use x="166.845703" xlink:href="#ArialMT-48"/>
     </g>
    </g>
    <g id="line2d_29">
     <path d="M 152.911274 30.532582 
L 160.718774 30.532582 
" style="fill:none;stroke:#27ad81;stroke-linecap:round;stroke-width:1.3;"/>
    </g>
    <g id="line2d_30">
     <defs>
      <path d="M 0 0.9375 
C 0.248628 0.9375 0.487106 0.838719 0.662913 0.662913 
C 0.838719 0.487106 0.9375 0.248628 0.9375 0 
C 0.9375 -0.248628 0.838719 -0.487106 0.662913 -0.662913 
C 0.487106 -0.838719 0.248628 -0.9375 0 -0.9375 
C -0.248628 -0.9375 -0.487106 -0.838719 -0.662913 -0.662913 
C -0.838719 -0.487106 -0.9375 -0.248628 -0.9375 0 
C -0.9375 0.248628 -0.838719 0.487106 -0.662913 0.662913 
C -0.487106 0.838719 -0.248628 0.9375 0 0.9375 
z
" id="m27fd9e7ce3" style="stroke:#27ad81;stroke-width:0.8;"/>
     </defs>
     <g>
      <use style="fill:#27ad81;stroke:#27ad81;stroke-width:0.8;" x="156.815024" xlink:href="#m27fd9e7ce3" y="30.532582"/>
     </g>
    </g>
    <g id="text_19">
     <!-- 10000 -->
     <g transform="translate(163.841774 32.718682)scale(0.06246 -0.06246)">
      <use xlink:href="#ArialMT-49"/>
      <use x="55.615234" xlink:href="#ArialMT-48"/>
      <use x="111.230469" xlink:href="#ArialMT-48"/>
      <use x="166.845703" xlink:href="#ArialMT-48"/>
      <use x="222.460938" xlink:href="#ArialMT-48"/>
     </g>
    </g>
    <g id="line2d_31">
     <path d="M 152.911274 39.367744 
L 160.718774 39.367744 
" style="fill:none;stroke:#5cc863;stroke-linecap:round;stroke-width:1.3;"/>
    </g>
    <g id="line2d_32">
     <defs>
      <path d="M 0 0.9375 
C 0.248628 0.9375 0.487106 0.838719 0.662913 0.662913 
C 0.838719 0.487106 0.9375 0.248628 0.9375 0 
C 0.9375 -0.248628 0.838719 -0.487106 0.662913 -0.662913 
C 0.487106 -0.838719 0.248628 -0.9375 0 -0.9375 
C -0.248628 -0.9375 -0.487106 -0.838719 -0.662913 -0.662913 
C -0.838719 -0.487106 -0.9375 -0.248628 -0.9375 0 
C -0.9375 0.248628 -0.838719 0.487106 -0.662913 0.662913 
C -0.487106 0.838719 -0.248628 0.9375 0 0.9375 
z
" id="m1b47671921" style="stroke:#5cc863;stroke-width:0.8;"/>
     </defs>
     <g>
      <use style="fill:#5cc863;stroke:#5cc863;stroke-width:0.8;" x="156.815024" xlink:href="#m1b47671921" y="39.367744"/>
     </g>
    </g>
    <g id="text_20">
     <!-- 20000 -->
     <g transform="translate(163.841774 41.553844)scale(0.06246 -0.06246)">
      <use xlink:href="#ArialMT-50"/>
      <use x="55.615234" xlink:href="#ArialMT-48"/>
      <use x="111.230469" xlink:href="#ArialMT-48"/>
      <use x="166.845703" xlink:href="#ArialMT-48"/>
      <use x="222.460938" xlink:href="#ArialMT-48"/>
     </g>
    </g>
    <g id="line2d_33">
     <path d="M 152.911274 48.202906 
L 160.718774 48.202906 
" style="fill:none;stroke:#aadc32;stroke-linecap:round;stroke-width:1.3;"/>
    </g>
    <g id="line2d_34">
     <defs>
      <path d="M 0 0.9375 
C 0.248628 0.9375 0.487106 0.838719 0.662913 0.662913 
C 0.838719 0.487106 0.9375 0.248628 0.9375 0 
C 0.9375 -0.248628 0.838719 -0.487106 0.662913 -0.662913 
C 0.487106 -0.838719 0.248628 -0.9375 0 -0.9375 
C -0.248628 -0.9375 -0.487106 -0.838719 -0.662913 -0.662913 
C -0.838719 -0.487106 -0.9375 -0.248628 -0.9375 0 
C -0.9375 0.248628 -0.838719 0.487106 -0.662913 0.662913 
C -0.487106 0.838719 -0.248628 0.9375 0 0.9375 
z
" id="ma130f803de" style="stroke:#aadc32;stroke-width:0.8;"/>
     </defs>
     <g>
      <use style="fill:#aadc32;stroke:#aadc32;stroke-width:0.8;" x="156.815024" xlink:href="#ma130f803de" y="48.202906"/>
     </g>
    </g>
    <g id="text_21">
     <!-- 50000 -->
     <g transform="translate(163.841774 50.389006)scale(0.06246 -0.06246)">
      <use xlink:href="#ArialMT-53"/>
      <use x="55.615234" xlink:href="#ArialMT-48"/>
      <use x="111.230469" xlink:href="#ArialMT-48"/>
      <use x="166.845703" xlink:href="#ArialMT-48"/>
      <use x="222.460938" xlink:href="#ArialMT-48"/>
     </g>
    </g>
    <g id="line2d_35">
     <path d="M 152.911274 57.038068 
L 160.718774 57.038068 
" style="fill:none;stroke:#fde725;stroke-linecap:round;stroke-width:1.3;"/>
    </g>
    <g id="line2d_36">
     <defs>
      <path d="M 0 0.9375 
C 0.248628 0.9375 0.487106 0.838719 0.662913 0.662913 
C 0.838719 0.487106 0.9375 0.248628 0.9375 0 
C 0.9375 -0.248628 0.838719 -0.487106 0.662913 -0.662913 
C 0.487106 -0.838719 0.248628 -0.9375 0 -0.9375 
C -0.248628 -0.9375 -0.487106 -0.838719 -0.662913 -0.662913 
C -0.838719 -0.487106 -0.9375 -0.248628 -0.9375 0 
C -0.9375 0.248628 -0.838719 0.487106 -0.662913 0.662913 
C -0.487106 0.838719 -0.248628 0.9375 0 0.9375 
z
" id="mc13446f69b" style="stroke:#fde725;stroke-width:0.8;"/>
     </defs>
     <g>
      <use style="fill:#fde725;stroke:#fde725;stroke-width:0.8;" x="156.815024" xlink:href="#mc13446f69b" y="57.038068"/>
     </g>
    </g>
    <g id="text_22">
     <!-- 100000 -->
     <g transform="translate(163.841774 59.224168)scale(0.06246 -0.06246)">
      <use xlink:href="#ArialMT-49"/>
      <use x="55.615234" xlink:href="#ArialMT-48"/>
      <use x="111.230469" xlink:href="#ArialMT-48"/>
      <use x="166.845703" xlink:href="#ArialMT-48"/>
      <use x="222.460938" xlink:href="#ArialMT-48"/>
      <use x="278.076172" xlink:href="#ArialMT-48"/>
     </g>
    </g>
   </g>
  </g>
  <g id="axes_2">
   <g id="patch_5">
    <path d="M 231.522 173.122031 
L 387.432 173.122031 
L 387.432 13.642031 
L 231.522 13.642031 
z
" style="fill:#ffffff;"/>
   </g>
   <g id="matplotlib.axis_3">
    <g id="xtick_4">
     <g id="line2d_37">
      <g>
       <use style="stroke:#000000;stroke-width:0.8;" x="268.980896" xlink:href="#md2f01e354e" y="173.122031"/>
      </g>
     </g>
     <g id="text_23">
      <!-- 20 -->
      <g transform="translate(264.811861 182.988243)scale(0.07497 -0.07497)">
       <use xlink:href="#ArialMT-50"/>
       <use x="55.615234" xlink:href="#ArialMT-48"/>
      </g>
     </g>
    </g>
    <g id="xtick_5">
     <g id="line2d_38">
      <g>
       <use style="stroke:#000000;stroke-width:0.8;" x="309.477" xlink:href="#md2f01e354e" y="173.122031"/>
      </g>
     </g>
     <g id="text_24">
      <!-- 40 -->
      <g transform="translate(305.307965 182.988243)scale(0.07497 -0.07497)">
       <use xlink:href="#ArialMT-52"/>
       <use x="55.615234" xlink:href="#ArialMT-48"/>
      </g>
     </g>
    </g>
    <g id="xtick_6">
     <g id="line2d_39">
      <g>
       <use style="stroke:#000000;stroke-width:0.8;" x="349.973104" xlink:href="#md2f01e354e" y="173.122031"/>
      </g>
     </g>
     <g id="text_25">
      <!-- 60 -->
      <g transform="translate(345.804069 182.988243)scale(0.07497 -0.07497)">
       <use xlink:href="#ArialMT-54"/>
       <use x="55.615234" xlink:href="#ArialMT-48"/>
      </g>
     </g>
    </g>
    <g id="text_26">
     <!-- Age -->
     <g transform="translate(302.807599 191.344484)scale(0.07497 -0.07497)">
      <use xlink:href="#ArialMT-65"/>
      <use x="66.699219" xlink:href="#ArialMT-103"/>
      <use x="122.314453" xlink:href="#ArialMT-101"/>
     </g>
    </g>
   </g>
   <g id="matplotlib.axis_4">
    <g id="ytick_7">
     <g id="line2d_40">
      <g>
       <use style="stroke:#000000;stroke-width:0.8;" x="231.522" xlink:href="#m3d77476ac2" y="173.122031"/>
      </g>
     </g>
     <g id="text_27">
      <!-- 0.00 -->
      <g transform="translate(212.432135 175.805137)scale(0.07497 -0.07497)">
       <use xlink:href="#ArialMT-48"/>
       <use x="55.615234" xlink:href="#ArialMT-46"/>
       <use x="83.398438" xlink:href="#ArialMT-48"/>
       <use x="139.013672" xlink:href="#ArialMT-48"/>
      </g>
     </g>
    </g>
    <g id="ytick_8">
     <g id="line2d_41">
      <g>
       <use style="stroke:#000000;stroke-width:0.8;" x="231.522" xlink:href="#m3d77476ac2" y="146.542031"/>
      </g>
     </g>
     <g id="text_28">
      <!-- 0.05 -->
      <g transform="translate(212.432135 149.225137)scale(0.07497 -0.07497)">
       <use xlink:href="#ArialMT-48"/>
       <use x="55.615234" xlink:href="#ArialMT-46"/>
       <use x="83.398438" xlink:href="#ArialMT-48"/>
       <use x="139.013672" xlink:href="#ArialMT-53"/>
      </g>
     </g>
    </g>
    <g id="ytick_9">
     <g id="line2d_42">
      <g>
       <use style="stroke:#000000;stroke-width:0.8;" x="231.522" xlink:href="#m3d77476ac2" y="119.962031"/>
      </g>
     </g>
     <g id="text_29">
      <!-- 0.10 -->
      <g transform="translate(212.432135 122.645137)scale(0.07497 -0.07497)">
       <use xlink:href="#ArialMT-48"/>
       <use x="55.615234" xlink:href="#ArialMT-46"/>
       <use x="83.398438" xlink:href="#ArialMT-49"/>
       <use x="139.013672" xlink:href="#ArialMT-48"/>
      </g>
     </g>
    </g>
    <g id="ytick_10">
     <g id="line2d_43">
      <g>
       <use style="stroke:#000000;stroke-width:0.8;" x="231.522" xlink:href="#m3d77476ac2" y="93.382031"/>
      </g>
     </g>
     <g id="text_30">
      <!-- 0.15 -->
      <g transform="translate(212.432135 96.065137)scale(0.07497 -0.07497)">
       <use xlink:href="#ArialMT-48"/>
       <use x="55.615234" xlink:href="#ArialMT-46"/>
       <use x="83.398438" xlink:href="#ArialMT-49"/>
       <use x="139.013672" xlink:href="#ArialMT-53"/>
      </g>
     </g>
    </g>
    <g id="ytick_11">
     <g id="line2d_44">
      <g>
       <use style="stroke:#000000;stroke-width:0.8;" x="231.522" xlink:href="#m3d77476ac2" y="66.802031"/>
      </g>
     </g>
     <g id="text_31">
      <!-- 0.20 -->
      <g transform="translate(212.432135 69.485137)scale(0.07497 -0.07497)">
       <use xlink:href="#ArialMT-48"/>
       <use x="55.615234" xlink:href="#ArialMT-46"/>
       <use x="83.398438" xlink:href="#ArialMT-50"/>
       <use x="139.013672" xlink:href="#ArialMT-48"/>
      </g>
     </g>
    </g>
    <g id="ytick_12">
     <g id="line2d_45">
      <g>
       <use style="stroke:#000000;stroke-width:0.8;" x="231.522" xlink:href="#m3d77476ac2" y="40.222031"/>
      </g>
     </g>
     <g id="text_32">
      <!-- 0.25 -->
      <g transform="translate(212.432135 42.905137)scale(0.07497 -0.07497)">
       <use xlink:href="#ArialMT-48"/>
       <use x="55.615234" xlink:href="#ArialMT-46"/>
       <use x="83.398438" xlink:href="#ArialMT-50"/>
       <use x="139.013672" xlink:href="#ArialMT-53"/>
      </g>
     </g>
    </g>
    <g id="ytick_13">
     <g id="line2d_46">
      <g>
       <use style="stroke:#000000;stroke-width:0.8;" x="231.522" xlink:href="#m3d77476ac2" y="13.642031"/>
      </g>
     </g>
     <g id="text_33">
      <!-- 0.30 -->
      <g transform="translate(212.432135 16.325137)scale(0.07497 -0.07497)">
       <use xlink:href="#ArialMT-48"/>
       <use x="55.615234" xlink:href="#ArialMT-46"/>
       <use x="83.398438" xlink:href="#ArialMT-51"/>
       <use x="139.013672" xlink:href="#ArialMT-48"/>
      </g>
     </g>
    </g>
    <g id="text_34">
     <!-- Fraction with close match in VDJdb -->
     <g transform="translate(209.442106 151.92013)rotate(-90)scale(0.07497 -0.07497)">
      <use xlink:href="#ArialMT-70"/>
      <use x="61.083984" xlink:href="#ArialMT-114"/>
      <use x="94.384766" xlink:href="#ArialMT-97"/>
      <use x="150" xlink:href="#ArialMT-99"/>
      <use x="200" xlink:href="#ArialMT-116"/>
      <use x="227.783203" xlink:href="#ArialMT-105"/>
      <use x="250" xlink:href="#ArialMT-111"/>
      <use x="305.615234" xlink:href="#ArialMT-110"/>
      <use x="361.230469" xlink:href="#ArialMT-32"/>
      <use x="389.013672" xlink:href="#ArialMT-119"/>
      <use x="461.230469" xlink:href="#ArialMT-105"/>
      <use x="483.447266" xlink:href="#ArialMT-116"/>
      <use x="511.230469" xlink:href="#ArialMT-104"/>
      <use x="566.845703" xlink:href="#ArialMT-32"/>
      <use x="594.628906" xlink:href="#ArialMT-99"/>
      <use x="644.628906" xlink:href="#ArialMT-108"/>
      <use x="666.845703" xlink:href="#ArialMT-111"/>
      <use x="722.460938" xlink:href="#ArialMT-115"/>
      <use x="772.460938" xlink:href="#ArialMT-101"/>
      <use x="828.076172" xlink:href="#ArialMT-32"/>
      <use x="855.859375" xlink:href="#ArialMT-109"/>
      <use x="939.160156" xlink:href="#ArialMT-97"/>
      <use x="994.775391" xlink:href="#ArialMT-116"/>
      <use x="1022.558594" xlink:href="#ArialMT-99"/>
      <use x="1072.558594" xlink:href="#ArialMT-104"/>
      <use x="1128.173828" xlink:href="#ArialMT-32"/>
      <use x="1155.957031" xlink:href="#ArialMT-105"/>
      <use x="1178.173828" xlink:href="#ArialMT-110"/>
      <use x="1233.789062" xlink:href="#ArialMT-32"/>
      <use x="1261.572266" xlink:href="#ArialMT-86"/>
      <use x="1328.271484" xlink:href="#ArialMT-68"/>
      <use x="1400.488281" xlink:href="#ArialMT-74"/>
      <use x="1450.488281" xlink:href="#ArialMT-100"/>
      <use x="1506.103516" xlink:href="#ArialMT-98"/>
     </g>
    </g>
   </g>
   <g id="PolyCollection_10">
    <path clip-path="url(#pdb3b984d1a)" d="M 238.608818 50.853421 
L 238.608818 60.030049 
L 258.85687 54.654009 
L 279.104922 53.486179 
L 299.352974 54.619185 
L 319.601026 53.377977 
L 339.849078 53.519059 
L 360.09713 62.275541 
L 380.345182 81.303981 
L 380.345182 70.465308 
L 380.345182 70.465308 
L 360.09713 53.197764 
L 339.849078 48.657276 
L 319.601026 50.065102 
L 299.352974 51.093732 
L 279.104922 50.239265 
L 258.85687 45.510952 
L 238.608818 50.853421 
z
" style="fill:#440154;fill-opacity:0.5;"/>
   </g>
   <g id="PolyCollection_11">
    <path clip-path="url(#pdb3b984d1a)" d="M 238.608818 48.954468 
L 238.608818 61.893384 
L 258.85687 55.127728 
L 279.104922 55.22803 
L 299.352974 55.383123 
L 319.601026 57.068491 
L 339.849078 58.526028 
L 360.09713 63.828299 
L 380.345182 77.599688 
L 380.345182 65.218774 
L 380.345182 65.218774 
L 360.09713 58.000538 
L 339.849078 55.148247 
L 319.601026 54.107484 
L 299.352974 52.737892 
L 279.104922 52.491374 
L 258.85687 48.560805 
L 238.608818 48.954468 
z
" style="fill:#472d7b;fill-opacity:0.5;"/>
   </g>
   <g id="PolyCollection_12">
    <path clip-path="url(#pdb3b984d1a)" d="M 238.608818 46.236186 
L 238.608818 58.045939 
L 258.85687 61.858724 
L 279.104922 60.590133 
L 299.352974 60.795225 
L 319.601026 60.305444 
L 339.849078 61.073074 
L 360.09713 64.912843 
L 380.345182 76.37739 
L 380.345182 64.881712 
L 380.345182 64.881712 
L 360.09713 58.813749 
L 339.849078 58.321633 
L 319.601026 58.010269 
L 299.352974 58.3146 
L 279.104922 58.654001 
L 258.85687 57.360868 
L 238.608818 46.236186 
z
" style="fill:#3b528b;fill-opacity:0.5;"/>
   </g>
   <g id="PolyCollection_13">
    <path clip-path="url(#pdb3b984d1a)" d="M 238.608818 45.016368 
L 238.608818 57.978726 
L 258.85687 63.732613 
L 279.104922 66.569058 
L 299.352974 66.818255 
L 319.601026 66.524436 
L 339.849078 68.175278 
L 360.09713 69.296186 
L 380.345182 76.617098 
L 380.345182 69.001125 
L 380.345182 69.001125 
L 360.09713 64.17069 
L 339.849078 65.491325 
L 319.601026 64.680598 
L 299.352974 65.071669 
L 279.104922 65.002812 
L 258.85687 59.395802 
L 238.608818 45.016368 
z
" style="fill:#2c728e;fill-opacity:0.5;"/>
   </g>
   <g id="PolyCollection_14">
    <path clip-path="url(#pdb3b984d1a)" d="M 238.608818 46.002025 
L 238.608818 56.396185 
L 258.85687 60.734476 
L 279.104922 66.627984 
L 299.352974 69.010148 
L 319.601026 70.78404 
L 339.849078 71.696749 
L 360.09713 72.209039 
L 380.345182 72.073857 
L 380.345182 65.499485 
L 380.345182 65.499485 
L 360.09713 68.174353 
L 339.849078 69.633234 
L 319.601026 69.113229 
L 299.352974 67.284462 
L 279.104922 65.132301 
L 258.85687 56.01474 
L 238.608818 46.002025 
z
" style="fill:#21918c;fill-opacity:0.5;"/>
   </g>
   <g id="PolyCollection_15">
    <path clip-path="url(#pdb3b984d1a)" d="M 238.608818 53.041551 
L 238.608818 60.630309 
L 258.85687 59.162834 
L 279.104922 62.451093 
L 299.352974 65.046476 
L 319.601026 66.550179 
L 339.849078 68.644328 
L 360.09713 71.11936 
L 380.345182 69.766402 
L 380.345182 63.433644 
L 380.345182 63.433644 
L 360.09713 67.272532 
L 339.849078 66.713389 
L 319.601026 64.754196 
L 299.352974 63.335611 
L 279.104922 60.814359 
L 258.85687 54.790791 
L 238.608818 53.041551 
z
" style="fill:#27ad81;fill-opacity:0.5;"/>
   </g>
   <g id="PolyCollection_16">
    <path clip-path="url(#pdb3b984d1a)" d="M 238.608818 64.003158 
L 238.608818 69.964631 
L 258.85687 66.585533 
L 279.104922 64.243287 
L 299.352974 65.375221 
L 319.601026 67.262069 
L 339.849078 69.173282 
L 360.09713 69.67837 
L 380.345182 67.126562 
L 380.345182 61.597412 
L 380.345182 61.597412 
L 360.09713 65.812015 
L 339.849078 67.466529 
L 319.601026 65.663344 
L 299.352974 63.605661 
L 279.104922 62.285785 
L 258.85687 62.177843 
L 238.608818 64.003158 
z
" style="fill:#5cc863;fill-opacity:0.5;"/>
   </g>
   <g id="PolyCollection_17">
    <path clip-path="url(#pdb3b984d1a)" d="M 238.608818 68.555973 
L 238.608818 72.330077 
L 258.85687 69.485457 
L 279.104922 69.284184 
L 299.352974 69.799923 
L 319.601026 70.167998 
L 339.849078 71.850033 
L 360.09713 71.826077 
L 380.345182 69.237673 
L 380.345182 65.479205 
L 380.345182 65.479205 
L 360.09713 68.917145 
L 339.849078 70.439945 
L 319.601026 68.96682 
L 299.352974 68.304838 
L 279.104922 67.614382 
L 258.85687 65.859335 
L 238.608818 68.555973 
z
" style="fill:#aadc32;fill-opacity:0.5;"/>
   </g>
   <g id="PolyCollection_18">
    <path clip-path="url(#pdb3b984d1a)" d="M 238.608818 78.10276 
L 238.608818 80.705858 
L 258.85687 74.685636 
L 279.104922 75.585187 
L 299.352974 75.119104 
L 319.601026 73.829068 
L 339.849078 75.309926 
L 360.09713 75.353302 
L 380.345182 75.162219 
L 380.345182 70.400717 
L 380.345182 70.400717 
L 360.09713 73.081811 
L 339.849078 74.176864 
L 319.601026 72.830519 
L 299.352974 74.194937 
L 279.104922 74.516487 
L 258.85687 72.856287 
L 238.608818 78.10276 
z
" style="fill:#fde725;fill-opacity:0.5;"/>
   </g>
   <g id="line2d_47">
    <path clip-path="url(#pdb3b984d1a)" d="M 238.608818 55.441735 
L 258.85687 50.082481 
L 279.104922 51.862722 
L 299.352974 52.856458 
L 319.601026 51.72154 
L 339.849078 51.088168 
L 360.09713 57.736653 
L 380.345182 75.884644 
" style="fill:none;stroke:#440154;stroke-linecap:round;stroke-width:1.3;"/>
    <g clip-path="url(#pdb3b984d1a)">
     <use style="fill:#440154;stroke:#440154;stroke-width:0.8;" x="238.608818" xlink:href="#m3e75eda2a5" y="55.441735"/>
     <use style="fill:#440154;stroke:#440154;stroke-width:0.8;" x="258.85687" xlink:href="#m3e75eda2a5" y="50.082481"/>
     <use style="fill:#440154;stroke:#440154;stroke-width:0.8;" x="279.104922" xlink:href="#m3e75eda2a5" y="51.862722"/>
     <use style="fill:#440154;stroke:#440154;stroke-width:0.8;" x="299.352974" xlink:href="#m3e75eda2a5" y="52.856458"/>
     <use style="fill:#440154;stroke:#440154;stroke-width:0.8;" x="319.601026" xlink:href="#m3e75eda2a5" y="51.72154"/>
     <use style="fill:#440154;stroke:#440154;stroke-width:0.8;" x="339.849078" xlink:href="#m3e75eda2a5" y="51.088168"/>
     <use style="fill:#440154;stroke:#440154;stroke-width:0.8;" x="360.09713" xlink:href="#m3e75eda2a5" y="57.736653"/>
     <use style="fill:#440154;stroke:#440154;stroke-width:0.8;" x="380.345182" xlink:href="#m3e75eda2a5" y="75.884644"/>
    </g>
   </g>
   <g id="line2d_48">
    <path clip-path="url(#pdb3b984d1a)" d="M 238.608818 55.423926 
L 258.85687 51.844267 
L 279.104922 53.859702 
L 299.352974 54.060507 
L 319.601026 55.587987 
L 339.849078 56.837137 
L 360.09713 60.914418 
L 380.345182 71.409231 
" style="fill:none;stroke:#472d7b;stroke-linecap:round;stroke-width:1.3;"/>
    <g clip-path="url(#pdb3b984d1a)">
     <use style="fill:#472d7b;stroke:#472d7b;stroke-width:0.8;" x="238.608818" xlink:href="#md3d68bdabe" y="55.423926"/>
     <use style="fill:#472d7b;stroke:#472d7b;stroke-width:0.8;" x="258.85687" xlink:href="#md3d68bdabe" y="51.844267"/>
     <use style="fill:#472d7b;stroke:#472d7b;stroke-width:0.8;" x="279.104922" xlink:href="#md3d68bdabe" y="53.859702"/>
     <use style="fill:#472d7b;stroke:#472d7b;stroke-width:0.8;" x="299.352974" xlink:href="#md3d68bdabe" y="54.060507"/>
     <use style="fill:#472d7b;stroke:#472d7b;stroke-width:0.8;" x="319.601026" xlink:href="#md3d68bdabe" y="55.587987"/>
     <use style="fill:#472d7b;stroke:#472d7b;stroke-width:0.8;" x="339.849078" xlink:href="#md3d68bdabe" y="56.837137"/>
     <use style="fill:#472d7b;stroke:#472d7b;stroke-width:0.8;" x="360.09713" xlink:href="#md3d68bdabe" y="60.914418"/>
     <use style="fill:#472d7b;stroke:#472d7b;stroke-width:0.8;" x="380.345182" xlink:href="#md3d68bdabe" y="71.409231"/>
    </g>
   </g>
   <g id="line2d_49">
    <path clip-path="url(#pdb3b984d1a)" d="M 238.608818 52.141063 
L 258.85687 59.609796 
L 279.104922 59.622067 
L 299.352974 59.554913 
L 319.601026 59.157856 
L 339.849078 59.697354 
L 360.09713 61.863296 
L 380.345182 70.629551 
" style="fill:none;stroke:#3b528b;stroke-linecap:round;stroke-width:1.3;"/>
    <g clip-path="url(#pdb3b984d1a)">
     <use style="fill:#3b528b;stroke:#3b528b;stroke-width:0.8;" x="238.608818" xlink:href="#m4a8f6d7560" y="52.141063"/>
     <use style="fill:#3b528b;stroke:#3b528b;stroke-width:0.8;" x="258.85687" xlink:href="#m4a8f6d7560" y="59.609796"/>
     <use style="fill:#3b528b;stroke:#3b528b;stroke-width:0.8;" x="279.104922" xlink:href="#m4a8f6d7560" y="59.622067"/>
     <use style="fill:#3b528b;stroke:#3b528b;stroke-width:0.8;" x="299.352974" xlink:href="#m4a8f6d7560" y="59.554913"/>
     <use style="fill:#3b528b;stroke:#3b528b;stroke-width:0.8;" x="319.601026" xlink:href="#m4a8f6d7560" y="59.157856"/>
     <use style="fill:#3b528b;stroke:#3b528b;stroke-width:0.8;" x="339.849078" xlink:href="#m4a8f6d7560" y="59.697354"/>
     <use style="fill:#3b528b;stroke:#3b528b;stroke-width:0.8;" x="360.09713" xlink:href="#m4a8f6d7560" y="61.863296"/>
     <use style="fill:#3b528b;stroke:#3b528b;stroke-width:0.8;" x="380.345182" xlink:href="#m4a8f6d7560" y="70.629551"/>
    </g>
   </g>
   <g id="line2d_50">
    <path clip-path="url(#pdb3b984d1a)" d="M 238.608818 51.497547 
L 258.85687 61.564208 
L 279.104922 65.785935 
L 299.352974 65.944962 
L 319.601026 65.602517 
L 339.849078 66.833302 
L 360.09713 66.733438 
L 380.345182 72.809111 
" style="fill:none;stroke:#2c728e;stroke-linecap:round;stroke-width:1.3;"/>
    <g clip-path="url(#pdb3b984d1a)">
     <use style="fill:#2c728e;stroke:#2c728e;stroke-width:0.8;" x="238.608818" xlink:href="#m4e1145646f" y="51.497547"/>
     <use style="fill:#2c728e;stroke:#2c728e;stroke-width:0.8;" x="258.85687" xlink:href="#m4e1145646f" y="61.564208"/>
     <use style="fill:#2c728e;stroke:#2c728e;stroke-width:0.8;" x="279.104922" xlink:href="#m4e1145646f" y="65.785935"/>
     <use style="fill:#2c728e;stroke:#2c728e;stroke-width:0.8;" x="299.352974" xlink:href="#m4e1145646f" y="65.944962"/>
     <use style="fill:#2c728e;stroke:#2c728e;stroke-width:0.8;" x="319.601026" xlink:href="#m4e1145646f" y="65.602517"/>
     <use style="fill:#2c728e;stroke:#2c728e;stroke-width:0.8;" x="339.849078" xlink:href="#m4e1145646f" y="66.833302"/>
     <use style="fill:#2c728e;stroke:#2c728e;stroke-width:0.8;" x="360.09713" xlink:href="#m4e1145646f" y="66.733438"/>
     <use style="fill:#2c728e;stroke:#2c728e;stroke-width:0.8;" x="380.345182" xlink:href="#m4e1145646f" y="72.809111"/>
    </g>
   </g>
   <g id="line2d_51">
    <path clip-path="url(#pdb3b984d1a)" d="M 238.608818 51.199105 
L 258.85687 58.374608 
L 279.104922 65.880143 
L 299.352974 68.147305 
L 319.601026 69.948634 
L 339.849078 70.664991 
L 360.09713 70.191696 
L 380.345182 68.786671 
" style="fill:none;stroke:#21918c;stroke-linecap:round;stroke-width:1.3;"/>
    <g clip-path="url(#pdb3b984d1a)">
     <use style="fill:#21918c;stroke:#21918c;stroke-width:0.8;" x="238.608818" xlink:href="#m7dec875d8a" y="51.199105"/>
     <use style="fill:#21918c;stroke:#21918c;stroke-width:0.8;" x="258.85687" xlink:href="#m7dec875d8a" y="58.374608"/>
     <use style="fill:#21918c;stroke:#21918c;stroke-width:0.8;" x="279.104922" xlink:href="#m7dec875d8a" y="65.880143"/>
     <use style="fill:#21918c;stroke:#21918c;stroke-width:0.8;" x="299.352974" xlink:href="#m7dec875d8a" y="68.147305"/>
     <use style="fill:#21918c;stroke:#21918c;stroke-width:0.8;" x="319.601026" xlink:href="#m7dec875d8a" y="69.948634"/>
     <use style="fill:#21918c;stroke:#21918c;stroke-width:0.8;" x="339.849078" xlink:href="#m7dec875d8a" y="70.664991"/>
     <use style="fill:#21918c;stroke:#21918c;stroke-width:0.8;" x="360.09713" xlink:href="#m7dec875d8a" y="70.191696"/>
     <use style="fill:#21918c;stroke:#21918c;stroke-width:0.8;" x="380.345182" xlink:href="#m7dec875d8a" y="68.786671"/>
    </g>
   </g>
   <g id="line2d_52">
    <path clip-path="url(#pdb3b984d1a)" d="M 238.608818 56.83593 
L 258.85687 56.976812 
L 279.104922 61.632726 
L 299.352974 64.191043 
L 319.601026 65.652188 
L 339.849078 67.678859 
L 360.09713 69.195946 
L 380.345182 66.600023 
" style="fill:none;stroke:#27ad81;stroke-linecap:round;stroke-width:1.3;"/>
    <g clip-path="url(#pdb3b984d1a)">
     <use style="fill:#27ad81;stroke:#27ad81;stroke-width:0.8;" x="238.608818" xlink:href="#mee712a9fa1" y="56.83593"/>
     <use style="fill:#27ad81;stroke:#27ad81;stroke-width:0.8;" x="258.85687" xlink:href="#mee712a9fa1" y="56.976812"/>
     <use style="fill:#27ad81;stroke:#27ad81;stroke-width:0.8;" x="279.104922" xlink:href="#mee712a9fa1" y="61.632726"/>
     <use style="fill:#27ad81;stroke:#27ad81;stroke-width:0.8;" x="299.352974" xlink:href="#mee712a9fa1" y="64.191043"/>
     <use style="fill:#27ad81;stroke:#27ad81;stroke-width:0.8;" x="319.601026" xlink:href="#mee712a9fa1" y="65.652188"/>
     <use style="fill:#27ad81;stroke:#27ad81;stroke-width:0.8;" x="339.849078" xlink:href="#mee712a9fa1" y="67.678859"/>
     <use style="fill:#27ad81;stroke:#27ad81;stroke-width:0.8;" x="360.09713" xlink:href="#mee712a9fa1" y="69.195946"/>
     <use style="fill:#27ad81;stroke:#27ad81;stroke-width:0.8;" x="380.345182" xlink:href="#mee712a9fa1" y="66.600023"/>
    </g>
   </g>
   <g id="line2d_53">
    <path clip-path="url(#pdb3b984d1a)" d="M 238.608818 66.983894 
L 258.85687 64.381688 
L 279.104922 63.264536 
L 299.352974 64.490441 
L 319.601026 66.462706 
L 339.849078 68.319906 
L 360.09713 67.745193 
L 380.345182 64.361987 
" style="fill:none;stroke:#5cc863;stroke-linecap:round;stroke-width:1.3;"/>
    <g clip-path="url(#pdb3b984d1a)">
     <use style="fill:#5cc863;stroke:#5cc863;stroke-width:0.8;" x="238.608818" xlink:href="#m6ff69f2a1d" y="66.983894"/>
     <use style="fill:#5cc863;stroke:#5cc863;stroke-width:0.8;" x="258.85687" xlink:href="#m6ff69f2a1d" y="64.381688"/>
     <use style="fill:#5cc863;stroke:#5cc863;stroke-width:0.8;" x="279.104922" xlink:href="#m6ff69f2a1d" y="63.264536"/>
     <use style="fill:#5cc863;stroke:#5cc863;stroke-width:0.8;" x="299.352974" xlink:href="#m6ff69f2a1d" y="64.490441"/>
     <use style="fill:#5cc863;stroke:#5cc863;stroke-width:0.8;" x="319.601026" xlink:href="#m6ff69f2a1d" y="66.462706"/>
     <use style="fill:#5cc863;stroke:#5cc863;stroke-width:0.8;" x="339.849078" xlink:href="#m6ff69f2a1d" y="68.319906"/>
     <use style="fill:#5cc863;stroke:#5cc863;stroke-width:0.8;" x="360.09713" xlink:href="#m6ff69f2a1d" y="67.745193"/>
     <use style="fill:#5cc863;stroke:#5cc863;stroke-width:0.8;" x="380.345182" xlink:href="#m6ff69f2a1d" y="64.361987"/>
    </g>
   </g>
   <g id="line2d_54">
    <path clip-path="url(#pdb3b984d1a)" d="M 238.608818 70.443025 
L 258.85687 67.672396 
L 279.104922 68.449283 
L 299.352974 69.05238 
L 319.601026 69.567409 
L 339.849078 71.144989 
L 360.09713 70.371611 
L 380.345182 67.358439 
" style="fill:none;stroke:#aadc32;stroke-linecap:round;stroke-width:1.3;"/>
    <g clip-path="url(#pdb3b984d1a)">
     <use style="fill:#aadc32;stroke:#aadc32;stroke-width:0.8;" x="238.608818" xlink:href="#m799a5cb266" y="70.443025"/>
     <use style="fill:#aadc32;stroke:#aadc32;stroke-width:0.8;" x="258.85687" xlink:href="#m799a5cb266" y="67.672396"/>
     <use style="fill:#aadc32;stroke:#aadc32;stroke-width:0.8;" x="279.104922" xlink:href="#m799a5cb266" y="68.449283"/>
     <use style="fill:#aadc32;stroke:#aadc32;stroke-width:0.8;" x="299.352974" xlink:href="#m799a5cb266" y="69.05238"/>
     <use style="fill:#aadc32;stroke:#aadc32;stroke-width:0.8;" x="319.601026" xlink:href="#m799a5cb266" y="69.567409"/>
     <use style="fill:#aadc32;stroke:#aadc32;stroke-width:0.8;" x="339.849078" xlink:href="#m799a5cb266" y="71.144989"/>
     <use style="fill:#aadc32;stroke:#aadc32;stroke-width:0.8;" x="360.09713" xlink:href="#m799a5cb266" y="70.371611"/>
     <use style="fill:#aadc32;stroke:#aadc32;stroke-width:0.8;" x="380.345182" xlink:href="#m799a5cb266" y="67.358439"/>
    </g>
   </g>
   <g id="line2d_55">
    <path clip-path="url(#pdb3b984d1a)" d="M 238.608818 79.404309 
L 258.85687 73.770962 
L 279.104922 75.050837 
L 299.352974 74.657021 
L 319.601026 73.329794 
L 339.849078 74.743395 
L 360.09713 74.217557 
L 380.345182 72.781468 
" style="fill:none;stroke:#fde725;stroke-linecap:round;stroke-width:1.3;"/>
    <g clip-path="url(#pdb3b984d1a)">
     <use style="fill:#fde725;stroke:#fde725;stroke-width:0.8;" x="238.608818" xlink:href="#m0b54f9b4a8" y="79.404309"/>
     <use style="fill:#fde725;stroke:#fde725;stroke-width:0.8;" x="258.85687" xlink:href="#m0b54f9b4a8" y="73.770962"/>
     <use style="fill:#fde725;stroke:#fde725;stroke-width:0.8;" x="279.104922" xlink:href="#m0b54f9b4a8" y="75.050837"/>
     <use style="fill:#fde725;stroke:#fde725;stroke-width:0.8;" x="299.352974" xlink:href="#m0b54f9b4a8" y="74.657021"/>
     <use style="fill:#fde725;stroke:#fde725;stroke-width:0.8;" x="319.601026" xlink:href="#m0b54f9b4a8" y="73.329794"/>
     <use style="fill:#fde725;stroke:#fde725;stroke-width:0.8;" x="339.849078" xlink:href="#m0b54f9b4a8" y="74.743395"/>
     <use style="fill:#fde725;stroke:#fde725;stroke-width:0.8;" x="360.09713" xlink:href="#m0b54f9b4a8" y="74.217557"/>
     <use style="fill:#fde725;stroke:#fde725;stroke-width:0.8;" x="380.345182" xlink:href="#m0b54f9b4a8" y="72.781468"/>
    </g>
   </g>
   <g id="patch_6">
    <path d="M 231.522 173.122031 
L 231.522 13.642031 
" style="fill:none;stroke:#000000;stroke-linecap:square;stroke-linejoin:miter;"/>
   </g>
   <g id="patch_7">
    <path d="M 231.522 173.122031 
L 387.432 173.122031 
" style="fill:none;stroke:#000000;stroke-linecap:square;stroke-linejoin:miter;"/>
   </g>
   <g id="text_35">
    <!-- B -->
    <defs>
     <path d="M 7.328125 71.578125 
L 35.9375 71.578125 
Q 44.4375 71.578125 48.609375 70.875 
Q 52.78125 70.171875 56.078125 67.921875 
Q 59.375 65.671875 61.5625 61.9375 
Q 63.765625 58.203125 63.765625 53.5625 
Q 63.765625 48.53125 61.046875 44.328125 
Q 58.34375 40.140625 53.71875 38.03125 
Q 60.25 36.140625 63.765625 31.546875 
Q 67.28125 26.953125 67.28125 20.75 
Q 67.28125 15.875 65.015625 11.25 
Q 62.75 6.640625 58.8125 3.875 
Q 54.890625 1.125 49.125 0.484375 
Q 45.515625 0.09375 31.6875 0 
L 7.328125 0 
z
M 21.78125 59.671875 
L 21.78125 43.109375 
L 31.25 43.109375 
Q 39.703125 43.109375 41.75 43.359375 
Q 45.453125 43.796875 47.578125 45.921875 
Q 49.703125 48.046875 49.703125 51.515625 
Q 49.703125 54.828125 47.875 56.90625 
Q 46.046875 58.984375 42.4375 59.421875 
Q 40.28125 59.671875 30.078125 59.671875 
z
M 21.78125 31.203125 
L 21.78125 12.0625 
L 35.15625 12.0625 
Q 42.96875 12.0625 45.0625 12.5 
Q 48.296875 13.09375 50.3125 15.359375 
Q 52.34375 17.625 52.34375 21.4375 
Q 52.34375 24.65625 50.78125 26.90625 
Q 49.21875 29.15625 46.265625 30.171875 
Q 43.3125 31.203125 33.453125 31.203125 
z
" id="Arial-BoldMT-66"/>
    </defs>
    <g transform="translate(200.34 13.642031)scale(0.09 -0.09)">
     <use xlink:href="#Arial-BoldMT-66"/>
    </g>
   </g>
   <g id="legend_2">
    <g id="text_36">
     <!-- Clone size rank (binned) -->
     <g transform="translate(237.1434 122.010232)scale(0.06246 -0.06246)">
      <use xlink:href="#ArialMT-67"/>
      <use x="72.216797" xlink:href="#ArialMT-108"/>
      <use x="94.433594" xlink:href="#ArialMT-111"/>
      <use x="150.048828" xlink:href="#ArialMT-110"/>
      <use x="205.664062" xlink:href="#ArialMT-101"/>
      <use x="261.279297" xlink:href="#ArialMT-32"/>
      <use x="289.0625" xlink:href="#ArialMT-115"/>
      <use x="339.0625" xlink:href="#ArialMT-105"/>
      <use x="361.279297" xlink:href="#ArialMT-122"/>
      <use x="411.279297" xlink:href="#ArialMT-101"/>
      <use x="466.894531" xlink:href="#ArialMT-32"/>
      <use x="494.677734" xlink:href="#ArialMT-114"/>
      <use x="527.978516" xlink:href="#ArialMT-97"/>
      <use x="583.59375" xlink:href="#ArialMT-110"/>
      <use x="639.208984" xlink:href="#ArialMT-107"/>
      <use x="689.208984" xlink:href="#ArialMT-32"/>
      <use x="716.992188" xlink:href="#ArialMT-40"/>
      <use x="750.292969" xlink:href="#ArialMT-98"/>
      <use x="805.908203" xlink:href="#ArialMT-105"/>
      <use x="828.125" xlink:href="#ArialMT-110"/>
      <use x="883.740234" xlink:href="#ArialMT-110"/>
      <use x="939.355469" xlink:href="#ArialMT-101"/>
      <use x="994.970703" xlink:href="#ArialMT-100"/>
      <use x="1050.585938" xlink:href="#ArialMT-41"/>
     </g>
    </g>
    <g id="line2d_56">
     <path d="M 241.132057 128.73249 
L 248.939557 128.73249 
" style="fill:none;stroke:#440154;stroke-linecap:round;stroke-width:1.3;"/>
    </g>
    <g id="line2d_57">
     <g>
      <use style="fill:#440154;stroke:#440154;stroke-width:0.8;" x="245.035807" xlink:href="#mc1cdef9afd" y="128.73249"/>
     </g>
    </g>
    <g id="text_37">
     <!-- 200 -->
     <g transform="translate(252.062557 130.91859)scale(0.06246 -0.06246)">
      <use xlink:href="#ArialMT-50"/>
      <use x="55.615234" xlink:href="#ArialMT-48"/>
      <use x="111.230469" xlink:href="#ArialMT-48"/>
     </g>
    </g>
    <g id="line2d_58">
     <path d="M 241.132057 137.567652 
L 248.939557 137.567652 
" style="fill:none;stroke:#472d7b;stroke-linecap:round;stroke-width:1.3;"/>
    </g>
    <g id="line2d_59">
     <g>
      <use style="fill:#472d7b;stroke:#472d7b;stroke-width:0.8;" x="245.035807" xlink:href="#m186fa76882" y="137.567652"/>
     </g>
    </g>
    <g id="text_38">
     <!-- 500 -->
     <g transform="translate(252.062557 139.753752)scale(0.06246 -0.06246)">
      <use xlink:href="#ArialMT-53"/>
      <use x="55.615234" xlink:href="#ArialMT-48"/>
      <use x="111.230469" xlink:href="#ArialMT-48"/>
     </g>
    </g>
    <g id="line2d_60">
     <path d="M 241.132057 146.402814 
L 248.939557 146.402814 
" style="fill:none;stroke:#3b528b;stroke-linecap:round;stroke-width:1.3;"/>
    </g>
    <g id="line2d_61">
     <g>
      <use style="fill:#3b528b;stroke:#3b528b;stroke-width:0.8;" x="245.035807" xlink:href="#m5116a5a3fa" y="146.402814"/>
     </g>
    </g>
    <g id="text_39">
     <!-- 1000 -->
     <g transform="translate(252.062557 148.588914)scale(0.06246 -0.06246)">
      <use xlink:href="#ArialMT-49"/>
      <use x="55.615234" xlink:href="#ArialMT-48"/>
      <use x="111.230469" xlink:href="#ArialMT-48"/>
      <use x="166.845703" xlink:href="#ArialMT-48"/>
     </g>
    </g>
    <g id="line2d_62">
     <path d="M 241.132057 155.237977 
L 248.939557 155.237977 
" style="fill:none;stroke:#2c728e;stroke-linecap:round;stroke-width:1.3;"/>
    </g>
    <g id="line2d_63">
     <g>
      <use style="fill:#2c728e;stroke:#2c728e;stroke-width:0.8;" x="245.035807" xlink:href="#ma11d892362" y="155.237977"/>
     </g>
    </g>
    <g id="text_40">
     <!-- 2000 -->
     <g transform="translate(252.062557 157.424077)scale(0.06246 -0.06246)">
      <use xlink:href="#ArialMT-50"/>
      <use x="55.615234" xlink:href="#ArialMT-48"/>
      <use x="111.230469" xlink:href="#ArialMT-48"/>
      <use x="166.845703" xlink:href="#ArialMT-48"/>
     </g>
    </g>
    <g id="line2d_64">
     <path d="M 241.132057 164.073139 
L 248.939557 164.073139 
" style="fill:none;stroke:#21918c;stroke-linecap:round;stroke-width:1.3;"/>
    </g>
    <g id="line2d_65">
     <g>
      <use style="fill:#21918c;stroke:#21918c;stroke-width:0.8;" x="245.035807" xlink:href="#m3d9f633f22" y="164.073139"/>
     </g>
    </g>
    <g id="text_41">
     <!-- 5000 -->
     <g transform="translate(252.062557 166.259239)scale(0.06246 -0.06246)">
      <use xlink:href="#ArialMT-53"/>
      <use x="55.615234" xlink:href="#ArialMT-48"/>
      <use x="111.230469" xlink:href="#ArialMT-48"/>
      <use x="166.845703" xlink:href="#ArialMT-48"/>
     </g>
    </g>
    <g id="line2d_66">
     <path d="M 269.079003 128.73249 
L 276.886503 128.73249 
" style="fill:none;stroke:#27ad81;stroke-linecap:round;stroke-width:1.3;"/>
    </g>
    <g id="line2d_67">
     <g>
      <use style="fill:#27ad81;stroke:#27ad81;stroke-width:0.8;" x="272.982753" xlink:href="#m27fd9e7ce3" y="128.73249"/>
     </g>
    </g>
    <g id="text_42">
     <!-- 10000 -->
     <g transform="translate(280.009503 130.91859)scale(0.06246 -0.06246)">
      <use xlink:href="#ArialMT-49"/>
      <use x="55.615234" xlink:href="#ArialMT-48"/>
      <use x="111.230469" xlink:href="#ArialMT-48"/>
      <use x="166.845703" xlink:href="#ArialMT-48"/>
      <use x="222.460938" xlink:href="#ArialMT-48"/>
     </g>
    </g>
    <g id="line2d_68">
     <path d="M 269.079003 137.567652 
L 276.886503 137.567652 
" style="fill:none;stroke:#5cc863;stroke-linecap:round;stroke-width:1.3;"/>
    </g>
    <g id="line2d_69">
     <g>
      <use style="fill:#5cc863;stroke:#5cc863;stroke-width:0.8;" x="272.982753" xlink:href="#m1b47671921" y="137.567652"/>
     </g>
    </g>
    <g id="text_43">
     <!-- 20000 -->
     <g transform="translate(280.009503 139.753752)scale(0.06246 -0.06246)">
      <use xlink:href="#ArialMT-50"/>
      <use x="55.615234" xlink:href="#ArialMT-48"/>
      <use x="111.230469" xlink:href="#ArialMT-48"/>
      <use x="166.845703" xlink:href="#ArialMT-48"/>
      <use x="222.460938" xlink:href="#ArialMT-48"/>
     </g>
    </g>
    <g id="line2d_70">
     <path d="M 269.079003 146.402814 
L 276.886503 146.402814 
" style="fill:none;stroke:#aadc32;stroke-linecap:round;stroke-width:1.3;"/>
    </g>
    <g id="line2d_71">
     <g>
      <use style="fill:#aadc32;stroke:#aadc32;stroke-width:0.8;" x="272.982753" xlink:href="#ma130f803de" y="146.402814"/>
     </g>
    </g>
    <g id="text_44">
     <!-- 50000 -->
     <g transform="translate(280.009503 148.588914)scale(0.06246 -0.06246)">
      <use xlink:href="#ArialMT-53"/>
      <use x="55.615234" xlink:href="#ArialMT-48"/>
      <use x="111.230469" xlink:href="#ArialMT-48"/>
      <use x="166.845703" xlink:href="#ArialMT-48"/>
      <use x="222.460938" xlink:href="#ArialMT-48"/>
     </g>
    </g>
    <g id="line2d_72">
     <path d="M 269.079003 155.237977 
L 276.886503 155.237977 
" style="fill:none;stroke:#fde725;stroke-linecap:round;stroke-width:1.3;"/>
    </g>
    <g id="line2d_73">
     <g>
      <use style="fill:#fde725;stroke:#fde725;stroke-width:0.8;" x="272.982753" xlink:href="#mc13446f69b" y="155.237977"/>
     </g>
    </g>
    <g id="text_45">
     <!-- 100000 -->
     <g transform="translate(280.009503 157.424077)scale(0.06246 -0.06246)">
      <use xlink:href="#ArialMT-49"/>
      <use x="55.615234" xlink:href="#ArialMT-48"/>
      <use x="111.230469" xlink:href="#ArialMT-48"/>
      <use x="166.845703" xlink:href="#ArialMT-48"/>
      <use x="222.460938" xlink:href="#ArialMT-48"/>
      <use x="278.076172" xlink:href="#ArialMT-48"/>
     </g>
    </g>
   </g>
  </g>
 </g>
 <defs>
  <clipPath id="pd9a42cfe29">
   <rect height="159.48" width="155.91" x="38.382" y="13.642031"/>
  </clipPath>
  <clipPath id="pdb3b984d1a">
   <rect height="159.48" width="155.91" x="231.522" y="13.642031"/>
  </clipPath>
 </defs>
</svg>
