<?xml version="1.0" encoding="utf-8" standalone="no"?>
<!DOCTYPE svg PUBLIC "-//W3C//DTD SVG 1.1//EN"
  "http://www.w3.org/Graphics/SVG/1.1/DTD/svg11.dtd">
<!-- Created with matplotlib (https://matplotlib.org/) -->
<svg height="133.749913pt" version="1.1" viewBox="0 0 428.314311 133.749913" width="428.314311pt" xmlns="http://www.w3.org/2000/svg" xmlns:xlink="http://www.w3.org/1999/xlink">
 <defs>
  <style type="text/css">
*{stroke-linecap:butt;stroke-linejoin:round;}
  </style>
 </defs>
 <g id="figure_1">
  <g id="patch_1">
   <path d="M 0 133.749913 
L 428.314311 133.749913 
L 428.314311 0 
L 0 0 
z
" style="fill:none;"/>
  </g>
  <g id="axes_1">
   <g id="patch_2">
    <path d="M 38.494409 106.658207 
L 142.985759 106.658207 
L 142.985759 25.657582 
L 38.494409 25.657582 
z
" style="fill:#ffffff;"/>
   </g>
   <g id="matplotlib.axis_1">
    <g id="xtick_1">
     <g id="line2d_1">
      <defs>
       <path d="M 0 2 
L 0 -2 
" id="m0e185a85cf" style="stroke:#000000;stroke-width:0.8;"/>
      </defs>
      <g>
       <use style="stroke:#000000;stroke-width:0.8;" x="52.529887" xlink:href="#m0e185a85cf" y="106.658207"/>
      </g>
     </g>
     <g id="text_1">
      <!-- 0.2 -->
      <defs>
       <path d="M 4.15625 35.296875 
Q 4.15625 48 6.765625 55.734375 
Q 9.375 63.484375 14.515625 67.671875 
Q 19.671875 71.875 27.484375 71.875 
Q 33.25 71.875 37.59375 69.546875 
Q 41.9375 67.234375 44.765625 62.859375 
Q 47.609375 58.5 49.21875 52.21875 
Q 50.828125 45.953125 50.828125 35.296875 
Q 50.828125 22.703125 48.234375 14.96875 
Q 45.65625 7.234375 40.5 3 
Q 35.359375 -1.21875 27.484375 -1.21875 
Q 17.140625 -1.21875 11.234375 6.203125 
Q 4.15625 15.140625 4.15625 35.296875 
z
M 13.1875 35.296875 
Q 13.1875 17.671875 17.3125 11.828125 
Q 21.4375 6 27.484375 6 
Q 33.546875 6 37.671875 11.859375 
Q 41.796875 17.71875 41.796875 35.296875 
Q 41.796875 52.984375 37.671875 58.78125 
Q 33.546875 64.59375 27.390625 64.59375 
Q 21.34375 64.59375 17.71875 59.46875 
Q 13.1875 52.9375 13.1875 35.296875 
z
" id="ArialMT-48"/>
       <path d="M 9.078125 0 
L 9.078125 10.015625 
L 19.09375 10.015625 
L 19.09375 0 
z
" id="ArialMT-46"/>
       <path d="M 50.34375 8.453125 
L 50.34375 0 
L 3.03125 0 
Q 2.9375 3.171875 4.046875 6.109375 
Q 5.859375 10.9375 9.828125 15.625 
Q 13.8125 20.3125 21.34375 26.46875 
Q 33.015625 36.03125 37.109375 41.625 
Q 41.21875 47.21875 41.21875 52.203125 
Q 41.21875 57.421875 37.46875 61 
Q 33.734375 64.59375 27.734375 64.59375 
Q 21.390625 64.59375 17.578125 60.78125 
Q 13.765625 56.984375 13.71875 50.25 
L 4.6875 51.171875 
Q 5.609375 61.28125 11.65625 66.578125 
Q 17.71875 71.875 27.9375 71.875 
Q 38.234375 71.875 44.234375 66.15625 
Q 50.25 60.453125 50.25 52 
Q 50.25 47.703125 48.484375 43.546875 
Q 46.734375 39.40625 42.65625 34.8125 
Q 38.578125 30.21875 29.109375 22.21875 
Q 21.1875 15.578125 18.9375 13.203125 
Q 16.703125 10.84375 15.234375 8.453125 
z
" id="ArialMT-50"/>
      </defs>
      <g transform="translate(47.319472 116.524419)scale(0.07497 -0.07497)">
       <use xlink:href="#ArialMT-48"/>
       <use x="55.615234" xlink:href="#ArialMT-46"/>
       <use x="83.398438" xlink:href="#ArialMT-50"/>
      </g>
     </g>
    </g>
    <g id="xtick_2">
     <g id="line2d_2">
      <g>
       <use style="stroke:#000000;stroke-width:0.8;" x="74.493229" xlink:href="#m0e185a85cf" y="106.658207"/>
      </g>
     </g>
     <g id="text_2">
      <!-- 0.4 -->
      <defs>
       <path d="M 32.328125 0 
L 32.328125 17.140625 
L 1.265625 17.140625 
L 1.265625 25.203125 
L 33.9375 71.578125 
L 41.109375 71.578125 
L 41.109375 25.203125 
L 50.78125 25.203125 
L 50.78125 17.140625 
L 41.109375 17.140625 
L 41.109375 0 
z
M 32.328125 25.203125 
L 32.328125 57.46875 
L 9.90625 25.203125 
z
" id="ArialMT-52"/>
      </defs>
      <g transform="translate(69.282814 116.524419)scale(0.07497 -0.07497)">
       <use xlink:href="#ArialMT-48"/>
       <use x="55.615234" xlink:href="#ArialMT-46"/>
       <use x="83.398438" xlink:href="#ArialMT-52"/>
      </g>
     </g>
    </g>
    <g id="xtick_3">
     <g id="line2d_3">
      <g>
       <use style="stroke:#000000;stroke-width:0.8;" x="96.456571" xlink:href="#m0e185a85cf" y="106.658207"/>
      </g>
     </g>
     <g id="text_3">
      <!-- 0.6 -->
      <defs>
       <path d="M 49.75 54.046875 
L 41.015625 53.375 
Q 39.84375 58.546875 37.703125 60.890625 
Q 34.125 64.65625 28.90625 64.65625 
Q 24.703125 64.65625 21.53125 62.3125 
Q 17.390625 59.28125 14.984375 53.46875 
Q 12.59375 47.65625 12.5 36.921875 
Q 15.671875 41.75 20.265625 44.09375 
Q 24.859375 46.4375 29.890625 46.4375 
Q 38.671875 46.4375 44.84375 39.96875 
Q 51.03125 33.5 51.03125 23.25 
Q 51.03125 16.5 48.125 10.71875 
Q 45.21875 4.9375 40.140625 1.859375 
Q 35.0625 -1.21875 28.609375 -1.21875 
Q 17.625 -1.21875 10.6875 6.859375 
Q 3.765625 14.9375 3.765625 33.5 
Q 3.765625 54.25 11.421875 63.671875 
Q 18.109375 71.875 29.4375 71.875 
Q 37.890625 71.875 43.28125 67.140625 
Q 48.6875 62.40625 49.75 54.046875 
z
M 13.875 23.1875 
Q 13.875 18.65625 15.796875 14.5 
Q 17.71875 10.359375 21.1875 8.171875 
Q 24.65625 6 28.46875 6 
Q 34.03125 6 38.03125 10.484375 
Q 42.046875 14.984375 42.046875 22.703125 
Q 42.046875 30.125 38.078125 34.390625 
Q 34.125 38.671875 28.125 38.671875 
Q 22.171875 38.671875 18.015625 34.390625 
Q 13.875 30.125 13.875 23.1875 
z
" id="ArialMT-54"/>
      </defs>
      <g transform="translate(91.246156 116.524419)scale(0.07497 -0.07497)">
       <use xlink:href="#ArialMT-48"/>
       <use x="55.615234" xlink:href="#ArialMT-46"/>
       <use x="83.398438" xlink:href="#ArialMT-54"/>
      </g>
     </g>
    </g>
    <g id="xtick_4">
     <g id="line2d_4">
      <g>
       <use style="stroke:#000000;stroke-width:0.8;" x="118.419912" xlink:href="#m0e185a85cf" y="106.658207"/>
      </g>
     </g>
     <g id="text_4">
      <!-- 0.8 -->
      <defs>
       <path d="M 17.671875 38.8125 
Q 12.203125 40.828125 9.5625 44.53125 
Q 6.9375 48.25 6.9375 53.421875 
Q 6.9375 61.234375 12.546875 66.546875 
Q 18.171875 71.875 27.484375 71.875 
Q 36.859375 71.875 42.578125 66.421875 
Q 48.296875 60.984375 48.296875 53.171875 
Q 48.296875 48.1875 45.671875 44.5 
Q 43.0625 40.828125 37.75 38.8125 
Q 44.34375 36.671875 47.78125 31.875 
Q 51.21875 27.09375 51.21875 20.453125 
Q 51.21875 11.28125 44.71875 5.03125 
Q 38.234375 -1.21875 27.640625 -1.21875 
Q 17.046875 -1.21875 10.546875 5.046875 
Q 4.046875 11.328125 4.046875 20.703125 
Q 4.046875 27.6875 7.59375 32.390625 
Q 11.140625 37.109375 17.671875 38.8125 
z
M 15.921875 53.71875 
Q 15.921875 48.640625 19.1875 45.40625 
Q 22.46875 42.1875 27.6875 42.1875 
Q 32.765625 42.1875 36.015625 45.375 
Q 39.265625 48.578125 39.265625 53.21875 
Q 39.265625 58.0625 35.90625 61.359375 
Q 32.5625 64.65625 27.59375 64.65625 
Q 22.5625 64.65625 19.234375 61.421875 
Q 15.921875 58.203125 15.921875 53.71875 
z
M 13.09375 20.65625 
Q 13.09375 16.890625 14.875 13.375 
Q 16.65625 9.859375 20.171875 7.921875 
Q 23.6875 6 27.734375 6 
Q 34.03125 6 38.125 10.046875 
Q 42.234375 14.109375 42.234375 20.359375 
Q 42.234375 26.703125 38.015625 30.859375 
Q 33.796875 35.015625 27.4375 35.015625 
Q 21.234375 35.015625 17.15625 30.90625 
Q 13.09375 26.8125 13.09375 20.65625 
z
" id="ArialMT-56"/>
      </defs>
      <g transform="translate(113.209497 116.524419)scale(0.07497 -0.07497)">
       <use xlink:href="#ArialMT-48"/>
       <use x="55.615234" xlink:href="#ArialMT-46"/>
       <use x="83.398438" xlink:href="#ArialMT-56"/>
      </g>
     </g>
    </g>
    <g id="xtick_5">
     <g id="line2d_5">
      <g>
       <use style="stroke:#000000;stroke-width:0.8;" x="140.383254" xlink:href="#m0e185a85cf" y="106.658207"/>
      </g>
     </g>
     <g id="text_5">
      <!-- 1.0 -->
      <defs>
       <path d="M 37.25 0 
L 28.46875 0 
L 28.46875 56 
Q 25.296875 52.984375 20.140625 49.953125 
Q 14.984375 46.921875 10.890625 45.40625 
L 10.890625 53.90625 
Q 18.265625 57.375 23.78125 62.296875 
Q 29.296875 67.234375 31.59375 71.875 
L 37.25 71.875 
z
" id="ArialMT-49"/>
      </defs>
      <g transform="translate(135.172839 116.524419)scale(0.07497 -0.07497)">
       <use xlink:href="#ArialMT-49"/>
       <use x="55.615234" xlink:href="#ArialMT-46"/>
       <use x="83.398438" xlink:href="#ArialMT-48"/>
      </g>
     </g>
    </g>
    <g id="text_6">
     <!-- Time difference in years -->
     <defs>
      <path d="M 25.921875 0 
L 25.921875 63.140625 
L 2.34375 63.140625 
L 2.34375 71.578125 
L 59.078125 71.578125 
L 59.078125 63.140625 
L 35.40625 63.140625 
L 35.40625 0 
z
" id="ArialMT-84"/>
      <path d="M 6.640625 61.46875 
L 6.640625 71.578125 
L 15.4375 71.578125 
L 15.4375 61.46875 
z
M 6.640625 0 
L 6.640625 51.859375 
L 15.4375 51.859375 
L 15.4375 0 
z
" id="ArialMT-105"/>
      <path d="M 6.59375 0 
L 6.59375 51.859375 
L 14.453125 51.859375 
L 14.453125 44.578125 
Q 16.890625 48.390625 20.9375 50.703125 
Q 25 53.03125 30.171875 53.03125 
Q 35.9375 53.03125 39.625 50.640625 
Q 43.3125 48.25 44.828125 43.953125 
Q 50.984375 53.03125 60.84375 53.03125 
Q 68.5625 53.03125 72.703125 48.75 
Q 76.859375 44.484375 76.859375 35.59375 
L 76.859375 0 
L 68.109375 0 
L 68.109375 32.671875 
Q 68.109375 37.9375 67.25 40.25 
Q 66.40625 42.578125 64.15625 43.984375 
Q 61.921875 45.40625 58.890625 45.40625 
Q 53.421875 45.40625 49.796875 41.765625 
Q 46.1875 38.140625 46.1875 30.125 
L 46.1875 0 
L 37.40625 0 
L 37.40625 33.6875 
Q 37.40625 39.546875 35.25 42.46875 
Q 33.109375 45.40625 28.21875 45.40625 
Q 24.515625 45.40625 21.359375 43.453125 
Q 18.21875 41.5 16.796875 37.734375 
Q 15.375 33.984375 15.375 26.90625 
L 15.375 0 
z
" id="ArialMT-109"/>
      <path d="M 42.09375 16.703125 
L 51.171875 15.578125 
Q 49.03125 7.625 43.21875 3.21875 
Q 37.40625 -1.171875 28.375 -1.171875 
Q 17 -1.171875 10.328125 5.828125 
Q 3.65625 12.84375 3.65625 25.484375 
Q 3.65625 38.578125 10.390625 45.796875 
Q 17.140625 53.03125 27.875 53.03125 
Q 38.28125 53.03125 44.875 45.953125 
Q 51.46875 38.875 51.46875 26.03125 
Q 51.46875 25.25 51.421875 23.6875 
L 12.75 23.6875 
Q 13.234375 15.140625 17.578125 10.59375 
Q 21.921875 6.0625 28.421875 6.0625 
Q 33.25 6.0625 36.671875 8.59375 
Q 40.09375 11.140625 42.09375 16.703125 
z
M 13.234375 30.90625 
L 42.1875 30.90625 
Q 41.609375 37.453125 38.875 40.71875 
Q 34.671875 45.796875 27.984375 45.796875 
Q 21.921875 45.796875 17.796875 41.75 
Q 13.671875 37.703125 13.234375 30.90625 
z
" id="ArialMT-101"/>
      <path id="ArialMT-32"/>
      <path d="M 40.234375 0 
L 40.234375 6.546875 
Q 35.296875 -1.171875 25.734375 -1.171875 
Q 19.53125 -1.171875 14.328125 2.25 
Q 9.125 5.671875 6.265625 11.796875 
Q 3.421875 17.921875 3.421875 25.875 
Q 3.421875 33.640625 6 39.96875 
Q 8.59375 46.296875 13.765625 49.65625 
Q 18.953125 53.03125 25.34375 53.03125 
Q 30.03125 53.03125 33.6875 51.046875 
Q 37.359375 49.078125 39.65625 45.90625 
L 39.65625 71.578125 
L 48.390625 71.578125 
L 48.390625 0 
z
M 12.453125 25.875 
Q 12.453125 15.921875 16.640625 10.984375 
Q 20.84375 6.0625 26.5625 6.0625 
Q 32.328125 6.0625 36.34375 10.765625 
Q 40.375 15.484375 40.375 25.140625 
Q 40.375 35.796875 36.265625 40.765625 
Q 32.171875 45.75 26.171875 45.75 
Q 20.3125 45.75 16.375 40.96875 
Q 12.453125 36.1875 12.453125 25.875 
z
" id="ArialMT-100"/>
      <path d="M 8.6875 0 
L 8.6875 45.015625 
L 0.921875 45.015625 
L 0.921875 51.859375 
L 8.6875 51.859375 
L 8.6875 57.375 
Q 8.6875 62.59375 9.625 65.140625 
Q 10.890625 68.5625 14.078125 70.671875 
Q 17.28125 72.796875 23.046875 72.796875 
Q 26.765625 72.796875 31.25 71.921875 
L 29.9375 64.265625 
Q 27.203125 64.75 24.75 64.75 
Q 20.75 64.75 19.09375 63.03125 
Q 17.4375 61.328125 17.4375 56.640625 
L 17.4375 51.859375 
L 27.546875 51.859375 
L 27.546875 45.015625 
L 17.4375 45.015625 
L 17.4375 0 
z
" id="ArialMT-102"/>
      <path d="M 6.5 0 
L 6.5 51.859375 
L 14.40625 51.859375 
L 14.40625 44 
Q 17.4375 49.515625 20 51.265625 
Q 22.5625 53.03125 25.640625 53.03125 
Q 30.078125 53.03125 34.671875 50.203125 
L 31.640625 42.046875 
Q 28.421875 43.953125 25.203125 43.953125 
Q 22.3125 43.953125 20.015625 42.21875 
Q 17.71875 40.484375 16.75 37.40625 
Q 15.28125 32.71875 15.28125 27.15625 
L 15.28125 0 
z
" id="ArialMT-114"/>
      <path d="M 6.59375 0 
L 6.59375 51.859375 
L 14.5 51.859375 
L 14.5 44.484375 
Q 20.21875 53.03125 31 53.03125 
Q 35.6875 53.03125 39.625 51.34375 
Q 43.5625 49.65625 45.515625 46.921875 
Q 47.46875 44.1875 48.25 40.4375 
Q 48.734375 37.984375 48.734375 31.890625 
L 48.734375 0 
L 39.9375 0 
L 39.9375 31.546875 
Q 39.9375 36.921875 38.90625 39.578125 
Q 37.890625 42.234375 35.28125 43.8125 
Q 32.671875 45.40625 29.15625 45.40625 
Q 23.53125 45.40625 19.453125 41.84375 
Q 15.375 38.28125 15.375 28.328125 
L 15.375 0 
z
" id="ArialMT-110"/>
      <path d="M 40.4375 19 
L 49.078125 17.875 
Q 47.65625 8.9375 41.8125 3.875 
Q 35.984375 -1.171875 27.484375 -1.171875 
Q 16.84375 -1.171875 10.375 5.78125 
Q 3.90625 12.75 3.90625 25.734375 
Q 3.90625 34.125 6.6875 40.421875 
Q 9.46875 46.734375 15.15625 49.875 
Q 20.84375 53.03125 27.546875 53.03125 
Q 35.984375 53.03125 41.359375 48.75 
Q 46.734375 44.484375 48.25 36.625 
L 39.703125 35.296875 
Q 38.484375 40.53125 35.375 43.15625 
Q 32.28125 45.796875 27.875 45.796875 
Q 21.234375 45.796875 17.078125 41.03125 
Q 12.9375 36.28125 12.9375 25.984375 
Q 12.9375 15.53125 16.9375 10.796875 
Q 20.953125 6.0625 27.390625 6.0625 
Q 32.5625 6.0625 36.03125 9.234375 
Q 39.5 12.40625 40.4375 19 
z
" id="ArialMT-99"/>
      <path d="M 6.203125 -19.96875 
L 5.21875 -11.71875 
Q 8.109375 -12.5 10.25 -12.5 
Q 13.1875 -12.5 14.9375 -11.515625 
Q 16.703125 -10.546875 17.828125 -8.796875 
Q 18.65625 -7.46875 20.515625 -2.25 
Q 20.75 -1.515625 21.296875 -0.09375 
L 1.609375 51.859375 
L 11.078125 51.859375 
L 21.875 21.828125 
Q 23.96875 16.109375 25.640625 9.8125 
Q 27.15625 15.875 29.25 21.625 
L 40.328125 51.859375 
L 49.125 51.859375 
L 29.390625 -0.875 
Q 26.21875 -9.421875 24.46875 -12.640625 
Q 22.125 -17 19.09375 -19.015625 
Q 16.0625 -21.046875 11.859375 -21.046875 
Q 9.328125 -21.046875 6.203125 -19.96875 
z
" id="ArialMT-121"/>
      <path d="M 40.4375 6.390625 
Q 35.546875 2.25 31.03125 0.53125 
Q 26.515625 -1.171875 21.34375 -1.171875 
Q 12.796875 -1.171875 8.203125 3 
Q 3.609375 7.171875 3.609375 13.671875 
Q 3.609375 17.484375 5.34375 20.625 
Q 7.078125 23.78125 9.890625 25.6875 
Q 12.703125 27.59375 16.21875 28.5625 
Q 18.796875 29.25 24.03125 29.890625 
Q 34.671875 31.15625 39.703125 32.90625 
Q 39.75 34.71875 39.75 35.203125 
Q 39.75 40.578125 37.25 42.78125 
Q 33.890625 45.75 27.25 45.75 
Q 21.046875 45.75 18.09375 43.578125 
Q 15.140625 41.40625 13.71875 35.890625 
L 5.125 37.0625 
Q 6.296875 42.578125 8.984375 45.96875 
Q 11.671875 49.359375 16.75 51.1875 
Q 21.828125 53.03125 28.515625 53.03125 
Q 35.15625 53.03125 39.296875 51.46875 
Q 43.453125 49.90625 45.40625 47.53125 
Q 47.359375 45.171875 48.140625 41.546875 
Q 48.578125 39.3125 48.578125 33.453125 
L 48.578125 21.734375 
Q 48.578125 9.46875 49.140625 6.21875 
Q 49.703125 2.984375 51.375 0 
L 42.1875 0 
Q 40.828125 2.734375 40.4375 6.390625 
z
M 39.703125 26.03125 
Q 34.90625 24.078125 25.34375 22.703125 
Q 19.921875 21.921875 17.671875 20.9375 
Q 15.4375 19.96875 14.203125 18.09375 
Q 12.984375 16.21875 12.984375 13.921875 
Q 12.984375 10.40625 15.640625 8.0625 
Q 18.3125 5.71875 23.4375 5.71875 
Q 28.515625 5.71875 32.46875 7.9375 
Q 36.421875 10.15625 38.28125 14.015625 
Q 39.703125 17 39.703125 22.796875 
z
" id="ArialMT-97"/>
      <path d="M 3.078125 15.484375 
L 11.765625 16.84375 
Q 12.5 11.625 15.84375 8.84375 
Q 19.1875 6.0625 25.203125 6.0625 
Q 31.25 6.0625 34.171875 8.515625 
Q 37.109375 10.984375 37.109375 14.3125 
Q 37.109375 17.28125 34.515625 19 
Q 32.71875 20.171875 25.53125 21.96875 
Q 15.875 24.421875 12.140625 26.203125 
Q 8.40625 27.984375 6.46875 31.125 
Q 4.546875 34.28125 4.546875 38.09375 
Q 4.546875 41.546875 6.125 44.5 
Q 7.71875 47.46875 10.453125 49.421875 
Q 12.5 50.921875 16.03125 51.96875 
Q 19.578125 53.03125 23.640625 53.03125 
Q 29.734375 53.03125 34.34375 51.265625 
Q 38.96875 49.515625 41.15625 46.5 
Q 43.359375 43.5 44.1875 38.484375 
L 35.59375 37.3125 
Q 35.015625 41.3125 32.203125 43.546875 
Q 29.390625 45.796875 24.265625 45.796875 
Q 18.21875 45.796875 15.625 43.796875 
Q 13.03125 41.796875 13.03125 39.109375 
Q 13.03125 37.40625 14.109375 36.03125 
Q 15.1875 34.625 17.484375 33.6875 
Q 18.796875 33.203125 25.25 31.453125 
Q 34.578125 28.953125 38.25 27.359375 
Q 41.9375 25.78125 44.03125 22.75 
Q 46.140625 19.734375 46.140625 15.234375 
Q 46.140625 10.84375 43.578125 6.953125 
Q 41.015625 3.078125 36.171875 0.953125 
Q 31.34375 -1.171875 25.25 -1.171875 
Q 15.140625 -1.171875 9.84375 3.03125 
Q 4.546875 7.234375 3.078125 15.484375 
z
" id="ArialMT-115"/>
     </defs>
     <g transform="translate(50.745347 124.972029)scale(0.07497 -0.07497)">
      <use xlink:href="#ArialMT-84"/>
      <use x="61.037109" xlink:href="#ArialMT-105"/>
      <use x="83.253906" xlink:href="#ArialMT-109"/>
      <use x="166.554688" xlink:href="#ArialMT-101"/>
      <use x="222.169922" xlink:href="#ArialMT-32"/>
      <use x="249.953125" xlink:href="#ArialMT-100"/>
      <use x="305.568359" xlink:href="#ArialMT-105"/>
      <use x="327.785156" xlink:href="#ArialMT-102"/>
      <use x="355.552734" xlink:href="#ArialMT-102"/>
      <use x="383.335938" xlink:href="#ArialMT-101"/>
      <use x="438.951172" xlink:href="#ArialMT-114"/>
      <use x="472.251953" xlink:href="#ArialMT-101"/>
      <use x="527.867188" xlink:href="#ArialMT-110"/>
      <use x="583.482422" xlink:href="#ArialMT-99"/>
      <use x="633.482422" xlink:href="#ArialMT-101"/>
      <use x="689.097656" xlink:href="#ArialMT-32"/>
      <use x="716.880859" xlink:href="#ArialMT-105"/>
      <use x="739.097656" xlink:href="#ArialMT-110"/>
      <use x="794.712891" xlink:href="#ArialMT-32"/>
      <use x="822.496094" xlink:href="#ArialMT-121"/>
      <use x="872.496094" xlink:href="#ArialMT-101"/>
      <use x="928.111328" xlink:href="#ArialMT-97"/>
      <use x="983.726562" xlink:href="#ArialMT-114"/>
      <use x="1017.027344" xlink:href="#ArialMT-115"/>
     </g>
    </g>
   </g>
   <g id="matplotlib.axis_2">
    <g id="ytick_1">
     <g id="line2d_6">
      <defs>
       <path d="M 2 0 
L -2 -0 
" id="m71d6be2bae" style="stroke:#000000;stroke-width:0.8;"/>
      </defs>
      <g>
       <use style="stroke:#000000;stroke-width:0.8;" x="38.494409" xlink:href="#m71d6be2bae" y="106.658207"/>
      </g>
     </g>
     <g id="text_7">
      <!-- 0.0 -->
      <g transform="translate(23.573579 109.341313)scale(0.07497 -0.07497)">
       <use xlink:href="#ArialMT-48"/>
       <use x="55.615234" xlink:href="#ArialMT-46"/>
       <use x="83.398438" xlink:href="#ArialMT-48"/>
      </g>
     </g>
    </g>
    <g id="ytick_2">
     <g id="line2d_7">
      <g>
       <use style="stroke:#000000;stroke-width:0.8;" x="38.494409" xlink:href="#m71d6be2bae" y="90.458082"/>
      </g>
     </g>
     <g id="text_8">
      <!-- 0.2 -->
      <g transform="translate(23.573579 93.141188)scale(0.07497 -0.07497)">
       <use xlink:href="#ArialMT-48"/>
       <use x="55.615234" xlink:href="#ArialMT-46"/>
       <use x="83.398438" xlink:href="#ArialMT-50"/>
      </g>
     </g>
    </g>
    <g id="ytick_3">
     <g id="line2d_8">
      <g>
       <use style="stroke:#000000;stroke-width:0.8;" x="38.494409" xlink:href="#m71d6be2bae" y="74.257957"/>
      </g>
     </g>
     <g id="text_9">
      <!-- 0.4 -->
      <g transform="translate(23.573579 76.941063)scale(0.07497 -0.07497)">
       <use xlink:href="#ArialMT-48"/>
       <use x="55.615234" xlink:href="#ArialMT-46"/>
       <use x="83.398438" xlink:href="#ArialMT-52"/>
      </g>
     </g>
    </g>
    <g id="ytick_4">
     <g id="line2d_9">
      <g>
       <use style="stroke:#000000;stroke-width:0.8;" x="38.494409" xlink:href="#m71d6be2bae" y="58.057832"/>
      </g>
     </g>
     <g id="text_10">
      <!-- 0.6 -->
      <g transform="translate(23.573579 60.740938)scale(0.07497 -0.07497)">
       <use xlink:href="#ArialMT-48"/>
       <use x="55.615234" xlink:href="#ArialMT-46"/>
       <use x="83.398438" xlink:href="#ArialMT-54"/>
      </g>
     </g>
    </g>
    <g id="ytick_5">
     <g id="line2d_10">
      <g>
       <use style="stroke:#000000;stroke-width:0.8;" x="38.494409" xlink:href="#m71d6be2bae" y="41.857707"/>
      </g>
     </g>
     <g id="text_11">
      <!-- 0.8 -->
      <g transform="translate(23.573579 44.540813)scale(0.07497 -0.07497)">
       <use xlink:href="#ArialMT-48"/>
       <use x="55.615234" xlink:href="#ArialMT-46"/>
       <use x="83.398438" xlink:href="#ArialMT-56"/>
      </g>
     </g>
    </g>
    <g id="ytick_6">
     <g id="line2d_11">
      <g>
       <use style="stroke:#000000;stroke-width:0.8;" x="38.494409" xlink:href="#m71d6be2bae" y="25.657582"/>
      </g>
     </g>
     <g id="text_12">
      <!-- 1.0 -->
      <g transform="translate(23.573579 28.340688)scale(0.07497 -0.07497)">
       <use xlink:href="#ArialMT-49"/>
       <use x="55.615234" xlink:href="#ArialMT-46"/>
       <use x="83.398438" xlink:href="#ArialMT-48"/>
      </g>
     </g>
    </g>
    <g id="text_13">
     <!-- Fraction of 1000 -->
     <defs>
      <path d="M 8.203125 0 
L 8.203125 71.578125 
L 56.5 71.578125 
L 56.5 63.140625 
L 17.671875 63.140625 
L 17.671875 40.96875 
L 51.265625 40.96875 
L 51.265625 32.515625 
L 17.671875 32.515625 
L 17.671875 0 
z
" id="ArialMT-70"/>
      <path d="M 25.78125 7.859375 
L 27.046875 0.09375 
Q 23.34375 -0.6875 20.40625 -0.6875 
Q 15.625 -0.6875 12.984375 0.828125 
Q 10.359375 2.34375 9.28125 4.8125 
Q 8.203125 7.28125 8.203125 15.1875 
L 8.203125 45.015625 
L 1.765625 45.015625 
L 1.765625 51.859375 
L 8.203125 51.859375 
L 8.203125 64.703125 
L 16.9375 69.96875 
L 16.9375 51.859375 
L 25.78125 51.859375 
L 25.78125 45.015625 
L 16.9375 45.015625 
L 16.9375 14.703125 
Q 16.9375 10.9375 17.40625 9.859375 
Q 17.875 8.796875 18.921875 8.15625 
Q 19.96875 7.515625 21.921875 7.515625 
Q 23.390625 7.515625 25.78125 7.859375 
z
" id="ArialMT-116"/>
      <path d="M 3.328125 25.921875 
Q 3.328125 40.328125 11.328125 47.265625 
Q 18.015625 53.03125 27.640625 53.03125 
Q 38.328125 53.03125 45.109375 46.015625 
Q 51.90625 39.015625 51.90625 26.65625 
Q 51.90625 16.65625 48.90625 10.90625 
Q 45.90625 5.171875 40.15625 2 
Q 34.421875 -1.171875 27.640625 -1.171875 
Q 16.75 -1.171875 10.03125 5.8125 
Q 3.328125 12.796875 3.328125 25.921875 
z
M 12.359375 25.921875 
Q 12.359375 15.96875 16.703125 11.015625 
Q 21.046875 6.0625 27.640625 6.0625 
Q 34.1875 6.0625 38.53125 11.03125 
Q 42.875 16.015625 42.875 26.21875 
Q 42.875 35.84375 38.5 40.796875 
Q 34.125 45.75 27.640625 45.75 
Q 21.046875 45.75 16.703125 40.8125 
Q 12.359375 35.890625 12.359375 25.921875 
z
" id="ArialMT-111"/>
     </defs>
     <g transform="translate(12.566212 93.244321)rotate(-90)scale(0.07497 -0.07497)">
      <use xlink:href="#ArialMT-70"/>
      <use x="61.083984" xlink:href="#ArialMT-114"/>
      <use x="94.384766" xlink:href="#ArialMT-97"/>
      <use x="150" xlink:href="#ArialMT-99"/>
      <use x="200" xlink:href="#ArialMT-116"/>
      <use x="227.783203" xlink:href="#ArialMT-105"/>
      <use x="250" xlink:href="#ArialMT-111"/>
      <use x="305.615234" xlink:href="#ArialMT-110"/>
      <use x="361.230469" xlink:href="#ArialMT-32"/>
      <use x="389.013672" xlink:href="#ArialMT-111"/>
      <use x="444.628906" xlink:href="#ArialMT-102"/>
      <use x="472.412109" xlink:href="#ArialMT-32"/>
      <use x="500.195312" xlink:href="#ArialMT-49"/>
      <use x="555.810547" xlink:href="#ArialMT-48"/>
      <use x="611.425781" xlink:href="#ArialMT-48"/>
      <use x="667.041016" xlink:href="#ArialMT-48"/>
     </g>
     <!-- largest clones -->
     <defs>
      <path d="M 6.390625 0 
L 6.390625 71.578125 
L 15.1875 71.578125 
L 15.1875 0 
z
" id="ArialMT-108"/>
      <path d="M 4.984375 -4.296875 
L 13.53125 -5.5625 
Q 14.0625 -9.515625 16.5 -11.328125 
Q 19.78125 -13.765625 25.4375 -13.765625 
Q 31.546875 -13.765625 34.859375 -11.328125 
Q 38.1875 -8.890625 39.359375 -4.5 
Q 40.046875 -1.8125 39.984375 6.78125 
Q 34.234375 0 25.640625 0 
Q 14.9375 0 9.078125 7.71875 
Q 3.21875 15.4375 3.21875 26.21875 
Q 3.21875 33.640625 5.90625 39.90625 
Q 8.59375 46.1875 13.6875 49.609375 
Q 18.796875 53.03125 25.6875 53.03125 
Q 34.859375 53.03125 40.828125 45.609375 
L 40.828125 51.859375 
L 48.921875 51.859375 
L 48.921875 7.03125 
Q 48.921875 -5.078125 46.453125 -10.125 
Q 44 -15.1875 38.640625 -18.109375 
Q 33.296875 -21.046875 25.484375 -21.046875 
Q 16.21875 -21.046875 10.5 -16.875 
Q 4.78125 -12.703125 4.984375 -4.296875 
z
M 12.25 26.859375 
Q 12.25 16.65625 16.296875 11.96875 
Q 20.359375 7.28125 26.46875 7.28125 
Q 32.515625 7.28125 36.609375 11.9375 
Q 40.71875 16.609375 40.71875 26.5625 
Q 40.71875 36.078125 36.5 40.90625 
Q 32.28125 45.75 26.3125 45.75 
Q 20.453125 45.75 16.34375 40.984375 
Q 12.25 36.234375 12.25 26.859375 
z
" id="ArialMT-103"/>
     </defs>
     <g transform="translate(20.495695 89.284382)rotate(-90)scale(0.07497 -0.07497)">
      <use xlink:href="#ArialMT-108"/>
      <use x="22.216797" xlink:href="#ArialMT-97"/>
      <use x="77.832031" xlink:href="#ArialMT-114"/>
      <use x="111.132812" xlink:href="#ArialMT-103"/>
      <use x="166.748047" xlink:href="#ArialMT-101"/>
      <use x="222.363281" xlink:href="#ArialMT-115"/>
      <use x="272.363281" xlink:href="#ArialMT-116"/>
      <use x="300.146484" xlink:href="#ArialMT-32"/>
      <use x="327.929688" xlink:href="#ArialMT-99"/>
      <use x="377.929688" xlink:href="#ArialMT-108"/>
      <use x="400.146484" xlink:href="#ArialMT-111"/>
      <use x="455.761719" xlink:href="#ArialMT-110"/>
      <use x="511.376953" xlink:href="#ArialMT-101"/>
      <use x="566.992188" xlink:href="#ArialMT-115"/>
     </g>
    </g>
   </g>
   <g id="PolyCollection_1">
    <defs>
     <path d="M 30.566546 -108.092332 
L 30.566546 -27.091707 
L 39.592577 -27.091707 
L 47.716004 -27.091707 
L 56.1403 -27.091707 
L 77.501906 -27.091707 
L 85.625334 -27.091707 
L 94.350497 -27.091707 
L 141.887592 -27.091707 
L 141.887592 -70.427041 
L 141.887592 -70.427041 
L 94.350497 -77.717097 
L 85.625334 -79.175109 
L 77.501906 -78.284102 
L 56.1403 -83.22514 
L 47.716004 -81.443126 
L 39.592577 -84.116147 
L 30.566546 -108.092332 
z
" id="mc5c4ec7b84" style="stroke:#440154;stroke-width:0.8;"/>
    </defs>
    <g clip-path="url(#pbaa88bf183)">
     <use style="fill:#440154;stroke:#440154;stroke-width:0.8;" x="0" xlink:href="#mc5c4ec7b84" y="133.749913"/>
    </g>
   </g>
   <g id="PolyCollection_2">
    <defs>
     <path d="M 30.566546 -108.092332 
L 30.566546 -108.092332 
L 39.592577 -84.116147 
L 47.716004 -81.443126 
L 56.1403 -83.22514 
L 77.501906 -78.284102 
L 85.625334 -79.175109 
L 94.350497 -77.717097 
L 141.887592 -70.427041 
L 141.887592 -88.814183 
L 141.887592 -88.814183 
L 94.350497 -100.964277 
L 85.625334 -102.260287 
L 77.501906 -100.964277 
L 56.1403 -105.905315 
L 47.716004 -105.743314 
L 39.592577 -105.500312 
L 30.566546 -108.092332 
z
" id="ma6799ecd63" style="stroke:#443983;stroke-width:0.8;"/>
    </defs>
    <g clip-path="url(#pbaa88bf183)">
     <use style="fill:#443983;stroke:#443983;stroke-width:0.8;" x="0" xlink:href="#ma6799ecd63" y="133.749913"/>
    </g>
   </g>
   <g id="PolyCollection_3">
    <defs>
     <path d="M 30.566546 -108.092332 
L 30.566546 -108.092332 
L 39.592577 -105.500312 
L 47.716004 -105.743314 
L 56.1403 -105.905315 
L 77.501906 -100.964277 
L 85.625334 -102.260287 
L 94.350497 -100.964277 
L 141.887592 -88.814183 
L 141.887592 -91.244202 
L 141.887592 -91.244202 
L 94.350497 -102.74629 
L 85.625334 -104.690305 
L 77.501906 -103.637297 
L 56.1403 -107.444327 
L 47.716004 -107.039324 
L 39.592577 -106.715321 
L 30.566546 -108.092332 
z
" id="mf65e7fd9a2" style="stroke:#31688e;stroke-width:0.8;"/>
    </defs>
    <g clip-path="url(#pbaa88bf183)">
     <use style="fill:#31688e;stroke:#31688e;stroke-width:0.8;" x="0" xlink:href="#mf65e7fd9a2" y="133.749913"/>
    </g>
   </g>
   <g id="PolyCollection_4">
    <defs>
     <path d="M 30.566546 -108.092332 
L 30.566546 -108.092332 
L 39.592577 -106.715321 
L 47.716004 -107.039324 
L 56.1403 -107.444327 
L 77.501906 -103.637297 
L 85.625334 -104.690305 
L 94.350497 -102.74629 
L 141.887592 -91.244202 
L 141.887592 -92.702213 
L 141.887592 -92.702213 
L 94.350497 -103.151294 
L 85.625334 -105.419311 
L 77.501906 -104.933307 
L 56.1403 -107.606328 
L 47.716004 -107.282325 
L 39.592577 -106.958323 
L 30.566546 -108.092332 
z
" id="madb8d1209c" style="stroke:#21918c;stroke-width:0.8;"/>
    </defs>
    <g clip-path="url(#pbaa88bf183)">
     <use style="fill:#21918c;stroke:#21918c;stroke-width:0.8;" x="0" xlink:href="#madb8d1209c" y="133.749913"/>
    </g>
   </g>
   <g id="PolyCollection_5">
    <defs>
     <path d="M 30.566546 -108.092332 
L 30.566546 -108.092332 
L 39.592577 -106.958323 
L 47.716004 -107.282325 
L 56.1403 -107.606328 
L 77.501906 -104.933307 
L 85.625334 -105.419311 
L 94.350497 -103.151294 
L 141.887592 -92.702213 
L 141.887592 -108.092332 
L 141.887592 -108.092332 
L 94.350497 -108.092332 
L 85.625334 -108.092332 
L 77.501906 -108.092332 
L 56.1403 -108.092332 
L 47.716004 -108.092332 
L 39.592577 -108.092332 
L 30.566546 -108.092332 
z
" id="mfa74368e53" style="stroke:#35b779;stroke-width:0.8;"/>
    </defs>
    <g clip-path="url(#pbaa88bf183)">
     <use style="fill:#35b779;stroke:#35b779;stroke-width:0.8;" x="0" xlink:href="#mfa74368e53" y="133.749913"/>
    </g>
   </g>
   <g id="patch_3">
    <path d="M 39.592577 21.972053 
L 39.427851 21.60755 
L 39.565122 21.60755 
L 39.565122 17.557519 
L 39.620031 17.557519 
L 39.620031 21.60755 
L 39.757302 21.60755 
z
" style="fill:#808080;stroke:#808080;stroke-linejoin:miter;stroke-width:0.8;"/>
   </g>
   <g id="patch_4">
    <path d="M 47.716004 21.972053 
L 47.551279 21.60755 
L 47.68855 21.60755 
L 47.68855 17.557519 
L 47.743458 17.557519 
L 47.743458 21.60755 
L 47.880729 21.60755 
z
" style="fill:#808080;stroke:#808080;stroke-linejoin:miter;stroke-width:0.8;"/>
   </g>
   <g id="patch_5">
    <path d="M 56.1403 21.972053 
L 55.975575 21.60755 
L 56.112845 21.60755 
L 56.112845 17.557519 
L 56.167754 17.557519 
L 56.167754 21.60755 
L 56.305025 21.60755 
z
" style="fill:#808080;stroke:#808080;stroke-linejoin:miter;stroke-width:0.8;"/>
   </g>
   <g id="patch_6">
    <path d="M 77.501906 21.972053 
L 77.337181 21.60755 
L 77.474452 21.60755 
L 77.474452 17.557519 
L 77.52936 17.557519 
L 77.52936 21.60755 
L 77.666631 21.60755 
z
" style="fill:#808080;stroke:#808080;stroke-linejoin:miter;stroke-width:0.8;"/>
   </g>
   <g id="patch_7">
    <path d="M 85.625334 21.972053 
L 85.460609 21.60755 
L 85.597879 21.60755 
L 85.597879 17.557519 
L 85.652788 17.557519 
L 85.652788 21.60755 
L 85.790059 21.60755 
z
" style="fill:#808080;stroke:#808080;stroke-linejoin:miter;stroke-width:0.8;"/>
   </g>
   <g id="patch_8">
    <path d="M 94.350497 21.972053 
L 94.185772 21.60755 
L 94.323043 21.60755 
L 94.323043 17.557519 
L 94.377951 17.557519 
L 94.377951 21.60755 
L 94.515222 21.60755 
z
" style="fill:#808080;stroke:#808080;stroke-linejoin:miter;stroke-width:0.8;"/>
   </g>
   <g id="patch_9">
    <path d="M 141.887592 21.972053 
L 141.722867 21.60755 
L 141.860138 21.60755 
L 141.860138 17.557519 
L 141.915046 17.557519 
L 141.915046 21.60755 
L 142.052317 21.60755 
z
" style="fill:#808080;stroke:#808080;stroke-linejoin:miter;stroke-width:0.8;"/>
   </g>
   <g id="line2d_12">
    <path clip-path="url(#pbaa88bf183)" d="M 39.592577 106.658207 
L 39.592577 25.657582 
" style="fill:none;stroke:#808080;stroke-linecap:round;stroke-width:1.3;"/>
   </g>
   <g id="line2d_13">
    <path clip-path="url(#pbaa88bf183)" d="M 47.716004 106.658207 
L 47.716004 25.657582 
" style="fill:none;stroke:#808080;stroke-linecap:round;stroke-width:1.3;"/>
   </g>
   <g id="line2d_14">
    <path clip-path="url(#pbaa88bf183)" d="M 56.1403 106.658207 
L 56.1403 25.657582 
" style="fill:none;stroke:#808080;stroke-linecap:round;stroke-width:1.3;"/>
   </g>
   <g id="line2d_15">
    <path clip-path="url(#pbaa88bf183)" d="M 77.501906 106.658207 
L 77.501906 25.657582 
" style="fill:none;stroke:#808080;stroke-linecap:round;stroke-width:1.3;"/>
   </g>
   <g id="line2d_16">
    <path clip-path="url(#pbaa88bf183)" d="M 85.625334 106.658207 
L 85.625334 25.657582 
" style="fill:none;stroke:#808080;stroke-linecap:round;stroke-width:1.3;"/>
   </g>
   <g id="line2d_17">
    <path clip-path="url(#pbaa88bf183)" d="M 94.350497 106.658207 
L 94.350497 25.657582 
" style="fill:none;stroke:#808080;stroke-linecap:round;stroke-width:1.3;"/>
   </g>
   <g id="line2d_18">
    <path clip-path="url(#pbaa88bf183)" d="M 141.887592 106.658207 
L 141.887592 25.657582 
" style="fill:none;stroke:#808080;stroke-linecap:round;stroke-width:1.3;"/>
   </g>
   <g id="patch_10">
    <path d="M 38.494409 106.658207 
L 38.494409 25.657582 
" style="fill:none;stroke:#000000;stroke-linecap:square;stroke-linejoin:miter;"/>
   </g>
   <g id="patch_11">
    <path d="M 38.494409 106.658207 
L 142.985759 106.658207 
" style="fill:none;stroke:#000000;stroke-linecap:square;stroke-linejoin:miter;"/>
   </g>
   <g id="text_14">
    <!-- A -->
    <defs>
     <path d="M 71.828125 0 
L 56.109375 0 
L 49.859375 16.265625 
L 21.234375 16.265625 
L 15.328125 0 
L 0 0 
L 27.875 71.578125 
L 43.171875 71.578125 
z
M 45.21875 28.328125 
L 35.359375 54.890625 
L 25.6875 28.328125 
z
" id="Arial-BoldMT-65"/>
    </defs>
    <g transform="translate(28.045274 15.781425)scale(0.09 -0.09)">
     <use xlink:href="#Arial-BoldMT-65"/>
    </g>
   </g>
   <g id="text_15">
    <!-- Subject 1 -->
    <defs>
     <path d="M 4.5 23 
L 13.421875 23.78125 
Q 14.0625 18.40625 16.375 14.96875 
Q 18.703125 11.53125 23.578125 9.40625 
Q 28.46875 7.28125 34.578125 7.28125 
Q 39.984375 7.28125 44.140625 8.890625 
Q 48.296875 10.5 50.3125 13.296875 
Q 52.34375 16.109375 52.34375 19.4375 
Q 52.34375 22.796875 50.390625 25.3125 
Q 48.4375 27.828125 43.953125 29.546875 
Q 41.0625 30.671875 31.203125 33.03125 
Q 21.34375 35.40625 17.390625 37.5 
Q 12.25 40.1875 9.734375 44.15625 
Q 7.234375 48.140625 7.234375 53.078125 
Q 7.234375 58.5 10.296875 63.203125 
Q 13.375 67.921875 19.28125 70.359375 
Q 25.203125 72.796875 32.421875 72.796875 
Q 40.375 72.796875 46.453125 70.234375 
Q 52.546875 67.671875 55.8125 62.6875 
Q 59.078125 57.71875 59.328125 51.421875 
L 50.25 50.734375 
Q 49.515625 57.515625 45.28125 60.984375 
Q 41.0625 64.453125 32.8125 64.453125 
Q 24.21875 64.453125 20.28125 61.296875 
Q 16.359375 58.15625 16.359375 53.71875 
Q 16.359375 49.859375 19.140625 47.359375 
Q 21.875 44.875 33.421875 42.265625 
Q 44.96875 39.65625 49.265625 37.703125 
Q 55.515625 34.8125 58.484375 30.390625 
Q 61.46875 25.984375 61.46875 20.21875 
Q 61.46875 14.5 58.203125 9.4375 
Q 54.9375 4.390625 48.796875 1.578125 
Q 42.671875 -1.21875 35.015625 -1.21875 
Q 25.296875 -1.21875 18.71875 1.609375 
Q 12.15625 4.4375 8.421875 10.125 
Q 4.6875 15.828125 4.5 23 
z
" id="ArialMT-83"/>
     <path d="M 40.578125 0 
L 40.578125 7.625 
Q 34.515625 -1.171875 24.125 -1.171875 
Q 19.53125 -1.171875 15.546875 0.578125 
Q 11.578125 2.34375 9.640625 5 
Q 7.71875 7.671875 6.9375 11.53125 
Q 6.390625 14.109375 6.390625 19.734375 
L 6.390625 51.859375 
L 15.1875 51.859375 
L 15.1875 23.09375 
Q 15.1875 16.21875 15.71875 13.8125 
Q 16.546875 10.359375 19.234375 8.375 
Q 21.921875 6.390625 25.875 6.390625 
Q 29.828125 6.390625 33.296875 8.421875 
Q 36.765625 10.453125 38.203125 13.9375 
Q 39.65625 17.4375 39.65625 24.078125 
L 39.65625 51.859375 
L 48.4375 51.859375 
L 48.4375 0 
z
" id="ArialMT-117"/>
     <path d="M 14.703125 0 
L 6.546875 0 
L 6.546875 71.578125 
L 15.328125 71.578125 
L 15.328125 46.046875 
Q 20.90625 53.03125 29.546875 53.03125 
Q 34.328125 53.03125 38.59375 51.09375 
Q 42.875 49.171875 45.625 45.671875 
Q 48.390625 42.1875 49.953125 37.25 
Q 51.515625 32.328125 51.515625 26.703125 
Q 51.515625 13.375 44.921875 6.09375 
Q 38.328125 -1.171875 29.109375 -1.171875 
Q 19.921875 -1.171875 14.703125 6.5 
z
M 14.59375 26.3125 
Q 14.59375 17 17.140625 12.84375 
Q 21.296875 6.0625 28.375 6.0625 
Q 34.125 6.0625 38.328125 11.0625 
Q 42.53125 16.0625 42.53125 25.984375 
Q 42.53125 36.140625 38.5 40.96875 
Q 34.46875 45.796875 28.765625 45.796875 
Q 23 45.796875 18.796875 40.796875 
Q 14.59375 35.796875 14.59375 26.3125 
z
" id="ArialMT-98"/>
     <path d="M 6.546875 61.375 
L 6.546875 71.578125 
L 15.328125 71.578125 
L 15.328125 61.375 
z
M -4.59375 -20.125 
L -2.9375 -12.640625 
Q -0.296875 -13.328125 1.21875 -13.328125 
Q 3.90625 -13.328125 5.21875 -11.546875 
Q 6.546875 -9.765625 6.546875 -2.640625 
L 6.546875 51.859375 
L 15.328125 51.859375 
L 15.328125 -2.828125 
Q 15.328125 -12.40625 12.84375 -16.15625 
Q 9.671875 -21.046875 2.296875 -21.046875 
Q -1.265625 -21.046875 -4.59375 -20.125 
z
" id="ArialMT-106"/>
    </defs>
    <g transform="translate(75.111768 12.657582)scale(0.07497 -0.07497)">
     <use xlink:href="#ArialMT-83"/>
     <use x="66.699219" xlink:href="#ArialMT-117"/>
     <use x="122.314453" xlink:href="#ArialMT-98"/>
     <use x="177.929688" xlink:href="#ArialMT-106"/>
     <use x="200.146484" xlink:href="#ArialMT-101"/>
     <use x="255.761719" xlink:href="#ArialMT-99"/>
     <use x="305.761719" xlink:href="#ArialMT-116"/>
     <use x="333.544922" xlink:href="#ArialMT-32"/>
     <use x="361.328125" xlink:href="#ArialMT-49"/>
    </g>
   </g>
  </g>
  <g id="axes_2">
   <g id="patch_12">
    <path d="M 157.440709 106.658207 
L 261.932059 106.658207 
L 261.932059 25.657582 
L 157.440709 25.657582 
z
" style="fill:#ffffff;"/>
   </g>
   <g id="matplotlib.axis_3">
    <g id="xtick_6">
     <g id="line2d_19">
      <g>
       <use style="stroke:#000000;stroke-width:0.8;" x="171.493808" xlink:href="#m0e185a85cf" y="106.658207"/>
      </g>
     </g>
     <g id="text_16">
      <!-- 0.2 -->
      <g transform="translate(166.283393 116.524419)scale(0.07497 -0.07497)">
       <use xlink:href="#ArialMT-48"/>
       <use x="55.615234" xlink:href="#ArialMT-46"/>
       <use x="83.398438" xlink:href="#ArialMT-50"/>
      </g>
     </g>
    </g>
    <g id="xtick_7">
     <g id="line2d_20">
      <g>
       <use style="stroke:#000000;stroke-width:0.8;" x="193.023214" xlink:href="#m0e185a85cf" y="106.658207"/>
      </g>
     </g>
     <g id="text_17">
      <!-- 0.4 -->
      <g transform="translate(187.812799 116.524419)scale(0.07497 -0.07497)">
       <use xlink:href="#ArialMT-48"/>
       <use x="55.615234" xlink:href="#ArialMT-46"/>
       <use x="83.398438" xlink:href="#ArialMT-52"/>
      </g>
     </g>
    </g>
    <g id="xtick_8">
     <g id="line2d_21">
      <g>
       <use style="stroke:#000000;stroke-width:0.8;" x="214.55262" xlink:href="#m0e185a85cf" y="106.658207"/>
      </g>
     </g>
     <g id="text_18">
      <!-- 0.6 -->
      <g transform="translate(209.342205 116.524419)scale(0.07497 -0.07497)">
       <use xlink:href="#ArialMT-48"/>
       <use x="55.615234" xlink:href="#ArialMT-46"/>
       <use x="83.398438" xlink:href="#ArialMT-54"/>
      </g>
     </g>
    </g>
    <g id="xtick_9">
     <g id="line2d_22">
      <g>
       <use style="stroke:#000000;stroke-width:0.8;" x="236.082026" xlink:href="#m0e185a85cf" y="106.658207"/>
      </g>
     </g>
     <g id="text_19">
      <!-- 0.8 -->
      <g transform="translate(230.871611 116.524419)scale(0.07497 -0.07497)">
       <use xlink:href="#ArialMT-48"/>
       <use x="55.615234" xlink:href="#ArialMT-46"/>
       <use x="83.398438" xlink:href="#ArialMT-56"/>
      </g>
     </g>
    </g>
    <g id="xtick_10">
     <g id="line2d_23">
      <g>
       <use style="stroke:#000000;stroke-width:0.8;" x="257.611432" xlink:href="#m0e185a85cf" y="106.658207"/>
      </g>
     </g>
     <g id="text_20">
      <!-- 1.0 -->
      <g transform="translate(252.401017 116.524419)scale(0.07497 -0.07497)">
       <use xlink:href="#ArialMT-49"/>
       <use x="55.615234" xlink:href="#ArialMT-46"/>
       <use x="83.398438" xlink:href="#ArialMT-48"/>
      </g>
     </g>
    </g>
    <g id="text_21">
     <!-- Time difference in years -->
     <g transform="translate(169.691647 124.972029)scale(0.07497 -0.07497)">
      <use xlink:href="#ArialMT-84"/>
      <use x="61.037109" xlink:href="#ArialMT-105"/>
      <use x="83.253906" xlink:href="#ArialMT-109"/>
      <use x="166.554688" xlink:href="#ArialMT-101"/>
      <use x="222.169922" xlink:href="#ArialMT-32"/>
      <use x="249.953125" xlink:href="#ArialMT-100"/>
      <use x="305.568359" xlink:href="#ArialMT-105"/>
      <use x="327.785156" xlink:href="#ArialMT-102"/>
      <use x="355.552734" xlink:href="#ArialMT-102"/>
      <use x="383.335938" xlink:href="#ArialMT-101"/>
      <use x="438.951172" xlink:href="#ArialMT-114"/>
      <use x="472.251953" xlink:href="#ArialMT-101"/>
      <use x="527.867188" xlink:href="#ArialMT-110"/>
      <use x="583.482422" xlink:href="#ArialMT-99"/>
      <use x="633.482422" xlink:href="#ArialMT-101"/>
      <use x="689.097656" xlink:href="#ArialMT-32"/>
      <use x="716.880859" xlink:href="#ArialMT-105"/>
      <use x="739.097656" xlink:href="#ArialMT-110"/>
      <use x="794.712891" xlink:href="#ArialMT-32"/>
      <use x="822.496094" xlink:href="#ArialMT-121"/>
      <use x="872.496094" xlink:href="#ArialMT-101"/>
      <use x="928.111328" xlink:href="#ArialMT-97"/>
      <use x="983.726562" xlink:href="#ArialMT-114"/>
      <use x="1017.027344" xlink:href="#ArialMT-115"/>
     </g>
    </g>
   </g>
   <g id="matplotlib.axis_4">
    <g id="ytick_7">
     <g id="line2d_24">
      <g>
       <use style="stroke:#000000;stroke-width:0.8;" x="157.440709" xlink:href="#m71d6be2bae" y="106.658207"/>
      </g>
     </g>
    </g>
    <g id="ytick_8">
     <g id="line2d_25">
      <g>
       <use style="stroke:#000000;stroke-width:0.8;" x="157.440709" xlink:href="#m71d6be2bae" y="90.458082"/>
      </g>
     </g>
    </g>
    <g id="ytick_9">
     <g id="line2d_26">
      <g>
       <use style="stroke:#000000;stroke-width:0.8;" x="157.440709" xlink:href="#m71d6be2bae" y="74.257957"/>
      </g>
     </g>
    </g>
    <g id="ytick_10">
     <g id="line2d_27">
      <g>
       <use style="stroke:#000000;stroke-width:0.8;" x="157.440709" xlink:href="#m71d6be2bae" y="58.057832"/>
      </g>
     </g>
    </g>
    <g id="ytick_11">
     <g id="line2d_28">
      <g>
       <use style="stroke:#000000;stroke-width:0.8;" x="157.440709" xlink:href="#m71d6be2bae" y="41.857707"/>
      </g>
     </g>
    </g>
    <g id="ytick_12">
     <g id="line2d_29">
      <g>
       <use style="stroke:#000000;stroke-width:0.8;" x="157.440709" xlink:href="#m71d6be2bae" y="25.657582"/>
      </g>
     </g>
    </g>
   </g>
   <g id="PolyCollection_6">
    <defs>
     <path d="M 149.964402 -108.092332 
L 149.964402 -27.091707 
L 158.51718 -27.091707 
L 166.775034 -27.091707 
L 174.737965 -27.091707 
L 193.318137 -27.091707 
L 201.575992 -27.091707 
L 209.833846 -27.091707 
L 260.855589 -27.091707 
L 260.855589 -90.353195 
L 260.855589 -90.353195 
L 209.833846 -81.686128 
L 201.575992 -88.814183 
L 193.318137 -90.839199 
L 174.737965 -93.269217 
L 166.775034 -90.677197 
L 158.51718 -93.512219 
L 149.964402 -108.092332 
z
" id="m63c186e344" style="stroke:#440154;stroke-width:0.8;"/>
    </defs>
    <g clip-path="url(#pc8202af8e7)">
     <use style="fill:#440154;stroke:#440154;stroke-width:0.8;" x="0" xlink:href="#m63c186e344" y="133.749913"/>
    </g>
   </g>
   <g id="PolyCollection_7">
    <defs>
     <path d="M 149.964402 -108.092332 
L 149.964402 -108.092332 
L 158.51718 -93.512219 
L 166.775034 -90.677197 
L 174.737965 -93.269217 
L 193.318137 -90.839199 
L 201.575992 -88.814183 
L 209.833846 -81.686128 
L 260.855589 -90.353195 
L 260.855589 -107.363326 
L 260.855589 -107.363326 
L 209.833846 -104.609305 
L 201.575992 -107.039324 
L 193.318137 -107.363326 
L 174.737965 -107.444327 
L 166.775034 -107.363326 
L 158.51718 -107.768329 
L 149.964402 -108.092332 
z
" id="m5e58cedf72" style="stroke:#443983;stroke-width:0.8;"/>
    </defs>
    <g clip-path="url(#pc8202af8e7)">
     <use style="fill:#443983;stroke:#443983;stroke-width:0.8;" x="0" xlink:href="#m5e58cedf72" y="133.749913"/>
    </g>
   </g>
   <g id="PolyCollection_8">
    <defs>
     <path d="M 149.964402 -108.092332 
L 149.964402 -108.092332 
L 158.51718 -107.768329 
L 166.775034 -107.363326 
L 174.737965 -107.444327 
L 193.318137 -107.363326 
L 201.575992 -107.039324 
L 209.833846 -104.609305 
L 260.855589 -107.363326 
L 260.855589 -107.606328 
L 260.855589 -107.606328 
L 209.833846 -106.229317 
L 201.575992 -107.201325 
L 193.318137 -107.525327 
L 174.737965 -107.525327 
L 166.775034 -107.687329 
L 158.51718 -107.768329 
L 149.964402 -108.092332 
z
" id="m546f7e2595" style="stroke:#31688e;stroke-width:0.8;"/>
    </defs>
    <g clip-path="url(#pc8202af8e7)">
     <use style="fill:#31688e;stroke:#31688e;stroke-width:0.8;" x="0" xlink:href="#m546f7e2595" y="133.749913"/>
    </g>
   </g>
   <g id="PolyCollection_9">
    <defs>
     <path d="M 149.964402 -108.092332 
L 149.964402 -108.092332 
L 158.51718 -107.768329 
L 166.775034 -107.687329 
L 174.737965 -107.525327 
L 193.318137 -107.525327 
L 201.575992 -107.201325 
L 209.833846 -106.229317 
L 260.855589 -107.606328 
L 260.855589 -107.768329 
L 260.855589 -107.768329 
L 209.833846 -106.472319 
L 201.575992 -107.282325 
L 193.318137 -107.525327 
L 174.737965 -107.606328 
L 166.775034 -107.84933 
L 158.51718 -107.768329 
L 149.964402 -108.092332 
z
" id="m3f1c3dafaa" style="stroke:#21918c;stroke-width:0.8;"/>
    </defs>
    <g clip-path="url(#pc8202af8e7)">
     <use style="fill:#21918c;stroke:#21918c;stroke-width:0.8;" x="0" xlink:href="#m3f1c3dafaa" y="133.749913"/>
    </g>
   </g>
   <g id="PolyCollection_10">
    <defs>
     <path d="M 149.964402 -108.092332 
L 149.964402 -108.092332 
L 158.51718 -107.768329 
L 166.775034 -107.84933 
L 174.737965 -107.606328 
L 193.318137 -107.525327 
L 201.575992 -107.282325 
L 209.833846 -106.472319 
L 260.855589 -107.768329 
L 260.855589 -108.092332 
L 260.855589 -108.092332 
L 209.833846 -108.092332 
L 201.575992 -108.092332 
L 193.318137 -108.092332 
L 174.737965 -108.092332 
L 166.775034 -108.092332 
L 158.51718 -108.092332 
L 149.964402 -108.092332 
z
" id="m472d830a67" style="stroke:#35b779;stroke-width:0.8;"/>
    </defs>
    <g clip-path="url(#pc8202af8e7)">
     <use style="fill:#35b779;stroke:#35b779;stroke-width:0.8;" x="0" xlink:href="#m472d830a67" y="133.749913"/>
    </g>
   </g>
   <g id="patch_13">
    <path d="M 158.51718 21.972053 
L 158.355709 21.60755 
L 158.490268 21.60755 
L 158.490268 17.557519 
L 158.544092 17.557519 
L 158.544092 21.60755 
L 158.67865 21.60755 
z
" style="fill:#808080;stroke:#808080;stroke-linejoin:miter;stroke-width:0.8;"/>
   </g>
   <g id="patch_14">
    <path d="M 166.775034 21.972053 
L 166.613564 21.60755 
L 166.748122 21.60755 
L 166.748122 17.557519 
L 166.801946 17.557519 
L 166.801946 21.60755 
L 166.936505 21.60755 
z
" style="fill:#808080;stroke:#808080;stroke-linejoin:miter;stroke-width:0.8;"/>
   </g>
   <g id="patch_15">
    <path d="M 174.737965 21.972053 
L 174.576495 21.60755 
L 174.711053 21.60755 
L 174.711053 17.557519 
L 174.764877 17.557519 
L 174.764877 21.60755 
L 174.899436 21.60755 
z
" style="fill:#808080;stroke:#808080;stroke-linejoin:miter;stroke-width:0.8;"/>
   </g>
   <g id="patch_16">
    <path d="M 193.318137 21.972053 
L 193.156667 21.60755 
L 193.291226 21.60755 
L 193.291226 17.557519 
L 193.345049 17.557519 
L 193.345049 21.60755 
L 193.479608 21.60755 
z
" style="fill:#808080;stroke:#808080;stroke-linejoin:miter;stroke-width:0.8;"/>
   </g>
   <g id="patch_17">
    <path d="M 201.575992 21.972053 
L 201.414521 21.60755 
L 201.54908 21.60755 
L 201.54908 17.557519 
L 201.602904 17.557519 
L 201.602904 21.60755 
L 201.737462 21.60755 
z
" style="fill:#808080;stroke:#808080;stroke-linejoin:miter;stroke-width:0.8;"/>
   </g>
   <g id="patch_18">
    <path d="M 209.833846 21.972053 
L 209.672376 21.60755 
L 209.806934 21.60755 
L 209.806934 17.557519 
L 209.860758 17.557519 
L 209.860758 21.60755 
L 209.995317 21.60755 
z
" style="fill:#808080;stroke:#808080;stroke-linejoin:miter;stroke-width:0.8;"/>
   </g>
   <g id="patch_19">
    <path d="M 260.855589 21.972053 
L 260.694119 21.60755 
L 260.828677 21.60755 
L 260.828677 17.557519 
L 260.882501 17.557519 
L 260.882501 21.60755 
L 261.01706 21.60755 
z
" style="fill:#808080;stroke:#808080;stroke-linejoin:miter;stroke-width:0.8;"/>
   </g>
   <g id="line2d_30">
    <path clip-path="url(#pc8202af8e7)" d="M 158.51718 106.658207 
L 158.51718 25.657582 
" style="fill:none;stroke:#808080;stroke-linecap:round;stroke-width:1.3;"/>
   </g>
   <g id="line2d_31">
    <path clip-path="url(#pc8202af8e7)" d="M 166.775034 106.658207 
L 166.775034 25.657582 
" style="fill:none;stroke:#808080;stroke-linecap:round;stroke-width:1.3;"/>
   </g>
   <g id="line2d_32">
    <path clip-path="url(#pc8202af8e7)" d="M 174.737965 106.658207 
L 174.737965 25.657582 
" style="fill:none;stroke:#808080;stroke-linecap:round;stroke-width:1.3;"/>
   </g>
   <g id="line2d_33">
    <path clip-path="url(#pc8202af8e7)" d="M 193.318137 106.658207 
L 193.318137 25.657582 
" style="fill:none;stroke:#808080;stroke-linecap:round;stroke-width:1.3;"/>
   </g>
   <g id="line2d_34">
    <path clip-path="url(#pc8202af8e7)" d="M 201.575992 106.658207 
L 201.575992 25.657582 
" style="fill:none;stroke:#808080;stroke-linecap:round;stroke-width:1.3;"/>
   </g>
   <g id="line2d_35">
    <path clip-path="url(#pc8202af8e7)" d="M 209.833846 106.658207 
L 209.833846 25.657582 
" style="fill:none;stroke:#808080;stroke-linecap:round;stroke-width:1.3;"/>
   </g>
   <g id="line2d_36">
    <path clip-path="url(#pc8202af8e7)" d="M 260.855589 106.658207 
L 260.855589 25.657582 
" style="fill:none;stroke:#808080;stroke-linecap:round;stroke-width:1.3;"/>
   </g>
   <g id="patch_20">
    <path d="M 157.440709 106.658207 
L 157.440709 25.657582 
" style="fill:none;stroke:#000000;stroke-linecap:square;stroke-linejoin:miter;"/>
   </g>
   <g id="patch_21">
    <path d="M 157.440709 106.658207 
L 261.932059 106.658207 
" style="fill:none;stroke:#000000;stroke-linecap:square;stroke-linejoin:miter;"/>
   </g>
   <g id="text_22">
    <!-- B -->
    <defs>
     <path d="M 7.328125 71.578125 
L 35.9375 71.578125 
Q 44.4375 71.578125 48.609375 70.875 
Q 52.78125 70.171875 56.078125 67.921875 
Q 59.375 65.671875 61.5625 61.9375 
Q 63.765625 58.203125 63.765625 53.5625 
Q 63.765625 48.53125 61.046875 44.328125 
Q 58.34375 40.140625 53.71875 38.03125 
Q 60.25 36.140625 63.765625 31.546875 
Q 67.28125 26.953125 67.28125 20.75 
Q 67.28125 15.875 65.015625 11.25 
Q 62.75 6.640625 58.8125 3.875 
Q 54.890625 1.125 49.125 0.484375 
Q 45.515625 0.09375 31.6875 0 
L 7.328125 0 
z
M 21.78125 59.671875 
L 21.78125 43.109375 
L 31.25 43.109375 
Q 39.703125 43.109375 41.75 43.359375 
Q 45.453125 43.796875 47.578125 45.921875 
Q 49.703125 48.046875 49.703125 51.515625 
Q 49.703125 54.828125 47.875 56.90625 
Q 46.046875 58.984375 42.4375 59.421875 
Q 40.28125 59.671875 30.078125 59.671875 
z
M 21.78125 31.203125 
L 21.78125 12.0625 
L 35.15625 12.0625 
Q 42.96875 12.0625 45.0625 12.5 
Q 48.296875 13.09375 50.3125 15.359375 
Q 52.34375 17.625 52.34375 21.4375 
Q 52.34375 24.65625 50.78125 26.90625 
Q 49.21875 29.15625 46.265625 30.171875 
Q 43.3125 31.203125 33.453125 31.203125 
z
" id="Arial-BoldMT-66"/>
    </defs>
    <g transform="translate(146.991574 15.781425)scale(0.09 -0.09)">
     <use xlink:href="#Arial-BoldMT-66"/>
    </g>
   </g>
   <g id="text_23">
    <!-- Subject 2 -->
    <g transform="translate(194.058068 12.657582)scale(0.07497 -0.07497)">
     <use xlink:href="#ArialMT-83"/>
     <use x="66.699219" xlink:href="#ArialMT-117"/>
     <use x="122.314453" xlink:href="#ArialMT-98"/>
     <use x="177.929688" xlink:href="#ArialMT-106"/>
     <use x="200.146484" xlink:href="#ArialMT-101"/>
     <use x="255.761719" xlink:href="#ArialMT-99"/>
     <use x="305.761719" xlink:href="#ArialMT-116"/>
     <use x="333.544922" xlink:href="#ArialMT-32"/>
     <use x="361.328125" xlink:href="#ArialMT-50"/>
    </g>
   </g>
  </g>
  <g id="axes_3">
   <g id="patch_22">
    <path d="M 276.387009 106.658207 
L 380.878359 106.658207 
L 380.878359 25.657582 
L 276.387009 25.657582 
z
" style="fill:#ffffff;"/>
   </g>
   <g id="matplotlib.axis_5">
    <g id="xtick_11">
     <g id="line2d_37">
      <g>
       <use style="stroke:#000000;stroke-width:0.8;" x="289.878627" xlink:href="#m0e185a85cf" y="106.658207"/>
      </g>
     </g>
     <g id="text_24">
      <!-- 0.2 -->
      <g transform="translate(284.668212 116.524419)scale(0.07497 -0.07497)">
       <use xlink:href="#ArialMT-48"/>
       <use x="55.615234" xlink:href="#ArialMT-46"/>
       <use x="83.398438" xlink:href="#ArialMT-50"/>
      </g>
     </g>
    </g>
    <g id="xtick_12">
     <g id="line2d_38">
      <g>
       <use style="stroke:#000000;stroke-width:0.8;" x="310.990912" xlink:href="#m0e185a85cf" y="106.658207"/>
      </g>
     </g>
     <g id="text_25">
      <!-- 0.4 -->
      <g transform="translate(305.780497 116.524419)scale(0.07497 -0.07497)">
       <use xlink:href="#ArialMT-48"/>
       <use x="55.615234" xlink:href="#ArialMT-46"/>
       <use x="83.398438" xlink:href="#ArialMT-52"/>
      </g>
     </g>
    </g>
    <g id="xtick_13">
     <g id="line2d_39">
      <g>
       <use style="stroke:#000000;stroke-width:0.8;" x="332.103197" xlink:href="#m0e185a85cf" y="106.658207"/>
      </g>
     </g>
     <g id="text_26">
      <!-- 0.6 -->
      <g transform="translate(326.892782 116.524419)scale(0.07497 -0.07497)">
       <use xlink:href="#ArialMT-48"/>
       <use x="55.615234" xlink:href="#ArialMT-46"/>
       <use x="83.398438" xlink:href="#ArialMT-54"/>
      </g>
     </g>
    </g>
    <g id="xtick_14">
     <g id="line2d_40">
      <g>
       <use style="stroke:#000000;stroke-width:0.8;" x="353.215482" xlink:href="#m0e185a85cf" y="106.658207"/>
      </g>
     </g>
     <g id="text_27">
      <!-- 0.8 -->
      <g transform="translate(348.005067 116.524419)scale(0.07497 -0.07497)">
       <use xlink:href="#ArialMT-48"/>
       <use x="55.615234" xlink:href="#ArialMT-46"/>
       <use x="83.398438" xlink:href="#ArialMT-56"/>
      </g>
     </g>
    </g>
    <g id="xtick_15">
     <g id="line2d_41">
      <g>
       <use style="stroke:#000000;stroke-width:0.8;" x="374.327767" xlink:href="#m0e185a85cf" y="106.658207"/>
      </g>
     </g>
     <g id="text_28">
      <!-- 1.0 -->
      <g transform="translate(369.117352 116.524419)scale(0.07497 -0.07497)">
       <use xlink:href="#ArialMT-49"/>
       <use x="55.615234" xlink:href="#ArialMT-46"/>
       <use x="83.398438" xlink:href="#ArialMT-48"/>
      </g>
     </g>
    </g>
    <g id="text_29">
     <!-- Time difference in years -->
     <g transform="translate(288.637947 124.972029)scale(0.07497 -0.07497)">
      <use xlink:href="#ArialMT-84"/>
      <use x="61.037109" xlink:href="#ArialMT-105"/>
      <use x="83.253906" xlink:href="#ArialMT-109"/>
      <use x="166.554688" xlink:href="#ArialMT-101"/>
      <use x="222.169922" xlink:href="#ArialMT-32"/>
      <use x="249.953125" xlink:href="#ArialMT-100"/>
      <use x="305.568359" xlink:href="#ArialMT-105"/>
      <use x="327.785156" xlink:href="#ArialMT-102"/>
      <use x="355.552734" xlink:href="#ArialMT-102"/>
      <use x="383.335938" xlink:href="#ArialMT-101"/>
      <use x="438.951172" xlink:href="#ArialMT-114"/>
      <use x="472.251953" xlink:href="#ArialMT-101"/>
      <use x="527.867188" xlink:href="#ArialMT-110"/>
      <use x="583.482422" xlink:href="#ArialMT-99"/>
      <use x="633.482422" xlink:href="#ArialMT-101"/>
      <use x="689.097656" xlink:href="#ArialMT-32"/>
      <use x="716.880859" xlink:href="#ArialMT-105"/>
      <use x="739.097656" xlink:href="#ArialMT-110"/>
      <use x="794.712891" xlink:href="#ArialMT-32"/>
      <use x="822.496094" xlink:href="#ArialMT-121"/>
      <use x="872.496094" xlink:href="#ArialMT-101"/>
      <use x="928.111328" xlink:href="#ArialMT-97"/>
      <use x="983.726562" xlink:href="#ArialMT-114"/>
      <use x="1017.027344" xlink:href="#ArialMT-115"/>
     </g>
    </g>
   </g>
   <g id="matplotlib.axis_6">
    <g id="ytick_13">
     <g id="line2d_42">
      <g>
       <use style="stroke:#000000;stroke-width:0.8;" x="276.387009" xlink:href="#m71d6be2bae" y="106.658207"/>
      </g>
     </g>
    </g>
    <g id="ytick_14">
     <g id="line2d_43">
      <g>
       <use style="stroke:#000000;stroke-width:0.8;" x="276.387009" xlink:href="#m71d6be2bae" y="90.458082"/>
      </g>
     </g>
    </g>
    <g id="ytick_15">
     <g id="line2d_44">
      <g>
       <use style="stroke:#000000;stroke-width:0.8;" x="276.387009" xlink:href="#m71d6be2bae" y="74.257957"/>
      </g>
     </g>
    </g>
    <g id="ytick_16">
     <g id="line2d_45">
      <g>
       <use style="stroke:#000000;stroke-width:0.8;" x="276.387009" xlink:href="#m71d6be2bae" y="58.057832"/>
      </g>
     </g>
    </g>
    <g id="ytick_17">
     <g id="line2d_46">
      <g>
       <use style="stroke:#000000;stroke-width:0.8;" x="276.387009" xlink:href="#m71d6be2bae" y="41.857707"/>
      </g>
     </g>
    </g>
    <g id="ytick_18">
     <g id="line2d_47">
      <g>
       <use style="stroke:#000000;stroke-width:0.8;" x="276.387009" xlink:href="#m71d6be2bae" y="25.657582"/>
      </g>
     </g>
    </g>
   </g>
   <g id="PolyCollection_11">
    <defs>
     <path d="M 268.766342 -108.092332 
L 268.766342 -27.091707 
L 277.442624 -27.091707 
L 285.540486 -27.091707 
L 293.34914 -27.091707 
L 311.85854 -27.091707 
L 319.956403 -27.091707 
L 328.054266 -27.091707 
L 379.822745 -27.091707 
L 379.822745 -93.59322 
L 379.822745 -93.59322 
L 328.054266 -93.998223 
L 319.956403 -93.917222 
L 311.85854 -95.051231 
L 293.34914 -94.88923 
L 285.540486 -96.26624 
L 277.442624 -96.833245 
L 268.766342 -108.092332 
z
" id="mc090293578" style="stroke:#440154;stroke-width:0.8;"/>
    </defs>
    <g clip-path="url(#pfaf1bcc9f5)">
     <use style="fill:#440154;stroke:#440154;stroke-width:0.8;" x="0" xlink:href="#mc090293578" y="133.749913"/>
    </g>
   </g>
   <g id="PolyCollection_12">
    <defs>
     <path d="M 268.766342 -108.092332 
L 268.766342 -108.092332 
L 277.442624 -96.833245 
L 285.540486 -96.26624 
L 293.34914 -94.88923 
L 311.85854 -95.051231 
L 319.956403 -93.917222 
L 328.054266 -93.998223 
L 379.822745 -93.59322 
L 379.822745 -106.472319 
L 379.822745 -106.472319 
L 328.054266 -105.905315 
L 319.956403 -104.123301 
L 311.85854 -106.310318 
L 293.34914 -107.768329 
L 285.540486 -107.120324 
L 277.442624 -107.768329 
L 268.766342 -108.092332 
z
" id="md4432ceacd" style="stroke:#443983;stroke-width:0.8;"/>
    </defs>
    <g clip-path="url(#pfaf1bcc9f5)">
     <use style="fill:#443983;stroke:#443983;stroke-width:0.8;" x="0" xlink:href="#md4432ceacd" y="133.749913"/>
    </g>
   </g>
   <g id="PolyCollection_13">
    <defs>
     <path d="M 268.766342 -108.092332 
L 268.766342 -108.092332 
L 277.442624 -107.768329 
L 285.540486 -107.120324 
L 293.34914 -107.768329 
L 311.85854 -106.310318 
L 319.956403 -104.123301 
L 328.054266 -105.905315 
L 379.822745 -106.472319 
L 379.822745 -106.715321 
L 379.822745 -106.715321 
L 328.054266 -106.229317 
L 319.956403 -104.447304 
L 311.85854 -106.310318 
L 293.34914 -107.84933 
L 285.540486 -107.201325 
L 277.442624 -107.84933 
L 268.766342 -108.092332 
z
" id="mc0a13045ec" style="stroke:#31688e;stroke-width:0.8;"/>
    </defs>
    <g clip-path="url(#pfaf1bcc9f5)">
     <use style="fill:#31688e;stroke:#31688e;stroke-width:0.8;" x="0" xlink:href="#mc0a13045ec" y="133.749913"/>
    </g>
   </g>
   <g id="PolyCollection_14">
    <defs>
     <path d="M 268.766342 -108.092332 
L 268.766342 -108.092332 
L 277.442624 -107.84933 
L 285.540486 -107.201325 
L 293.34914 -107.84933 
L 311.85854 -106.310318 
L 319.956403 -104.447304 
L 328.054266 -106.229317 
L 379.822745 -106.715321 
L 379.822745 -106.715321 
L 379.822745 -106.715321 
L 328.054266 -106.229317 
L 319.956403 -104.528304 
L 311.85854 -106.310318 
L 293.34914 -107.84933 
L 285.540486 -107.201325 
L 277.442624 -107.93033 
L 268.766342 -108.092332 
z
" id="m1457a1538d" style="stroke:#21918c;stroke-width:0.8;"/>
    </defs>
    <g clip-path="url(#pfaf1bcc9f5)">
     <use style="fill:#21918c;stroke:#21918c;stroke-width:0.8;" x="0" xlink:href="#m1457a1538d" y="133.749913"/>
    </g>
   </g>
   <g id="PolyCollection_15">
    <defs>
     <path d="M 268.766342 -108.092332 
L 268.766342 -108.092332 
L 277.442624 -107.93033 
L 285.540486 -107.201325 
L 293.34914 -107.84933 
L 311.85854 -106.310318 
L 319.956403 -104.528304 
L 328.054266 -106.229317 
L 379.822745 -106.715321 
L 379.822745 -108.092332 
L 379.822745 -108.092332 
L 328.054266 -108.092332 
L 319.956403 -108.092332 
L 311.85854 -108.092332 
L 293.34914 -108.092332 
L 285.540486 -108.092332 
L 277.442624 -108.092332 
L 268.766342 -108.092332 
z
" id="mea0b6b5818" style="stroke:#35b779;stroke-width:0.8;"/>
    </defs>
    <g clip-path="url(#pfaf1bcc9f5)">
     <use style="fill:#35b779;stroke:#35b779;stroke-width:0.8;" x="0" xlink:href="#mea0b6b5818" y="133.749913"/>
    </g>
   </g>
   <g id="patch_23">
    <path d="M 277.442624 21.972053 
L 277.284282 21.60755 
L 277.416233 21.60755 
L 277.416233 17.557519 
L 277.469014 17.557519 
L 277.469014 21.60755 
L 277.600966 21.60755 
z
" style="fill:#808080;stroke:#808080;stroke-linejoin:miter;stroke-width:0.8;"/>
   </g>
   <g id="patch_24">
    <path d="M 285.540486 21.972053 
L 285.382144 21.60755 
L 285.514096 21.60755 
L 285.514096 17.557519 
L 285.566877 17.557519 
L 285.566877 21.60755 
L 285.698829 21.60755 
z
" style="fill:#808080;stroke:#808080;stroke-linejoin:miter;stroke-width:0.8;"/>
   </g>
   <g id="patch_25">
    <path d="M 293.34914 21.972053 
L 293.190798 21.60755 
L 293.322749 21.60755 
L 293.322749 17.557519 
L 293.37553 17.557519 
L 293.37553 21.60755 
L 293.507482 21.60755 
z
" style="fill:#808080;stroke:#808080;stroke-linejoin:miter;stroke-width:0.8;"/>
   </g>
   <g id="patch_26">
    <path d="M 311.85854 21.972053 
L 311.700198 21.60755 
L 311.83215 21.60755 
L 311.83215 17.557519 
L 311.884931 17.557519 
L 311.884931 21.60755 
L 312.016882 21.60755 
z
" style="fill:#808080;stroke:#808080;stroke-linejoin:miter;stroke-width:0.8;"/>
   </g>
   <g id="patch_27">
    <path d="M 319.956403 21.972053 
L 319.798061 21.60755 
L 319.930013 21.60755 
L 319.930013 17.557519 
L 319.982793 17.557519 
L 319.982793 21.60755 
L 320.114745 21.60755 
z
" style="fill:#808080;stroke:#808080;stroke-linejoin:miter;stroke-width:0.8;"/>
   </g>
   <g id="patch_28">
    <path d="M 328.054266 21.972053 
L 327.895924 21.60755 
L 328.027875 21.60755 
L 328.027875 17.557519 
L 328.080656 17.557519 
L 328.080656 21.60755 
L 328.212608 21.60755 
z
" style="fill:#808080;stroke:#808080;stroke-linejoin:miter;stroke-width:0.8;"/>
   </g>
   <g id="patch_29">
    <path d="M 379.822745 21.972053 
L 379.664403 21.60755 
L 379.796355 21.60755 
L 379.796355 17.557519 
L 379.849136 17.557519 
L 379.849136 21.60755 
L 379.981087 21.60755 
z
" style="fill:#808080;stroke:#808080;stroke-linejoin:miter;stroke-width:0.8;"/>
   </g>
   <g id="line2d_48">
    <path clip-path="url(#pfaf1bcc9f5)" d="M 277.442624 106.658207 
L 277.442624 25.657582 
" style="fill:none;stroke:#808080;stroke-linecap:round;stroke-width:1.3;"/>
   </g>
   <g id="line2d_49">
    <path clip-path="url(#pfaf1bcc9f5)" d="M 285.540486 106.658207 
L 285.540486 25.657582 
" style="fill:none;stroke:#808080;stroke-linecap:round;stroke-width:1.3;"/>
   </g>
   <g id="line2d_50">
    <path clip-path="url(#pfaf1bcc9f5)" d="M 293.34914 106.658207 
L 293.34914 25.657582 
" style="fill:none;stroke:#808080;stroke-linecap:round;stroke-width:1.3;"/>
   </g>
   <g id="line2d_51">
    <path clip-path="url(#pfaf1bcc9f5)" d="M 311.85854 106.658207 
L 311.85854 25.657582 
" style="fill:none;stroke:#808080;stroke-linecap:round;stroke-width:1.3;"/>
   </g>
   <g id="line2d_52">
    <path clip-path="url(#pfaf1bcc9f5)" d="M 319.956403 106.658207 
L 319.956403 25.657582 
" style="fill:none;stroke:#808080;stroke-linecap:round;stroke-width:1.3;"/>
   </g>
   <g id="line2d_53">
    <path clip-path="url(#pfaf1bcc9f5)" d="M 328.054266 106.658207 
L 328.054266 25.657582 
" style="fill:none;stroke:#808080;stroke-linecap:round;stroke-width:1.3;"/>
   </g>
   <g id="line2d_54">
    <path clip-path="url(#pfaf1bcc9f5)" d="M 379.822745 106.658207 
L 379.822745 25.657582 
" style="fill:none;stroke:#808080;stroke-linecap:round;stroke-width:1.3;"/>
   </g>
   <g id="patch_30">
    <path d="M 276.387009 106.658207 
L 276.387009 25.657582 
" style="fill:none;stroke:#000000;stroke-linecap:square;stroke-linejoin:miter;"/>
   </g>
   <g id="patch_31">
    <path d="M 276.387009 106.658207 
L 380.878359 106.658207 
" style="fill:none;stroke:#000000;stroke-linecap:square;stroke-linejoin:miter;"/>
   </g>
   <g id="text_30">
    <!-- C -->
    <defs>
     <path d="M 53.078125 26.3125 
L 67.09375 21.875 
Q 63.875 10.15625 56.375 4.46875 
Q 48.875 -1.21875 37.359375 -1.21875 
Q 23.09375 -1.21875 13.90625 8.515625 
Q 4.734375 18.265625 4.734375 35.15625 
Q 4.734375 53.03125 13.953125 62.90625 
Q 23.1875 72.796875 38.234375 72.796875 
Q 51.375 72.796875 59.578125 65.046875 
Q 64.453125 60.453125 66.890625 51.859375 
L 52.59375 48.4375 
Q 51.3125 54 47.28125 57.21875 
Q 43.265625 60.453125 37.5 60.453125 
Q 29.546875 60.453125 24.578125 54.734375 
Q 19.625 49.03125 19.625 36.234375 
Q 19.625 22.65625 24.5 16.890625 
Q 29.390625 11.140625 37.203125 11.140625 
Q 42.96875 11.140625 47.109375 14.796875 
Q 51.265625 18.453125 53.078125 26.3125 
z
" id="Arial-BoldMT-67"/>
    </defs>
    <g transform="translate(265.937874 15.781425)scale(0.09 -0.09)">
     <use xlink:href="#Arial-BoldMT-67"/>
    </g>
   </g>
   <g id="text_31">
    <!-- Subject 3 -->
    <defs>
     <path d="M 4.203125 18.890625 
L 12.984375 20.0625 
Q 14.5 12.59375 18.140625 9.296875 
Q 21.78125 6 27 6 
Q 33.203125 6 37.46875 10.296875 
Q 41.75 14.59375 41.75 20.953125 
Q 41.75 27 37.796875 30.921875 
Q 33.84375 34.859375 27.734375 34.859375 
Q 25.25 34.859375 21.53125 33.890625 
L 22.515625 41.609375 
Q 23.390625 41.5 23.921875 41.5 
Q 29.546875 41.5 34.03125 44.421875 
Q 38.53125 47.359375 38.53125 53.46875 
Q 38.53125 58.296875 35.25 61.46875 
Q 31.984375 64.65625 26.8125 64.65625 
Q 21.6875 64.65625 18.265625 61.421875 
Q 14.84375 58.203125 13.875 51.765625 
L 5.078125 53.328125 
Q 6.6875 62.15625 12.390625 67.015625 
Q 18.109375 71.875 26.609375 71.875 
Q 32.46875 71.875 37.390625 69.359375 
Q 42.328125 66.84375 44.9375 62.5 
Q 47.5625 58.15625 47.5625 53.265625 
Q 47.5625 48.640625 45.0625 44.828125 
Q 42.578125 41.015625 37.703125 38.765625 
Q 44.046875 37.3125 47.5625 32.6875 
Q 51.078125 28.078125 51.078125 21.140625 
Q 51.078125 11.765625 44.234375 5.25 
Q 37.40625 -1.265625 26.953125 -1.265625 
Q 17.53125 -1.265625 11.296875 4.34375 
Q 5.078125 9.96875 4.203125 18.890625 
z
" id="ArialMT-51"/>
    </defs>
    <g transform="translate(313.004368 12.657582)scale(0.07497 -0.07497)">
     <use xlink:href="#ArialMT-83"/>
     <use x="66.699219" xlink:href="#ArialMT-117"/>
     <use x="122.314453" xlink:href="#ArialMT-98"/>
     <use x="177.929688" xlink:href="#ArialMT-106"/>
     <use x="200.146484" xlink:href="#ArialMT-101"/>
     <use x="255.761719" xlink:href="#ArialMT-99"/>
     <use x="305.761719" xlink:href="#ArialMT-116"/>
     <use x="333.544922" xlink:href="#ArialMT-32"/>
     <use x="361.328125" xlink:href="#ArialMT-51"/>
    </g>
   </g>
   <g id="legend_1">
    <g id="text_32">
     <!-- Rank at t=0 -->
     <defs>
      <path d="M 7.859375 0 
L 7.859375 71.578125 
L 39.59375 71.578125 
Q 49.171875 71.578125 54.140625 69.640625 
Q 59.125 67.71875 62.109375 62.828125 
Q 65.09375 57.953125 65.09375 52.046875 
Q 65.09375 44.4375 60.15625 39.203125 
Q 55.21875 33.984375 44.921875 32.5625 
Q 48.6875 30.765625 50.640625 29 
Q 54.78125 25.203125 58.5 19.484375 
L 70.953125 0 
L 59.03125 0 
L 49.5625 14.890625 
Q 45.40625 21.34375 42.71875 24.75 
Q 40.046875 28.171875 37.921875 29.53125 
Q 35.796875 30.90625 33.59375 31.453125 
Q 31.984375 31.78125 28.328125 31.78125 
L 17.328125 31.78125 
L 17.328125 0 
z
M 17.328125 39.984375 
L 37.703125 39.984375 
Q 44.1875 39.984375 47.84375 41.328125 
Q 51.515625 42.671875 53.421875 45.625 
Q 55.328125 48.578125 55.328125 52.046875 
Q 55.328125 57.125 51.640625 60.390625 
Q 47.953125 63.671875 39.984375 63.671875 
L 17.328125 63.671875 
z
" id="ArialMT-82"/>
      <path d="M 6.640625 0 
L 6.640625 71.578125 
L 15.4375 71.578125 
L 15.4375 30.765625 
L 36.234375 51.859375 
L 47.609375 51.859375 
L 27.78125 32.625 
L 49.609375 0 
L 38.765625 0 
L 21.625 26.515625 
L 15.4375 20.5625 
L 15.4375 0 
z
" id="ArialMT-107"/>
      <path d="M 52.828125 42.09375 
L 5.5625 42.09375 
L 5.5625 50.296875 
L 52.828125 50.296875 
z
M 52.828125 20.359375 
L 5.5625 20.359375 
L 5.5625 28.5625 
L 52.828125 28.5625 
z
" id="ArialMT-61"/>
     </defs>
     <g transform="translate(386.499759 35.749751)scale(0.06246 -0.06246)">
      <use xlink:href="#ArialMT-82"/>
      <use x="72.216797" xlink:href="#ArialMT-97"/>
      <use x="127.832031" xlink:href="#ArialMT-110"/>
      <use x="183.447266" xlink:href="#ArialMT-107"/>
      <use x="233.447266" xlink:href="#ArialMT-32"/>
      <use x="261.230469" xlink:href="#ArialMT-97"/>
      <use x="316.845703" xlink:href="#ArialMT-116"/>
      <use x="344.628906" xlink:href="#ArialMT-32"/>
      <use x="372.412109" xlink:href="#ArialMT-116"/>
      <use x="400.195312" xlink:href="#ArialMT-61"/>
      <use x="458.59375" xlink:href="#ArialMT-48"/>
     </g>
     <!-- (binned) -->
     <defs>
      <path d="M 23.390625 -21.046875 
Q 16.109375 -11.859375 11.078125 0.4375 
Q 6.0625 12.75 6.0625 25.921875 
Q 6.0625 37.546875 9.8125 48.1875 
Q 14.203125 60.546875 23.390625 72.796875 
L 29.6875 72.796875 
Q 23.78125 62.640625 21.875 58.296875 
Q 18.890625 51.5625 17.1875 44.234375 
Q 15.09375 35.109375 15.09375 25.875 
Q 15.09375 2.390625 29.6875 -21.046875 
z
" id="ArialMT-40"/>
      <path d="M 12.359375 -21.046875 
L 6.0625 -21.046875 
Q 20.65625 2.390625 20.65625 25.875 
Q 20.65625 35.0625 18.5625 44.09375 
Q 16.890625 51.421875 13.921875 58.15625 
Q 12.015625 62.546875 6.0625 72.796875 
L 12.359375 72.796875 
Q 21.53125 60.546875 25.921875 48.1875 
Q 29.6875 37.546875 29.6875 25.921875 
Q 29.6875 12.75 24.625 0.4375 
Q 19.578125 -11.859375 12.359375 -21.046875 
z
" id="ArialMT-41"/>
     </defs>
     <g transform="translate(386.499759 42.447415)scale(0.06246 -0.06246)">
      <use xlink:href="#ArialMT-40"/>
      <use x="33.300781" xlink:href="#ArialMT-98"/>
      <use x="88.916016" xlink:href="#ArialMT-105"/>
      <use x="111.132812" xlink:href="#ArialMT-110"/>
      <use x="166.748047" xlink:href="#ArialMT-110"/>
      <use x="222.363281" xlink:href="#ArialMT-101"/>
      <use x="277.978516" xlink:href="#ArialMT-100"/>
      <use x="333.59375" xlink:href="#ArialMT-41"/>
     </g>
    </g>
    <g id="patch_32">
     <path d="M 391.596105 51.452391 
L 399.403605 51.452391 
L 399.403605 47.080191 
L 391.596105 47.080191 
z
" style="fill:#440154;stroke:#440154;stroke-linejoin:miter;stroke-width:0.8;"/>
    </g>
    <g id="text_33">
     <!-- $10^3$ -->
     <defs>
      <path d="M 12.40625 8.296875 
L 28.515625 8.296875 
L 28.515625 63.921875 
L 10.984375 60.40625 
L 10.984375 69.390625 
L 28.421875 72.90625 
L 38.28125 72.90625 
L 38.28125 8.296875 
L 54.390625 8.296875 
L 54.390625 0 
L 12.40625 0 
z
" id="DejaVuSans-49"/>
      <path d="M 31.78125 66.40625 
Q 24.171875 66.40625 20.328125 58.90625 
Q 16.5 51.421875 16.5 36.375 
Q 16.5 21.390625 20.328125 13.890625 
Q 24.171875 6.390625 31.78125 6.390625 
Q 39.453125 6.390625 43.28125 13.890625 
Q 47.125 21.390625 47.125 36.375 
Q 47.125 51.421875 43.28125 58.90625 
Q 39.453125 66.40625 31.78125 66.40625 
z
M 31.78125 74.21875 
Q 44.046875 74.21875 50.515625 64.515625 
Q 56.984375 54.828125 56.984375 36.375 
Q 56.984375 17.96875 50.515625 8.265625 
Q 44.046875 -1.421875 31.78125 -1.421875 
Q 19.53125 -1.421875 13.0625 8.265625 
Q 6.59375 17.96875 6.59375 36.375 
Q 6.59375 54.828125 13.0625 64.515625 
Q 19.53125 74.21875 31.78125 74.21875 
z
" id="DejaVuSans-48"/>
      <path d="M 40.578125 39.3125 
Q 47.65625 37.796875 51.625 33 
Q 55.609375 28.21875 55.609375 21.1875 
Q 55.609375 10.40625 48.1875 4.484375 
Q 40.765625 -1.421875 27.09375 -1.421875 
Q 22.515625 -1.421875 17.65625 -0.515625 
Q 12.796875 0.390625 7.625 2.203125 
L 7.625 11.71875 
Q 11.71875 9.328125 16.59375 8.109375 
Q 21.484375 6.890625 26.8125 6.890625 
Q 36.078125 6.890625 40.9375 10.546875 
Q 45.796875 14.203125 45.796875 21.1875 
Q 45.796875 27.640625 41.28125 31.265625 
Q 36.765625 34.90625 28.71875 34.90625 
L 20.21875 34.90625 
L 20.21875 43.015625 
L 29.109375 43.015625 
Q 36.375 43.015625 40.234375 45.921875 
Q 44.09375 48.828125 44.09375 54.296875 
Q 44.09375 59.90625 40.109375 62.90625 
Q 36.140625 65.921875 28.71875 65.921875 
Q 24.65625 65.921875 20.015625 65.03125 
Q 15.375 64.15625 9.8125 62.3125 
L 9.8125 71.09375 
Q 15.4375 72.65625 20.34375 73.4375 
Q 25.25 74.21875 29.59375 74.21875 
Q 40.828125 74.21875 47.359375 69.109375 
Q 53.90625 64.015625 53.90625 55.328125 
Q 53.90625 49.265625 50.4375 45.09375 
Q 46.96875 40.921875 40.578125 39.3125 
z
" id="DejaVuSans-51"/>
     </defs>
     <g transform="translate(402.526605 51.452391)scale(0.06246 -0.06246)">
      <use transform="translate(0 0.765625)" xlink:href="#DejaVuSans-49"/>
      <use transform="translate(63.623047 0.765625)" xlink:href="#DejaVuSans-48"/>
      <use transform="translate(128.203125 39.046875)scale(0.7)" xlink:href="#DejaVuSans-51"/>
     </g>
    </g>
    <g id="patch_33">
     <path d="M 391.596105 60.321711 
L 399.403605 60.321711 
L 399.403605 55.949511 
L 391.596105 55.949511 
z
" style="fill:#443983;stroke:#443983;stroke-linejoin:miter;stroke-width:0.8;"/>
    </g>
    <g id="text_34">
     <!-- $10^4$ -->
     <defs>
      <path d="M 37.796875 64.3125 
L 12.890625 25.390625 
L 37.796875 25.390625 
z
M 35.203125 72.90625 
L 47.609375 72.90625 
L 47.609375 25.390625 
L 58.015625 25.390625 
L 58.015625 17.1875 
L 47.609375 17.1875 
L 47.609375 0 
L 37.796875 0 
L 37.796875 17.1875 
L 4.890625 17.1875 
L 4.890625 26.703125 
z
" id="DejaVuSans-52"/>
     </defs>
     <g transform="translate(402.526605 60.321711)scale(0.06246 -0.06246)">
      <use transform="translate(0 0.684375)" xlink:href="#DejaVuSans-49"/>
      <use transform="translate(63.623047 0.684375)" xlink:href="#DejaVuSans-48"/>
      <use transform="translate(128.203125 38.965625)scale(0.7)" xlink:href="#DejaVuSans-52"/>
     </g>
    </g>
    <g id="patch_34">
     <path d="M 391.596105 69.191031 
L 399.403605 69.191031 
L 399.403605 64.818831 
L 391.596105 64.818831 
z
" style="fill:#31688e;stroke:#31688e;stroke-linejoin:miter;stroke-width:0.8;"/>
    </g>
    <g id="text_35">
     <!-- $10^5$ -->
     <defs>
      <path d="M 10.796875 72.90625 
L 49.515625 72.90625 
L 49.515625 64.59375 
L 19.828125 64.59375 
L 19.828125 46.734375 
Q 21.96875 47.46875 24.109375 47.828125 
Q 26.265625 48.1875 28.421875 48.1875 
Q 40.625 48.1875 47.75 41.5 
Q 54.890625 34.8125 54.890625 23.390625 
Q 54.890625 11.625 47.5625 5.09375 
Q 40.234375 -1.421875 26.90625 -1.421875 
Q 22.3125 -1.421875 17.546875 -0.640625 
Q 12.796875 0.140625 7.71875 1.703125 
L 7.71875 11.625 
Q 12.109375 9.234375 16.796875 8.0625 
Q 21.484375 6.890625 26.703125 6.890625 
Q 35.15625 6.890625 40.078125 11.328125 
Q 45.015625 15.765625 45.015625 23.390625 
Q 45.015625 31 40.078125 35.4375 
Q 35.15625 39.890625 26.703125 39.890625 
Q 22.75 39.890625 18.8125 39.015625 
Q 14.890625 38.140625 10.796875 36.28125 
z
" id="DejaVuSans-53"/>
     </defs>
     <g transform="translate(402.526605 69.191031)scale(0.06246 -0.06246)">
      <use transform="translate(0 0.684375)" xlink:href="#DejaVuSans-49"/>
      <use transform="translate(63.623047 0.684375)" xlink:href="#DejaVuSans-48"/>
      <use transform="translate(128.203125 38.965625)scale(0.7)" xlink:href="#DejaVuSans-53"/>
     </g>
    </g>
    <g id="patch_35">
     <path d="M 391.596105 78.122811 
L 399.403605 78.122811 
L 399.403605 73.750611 
L 391.596105 73.750611 
z
" style="fill:#21918c;stroke:#21918c;stroke-linejoin:miter;stroke-width:0.8;"/>
    </g>
    <g id="text_36">
     <!-- $10^6$ -->
     <defs>
      <path d="M 33.015625 40.375 
Q 26.375 40.375 22.484375 35.828125 
Q 18.609375 31.296875 18.609375 23.390625 
Q 18.609375 15.53125 22.484375 10.953125 
Q 26.375 6.390625 33.015625 6.390625 
Q 39.65625 6.390625 43.53125 10.953125 
Q 47.40625 15.53125 47.40625 23.390625 
Q 47.40625 31.296875 43.53125 35.828125 
Q 39.65625 40.375 33.015625 40.375 
z
M 52.59375 71.296875 
L 52.59375 62.3125 
Q 48.875 64.0625 45.09375 64.984375 
Q 41.3125 65.921875 37.59375 65.921875 
Q 27.828125 65.921875 22.671875 59.328125 
Q 17.53125 52.734375 16.796875 39.40625 
Q 19.671875 43.65625 24.015625 45.921875 
Q 28.375 48.1875 33.59375 48.1875 
Q 44.578125 48.1875 50.953125 41.515625 
Q 57.328125 34.859375 57.328125 23.390625 
Q 57.328125 12.15625 50.6875 5.359375 
Q 44.046875 -1.421875 33.015625 -1.421875 
Q 20.359375 -1.421875 13.671875 8.265625 
Q 6.984375 17.96875 6.984375 36.375 
Q 6.984375 53.65625 15.1875 63.9375 
Q 23.390625 74.21875 37.203125 74.21875 
Q 40.921875 74.21875 44.703125 73.484375 
Q 48.484375 72.75 52.59375 71.296875 
z
" id="DejaVuSans-54"/>
     </defs>
     <g transform="translate(402.526605 78.122811)scale(0.06246 -0.06246)">
      <use transform="translate(0 0.765625)" xlink:href="#DejaVuSans-49"/>
      <use transform="translate(63.623047 0.765625)" xlink:href="#DejaVuSans-48"/>
      <use transform="translate(128.203125 39.046875)scale(0.7)" xlink:href="#DejaVuSans-54"/>
     </g>
    </g>
    <g id="patch_36">
     <path d="M 391.596105 86.957973 
L 399.403605 86.957973 
L 399.403605 82.585773 
L 391.596105 82.585773 
z
" style="fill:#35b779;stroke:#35b779;stroke-linejoin:miter;stroke-width:0.8;"/>
    </g>
    <g id="text_37">
     <!-- ND -->
     <defs>
      <path d="M 7.625 0 
L 7.625 71.578125 
L 17.328125 71.578125 
L 54.9375 15.375 
L 54.9375 71.578125 
L 64.015625 71.578125 
L 64.015625 0 
L 54.296875 0 
L 16.703125 56.25 
L 16.703125 0 
z
" id="ArialMT-78"/>
      <path d="M 7.71875 0 
L 7.71875 71.578125 
L 32.375 71.578125 
Q 40.71875 71.578125 45.125 70.5625 
Q 51.265625 69.140625 55.609375 65.4375 
Q 61.28125 60.640625 64.078125 53.1875 
Q 66.890625 45.75 66.890625 36.1875 
Q 66.890625 28.03125 64.984375 21.734375 
Q 63.09375 15.4375 60.109375 11.296875 
Q 57.125 7.171875 53.578125 4.796875 
Q 50.046875 2.4375 45.046875 1.21875 
Q 40.046875 0 33.546875 0 
z
M 17.1875 8.453125 
L 32.46875 8.453125 
Q 39.546875 8.453125 43.578125 9.765625 
Q 47.609375 11.078125 50 13.484375 
Q 53.375 16.84375 55.25 22.53125 
Q 57.125 28.21875 57.125 36.328125 
Q 57.125 47.5625 53.4375 53.59375 
Q 49.75 59.625 44.484375 61.671875 
Q 40.671875 63.140625 32.234375 63.140625 
L 17.1875 63.140625 
z
" id="ArialMT-68"/>
     </defs>
     <g transform="translate(402.526605 86.957973)scale(0.06246 -0.06246)">
      <use xlink:href="#ArialMT-78"/>
      <use x="72.216797" xlink:href="#ArialMT-68"/>
     </g>
    </g>
   </g>
  </g>
 </g>
 <defs>
  <clipPath id="pbaa88bf183">
   <rect height="81.000625" width="104.49135" x="38.494409" y="25.657582"/>
  </clipPath>
  <clipPath id="pc8202af8e7">
   <rect height="81.000625" width="104.49135" x="157.440709" y="25.657582"/>
  </clipPath>
  <clipPath id="pfaf1bcc9f5">
   <rect height="81.000625" width="104.49135" x="276.387009" y="25.657582"/>
  </clipPath>
 </defs>
</svg>
