<?xml version="1.0" encoding="utf-8" standalone="no"?>
<!DOCTYPE svg PUBLIC "-//W3C//DTD SVG 1.1//EN"
  "http://www.w3.org/Graphics/SVG/1.1/DTD/svg11.dtd">
<!-- Created with matplotlib (https://matplotlib.org/) -->
<svg height="177.43422pt" version="1.1" viewBox="0 0 223.149491 177.43422" width="223.149491pt" xmlns="http://www.w3.org/2000/svg" xmlns:xlink="http://www.w3.org/1999/xlink">
 <defs>
  <style type="text/css">
*{stroke-linecap:butt;stroke-linejoin:round;}
  </style>
 </defs>
 <g id="figure_1">
  <g id="patch_1">
   <path d="M 0 177.43422 
L 223.149491 177.43422 
L 223.149491 0 
L 0 0 
z
" style="fill:none;"/>
  </g>
  <g id="axes_1">
   <g id="patch_2">
    <path d="M 31.826531 148.156669 
L 215.949491 148.156669 
L 215.949491 8.132839 
L 31.826531 8.132839 
z
" style="fill:#ffffff;"/>
   </g>
   <g id="matplotlib.axis_1">
    <g id="xtick_1">
     <g id="line2d_1">
      <defs>
       <path d="M 0 2 
L 0 -2 
" id="m8191787a96" style="stroke:#000000;stroke-width:0.8;"/>
      </defs>
      <g>
       <use style="stroke:#000000;stroke-width:0.8;" x="40.195756" xlink:href="#m8191787a96" y="148.156669"/>
      </g>
     </g>
     <g id="text_1">
      <!-- $\mathdefault{10^{0}}$ -->
      <defs>
       <path d="M 37.25 0 
L 28.46875 0 
L 28.46875 56 
Q 25.296875 52.984375 20.140625 49.953125 
Q 14.984375 46.921875 10.890625 45.40625 
L 10.890625 53.90625 
Q 18.265625 57.375 23.78125 62.296875 
Q 29.296875 67.234375 31.59375 71.875 
L 37.25 71.875 
z
" id="ArialMT-49"/>
       <path d="M 4.15625 35.296875 
Q 4.15625 48 6.765625 55.734375 
Q 9.375 63.484375 14.515625 67.671875 
Q 19.671875 71.875 27.484375 71.875 
Q 33.25 71.875 37.59375 69.546875 
Q 41.9375 67.234375 44.765625 62.859375 
Q 47.609375 58.5 49.21875 52.21875 
Q 50.828125 45.953125 50.828125 35.296875 
Q 50.828125 22.703125 48.234375 14.96875 
Q 45.65625 7.234375 40.5 3 
Q 35.359375 -1.21875 27.484375 -1.21875 
Q 17.140625 -1.21875 11.234375 6.203125 
Q 4.15625 15.140625 4.15625 35.296875 
z
M 13.1875 35.296875 
Q 13.1875 17.671875 17.3125 11.828125 
Q 21.4375 6 27.484375 6 
Q 33.546875 6 37.671875 11.859375 
Q 41.796875 17.71875 41.796875 35.296875 
Q 41.796875 52.984375 37.671875 58.78125 
Q 33.546875 64.59375 27.390625 64.59375 
Q 21.34375 64.59375 17.71875 59.46875 
Q 13.1875 52.9375 13.1875 35.296875 
z
" id="ArialMT-48"/>
      </defs>
      <g transform="translate(34.310611 160.38795)scale(0.07497 -0.07497)">
       <use transform="translate(0 0.99375)" xlink:href="#ArialMT-49"/>
       <use transform="translate(55.615234 0.99375)" xlink:href="#ArialMT-48"/>
       <use transform="translate(112.972813 70.6875)scale(0.7)" xlink:href="#ArialMT-48"/>
      </g>
     </g>
    </g>
    <g id="xtick_2">
     <g id="line2d_2">
      <g>
       <use style="stroke:#000000;stroke-width:0.8;" x="77.217227" xlink:href="#m8191787a96" y="148.156669"/>
      </g>
     </g>
     <g id="text_2">
      <!-- $\mathdefault{10^{1}}$ -->
      <g transform="translate(71.332082 160.38795)scale(0.07497 -0.07497)">
       <use transform="translate(0 0.99375)" xlink:href="#ArialMT-49"/>
       <use transform="translate(55.615234 0.99375)" xlink:href="#ArialMT-48"/>
       <use transform="translate(112.972813 70.6875)scale(0.7)" xlink:href="#ArialMT-49"/>
      </g>
     </g>
    </g>
    <g id="xtick_3">
     <g id="line2d_3">
      <g>
       <use style="stroke:#000000;stroke-width:0.8;" x="114.238699" xlink:href="#m8191787a96" y="148.156669"/>
      </g>
     </g>
     <g id="text_3">
      <!-- $\mathdefault{10^{2}}$ -->
      <defs>
       <path d="M 50.34375 8.453125 
L 50.34375 0 
L 3.03125 0 
Q 2.9375 3.171875 4.046875 6.109375 
Q 5.859375 10.9375 9.828125 15.625 
Q 13.8125 20.3125 21.34375 26.46875 
Q 33.015625 36.03125 37.109375 41.625 
Q 41.21875 47.21875 41.21875 52.203125 
Q 41.21875 57.421875 37.46875 61 
Q 33.734375 64.59375 27.734375 64.59375 
Q 21.390625 64.59375 17.578125 60.78125 
Q 13.765625 56.984375 13.71875 50.25 
L 4.6875 51.171875 
Q 5.609375 61.28125 11.65625 66.578125 
Q 17.71875 71.875 27.9375 71.875 
Q 38.234375 71.875 44.234375 66.15625 
Q 50.25 60.453125 50.25 52 
Q 50.25 47.703125 48.484375 43.546875 
Q 46.734375 39.40625 42.65625 34.8125 
Q 38.578125 30.21875 29.109375 22.21875 
Q 21.1875 15.578125 18.9375 13.203125 
Q 16.703125 10.84375 15.234375 8.453125 
z
" id="ArialMT-50"/>
      </defs>
      <g transform="translate(108.353554 160.38795)scale(0.07497 -0.07497)">
       <use transform="translate(0 0.99375)" xlink:href="#ArialMT-49"/>
       <use transform="translate(55.615234 0.99375)" xlink:href="#ArialMT-48"/>
       <use transform="translate(112.972813 70.6875)scale(0.7)" xlink:href="#ArialMT-50"/>
      </g>
     </g>
    </g>
    <g id="xtick_4">
     <g id="line2d_4">
      <g>
       <use style="stroke:#000000;stroke-width:0.8;" x="151.26017" xlink:href="#m8191787a96" y="148.156669"/>
      </g>
     </g>
     <g id="text_4">
      <!-- $\mathdefault{10^{3}}$ -->
      <defs>
       <path d="M 4.203125 18.890625 
L 12.984375 20.0625 
Q 14.5 12.59375 18.140625 9.296875 
Q 21.78125 6 27 6 
Q 33.203125 6 37.46875 10.296875 
Q 41.75 14.59375 41.75 20.953125 
Q 41.75 27 37.796875 30.921875 
Q 33.84375 34.859375 27.734375 34.859375 
Q 25.25 34.859375 21.53125 33.890625 
L 22.515625 41.609375 
Q 23.390625 41.5 23.921875 41.5 
Q 29.546875 41.5 34.03125 44.421875 
Q 38.53125 47.359375 38.53125 53.46875 
Q 38.53125 58.296875 35.25 61.46875 
Q 31.984375 64.65625 26.8125 64.65625 
Q 21.6875 64.65625 18.265625 61.421875 
Q 14.84375 58.203125 13.875 51.765625 
L 5.078125 53.328125 
Q 6.6875 62.15625 12.390625 67.015625 
Q 18.109375 71.875 26.609375 71.875 
Q 32.46875 71.875 37.390625 69.359375 
Q 42.328125 66.84375 44.9375 62.5 
Q 47.5625 58.15625 47.5625 53.265625 
Q 47.5625 48.640625 45.0625 44.828125 
Q 42.578125 41.015625 37.703125 38.765625 
Q 44.046875 37.3125 47.5625 32.6875 
Q 51.078125 28.078125 51.078125 21.140625 
Q 51.078125 11.765625 44.234375 5.25 
Q 37.40625 -1.265625 26.953125 -1.265625 
Q 17.53125 -1.265625 11.296875 4.34375 
Q 5.078125 9.96875 4.203125 18.890625 
z
" id="ArialMT-51"/>
      </defs>
      <g transform="translate(145.375025 160.38795)scale(0.07497 -0.07497)">
       <use transform="translate(0 0.99375)" xlink:href="#ArialMT-49"/>
       <use transform="translate(55.615234 0.99375)" xlink:href="#ArialMT-48"/>
       <use transform="translate(112.972813 70.6875)scale(0.7)" xlink:href="#ArialMT-51"/>
      </g>
     </g>
    </g>
    <g id="xtick_5">
     <g id="line2d_5">
      <g>
       <use style="stroke:#000000;stroke-width:0.8;" x="188.281641" xlink:href="#m8191787a96" y="148.156669"/>
      </g>
     </g>
     <g id="text_5">
      <!-- $\mathdefault{10^{4}}$ -->
      <defs>
       <path d="M 32.328125 0 
L 32.328125 17.140625 
L 1.265625 17.140625 
L 1.265625 25.203125 
L 33.9375 71.578125 
L 41.109375 71.578125 
L 41.109375 25.203125 
L 50.78125 25.203125 
L 50.78125 17.140625 
L 41.109375 17.140625 
L 41.109375 0 
z
M 32.328125 25.203125 
L 32.328125 57.46875 
L 9.90625 25.203125 
z
" id="ArialMT-52"/>
      </defs>
      <g transform="translate(182.396496 160.31298)scale(0.07497 -0.07497)">
       <use transform="translate(0 0.201563)" xlink:href="#ArialMT-49"/>
       <use transform="translate(55.615234 0.201563)" xlink:href="#ArialMT-48"/>
       <use transform="translate(112.972813 69.895313)scale(0.7)" xlink:href="#ArialMT-52"/>
      </g>
     </g>
    </g>
    <g id="xtick_6">
     <g id="line2d_6">
      <defs>
       <path d="M 0 1 
L 0 -1 
" id="m761a81574d" style="stroke:#000000;stroke-width:0.4;"/>
      </defs>
      <g>
       <use style="stroke:#000000;stroke-width:0.4;" x="31.982589" xlink:href="#m761a81574d" y="148.156669"/>
      </g>
     </g>
    </g>
    <g id="xtick_7">
     <g id="line2d_7">
      <g>
       <use style="stroke:#000000;stroke-width:0.4;" x="34.461058" xlink:href="#m761a81574d" y="148.156669"/>
      </g>
     </g>
    </g>
    <g id="xtick_8">
     <g id="line2d_8">
      <g>
       <use style="stroke:#000000;stroke-width:0.4;" x="36.608005" xlink:href="#m761a81574d" y="148.156669"/>
      </g>
     </g>
    </g>
    <g id="xtick_9">
     <g id="line2d_9">
      <g>
       <use style="stroke:#000000;stroke-width:0.4;" x="38.501747" xlink:href="#m761a81574d" y="148.156669"/>
      </g>
     </g>
    </g>
    <g id="xtick_10">
     <g id="line2d_10">
      <g>
       <use style="stroke:#000000;stroke-width:0.4;" x="51.34033" xlink:href="#m761a81574d" y="148.156669"/>
      </g>
     </g>
    </g>
    <g id="xtick_11">
     <g id="line2d_11">
      <g>
       <use style="stroke:#000000;stroke-width:0.4;" x="57.859487" xlink:href="#m761a81574d" y="148.156669"/>
      </g>
     </g>
    </g>
    <g id="xtick_12">
     <g id="line2d_12">
      <g>
       <use style="stroke:#000000;stroke-width:0.4;" x="62.484903" xlink:href="#m761a81574d" y="148.156669"/>
      </g>
     </g>
    </g>
    <g id="xtick_13">
     <g id="line2d_13">
      <g>
       <use style="stroke:#000000;stroke-width:0.4;" x="66.072654" xlink:href="#m761a81574d" y="148.156669"/>
      </g>
     </g>
    </g>
    <g id="xtick_14">
     <g id="line2d_14">
      <g>
       <use style="stroke:#000000;stroke-width:0.4;" x="69.00406" xlink:href="#m761a81574d" y="148.156669"/>
      </g>
     </g>
    </g>
    <g id="xtick_15">
     <g id="line2d_15">
      <g>
       <use style="stroke:#000000;stroke-width:0.4;" x="71.482529" xlink:href="#m761a81574d" y="148.156669"/>
      </g>
     </g>
    </g>
    <g id="xtick_16">
     <g id="line2d_16">
      <g>
       <use style="stroke:#000000;stroke-width:0.4;" x="73.629476" xlink:href="#m761a81574d" y="148.156669"/>
      </g>
     </g>
    </g>
    <g id="xtick_17">
     <g id="line2d_17">
      <g>
       <use style="stroke:#000000;stroke-width:0.4;" x="75.523218" xlink:href="#m761a81574d" y="148.156669"/>
      </g>
     </g>
    </g>
    <g id="xtick_18">
     <g id="line2d_18">
      <g>
       <use style="stroke:#000000;stroke-width:0.4;" x="88.361801" xlink:href="#m761a81574d" y="148.156669"/>
      </g>
     </g>
    </g>
    <g id="xtick_19">
     <g id="line2d_19">
      <g>
       <use style="stroke:#000000;stroke-width:0.4;" x="94.880958" xlink:href="#m761a81574d" y="148.156669"/>
      </g>
     </g>
    </g>
    <g id="xtick_20">
     <g id="line2d_20">
      <g>
       <use style="stroke:#000000;stroke-width:0.4;" x="99.506374" xlink:href="#m761a81574d" y="148.156669"/>
      </g>
     </g>
    </g>
    <g id="xtick_21">
     <g id="line2d_21">
      <g>
       <use style="stroke:#000000;stroke-width:0.4;" x="103.094125" xlink:href="#m761a81574d" y="148.156669"/>
      </g>
     </g>
    </g>
    <g id="xtick_22">
     <g id="line2d_22">
      <g>
       <use style="stroke:#000000;stroke-width:0.4;" x="106.025532" xlink:href="#m761a81574d" y="148.156669"/>
      </g>
     </g>
    </g>
    <g id="xtick_23">
     <g id="line2d_23">
      <g>
       <use style="stroke:#000000;stroke-width:0.4;" x="108.504" xlink:href="#m761a81574d" y="148.156669"/>
      </g>
     </g>
    </g>
    <g id="xtick_24">
     <g id="line2d_24">
      <g>
       <use style="stroke:#000000;stroke-width:0.4;" x="110.650947" xlink:href="#m761a81574d" y="148.156669"/>
      </g>
     </g>
    </g>
    <g id="xtick_25">
     <g id="line2d_25">
      <g>
       <use style="stroke:#000000;stroke-width:0.4;" x="112.544689" xlink:href="#m761a81574d" y="148.156669"/>
      </g>
     </g>
    </g>
    <g id="xtick_26">
     <g id="line2d_26">
      <g>
       <use style="stroke:#000000;stroke-width:0.4;" x="125.383272" xlink:href="#m761a81574d" y="148.156669"/>
      </g>
     </g>
    </g>
    <g id="xtick_27">
     <g id="line2d_27">
      <g>
       <use style="stroke:#000000;stroke-width:0.4;" x="131.902429" xlink:href="#m761a81574d" y="148.156669"/>
      </g>
     </g>
    </g>
    <g id="xtick_28">
     <g id="line2d_28">
      <g>
       <use style="stroke:#000000;stroke-width:0.4;" x="136.527845" xlink:href="#m761a81574d" y="148.156669"/>
      </g>
     </g>
    </g>
    <g id="xtick_29">
     <g id="line2d_29">
      <g>
       <use style="stroke:#000000;stroke-width:0.4;" x="140.115596" xlink:href="#m761a81574d" y="148.156669"/>
      </g>
     </g>
    </g>
    <g id="xtick_30">
     <g id="line2d_30">
      <g>
       <use style="stroke:#000000;stroke-width:0.4;" x="143.047003" xlink:href="#m761a81574d" y="148.156669"/>
      </g>
     </g>
    </g>
    <g id="xtick_31">
     <g id="line2d_31">
      <g>
       <use style="stroke:#000000;stroke-width:0.4;" x="145.525471" xlink:href="#m761a81574d" y="148.156669"/>
      </g>
     </g>
    </g>
    <g id="xtick_32">
     <g id="line2d_32">
      <g>
       <use style="stroke:#000000;stroke-width:0.4;" x="147.672419" xlink:href="#m761a81574d" y="148.156669"/>
      </g>
     </g>
    </g>
    <g id="xtick_33">
     <g id="line2d_33">
      <g>
       <use style="stroke:#000000;stroke-width:0.4;" x="149.56616" xlink:href="#m761a81574d" y="148.156669"/>
      </g>
     </g>
    </g>
    <g id="xtick_34">
     <g id="line2d_34">
      <g>
       <use style="stroke:#000000;stroke-width:0.4;" x="162.404743" xlink:href="#m761a81574d" y="148.156669"/>
      </g>
     </g>
    </g>
    <g id="xtick_35">
     <g id="line2d_35">
      <g>
       <use style="stroke:#000000;stroke-width:0.4;" x="168.923901" xlink:href="#m761a81574d" y="148.156669"/>
      </g>
     </g>
    </g>
    <g id="xtick_36">
     <g id="line2d_36">
      <g>
       <use style="stroke:#000000;stroke-width:0.4;" x="173.549316" xlink:href="#m761a81574d" y="148.156669"/>
      </g>
     </g>
    </g>
    <g id="xtick_37">
     <g id="line2d_37">
      <g>
       <use style="stroke:#000000;stroke-width:0.4;" x="177.137068" xlink:href="#m761a81574d" y="148.156669"/>
      </g>
     </g>
    </g>
    <g id="xtick_38">
     <g id="line2d_38">
      <g>
       <use style="stroke:#000000;stroke-width:0.4;" x="180.068474" xlink:href="#m761a81574d" y="148.156669"/>
      </g>
     </g>
    </g>
    <g id="xtick_39">
     <g id="line2d_39">
      <g>
       <use style="stroke:#000000;stroke-width:0.4;" x="182.546943" xlink:href="#m761a81574d" y="148.156669"/>
      </g>
     </g>
    </g>
    <g id="xtick_40">
     <g id="line2d_40">
      <g>
       <use style="stroke:#000000;stroke-width:0.4;" x="184.69389" xlink:href="#m761a81574d" y="148.156669"/>
      </g>
     </g>
    </g>
    <g id="xtick_41">
     <g id="line2d_41">
      <g>
       <use style="stroke:#000000;stroke-width:0.4;" x="186.587631" xlink:href="#m761a81574d" y="148.156669"/>
      </g>
     </g>
    </g>
    <g id="xtick_42">
     <g id="line2d_42">
      <g>
       <use style="stroke:#000000;stroke-width:0.4;" x="199.426214" xlink:href="#m761a81574d" y="148.156669"/>
      </g>
     </g>
    </g>
    <g id="xtick_43">
     <g id="line2d_43">
      <g>
       <use style="stroke:#000000;stroke-width:0.4;" x="205.945372" xlink:href="#m761a81574d" y="148.156669"/>
      </g>
     </g>
    </g>
    <g id="xtick_44">
     <g id="line2d_44">
      <g>
       <use style="stroke:#000000;stroke-width:0.4;" x="210.570788" xlink:href="#m761a81574d" y="148.156669"/>
      </g>
     </g>
    </g>
    <g id="xtick_45">
     <g id="line2d_45">
      <g>
       <use style="stroke:#000000;stroke-width:0.4;" x="214.158539" xlink:href="#m761a81574d" y="148.156669"/>
      </g>
     </g>
    </g>
    <g id="text_6">
     <!-- Clone size -->
     <defs>
      <path d="M 58.796875 25.09375 
L 68.265625 22.703125 
Q 65.28125 11.03125 57.546875 4.90625 
Q 49.8125 -1.21875 38.625 -1.21875 
Q 27.046875 -1.21875 19.796875 3.484375 
Q 12.546875 8.203125 8.765625 17.140625 
Q 4.984375 26.078125 4.984375 36.328125 
Q 4.984375 47.515625 9.25 55.828125 
Q 13.53125 64.15625 21.40625 68.46875 
Q 29.296875 72.796875 38.765625 72.796875 
Q 49.515625 72.796875 56.828125 67.328125 
Q 64.15625 61.859375 67.046875 51.953125 
L 57.71875 49.75 
Q 55.21875 57.5625 50.484375 61.125 
Q 45.75 64.703125 38.578125 64.703125 
Q 30.328125 64.703125 24.78125 60.734375 
Q 19.234375 56.78125 16.984375 50.109375 
Q 14.75 43.453125 14.75 36.375 
Q 14.75 27.25 17.40625 20.4375 
Q 20.0625 13.625 25.671875 10.25 
Q 31.296875 6.890625 37.84375 6.890625 
Q 45.796875 6.890625 51.3125 11.46875 
Q 56.84375 16.0625 58.796875 25.09375 
z
" id="ArialMT-67"/>
      <path d="M 6.390625 0 
L 6.390625 71.578125 
L 15.1875 71.578125 
L 15.1875 0 
z
" id="ArialMT-108"/>
      <path d="M 3.328125 25.921875 
Q 3.328125 40.328125 11.328125 47.265625 
Q 18.015625 53.03125 27.640625 53.03125 
Q 38.328125 53.03125 45.109375 46.015625 
Q 51.90625 39.015625 51.90625 26.65625 
Q 51.90625 16.65625 48.90625 10.90625 
Q 45.90625 5.171875 40.15625 2 
Q 34.421875 -1.171875 27.640625 -1.171875 
Q 16.75 -1.171875 10.03125 5.8125 
Q 3.328125 12.796875 3.328125 25.921875 
z
M 12.359375 25.921875 
Q 12.359375 15.96875 16.703125 11.015625 
Q 21.046875 6.0625 27.640625 6.0625 
Q 34.1875 6.0625 38.53125 11.03125 
Q 42.875 16.015625 42.875 26.21875 
Q 42.875 35.84375 38.5 40.796875 
Q 34.125 45.75 27.640625 45.75 
Q 21.046875 45.75 16.703125 40.8125 
Q 12.359375 35.890625 12.359375 25.921875 
z
" id="ArialMT-111"/>
      <path d="M 6.59375 0 
L 6.59375 51.859375 
L 14.5 51.859375 
L 14.5 44.484375 
Q 20.21875 53.03125 31 53.03125 
Q 35.6875 53.03125 39.625 51.34375 
Q 43.5625 49.65625 45.515625 46.921875 
Q 47.46875 44.1875 48.25 40.4375 
Q 48.734375 37.984375 48.734375 31.890625 
L 48.734375 0 
L 39.9375 0 
L 39.9375 31.546875 
Q 39.9375 36.921875 38.90625 39.578125 
Q 37.890625 42.234375 35.28125 43.8125 
Q 32.671875 45.40625 29.15625 45.40625 
Q 23.53125 45.40625 19.453125 41.84375 
Q 15.375 38.28125 15.375 28.328125 
L 15.375 0 
z
" id="ArialMT-110"/>
      <path d="M 42.09375 16.703125 
L 51.171875 15.578125 
Q 49.03125 7.625 43.21875 3.21875 
Q 37.40625 -1.171875 28.375 -1.171875 
Q 17 -1.171875 10.328125 5.828125 
Q 3.65625 12.84375 3.65625 25.484375 
Q 3.65625 38.578125 10.390625 45.796875 
Q 17.140625 53.03125 27.875 53.03125 
Q 38.28125 53.03125 44.875 45.953125 
Q 51.46875 38.875 51.46875 26.03125 
Q 51.46875 25.25 51.421875 23.6875 
L 12.75 23.6875 
Q 13.234375 15.140625 17.578125 10.59375 
Q 21.921875 6.0625 28.421875 6.0625 
Q 33.25 6.0625 36.671875 8.59375 
Q 40.09375 11.140625 42.09375 16.703125 
z
M 13.234375 30.90625 
L 42.1875 30.90625 
Q 41.609375 37.453125 38.875 40.71875 
Q 34.671875 45.796875 27.984375 45.796875 
Q 21.921875 45.796875 17.796875 41.75 
Q 13.671875 37.703125 13.234375 30.90625 
z
" id="ArialMT-101"/>
      <path id="ArialMT-32"/>
      <path d="M 3.078125 15.484375 
L 11.765625 16.84375 
Q 12.5 11.625 15.84375 8.84375 
Q 19.1875 6.0625 25.203125 6.0625 
Q 31.25 6.0625 34.171875 8.515625 
Q 37.109375 10.984375 37.109375 14.3125 
Q 37.109375 17.28125 34.515625 19 
Q 32.71875 20.171875 25.53125 21.96875 
Q 15.875 24.421875 12.140625 26.203125 
Q 8.40625 27.984375 6.46875 31.125 
Q 4.546875 34.28125 4.546875 38.09375 
Q 4.546875 41.546875 6.125 44.5 
Q 7.71875 47.46875 10.453125 49.421875 
Q 12.5 50.921875 16.03125 51.96875 
Q 19.578125 53.03125 23.640625 53.03125 
Q 29.734375 53.03125 34.34375 51.265625 
Q 38.96875 49.515625 41.15625 46.5 
Q 43.359375 43.5 44.1875 38.484375 
L 35.59375 37.3125 
Q 35.015625 41.3125 32.203125 43.546875 
Q 29.390625 45.796875 24.265625 45.796875 
Q 18.21875 45.796875 15.625 43.796875 
Q 13.03125 41.796875 13.03125 39.109375 
Q 13.03125 37.40625 14.109375 36.03125 
Q 15.1875 34.625 17.484375 33.6875 
Q 18.796875 33.203125 25.25 31.453125 
Q 34.578125 28.953125 38.25 27.359375 
Q 41.9375 25.78125 44.03125 22.75 
Q 46.140625 19.734375 46.140625 15.234375 
Q 46.140625 10.84375 43.578125 6.953125 
Q 41.015625 3.078125 36.171875 0.953125 
Q 31.34375 -1.171875 25.25 -1.171875 
Q 15.140625 -1.171875 9.84375 3.03125 
Q 4.546875 7.234375 3.078125 15.484375 
z
" id="ArialMT-115"/>
      <path d="M 6.640625 61.46875 
L 6.640625 71.578125 
L 15.4375 71.578125 
L 15.4375 61.46875 
z
M 6.640625 0 
L 6.640625 51.859375 
L 15.4375 51.859375 
L 15.4375 0 
z
" id="ArialMT-105"/>
      <path d="M 1.953125 0 
L 1.953125 7.125 
L 34.96875 45.015625 
Q 29.34375 44.734375 25.046875 44.734375 
L 3.90625 44.734375 
L 3.90625 51.859375 
L 46.296875 51.859375 
L 46.296875 46.046875 
L 18.21875 13.140625 
L 12.796875 7.125 
Q 18.703125 7.5625 23.875 7.5625 
L 47.859375 7.5625 
L 47.859375 0 
z
" id="ArialMT-122"/>
     </defs>
     <g transform="translate(106.387202 168.744191)scale(0.07497 -0.07497)">
      <use xlink:href="#ArialMT-67"/>
      <use x="72.216797" xlink:href="#ArialMT-108"/>
      <use x="94.433594" xlink:href="#ArialMT-111"/>
      <use x="150.048828" xlink:href="#ArialMT-110"/>
      <use x="205.664062" xlink:href="#ArialMT-101"/>
      <use x="261.279297" xlink:href="#ArialMT-32"/>
      <use x="289.0625" xlink:href="#ArialMT-115"/>
      <use x="339.0625" xlink:href="#ArialMT-105"/>
      <use x="361.279297" xlink:href="#ArialMT-122"/>
      <use x="411.279297" xlink:href="#ArialMT-101"/>
     </g>
    </g>
   </g>
   <g id="matplotlib.axis_2">
    <g id="ytick_1">
     <g id="line2d_46">
      <defs>
       <path d="M 2 0 
L -2 -0 
" id="m8f8a0d41f0" style="stroke:#000000;stroke-width:0.8;"/>
      </defs>
      <g>
       <use style="stroke:#000000;stroke-width:0.8;" x="31.826531" xlink:href="#m8f8a0d41f0" y="141.791949"/>
      </g>
     </g>
     <g id="text_7">
      <!-- $\mathdefault{10^{0}}$ -->
      <g transform="translate(15.556241 145.65759)scale(0.07497 -0.07497)">
       <use transform="translate(0 0.99375)" xlink:href="#ArialMT-49"/>
       <use transform="translate(55.615234 0.99375)" xlink:href="#ArialMT-48"/>
       <use transform="translate(112.972813 70.6875)scale(0.7)" xlink:href="#ArialMT-48"/>
      </g>
     </g>
    </g>
    <g id="ytick_2">
     <g id="line2d_47">
      <g>
       <use style="stroke:#000000;stroke-width:0.8;" x="31.826531" xlink:href="#m8f8a0d41f0" y="109.101001"/>
      </g>
     </g>
     <g id="text_8">
      <!-- $\mathdefault{10^{1}}$ -->
      <g transform="translate(15.556241 112.966642)scale(0.07497 -0.07497)">
       <use transform="translate(0 0.99375)" xlink:href="#ArialMT-49"/>
       <use transform="translate(55.615234 0.99375)" xlink:href="#ArialMT-48"/>
       <use transform="translate(112.972813 70.6875)scale(0.7)" xlink:href="#ArialMT-49"/>
      </g>
     </g>
    </g>
    <g id="ytick_3">
     <g id="line2d_48">
      <g>
       <use style="stroke:#000000;stroke-width:0.8;" x="31.826531" xlink:href="#m8f8a0d41f0" y="76.410053"/>
      </g>
     </g>
     <g id="text_9">
      <!-- $\mathdefault{10^{2}}$ -->
      <g transform="translate(15.556241 80.275693)scale(0.07497 -0.07497)">
       <use transform="translate(0 0.99375)" xlink:href="#ArialMT-49"/>
       <use transform="translate(55.615234 0.99375)" xlink:href="#ArialMT-48"/>
       <use transform="translate(112.972813 70.6875)scale(0.7)" xlink:href="#ArialMT-50"/>
      </g>
     </g>
    </g>
    <g id="ytick_4">
     <g id="line2d_49">
      <g>
       <use style="stroke:#000000;stroke-width:0.8;" x="31.826531" xlink:href="#m8f8a0d41f0" y="43.719104"/>
      </g>
     </g>
     <g id="text_10">
      <!-- $\mathdefault{10^{3}}$ -->
      <g transform="translate(15.556241 47.584745)scale(0.07497 -0.07497)">
       <use transform="translate(0 0.99375)" xlink:href="#ArialMT-49"/>
       <use transform="translate(55.615234 0.99375)" xlink:href="#ArialMT-48"/>
       <use transform="translate(112.972813 70.6875)scale(0.7)" xlink:href="#ArialMT-51"/>
      </g>
     </g>
    </g>
    <g id="ytick_5">
     <g id="line2d_50">
      <g>
       <use style="stroke:#000000;stroke-width:0.8;" x="31.826531" xlink:href="#m8f8a0d41f0" y="11.028156"/>
      </g>
     </g>
     <g id="text_11">
      <!-- $\mathdefault{10^{4}}$ -->
      <g transform="translate(15.556241 14.856311)scale(0.07497 -0.07497)">
       <use transform="translate(0 0.201563)" xlink:href="#ArialMT-49"/>
       <use transform="translate(55.615234 0.201563)" xlink:href="#ArialMT-48"/>
       <use transform="translate(112.972813 69.895313)scale(0.7)" xlink:href="#ArialMT-52"/>
      </g>
     </g>
    </g>
    <g id="ytick_6">
     <g id="line2d_51">
      <defs>
       <path d="M 1 0 
L -1 -0 
" id="m1a6fc7466c" style="stroke:#000000;stroke-width:0.4;"/>
      </defs>
      <g>
       <use style="stroke:#000000;stroke-width:0.4;" x="31.826531" xlink:href="#m1a6fc7466c" y="146.855841"/>
      </g>
     </g>
    </g>
    <g id="ytick_7">
     <g id="line2d_52">
      <g>
       <use style="stroke:#000000;stroke-width:0.4;" x="31.826531" xlink:href="#m1a6fc7466c" y="144.96003"/>
      </g>
     </g>
    </g>
    <g id="ytick_8">
     <g id="line2d_53">
      <g>
       <use style="stroke:#000000;stroke-width:0.4;" x="31.826531" xlink:href="#m1a6fc7466c" y="143.287805"/>
      </g>
     </g>
    </g>
    <g id="ytick_9">
     <g id="line2d_54">
      <g>
       <use style="stroke:#000000;stroke-width:0.4;" x="31.826531" xlink:href="#m1a6fc7466c" y="131.950993"/>
      </g>
     </g>
    </g>
    <g id="ytick_10">
     <g id="line2d_55">
      <g>
       <use style="stroke:#000000;stroke-width:0.4;" x="31.826531" xlink:href="#m1a6fc7466c" y="126.194403"/>
      </g>
     </g>
    </g>
    <g id="ytick_11">
     <g id="line2d_56">
      <g>
       <use style="stroke:#000000;stroke-width:0.4;" x="31.826531" xlink:href="#m1a6fc7466c" y="122.110037"/>
      </g>
     </g>
    </g>
    <g id="ytick_12">
     <g id="line2d_57">
      <g>
       <use style="stroke:#000000;stroke-width:0.4;" x="31.826531" xlink:href="#m1a6fc7466c" y="118.941957"/>
      </g>
     </g>
    </g>
    <g id="ytick_13">
     <g id="line2d_58">
      <g>
       <use style="stroke:#000000;stroke-width:0.4;" x="31.826531" xlink:href="#m1a6fc7466c" y="116.353447"/>
      </g>
     </g>
    </g>
    <g id="ytick_14">
     <g id="line2d_59">
      <g>
       <use style="stroke:#000000;stroke-width:0.4;" x="31.826531" xlink:href="#m1a6fc7466c" y="114.164893"/>
      </g>
     </g>
    </g>
    <g id="ytick_15">
     <g id="line2d_60">
      <g>
       <use style="stroke:#000000;stroke-width:0.4;" x="31.826531" xlink:href="#m1a6fc7466c" y="112.269081"/>
      </g>
     </g>
    </g>
    <g id="ytick_16">
     <g id="line2d_61">
      <g>
       <use style="stroke:#000000;stroke-width:0.4;" x="31.826531" xlink:href="#m1a6fc7466c" y="110.596857"/>
      </g>
     </g>
    </g>
    <g id="ytick_17">
     <g id="line2d_62">
      <g>
       <use style="stroke:#000000;stroke-width:0.4;" x="31.826531" xlink:href="#m1a6fc7466c" y="99.260045"/>
      </g>
     </g>
    </g>
    <g id="ytick_18">
     <g id="line2d_63">
      <g>
       <use style="stroke:#000000;stroke-width:0.4;" x="31.826531" xlink:href="#m1a6fc7466c" y="93.503455"/>
      </g>
     </g>
    </g>
    <g id="ytick_19">
     <g id="line2d_64">
      <g>
       <use style="stroke:#000000;stroke-width:0.4;" x="31.826531" xlink:href="#m1a6fc7466c" y="89.419089"/>
      </g>
     </g>
    </g>
    <g id="ytick_20">
     <g id="line2d_65">
      <g>
       <use style="stroke:#000000;stroke-width:0.4;" x="31.826531" xlink:href="#m1a6fc7466c" y="86.251009"/>
      </g>
     </g>
    </g>
    <g id="ytick_21">
     <g id="line2d_66">
      <g>
       <use style="stroke:#000000;stroke-width:0.4;" x="31.826531" xlink:href="#m1a6fc7466c" y="83.662499"/>
      </g>
     </g>
    </g>
    <g id="ytick_22">
     <g id="line2d_67">
      <g>
       <use style="stroke:#000000;stroke-width:0.4;" x="31.826531" xlink:href="#m1a6fc7466c" y="81.473945"/>
      </g>
     </g>
    </g>
    <g id="ytick_23">
     <g id="line2d_68">
      <g>
       <use style="stroke:#000000;stroke-width:0.4;" x="31.826531" xlink:href="#m1a6fc7466c" y="79.578133"/>
      </g>
     </g>
    </g>
    <g id="ytick_24">
     <g id="line2d_69">
      <g>
       <use style="stroke:#000000;stroke-width:0.4;" x="31.826531" xlink:href="#m1a6fc7466c" y="77.905908"/>
      </g>
     </g>
    </g>
    <g id="ytick_25">
     <g id="line2d_70">
      <g>
       <use style="stroke:#000000;stroke-width:0.4;" x="31.826531" xlink:href="#m1a6fc7466c" y="66.569096"/>
      </g>
     </g>
    </g>
    <g id="ytick_26">
     <g id="line2d_71">
      <g>
       <use style="stroke:#000000;stroke-width:0.4;" x="31.826531" xlink:href="#m1a6fc7466c" y="60.812506"/>
      </g>
     </g>
    </g>
    <g id="ytick_27">
     <g id="line2d_72">
      <g>
       <use style="stroke:#000000;stroke-width:0.4;" x="31.826531" xlink:href="#m1a6fc7466c" y="56.72814"/>
      </g>
     </g>
    </g>
    <g id="ytick_28">
     <g id="line2d_73">
      <g>
       <use style="stroke:#000000;stroke-width:0.4;" x="31.826531" xlink:href="#m1a6fc7466c" y="53.56006"/>
      </g>
     </g>
    </g>
    <g id="ytick_29">
     <g id="line2d_74">
      <g>
       <use style="stroke:#000000;stroke-width:0.4;" x="31.826531" xlink:href="#m1a6fc7466c" y="50.97155"/>
      </g>
     </g>
    </g>
    <g id="ytick_30">
     <g id="line2d_75">
      <g>
       <use style="stroke:#000000;stroke-width:0.4;" x="31.826531" xlink:href="#m1a6fc7466c" y="48.782996"/>
      </g>
     </g>
    </g>
    <g id="ytick_31">
     <g id="line2d_76">
      <g>
       <use style="stroke:#000000;stroke-width:0.4;" x="31.826531" xlink:href="#m1a6fc7466c" y="46.887184"/>
      </g>
     </g>
    </g>
    <g id="ytick_32">
     <g id="line2d_77">
      <g>
       <use style="stroke:#000000;stroke-width:0.4;" x="31.826531" xlink:href="#m1a6fc7466c" y="45.21496"/>
      </g>
     </g>
    </g>
    <g id="ytick_33">
     <g id="line2d_78">
      <g>
       <use style="stroke:#000000;stroke-width:0.4;" x="31.826531" xlink:href="#m1a6fc7466c" y="33.878148"/>
      </g>
     </g>
    </g>
    <g id="ytick_34">
     <g id="line2d_79">
      <g>
       <use style="stroke:#000000;stroke-width:0.4;" x="31.826531" xlink:href="#m1a6fc7466c" y="28.121558"/>
      </g>
     </g>
    </g>
    <g id="ytick_35">
     <g id="line2d_80">
      <g>
       <use style="stroke:#000000;stroke-width:0.4;" x="31.826531" xlink:href="#m1a6fc7466c" y="24.037192"/>
      </g>
     </g>
    </g>
    <g id="ytick_36">
     <g id="line2d_81">
      <g>
       <use style="stroke:#000000;stroke-width:0.4;" x="31.826531" xlink:href="#m1a6fc7466c" y="20.869112"/>
      </g>
     </g>
    </g>
    <g id="ytick_37">
     <g id="line2d_82">
      <g>
       <use style="stroke:#000000;stroke-width:0.4;" x="31.826531" xlink:href="#m1a6fc7466c" y="18.280602"/>
      </g>
     </g>
    </g>
    <g id="ytick_38">
     <g id="line2d_83">
      <g>
       <use style="stroke:#000000;stroke-width:0.4;" x="31.826531" xlink:href="#m1a6fc7466c" y="16.092048"/>
      </g>
     </g>
    </g>
    <g id="ytick_39">
     <g id="line2d_84">
      <g>
       <use style="stroke:#000000;stroke-width:0.4;" x="31.826531" xlink:href="#m1a6fc7466c" y="14.196236"/>
      </g>
     </g>
    </g>
    <g id="ytick_40">
     <g id="line2d_85">
      <g>
       <use style="stroke:#000000;stroke-width:0.4;" x="31.826531" xlink:href="#m1a6fc7466c" y="12.524011"/>
      </g>
     </g>
    </g>
    <g id="text_12">
     <!-- Clone size rank -->
     <defs>
      <path d="M 6.5 0 
L 6.5 51.859375 
L 14.40625 51.859375 
L 14.40625 44 
Q 17.4375 49.515625 20 51.265625 
Q 22.5625 53.03125 25.640625 53.03125 
Q 30.078125 53.03125 34.671875 50.203125 
L 31.640625 42.046875 
Q 28.421875 43.953125 25.203125 43.953125 
Q 22.3125 43.953125 20.015625 42.21875 
Q 17.71875 40.484375 16.75 37.40625 
Q 15.28125 32.71875 15.28125 27.15625 
L 15.28125 0 
z
" id="ArialMT-114"/>
      <path d="M 40.4375 6.390625 
Q 35.546875 2.25 31.03125 0.53125 
Q 26.515625 -1.171875 21.34375 -1.171875 
Q 12.796875 -1.171875 8.203125 3 
Q 3.609375 7.171875 3.609375 13.671875 
Q 3.609375 17.484375 5.34375 20.625 
Q 7.078125 23.78125 9.890625 25.6875 
Q 12.703125 27.59375 16.21875 28.5625 
Q 18.796875 29.25 24.03125 29.890625 
Q 34.671875 31.15625 39.703125 32.90625 
Q 39.75 34.71875 39.75 35.203125 
Q 39.75 40.578125 37.25 42.78125 
Q 33.890625 45.75 27.25 45.75 
Q 21.046875 45.75 18.09375 43.578125 
Q 15.140625 41.40625 13.71875 35.890625 
L 5.125 37.0625 
Q 6.296875 42.578125 8.984375 45.96875 
Q 11.671875 49.359375 16.75 51.1875 
Q 21.828125 53.03125 28.515625 53.03125 
Q 35.15625 53.03125 39.296875 51.46875 
Q 43.453125 49.90625 45.40625 47.53125 
Q 47.359375 45.171875 48.140625 41.546875 
Q 48.578125 39.3125 48.578125 33.453125 
L 48.578125 21.734375 
Q 48.578125 9.46875 49.140625 6.21875 
Q 49.703125 2.984375 51.375 0 
L 42.1875 0 
Q 40.828125 2.734375 40.4375 6.390625 
z
M 39.703125 26.03125 
Q 34.90625 24.078125 25.34375 22.703125 
Q 19.921875 21.921875 17.671875 20.9375 
Q 15.4375 19.96875 14.203125 18.09375 
Q 12.984375 16.21875 12.984375 13.921875 
Q 12.984375 10.40625 15.640625 8.0625 
Q 18.3125 5.71875 23.4375 5.71875 
Q 28.515625 5.71875 32.46875 7.9375 
Q 36.421875 10.15625 38.28125 14.015625 
Q 39.703125 17 39.703125 22.796875 
z
" id="ArialMT-97"/>
      <path d="M 6.640625 0 
L 6.640625 71.578125 
L 15.4375 71.578125 
L 15.4375 30.765625 
L 36.234375 51.859375 
L 47.609375 51.859375 
L 27.78125 32.625 
L 49.609375 0 
L 38.765625 0 
L 21.625 26.515625 
L 15.4375 20.5625 
L 15.4375 0 
z
" id="ArialMT-107"/>
     </defs>
     <g transform="translate(12.566212 103.978362)rotate(-90)scale(0.07497 -0.07497)">
      <use xlink:href="#ArialMT-67"/>
      <use x="72.216797" xlink:href="#ArialMT-108"/>
      <use x="94.433594" xlink:href="#ArialMT-111"/>
      <use x="150.048828" xlink:href="#ArialMT-110"/>
      <use x="205.664062" xlink:href="#ArialMT-101"/>
      <use x="261.279297" xlink:href="#ArialMT-32"/>
      <use x="289.0625" xlink:href="#ArialMT-115"/>
      <use x="339.0625" xlink:href="#ArialMT-105"/>
      <use x="361.279297" xlink:href="#ArialMT-122"/>
      <use x="411.279297" xlink:href="#ArialMT-101"/>
      <use x="466.894531" xlink:href="#ArialMT-32"/>
      <use x="494.677734" xlink:href="#ArialMT-114"/>
      <use x="527.978516" xlink:href="#ArialMT-97"/>
      <use x="583.59375" xlink:href="#ArialMT-110"/>
      <use x="639.208984" xlink:href="#ArialMT-107"/>
     </g>
    </g>
   </g>
   <g id="line2d_86">
    <path clip-path="url(#p5df61e390c)" d="M 202.796409 178.43422 
L 202.796409 141.791949 
L 170.304567 141.791949 
L 170.304567 131.950993 
L 157.779327 131.950993 
L 157.779327 126.194403 
L 156.380339 126.194403 
L 156.380339 122.110037 
L 153.053557 122.110037 
L 153.053557 118.941957 
L 150.384611 118.941957 
L 150.384611 116.353447 
L 146.28804 116.353447 
L 146.28804 114.164893 
L 145.106623 114.164893 
L 145.106623 112.269081 
L 140.746196 112.269081 
L 140.746196 110.596857 
L 140.33913 110.596857 
L 140.33913 109.101001 
L 136.687829 109.101001 
L 136.687829 107.747835 
L 135.447248 107.747835 
L 135.447248 106.512491 
L 133.386052 106.512491 
L 133.386052 105.376085 
L 133.189374 105.376085 
L 133.189374 104.323937 
L 132.481413 104.323937 
L 132.481413 103.344411 
L 130.964497 103.344411 
L 130.964497 102.428125 
L 130.386081 102.428125 
L 130.386081 101.567407 
L 129.601622 101.567407 
L 129.601622 100.755901 
L 128.906581 100.755901 
L 128.84188 99.260045 
L 128.112434 99.260045 
L 128.112434 98.567347 
L 127.630395 98.567347 
L 127.630395 97.906879 
L 125.058448 97.906879 
L 125.058448 97.275775 
L 124.893542 97.275775 
L 124.893542 96.671535 
L 124.388426 96.671535 
L 124.388426 96.091965 
L 123.866924 96.091965 
L 123.866924 95.535129 
L 123.236325 95.535129 
L 123.236325 94.99931 
L 122.770257 94.99931 
L 122.770257 94.482981 
L 122.192534 94.482981 
L 122.192534 93.984772 
L 121.694716 93.984772 
L 121.694716 93.503455 
L 121.076247 93.503455 
L 121.076247 93.037921 
L 119.76301 93.037921 
L 119.76301 92.587169 
L 119.648573 92.587169 
L 119.648573 92.150288 
L 119.182505 92.150288 
L 119.182505 91.726451 
L 118.944305 91.726451 
L 118.944305 91.314901 
L 118.457049 91.314901 
L 118.457049 90.914945 
L 118.207769 90.914945 
L 118.207769 90.525948 
L 118.081665 90.525948 
L 118.081665 89.778538 
L 117.82645 89.778538 
L 117.82645 89.419089 
L 117.035558 89.419089 
L 117.035558 88.726391 
L 116.76304 88.726391 
L 116.76304 88.392316 
L 116.625028 88.392316 
L 116.625028 88.065923 
L 116.3454 88.065923 
L 116.3454 87.746864 
L 115.624283 87.746864 
L 115.624283 87.434819 
L 114.713952 87.434819 
L 114.713952 87.129485 
L 113.913875 87.129485 
L 113.913875 86.830579 
L 113.748969 86.830579 
L 113.748969 86.537836 
L 113.243852 86.537836 
L 113.243852 85.969861 
L 112.898071 85.969861 
L 112.898071 85.694173 
L 112.183365 85.694173 
L 112.183365 85.158354 
L 111.813735 85.158354 
L 111.813735 84.897842 
L 111.435406 84.897842 
L 111.435406 84.390735 
L 111.047961 84.390735 
L 111.047961 84.143816 
L 110.850679 84.143816 
L 110.850679 83.901118 
L 110.448703 83.901118 
L 110.448703 83.662499 
L 110.036418 83.662499 
L 110.036418 82.9698 
L 109.826242 82.9698 
L 109.826242 82.746213 
L 109.397465 82.746213 
L 109.397465 82.095832 
L 108.732064 82.095832 
L 108.732064 81.885495 
L 108.272655 81.885495 
L 108.272655 81.678229 
L 107.799732 81.678229 
L 107.799732 81.272558 
L 107.312476 81.272558 
L 107.312476 81.073989 
L 107.063196 81.073989 
L 107.063196 80.494418 
L 106.025532 80.494418 
L 106.025532 80.306369 
L 105.480455 80.306369 
L 105.480455 80.120778 
L 105.200827 80.120778 
L 105.200827 79.401764 
L 104.916249 79.401764 
L 104.916249 78.885434 
L 104.626543 78.885434 
L 104.626543 78.717415 
L 104.331522 78.717415 
L 104.331522 78.064541 
L 104.030986 78.064541 
L 104.030986 77.905908 
L 103.724725 77.905908 
L 103.724725 77.593863 
L 103.412516 77.593863 
L 103.412516 77.138289 
L 103.094125 77.138289 
L 103.094125 76.69688 
L 102.769302 76.69688 
L 102.769302 76.552742 
L 102.43778 76.552742 
L 102.43778 75.990391 
L 102.099279 75.990391 
L 102.099279 75.58278 
L 101.753497 75.58278 
L 101.753497 75.317398 
L 101.400116 75.317398 
L 101.400116 75.056886 
L 101.038792 75.056886 
L 101.038792 74.928401 
L 100.669162 74.928401 
L 100.669162 74.30286 
L 99.903387 74.30286 
L 99.903387 74.060162 
L 99.506374 74.060162 
L 99.506374 73.470969 
L 99.099309 73.470969 
L 99.099309 73.356009 
L 98.681669 73.356009 
L 98.681669 73.01661 
L 98.252891 73.01661 
L 98.252891 72.685136 
L 97.812364 72.576343 
L 97.812364 72.576343 
L 97.812364 72.361225 
L 97.359427 72.361225 
L 97.359427 72.254876 
L 97.359427 71.837273 
L 96.893359 71.837273 
L 96.893359 71.734763 
L 96.893359 71.531938 
L 96.413376 71.531938 
L 96.413376 71.431602 
L 96.413376 71.33197 
L 95.918623 71.33197 
L 95.918623 71.233032 
L 95.918623 71.037202 
L 95.40816 71.037202 
L 95.40816 70.94029 
L 95.40816 70.844036 
L 94.880958 70.844036 
L 94.880958 70.748429 
L 94.880958 70.559126 
L 94.335882 70.559126 
L 94.335882 70.465413 
L 94.335882 69.648718 
L 93.771676 69.648718 
L 93.771676 69.560808 
L 93.771676 68.96022 
L 93.186949 68.96022 
L 93.186949 68.876459 
L 93.186949 68.546269 
L 92.580151 68.546269 
L 92.580151 68.464908 
L 92.580151 67.675955 
L 91.949552 67.675955 
L 91.949552 67.599419 
L 91.949552 67.297333 
L 91.293207 67.297333 
L 91.293207 67.222805 
L 91.293207 66.569096 
L 90.608924 66.569096 
L 90.608924 66.498286 
L 90.608924 65.345589 
L 89.894219 65.345589 
L 89.894219 65.280612 
L 89.894219 64.584826 
L 89.14626 64.584826 
L 89.14626 64.523232 
L 89.14626 63.344339 
L 88.361801 63.344339 
L 88.361801 63.287888 
L 88.361801 62.789679 
L 87.537096 62.789679 
L 87.537096 62.681301 
L 87.537096 62.308362 
L 86.667791 62.308362 
L 86.667791 62.203583 
L 86.667791 61.491014 
L 85.748786 61.491014 
L 85.748786 61.392076 
L 85.748786 60.301248 
L 84.774049 60.301248 
L 84.774049 60.210238 
L 84.774049 59.502428 
L 83.736385 59.502428 
L 83.736385 59.416382 
L 83.736385 58.342804 
L 82.627102 58.342804 
L 82.627102 58.263489 
L 82.627102 56.942716 
L 81.435578 56.942716 
L 81.435578 56.835023 
L 81.435578 56.001679 
L 80.148634 56.001679 
L 80.148634 55.900868 
L 80.148634 54.74387 
L 78.749646 54.74387 
L 78.749646 54.651579 
L 78.749646 53.362674 
L 77.217227 53.362674 
L 77.217227 53.278912 
L 77.217227 51.526493 
L 75.523218 51.526493 
L 75.523218 51.42841 
L 75.523218 49.532598 
L 73.629476 49.532598 
L 73.629476 49.42609 
L 73.629476 47.540893 
L 71.482529 47.540893 
L 71.482529 47.42983 
L 71.482529 45.152 
L 69.00406 45.152 
L 69.00406 45.042487 
L 69.00406 42.495596 
L 66.072654 42.495596 
L 66.072654 42.391775 
L 66.072654 39.52161 
L 62.484903 39.52161 
L 62.484903 39.416365 
L 62.484903 35.855321 
L 57.859487 35.855321 
L 57.859487 35.749642 
L 57.859487 31.265995 
L 51.34033 31.265995 
L 51.34033 31.160087 
L 51.34033 24.89303 
L 40.195756 24.89303 
L 40.195756 24.784122 
L 40.195756 14.568432 
L 40.195756 14.568432 
" style="fill:none;stroke:#006d2c;stroke-linecap:round;stroke-width:0.8;"/>
   </g>
   <g id="line2d_87">
    <path clip-path="url(#p5df61e390c)" d="M 206.383117 178.43422 
L 206.383117 141.791949 
L 155.065111 141.791949 
L 155.065111 131.950993 
L 151.56279 131.950993 
L 151.56279 126.194403 
L 149.79674 126.194403 
L 149.743822 118.941957 
L 149.584015 118.941957 
L 149.584015 116.353447 
L 147.36809 116.353447 
L 147.36809 114.164893 
L 137.042076 114.164893 
L 137.042076 112.269081 
L 132.429631 112.269081 
L 132.429631 110.596857 
L 130.793147 110.596857 
L 130.793147 109.101001 
L 128.112434 109.101001 
L 128.112434 107.747835 
L 127.205396 107.747835 
L 127.205396 106.512491 
L 126.694933 106.512491 
L 126.694933 105.376085 
L 126.013871 105.376085 
L 126.013871 104.323937 
L 125.302679 104.323937 
L 125.302679 103.344411 
L 124.473721 103.344411 
L 124.473721 102.428125 
L 122.57998 102.428125 
L 122.57998 100.755901 
L 121.388455 100.755901 
L 121.388455 99.988281 
L 121.180992 99.988281 
L 121.180992 99.260045 
L 120.542038 99.260045 
L 120.542038 98.567347 
L 120.323283 98.567347 
L 120.323283 97.906879 
L 120.101511 97.906879 
L 120.101511 97.275775 
L 119.648573 97.275775 
L 119.648573 96.671535 
L 119.182505 96.671535 
L 119.182505 96.091965 
L 119.063846 96.091965 
L 119.063846 95.535129 
L 118.823869 95.535129 
L 118.823869 94.99931 
L 118.081665 94.99931 
L 118.081665 94.482981 
L 117.303535 94.482981 
L 117.303535 93.503455 
L 116.76304 93.503455 
L 116.76304 92.587169 
L 115.771117 92.587169 
L 115.771117 92.150288 
L 114.713952 92.150288 
L 114.713952 91.726451 
L 114.398682 91.726451 
L 114.398682 91.314901 
L 114.238699 91.314901 
L 114.238699 90.914945 
L 113.913875 90.914945 
L 113.913875 90.525948 
L 113.582354 90.525948 
L 113.582354 90.147325 
L 111.999612 90.147325 
L 111.999612 89.778538 
L 111.625683 89.778538 
L 111.625683 89.419089 
L 111.435406 89.419089 
L 111.435406 89.068515 
L 111.047961 89.068515 
L 111.047961 88.726391 
L 110.850679 88.726391 
L 110.850679 88.065923 
L 109.826242 88.065923 
L 109.826242 87.746864 
L 109.613283 87.746864 
L 109.613283 87.434819 
L 109.397465 87.434819 
L 109.397465 87.129485 
L 108.956938 87.129485 
L 108.956938 86.830579 
L 108.732064 86.830579 
L 108.732064 86.251009 
L 108.504 86.251009 
L 108.504 85.423736 
L 108.272655 85.423736 
L 108.272655 85.158354 
L 108.037932 85.158354 
L 108.037932 84.897842 
L 107.799732 84.897842 
L 107.799732 84.390735 
L 107.063196 84.390735 
L 107.063196 84.143816 
L 106.809991 84.143816 
L 106.809991 83.901118 
L 106.552734 83.901118 
L 106.552734 83.427824 
L 106.291293 83.427824 
L 106.291293 82.9698 
L 106.025532 82.9698 
L 106.025532 82.526092 
L 105.755303 82.526092 
L 105.755303 82.095832 
L 105.480455 82.095832 
L 105.480455 81.473945 
L 105.200827 81.473945 
L 105.200827 81.272558 
L 104.916249 81.272558 
L 104.916249 80.684992 
L 104.626543 80.684992 
L 104.626543 80.120778 
L 104.331522 80.120778 
L 104.331522 79.937582 
L 103.724725 79.937582 
L 103.724725 79.578133 
L 103.412516 79.578133 
L 103.412516 79.227559 
L 102.769302 79.227559 
L 102.769302 79.055466 
L 102.43778 79.055466 
L 102.43778 78.885434 
L 101.753497 78.885434 
L 101.753497 78.55136 
L 101.400116 78.55136 
L 101.400116 77.749028 
L 101.038792 77.749028 
L 101.038792 77.440375 
L 100.669162 77.440375 
L 100.669162 76.842497 
L 100.290833 76.842497 
L 100.290833 76.552742 
L 99.903387 76.552742 
L 99.903387 76.128905 
L 99.506374 76.128905 
L 99.506374 75.717354 
L 99.099309 75.717354 
L 99.099309 75.186545 
L 98.681669 75.186545 
L 98.681669 75.056886 
L 98.252891 75.056886 
L 98.252891 73.940351 
L 97.812364 73.940351 
L 97.812364 73.356009 
L 97.359427 73.356009 
L 97.359427 72.685136 
L 96.893359 72.685136 
L 96.893359 72.576343 
L 96.893359 72.149318 
L 96.413376 72.149318 
L 96.413376 72.044539 
L 96.413376 71.632988 
L 95.918623 71.632988 
L 95.918623 71.531938 
L 95.918623 71.233032 
L 95.40816 71.233032 
L 95.40816 71.134779 
L 95.40816 70.748429 
L 94.880958 70.748429 
L 94.880958 70.653462 
L 94.880958 69.915764 
L 94.335882 69.915764 
L 94.335882 69.82619 
L 94.335882 69.300296 
L 93.771676 69.300296 
L 93.771676 69.21451 
L 93.771676 68.793189 
L 93.186949 68.793189 
L 93.186949 68.710404 
L 93.186949 68.384011 
L 92.580151 68.384011 
L 92.580151 68.303571 
L 92.580151 67.523293 
L 91.949552 67.523293 
L 91.949552 67.447572 
L 91.949552 67.148667 
L 91.293207 67.148667 
L 91.293207 67.074913 
L 91.293207 66.711786 
L 90.608924 66.711786 
L 90.608924 66.640262 
L 90.608924 66.218523 
L 89.894219 66.218523 
L 89.894219 66.149435 
L 89.894219 65.345589 
L 89.14626 65.345589 
L 89.14626 65.280612 
L 89.14626 64.646689 
L 88.361801 64.646689 
L 88.361801 64.584826 
L 88.361801 63.804218 
L 87.537096 63.804218 
L 87.537096 63.745912 
L 87.537096 62.84418 
L 86.667791 62.84418 
L 86.667791 62.735387 
L 86.667791 61.842828 
L 85.748786 61.842828 
L 85.748786 61.741417 
L 85.748786 60.671236 
L 84.774049 60.671236 
L 84.774049 60.577831 
L 84.774049 59.545647 
L 83.736385 59.545647 
L 83.736385 59.45934 
L 83.736385 58.502778 
L 82.627102 58.502778 
L 82.627102 58.422566 
L 82.627102 57.270786 
L 81.435578 57.270786 
L 81.435578 57.160585 
L 81.435578 56.035442 
L 80.148634 56.035442 
L 80.148634 55.934392 
L 80.148634 54.620948 
L 78.749646 54.620948 
L 78.749646 54.529449 
L 78.749646 53.251101 
L 77.217227 53.251101 
L 77.217227 53.140399 
L 77.217227 51.42841 
L 75.523218 51.42841 
L 75.523218 51.331 
L 75.523218 49.511233 
L 73.629476 49.511233 
L 73.629476 49.404884 
L 73.629476 47.411404 
L 71.482529 47.411404 
L 71.482529 47.301345 
L 71.482529 45.199194 
L 69.00406 45.199194 
L 69.00406 45.089317 
L 69.00406 42.573964 
L 66.072654 42.573964 
L 66.072654 42.46957 
L 66.072654 39.606372 
L 62.484903 39.606372 
L 62.484903 39.500499 
L 62.484903 36.027713 
L 57.859487 36.027713 
L 57.859487 35.920747 
L 57.859487 31.218827 
L 51.34033 31.218827 
L 51.34033 31.113269 
L 51.34033 24.945908 
L 40.195756 24.945908 
L 40.195756 24.836594 
L 40.195756 14.508439 
L 40.195756 14.508439 
" style="fill:none;stroke:#31a354;stroke-linecap:round;stroke-width:0.8;"/>
   </g>
   <g id="line2d_88">
    <path clip-path="url(#p5df61e390c)" d="M 207.580266 178.43422 
L 207.580266 141.791949 
L 155.241797 141.791949 
L 155.241797 131.950993 
L 141.764524 131.950993 
L 141.764524 126.194403 
L 141.203427 126.194403 
L 141.203427 122.110037 
L 140.33913 122.110037 
L 140.33913 118.941957 
L 138.349969 118.941957 
L 138.349969 116.353447 
L 136.567991 116.353447 
L 136.567991 114.164893 
L 135.913316 114.164893 
L 135.8715 110.596857 
L 134.654189 110.596857 
L 134.654189 109.101001 
L 130.964497 109.101001 
L 130.964497 107.747835 
L 130.20842 107.747835 
L 130.20842 106.512491 
L 130.028773 106.512491 
L 130.028773 105.376085 
L 128.971023 105.376085 
L 128.971023 104.323937 
L 128.776918 104.323937 
L 128.776918 103.344411 
L 127.277014 103.344411 
L 127.277014 102.428125 
L 126.694933 102.428125 
L 126.694933 101.567407 
L 126.244112 101.567407 
L 126.244112 100.755901 
L 125.701663 100.755901 
L 125.701663 99.260045 
L 122.57998 99.260045 
L 122.57998 98.567347 
L 122.094196 98.567347 
L 122.094196 97.906879 
L 121.895697 97.906879 
L 121.895697 97.275775 
L 119.989467 97.275775 
L 119.989467 96.671535 
L 119.648573 96.671535 
L 119.648573 96.091965 
L 119.417228 96.091965 
L 119.417228 95.535129 
L 118.944305 95.535129 
L 118.944305 94.99931 
L 118.207769 94.99931 
L 118.207769 94.482981 
L 118.081665 94.482981 
L 118.081665 93.984772 
L 117.954564 93.984772 
L 117.954564 93.503455 
L 117.82645 93.503455 
L 117.82645 93.037921 
L 117.567118 93.037921 
L 117.567118 92.150288 
L 117.170105 92.150288 
L 117.170105 91.726451 
L 117.035558 91.726451 
L 117.035558 91.314901 
L 115.624283 91.314901 
L 115.624283 90.525948 
L 114.869298 90.525948 
L 114.869298 89.778538 
L 114.55709 89.778538 
L 114.55709 89.419089 
L 114.398682 89.419089 
L 114.398682 89.068515 
L 113.748969 89.068515 
L 113.748969 88.392316 
L 113.243852 88.392316 
L 113.243852 88.065923 
L 112.183365 88.065923 
L 112.183365 87.746864 
L 111.813735 87.746864 
L 111.813735 86.537836 
L 111.435406 86.537836 
L 111.435406 86.251009 
L 111.242851 86.251009 
L 111.242851 85.969861 
L 111.047961 85.969861 
L 111.047961 85.694173 
L 110.650947 85.694173 
L 110.650947 85.423736 
L 110.036418 85.423736 
L 110.036418 85.158354 
L 109.826242 85.158354 
L 109.826242 84.897842 
L 109.613283 84.897842 
L 109.613283 84.642025 
L 109.397465 84.642025 
L 109.397465 84.390735 
L 109.17871 84.390735 
L 109.17871 84.143816 
L 108.956938 84.143816 
L 108.956938 83.901118 
L 108.272655 83.901118 
L 108.272655 83.662499 
L 108.037932 83.662499 
L 108.037932 83.196965 
L 107.312476 83.196965 
L 107.312476 82.526092 
L 107.063196 82.526092 
L 107.063196 82.309332 
L 106.809991 82.309332 
L 106.809991 81.885495 
L 106.552734 81.885495 
L 106.552734 81.473945 
L 106.291293 81.473945 
L 106.291293 81.272558 
L 105.755303 81.272558 
L 105.755303 81.073989 
L 105.480455 81.073989 
L 105.480455 80.878158 
L 105.200827 80.878158 
L 105.200827 80.684992 
L 104.626543 80.684992 
L 104.626543 80.494418 
L 104.331522 80.494418 
L 104.331522 79.937582 
L 104.030986 79.937582 
L 104.030986 79.578133 
L 103.724725 79.578133 
L 103.724725 79.401764 
L 103.094125 79.401764 
L 103.094125 79.227559 
L 102.769302 79.227559 
L 102.769302 78.717415 
L 102.43778 78.717415 
L 102.43778 78.387226 
L 102.099279 78.387226 
L 102.099279 77.905908 
L 101.753497 77.905908 
L 101.753497 77.593863 
L 101.400116 77.593863 
L 101.400116 76.989623 
L 101.038792 76.989623 
L 101.038792 76.552742 
L 100.669162 76.552742 
L 100.669162 76.268783 
L 100.290833 76.268783 
L 100.290833 75.853216 
L 99.903387 75.853216 
L 99.903387 75.58278 
L 99.506374 75.58278 
L 99.506374 75.056886 
L 99.099309 75.056886 
L 99.099309 74.674868 
L 98.681669 74.674868 
L 98.681669 74.549779 
L 98.252891 74.549779 
L 98.252891 74.425783 
L 97.812364 74.425783 
L 97.812364 73.70372 
L 97.359427 73.70372 
L 97.359427 73.241972 
L 96.893359 73.241972 
L 96.893359 72.905257 
L 96.413376 72.905257 
L 96.413376 72.79477 
L 96.413376 72.254876 
L 95.918623 72.254876 
L 95.918623 72.149318 
L 95.918623 71.940528 
L 95.40816 71.940528 
L 95.40816 71.837273 
L 95.40816 71.531938 
L 94.880958 71.531938 
L 94.880958 71.431602 
L 94.880958 71.134779 
L 94.335882 71.134779 
L 94.335882 71.037202 
L 94.335882 70.748429 
L 93.771676 70.748429 
L 93.771676 70.653462 
L 93.771676 70.372314 
L 93.186949 70.372314 
L 93.186949 70.279822 
L 93.186949 69.737177 
L 92.580151 69.737177 
L 92.580151 69.648718 
L 92.580151 69.12924 
L 91.949552 69.12924 
L 91.949552 69.044478 
L 91.949552 68.6281 
L 91.293207 68.6281 
L 91.293207 68.546269 
L 91.293207 68.384011 
L 90.608924 68.384011 
L 90.608924 68.303571 
L 90.608924 67.599419 
L 89.894219 67.599419 
L 89.894219 67.523293 
L 89.894219 66.855924 
L 89.14626 66.855924 
L 89.14626 66.783672 
L 89.14626 65.876398 
L 88.361801 65.876398 
L 88.361801 65.808951 
L 88.361801 65.087445 
L 87.537096 65.087445 
L 87.537096 65.023636 
L 87.537096 64.219205 
L 86.667791 64.219205 
L 86.667791 64.159174 
L 86.667791 63.344339 
L 85.748786 63.344339 
L 85.748786 63.287888 
L 85.748786 62.203583 
L 84.774049 62.203583 
L 84.774049 62.099571 
L 84.774049 61.099334 
L 83.736385 61.099334 
L 83.736385 61.003079 
L 83.736385 59.6761 
L 82.627102 59.6761 
L 82.627102 59.588998 
L 82.627102 58.342804 
L 81.435578 58.342804 
L 81.435578 58.263489 
L 81.435578 57.014968 
L 80.148634 57.014968 
L 80.148634 56.906728 
L 80.148634 55.701368 
L 78.749646 55.701368 
L 78.749646 55.60266 
L 78.749646 53.789057 
L 77.217227 53.789057 
L 77.217227 53.70275 
L 77.217227 51.74969 
L 75.523218 51.74969 
L 75.523218 51.650058 
L 75.523218 49.988869 
L 73.629476 49.988869 
L 73.629476 49.878896 
L 73.629476 47.994043 
L 71.482529 47.994043 
L 71.482529 47.898437 
L 71.482529 45.647404 
L 69.00406 45.647404 
L 69.00406 45.550161 
L 69.00406 43.053474 
L 66.072654 43.053474 
L 66.072654 42.945508 
L 66.072654 40.269876 
L 62.484903 40.269876 
L 62.484903 40.158958 
L 62.484903 36.35353 
L 57.859487 36.35353 
L 57.859487 36.244091 
L 57.859487 31.715985 
L 51.34033 31.715985 
L 51.34033 31.60668 
L 51.34033 25.170936 
L 40.195756 25.170936 
L 40.195756 25.059883 
L 40.195756 14.512068 
L 40.195756 14.512068 
" style="fill:none;stroke:#74c476;stroke-linecap:round;stroke-width:0.8;"/>
   </g>
   <g id="line2d_89">
    <path clip-path="url(#p5df61e390c)" d="M 162.145411 178.43422 
L 162.145411 141.791949 
L 148.128147 141.791949 
L 148.128147 131.950993 
L 147.551377 131.950993 
L 147.551377 126.194403 
L 147.306527 126.194403 
L 147.306527 122.110037 
L 143.780339 122.110037 
L 143.780339 118.941957 
L 142.334733 118.941957 
L 142.334733 116.353447 
L 138.948789 116.353447 
L 138.844722 112.269081 
L 136.079501 112.269081 
L 136.079501 110.596857 
L 135.532999 110.596857 
L 135.532999 109.101001 
L 134.744263 109.101001 
L 134.744263 107.747835 
L 132.009262 107.747835 
L 132.009262 106.512491 
L 130.561802 106.512491 
L 130.561802 105.376085 
L 130.028773 105.376085 
L 130.028773 104.323937 
L 129.099137 104.323937 
L 129.099137 103.344411 
L 128.711691 103.344411 
L 128.711691 102.428125 
L 128.381532 102.428125 
L 128.381532 101.567407 
L 127.560338 101.567407 
L 127.560338 100.755901 
L 127.4193 100.755901 
L 127.4193 99.988281 
L 126.842441 99.988281 
L 126.842441 99.260045 
L 124.81045 99.260045 
L 124.726927 97.906879 
L 124.388426 97.906879 
L 124.388426 96.671535 
L 123.59969 96.671535 
L 123.509616 94.99931 
L 123.327939 94.99931 
L 123.327939 94.482981 
L 121.995253 94.482981 
L 121.995253 93.984772 
L 121.694716 93.984772 
L 121.593276 93.037921 
L 119.533317 93.037921 
L 119.533317 92.587169 
L 118.702523 92.587169 
L 118.702523 92.150288 
L 118.580255 92.150288 
L 118.580255 91.726451 
L 117.954564 91.726451 
L 117.954564 91.314901 
L 117.567118 91.314901 
L 117.567118 90.914945 
L 117.435867 90.914945 
L 117.435867 90.525948 
L 117.303535 90.525948 
L 117.303535 90.147325 
L 117.035558 90.147325 
L 117.035558 89.778538 
L 116.76304 89.778538 
L 116.76304 89.068515 
L 116.485822 89.068515 
L 116.485822 88.392316 
L 115.771117 88.392316 
L 115.771117 88.065923 
L 115.624283 88.065923 
L 115.624283 87.746864 
L 115.326529 87.746864 
L 115.326529 87.434819 
L 114.398682 87.434819 
L 114.398682 86.830579 
L 113.913875 86.830579 
L 113.913875 86.537836 
L 113.071891 86.537836 
L 113.071891 86.251009 
L 112.544689 86.251009 
L 112.544689 85.694173 
L 112.183365 85.694173 
L 112.183365 85.423736 
L 111.813735 85.423736 
L 111.813735 84.642025 
L 111.242851 84.642025 
L 111.242851 84.390735 
L 110.448703 84.390735 
L 110.448703 84.143816 
L 110.243882 84.143816 
L 110.243882 83.901118 
L 110.036418 83.901118 
L 110.036418 83.662499 
L 109.826242 83.662499 
L 109.826242 83.427824 
L 109.613283 83.427824 
L 109.613283 83.196965 
L 108.956938 83.196965 
L 108.956938 82.9698 
L 108.732064 82.9698 
L 108.732064 82.746213 
L 108.504 82.746213 
L 108.504 82.526092 
L 108.272655 82.526092 
L 108.272655 82.095832 
L 107.799732 82.095832 
L 107.799732 81.885495 
L 107.312476 81.885495 
L 107.312476 81.678229 
L 106.809991 81.678229 
L 106.809991 81.473945 
L 106.552734 81.473945 
L 106.552734 81.272558 
L 106.291293 81.272558 
L 106.291293 81.073989 
L 106.025532 81.073989 
L 106.025532 80.878158 
L 105.755303 80.878158 
L 105.755303 80.684992 
L 105.480455 80.684992 
L 105.480455 80.306369 
L 104.626543 80.306369 
L 104.626543 79.937582 
L 104.331522 79.937582 
L 104.331522 79.75672 
L 104.030986 79.75672 
L 104.030986 79.578133 
L 103.724725 79.578133 
L 103.724725 79.401764 
L 103.412516 79.401764 
L 103.412516 79.227559 
L 103.094125 79.227559 
L 103.094125 79.055466 
L 102.099279 79.055466 
L 102.099279 78.55136 
L 101.753497 78.55136 
L 101.753497 78.224967 
L 101.400116 78.224967 
L 101.400116 78.064541 
L 101.038792 78.064541 
L 101.038792 77.440375 
L 100.669162 77.440375 
L 100.669162 77.288528 
L 100.290833 77.288528 
L 100.290833 76.410053 
L 99.903387 76.410053 
L 99.903387 76.268783 
L 99.506374 76.268783 
L 99.506374 75.853216 
L 99.099309 75.853216 
L 99.099309 75.58278 
L 98.681669 75.58278 
L 98.681669 75.056886 
L 98.252891 75.056886 
L 98.252891 74.060162 
L 97.812364 74.060162 
L 97.812364 73.70372 
L 97.359427 73.70372 
L 97.359427 73.241972 
L 96.893359 73.241972 
L 96.893359 72.685136 
L 96.413376 72.685136 
L 96.413376 72.576343 
L 96.413376 72.468376 
L 95.918623 72.468376 
L 95.918623 72.361225 
L 95.918623 71.940528 
L 94.880958 71.837273 
L 94.880958 71.233032 
L 94.335882 71.233032 
L 94.335882 71.134779 
L 94.335882 70.559126 
L 93.771676 70.559126 
L 93.771676 70.465413 
L 93.771676 69.473438 
L 93.186949 69.473438 
L 93.186949 69.386603 
L 93.186949 68.710404 
L 92.580151 68.710404 
L 92.580151 68.6281 
L 92.580151 67.523293 
L 91.949552 67.523293 
L 91.949552 67.447572 
L 91.949552 67.222805 
L 91.293207 67.222805 
L 91.293207 67.148667 
L 91.293207 66.640262 
L 90.608924 66.640262 
L 90.608924 66.569096 
L 90.608924 65.944167 
L 89.894219 65.944167 
L 89.894219 65.876398 
L 89.894219 65.21593 
L 89.14626 65.21593 
L 89.14626 65.151542 
L 89.14626 64.400839 
L 88.361801 64.400839 
L 88.361801 64.340036 
L 88.361801 63.23166 
L 87.537096 63.23166 
L 87.537096 63.175654 
L 87.537096 62.789679 
L 86.667791 62.789679 
L 86.667791 62.681301 
L 86.667791 61.792032 
L 85.748786 61.792032 
L 85.748786 61.690982 
L 85.748786 60.577831 
L 84.774049 60.577831 
L 84.774049 60.485037 
L 84.774049 59.330855 
L 83.736385 59.330855 
L 83.736385 59.24584 
L 83.736385 58.342804 
L 82.627102 58.342804 
L 82.627102 58.263489 
L 82.627102 56.942716 
L 81.435578 56.942716 
L 81.435578 56.835023 
L 81.435578 55.734424 
L 80.148634 55.734424 
L 80.148634 55.635486 
L 80.148634 54.19891 
L 78.749646 54.19891 
L 78.749646 54.110083 
L 78.749646 52.921551 
L 77.217227 52.921551 
L 77.217227 52.813379 
L 77.217227 51.526493 
L 75.523218 51.526493 
L 75.523218 51.42841 
L 75.523218 49.944778 
L 73.629476 49.944778 
L 73.629476 49.835144 
L 73.629476 47.634114 
L 71.482529 47.634114 
L 71.482529 47.540893 
L 71.482529 45.778107 
L 69.00406 45.778107 
L 69.00406 45.679967 
L 69.00406 42.985899 
L 66.072654 42.985899 
L 66.072654 42.878444 
L 66.072654 40.17001 
L 62.484903 40.17001 
L 62.484903 40.059866 
L 62.484903 36.13549 
L 57.859487 36.13549 
L 57.859487 36.027713 
L 57.859487 31.230605 
L 51.34033 31.230605 
L 51.34033 31.124959 
L 51.34033 24.709496 
L 40.195756 24.709496 
L 40.195756 24.601981 
L 40.195756 14.599437 
L 40.195756 14.599437 
" style="fill:none;stroke:#08519c;stroke-linecap:round;stroke-width:0.8;"/>
   </g>
   <g id="line2d_90">
    <path clip-path="url(#p5df61e390c)" d="M 167.098347 178.43422 
L 167.098347 141.791949 
L 165.496133 141.791949 
L 165.496133 131.950993 
L 155.153697 131.950993 
L 155.153697 126.194403 
L 149.021084 126.194403 
L 149.021084 122.110037 
L 147.161956 122.110037 
L 147.161956 118.941957 
L 141.851355 118.941957 
L 141.851355 116.353447 
L 141.352993 116.353447 
L 141.352993 114.164893 
L 139.888911 114.164893 
L 139.888911 112.269081 
L 137.727981 112.269081 
L 137.727981 110.596857 
L 131.848746 110.596857 
L 131.848746 109.101001 
L 131.522825 109.101001 
L 131.522825 107.747835 
L 130.14876 107.747835 
L 130.14876 106.512491 
L 129.786078 106.512491 
L 129.786078 105.376085 
L 128.906581 105.376085 
L 128.906581 104.323937 
L 127.700149 104.323937 
L 127.700149 103.344411 
L 125.302679 103.344411 
L 125.302679 102.428125 
L 124.893542 102.428125 
L 124.893542 101.567407 
L 121.491192 101.567407 
L 121.491192 100.755901 
L 120.650309 100.755901 
L 120.650309 99.988281 
L 120.212779 99.988281 
L 120.212779 99.260045 
L 120.101511 99.260045 
L 120.101511 98.567347 
L 118.823869 98.567347 
L 118.823869 97.275775 
L 118.702523 97.275775 
L 118.702523 96.671535 
L 117.303535 96.671535 
L 117.303535 96.091965 
L 117.035558 96.091965 
L 117.035558 95.535129 
L 116.625028 95.535129 
L 116.625028 94.99931 
L 116.485822 94.99931 
L 116.485822 94.482981 
L 115.771117 94.482981 
L 115.771117 93.984772 
L 115.326529 93.984772 
L 115.326529 93.503455 
L 114.869298 93.503455 
L 114.869298 93.037921 
L 114.398682 93.037921 
L 114.398682 92.587169 
L 113.913875 92.587169 
L 113.913875 91.726451 
L 113.582354 91.726451 
L 113.582354 91.314901 
L 112.544689 91.314901 
L 112.544689 90.914945 
L 112.365042 90.914945 
L 112.365042 90.525948 
L 111.047961 90.525948 
L 111.047961 90.147325 
L 110.448703 90.147325 
L 110.448703 89.778538 
L 110.243882 89.778538 
L 110.243882 89.068515 
L 109.826242 89.068515 
L 109.826242 88.392316 
L 109.397465 88.392316 
L 109.397465 87.746864 
L 109.17871 87.746864 
L 109.17871 86.830579 
L 108.956938 86.830579 
L 108.956938 86.537836 
L 108.037932 86.537836 
L 108.037932 86.251009 
L 107.312476 86.251009 
L 107.312476 85.969861 
L 106.809991 85.969861 
L 106.809991 85.423736 
L 106.552734 85.423736 
L 106.552734 84.897842 
L 106.291293 84.897842 
L 106.291293 84.390735 
L 106.025532 84.390735 
L 106.025532 83.901118 
L 105.755303 83.901118 
L 105.755303 83.196965 
L 105.480455 83.196965 
L 105.480455 82.9698 
L 105.200827 82.9698 
L 105.200827 82.309332 
L 104.916249 82.309332 
L 104.916249 82.095832 
L 104.626543 82.095832 
L 104.626543 81.678229 
L 104.331522 81.678229 
L 104.331522 81.473945 
L 104.030986 81.473945 
L 104.030986 81.272558 
L 103.724725 81.272558 
L 103.724725 80.684992 
L 103.412516 80.684992 
L 103.412516 80.494418 
L 103.094125 80.494418 
L 103.094125 79.937582 
L 102.769302 79.937582 
L 102.769302 79.75672 
L 102.43778 79.75672 
L 102.43778 79.401764 
L 102.099279 79.401764 
L 102.099279 79.055466 
L 101.753497 79.055466 
L 101.753497 78.885434 
L 101.400116 78.885434 
L 101.400116 78.224967 
L 101.038792 78.224967 
L 101.038792 77.749028 
L 100.669162 77.749028 
L 100.669162 77.593863 
L 100.290833 77.593863 
L 100.290833 77.138289 
L 99.903387 77.138289 
L 99.903387 76.69688 
L 99.506374 76.69688 
L 99.506374 76.410053 
L 99.099309 76.410053 
L 99.099309 75.58278 
L 98.681669 75.58278 
L 98.681669 74.801069 
L 98.252891 74.801069 
L 98.252891 74.30286 
L 97.812364 74.30286 
L 97.812364 74.180992 
L 97.359427 74.180992 
L 97.359427 73.470969 
L 96.893359 73.470969 
L 96.893359 72.79477 
L 96.413376 72.79477 
L 96.413376 72.685136 
L 96.413376 72.254876 
L 95.918623 72.254876 
L 95.918623 72.149318 
L 95.918623 72.044539 
L 95.40816 72.044539 
L 95.40816 71.940528 
L 95.40816 71.531938 
L 94.880958 71.531938 
L 94.880958 71.431602 
L 94.880958 71.037202 
L 94.335882 71.037202 
L 94.335882 70.94029 
L 94.335882 70.465413 
L 93.771676 70.465413 
L 93.771676 70.372314 
L 93.771676 69.82619 
L 93.186949 69.82619 
L 93.186949 69.737177 
L 93.186949 69.044478 
L 92.580151 69.044478 
L 92.580151 68.96022 
L 92.580151 68.876459 
L 91.949552 68.876459 
L 91.949552 68.793189 
L 91.949552 68.384011 
L 91.293207 68.384011 
L 91.293207 68.303571 
L 91.293207 67.675955 
L 90.608924 67.675955 
L 90.608924 67.599419 
L 90.608924 66.855924 
L 89.894219 66.855924 
L 89.894219 66.783672 
L 89.894219 66.218523 
L 89.14626 66.218523 
L 89.14626 66.149435 
L 89.14626 65.808951 
L 88.361801 65.808951 
L 88.361801 65.741824 
L 88.361801 64.960113 
L 87.537096 64.960113 
L 87.537096 64.896872 
L 87.537096 63.980586 
L 86.667791 63.980586 
L 86.667791 63.921553 
L 86.667791 63.175654 
L 85.748786 63.175654 
L 85.748786 63.119868 
L 85.748786 62.151482 
L 84.774049 62.151482 
L 84.774049 62.04785 
L 84.774049 61.441459 
L 83.736385 61.441459 
L 83.736385 61.342865 
L 83.736385 59.985233 
L 82.627102 59.985233 
L 82.627102 59.896221 
L 82.627102 58.705313 
L 81.435578 58.705313 
L 81.435578 58.623952 
L 81.435578 57.419064 
L 80.148634 57.419064 
L 80.148634 57.344731 
L 80.148634 55.934392 
L 78.749646 55.934392 
L 78.749646 55.834056 
L 78.749646 54.288297 
L 77.217227 54.288297 
L 77.217227 54.19891 
L 77.217227 52.7596 
L 75.523218 52.7596 
L 75.523218 52.652651 
L 75.523218 50.644081 
L 73.629476 50.644081 
L 73.629476 50.551889 
L 73.629476 48.621659 
L 71.482529 48.621659 
L 71.482529 48.521747 
L 71.482529 46.194486 
L 69.00406 46.194486 
L 69.00406 46.093436 
L 69.00406 43.012891 
L 66.072654 43.012891 
L 66.072654 42.905232 
L 66.072654 40.103822 
L 62.484903 40.103822 
L 62.484903 39.994188 
L 62.484903 36.3282 
L 57.859487 36.3282 
L 57.859487 36.218956 
L 57.859487 31.498209 
L 51.34033 31.498209 
L 51.34033 31.390561 
L 51.34033 25.037015 
L 40.195756 25.037015 
L 40.195756 24.927 
L 40.195756 14.497558 
L 40.195756 14.497558 
" style="fill:none;stroke:#3182bd;stroke-linecap:round;stroke-width:0.8;"/>
   </g>
   <g id="line2d_91">
    <path clip-path="url(#p5df61e390c)" d="M 149.422604 178.43422 
L 149.422604 141.791949 
L 145.798762 141.791949 
L 145.798762 131.950993 
L 145.571344 131.950993 
L 145.571344 126.194403 
L 143.180433 126.194403 
L 143.180433 122.110037 
L 142.939456 122.110037 
L 142.939456 118.941957 
L 140.96119 118.941957 
L 140.96119 116.353447 
L 135.230849 116.353447 
L 135.230849 114.164893 
L 134.472512 114.164893 
L 134.472512 112.269081 
L 132.78865 112.269081 
L 132.78865 109.101001 
L 130.14876 109.101001 
L 130.14876 107.747835 
L 126.842441 107.747835 
L 126.842441 106.512491 
L 126.013871 106.512491 
L 126.013871 105.376085 
L 125.463463 105.376085 
L 125.463463 104.323937 
L 124.302675 104.323937 
L 124.302675 103.344411 
L 122.6754 103.344411 
L 122.6754 102.428125 
L 121.491192 102.428125 
L 121.491192 101.567407 
L 121.076247 101.567407 
L 121.076247 99.988281 
L 119.76301 99.988281 
L 119.76301 99.260045 
L 119.648573 99.260045 
L 119.648573 98.567347 
L 119.533317 98.567347 
L 119.533317 97.906879 
L 119.063846 97.906879 
L 119.063846 97.275775 
L 118.332892 97.275775 
L 118.332892 96.671535 
L 117.697307 96.671535 
L 117.697307 95.535129 
L 116.625028 95.535129 
L 116.625028 94.99931 
L 116.203741 94.99931 
L 116.203741 94.482981 
L 116.060822 94.482981 
L 116.060822 93.984772 
L 115.771117 93.984772 
L 115.771117 93.503455 
L 115.624283 93.503455 
L 115.624283 93.037921 
L 115.023158 93.037921 
L 115.023158 92.587169 
L 114.077107 92.587169 
L 114.077107 91.726451 
L 113.582354 91.726451 
L 113.582354 91.314901 
L 113.243852 91.314901 
L 113.243852 90.914945 
L 113.071891 90.914945 
L 113.071891 90.525948 
L 112.898071 90.525948 
L 112.898071 90.147325 
L 112.544689 90.147325 
L 112.544689 89.419089 
L 112.365042 89.419089 
L 112.365042 89.068515 
L 111.999612 89.068515 
L 111.999612 88.392316 
L 110.650947 88.392316 
L 110.650947 88.065923 
L 110.243882 88.065923 
L 110.243882 87.746864 
L 109.826242 87.746864 
L 109.826242 87.129485 
L 109.613283 87.129485 
L 109.613283 86.830579 
L 108.956938 86.830579 
L 108.956938 85.969861 
L 108.732064 85.969861 
L 108.732064 85.694173 
L 108.504 85.694173 
L 108.504 85.158354 
L 108.037932 85.158354 
L 108.037932 84.642025 
L 107.55795 84.642025 
L 107.55795 84.390735 
L 107.312476 84.390735 
L 107.312476 84.143816 
L 106.809991 84.143816 
L 106.809991 83.662499 
L 106.552734 83.662499 
L 106.552734 83.427824 
L 106.291293 83.427824 
L 106.291293 82.9698 
L 106.025532 82.9698 
L 106.025532 82.526092 
L 105.755303 82.526092 
L 105.755303 82.095832 
L 105.480455 82.095832 
L 105.480455 81.885495 
L 105.200827 81.885495 
L 105.200827 81.272558 
L 104.916249 81.272558 
L 104.916249 81.073989 
L 104.626543 81.073989 
L 104.626543 80.494418 
L 104.331522 80.494418 
L 104.331522 80.120778 
L 104.030986 80.120778 
L 104.030986 79.937582 
L 103.724725 79.937582 
L 103.724725 79.578133 
L 103.412516 79.578133 
L 103.412516 79.401764 
L 103.094125 79.401764 
L 103.094125 79.227559 
L 102.43778 79.227559 
L 102.43778 78.55136 
L 102.099279 78.55136 
L 102.099279 78.224967 
L 101.753497 78.224967 
L 101.753497 78.064541 
L 101.400116 78.064541 
L 101.400116 77.749028 
L 101.038792 77.749028 
L 101.038792 76.989623 
L 100.669162 76.989623 
L 100.669162 76.552742 
L 100.290833 76.552742 
L 100.290833 76.268783 
L 99.903387 76.268783 
L 99.903387 76.128905 
L 99.506374 76.128905 
L 99.506374 75.717354 
L 99.099309 75.717354 
L 99.099309 75.58278 
L 98.681669 75.58278 
L 98.681669 75.186545 
L 98.252891 75.186545 
L 98.252891 75.056886 
L 97.812364 75.056886 
L 97.812364 74.801069 
L 97.359427 74.801069 
L 97.359427 74.30286 
L 96.893359 74.30286 
L 96.893359 73.70372 
L 96.413376 73.70372 
L 96.413376 73.128844 
L 95.918623 73.128844 
L 95.918623 72.468376 
L 95.40816 72.468376 
L 95.40816 72.361225 
L 95.40816 72.149318 
L 94.880958 72.149318 
L 94.880958 72.044539 
L 94.880958 71.33197 
L 94.335882 71.33197 
L 94.335882 71.233032 
L 94.335882 71.037202 
L 93.771676 71.037202 
L 93.771676 70.94029 
L 93.771676 70.372314 
L 93.186949 70.372314 
L 93.186949 70.279822 
L 93.186949 69.737177 
L 92.580151 69.737177 
L 92.580151 69.648718 
L 92.580151 68.876459 
L 91.949552 68.876459 
L 91.949552 68.793189 
L 91.949552 68.464908 
L 91.293207 68.464908 
L 91.293207 68.384011 
L 91.293207 67.830277 
L 90.608924 67.830277 
L 90.608924 67.752907 
L 90.608924 67.001541 
L 89.894219 67.001541 
L 89.894219 66.928546 
L 89.894219 66.218523 
L 89.14626 66.218523 
L 89.14626 66.149435 
L 89.14626 65.542324 
L 88.361801 65.542324 
L 88.361801 65.476442 
L 88.361801 64.896872 
L 87.537096 64.896872 
L 87.537096 64.833912 
L 87.537096 63.804218 
L 86.667791 63.804218 
L 86.667791 63.745912 
L 86.667791 62.735387 
L 85.748786 62.735387 
L 85.748786 62.62742 
L 85.748786 61.540743 
L 84.774049 61.540743 
L 84.774049 61.441459 
L 84.774049 60.164951 
L 83.736385 60.164951 
L 83.736385 60.074808 
L 83.736385 59.035503 
L 82.627102 59.035503 
L 82.627102 58.952233 
L 82.627102 57.834999 
L 81.435578 57.834999 
L 81.435578 57.758463 
L 81.435578 56.481833 
L 80.148634 56.481833 
L 80.148634 56.377567 
L 80.148634 54.71304 
L 78.749646 54.71304 
L 78.749646 54.620948 
L 78.749646 53.08537 
L 77.217227 53.08537 
L 77.217227 52.975947 
L 77.217227 51.306751 
L 75.523218 51.306751 
L 75.523218 51.210169 
L 75.523218 49.72635 
L 73.629476 49.72635 
L 73.629476 49.618384 
L 73.629476 47.690342 
L 71.482529 47.690342 
L 71.482529 47.596752 
L 71.482529 45.262364 
L 69.00406 45.262364 
L 69.00406 45.152 
L 69.00406 42.62645 
L 66.072654 42.62645 
L 66.072654 42.521671 
L 66.072654 39.30149 
L 62.484903 39.30149 
L 62.484903 39.197858 
L 62.484903 35.709205 
L 57.859487 35.709205 
L 57.859487 35.604604 
L 57.859487 30.847022 
L 51.34033 30.847022 
L 51.34033 30.738491 
L 51.34033 24.795349 
L 40.195756 24.795349 
L 40.195756 24.687185 
L 40.195756 14.512068 
L 40.195756 14.512068 
" style="fill:none;stroke:#6baed6;stroke-linecap:round;stroke-width:0.8;"/>
   </g>
   <g id="patch_3">
    <path d="M 31.826531 148.156669 
L 31.826531 8.132839 
" style="fill:none;stroke:#000000;stroke-linecap:square;stroke-linejoin:miter;"/>
   </g>
   <g id="patch_4">
    <path d="M 31.826531 148.156669 
L 215.949491 148.156669 
" style="fill:none;stroke:#000000;stroke-linecap:square;stroke-linejoin:miter;"/>
   </g>
   <g id="legend_1">
    <g id="line2d_92">
     <path d="M 170.582061 15.310209 
L 178.389561 15.310209 
" style="fill:none;stroke:#006d2c;stroke-linecap:round;stroke-width:0.8;"/>
    </g>
    <g id="line2d_93"/>
    <g id="line2d_94">
     <path d="M 170.582061 16.038909 
L 178.389561 16.038909 
" style="fill:none;stroke:#31a354;stroke-linecap:round;stroke-width:0.8;"/>
    </g>
    <g id="line2d_95"/>
    <g id="line2d_96">
     <path d="M 170.582061 16.767609 
L 178.389561 16.767609 
" style="fill:none;stroke:#74c476;stroke-linecap:round;stroke-width:0.8;"/>
    </g>
    <g id="line2d_97"/>
    <g id="text_13">
     <!-- exact -->
     <defs>
      <path d="M 0.734375 0 
L 19.671875 26.953125 
L 2.15625 51.859375 
L 13.140625 51.859375 
L 21.09375 39.703125 
Q 23.34375 36.234375 24.703125 33.890625 
Q 26.859375 37.109375 28.65625 39.59375 
L 37.40625 51.859375 
L 47.90625 51.859375 
L 29.984375 27.4375 
L 49.265625 0 
L 38.484375 0 
L 27.828125 16.109375 
L 25 20.453125 
L 11.375 0 
z
" id="ArialMT-120"/>
      <path d="M 40.4375 19 
L 49.078125 17.875 
Q 47.65625 8.9375 41.8125 3.875 
Q 35.984375 -1.171875 27.484375 -1.171875 
Q 16.84375 -1.171875 10.375 5.78125 
Q 3.90625 12.75 3.90625 25.734375 
Q 3.90625 34.125 6.6875 40.421875 
Q 9.46875 46.734375 15.15625 49.875 
Q 20.84375 53.03125 27.546875 53.03125 
Q 35.984375 53.03125 41.359375 48.75 
Q 46.734375 44.484375 48.25 36.625 
L 39.703125 35.296875 
Q 38.484375 40.53125 35.375 43.15625 
Q 32.28125 45.796875 27.875 45.796875 
Q 21.234375 45.796875 17.078125 41.03125 
Q 12.9375 36.28125 12.9375 25.984375 
Q 12.9375 15.53125 16.9375 10.796875 
Q 20.953125 6.0625 27.390625 6.0625 
Q 32.5625 6.0625 36.03125 9.234375 
Q 39.5 12.40625 40.4375 19 
z
" id="ArialMT-99"/>
      <path d="M 25.78125 7.859375 
L 27.046875 0.09375 
Q 23.34375 -0.6875 20.40625 -0.6875 
Q 15.625 -0.6875 12.984375 0.828125 
Q 10.359375 2.34375 9.28125 4.8125 
Q 8.203125 7.28125 8.203125 15.1875 
L 8.203125 45.015625 
L 1.765625 45.015625 
L 1.765625 51.859375 
L 8.203125 51.859375 
L 8.203125 64.703125 
L 16.9375 69.96875 
L 16.9375 51.859375 
L 25.78125 51.859375 
L 25.78125 45.015625 
L 16.9375 45.015625 
L 16.9375 14.703125 
Q 16.9375 10.9375 17.40625 9.859375 
Q 17.875 8.796875 18.921875 8.15625 
Q 19.96875 7.515625 21.921875 7.515625 
Q 23.390625 7.515625 25.78125 7.859375 
z
" id="ArialMT-116"/>
     </defs>
     <g transform="translate(181.512561 18.225009)scale(0.06246 -0.06246)">
      <use xlink:href="#ArialMT-101"/>
      <use x="55.615234" xlink:href="#ArialMT-120"/>
      <use x="105.615234" xlink:href="#ArialMT-97"/>
      <use x="161.230469" xlink:href="#ArialMT-99"/>
      <use x="211.230469" xlink:href="#ArialMT-116"/>
     </g>
    </g>
    <g id="line2d_98">
     <path d="M 170.582061 24.145371 
L 178.389561 24.145371 
" style="fill:none;stroke:#08519c;stroke-linecap:round;stroke-width:0.8;"/>
    </g>
    <g id="line2d_99"/>
    <g id="line2d_100">
     <path d="M 170.582061 24.874071 
L 178.389561 24.874071 
" style="fill:none;stroke:#3182bd;stroke-linecap:round;stroke-width:0.8;"/>
    </g>
    <g id="line2d_101"/>
    <g id="line2d_102">
     <path d="M 170.582061 25.602771 
L 178.389561 25.602771 
" style="fill:none;stroke:#6baed6;stroke-linecap:round;stroke-width:0.8;"/>
    </g>
    <g id="line2d_103"/>
    <g id="text_14">
     <!-- mean field -->
     <defs>
      <path d="M 6.59375 0 
L 6.59375 51.859375 
L 14.453125 51.859375 
L 14.453125 44.578125 
Q 16.890625 48.390625 20.9375 50.703125 
Q 25 53.03125 30.171875 53.03125 
Q 35.9375 53.03125 39.625 50.640625 
Q 43.3125 48.25 44.828125 43.953125 
Q 50.984375 53.03125 60.84375 53.03125 
Q 68.5625 53.03125 72.703125 48.75 
Q 76.859375 44.484375 76.859375 35.59375 
L 76.859375 0 
L 68.109375 0 
L 68.109375 32.671875 
Q 68.109375 37.9375 67.25 40.25 
Q 66.40625 42.578125 64.15625 43.984375 
Q 61.921875 45.40625 58.890625 45.40625 
Q 53.421875 45.40625 49.796875 41.765625 
Q 46.1875 38.140625 46.1875 30.125 
L 46.1875 0 
L 37.40625 0 
L 37.40625 33.6875 
Q 37.40625 39.546875 35.25 42.46875 
Q 33.109375 45.40625 28.21875 45.40625 
Q 24.515625 45.40625 21.359375 43.453125 
Q 18.21875 41.5 16.796875 37.734375 
Q 15.375 33.984375 15.375 26.90625 
L 15.375 0 
z
" id="ArialMT-109"/>
      <path d="M 8.6875 0 
L 8.6875 45.015625 
L 0.921875 45.015625 
L 0.921875 51.859375 
L 8.6875 51.859375 
L 8.6875 57.375 
Q 8.6875 62.59375 9.625 65.140625 
Q 10.890625 68.5625 14.078125 70.671875 
Q 17.28125 72.796875 23.046875 72.796875 
Q 26.765625 72.796875 31.25 71.921875 
L 29.9375 64.265625 
Q 27.203125 64.75 24.75 64.75 
Q 20.75 64.75 19.09375 63.03125 
Q 17.4375 61.328125 17.4375 56.640625 
L 17.4375 51.859375 
L 27.546875 51.859375 
L 27.546875 45.015625 
L 17.4375 45.015625 
L 17.4375 0 
z
" id="ArialMT-102"/>
      <path d="M 40.234375 0 
L 40.234375 6.546875 
Q 35.296875 -1.171875 25.734375 -1.171875 
Q 19.53125 -1.171875 14.328125 2.25 
Q 9.125 5.671875 6.265625 11.796875 
Q 3.421875 17.921875 3.421875 25.875 
Q 3.421875 33.640625 6 39.96875 
Q 8.59375 46.296875 13.765625 49.65625 
Q 18.953125 53.03125 25.34375 53.03125 
Q 30.03125 53.03125 33.6875 51.046875 
Q 37.359375 49.078125 39.65625 45.90625 
L 39.65625 71.578125 
L 48.390625 71.578125 
L 48.390625 0 
z
M 12.453125 25.875 
Q 12.453125 15.921875 16.640625 10.984375 
Q 20.84375 6.0625 26.5625 6.0625 
Q 32.328125 6.0625 36.34375 10.765625 
Q 40.375 15.484375 40.375 25.140625 
Q 40.375 35.796875 36.265625 40.765625 
Q 32.171875 45.75 26.171875 45.75 
Q 20.3125 45.75 16.375 40.96875 
Q 12.453125 36.1875 12.453125 25.875 
z
" id="ArialMT-100"/>
     </defs>
     <g transform="translate(181.512561 27.060171)scale(0.06246 -0.06246)">
      <use xlink:href="#ArialMT-109"/>
      <use x="83.300781" xlink:href="#ArialMT-101"/>
      <use x="138.916016" xlink:href="#ArialMT-97"/>
      <use x="194.53125" xlink:href="#ArialMT-110"/>
      <use x="250.146484" xlink:href="#ArialMT-32"/>
      <use x="277.929688" xlink:href="#ArialMT-102"/>
      <use x="305.712891" xlink:href="#ArialMT-105"/>
      <use x="327.929688" xlink:href="#ArialMT-101"/>
      <use x="383.544922" xlink:href="#ArialMT-108"/>
      <use x="405.761719" xlink:href="#ArialMT-100"/>
     </g>
    </g>
   </g>
  </g>
 </g>
 <defs>
  <clipPath id="p5df61e390c">
   <rect height="140.02383" width="184.12296" x="31.826531" y="8.132839"/>
  </clipPath>
 </defs>
</svg>
