<?xml version="1.0" encoding="utf-8" standalone="no"?>
<!DOCTYPE svg PUBLIC "-//W3C//DTD SVG 1.1//EN"
  "http://www.w3.org/Graphics/SVG/1.1/DTD/svg11.dtd">
<!-- Created with matplotlib (https://matplotlib.org/) -->
<svg height="198.634813pt" version="1.1" viewBox="0 0 242.371205 198.634813" width="242.371205pt" xmlns="http://www.w3.org/2000/svg" xmlns:xlink="http://www.w3.org/1999/xlink">
 <defs>
  <style type="text/css">
*{stroke-linecap:butt;stroke-linejoin:round;}
  </style>
 </defs>
 <g id="figure_1">
  <g id="patch_1">
   <path d="M 0 198.634813 
L 242.371205 198.634813 
L 242.371205 0 
L 0 0 
z
" style="fill:none;"/>
  </g>
  <g id="axes_1">
   <g id="patch_2">
    <path d="M 36.936205 171.543106 
L 235.171205 171.543106 
L 235.171205 9.883106 
L 36.936205 9.883106 
z
" style="fill:#ffffff;"/>
   </g>
   <g id="matplotlib.axis_1">
    <g id="xtick_1">
     <g id="line2d_1">
      <defs>
       <path d="M 0 2 
L 0 -2 
" id="m51c517c181" style="stroke:#000000;stroke-width:0.8;"/>
      </defs>
      <g>
       <use style="stroke:#000000;stroke-width:0.8;" x="58.819289" xlink:href="#m51c517c181" y="171.543106"/>
      </g>
     </g>
     <g id="text_1">
      <!-- 10 -->
      <defs>
       <path d="M 37.25 0 
L 28.46875 0 
L 28.46875 56 
Q 25.296875 52.984375 20.140625 49.953125 
Q 14.984375 46.921875 10.890625 45.40625 
L 10.890625 53.90625 
Q 18.265625 57.375 23.78125 62.296875 
Q 29.296875 67.234375 31.59375 71.875 
L 37.25 71.875 
z
" id="ArialMT-49"/>
       <path d="M 4.15625 35.296875 
Q 4.15625 48 6.765625 55.734375 
Q 9.375 63.484375 14.515625 67.671875 
Q 19.671875 71.875 27.484375 71.875 
Q 33.25 71.875 37.59375 69.546875 
Q 41.9375 67.234375 44.765625 62.859375 
Q 47.609375 58.5 49.21875 52.21875 
Q 50.828125 45.953125 50.828125 35.296875 
Q 50.828125 22.703125 48.234375 14.96875 
Q 45.65625 7.234375 40.5 3 
Q 35.359375 -1.21875 27.484375 -1.21875 
Q 17.140625 -1.21875 11.234375 6.203125 
Q 4.15625 15.140625 4.15625 35.296875 
z
M 13.1875 35.296875 
Q 13.1875 17.671875 17.3125 11.828125 
Q 21.4375 6 27.484375 6 
Q 33.546875 6 37.671875 11.859375 
Q 41.796875 17.71875 41.796875 35.296875 
Q 41.796875 52.984375 37.671875 58.78125 
Q 33.546875 64.59375 27.390625 64.59375 
Q 21.34375 64.59375 17.71875 59.46875 
Q 13.1875 52.9375 13.1875 35.296875 
z
" id="ArialMT-48"/>
      </defs>
      <g transform="translate(54.650254 181.409318)scale(0.07497 -0.07497)">
       <use xlink:href="#ArialMT-49"/>
       <use x="55.615234" xlink:href="#ArialMT-48"/>
      </g>
     </g>
    </g>
    <g id="xtick_2">
     <g id="line2d_2">
      <g>
       <use style="stroke:#000000;stroke-width:0.8;" x="84.564094" xlink:href="#m51c517c181" y="171.543106"/>
      </g>
     </g>
     <g id="text_2">
      <!-- 20 -->
      <defs>
       <path d="M 50.34375 8.453125 
L 50.34375 0 
L 3.03125 0 
Q 2.9375 3.171875 4.046875 6.109375 
Q 5.859375 10.9375 9.828125 15.625 
Q 13.8125 20.3125 21.34375 26.46875 
Q 33.015625 36.03125 37.109375 41.625 
Q 41.21875 47.21875 41.21875 52.203125 
Q 41.21875 57.421875 37.46875 61 
Q 33.734375 64.59375 27.734375 64.59375 
Q 21.390625 64.59375 17.578125 60.78125 
Q 13.765625 56.984375 13.71875 50.25 
L 4.6875 51.171875 
Q 5.609375 61.28125 11.65625 66.578125 
Q 17.71875 71.875 27.9375 71.875 
Q 38.234375 71.875 44.234375 66.15625 
Q 50.25 60.453125 50.25 52 
Q 50.25 47.703125 48.484375 43.546875 
Q 46.734375 39.40625 42.65625 34.8125 
Q 38.578125 30.21875 29.109375 22.21875 
Q 21.1875 15.578125 18.9375 13.203125 
Q 16.703125 10.84375 15.234375 8.453125 
z
" id="ArialMT-50"/>
      </defs>
      <g transform="translate(80.39506 181.409318)scale(0.07497 -0.07497)">
       <use xlink:href="#ArialMT-50"/>
       <use x="55.615234" xlink:href="#ArialMT-48"/>
      </g>
     </g>
    </g>
    <g id="xtick_3">
     <g id="line2d_3">
      <g>
       <use style="stroke:#000000;stroke-width:0.8;" x="110.3089" xlink:href="#m51c517c181" y="171.543106"/>
      </g>
     </g>
     <g id="text_3">
      <!-- 30 -->
      <defs>
       <path d="M 4.203125 18.890625 
L 12.984375 20.0625 
Q 14.5 12.59375 18.140625 9.296875 
Q 21.78125 6 27 6 
Q 33.203125 6 37.46875 10.296875 
Q 41.75 14.59375 41.75 20.953125 
Q 41.75 27 37.796875 30.921875 
Q 33.84375 34.859375 27.734375 34.859375 
Q 25.25 34.859375 21.53125 33.890625 
L 22.515625 41.609375 
Q 23.390625 41.5 23.921875 41.5 
Q 29.546875 41.5 34.03125 44.421875 
Q 38.53125 47.359375 38.53125 53.46875 
Q 38.53125 58.296875 35.25 61.46875 
Q 31.984375 64.65625 26.8125 64.65625 
Q 21.6875 64.65625 18.265625 61.421875 
Q 14.84375 58.203125 13.875 51.765625 
L 5.078125 53.328125 
Q 6.6875 62.15625 12.390625 67.015625 
Q 18.109375 71.875 26.609375 71.875 
Q 32.46875 71.875 37.390625 69.359375 
Q 42.328125 66.84375 44.9375 62.5 
Q 47.5625 58.15625 47.5625 53.265625 
Q 47.5625 48.640625 45.0625 44.828125 
Q 42.578125 41.015625 37.703125 38.765625 
Q 44.046875 37.3125 47.5625 32.6875 
Q 51.078125 28.078125 51.078125 21.140625 
Q 51.078125 11.765625 44.234375 5.25 
Q 37.40625 -1.265625 26.953125 -1.265625 
Q 17.53125 -1.265625 11.296875 4.34375 
Q 5.078125 9.96875 4.203125 18.890625 
z
" id="ArialMT-51"/>
      </defs>
      <g transform="translate(106.139865 181.409318)scale(0.07497 -0.07497)">
       <use xlink:href="#ArialMT-51"/>
       <use x="55.615234" xlink:href="#ArialMT-48"/>
      </g>
     </g>
    </g>
    <g id="xtick_4">
     <g id="line2d_4">
      <g>
       <use style="stroke:#000000;stroke-width:0.8;" x="136.053705" xlink:href="#m51c517c181" y="171.543106"/>
      </g>
     </g>
     <g id="text_4">
      <!-- 40 -->
      <defs>
       <path d="M 32.328125 0 
L 32.328125 17.140625 
L 1.265625 17.140625 
L 1.265625 25.203125 
L 33.9375 71.578125 
L 41.109375 71.578125 
L 41.109375 25.203125 
L 50.78125 25.203125 
L 50.78125 17.140625 
L 41.109375 17.140625 
L 41.109375 0 
z
M 32.328125 25.203125 
L 32.328125 57.46875 
L 9.90625 25.203125 
z
" id="ArialMT-52"/>
      </defs>
      <g transform="translate(131.88467 181.409318)scale(0.07497 -0.07497)">
       <use xlink:href="#ArialMT-52"/>
       <use x="55.615234" xlink:href="#ArialMT-48"/>
      </g>
     </g>
    </g>
    <g id="xtick_5">
     <g id="line2d_5">
      <g>
       <use style="stroke:#000000;stroke-width:0.8;" x="161.79851" xlink:href="#m51c517c181" y="171.543106"/>
      </g>
     </g>
     <g id="text_5">
      <!-- 50 -->
      <defs>
       <path d="M 4.15625 18.75 
L 13.375 19.53125 
Q 14.40625 12.796875 18.140625 9.390625 
Q 21.875 6 27.15625 6 
Q 33.5 6 37.890625 10.78125 
Q 42.28125 15.578125 42.28125 23.484375 
Q 42.28125 31 38.0625 35.34375 
Q 33.84375 39.703125 27 39.703125 
Q 22.75 39.703125 19.328125 37.765625 
Q 15.921875 35.84375 13.96875 32.765625 
L 5.71875 33.84375 
L 12.640625 70.609375 
L 48.25 70.609375 
L 48.25 62.203125 
L 19.671875 62.203125 
L 15.828125 42.96875 
Q 22.265625 47.46875 29.34375 47.46875 
Q 38.71875 47.46875 45.15625 40.96875 
Q 51.609375 34.46875 51.609375 24.265625 
Q 51.609375 14.546875 45.953125 7.46875 
Q 39.0625 -1.21875 27.15625 -1.21875 
Q 17.390625 -1.21875 11.203125 4.25 
Q 5.03125 9.71875 4.15625 18.75 
z
" id="ArialMT-53"/>
      </defs>
      <g transform="translate(157.629475 181.409318)scale(0.07497 -0.07497)">
       <use xlink:href="#ArialMT-53"/>
       <use x="55.615234" xlink:href="#ArialMT-48"/>
      </g>
     </g>
    </g>
    <g id="xtick_6">
     <g id="line2d_6">
      <g>
       <use style="stroke:#000000;stroke-width:0.8;" x="187.543315" xlink:href="#m51c517c181" y="171.543106"/>
      </g>
     </g>
     <g id="text_6">
      <!-- 60 -->
      <defs>
       <path d="M 49.75 54.046875 
L 41.015625 53.375 
Q 39.84375 58.546875 37.703125 60.890625 
Q 34.125 64.65625 28.90625 64.65625 
Q 24.703125 64.65625 21.53125 62.3125 
Q 17.390625 59.28125 14.984375 53.46875 
Q 12.59375 47.65625 12.5 36.921875 
Q 15.671875 41.75 20.265625 44.09375 
Q 24.859375 46.4375 29.890625 46.4375 
Q 38.671875 46.4375 44.84375 39.96875 
Q 51.03125 33.5 51.03125 23.25 
Q 51.03125 16.5 48.125 10.71875 
Q 45.21875 4.9375 40.140625 1.859375 
Q 35.0625 -1.21875 28.609375 -1.21875 
Q 17.625 -1.21875 10.6875 6.859375 
Q 3.765625 14.9375 3.765625 33.5 
Q 3.765625 54.25 11.421875 63.671875 
Q 18.109375 71.875 29.4375 71.875 
Q 37.890625 71.875 43.28125 67.140625 
Q 48.6875 62.40625 49.75 54.046875 
z
M 13.875 23.1875 
Q 13.875 18.65625 15.796875 14.5 
Q 17.71875 10.359375 21.1875 8.171875 
Q 24.65625 6 28.46875 6 
Q 34.03125 6 38.03125 10.484375 
Q 42.046875 14.984375 42.046875 22.703125 
Q 42.046875 30.125 38.078125 34.390625 
Q 34.125 38.671875 28.125 38.671875 
Q 22.171875 38.671875 18.015625 34.390625 
Q 13.875 30.125 13.875 23.1875 
z
" id="ArialMT-54"/>
      </defs>
      <g transform="translate(183.37428 181.409318)scale(0.07497 -0.07497)">
       <use xlink:href="#ArialMT-54"/>
       <use x="55.615234" xlink:href="#ArialMT-48"/>
      </g>
     </g>
    </g>
    <g id="xtick_7">
     <g id="line2d_7">
      <g>
       <use style="stroke:#000000;stroke-width:0.8;" x="213.28812" xlink:href="#m51c517c181" y="171.543106"/>
      </g>
     </g>
     <g id="text_7">
      <!-- 70 -->
      <defs>
       <path d="M 4.734375 62.203125 
L 4.734375 70.65625 
L 51.078125 70.65625 
L 51.078125 63.8125 
Q 44.234375 56.546875 37.515625 44.484375 
Q 30.8125 32.421875 27.15625 19.671875 
Q 24.515625 10.6875 23.78125 0 
L 14.75 0 
Q 14.890625 8.453125 18.0625 20.40625 
Q 21.234375 32.375 27.171875 43.484375 
Q 33.109375 54.59375 39.796875 62.203125 
z
" id="ArialMT-55"/>
      </defs>
      <g transform="translate(209.119086 181.409318)scale(0.07497 -0.07497)">
       <use xlink:href="#ArialMT-55"/>
       <use x="55.615234" xlink:href="#ArialMT-48"/>
      </g>
     </g>
    </g>
    <g id="text_8">
     <!-- Age in years (binned) -->
     <defs>
      <path d="M -0.140625 0 
L 27.34375 71.578125 
L 37.546875 71.578125 
L 66.84375 0 
L 56.0625 0 
L 47.703125 21.6875 
L 17.78125 21.6875 
L 9.90625 0 
z
M 20.515625 29.390625 
L 44.78125 29.390625 
L 37.3125 49.21875 
Q 33.890625 58.25 32.234375 64.0625 
Q 30.859375 57.171875 28.375 50.390625 
z
" id="ArialMT-65"/>
      <path d="M 4.984375 -4.296875 
L 13.53125 -5.5625 
Q 14.0625 -9.515625 16.5 -11.328125 
Q 19.78125 -13.765625 25.4375 -13.765625 
Q 31.546875 -13.765625 34.859375 -11.328125 
Q 38.1875 -8.890625 39.359375 -4.5 
Q 40.046875 -1.8125 39.984375 6.78125 
Q 34.234375 0 25.640625 0 
Q 14.9375 0 9.078125 7.71875 
Q 3.21875 15.4375 3.21875 26.21875 
Q 3.21875 33.640625 5.90625 39.90625 
Q 8.59375 46.1875 13.6875 49.609375 
Q 18.796875 53.03125 25.6875 53.03125 
Q 34.859375 53.03125 40.828125 45.609375 
L 40.828125 51.859375 
L 48.921875 51.859375 
L 48.921875 7.03125 
Q 48.921875 -5.078125 46.453125 -10.125 
Q 44 -15.1875 38.640625 -18.109375 
Q 33.296875 -21.046875 25.484375 -21.046875 
Q 16.21875 -21.046875 10.5 -16.875 
Q 4.78125 -12.703125 4.984375 -4.296875 
z
M 12.25 26.859375 
Q 12.25 16.65625 16.296875 11.96875 
Q 20.359375 7.28125 26.46875 7.28125 
Q 32.515625 7.28125 36.609375 11.9375 
Q 40.71875 16.609375 40.71875 26.5625 
Q 40.71875 36.078125 36.5 40.90625 
Q 32.28125 45.75 26.3125 45.75 
Q 20.453125 45.75 16.34375 40.984375 
Q 12.25 36.234375 12.25 26.859375 
z
" id="ArialMT-103"/>
      <path d="M 42.09375 16.703125 
L 51.171875 15.578125 
Q 49.03125 7.625 43.21875 3.21875 
Q 37.40625 -1.171875 28.375 -1.171875 
Q 17 -1.171875 10.328125 5.828125 
Q 3.65625 12.84375 3.65625 25.484375 
Q 3.65625 38.578125 10.390625 45.796875 
Q 17.140625 53.03125 27.875 53.03125 
Q 38.28125 53.03125 44.875 45.953125 
Q 51.46875 38.875 51.46875 26.03125 
Q 51.46875 25.25 51.421875 23.6875 
L 12.75 23.6875 
Q 13.234375 15.140625 17.578125 10.59375 
Q 21.921875 6.0625 28.421875 6.0625 
Q 33.25 6.0625 36.671875 8.59375 
Q 40.09375 11.140625 42.09375 16.703125 
z
M 13.234375 30.90625 
L 42.1875 30.90625 
Q 41.609375 37.453125 38.875 40.71875 
Q 34.671875 45.796875 27.984375 45.796875 
Q 21.921875 45.796875 17.796875 41.75 
Q 13.671875 37.703125 13.234375 30.90625 
z
" id="ArialMT-101"/>
      <path id="ArialMT-32"/>
      <path d="M 6.640625 61.46875 
L 6.640625 71.578125 
L 15.4375 71.578125 
L 15.4375 61.46875 
z
M 6.640625 0 
L 6.640625 51.859375 
L 15.4375 51.859375 
L 15.4375 0 
z
" id="ArialMT-105"/>
      <path d="M 6.59375 0 
L 6.59375 51.859375 
L 14.5 51.859375 
L 14.5 44.484375 
Q 20.21875 53.03125 31 53.03125 
Q 35.6875 53.03125 39.625 51.34375 
Q 43.5625 49.65625 45.515625 46.921875 
Q 47.46875 44.1875 48.25 40.4375 
Q 48.734375 37.984375 48.734375 31.890625 
L 48.734375 0 
L 39.9375 0 
L 39.9375 31.546875 
Q 39.9375 36.921875 38.90625 39.578125 
Q 37.890625 42.234375 35.28125 43.8125 
Q 32.671875 45.40625 29.15625 45.40625 
Q 23.53125 45.40625 19.453125 41.84375 
Q 15.375 38.28125 15.375 28.328125 
L 15.375 0 
z
" id="ArialMT-110"/>
      <path d="M 6.203125 -19.96875 
L 5.21875 -11.71875 
Q 8.109375 -12.5 10.25 -12.5 
Q 13.1875 -12.5 14.9375 -11.515625 
Q 16.703125 -10.546875 17.828125 -8.796875 
Q 18.65625 -7.46875 20.515625 -2.25 
Q 20.75 -1.515625 21.296875 -0.09375 
L 1.609375 51.859375 
L 11.078125 51.859375 
L 21.875 21.828125 
Q 23.96875 16.109375 25.640625 9.8125 
Q 27.15625 15.875 29.25 21.625 
L 40.328125 51.859375 
L 49.125 51.859375 
L 29.390625 -0.875 
Q 26.21875 -9.421875 24.46875 -12.640625 
Q 22.125 -17 19.09375 -19.015625 
Q 16.0625 -21.046875 11.859375 -21.046875 
Q 9.328125 -21.046875 6.203125 -19.96875 
z
" id="ArialMT-121"/>
      <path d="M 40.4375 6.390625 
Q 35.546875 2.25 31.03125 0.53125 
Q 26.515625 -1.171875 21.34375 -1.171875 
Q 12.796875 -1.171875 8.203125 3 
Q 3.609375 7.171875 3.609375 13.671875 
Q 3.609375 17.484375 5.34375 20.625 
Q 7.078125 23.78125 9.890625 25.6875 
Q 12.703125 27.59375 16.21875 28.5625 
Q 18.796875 29.25 24.03125 29.890625 
Q 34.671875 31.15625 39.703125 32.90625 
Q 39.75 34.71875 39.75 35.203125 
Q 39.75 40.578125 37.25 42.78125 
Q 33.890625 45.75 27.25 45.75 
Q 21.046875 45.75 18.09375 43.578125 
Q 15.140625 41.40625 13.71875 35.890625 
L 5.125 37.0625 
Q 6.296875 42.578125 8.984375 45.96875 
Q 11.671875 49.359375 16.75 51.1875 
Q 21.828125 53.03125 28.515625 53.03125 
Q 35.15625 53.03125 39.296875 51.46875 
Q 43.453125 49.90625 45.40625 47.53125 
Q 47.359375 45.171875 48.140625 41.546875 
Q 48.578125 39.3125 48.578125 33.453125 
L 48.578125 21.734375 
Q 48.578125 9.46875 49.140625 6.21875 
Q 49.703125 2.984375 51.375 0 
L 42.1875 0 
Q 40.828125 2.734375 40.4375 6.390625 
z
M 39.703125 26.03125 
Q 34.90625 24.078125 25.34375 22.703125 
Q 19.921875 21.921875 17.671875 20.9375 
Q 15.4375 19.96875 14.203125 18.09375 
Q 12.984375 16.21875 12.984375 13.921875 
Q 12.984375 10.40625 15.640625 8.0625 
Q 18.3125 5.71875 23.4375 5.71875 
Q 28.515625 5.71875 32.46875 7.9375 
Q 36.421875 10.15625 38.28125 14.015625 
Q 39.703125 17 39.703125 22.796875 
z
" id="ArialMT-97"/>
      <path d="M 6.5 0 
L 6.5 51.859375 
L 14.40625 51.859375 
L 14.40625 44 
Q 17.4375 49.515625 20 51.265625 
Q 22.5625 53.03125 25.640625 53.03125 
Q 30.078125 53.03125 34.671875 50.203125 
L 31.640625 42.046875 
Q 28.421875 43.953125 25.203125 43.953125 
Q 22.3125 43.953125 20.015625 42.21875 
Q 17.71875 40.484375 16.75 37.40625 
Q 15.28125 32.71875 15.28125 27.15625 
L 15.28125 0 
z
" id="ArialMT-114"/>
      <path d="M 3.078125 15.484375 
L 11.765625 16.84375 
Q 12.5 11.625 15.84375 8.84375 
Q 19.1875 6.0625 25.203125 6.0625 
Q 31.25 6.0625 34.171875 8.515625 
Q 37.109375 10.984375 37.109375 14.3125 
Q 37.109375 17.28125 34.515625 19 
Q 32.71875 20.171875 25.53125 21.96875 
Q 15.875 24.421875 12.140625 26.203125 
Q 8.40625 27.984375 6.46875 31.125 
Q 4.546875 34.28125 4.546875 38.09375 
Q 4.546875 41.546875 6.125 44.5 
Q 7.71875 47.46875 10.453125 49.421875 
Q 12.5 50.921875 16.03125 51.96875 
Q 19.578125 53.03125 23.640625 53.03125 
Q 29.734375 53.03125 34.34375 51.265625 
Q 38.96875 49.515625 41.15625 46.5 
Q 43.359375 43.5 44.1875 38.484375 
L 35.59375 37.3125 
Q 35.015625 41.3125 32.203125 43.546875 
Q 29.390625 45.796875 24.265625 45.796875 
Q 18.21875 45.796875 15.625 43.796875 
Q 13.03125 41.796875 13.03125 39.109375 
Q 13.03125 37.40625 14.109375 36.03125 
Q 15.1875 34.625 17.484375 33.6875 
Q 18.796875 33.203125 25.25 31.453125 
Q 34.578125 28.953125 38.25 27.359375 
Q 41.9375 25.78125 44.03125 22.75 
Q 46.140625 19.734375 46.140625 15.234375 
Q 46.140625 10.84375 43.578125 6.953125 
Q 41.015625 3.078125 36.171875 0.953125 
Q 31.34375 -1.171875 25.25 -1.171875 
Q 15.140625 -1.171875 9.84375 3.03125 
Q 4.546875 7.234375 3.078125 15.484375 
z
" id="ArialMT-115"/>
      <path d="M 23.390625 -21.046875 
Q 16.109375 -11.859375 11.078125 0.4375 
Q 6.0625 12.75 6.0625 25.921875 
Q 6.0625 37.546875 9.8125 48.1875 
Q 14.203125 60.546875 23.390625 72.796875 
L 29.6875 72.796875 
Q 23.78125 62.640625 21.875 58.296875 
Q 18.890625 51.5625 17.1875 44.234375 
Q 15.09375 35.109375 15.09375 25.875 
Q 15.09375 2.390625 29.6875 -21.046875 
z
" id="ArialMT-40"/>
      <path d="M 14.703125 0 
L 6.546875 0 
L 6.546875 71.578125 
L 15.328125 71.578125 
L 15.328125 46.046875 
Q 20.90625 53.03125 29.546875 53.03125 
Q 34.328125 53.03125 38.59375 51.09375 
Q 42.875 49.171875 45.625 45.671875 
Q 48.390625 42.1875 49.953125 37.25 
Q 51.515625 32.328125 51.515625 26.703125 
Q 51.515625 13.375 44.921875 6.09375 
Q 38.328125 -1.171875 29.109375 -1.171875 
Q 19.921875 -1.171875 14.703125 6.5 
z
M 14.59375 26.3125 
Q 14.59375 17 17.140625 12.84375 
Q 21.296875 6.0625 28.375 6.0625 
Q 34.125 6.0625 38.328125 11.0625 
Q 42.53125 16.0625 42.53125 25.984375 
Q 42.53125 36.140625 38.5 40.96875 
Q 34.46875 45.796875 28.765625 45.796875 
Q 23 45.796875 18.796875 40.796875 
Q 14.59375 35.796875 14.59375 26.3125 
z
" id="ArialMT-98"/>
      <path d="M 40.234375 0 
L 40.234375 6.546875 
Q 35.296875 -1.171875 25.734375 -1.171875 
Q 19.53125 -1.171875 14.328125 2.25 
Q 9.125 5.671875 6.265625 11.796875 
Q 3.421875 17.921875 3.421875 25.875 
Q 3.421875 33.640625 6 39.96875 
Q 8.59375 46.296875 13.765625 49.65625 
Q 18.953125 53.03125 25.34375 53.03125 
Q 30.03125 53.03125 33.6875 51.046875 
Q 37.359375 49.078125 39.65625 45.90625 
L 39.65625 71.578125 
L 48.390625 71.578125 
L 48.390625 0 
z
M 12.453125 25.875 
Q 12.453125 15.921875 16.640625 10.984375 
Q 20.84375 6.0625 26.5625 6.0625 
Q 32.328125 6.0625 36.34375 10.765625 
Q 40.375 15.484375 40.375 25.140625 
Q 40.375 35.796875 36.265625 40.765625 
Q 32.171875 45.75 26.171875 45.75 
Q 20.3125 45.75 16.375 40.96875 
Q 12.453125 36.1875 12.453125 25.875 
z
" id="ArialMT-100"/>
      <path d="M 12.359375 -21.046875 
L 6.0625 -21.046875 
Q 20.65625 2.390625 20.65625 25.875 
Q 20.65625 35.0625 18.5625 44.09375 
Q 16.890625 51.421875 13.921875 58.15625 
Q 12.015625 62.546875 6.0625 72.796875 
L 12.359375 72.796875 
Q 21.53125 60.546875 25.921875 48.1875 
Q 29.6875 37.546875 29.6875 25.921875 
Q 29.6875 12.75 24.625 0.4375 
Q 19.578125 -11.859375 12.359375 -21.046875 
z
" id="ArialMT-41"/>
     </defs>
     <g transform="translate(100.425384 189.856929)scale(0.07497 -0.07497)">
      <use xlink:href="#ArialMT-65"/>
      <use x="66.699219" xlink:href="#ArialMT-103"/>
      <use x="122.314453" xlink:href="#ArialMT-101"/>
      <use x="177.929688" xlink:href="#ArialMT-32"/>
      <use x="205.712891" xlink:href="#ArialMT-105"/>
      <use x="227.929688" xlink:href="#ArialMT-110"/>
      <use x="283.544922" xlink:href="#ArialMT-32"/>
      <use x="311.328125" xlink:href="#ArialMT-121"/>
      <use x="361.328125" xlink:href="#ArialMT-101"/>
      <use x="416.943359" xlink:href="#ArialMT-97"/>
      <use x="472.558594" xlink:href="#ArialMT-114"/>
      <use x="505.859375" xlink:href="#ArialMT-115"/>
      <use x="555.859375" xlink:href="#ArialMT-32"/>
      <use x="583.642578" xlink:href="#ArialMT-40"/>
      <use x="616.943359" xlink:href="#ArialMT-98"/>
      <use x="672.558594" xlink:href="#ArialMT-105"/>
      <use x="694.775391" xlink:href="#ArialMT-110"/>
      <use x="750.390625" xlink:href="#ArialMT-110"/>
      <use x="806.005859" xlink:href="#ArialMT-101"/>
      <use x="861.621094" xlink:href="#ArialMT-100"/>
      <use x="917.236328" xlink:href="#ArialMT-41"/>
     </g>
    </g>
   </g>
   <g id="matplotlib.axis_2">
    <g id="ytick_1">
     <g id="line2d_8">
      <defs>
       <path d="M 2 0 
L -2 -0 
" id="mf28fe7a4d0" style="stroke:#000000;stroke-width:0.8;"/>
      </defs>
      <g>
       <use style="stroke:#000000;stroke-width:0.8;" x="36.936205" xlink:href="#mf28fe7a4d0" y="171.543106"/>
      </g>
     </g>
     <g id="text_9">
      <!-- 0.00 -->
      <defs>
       <path d="M 9.078125 0 
L 9.078125 10.015625 
L 19.09375 10.015625 
L 19.09375 0 
z
" id="ArialMT-46"/>
      </defs>
      <g transform="translate(17.84634 174.226212)scale(0.07497 -0.07497)">
       <use xlink:href="#ArialMT-48"/>
       <use x="55.615234" xlink:href="#ArialMT-46"/>
       <use x="83.398438" xlink:href="#ArialMT-48"/>
       <use x="139.013672" xlink:href="#ArialMT-48"/>
      </g>
     </g>
    </g>
    <g id="ytick_2">
     <g id="line2d_9">
      <g>
       <use style="stroke:#000000;stroke-width:0.8;" x="36.936205" xlink:href="#mf28fe7a4d0" y="153.580884"/>
      </g>
     </g>
     <g id="text_10">
      <!-- 0.02 -->
      <g transform="translate(17.84634 156.26399)scale(0.07497 -0.07497)">
       <use xlink:href="#ArialMT-48"/>
       <use x="55.615234" xlink:href="#ArialMT-46"/>
       <use x="83.398438" xlink:href="#ArialMT-48"/>
       <use x="139.013672" xlink:href="#ArialMT-50"/>
      </g>
     </g>
    </g>
    <g id="ytick_3">
     <g id="line2d_10">
      <g>
       <use style="stroke:#000000;stroke-width:0.8;" x="36.936205" xlink:href="#mf28fe7a4d0" y="135.618662"/>
      </g>
     </g>
     <g id="text_11">
      <!-- 0.04 -->
      <g transform="translate(17.84634 138.301768)scale(0.07497 -0.07497)">
       <use xlink:href="#ArialMT-48"/>
       <use x="55.615234" xlink:href="#ArialMT-46"/>
       <use x="83.398438" xlink:href="#ArialMT-48"/>
       <use x="139.013672" xlink:href="#ArialMT-52"/>
      </g>
     </g>
    </g>
    <g id="ytick_4">
     <g id="line2d_11">
      <g>
       <use style="stroke:#000000;stroke-width:0.8;" x="36.936205" xlink:href="#mf28fe7a4d0" y="117.656439"/>
      </g>
     </g>
     <g id="text_12">
      <!-- 0.06 -->
      <g transform="translate(17.84634 120.339545)scale(0.07497 -0.07497)">
       <use xlink:href="#ArialMT-48"/>
       <use x="55.615234" xlink:href="#ArialMT-46"/>
       <use x="83.398438" xlink:href="#ArialMT-48"/>
       <use x="139.013672" xlink:href="#ArialMT-54"/>
      </g>
     </g>
    </g>
    <g id="ytick_5">
     <g id="line2d_12">
      <g>
       <use style="stroke:#000000;stroke-width:0.8;" x="36.936205" xlink:href="#mf28fe7a4d0" y="99.694217"/>
      </g>
     </g>
     <g id="text_13">
      <!-- 0.08 -->
      <defs>
       <path d="M 17.671875 38.8125 
Q 12.203125 40.828125 9.5625 44.53125 
Q 6.9375 48.25 6.9375 53.421875 
Q 6.9375 61.234375 12.546875 66.546875 
Q 18.171875 71.875 27.484375 71.875 
Q 36.859375 71.875 42.578125 66.421875 
Q 48.296875 60.984375 48.296875 53.171875 
Q 48.296875 48.1875 45.671875 44.5 
Q 43.0625 40.828125 37.75 38.8125 
Q 44.34375 36.671875 47.78125 31.875 
Q 51.21875 27.09375 51.21875 20.453125 
Q 51.21875 11.28125 44.71875 5.03125 
Q 38.234375 -1.21875 27.640625 -1.21875 
Q 17.046875 -1.21875 10.546875 5.046875 
Q 4.046875 11.328125 4.046875 20.703125 
Q 4.046875 27.6875 7.59375 32.390625 
Q 11.140625 37.109375 17.671875 38.8125 
z
M 15.921875 53.71875 
Q 15.921875 48.640625 19.1875 45.40625 
Q 22.46875 42.1875 27.6875 42.1875 
Q 32.765625 42.1875 36.015625 45.375 
Q 39.265625 48.578125 39.265625 53.21875 
Q 39.265625 58.0625 35.90625 61.359375 
Q 32.5625 64.65625 27.59375 64.65625 
Q 22.5625 64.65625 19.234375 61.421875 
Q 15.921875 58.203125 15.921875 53.71875 
z
M 13.09375 20.65625 
Q 13.09375 16.890625 14.875 13.375 
Q 16.65625 9.859375 20.171875 7.921875 
Q 23.6875 6 27.734375 6 
Q 34.03125 6 38.125 10.046875 
Q 42.234375 14.109375 42.234375 20.359375 
Q 42.234375 26.703125 38.015625 30.859375 
Q 33.796875 35.015625 27.4375 35.015625 
Q 21.234375 35.015625 17.15625 30.90625 
Q 13.09375 26.8125 13.09375 20.65625 
z
" id="ArialMT-56"/>
      </defs>
      <g transform="translate(17.84634 102.377323)scale(0.07497 -0.07497)">
       <use xlink:href="#ArialMT-48"/>
       <use x="55.615234" xlink:href="#ArialMT-46"/>
       <use x="83.398438" xlink:href="#ArialMT-48"/>
       <use x="139.013672" xlink:href="#ArialMT-56"/>
      </g>
     </g>
    </g>
    <g id="ytick_6">
     <g id="line2d_13">
      <g>
       <use style="stroke:#000000;stroke-width:0.8;" x="36.936205" xlink:href="#mf28fe7a4d0" y="81.731995"/>
      </g>
     </g>
     <g id="text_14">
      <!-- 0.10 -->
      <g transform="translate(17.84634 84.415101)scale(0.07497 -0.07497)">
       <use xlink:href="#ArialMT-48"/>
       <use x="55.615234" xlink:href="#ArialMT-46"/>
       <use x="83.398438" xlink:href="#ArialMT-49"/>
       <use x="139.013672" xlink:href="#ArialMT-48"/>
      </g>
     </g>
    </g>
    <g id="ytick_7">
     <g id="line2d_14">
      <g>
       <use style="stroke:#000000;stroke-width:0.8;" x="36.936205" xlink:href="#mf28fe7a4d0" y="63.769773"/>
      </g>
     </g>
     <g id="text_15">
      <!-- 0.12 -->
      <g transform="translate(17.84634 66.452879)scale(0.07497 -0.07497)">
       <use xlink:href="#ArialMT-48"/>
       <use x="55.615234" xlink:href="#ArialMT-46"/>
       <use x="83.398438" xlink:href="#ArialMT-49"/>
       <use x="139.013672" xlink:href="#ArialMT-50"/>
      </g>
     </g>
    </g>
    <g id="ytick_8">
     <g id="line2d_15">
      <g>
       <use style="stroke:#000000;stroke-width:0.8;" x="36.936205" xlink:href="#mf28fe7a4d0" y="45.80755"/>
      </g>
     </g>
     <g id="text_16">
      <!-- 0.14 -->
      <g transform="translate(17.84634 48.490656)scale(0.07497 -0.07497)">
       <use xlink:href="#ArialMT-48"/>
       <use x="55.615234" xlink:href="#ArialMT-46"/>
       <use x="83.398438" xlink:href="#ArialMT-49"/>
       <use x="139.013672" xlink:href="#ArialMT-52"/>
      </g>
     </g>
    </g>
    <g id="ytick_9">
     <g id="line2d_16">
      <g>
       <use style="stroke:#000000;stroke-width:0.8;" x="36.936205" xlink:href="#mf28fe7a4d0" y="27.845328"/>
      </g>
     </g>
     <g id="text_17">
      <!-- 0.16 -->
      <g transform="translate(17.84634 30.528434)scale(0.07497 -0.07497)">
       <use xlink:href="#ArialMT-48"/>
       <use x="55.615234" xlink:href="#ArialMT-46"/>
       <use x="83.398438" xlink:href="#ArialMT-49"/>
       <use x="139.013672" xlink:href="#ArialMT-54"/>
      </g>
     </g>
    </g>
    <g id="ytick_10">
     <g id="line2d_17">
      <g>
       <use style="stroke:#000000;stroke-width:0.8;" x="36.936205" xlink:href="#mf28fe7a4d0" y="9.883106"/>
      </g>
     </g>
     <g id="text_18">
      <!-- 0.18 -->
      <g transform="translate(17.84634 12.566212)scale(0.07497 -0.07497)">
       <use xlink:href="#ArialMT-48"/>
       <use x="55.615234" xlink:href="#ArialMT-46"/>
       <use x="83.398438" xlink:href="#ArialMT-49"/>
       <use x="139.013672" xlink:href="#ArialMT-56"/>
      </g>
     </g>
    </g>
    <g id="text_19">
     <!-- Fraction with $P_{gen}(\sigma)&gt;10^{-9}$ -->
     <defs>
      <path d="M 8.203125 0 
L 8.203125 71.578125 
L 56.5 71.578125 
L 56.5 63.140625 
L 17.671875 63.140625 
L 17.671875 40.96875 
L 51.265625 40.96875 
L 51.265625 32.515625 
L 17.671875 32.515625 
L 17.671875 0 
z
" id="ArialMT-70"/>
      <path d="M 40.4375 19 
L 49.078125 17.875 
Q 47.65625 8.9375 41.8125 3.875 
Q 35.984375 -1.171875 27.484375 -1.171875 
Q 16.84375 -1.171875 10.375 5.78125 
Q 3.90625 12.75 3.90625 25.734375 
Q 3.90625 34.125 6.6875 40.421875 
Q 9.46875 46.734375 15.15625 49.875 
Q 20.84375 53.03125 27.546875 53.03125 
Q 35.984375 53.03125 41.359375 48.75 
Q 46.734375 44.484375 48.25 36.625 
L 39.703125 35.296875 
Q 38.484375 40.53125 35.375 43.15625 
Q 32.28125 45.796875 27.875 45.796875 
Q 21.234375 45.796875 17.078125 41.03125 
Q 12.9375 36.28125 12.9375 25.984375 
Q 12.9375 15.53125 16.9375 10.796875 
Q 20.953125 6.0625 27.390625 6.0625 
Q 32.5625 6.0625 36.03125 9.234375 
Q 39.5 12.40625 40.4375 19 
z
" id="ArialMT-99"/>
      <path d="M 25.78125 7.859375 
L 27.046875 0.09375 
Q 23.34375 -0.6875 20.40625 -0.6875 
Q 15.625 -0.6875 12.984375 0.828125 
Q 10.359375 2.34375 9.28125 4.8125 
Q 8.203125 7.28125 8.203125 15.1875 
L 8.203125 45.015625 
L 1.765625 45.015625 
L 1.765625 51.859375 
L 8.203125 51.859375 
L 8.203125 64.703125 
L 16.9375 69.96875 
L 16.9375 51.859375 
L 25.78125 51.859375 
L 25.78125 45.015625 
L 16.9375 45.015625 
L 16.9375 14.703125 
Q 16.9375 10.9375 17.40625 9.859375 
Q 17.875 8.796875 18.921875 8.15625 
Q 19.96875 7.515625 21.921875 7.515625 
Q 23.390625 7.515625 25.78125 7.859375 
z
" id="ArialMT-116"/>
      <path d="M 3.328125 25.921875 
Q 3.328125 40.328125 11.328125 47.265625 
Q 18.015625 53.03125 27.640625 53.03125 
Q 38.328125 53.03125 45.109375 46.015625 
Q 51.90625 39.015625 51.90625 26.65625 
Q 51.90625 16.65625 48.90625 10.90625 
Q 45.90625 5.171875 40.15625 2 
Q 34.421875 -1.171875 27.640625 -1.171875 
Q 16.75 -1.171875 10.03125 5.8125 
Q 3.328125 12.796875 3.328125 25.921875 
z
M 12.359375 25.921875 
Q 12.359375 15.96875 16.703125 11.015625 
Q 21.046875 6.0625 27.640625 6.0625 
Q 34.1875 6.0625 38.53125 11.03125 
Q 42.875 16.015625 42.875 26.21875 
Q 42.875 35.84375 38.5 40.796875 
Q 34.125 45.75 27.640625 45.75 
Q 21.046875 45.75 16.703125 40.8125 
Q 12.359375 35.890625 12.359375 25.921875 
z
" id="ArialMT-111"/>
      <path d="M 16.15625 0 
L 0.296875 51.859375 
L 9.375 51.859375 
L 17.625 21.921875 
L 20.703125 10.796875 
Q 20.90625 11.625 23.390625 21.484375 
L 31.640625 51.859375 
L 40.671875 51.859375 
L 48.4375 21.78125 
L 51.03125 11.859375 
L 54 21.875 
L 62.890625 51.859375 
L 71.4375 51.859375 
L 55.21875 0 
L 46.09375 0 
L 37.84375 31.0625 
L 35.84375 39.890625 
L 25.34375 0 
z
" id="ArialMT-119"/>
      <path d="M 6.59375 0 
L 6.59375 71.578125 
L 15.375 71.578125 
L 15.375 45.90625 
Q 21.53125 53.03125 30.90625 53.03125 
Q 36.671875 53.03125 40.921875 50.75 
Q 45.171875 48.484375 47 44.484375 
Q 48.828125 40.484375 48.828125 32.859375 
L 48.828125 0 
L 40.046875 0 
L 40.046875 32.859375 
Q 40.046875 39.453125 37.1875 42.453125 
Q 34.328125 45.453125 29.109375 45.453125 
Q 25.203125 45.453125 21.75 43.421875 
Q 18.3125 41.40625 16.84375 37.9375 
Q 15.375 34.46875 15.375 28.375 
L 15.375 0 
z
" id="ArialMT-104"/>
      <path d="M 16.890625 72.90625 
L 39.703125 72.90625 
Q 49.65625 72.90625 54.875 68.265625 
Q 60.109375 63.625 60.109375 54.6875 
Q 60.109375 42.671875 52.390625 35.984375 
Q 44.671875 29.296875 30.71875 29.296875 
L 18.3125 29.296875 
L 12.59375 0 
L 2.6875 0 
z
M 25.203125 64.796875 
L 19.921875 37.40625 
L 32.328125 37.40625 
Q 40.71875 37.40625 45.203125 41.703125 
Q 49.703125 46 49.703125 54 
Q 49.703125 59.125 46.65625 61.953125 
Q 43.609375 64.796875 38.09375 64.796875 
z
" id="DejaVuSans-Oblique-80"/>
      <path d="M 59.625 54.6875 
L 50.296875 6.78125 
Q 47.609375 -7.125 40.015625 -13.953125 
Q 32.421875 -20.796875 19.578125 -20.796875 
Q 14.84375 -20.796875 10.78125 -20.09375 
Q 6.734375 -19.390625 3.21875 -17.921875 
L 4.890625 -9.1875 
Q 8.203125 -11.328125 11.90625 -12.34375 
Q 15.625 -13.375 19.828125 -13.375 
Q 28.375 -13.375 33.859375 -8.703125 
Q 39.359375 -4.046875 41.109375 4.6875 
L 41.890625 8.796875 
Q 38.140625 4.5 33.15625 2.25 
Q 28.171875 0 22.40625 0 
Q 14.109375 0 9.34375 5.484375 
Q 4.59375 10.984375 4.59375 20.609375 
Q 4.59375 28.171875 7.46875 35.421875 
Q 10.359375 42.671875 15.578125 48.296875 
Q 19.046875 52 23.65625 54 
Q 28.265625 56 33.296875 56 
Q 38.8125 56 42.90625 53.4375 
Q 47.015625 50.875 49.03125 46.1875 
L 50.59375 54.6875 
z
M 46.09375 34.625 
Q 46.09375 41.265625 42.96875 44.875 
Q 39.84375 48.484375 34.078125 48.484375 
Q 30.515625 48.484375 27.296875 47.0625 
Q 24.078125 45.65625 21.78125 43.109375 
Q 18.0625 38.921875 15.984375 33.234375 
Q 13.921875 27.546875 13.921875 21.484375 
Q 13.921875 14.75 17.0625 11.125 
Q 20.21875 7.515625 26.125 7.515625 
Q 34.671875 7.515625 40.375 15.25 
Q 46.09375 23 46.09375 34.625 
z
" id="DejaVuSans-Oblique-103"/>
      <path d="M 48.09375 32.234375 
Q 48.25 33.015625 48.3125 33.84375 
Q 48.390625 34.671875 48.390625 35.5 
Q 48.390625 41.453125 44.890625 44.921875 
Q 41.40625 48.390625 35.40625 48.390625 
Q 28.71875 48.390625 23.578125 44.15625 
Q 18.453125 39.9375 15.828125 32.171875 
z
M 55.90625 25.203125 
L 14.109375 25.203125 
Q 13.8125 23.34375 13.71875 22.265625 
Q 13.625 21.1875 13.625 20.40625 
Q 13.625 13.625 17.796875 9.90625 
Q 21.96875 6.203125 29.59375 6.203125 
Q 35.453125 6.203125 40.671875 7.515625 
Q 45.90625 8.84375 50.390625 11.375 
L 48.6875 2.484375 
Q 43.84375 0.53125 38.6875 -0.4375 
Q 33.546875 -1.421875 28.21875 -1.421875 
Q 16.84375 -1.421875 10.71875 4.015625 
Q 4.59375 9.46875 4.59375 19.484375 
Q 4.59375 28.03125 7.640625 35.375 
Q 10.6875 42.71875 16.609375 48.484375 
Q 20.40625 52.09375 25.65625 54.046875 
Q 30.90625 56 36.8125 56 
Q 46.09375 56 51.578125 50.4375 
Q 57.078125 44.875 57.078125 35.5 
Q 57.078125 33.25 56.78125 30.6875 
Q 56.5 28.125 55.90625 25.203125 
z
" id="DejaVuSans-Oblique-101"/>
      <path d="M 55.71875 33.015625 
L 49.3125 0 
L 40.28125 0 
L 46.6875 32.671875 
Q 47.125 34.96875 47.359375 36.71875 
Q 47.609375 38.484375 47.609375 39.5 
Q 47.609375 43.609375 45.015625 45.890625 
Q 42.4375 48.1875 37.796875 48.1875 
Q 30.5625 48.1875 25.34375 43.375 
Q 20.125 38.578125 18.5 30.328125 
L 12.5 0 
L 3.515625 0 
L 14.109375 54.6875 
L 23.09375 54.6875 
L 21.296875 46.09375 
Q 25.046875 50.828125 30.3125 53.40625 
Q 35.59375 56 41.40625 56 
Q 48.640625 56 52.609375 52.09375 
Q 56.59375 48.1875 56.59375 41.109375 
Q 56.59375 39.359375 56.375 37.359375 
Q 56.15625 35.359375 55.71875 33.015625 
z
" id="DejaVuSans-Oblique-110"/>
      <path d="M 31 75.875 
Q 24.46875 64.65625 21.28125 53.65625 
Q 18.109375 42.671875 18.109375 31.390625 
Q 18.109375 20.125 21.3125 9.0625 
Q 24.515625 -2 31 -13.1875 
L 23.1875 -13.1875 
Q 15.875 -1.703125 12.234375 9.375 
Q 8.59375 20.453125 8.59375 31.390625 
Q 8.59375 42.28125 12.203125 53.3125 
Q 15.828125 64.359375 23.1875 75.875 
z
" id="DejaVuSans-40"/>
      <path d="M 34.671875 47.5625 
Q 27.25 47.5625 22.21875 42.1875 
Q 16.890625 36.578125 15.140625 27.296875 
Q 13.1875 17.484375 16.3125 11.8125 
Q 19.390625 6.203125 26.65625 6.203125 
Q 33.84375 6.203125 39.109375 11.859375 
Q 44.4375 17.53125 46.34375 27.296875 
Q 48.046875 36.234375 45.015625 42.1875 
Q 42.1875 47.5625 34.671875 47.5625 
z
M 36.078125 54.734375 
L 65.921875 54.6875 
L 64.15625 45.703125 
L 54.109375 45.703125 
Q 57.90625 38.09375 55.859375 27.296875 
Q 53.21875 13.875 45.0625 6.25 
Q 36.859375 -1.421875 25.140625 -1.421875 
Q 13.375 -1.421875 8.203125 6.25 
Q 3.03125 13.875 5.671875 27.296875 
Q 8.25 40.765625 16.40625 48.390625 
Q 23.1875 54.734375 36.078125 54.734375 
z
" id="DejaVuSans-Oblique-963"/>
      <path d="M 8.015625 75.875 
L 15.828125 75.875 
Q 23.140625 64.359375 26.78125 53.3125 
Q 30.421875 42.28125 30.421875 31.390625 
Q 30.421875 20.453125 26.78125 9.375 
Q 23.140625 -1.703125 15.828125 -13.1875 
L 8.015625 -13.1875 
Q 14.5 -2 17.703125 9.0625 
Q 20.90625 20.125 20.90625 31.390625 
Q 20.90625 42.671875 17.703125 53.65625 
Q 14.5 64.65625 8.015625 75.875 
z
" id="DejaVuSans-41"/>
      <path d="M 10.59375 49.21875 
L 10.59375 58.109375 
L 73.1875 35.40625 
L 73.1875 27.296875 
L 10.59375 4.59375 
L 10.59375 13.484375 
L 60.890625 31.296875 
z
" id="DejaVuSans-62"/>
      <path d="M 12.40625 8.296875 
L 28.515625 8.296875 
L 28.515625 63.921875 
L 10.984375 60.40625 
L 10.984375 69.390625 
L 28.421875 72.90625 
L 38.28125 72.90625 
L 38.28125 8.296875 
L 54.390625 8.296875 
L 54.390625 0 
L 12.40625 0 
z
" id="DejaVuSans-49"/>
      <path d="M 31.78125 66.40625 
Q 24.171875 66.40625 20.328125 58.90625 
Q 16.5 51.421875 16.5 36.375 
Q 16.5 21.390625 20.328125 13.890625 
Q 24.171875 6.390625 31.78125 6.390625 
Q 39.453125 6.390625 43.28125 13.890625 
Q 47.125 21.390625 47.125 36.375 
Q 47.125 51.421875 43.28125 58.90625 
Q 39.453125 66.40625 31.78125 66.40625 
z
M 31.78125 74.21875 
Q 44.046875 74.21875 50.515625 64.515625 
Q 56.984375 54.828125 56.984375 36.375 
Q 56.984375 17.96875 50.515625 8.265625 
Q 44.046875 -1.421875 31.78125 -1.421875 
Q 19.53125 -1.421875 13.0625 8.265625 
Q 6.59375 17.96875 6.59375 36.375 
Q 6.59375 54.828125 13.0625 64.515625 
Q 19.53125 74.21875 31.78125 74.21875 
z
" id="DejaVuSans-48"/>
      <path d="M 10.59375 35.5 
L 73.1875 35.5 
L 73.1875 27.203125 
L 10.59375 27.203125 
z
" id="DejaVuSans-8722"/>
      <path d="M 10.984375 1.515625 
L 10.984375 10.5 
Q 14.703125 8.734375 18.5 7.8125 
Q 22.3125 6.890625 25.984375 6.890625 
Q 35.75 6.890625 40.890625 13.453125 
Q 46.046875 20.015625 46.78125 33.40625 
Q 43.953125 29.203125 39.59375 26.953125 
Q 35.25 24.703125 29.984375 24.703125 
Q 19.046875 24.703125 12.671875 31.3125 
Q 6.296875 37.9375 6.296875 49.421875 
Q 6.296875 60.640625 12.9375 67.421875 
Q 19.578125 74.21875 30.609375 74.21875 
Q 43.265625 74.21875 49.921875 64.515625 
Q 56.59375 54.828125 56.59375 36.375 
Q 56.59375 19.140625 48.40625 8.859375 
Q 40.234375 -1.421875 26.421875 -1.421875 
Q 22.703125 -1.421875 18.890625 -0.6875 
Q 15.09375 0.046875 10.984375 1.515625 
z
M 30.609375 32.421875 
Q 37.25 32.421875 41.125 36.953125 
Q 45.015625 41.5 45.015625 49.421875 
Q 45.015625 57.28125 41.125 61.84375 
Q 37.25 66.40625 30.609375 66.40625 
Q 23.96875 66.40625 20.09375 61.84375 
Q 16.21875 57.28125 16.21875 49.421875 
Q 16.21875 41.5 20.09375 36.953125 
Q 23.96875 32.421875 30.609375 32.421875 
z
" id="DejaVuSans-57"/>
     </defs>
     <g transform="translate(14.02227 138.993786)rotate(-90)scale(0.07497 -0.07497)">
      <use transform="translate(0 0.765625)" xlink:href="#ArialMT-70"/>
      <use transform="translate(61.083984 0.765625)" xlink:href="#ArialMT-114"/>
      <use transform="translate(94.384766 0.765625)" xlink:href="#ArialMT-97"/>
      <use transform="translate(150 0.765625)" xlink:href="#ArialMT-99"/>
      <use transform="translate(200 0.765625)" xlink:href="#ArialMT-116"/>
      <use transform="translate(227.783203 0.765625)" xlink:href="#ArialMT-105"/>
      <use transform="translate(250 0.765625)" xlink:href="#ArialMT-111"/>
      <use transform="translate(305.615234 0.765625)" xlink:href="#ArialMT-110"/>
      <use transform="translate(361.230469 0.765625)" xlink:href="#ArialMT-32"/>
      <use transform="translate(389.013672 0.765625)" xlink:href="#ArialMT-119"/>
      <use transform="translate(461.230469 0.765625)" xlink:href="#ArialMT-105"/>
      <use transform="translate(483.447266 0.765625)" xlink:href="#ArialMT-116"/>
      <use transform="translate(511.230469 0.765625)" xlink:href="#ArialMT-104"/>
      <use transform="translate(566.845703 0.765625)" xlink:href="#ArialMT-32"/>
      <use transform="translate(594.628906 0.765625)" xlink:href="#DejaVuSans-Oblique-80"/>
      <use transform="translate(654.931641 -15.640625)scale(0.7)" xlink:href="#DejaVuSans-Oblique-103"/>
      <use transform="translate(699.365234 -15.640625)scale(0.7)" xlink:href="#DejaVuSans-Oblique-101"/>
      <use transform="translate(742.431641 -15.640625)scale(0.7)" xlink:href="#DejaVuSans-Oblique-110"/>
      <use transform="translate(789.53125 0.765625)" xlink:href="#DejaVuSans-40"/>
      <use transform="translate(828.544922 0.765625)" xlink:href="#DejaVuSans-Oblique-963"/>
      <use transform="translate(891.923828 0.765625)" xlink:href="#DejaVuSans-41"/>
      <use transform="translate(950.419922 0.765625)" xlink:href="#DejaVuSans-62"/>
      <use transform="translate(1053.691406 0.765625)" xlink:href="#DejaVuSans-49"/>
      <use transform="translate(1117.314453 0.765625)" xlink:href="#DejaVuSans-48"/>
      <use transform="translate(1181.894531 39.046875)scale(0.7)" xlink:href="#DejaVuSans-8722"/>
      <use transform="translate(1240.546875 39.046875)scale(0.7)" xlink:href="#DejaVuSans-57"/>
     </g>
    </g>
   </g>
   <g id="PolyCollection_1">
    <path clip-path="url(#p79ce6860a0)" d="M 45.946887 49.421771 
L 45.946887 63.914773 
L 71.691692 68.512045 
L 97.436497 61.330555 
L 123.181302 61.228678 
L 148.926107 64.65036 
L 174.670913 61.425819 
L 200.415718 75.679787 
L 226.160523 78.59924 
L 226.160523 61.287271 
L 226.160523 61.287271 
L 200.415718 65.797134 
L 174.670913 55.029732 
L 148.926107 59.780475 
L 123.181302 56.845376 
L 97.436497 56.690239 
L 71.691692 56.370508 
L 45.946887 49.421771 
z
" style="fill:#472d7b;fill-opacity:0.5;"/>
   </g>
   <g id="PolyCollection_2">
    <path clip-path="url(#p79ce6860a0)" d="M 45.946887 39.649395 
L 45.946887 56.397943 
L 71.691692 57.93634 
L 97.436497 59.653828 
L 123.181302 63.343203 
L 148.926107 61.554063 
L 174.670913 65.978774 
L 200.415718 67.583039 
L 226.160523 70.249733 
L 226.160523 53.705963 
L 226.160523 53.705963 
L 200.415718 59.430056 
L 174.670913 61.890065 
L 148.926107 57.817182 
L 123.181302 60.026003 
L 97.436497 55.84064 
L 71.691692 50.251967 
L 45.946887 39.649395 
z
" style="fill:#3b528b;fill-opacity:0.5;"/>
   </g>
   <g id="PolyCollection_3">
    <path clip-path="url(#p79ce6860a0)" d="M 45.946887 26.439116 
L 45.946887 47.383341 
L 71.691692 65.696998 
L 97.436497 64.626999 
L 123.181302 63.879324 
L 148.926107 65.893797 
L 174.670913 66.737051 
L 200.415718 68.671909 
L 226.160523 68.265494 
L 226.160523 44.33436 
L 226.160523 44.33436 
L 200.415718 62.810785 
L 174.670913 62.598259 
L 148.926107 62.82121 
L 123.181302 60.822016 
L 97.436497 61.935388 
L 71.691692 59.401737 
L 45.946887 26.439116 
z
" style="fill:#2c728e;fill-opacity:0.5;"/>
   </g>
   <g id="PolyCollection_4">
    <path clip-path="url(#p79ce6860a0)" d="M 45.946887 28.485347 
L 45.946887 48.373279 
L 71.691692 66.141852 
L 97.436497 70.155432 
L 123.181302 71.592344 
L 148.926107 71.335526 
L 174.670913 73.811413 
L 200.415718 75.080373 
L 226.160523 65.795793 
L 226.160523 62.703663 
L 226.160523 62.703663 
L 200.415718 67.521249 
L 174.670913 70.644507 
L 148.926107 68.992488 
L 123.181302 69.319101 
L 97.436497 68.010766 
L 71.691692 60.401927 
L 45.946887 28.485347 
z
" style="fill:#21918c;fill-opacity:0.5;"/>
   </g>
   <g id="PolyCollection_5">
    <path clip-path="url(#p79ce6860a0)" d="M 45.946887 34.044038 
L 45.946887 46.820241 
L 71.691692 60.662857 
L 97.436497 67.864055 
L 123.181302 72.413529 
L 148.926107 75.731847 
L 174.670913 77.804776 
L 200.415718 77.743155 
L 226.160523 75.528781 
L 226.160523 64.336717 
L 226.160523 64.336717 
L 200.415718 72.958504 
L 174.670913 75.189898 
L 148.926107 73.61238 
L 123.181302 70.292729 
L 97.436497 65.917052 
L 71.691692 54.489229 
L 45.946887 34.044038 
z
" style="fill:#27ad81;fill-opacity:0.5;"/>
   </g>
   <g id="PolyCollection_6">
    <path clip-path="url(#p79ce6860a0)" d="M 45.946887 44.67122 
L 45.946887 53.510138 
L 71.691692 58.829221 
L 97.436497 62.027703 
L 123.181302 67.528158 
L 148.926107 70.480641 
L 174.670913 72.889542 
L 200.415718 76.777109 
L 226.160523 72.863999 
L 226.160523 66.296365 
L 226.160523 66.296365 
L 200.415718 71.786481 
L 174.670913 70.278745 
L 148.926107 68.257003 
L 123.181302 65.394564 
L 97.436497 59.76282 
L 71.691692 52.724176 
L 45.946887 44.67122 
z
" style="fill:#5cc863;fill-opacity:0.5;"/>
   </g>
   <g id="PolyCollection_7">
    <path clip-path="url(#p79ce6860a0)" d="M 45.946887 61.368215 
L 45.946887 69.63436 
L 71.691692 69.710958 
L 97.436497 66.30693 
L 123.181302 68.066519 
L 148.926107 70.889179 
L 174.670913 73.170535 
L 200.415718 75.246553 
L 226.160523 75.045679 
L 226.160523 65.884577 
L 226.160523 65.884577 
L 200.415718 70.618483 
L 174.670913 71.089033 
L 148.926107 68.952379 
L 123.181302 65.782827 
L 97.436497 63.500871 
L 71.691692 63.343299 
L 45.946887 61.368215 
z
" style="fill:#aadc32;fill-opacity:0.5;"/>
   </g>
   <g id="PolyCollection_8">
    <path clip-path="url(#p79ce6860a0)" d="M 45.946887 68.437933 
L 45.946887 72.956505 
L 71.691692 75.276925 
L 97.436497 74.298342 
L 123.181302 75.501712 
L 148.926107 76.80896 
L 174.670913 78.130321 
L 200.415718 79.312976 
L 226.160523 80.09702 
L 226.160523 76.493982 
L 226.160523 76.493982 
L 200.415718 76.046866 
L 174.670913 76.468792 
L 148.926107 75.478386 
L 123.181302 73.50676 
L 97.436497 71.968705 
L 71.691692 70.131441 
L 45.946887 68.437933 
z
" style="fill:#fde725;fill-opacity:0.5;"/>
   </g>
   <g id="line2d_18">
    <path clip-path="url(#p79ce6860a0)" d="M 45.946887 56.668272 
L 71.691692 62.441276 
L 97.436497 59.010397 
L 123.181302 59.037027 
L 148.926107 62.215418 
L 174.670913 58.227775 
L 200.415718 70.73846 
L 226.160523 69.943255 
" style="fill:none;stroke:#472d7b;stroke-linecap:round;stroke-width:1.3;"/>
    <defs>
     <path d="M 0 1.25 
C 0.331504 1.25 0.649475 1.118292 0.883883 0.883883 
C 1.118292 0.649475 1.25 0.331504 1.25 0 
C 1.25 -0.331504 1.118292 -0.649475 0.883883 -0.883883 
C 0.649475 -1.118292 0.331504 -1.25 0 -1.25 
C -0.331504 -1.25 -0.649475 -1.118292 -0.883883 -0.883883 
C -1.118292 -0.649475 -1.25 -0.331504 -1.25 0 
C -1.25 0.331504 -1.118292 0.649475 -0.883883 0.883883 
C -0.649475 1.118292 -0.331504 1.25 0 1.25 
z
" id="m916fbd1750" style="stroke:#472d7b;stroke-width:0.8;"/>
    </defs>
    <g clip-path="url(#p79ce6860a0)">
     <use style="fill:#472d7b;stroke:#472d7b;stroke-width:0.8;" x="45.946887" xlink:href="#m916fbd1750" y="56.668272"/>
     <use style="fill:#472d7b;stroke:#472d7b;stroke-width:0.8;" x="71.691692" xlink:href="#m916fbd1750" y="62.441276"/>
     <use style="fill:#472d7b;stroke:#472d7b;stroke-width:0.8;" x="97.436497" xlink:href="#m916fbd1750" y="59.010397"/>
     <use style="fill:#472d7b;stroke:#472d7b;stroke-width:0.8;" x="123.181302" xlink:href="#m916fbd1750" y="59.037027"/>
     <use style="fill:#472d7b;stroke:#472d7b;stroke-width:0.8;" x="148.926107" xlink:href="#m916fbd1750" y="62.215418"/>
     <use style="fill:#472d7b;stroke:#472d7b;stroke-width:0.8;" x="174.670913" xlink:href="#m916fbd1750" y="58.227775"/>
     <use style="fill:#472d7b;stroke:#472d7b;stroke-width:0.8;" x="200.415718" xlink:href="#m916fbd1750" y="70.73846"/>
     <use style="fill:#472d7b;stroke:#472d7b;stroke-width:0.8;" x="226.160523" xlink:href="#m916fbd1750" y="69.943255"/>
    </g>
   </g>
   <g id="line2d_19">
    <path clip-path="url(#p79ce6860a0)" d="M 45.946887 48.023669 
L 71.691692 54.094153 
L 97.436497 57.747234 
L 123.181302 61.684603 
L 148.926107 59.685622 
L 174.670913 63.934419 
L 200.415718 63.506548 
L 226.160523 61.977848 
" style="fill:none;stroke:#3b528b;stroke-linecap:round;stroke-width:1.3;"/>
    <defs>
     <path d="M 0 1.25 
C 0.331504 1.25 0.649475 1.118292 0.883883 0.883883 
C 1.118292 0.649475 1.25 0.331504 1.25 0 
C 1.25 -0.331504 1.118292 -0.649475 0.883883 -0.883883 
C 0.649475 -1.118292 0.331504 -1.25 0 -1.25 
C -0.331504 -1.25 -0.649475 -1.118292 -0.883883 -0.883883 
C -1.118292 -0.649475 -1.25 -0.331504 -1.25 0 
C -1.25 0.331504 -1.118292 0.649475 -0.883883 0.883883 
C -0.649475 1.118292 -0.331504 1.25 0 1.25 
z
" id="md9ef2ecce2" style="stroke:#3b528b;stroke-width:0.8;"/>
    </defs>
    <g clip-path="url(#p79ce6860a0)">
     <use style="fill:#3b528b;stroke:#3b528b;stroke-width:0.8;" x="45.946887" xlink:href="#md9ef2ecce2" y="48.023669"/>
     <use style="fill:#3b528b;stroke:#3b528b;stroke-width:0.8;" x="71.691692" xlink:href="#md9ef2ecce2" y="54.094153"/>
     <use style="fill:#3b528b;stroke:#3b528b;stroke-width:0.8;" x="97.436497" xlink:href="#md9ef2ecce2" y="57.747234"/>
     <use style="fill:#3b528b;stroke:#3b528b;stroke-width:0.8;" x="123.181302" xlink:href="#md9ef2ecce2" y="61.684603"/>
     <use style="fill:#3b528b;stroke:#3b528b;stroke-width:0.8;" x="148.926107" xlink:href="#md9ef2ecce2" y="59.685622"/>
     <use style="fill:#3b528b;stroke:#3b528b;stroke-width:0.8;" x="174.670913" xlink:href="#md9ef2ecce2" y="63.934419"/>
     <use style="fill:#3b528b;stroke:#3b528b;stroke-width:0.8;" x="200.415718" xlink:href="#md9ef2ecce2" y="63.506548"/>
     <use style="fill:#3b528b;stroke:#3b528b;stroke-width:0.8;" x="226.160523" xlink:href="#md9ef2ecce2" y="61.977848"/>
    </g>
   </g>
   <g id="line2d_20">
    <path clip-path="url(#p79ce6860a0)" d="M 45.946887 36.911229 
L 71.691692 62.549367 
L 97.436497 63.281193 
L 123.181302 62.35067 
L 148.926107 64.357504 
L 174.670913 64.667655 
L 200.415718 65.741347 
L 226.160523 56.299927 
" style="fill:none;stroke:#2c728e;stroke-linecap:round;stroke-width:1.3;"/>
    <defs>
     <path d="M 0 1.25 
C 0.331504 1.25 0.649475 1.118292 0.883883 0.883883 
C 1.118292 0.649475 1.25 0.331504 1.25 0 
C 1.25 -0.331504 1.118292 -0.649475 0.883883 -0.883883 
C 0.649475 -1.118292 0.331504 -1.25 0 -1.25 
C -0.331504 -1.25 -0.649475 -1.118292 -0.883883 -0.883883 
C -1.118292 -0.649475 -1.25 -0.331504 -1.25 0 
C -1.25 0.331504 -1.118292 0.649475 -0.883883 0.883883 
C -0.649475 1.118292 -0.331504 1.25 0 1.25 
z
" id="mab8381931f" style="stroke:#2c728e;stroke-width:0.8;"/>
    </defs>
    <g clip-path="url(#p79ce6860a0)">
     <use style="fill:#2c728e;stroke:#2c728e;stroke-width:0.8;" x="45.946887" xlink:href="#mab8381931f" y="36.911229"/>
     <use style="fill:#2c728e;stroke:#2c728e;stroke-width:0.8;" x="71.691692" xlink:href="#mab8381931f" y="62.549367"/>
     <use style="fill:#2c728e;stroke:#2c728e;stroke-width:0.8;" x="97.436497" xlink:href="#mab8381931f" y="63.281193"/>
     <use style="fill:#2c728e;stroke:#2c728e;stroke-width:0.8;" x="123.181302" xlink:href="#mab8381931f" y="62.35067"/>
     <use style="fill:#2c728e;stroke:#2c728e;stroke-width:0.8;" x="148.926107" xlink:href="#mab8381931f" y="64.357504"/>
     <use style="fill:#2c728e;stroke:#2c728e;stroke-width:0.8;" x="174.670913" xlink:href="#mab8381931f" y="64.667655"/>
     <use style="fill:#2c728e;stroke:#2c728e;stroke-width:0.8;" x="200.415718" xlink:href="#mab8381931f" y="65.741347"/>
     <use style="fill:#2c728e;stroke:#2c728e;stroke-width:0.8;" x="226.160523" xlink:href="#mab8381931f" y="56.299927"/>
    </g>
   </g>
   <g id="line2d_21">
    <path clip-path="url(#p79ce6860a0)" d="M 45.946887 38.429313 
L 71.691692 63.271889 
L 97.436497 69.083099 
L 123.181302 70.455723 
L 148.926107 70.164007 
L 174.670913 72.22796 
L 200.415718 71.300811 
L 226.160523 64.249728 
" style="fill:none;stroke:#21918c;stroke-linecap:round;stroke-width:1.3;"/>
    <defs>
     <path d="M 0 1.25 
C 0.331504 1.25 0.649475 1.118292 0.883883 0.883883 
C 1.118292 0.649475 1.25 0.331504 1.25 0 
C 1.25 -0.331504 1.118292 -0.649475 0.883883 -0.883883 
C 0.649475 -1.118292 0.331504 -1.25 0 -1.25 
C -0.331504 -1.25 -0.649475 -1.118292 -0.883883 -0.883883 
C -1.118292 -0.649475 -1.25 -0.331504 -1.25 0 
C -1.25 0.331504 -1.118292 0.649475 -0.883883 0.883883 
C -0.649475 1.118292 -0.331504 1.25 0 1.25 
z
" id="m750d6ee65d" style="stroke:#21918c;stroke-width:0.8;"/>
    </defs>
    <g clip-path="url(#p79ce6860a0)">
     <use style="fill:#21918c;stroke:#21918c;stroke-width:0.8;" x="45.946887" xlink:href="#m750d6ee65d" y="38.429313"/>
     <use style="fill:#21918c;stroke:#21918c;stroke-width:0.8;" x="71.691692" xlink:href="#m750d6ee65d" y="63.271889"/>
     <use style="fill:#21918c;stroke:#21918c;stroke-width:0.8;" x="97.436497" xlink:href="#m750d6ee65d" y="69.083099"/>
     <use style="fill:#21918c;stroke:#21918c;stroke-width:0.8;" x="123.181302" xlink:href="#m750d6ee65d" y="70.455723"/>
     <use style="fill:#21918c;stroke:#21918c;stroke-width:0.8;" x="148.926107" xlink:href="#m750d6ee65d" y="70.164007"/>
     <use style="fill:#21918c;stroke:#21918c;stroke-width:0.8;" x="174.670913" xlink:href="#m750d6ee65d" y="72.22796"/>
     <use style="fill:#21918c;stroke:#21918c;stroke-width:0.8;" x="200.415718" xlink:href="#m750d6ee65d" y="71.300811"/>
     <use style="fill:#21918c;stroke:#21918c;stroke-width:0.8;" x="226.160523" xlink:href="#m750d6ee65d" y="64.249728"/>
    </g>
   </g>
   <g id="line2d_22">
    <path clip-path="url(#p79ce6860a0)" d="M 45.946887 40.432139 
L 71.691692 57.576043 
L 97.436497 66.890554 
L 123.181302 71.353129 
L 148.926107 74.672113 
L 174.670913 76.497337 
L 200.415718 75.35083 
L 226.160523 69.932749 
" style="fill:none;stroke:#27ad81;stroke-linecap:round;stroke-width:1.3;"/>
    <defs>
     <path d="M 0 1.25 
C 0.331504 1.25 0.649475 1.118292 0.883883 0.883883 
C 1.118292 0.649475 1.25 0.331504 1.25 0 
C 1.25 -0.331504 1.118292 -0.649475 0.883883 -0.883883 
C 0.649475 -1.118292 0.331504 -1.25 0 -1.25 
C -0.331504 -1.25 -0.649475 -1.118292 -0.883883 -0.883883 
C -1.118292 -0.649475 -1.25 -0.331504 -1.25 0 
C -1.25 0.331504 -1.118292 0.649475 -0.883883 0.883883 
C -0.649475 1.118292 -0.331504 1.25 0 1.25 
z
" id="mcd0bac8f8e" style="stroke:#27ad81;stroke-width:0.8;"/>
    </defs>
    <g clip-path="url(#p79ce6860a0)">
     <use style="fill:#27ad81;stroke:#27ad81;stroke-width:0.8;" x="45.946887" xlink:href="#mcd0bac8f8e" y="40.432139"/>
     <use style="fill:#27ad81;stroke:#27ad81;stroke-width:0.8;" x="71.691692" xlink:href="#mcd0bac8f8e" y="57.576043"/>
     <use style="fill:#27ad81;stroke:#27ad81;stroke-width:0.8;" x="97.436497" xlink:href="#mcd0bac8f8e" y="66.890554"/>
     <use style="fill:#27ad81;stroke:#27ad81;stroke-width:0.8;" x="123.181302" xlink:href="#mcd0bac8f8e" y="71.353129"/>
     <use style="fill:#27ad81;stroke:#27ad81;stroke-width:0.8;" x="148.926107" xlink:href="#mcd0bac8f8e" y="74.672113"/>
     <use style="fill:#27ad81;stroke:#27ad81;stroke-width:0.8;" x="174.670913" xlink:href="#mcd0bac8f8e" y="76.497337"/>
     <use style="fill:#27ad81;stroke:#27ad81;stroke-width:0.8;" x="200.415718" xlink:href="#mcd0bac8f8e" y="75.35083"/>
     <use style="fill:#27ad81;stroke:#27ad81;stroke-width:0.8;" x="226.160523" xlink:href="#mcd0bac8f8e" y="69.932749"/>
    </g>
   </g>
   <g id="line2d_23">
    <path clip-path="url(#p79ce6860a0)" d="M 45.946887 49.090679 
L 71.691692 55.776698 
L 97.436497 60.895261 
L 123.181302 66.461361 
L 148.926107 69.368822 
L 174.670913 71.584144 
L 200.415718 74.281795 
L 226.160523 69.580182 
" style="fill:none;stroke:#5cc863;stroke-linecap:round;stroke-width:1.3;"/>
    <defs>
     <path d="M 0 1.25 
C 0.331504 1.25 0.649475 1.118292 0.883883 0.883883 
C 1.118292 0.649475 1.25 0.331504 1.25 0 
C 1.25 -0.331504 1.118292 -0.649475 0.883883 -0.883883 
C 0.649475 -1.118292 0.331504 -1.25 0 -1.25 
C -0.331504 -1.25 -0.649475 -1.118292 -0.883883 -0.883883 
C -1.118292 -0.649475 -1.25 -0.331504 -1.25 0 
C -1.25 0.331504 -1.118292 0.649475 -0.883883 0.883883 
C -0.649475 1.118292 -0.331504 1.25 0 1.25 
z
" id="mff43e54d41" style="stroke:#5cc863;stroke-width:0.8;"/>
    </defs>
    <g clip-path="url(#p79ce6860a0)">
     <use style="fill:#5cc863;stroke:#5cc863;stroke-width:0.8;" x="45.946887" xlink:href="#mff43e54d41" y="49.090679"/>
     <use style="fill:#5cc863;stroke:#5cc863;stroke-width:0.8;" x="71.691692" xlink:href="#mff43e54d41" y="55.776698"/>
     <use style="fill:#5cc863;stroke:#5cc863;stroke-width:0.8;" x="97.436497" xlink:href="#mff43e54d41" y="60.895261"/>
     <use style="fill:#5cc863;stroke:#5cc863;stroke-width:0.8;" x="123.181302" xlink:href="#mff43e54d41" y="66.461361"/>
     <use style="fill:#5cc863;stroke:#5cc863;stroke-width:0.8;" x="148.926107" xlink:href="#mff43e54d41" y="69.368822"/>
     <use style="fill:#5cc863;stroke:#5cc863;stroke-width:0.8;" x="174.670913" xlink:href="#mff43e54d41" y="71.584144"/>
     <use style="fill:#5cc863;stroke:#5cc863;stroke-width:0.8;" x="200.415718" xlink:href="#mff43e54d41" y="74.281795"/>
     <use style="fill:#5cc863;stroke:#5cc863;stroke-width:0.8;" x="226.160523" xlink:href="#mff43e54d41" y="69.580182"/>
    </g>
   </g>
   <g id="line2d_24">
    <path clip-path="url(#p79ce6860a0)" d="M 45.946887 65.501287 
L 71.691692 66.527128 
L 97.436497 64.903901 
L 123.181302 66.924673 
L 148.926107 69.920779 
L 174.670913 72.129784 
L 200.415718 72.932518 
L 226.160523 70.465128 
" style="fill:none;stroke:#aadc32;stroke-linecap:round;stroke-width:1.3;"/>
    <defs>
     <path d="M 0 1.25 
C 0.331504 1.25 0.649475 1.118292 0.883883 0.883883 
C 1.118292 0.649475 1.25 0.331504 1.25 0 
C 1.25 -0.331504 1.118292 -0.649475 0.883883 -0.883883 
C 0.649475 -1.118292 0.331504 -1.25 0 -1.25 
C -0.331504 -1.25 -0.649475 -1.118292 -0.883883 -0.883883 
C -1.118292 -0.649475 -1.25 -0.331504 -1.25 0 
C -1.25 0.331504 -1.118292 0.649475 -0.883883 0.883883 
C -0.649475 1.118292 -0.331504 1.25 0 1.25 
z
" id="m79afad5cb8" style="stroke:#aadc32;stroke-width:0.8;"/>
    </defs>
    <g clip-path="url(#p79ce6860a0)">
     <use style="fill:#aadc32;stroke:#aadc32;stroke-width:0.8;" x="45.946887" xlink:href="#m79afad5cb8" y="65.501287"/>
     <use style="fill:#aadc32;stroke:#aadc32;stroke-width:0.8;" x="71.691692" xlink:href="#m79afad5cb8" y="66.527128"/>
     <use style="fill:#aadc32;stroke:#aadc32;stroke-width:0.8;" x="97.436497" xlink:href="#m79afad5cb8" y="64.903901"/>
     <use style="fill:#aadc32;stroke:#aadc32;stroke-width:0.8;" x="123.181302" xlink:href="#m79afad5cb8" y="66.924673"/>
     <use style="fill:#aadc32;stroke:#aadc32;stroke-width:0.8;" x="148.926107" xlink:href="#m79afad5cb8" y="69.920779"/>
     <use style="fill:#aadc32;stroke:#aadc32;stroke-width:0.8;" x="174.670913" xlink:href="#m79afad5cb8" y="72.129784"/>
     <use style="fill:#aadc32;stroke:#aadc32;stroke-width:0.8;" x="200.415718" xlink:href="#m79afad5cb8" y="72.932518"/>
     <use style="fill:#aadc32;stroke:#aadc32;stroke-width:0.8;" x="226.160523" xlink:href="#m79afad5cb8" y="70.465128"/>
    </g>
   </g>
   <g id="line2d_25">
    <path clip-path="url(#p79ce6860a0)" d="M 45.946887 70.697219 
L 71.691692 72.704183 
L 97.436497 73.133524 
L 123.181302 74.504236 
L 148.926107 76.143673 
L 174.670913 77.299557 
L 200.415718 77.679921 
L 226.160523 78.295501 
" style="fill:none;stroke:#fde725;stroke-linecap:round;stroke-width:1.3;"/>
    <defs>
     <path d="M 0 1.25 
C 0.331504 1.25 0.649475 1.118292 0.883883 0.883883 
C 1.118292 0.649475 1.25 0.331504 1.25 0 
C 1.25 -0.331504 1.118292 -0.649475 0.883883 -0.883883 
C 0.649475 -1.118292 0.331504 -1.25 0 -1.25 
C -0.331504 -1.25 -0.649475 -1.118292 -0.883883 -0.883883 
C -1.118292 -0.649475 -1.25 -0.331504 -1.25 0 
C -1.25 0.331504 -1.118292 0.649475 -0.883883 0.883883 
C -0.649475 1.118292 -0.331504 1.25 0 1.25 
z
" id="md43f93009e" style="stroke:#fde725;stroke-width:0.8;"/>
    </defs>
    <g clip-path="url(#p79ce6860a0)">
     <use style="fill:#fde725;stroke:#fde725;stroke-width:0.8;" x="45.946887" xlink:href="#md43f93009e" y="70.697219"/>
     <use style="fill:#fde725;stroke:#fde725;stroke-width:0.8;" x="71.691692" xlink:href="#md43f93009e" y="72.704183"/>
     <use style="fill:#fde725;stroke:#fde725;stroke-width:0.8;" x="97.436497" xlink:href="#md43f93009e" y="73.133524"/>
     <use style="fill:#fde725;stroke:#fde725;stroke-width:0.8;" x="123.181302" xlink:href="#md43f93009e" y="74.504236"/>
     <use style="fill:#fde725;stroke:#fde725;stroke-width:0.8;" x="148.926107" xlink:href="#md43f93009e" y="76.143673"/>
     <use style="fill:#fde725;stroke:#fde725;stroke-width:0.8;" x="174.670913" xlink:href="#md43f93009e" y="77.299557"/>
     <use style="fill:#fde725;stroke:#fde725;stroke-width:0.8;" x="200.415718" xlink:href="#md43f93009e" y="77.679921"/>
     <use style="fill:#fde725;stroke:#fde725;stroke-width:0.8;" x="226.160523" xlink:href="#md43f93009e" y="78.295501"/>
    </g>
   </g>
   <g id="patch_3">
    <path d="M 36.936205 171.543106 
L 36.936205 9.883106 
" style="fill:none;stroke:#000000;stroke-linecap:square;stroke-linejoin:miter;"/>
   </g>
   <g id="patch_4">
    <path d="M 36.936205 171.543106 
L 235.171205 171.543106 
" style="fill:none;stroke:#000000;stroke-linecap:square;stroke-linejoin:miter;"/>
   </g>
   <g id="legend_1">
    <g id="text_20">
     <!-- Clone size rank (binned) -->
     <defs>
      <path d="M 58.796875 25.09375 
L 68.265625 22.703125 
Q 65.28125 11.03125 57.546875 4.90625 
Q 49.8125 -1.21875 38.625 -1.21875 
Q 27.046875 -1.21875 19.796875 3.484375 
Q 12.546875 8.203125 8.765625 17.140625 
Q 4.984375 26.078125 4.984375 36.328125 
Q 4.984375 47.515625 9.25 55.828125 
Q 13.53125 64.15625 21.40625 68.46875 
Q 29.296875 72.796875 38.765625 72.796875 
Q 49.515625 72.796875 56.828125 67.328125 
Q 64.15625 61.859375 67.046875 51.953125 
L 57.71875 49.75 
Q 55.21875 57.5625 50.484375 61.125 
Q 45.75 64.703125 38.578125 64.703125 
Q 30.328125 64.703125 24.78125 60.734375 
Q 19.234375 56.78125 16.984375 50.109375 
Q 14.75 43.453125 14.75 36.375 
Q 14.75 27.25 17.40625 20.4375 
Q 20.0625 13.625 25.671875 10.25 
Q 31.296875 6.890625 37.84375 6.890625 
Q 45.796875 6.890625 51.3125 11.46875 
Q 56.84375 16.0625 58.796875 25.09375 
z
" id="ArialMT-67"/>
      <path d="M 6.390625 0 
L 6.390625 71.578125 
L 15.1875 71.578125 
L 15.1875 0 
z
" id="ArialMT-108"/>
      <path d="M 1.953125 0 
L 1.953125 7.125 
L 34.96875 45.015625 
Q 29.34375 44.734375 25.046875 44.734375 
L 3.90625 44.734375 
L 3.90625 51.859375 
L 46.296875 51.859375 
L 46.296875 46.046875 
L 18.21875 13.140625 
L 12.796875 7.125 
Q 18.703125 7.5625 23.875 7.5625 
L 47.859375 7.5625 
L 47.859375 0 
z
" id="ArialMT-122"/>
      <path d="M 6.640625 0 
L 6.640625 71.578125 
L 15.4375 71.578125 
L 15.4375 30.765625 
L 36.234375 51.859375 
L 47.609375 51.859375 
L 27.78125 32.625 
L 49.609375 0 
L 38.765625 0 
L 21.625 26.515625 
L 15.4375 20.5625 
L 15.4375 0 
z
" id="ArialMT-107"/>
     </defs>
     <g transform="translate(161.854876 129.266469)scale(0.06246 -0.06246)">
      <use xlink:href="#ArialMT-67"/>
      <use x="72.216797" xlink:href="#ArialMT-108"/>
      <use x="94.433594" xlink:href="#ArialMT-111"/>
      <use x="150.048828" xlink:href="#ArialMT-110"/>
      <use x="205.664062" xlink:href="#ArialMT-101"/>
      <use x="261.279297" xlink:href="#ArialMT-32"/>
      <use x="289.0625" xlink:href="#ArialMT-115"/>
      <use x="339.0625" xlink:href="#ArialMT-105"/>
      <use x="361.279297" xlink:href="#ArialMT-122"/>
      <use x="411.279297" xlink:href="#ArialMT-101"/>
      <use x="466.894531" xlink:href="#ArialMT-32"/>
      <use x="494.677734" xlink:href="#ArialMT-114"/>
      <use x="527.978516" xlink:href="#ArialMT-97"/>
      <use x="583.59375" xlink:href="#ArialMT-110"/>
      <use x="639.208984" xlink:href="#ArialMT-107"/>
      <use x="689.208984" xlink:href="#ArialMT-32"/>
      <use x="716.992188" xlink:href="#ArialMT-40"/>
      <use x="750.292969" xlink:href="#ArialMT-98"/>
      <use x="805.908203" xlink:href="#ArialMT-105"/>
      <use x="828.125" xlink:href="#ArialMT-110"/>
      <use x="883.740234" xlink:href="#ArialMT-110"/>
      <use x="939.355469" xlink:href="#ArialMT-101"/>
      <use x="994.970703" xlink:href="#ArialMT-100"/>
      <use x="1050.585938" xlink:href="#ArialMT-41"/>
     </g>
    </g>
    <g id="line2d_26">
     <path d="M 167.580213 135.988727 
L 175.387713 135.988727 
" style="fill:none;stroke:#472d7b;stroke-linecap:round;stroke-width:1.3;"/>
    </g>
    <g id="line2d_27">
     <defs>
      <path d="M 0 0.9375 
C 0.248628 0.9375 0.487106 0.838719 0.662913 0.662913 
C 0.838719 0.487106 0.9375 0.248628 0.9375 0 
C 0.9375 -0.248628 0.838719 -0.487106 0.662913 -0.662913 
C 0.487106 -0.838719 0.248628 -0.9375 0 -0.9375 
C -0.248628 -0.9375 -0.487106 -0.838719 -0.662913 -0.662913 
C -0.838719 -0.487106 -0.9375 -0.248628 -0.9375 0 
C -0.9375 0.248628 -0.838719 0.487106 -0.662913 0.662913 
C -0.487106 0.838719 -0.248628 0.9375 0 0.9375 
z
" id="m070f1fb59f" style="stroke:#472d7b;stroke-width:0.8;"/>
     </defs>
     <g>
      <use style="fill:#472d7b;stroke:#472d7b;stroke-width:0.8;" x="171.483963" xlink:href="#m070f1fb59f" y="135.988727"/>
     </g>
    </g>
    <g id="text_21">
     <!-- 200 -->
     <g transform="translate(178.510713 138.174827)scale(0.06246 -0.06246)">
      <use xlink:href="#ArialMT-50"/>
      <use x="55.615234" xlink:href="#ArialMT-48"/>
      <use x="111.230469" xlink:href="#ArialMT-48"/>
     </g>
    </g>
    <g id="line2d_28">
     <path d="M 167.580213 144.823889 
L 175.387713 144.823889 
" style="fill:none;stroke:#3b528b;stroke-linecap:round;stroke-width:1.3;"/>
    </g>
    <g id="line2d_29">
     <defs>
      <path d="M 0 0.9375 
C 0.248628 0.9375 0.487106 0.838719 0.662913 0.662913 
C 0.838719 0.487106 0.9375 0.248628 0.9375 0 
C 0.9375 -0.248628 0.838719 -0.487106 0.662913 -0.662913 
C 0.487106 -0.838719 0.248628 -0.9375 0 -0.9375 
C -0.248628 -0.9375 -0.487106 -0.838719 -0.662913 -0.662913 
C -0.838719 -0.487106 -0.9375 -0.248628 -0.9375 0 
C -0.9375 0.248628 -0.838719 0.487106 -0.662913 0.662913 
C -0.487106 0.838719 -0.248628 0.9375 0 0.9375 
z
" id="mf28175c2e0" style="stroke:#3b528b;stroke-width:0.8;"/>
     </defs>
     <g>
      <use style="fill:#3b528b;stroke:#3b528b;stroke-width:0.8;" x="171.483963" xlink:href="#mf28175c2e0" y="144.823889"/>
     </g>
    </g>
    <g id="text_22">
     <!-- 500 -->
     <g transform="translate(178.510713 147.009989)scale(0.06246 -0.06246)">
      <use xlink:href="#ArialMT-53"/>
      <use x="55.615234" xlink:href="#ArialMT-48"/>
      <use x="111.230469" xlink:href="#ArialMT-48"/>
     </g>
    </g>
    <g id="line2d_30">
     <path d="M 167.580213 153.659051 
L 175.387713 153.659051 
" style="fill:none;stroke:#2c728e;stroke-linecap:round;stroke-width:1.3;"/>
    </g>
    <g id="line2d_31">
     <defs>
      <path d="M 0 0.9375 
C 0.248628 0.9375 0.487106 0.838719 0.662913 0.662913 
C 0.838719 0.487106 0.9375 0.248628 0.9375 0 
C 0.9375 -0.248628 0.838719 -0.487106 0.662913 -0.662913 
C 0.487106 -0.838719 0.248628 -0.9375 0 -0.9375 
C -0.248628 -0.9375 -0.487106 -0.838719 -0.662913 -0.662913 
C -0.838719 -0.487106 -0.9375 -0.248628 -0.9375 0 
C -0.9375 0.248628 -0.838719 0.487106 -0.662913 0.662913 
C -0.487106 0.838719 -0.248628 0.9375 0 0.9375 
z
" id="mf0268d8893" style="stroke:#2c728e;stroke-width:0.8;"/>
     </defs>
     <g>
      <use style="fill:#2c728e;stroke:#2c728e;stroke-width:0.8;" x="171.483963" xlink:href="#mf0268d8893" y="153.659051"/>
     </g>
    </g>
    <g id="text_23">
     <!-- 1000 -->
     <g transform="translate(178.510713 155.845151)scale(0.06246 -0.06246)">
      <use xlink:href="#ArialMT-49"/>
      <use x="55.615234" xlink:href="#ArialMT-48"/>
      <use x="111.230469" xlink:href="#ArialMT-48"/>
      <use x="166.845703" xlink:href="#ArialMT-48"/>
     </g>
    </g>
    <g id="line2d_32">
     <path d="M 167.580213 162.494214 
L 175.387713 162.494214 
" style="fill:none;stroke:#21918c;stroke-linecap:round;stroke-width:1.3;"/>
    </g>
    <g id="line2d_33">
     <defs>
      <path d="M 0 0.9375 
C 0.248628 0.9375 0.487106 0.838719 0.662913 0.662913 
C 0.838719 0.487106 0.9375 0.248628 0.9375 0 
C 0.9375 -0.248628 0.838719 -0.487106 0.662913 -0.662913 
C 0.487106 -0.838719 0.248628 -0.9375 0 -0.9375 
C -0.248628 -0.9375 -0.487106 -0.838719 -0.662913 -0.662913 
C -0.838719 -0.487106 -0.9375 -0.248628 -0.9375 0 
C -0.9375 0.248628 -0.838719 0.487106 -0.662913 0.662913 
C -0.487106 0.838719 -0.248628 0.9375 0 0.9375 
z
" id="me5969f59cc" style="stroke:#21918c;stroke-width:0.8;"/>
     </defs>
     <g>
      <use style="fill:#21918c;stroke:#21918c;stroke-width:0.8;" x="171.483963" xlink:href="#me5969f59cc" y="162.494214"/>
     </g>
    </g>
    <g id="text_24">
     <!-- 2000 -->
     <g transform="translate(178.510713 164.680314)scale(0.06246 -0.06246)">
      <use xlink:href="#ArialMT-50"/>
      <use x="55.615234" xlink:href="#ArialMT-48"/>
      <use x="111.230469" xlink:href="#ArialMT-48"/>
      <use x="166.845703" xlink:href="#ArialMT-48"/>
     </g>
    </g>
    <g id="line2d_34">
     <path d="M 195.52716 135.988727 
L 203.33466 135.988727 
" style="fill:none;stroke:#27ad81;stroke-linecap:round;stroke-width:1.3;"/>
    </g>
    <g id="line2d_35">
     <defs>
      <path d="M 0 0.9375 
C 0.248628 0.9375 0.487106 0.838719 0.662913 0.662913 
C 0.838719 0.487106 0.9375 0.248628 0.9375 0 
C 0.9375 -0.248628 0.838719 -0.487106 0.662913 -0.662913 
C 0.487106 -0.838719 0.248628 -0.9375 0 -0.9375 
C -0.248628 -0.9375 -0.487106 -0.838719 -0.662913 -0.662913 
C -0.838719 -0.487106 -0.9375 -0.248628 -0.9375 0 
C -0.9375 0.248628 -0.838719 0.487106 -0.662913 0.662913 
C -0.487106 0.838719 -0.248628 0.9375 0 0.9375 
z
" id="me0dc4796e1" style="stroke:#27ad81;stroke-width:0.8;"/>
     </defs>
     <g>
      <use style="fill:#27ad81;stroke:#27ad81;stroke-width:0.8;" x="199.43091" xlink:href="#me0dc4796e1" y="135.988727"/>
     </g>
    </g>
    <g id="text_25">
     <!-- 5000 -->
     <g transform="translate(206.45766 138.174827)scale(0.06246 -0.06246)">
      <use xlink:href="#ArialMT-53"/>
      <use x="55.615234" xlink:href="#ArialMT-48"/>
      <use x="111.230469" xlink:href="#ArialMT-48"/>
      <use x="166.845703" xlink:href="#ArialMT-48"/>
     </g>
    </g>
    <g id="line2d_36">
     <path d="M 195.52716 144.823889 
L 203.33466 144.823889 
" style="fill:none;stroke:#5cc863;stroke-linecap:round;stroke-width:1.3;"/>
    </g>
    <g id="line2d_37">
     <defs>
      <path d="M 0 0.9375 
C 0.248628 0.9375 0.487106 0.838719 0.662913 0.662913 
C 0.838719 0.487106 0.9375 0.248628 0.9375 0 
C 0.9375 -0.248628 0.838719 -0.487106 0.662913 -0.662913 
C 0.487106 -0.838719 0.248628 -0.9375 0 -0.9375 
C -0.248628 -0.9375 -0.487106 -0.838719 -0.662913 -0.662913 
C -0.838719 -0.487106 -0.9375 -0.248628 -0.9375 0 
C -0.9375 0.248628 -0.838719 0.487106 -0.662913 0.662913 
C -0.487106 0.838719 -0.248628 0.9375 0 0.9375 
z
" id="m2e6a607be4" style="stroke:#5cc863;stroke-width:0.8;"/>
     </defs>
     <g>
      <use style="fill:#5cc863;stroke:#5cc863;stroke-width:0.8;" x="199.43091" xlink:href="#m2e6a607be4" y="144.823889"/>
     </g>
    </g>
    <g id="text_26">
     <!-- 10000 -->
     <g transform="translate(206.45766 147.009989)scale(0.06246 -0.06246)">
      <use xlink:href="#ArialMT-49"/>
      <use x="55.615234" xlink:href="#ArialMT-48"/>
      <use x="111.230469" xlink:href="#ArialMT-48"/>
      <use x="166.845703" xlink:href="#ArialMT-48"/>
      <use x="222.460938" xlink:href="#ArialMT-48"/>
     </g>
    </g>
    <g id="line2d_38">
     <path d="M 195.52716 153.659051 
L 203.33466 153.659051 
" style="fill:none;stroke:#aadc32;stroke-linecap:round;stroke-width:1.3;"/>
    </g>
    <g id="line2d_39">
     <defs>
      <path d="M 0 0.9375 
C 0.248628 0.9375 0.487106 0.838719 0.662913 0.662913 
C 0.838719 0.487106 0.9375 0.248628 0.9375 0 
C 0.9375 -0.248628 0.838719 -0.487106 0.662913 -0.662913 
C 0.487106 -0.838719 0.248628 -0.9375 0 -0.9375 
C -0.248628 -0.9375 -0.487106 -0.838719 -0.662913 -0.662913 
C -0.838719 -0.487106 -0.9375 -0.248628 -0.9375 0 
C -0.9375 0.248628 -0.838719 0.487106 -0.662913 0.662913 
C -0.487106 0.838719 -0.248628 0.9375 0 0.9375 
z
" id="mdd71f7b41d" style="stroke:#aadc32;stroke-width:0.8;"/>
     </defs>
     <g>
      <use style="fill:#aadc32;stroke:#aadc32;stroke-width:0.8;" x="199.43091" xlink:href="#mdd71f7b41d" y="153.659051"/>
     </g>
    </g>
    <g id="text_27">
     <!-- 20000 -->
     <g transform="translate(206.45766 155.845151)scale(0.06246 -0.06246)">
      <use xlink:href="#ArialMT-50"/>
      <use x="55.615234" xlink:href="#ArialMT-48"/>
      <use x="111.230469" xlink:href="#ArialMT-48"/>
      <use x="166.845703" xlink:href="#ArialMT-48"/>
      <use x="222.460938" xlink:href="#ArialMT-48"/>
     </g>
    </g>
    <g id="line2d_40">
     <path d="M 195.52716 162.494214 
L 203.33466 162.494214 
" style="fill:none;stroke:#fde725;stroke-linecap:round;stroke-width:1.3;"/>
    </g>
    <g id="line2d_41">
     <defs>
      <path d="M 0 0.9375 
C 0.248628 0.9375 0.487106 0.838719 0.662913 0.662913 
C 0.838719 0.487106 0.9375 0.248628 0.9375 0 
C 0.9375 -0.248628 0.838719 -0.487106 0.662913 -0.662913 
C 0.487106 -0.838719 0.248628 -0.9375 0 -0.9375 
C -0.248628 -0.9375 -0.487106 -0.838719 -0.662913 -0.662913 
C -0.838719 -0.487106 -0.9375 -0.248628 -0.9375 0 
C -0.9375 0.248628 -0.838719 0.487106 -0.662913 0.662913 
C -0.487106 0.838719 -0.248628 0.9375 0 0.9375 
z
" id="m0b7f0651bb" style="stroke:#fde725;stroke-width:0.8;"/>
     </defs>
     <g>
      <use style="fill:#fde725;stroke:#fde725;stroke-width:0.8;" x="199.43091" xlink:href="#m0b7f0651bb" y="162.494214"/>
     </g>
    </g>
    <g id="text_28">
     <!-- 50000 -->
     <g transform="translate(206.45766 164.680314)scale(0.06246 -0.06246)">
      <use xlink:href="#ArialMT-53"/>
      <use x="55.615234" xlink:href="#ArialMT-48"/>
      <use x="111.230469" xlink:href="#ArialMT-48"/>
      <use x="166.845703" xlink:href="#ArialMT-48"/>
      <use x="222.460938" xlink:href="#ArialMT-48"/>
     </g>
    </g>
   </g>
  </g>
 </g>
 <defs>
  <clipPath id="p79ce6860a0">
   <rect height="161.66" width="198.235" x="36.936205" y="9.883106"/>
  </clipPath>
 </defs>
</svg>
