<?xml version="1.0" encoding="utf-8" standalone="no"?>
<!DOCTYPE svg PUBLIC "-//W3C//DTD SVG 1.1//EN"
  "http://www.w3.org/Graphics/SVG/1.1/DTD/svg11.dtd">
<!-- Created with matplotlib (https://matplotlib.org/) -->
<svg height="177.433444pt" version="1.1" viewBox="0 0 223.149491 177.433444" width="223.149491pt" xmlns="http://www.w3.org/2000/svg" xmlns:xlink="http://www.w3.org/1999/xlink">
 <defs>
  <style type="text/css">
*{stroke-linecap:butt;stroke-linejoin:round;}
  </style>
 </defs>
 <g id="figure_1">
  <g id="patch_1">
   <path d="M 0 177.433444 
L 223.149491 177.433444 
L 223.149491 0 
L 0 0 
z
" style="fill:none;"/>
  </g>
  <g id="axes_1">
   <g id="patch_2">
    <path d="M 31.826531 148.155893 
L 215.949491 148.155893 
L 215.949491 8.121451 
L 31.826531 8.121451 
z
" style="fill:#ffffff;"/>
   </g>
   <g id="matplotlib.axis_1">
    <g id="xtick_1">
     <g id="line2d_1">
      <defs>
       <path d="M 0 2 
L 0 -2 
" id="m1734872343" style="stroke:#000000;stroke-width:0.8;"/>
      </defs>
      <g>
       <use style="stroke:#000000;stroke-width:0.8;" x="40.195756" xlink:href="#m1734872343" y="148.155893"/>
      </g>
     </g>
     <g id="text_1">
      <!-- $\mathdefault{10^{0}}$ -->
      <defs>
       <path d="M 37.25 0 
L 28.46875 0 
L 28.46875 56 
Q 25.296875 52.984375 20.140625 49.953125 
Q 14.984375 46.921875 10.890625 45.40625 
L 10.890625 53.90625 
Q 18.265625 57.375 23.78125 62.296875 
Q 29.296875 67.234375 31.59375 71.875 
L 37.25 71.875 
z
" id="ArialMT-49"/>
       <path d="M 4.15625 35.296875 
Q 4.15625 48 6.765625 55.734375 
Q 9.375 63.484375 14.515625 67.671875 
Q 19.671875 71.875 27.484375 71.875 
Q 33.25 71.875 37.59375 69.546875 
Q 41.9375 67.234375 44.765625 62.859375 
Q 47.609375 58.5 49.21875 52.21875 
Q 50.828125 45.953125 50.828125 35.296875 
Q 50.828125 22.703125 48.234375 14.96875 
Q 45.65625 7.234375 40.5 3 
Q 35.359375 -1.21875 27.484375 -1.21875 
Q 17.140625 -1.21875 11.234375 6.203125 
Q 4.15625 15.140625 4.15625 35.296875 
z
M 13.1875 35.296875 
Q 13.1875 17.671875 17.3125 11.828125 
Q 21.4375 6 27.484375 6 
Q 33.546875 6 37.671875 11.859375 
Q 41.796875 17.71875 41.796875 35.296875 
Q 41.796875 52.984375 37.671875 58.78125 
Q 33.546875 64.59375 27.390625 64.59375 
Q 21.34375 64.59375 17.71875 59.46875 
Q 13.1875 52.9375 13.1875 35.296875 
z
" id="ArialMT-48"/>
      </defs>
      <g transform="translate(34.310611 160.387174)scale(0.07497 -0.07497)">
       <use transform="translate(0 0.99375)" xlink:href="#ArialMT-49"/>
       <use transform="translate(55.615234 0.99375)" xlink:href="#ArialMT-48"/>
       <use transform="translate(112.972813 70.6875)scale(0.7)" xlink:href="#ArialMT-48"/>
      </g>
     </g>
    </g>
    <g id="xtick_2">
     <g id="line2d_2">
      <g>
       <use style="stroke:#000000;stroke-width:0.8;" x="78.266955" xlink:href="#m1734872343" y="148.155893"/>
      </g>
     </g>
     <g id="text_2">
      <!-- $\mathdefault{10^{1}}$ -->
      <g transform="translate(72.38181 160.387174)scale(0.07497 -0.07497)">
       <use transform="translate(0 0.99375)" xlink:href="#ArialMT-49"/>
       <use transform="translate(55.615234 0.99375)" xlink:href="#ArialMT-48"/>
       <use transform="translate(112.972813 70.6875)scale(0.7)" xlink:href="#ArialMT-49"/>
      </g>
     </g>
    </g>
    <g id="xtick_3">
     <g id="line2d_3">
      <g>
       <use style="stroke:#000000;stroke-width:0.8;" x="116.338154" xlink:href="#m1734872343" y="148.155893"/>
      </g>
     </g>
     <g id="text_3">
      <!-- $\mathdefault{10^{2}}$ -->
      <defs>
       <path d="M 50.34375 8.453125 
L 50.34375 0 
L 3.03125 0 
Q 2.9375 3.171875 4.046875 6.109375 
Q 5.859375 10.9375 9.828125 15.625 
Q 13.8125 20.3125 21.34375 26.46875 
Q 33.015625 36.03125 37.109375 41.625 
Q 41.21875 47.21875 41.21875 52.203125 
Q 41.21875 57.421875 37.46875 61 
Q 33.734375 64.59375 27.734375 64.59375 
Q 21.390625 64.59375 17.578125 60.78125 
Q 13.765625 56.984375 13.71875 50.25 
L 4.6875 51.171875 
Q 5.609375 61.28125 11.65625 66.578125 
Q 17.71875 71.875 27.9375 71.875 
Q 38.234375 71.875 44.234375 66.15625 
Q 50.25 60.453125 50.25 52 
Q 50.25 47.703125 48.484375 43.546875 
Q 46.734375 39.40625 42.65625 34.8125 
Q 38.578125 30.21875 29.109375 22.21875 
Q 21.1875 15.578125 18.9375 13.203125 
Q 16.703125 10.84375 15.234375 8.453125 
z
" id="ArialMT-50"/>
      </defs>
      <g transform="translate(110.453009 160.387174)scale(0.07497 -0.07497)">
       <use transform="translate(0 0.99375)" xlink:href="#ArialMT-49"/>
       <use transform="translate(55.615234 0.99375)" xlink:href="#ArialMT-48"/>
       <use transform="translate(112.972813 70.6875)scale(0.7)" xlink:href="#ArialMT-50"/>
      </g>
     </g>
    </g>
    <g id="xtick_4">
     <g id="line2d_4">
      <g>
       <use style="stroke:#000000;stroke-width:0.8;" x="154.409354" xlink:href="#m1734872343" y="148.155893"/>
      </g>
     </g>
     <g id="text_4">
      <!-- $\mathdefault{10^{3}}$ -->
      <defs>
       <path d="M 4.203125 18.890625 
L 12.984375 20.0625 
Q 14.5 12.59375 18.140625 9.296875 
Q 21.78125 6 27 6 
Q 33.203125 6 37.46875 10.296875 
Q 41.75 14.59375 41.75 20.953125 
Q 41.75 27 37.796875 30.921875 
Q 33.84375 34.859375 27.734375 34.859375 
Q 25.25 34.859375 21.53125 33.890625 
L 22.515625 41.609375 
Q 23.390625 41.5 23.921875 41.5 
Q 29.546875 41.5 34.03125 44.421875 
Q 38.53125 47.359375 38.53125 53.46875 
Q 38.53125 58.296875 35.25 61.46875 
Q 31.984375 64.65625 26.8125 64.65625 
Q 21.6875 64.65625 18.265625 61.421875 
Q 14.84375 58.203125 13.875 51.765625 
L 5.078125 53.328125 
Q 6.6875 62.15625 12.390625 67.015625 
Q 18.109375 71.875 26.609375 71.875 
Q 32.46875 71.875 37.390625 69.359375 
Q 42.328125 66.84375 44.9375 62.5 
Q 47.5625 58.15625 47.5625 53.265625 
Q 47.5625 48.640625 45.0625 44.828125 
Q 42.578125 41.015625 37.703125 38.765625 
Q 44.046875 37.3125 47.5625 32.6875 
Q 51.078125 28.078125 51.078125 21.140625 
Q 51.078125 11.765625 44.234375 5.25 
Q 37.40625 -1.265625 26.953125 -1.265625 
Q 17.53125 -1.265625 11.296875 4.34375 
Q 5.078125 9.96875 4.203125 18.890625 
z
" id="ArialMT-51"/>
      </defs>
      <g transform="translate(148.524209 160.387174)scale(0.07497 -0.07497)">
       <use transform="translate(0 0.99375)" xlink:href="#ArialMT-49"/>
       <use transform="translate(55.615234 0.99375)" xlink:href="#ArialMT-48"/>
       <use transform="translate(112.972813 70.6875)scale(0.7)" xlink:href="#ArialMT-51"/>
      </g>
     </g>
    </g>
    <g id="xtick_5">
     <g id="line2d_5">
      <g>
       <use style="stroke:#000000;stroke-width:0.8;" x="192.480553" xlink:href="#m1734872343" y="148.155893"/>
      </g>
     </g>
     <g id="text_5">
      <!-- $\mathdefault{10^{4}}$ -->
      <defs>
       <path d="M 32.328125 0 
L 32.328125 17.140625 
L 1.265625 17.140625 
L 1.265625 25.203125 
L 33.9375 71.578125 
L 41.109375 71.578125 
L 41.109375 25.203125 
L 50.78125 25.203125 
L 50.78125 17.140625 
L 41.109375 17.140625 
L 41.109375 0 
z
M 32.328125 25.203125 
L 32.328125 57.46875 
L 9.90625 25.203125 
z
" id="ArialMT-52"/>
      </defs>
      <g transform="translate(186.595408 160.312204)scale(0.07497 -0.07497)">
       <use transform="translate(0 0.201563)" xlink:href="#ArialMT-49"/>
       <use transform="translate(55.615234 0.201563)" xlink:href="#ArialMT-48"/>
       <use transform="translate(112.972813 69.895313)scale(0.7)" xlink:href="#ArialMT-52"/>
      </g>
     </g>
    </g>
    <g id="xtick_6">
     <g id="line2d_6">
      <defs>
       <path d="M 0 1 
L 0 -1 
" id="mce975671ee" style="stroke:#000000;stroke-width:0.4;"/>
      </defs>
      <g>
       <use style="stroke:#000000;stroke-width:0.4;" x="34.298453" xlink:href="#mce975671ee" y="148.155893"/>
      </g>
     </g>
    </g>
    <g id="xtick_7">
     <g id="line2d_7">
      <g>
       <use style="stroke:#000000;stroke-width:0.4;" x="36.506276" xlink:href="#mce975671ee" y="148.155893"/>
      </g>
     </g>
    </g>
    <g id="xtick_8">
     <g id="line2d_8">
      <g>
       <use style="stroke:#000000;stroke-width:0.4;" x="38.453714" xlink:href="#mce975671ee" y="148.155893"/>
      </g>
     </g>
    </g>
    <g id="xtick_9">
     <g id="line2d_9">
      <g>
       <use style="stroke:#000000;stroke-width:0.4;" x="51.656329" xlink:href="#mce975671ee" y="148.155893"/>
      </g>
     </g>
    </g>
    <g id="xtick_10">
     <g id="line2d_10">
      <g>
       <use style="stroke:#000000;stroke-width:0.4;" x="58.360335" xlink:href="#mce975671ee" y="148.155893"/>
      </g>
     </g>
    </g>
    <g id="xtick_11">
     <g id="line2d_11">
      <g>
       <use style="stroke:#000000;stroke-width:0.4;" x="63.116902" xlink:href="#mce975671ee" y="148.155893"/>
      </g>
     </g>
    </g>
    <g id="xtick_12">
     <g id="line2d_12">
      <g>
       <use style="stroke:#000000;stroke-width:0.4;" x="66.806382" xlink:href="#mce975671ee" y="148.155893"/>
      </g>
     </g>
    </g>
    <g id="xtick_13">
     <g id="line2d_13">
      <g>
       <use style="stroke:#000000;stroke-width:0.4;" x="69.820907" xlink:href="#mce975671ee" y="148.155893"/>
      </g>
     </g>
    </g>
    <g id="xtick_14">
     <g id="line2d_14">
      <g>
       <use style="stroke:#000000;stroke-width:0.4;" x="72.369652" xlink:href="#mce975671ee" y="148.155893"/>
      </g>
     </g>
    </g>
    <g id="xtick_15">
     <g id="line2d_15">
      <g>
       <use style="stroke:#000000;stroke-width:0.4;" x="74.577475" xlink:href="#mce975671ee" y="148.155893"/>
      </g>
     </g>
    </g>
    <g id="xtick_16">
     <g id="line2d_16">
      <g>
       <use style="stroke:#000000;stroke-width:0.4;" x="76.524913" xlink:href="#mce975671ee" y="148.155893"/>
      </g>
     </g>
    </g>
    <g id="xtick_17">
     <g id="line2d_17">
      <g>
       <use style="stroke:#000000;stroke-width:0.4;" x="89.727528" xlink:href="#mce975671ee" y="148.155893"/>
      </g>
     </g>
    </g>
    <g id="xtick_18">
     <g id="line2d_18">
      <g>
       <use style="stroke:#000000;stroke-width:0.4;" x="96.431534" xlink:href="#mce975671ee" y="148.155893"/>
      </g>
     </g>
    </g>
    <g id="xtick_19">
     <g id="line2d_19">
      <g>
       <use style="stroke:#000000;stroke-width:0.4;" x="101.188101" xlink:href="#mce975671ee" y="148.155893"/>
      </g>
     </g>
    </g>
    <g id="xtick_20">
     <g id="line2d_20">
      <g>
       <use style="stroke:#000000;stroke-width:0.4;" x="104.877582" xlink:href="#mce975671ee" y="148.155893"/>
      </g>
     </g>
    </g>
    <g id="xtick_21">
     <g id="line2d_21">
      <g>
       <use style="stroke:#000000;stroke-width:0.4;" x="107.892107" xlink:href="#mce975671ee" y="148.155893"/>
      </g>
     </g>
    </g>
    <g id="xtick_22">
     <g id="line2d_22">
      <g>
       <use style="stroke:#000000;stroke-width:0.4;" x="110.440851" xlink:href="#mce975671ee" y="148.155893"/>
      </g>
     </g>
    </g>
    <g id="xtick_23">
     <g id="line2d_23">
      <g>
       <use style="stroke:#000000;stroke-width:0.4;" x="112.648674" xlink:href="#mce975671ee" y="148.155893"/>
      </g>
     </g>
    </g>
    <g id="xtick_24">
     <g id="line2d_24">
      <g>
       <use style="stroke:#000000;stroke-width:0.4;" x="114.596112" xlink:href="#mce975671ee" y="148.155893"/>
      </g>
     </g>
    </g>
    <g id="xtick_25">
     <g id="line2d_25">
      <g>
       <use style="stroke:#000000;stroke-width:0.4;" x="127.798727" xlink:href="#mce975671ee" y="148.155893"/>
      </g>
     </g>
    </g>
    <g id="xtick_26">
     <g id="line2d_26">
      <g>
       <use style="stroke:#000000;stroke-width:0.4;" x="134.502733" xlink:href="#mce975671ee" y="148.155893"/>
      </g>
     </g>
    </g>
    <g id="xtick_27">
     <g id="line2d_27">
      <g>
       <use style="stroke:#000000;stroke-width:0.4;" x="139.2593" xlink:href="#mce975671ee" y="148.155893"/>
      </g>
     </g>
    </g>
    <g id="xtick_28">
     <g id="line2d_28">
      <g>
       <use style="stroke:#000000;stroke-width:0.4;" x="142.948781" xlink:href="#mce975671ee" y="148.155893"/>
      </g>
     </g>
    </g>
    <g id="xtick_29">
     <g id="line2d_29">
      <g>
       <use style="stroke:#000000;stroke-width:0.4;" x="145.963306" xlink:href="#mce975671ee" y="148.155893"/>
      </g>
     </g>
    </g>
    <g id="xtick_30">
     <g id="line2d_30">
      <g>
       <use style="stroke:#000000;stroke-width:0.4;" x="148.51205" xlink:href="#mce975671ee" y="148.155893"/>
      </g>
     </g>
    </g>
    <g id="xtick_31">
     <g id="line2d_31">
      <g>
       <use style="stroke:#000000;stroke-width:0.4;" x="150.719873" xlink:href="#mce975671ee" y="148.155893"/>
      </g>
     </g>
    </g>
    <g id="xtick_32">
     <g id="line2d_32">
      <g>
       <use style="stroke:#000000;stroke-width:0.4;" x="152.667311" xlink:href="#mce975671ee" y="148.155893"/>
      </g>
     </g>
    </g>
    <g id="xtick_33">
     <g id="line2d_33">
      <g>
       <use style="stroke:#000000;stroke-width:0.4;" x="165.869927" xlink:href="#mce975671ee" y="148.155893"/>
      </g>
     </g>
    </g>
    <g id="xtick_34">
     <g id="line2d_34">
      <g>
       <use style="stroke:#000000;stroke-width:0.4;" x="172.573932" xlink:href="#mce975671ee" y="148.155893"/>
      </g>
     </g>
    </g>
    <g id="xtick_35">
     <g id="line2d_35">
      <g>
       <use style="stroke:#000000;stroke-width:0.4;" x="177.330499" xlink:href="#mce975671ee" y="148.155893"/>
      </g>
     </g>
    </g>
    <g id="xtick_36">
     <g id="line2d_36">
      <g>
       <use style="stroke:#000000;stroke-width:0.4;" x="181.01998" xlink:href="#mce975671ee" y="148.155893"/>
      </g>
     </g>
    </g>
    <g id="xtick_37">
     <g id="line2d_37">
      <g>
       <use style="stroke:#000000;stroke-width:0.4;" x="184.034505" xlink:href="#mce975671ee" y="148.155893"/>
      </g>
     </g>
    </g>
    <g id="xtick_38">
     <g id="line2d_38">
      <g>
       <use style="stroke:#000000;stroke-width:0.4;" x="186.583249" xlink:href="#mce975671ee" y="148.155893"/>
      </g>
     </g>
    </g>
    <g id="xtick_39">
     <g id="line2d_39">
      <g>
       <use style="stroke:#000000;stroke-width:0.4;" x="188.791072" xlink:href="#mce975671ee" y="148.155893"/>
      </g>
     </g>
    </g>
    <g id="xtick_40">
     <g id="line2d_40">
      <g>
       <use style="stroke:#000000;stroke-width:0.4;" x="190.73851" xlink:href="#mce975671ee" y="148.155893"/>
      </g>
     </g>
    </g>
    <g id="xtick_41">
     <g id="line2d_41">
      <g>
       <use style="stroke:#000000;stroke-width:0.4;" x="203.941126" xlink:href="#mce975671ee" y="148.155893"/>
      </g>
     </g>
    </g>
    <g id="xtick_42">
     <g id="line2d_42">
      <g>
       <use style="stroke:#000000;stroke-width:0.4;" x="210.645131" xlink:href="#mce975671ee" y="148.155893"/>
      </g>
     </g>
    </g>
    <g id="xtick_43">
     <g id="line2d_43">
      <g>
       <use style="stroke:#000000;stroke-width:0.4;" x="215.401699" xlink:href="#mce975671ee" y="148.155893"/>
      </g>
     </g>
    </g>
    <g id="text_6">
     <!-- Clone size -->
     <defs>
      <path d="M 58.796875 25.09375 
L 68.265625 22.703125 
Q 65.28125 11.03125 57.546875 4.90625 
Q 49.8125 -1.21875 38.625 -1.21875 
Q 27.046875 -1.21875 19.796875 3.484375 
Q 12.546875 8.203125 8.765625 17.140625 
Q 4.984375 26.078125 4.984375 36.328125 
Q 4.984375 47.515625 9.25 55.828125 
Q 13.53125 64.15625 21.40625 68.46875 
Q 29.296875 72.796875 38.765625 72.796875 
Q 49.515625 72.796875 56.828125 67.328125 
Q 64.15625 61.859375 67.046875 51.953125 
L 57.71875 49.75 
Q 55.21875 57.5625 50.484375 61.125 
Q 45.75 64.703125 38.578125 64.703125 
Q 30.328125 64.703125 24.78125 60.734375 
Q 19.234375 56.78125 16.984375 50.109375 
Q 14.75 43.453125 14.75 36.375 
Q 14.75 27.25 17.40625 20.4375 
Q 20.0625 13.625 25.671875 10.25 
Q 31.296875 6.890625 37.84375 6.890625 
Q 45.796875 6.890625 51.3125 11.46875 
Q 56.84375 16.0625 58.796875 25.09375 
z
" id="ArialMT-67"/>
      <path d="M 6.390625 0 
L 6.390625 71.578125 
L 15.1875 71.578125 
L 15.1875 0 
z
" id="ArialMT-108"/>
      <path d="M 3.328125 25.921875 
Q 3.328125 40.328125 11.328125 47.265625 
Q 18.015625 53.03125 27.640625 53.03125 
Q 38.328125 53.03125 45.109375 46.015625 
Q 51.90625 39.015625 51.90625 26.65625 
Q 51.90625 16.65625 48.90625 10.90625 
Q 45.90625 5.171875 40.15625 2 
Q 34.421875 -1.171875 27.640625 -1.171875 
Q 16.75 -1.171875 10.03125 5.8125 
Q 3.328125 12.796875 3.328125 25.921875 
z
M 12.359375 25.921875 
Q 12.359375 15.96875 16.703125 11.015625 
Q 21.046875 6.0625 27.640625 6.0625 
Q 34.1875 6.0625 38.53125 11.03125 
Q 42.875 16.015625 42.875 26.21875 
Q 42.875 35.84375 38.5 40.796875 
Q 34.125 45.75 27.640625 45.75 
Q 21.046875 45.75 16.703125 40.8125 
Q 12.359375 35.890625 12.359375 25.921875 
z
" id="ArialMT-111"/>
      <path d="M 6.59375 0 
L 6.59375 51.859375 
L 14.5 51.859375 
L 14.5 44.484375 
Q 20.21875 53.03125 31 53.03125 
Q 35.6875 53.03125 39.625 51.34375 
Q 43.5625 49.65625 45.515625 46.921875 
Q 47.46875 44.1875 48.25 40.4375 
Q 48.734375 37.984375 48.734375 31.890625 
L 48.734375 0 
L 39.9375 0 
L 39.9375 31.546875 
Q 39.9375 36.921875 38.90625 39.578125 
Q 37.890625 42.234375 35.28125 43.8125 
Q 32.671875 45.40625 29.15625 45.40625 
Q 23.53125 45.40625 19.453125 41.84375 
Q 15.375 38.28125 15.375 28.328125 
L 15.375 0 
z
" id="ArialMT-110"/>
      <path d="M 42.09375 16.703125 
L 51.171875 15.578125 
Q 49.03125 7.625 43.21875 3.21875 
Q 37.40625 -1.171875 28.375 -1.171875 
Q 17 -1.171875 10.328125 5.828125 
Q 3.65625 12.84375 3.65625 25.484375 
Q 3.65625 38.578125 10.390625 45.796875 
Q 17.140625 53.03125 27.875 53.03125 
Q 38.28125 53.03125 44.875 45.953125 
Q 51.46875 38.875 51.46875 26.03125 
Q 51.46875 25.25 51.421875 23.6875 
L 12.75 23.6875 
Q 13.234375 15.140625 17.578125 10.59375 
Q 21.921875 6.0625 28.421875 6.0625 
Q 33.25 6.0625 36.671875 8.59375 
Q 40.09375 11.140625 42.09375 16.703125 
z
M 13.234375 30.90625 
L 42.1875 30.90625 
Q 41.609375 37.453125 38.875 40.71875 
Q 34.671875 45.796875 27.984375 45.796875 
Q 21.921875 45.796875 17.796875 41.75 
Q 13.671875 37.703125 13.234375 30.90625 
z
" id="ArialMT-101"/>
      <path id="ArialMT-32"/>
      <path d="M 3.078125 15.484375 
L 11.765625 16.84375 
Q 12.5 11.625 15.84375 8.84375 
Q 19.1875 6.0625 25.203125 6.0625 
Q 31.25 6.0625 34.171875 8.515625 
Q 37.109375 10.984375 37.109375 14.3125 
Q 37.109375 17.28125 34.515625 19 
Q 32.71875 20.171875 25.53125 21.96875 
Q 15.875 24.421875 12.140625 26.203125 
Q 8.40625 27.984375 6.46875 31.125 
Q 4.546875 34.28125 4.546875 38.09375 
Q 4.546875 41.546875 6.125 44.5 
Q 7.71875 47.46875 10.453125 49.421875 
Q 12.5 50.921875 16.03125 51.96875 
Q 19.578125 53.03125 23.640625 53.03125 
Q 29.734375 53.03125 34.34375 51.265625 
Q 38.96875 49.515625 41.15625 46.5 
Q 43.359375 43.5 44.1875 38.484375 
L 35.59375 37.3125 
Q 35.015625 41.3125 32.203125 43.546875 
Q 29.390625 45.796875 24.265625 45.796875 
Q 18.21875 45.796875 15.625 43.796875 
Q 13.03125 41.796875 13.03125 39.109375 
Q 13.03125 37.40625 14.109375 36.03125 
Q 15.1875 34.625 17.484375 33.6875 
Q 18.796875 33.203125 25.25 31.453125 
Q 34.578125 28.953125 38.25 27.359375 
Q 41.9375 25.78125 44.03125 22.75 
Q 46.140625 19.734375 46.140625 15.234375 
Q 46.140625 10.84375 43.578125 6.953125 
Q 41.015625 3.078125 36.171875 0.953125 
Q 31.34375 -1.171875 25.25 -1.171875 
Q 15.140625 -1.171875 9.84375 3.03125 
Q 4.546875 7.234375 3.078125 15.484375 
z
" id="ArialMT-115"/>
      <path d="M 6.640625 61.46875 
L 6.640625 71.578125 
L 15.4375 71.578125 
L 15.4375 61.46875 
z
M 6.640625 0 
L 6.640625 51.859375 
L 15.4375 51.859375 
L 15.4375 0 
z
" id="ArialMT-105"/>
      <path d="M 1.953125 0 
L 1.953125 7.125 
L 34.96875 45.015625 
Q 29.34375 44.734375 25.046875 44.734375 
L 3.90625 44.734375 
L 3.90625 51.859375 
L 46.296875 51.859375 
L 46.296875 46.046875 
L 18.21875 13.140625 
L 12.796875 7.125 
Q 18.703125 7.5625 23.875 7.5625 
L 47.859375 7.5625 
L 47.859375 0 
z
" id="ArialMT-122"/>
     </defs>
     <g transform="translate(106.387202 168.743415)scale(0.07497 -0.07497)">
      <use xlink:href="#ArialMT-67"/>
      <use x="72.216797" xlink:href="#ArialMT-108"/>
      <use x="94.433594" xlink:href="#ArialMT-111"/>
      <use x="150.048828" xlink:href="#ArialMT-110"/>
      <use x="205.664062" xlink:href="#ArialMT-101"/>
      <use x="261.279297" xlink:href="#ArialMT-32"/>
      <use x="289.0625" xlink:href="#ArialMT-115"/>
      <use x="339.0625" xlink:href="#ArialMT-105"/>
      <use x="361.279297" xlink:href="#ArialMT-122"/>
      <use x="411.279297" xlink:href="#ArialMT-101"/>
     </g>
    </g>
   </g>
   <g id="matplotlib.axis_2">
    <g id="ytick_1">
     <g id="line2d_44">
      <defs>
       <path d="M 2 0 
L -2 -0 
" id="m410674ab77" style="stroke:#000000;stroke-width:0.8;"/>
      </defs>
      <g>
       <use style="stroke:#000000;stroke-width:0.8;" x="31.826531" xlink:href="#m410674ab77" y="141.790691"/>
      </g>
     </g>
     <g id="text_7">
      <!-- $\mathdefault{10^{0}}$ -->
      <g transform="translate(15.556241 145.656332)scale(0.07497 -0.07497)">
       <use transform="translate(0 0.99375)" xlink:href="#ArialMT-49"/>
       <use transform="translate(55.615234 0.99375)" xlink:href="#ArialMT-48"/>
       <use transform="translate(112.972813 70.6875)scale(0.7)" xlink:href="#ArialMT-48"/>
      </g>
     </g>
    </g>
    <g id="ytick_2">
     <g id="line2d_45">
      <g>
       <use style="stroke:#000000;stroke-width:0.8;" x="31.826531" xlink:href="#m410674ab77" y="109.100057"/>
      </g>
     </g>
     <g id="text_8">
      <!-- $\mathdefault{10^{1}}$ -->
      <g transform="translate(15.556241 112.965698)scale(0.07497 -0.07497)">
       <use transform="translate(0 0.99375)" xlink:href="#ArialMT-49"/>
       <use transform="translate(55.615234 0.99375)" xlink:href="#ArialMT-48"/>
       <use transform="translate(112.972813 70.6875)scale(0.7)" xlink:href="#ArialMT-49"/>
      </g>
     </g>
    </g>
    <g id="ytick_3">
     <g id="line2d_46">
      <g>
       <use style="stroke:#000000;stroke-width:0.8;" x="31.826531" xlink:href="#m410674ab77" y="76.409423"/>
      </g>
     </g>
     <g id="text_9">
      <!-- $\mathdefault{10^{2}}$ -->
      <g transform="translate(15.556241 80.275064)scale(0.07497 -0.07497)">
       <use transform="translate(0 0.99375)" xlink:href="#ArialMT-49"/>
       <use transform="translate(55.615234 0.99375)" xlink:href="#ArialMT-48"/>
       <use transform="translate(112.972813 70.6875)scale(0.7)" xlink:href="#ArialMT-50"/>
      </g>
     </g>
    </g>
    <g id="ytick_4">
     <g id="line2d_47">
      <g>
       <use style="stroke:#000000;stroke-width:0.8;" x="31.826531" xlink:href="#m410674ab77" y="43.718789"/>
      </g>
     </g>
     <g id="text_10">
      <!-- $\mathdefault{10^{3}}$ -->
      <g transform="translate(15.556241 47.58443)scale(0.07497 -0.07497)">
       <use transform="translate(0 0.99375)" xlink:href="#ArialMT-49"/>
       <use transform="translate(55.615234 0.99375)" xlink:href="#ArialMT-48"/>
       <use transform="translate(112.972813 70.6875)scale(0.7)" xlink:href="#ArialMT-51"/>
      </g>
     </g>
    </g>
    <g id="ytick_5">
     <g id="line2d_48">
      <g>
       <use style="stroke:#000000;stroke-width:0.8;" x="31.826531" xlink:href="#m410674ab77" y="11.028156"/>
      </g>
     </g>
     <g id="text_11">
      <!-- $\mathdefault{10^{4}}$ -->
      <g transform="translate(15.556241 14.856311)scale(0.07497 -0.07497)">
       <use transform="translate(0 0.201563)" xlink:href="#ArialMT-49"/>
       <use transform="translate(55.615234 0.201563)" xlink:href="#ArialMT-48"/>
       <use transform="translate(112.972813 69.895313)scale(0.7)" xlink:href="#ArialMT-52"/>
      </g>
     </g>
    </g>
    <g id="ytick_6">
     <g id="line2d_49">
      <defs>
       <path d="M 1 0 
L -1 -0 
" id="me11f5a31c5" style="stroke:#000000;stroke-width:0.4;"/>
      </defs>
      <g>
       <use style="stroke:#000000;stroke-width:0.4;" x="31.826531" xlink:href="#me11f5a31c5" y="146.854534"/>
      </g>
     </g>
    </g>
    <g id="ytick_7">
     <g id="line2d_50">
      <g>
       <use style="stroke:#000000;stroke-width:0.4;" x="31.826531" xlink:href="#me11f5a31c5" y="144.958741"/>
      </g>
     </g>
    </g>
    <g id="ytick_8">
     <g id="line2d_51">
      <g>
       <use style="stroke:#000000;stroke-width:0.4;" x="31.826531" xlink:href="#me11f5a31c5" y="143.286532"/>
      </g>
     </g>
    </g>
    <g id="ytick_9">
     <g id="line2d_52">
      <g>
       <use style="stroke:#000000;stroke-width:0.4;" x="31.826531" xlink:href="#me11f5a31c5" y="131.94983"/>
      </g>
     </g>
    </g>
    <g id="ytick_10">
     <g id="line2d_53">
      <g>
       <use style="stroke:#000000;stroke-width:0.4;" x="31.826531" xlink:href="#me11f5a31c5" y="126.193295"/>
      </g>
     </g>
    </g>
    <g id="ytick_11">
     <g id="line2d_54">
      <g>
       <use style="stroke:#000000;stroke-width:0.4;" x="31.826531" xlink:href="#me11f5a31c5" y="122.108968"/>
      </g>
     </g>
    </g>
    <g id="ytick_12">
     <g id="line2d_55">
      <g>
       <use style="stroke:#000000;stroke-width:0.4;" x="31.826531" xlink:href="#me11f5a31c5" y="118.940919"/>
      </g>
     </g>
    </g>
    <g id="ytick_13">
     <g id="line2d_56">
      <g>
       <use style="stroke:#000000;stroke-width:0.4;" x="31.826531" xlink:href="#me11f5a31c5" y="116.352433"/>
      </g>
     </g>
    </g>
    <g id="ytick_14">
     <g id="line2d_57">
      <g>
       <use style="stroke:#000000;stroke-width:0.4;" x="31.826531" xlink:href="#me11f5a31c5" y="114.1639"/>
      </g>
     </g>
    </g>
    <g id="ytick_15">
     <g id="line2d_58">
      <g>
       <use style="stroke:#000000;stroke-width:0.4;" x="31.826531" xlink:href="#me11f5a31c5" y="112.268107"/>
      </g>
     </g>
    </g>
    <g id="ytick_16">
     <g id="line2d_59">
      <g>
       <use style="stroke:#000000;stroke-width:0.4;" x="31.826531" xlink:href="#me11f5a31c5" y="110.595899"/>
      </g>
     </g>
    </g>
    <g id="ytick_17">
     <g id="line2d_60">
      <g>
       <use style="stroke:#000000;stroke-width:0.4;" x="31.826531" xlink:href="#me11f5a31c5" y="99.259196"/>
      </g>
     </g>
    </g>
    <g id="ytick_18">
     <g id="line2d_61">
      <g>
       <use style="stroke:#000000;stroke-width:0.4;" x="31.826531" xlink:href="#me11f5a31c5" y="93.502661"/>
      </g>
     </g>
    </g>
    <g id="ytick_19">
     <g id="line2d_62">
      <g>
       <use style="stroke:#000000;stroke-width:0.4;" x="31.826531" xlink:href="#me11f5a31c5" y="89.418334"/>
      </g>
     </g>
    </g>
    <g id="ytick_20">
     <g id="line2d_63">
      <g>
       <use style="stroke:#000000;stroke-width:0.4;" x="31.826531" xlink:href="#me11f5a31c5" y="86.250285"/>
      </g>
     </g>
    </g>
    <g id="ytick_21">
     <g id="line2d_64">
      <g>
       <use style="stroke:#000000;stroke-width:0.4;" x="31.826531" xlink:href="#me11f5a31c5" y="83.6618"/>
      </g>
     </g>
    </g>
    <g id="ytick_22">
     <g id="line2d_65">
      <g>
       <use style="stroke:#000000;stroke-width:0.4;" x="31.826531" xlink:href="#me11f5a31c5" y="81.473267"/>
      </g>
     </g>
    </g>
    <g id="ytick_23">
     <g id="line2d_66">
      <g>
       <use style="stroke:#000000;stroke-width:0.4;" x="31.826531" xlink:href="#me11f5a31c5" y="79.577473"/>
      </g>
     </g>
    </g>
    <g id="ytick_24">
     <g id="line2d_67">
      <g>
       <use style="stroke:#000000;stroke-width:0.4;" x="31.826531" xlink:href="#me11f5a31c5" y="77.905265"/>
      </g>
     </g>
    </g>
    <g id="ytick_25">
     <g id="line2d_68">
      <g>
       <use style="stroke:#000000;stroke-width:0.4;" x="31.826531" xlink:href="#me11f5a31c5" y="66.568562"/>
      </g>
     </g>
    </g>
    <g id="ytick_26">
     <g id="line2d_69">
      <g>
       <use style="stroke:#000000;stroke-width:0.4;" x="31.826531" xlink:href="#me11f5a31c5" y="60.812027"/>
      </g>
     </g>
    </g>
    <g id="ytick_27">
     <g id="line2d_70">
      <g>
       <use style="stroke:#000000;stroke-width:0.4;" x="31.826531" xlink:href="#me11f5a31c5" y="56.727701"/>
      </g>
     </g>
    </g>
    <g id="ytick_28">
     <g id="line2d_71">
      <g>
       <use style="stroke:#000000;stroke-width:0.4;" x="31.826531" xlink:href="#me11f5a31c5" y="53.559651"/>
      </g>
     </g>
    </g>
    <g id="ytick_29">
     <g id="line2d_72">
      <g>
       <use style="stroke:#000000;stroke-width:0.4;" x="31.826531" xlink:href="#me11f5a31c5" y="50.971166"/>
      </g>
     </g>
    </g>
    <g id="ytick_30">
     <g id="line2d_73">
      <g>
       <use style="stroke:#000000;stroke-width:0.4;" x="31.826531" xlink:href="#me11f5a31c5" y="48.782633"/>
      </g>
     </g>
    </g>
    <g id="ytick_31">
     <g id="line2d_74">
      <g>
       <use style="stroke:#000000;stroke-width:0.4;" x="31.826531" xlink:href="#me11f5a31c5" y="46.886839"/>
      </g>
     </g>
    </g>
    <g id="ytick_32">
     <g id="line2d_75">
      <g>
       <use style="stroke:#000000;stroke-width:0.4;" x="31.826531" xlink:href="#me11f5a31c5" y="45.214631"/>
      </g>
     </g>
    </g>
    <g id="ytick_33">
     <g id="line2d_76">
      <g>
       <use style="stroke:#000000;stroke-width:0.4;" x="31.826531" xlink:href="#me11f5a31c5" y="33.877928"/>
      </g>
     </g>
    </g>
    <g id="ytick_34">
     <g id="line2d_77">
      <g>
       <use style="stroke:#000000;stroke-width:0.4;" x="31.826531" xlink:href="#me11f5a31c5" y="28.121393"/>
      </g>
     </g>
    </g>
    <g id="ytick_35">
     <g id="line2d_78">
      <g>
       <use style="stroke:#000000;stroke-width:0.4;" x="31.826531" xlink:href="#me11f5a31c5" y="24.037067"/>
      </g>
     </g>
    </g>
    <g id="ytick_36">
     <g id="line2d_79">
      <g>
       <use style="stroke:#000000;stroke-width:0.4;" x="31.826531" xlink:href="#me11f5a31c5" y="20.869017"/>
      </g>
     </g>
    </g>
    <g id="ytick_37">
     <g id="line2d_80">
      <g>
       <use style="stroke:#000000;stroke-width:0.4;" x="31.826531" xlink:href="#me11f5a31c5" y="18.280532"/>
      </g>
     </g>
    </g>
    <g id="ytick_38">
     <g id="line2d_81">
      <g>
       <use style="stroke:#000000;stroke-width:0.4;" x="31.826531" xlink:href="#me11f5a31c5" y="16.091999"/>
      </g>
     </g>
    </g>
    <g id="ytick_39">
     <g id="line2d_82">
      <g>
       <use style="stroke:#000000;stroke-width:0.4;" x="31.826531" xlink:href="#me11f5a31c5" y="14.196205"/>
      </g>
     </g>
    </g>
    <g id="ytick_40">
     <g id="line2d_83">
      <g>
       <use style="stroke:#000000;stroke-width:0.4;" x="31.826531" xlink:href="#me11f5a31c5" y="12.523997"/>
      </g>
     </g>
    </g>
    <g id="text_12">
     <!-- Clone size rank -->
     <defs>
      <path d="M 6.5 0 
L 6.5 51.859375 
L 14.40625 51.859375 
L 14.40625 44 
Q 17.4375 49.515625 20 51.265625 
Q 22.5625 53.03125 25.640625 53.03125 
Q 30.078125 53.03125 34.671875 50.203125 
L 31.640625 42.046875 
Q 28.421875 43.953125 25.203125 43.953125 
Q 22.3125 43.953125 20.015625 42.21875 
Q 17.71875 40.484375 16.75 37.40625 
Q 15.28125 32.71875 15.28125 27.15625 
L 15.28125 0 
z
" id="ArialMT-114"/>
      <path d="M 40.4375 6.390625 
Q 35.546875 2.25 31.03125 0.53125 
Q 26.515625 -1.171875 21.34375 -1.171875 
Q 12.796875 -1.171875 8.203125 3 
Q 3.609375 7.171875 3.609375 13.671875 
Q 3.609375 17.484375 5.34375 20.625 
Q 7.078125 23.78125 9.890625 25.6875 
Q 12.703125 27.59375 16.21875 28.5625 
Q 18.796875 29.25 24.03125 29.890625 
Q 34.671875 31.15625 39.703125 32.90625 
Q 39.75 34.71875 39.75 35.203125 
Q 39.75 40.578125 37.25 42.78125 
Q 33.890625 45.75 27.25 45.75 
Q 21.046875 45.75 18.09375 43.578125 
Q 15.140625 41.40625 13.71875 35.890625 
L 5.125 37.0625 
Q 6.296875 42.578125 8.984375 45.96875 
Q 11.671875 49.359375 16.75 51.1875 
Q 21.828125 53.03125 28.515625 53.03125 
Q 35.15625 53.03125 39.296875 51.46875 
Q 43.453125 49.90625 45.40625 47.53125 
Q 47.359375 45.171875 48.140625 41.546875 
Q 48.578125 39.3125 48.578125 33.453125 
L 48.578125 21.734375 
Q 48.578125 9.46875 49.140625 6.21875 
Q 49.703125 2.984375 51.375 0 
L 42.1875 0 
Q 40.828125 2.734375 40.4375 6.390625 
z
M 39.703125 26.03125 
Q 34.90625 24.078125 25.34375 22.703125 
Q 19.921875 21.921875 17.671875 20.9375 
Q 15.4375 19.96875 14.203125 18.09375 
Q 12.984375 16.21875 12.984375 13.921875 
Q 12.984375 10.40625 15.640625 8.0625 
Q 18.3125 5.71875 23.4375 5.71875 
Q 28.515625 5.71875 32.46875 7.9375 
Q 36.421875 10.15625 38.28125 14.015625 
Q 39.703125 17 39.703125 22.796875 
z
" id="ArialMT-97"/>
      <path d="M 6.640625 0 
L 6.640625 71.578125 
L 15.4375 71.578125 
L 15.4375 30.765625 
L 36.234375 51.859375 
L 47.609375 51.859375 
L 27.78125 32.625 
L 49.609375 0 
L 38.765625 0 
L 21.625 26.515625 
L 15.4375 20.5625 
L 15.4375 0 
z
" id="ArialMT-107"/>
     </defs>
     <g transform="translate(12.566212 103.97228)rotate(-90)scale(0.07497 -0.07497)">
      <use xlink:href="#ArialMT-67"/>
      <use x="72.216797" xlink:href="#ArialMT-108"/>
      <use x="94.433594" xlink:href="#ArialMT-111"/>
      <use x="150.048828" xlink:href="#ArialMT-110"/>
      <use x="205.664062" xlink:href="#ArialMT-101"/>
      <use x="261.279297" xlink:href="#ArialMT-32"/>
      <use x="289.0625" xlink:href="#ArialMT-115"/>
      <use x="339.0625" xlink:href="#ArialMT-105"/>
      <use x="361.279297" xlink:href="#ArialMT-122"/>
      <use x="411.279297" xlink:href="#ArialMT-101"/>
      <use x="466.894531" xlink:href="#ArialMT-32"/>
      <use x="494.677734" xlink:href="#ArialMT-114"/>
      <use x="527.978516" xlink:href="#ArialMT-97"/>
      <use x="583.59375" xlink:href="#ArialMT-110"/>
      <use x="639.208984" xlink:href="#ArialMT-107"/>
     </g>
    </g>
   </g>
   <g id="line2d_84">
    <path clip-path="url(#p34a6377460)" d="M 207.580266 178.433444 
L 207.580266 141.790691 
L 175.254423 141.790691 
L 175.254423 131.94983 
L 162.957597 131.94983 
L 162.957597 126.193295 
L 159.371316 126.193295 
L 159.371316 122.108968 
L 156.342088 122.108968 
L 156.342088 118.940919 
L 153.456507 118.940919 
L 153.456507 116.352433 
L 153.244981 116.352433 
L 153.244981 114.1639 
L 150.511894 114.1639 
L 150.511894 112.268107 
L 135.97809 112.268107 
L 135.97809 110.595899 
L 135.724105 110.595899 
L 135.724105 109.100057 
L 134.991461 109.100057 
L 134.991461 107.746904 
L 134.557755 107.746904 
L 134.557755 106.511572 
L 134.336559 106.511572 
L 134.336559 105.375177 
L 133.18389 105.375177 
L 133.18389 104.323039 
L 133.064077 104.323039 
L 133.064077 103.343522 
L 132.263386 103.343522 
L 132.263386 102.427246 
L 130.882001 102.427246 
L 130.882001 101.566536 
L 128.83996 101.566536 
L 128.83996 100.755037 
L 126.239384 100.755037 
L 126.239384 99.987425 
L 125.778794 99.987425 
L 125.778794 99.259196 
L 125.305005 99.259196 
L 125.305005 98.566504 
L 124.817238 98.566504 
L 124.817238 97.906043 
L 124.618029 97.906043 
L 124.618029 97.274945 
L 124.416391 97.274945 
L 124.416391 96.670711 
L 123.901268 96.670711 
L 123.901268 96.091146 
L 123.58431 96.091146 
L 123.58431 95.534315 
L 123.152021 95.534315 
L 123.152021 94.482178 
L 121.901424 94.482178 
L 121.901424 93.983974 
L 121.422141 93.983974 
L 121.422141 93.502661 
L 120.802813 93.502661 
L 120.802813 93.037132 
L 120.419767 93.037132 
L 120.419767 92.149508 
L 119.76095 92.149508 
L 119.76095 91.725675 
L 119.625977 91.725675 
L 119.625977 91.314128 
L 119.352679 91.314128 
L 119.352679 90.914176 
L 119.074789 90.914176 
L 119.074789 90.525183 
L 117.763026 90.525183 
L 117.763026 89.777781 
L 117.610637 89.777781 
L 117.610637 89.418334 
L 117.301579 89.418334 
L 117.301579 89.067764 
L 115.490065 89.067764 
L 115.490065 88.725643 
L 114.959514 88.725643 
L 114.959514 88.391572 
L 114.03558 88.391572 
L 114.03558 88.065181 
L 113.844432 88.065181 
L 113.844432 87.434084 
L 113.455376 87.434084 
L 113.455376 86.829849 
L 113.056945 86.829849 
L 113.056945 86.53711 
L 112.854069 86.53711 
L 112.854069 85.96914 
L 112.648674 85.96914 
L 112.648674 85.693454 
L 112.230067 85.693454 
L 112.230067 84.897132 
L 111.800585 84.897132 
L 111.800585 84.641316 
L 111.359649 84.641316 
L 111.359649 84.390029 
L 111.134692 84.390029 
L 111.134692 84.143112 
L 110.906632 84.143112 
L 110.906632 83.900416 
L 110.675381 83.900416 
L 110.675381 83.6618 
L 110.202946 83.6618 
L 110.202946 83.427127 
L 109.215542 83.427127 
L 109.215542 82.308646 
L 108.959194 82.308646 
L 108.959194 81.884813 
L 108.434257 81.884813 
L 108.434257 81.677549 
L 108.165404 81.677549 
L 108.165404 81.073314 
L 107.892107 81.073314 
L 107.892107 80.49375 
L 107.614216 80.49375 
L 107.614216 80.305703 
L 107.331575 80.305703 
L 107.331575 80.120113 
L 107.044018 80.120113 
L 107.044018 79.226903 
L 106.751371 79.226903 
L 106.751371 78.716763 
L 106.453451 78.716763 
L 106.453451 78.55071 
L 106.150064 78.55071 
L 106.150064 78.386577 
L 105.526061 78.386577 
L 105.526061 78.22432 
L 105.205 78.22432 
L 105.205 77.748386 
L 104.877582 77.748386 
L 104.877582 77.593222 
L 104.543548 77.593222 
L 104.543548 76.988988 
L 103.854527 76.988988 
L 103.854527 76.552112 
L 103.498941 76.552112 
L 103.498941 76.268155 
L 103.135539 76.268155 
L 103.135539 75.989766 
L 102.76397 75.989766 
L 102.76397 75.852593 
L 102.383859 75.852593 
L 102.383859 75.716732 
L 101.994803 75.716732 
L 101.994803 75.185927 
L 101.596372 75.185927 
L 101.596372 73.820938 
L 101.188101 73.820938 
L 101.188101 73.470368 
L 100.769494 73.470368 
L 100.769494 73.241374 
L 100.340012 73.241374 
L 100.340012 73.128247 
L 99.899076 73.128247 
L 99.899076 72.684543 
L 99.446059 72.684543 
L 99.446059 72.57575 
L 99.446059 72.14873 
L 98.980278 72.14873 
L 98.980278 72.043952 
L 98.980278 71.632405 
L 98.500995 71.632405 
L 98.500995 71.531356 
L 98.500995 71.036624 
L 98.007403 71.036624 
L 98.007403 70.939714 
L 98.007403 70.747854 
L 96.973684 70.652888 
L 96.973684 70.096058 
L 96.431534 70.096058 
L 96.431534 70.00534 
L 96.431534 69.560245 
L 95.871002 69.560245 
L 95.871002 69.472876 
L 95.871002 68.792633 
L 95.290798 68.792633 
L 95.290798 68.709849 
L 95.290798 67.752361 
L 94.689491 67.752361 
L 94.689491 67.67541 
L 94.689491 66.928008 
L 94.065488 66.928008 
L 94.065488 66.855387 
L 94.065488 66.427294 
L 93.417009 66.427294 
L 93.417009 66.357183 
L 93.417009 65.475918 
L 92.742053 65.475918 
L 92.742053 65.410341 
L 92.742053 64.833394 
L 92.038368 64.833394 
L 92.038368 64.770712 
L 92.038368 64.27898 
L 91.303397 64.27898 
L 91.303397 64.218694 
L 91.303397 63.571911 
L 90.53423 63.571911 
L 90.53423 63.514548 
L 90.53423 62.734889 
L 89.727528 62.680804 
L 89.727528 62.626924 
L 89.727528 62.255383 
L 88.879439 62.255383 
L 88.879439 62.15099 
L 88.879439 61.050644 
L 87.985486 61.050644 
L 87.985486 60.954715 
L 87.985486 60.074336 
L 87.040422 60.074336 
L 87.040422 59.984762 
L 87.040422 59.287819 
L 86.038048 59.287819 
L 86.038048 59.203059 
L 86.038048 58.342349 
L 84.970961 58.342349 
L 84.970961 58.263034 
L 84.970961 57.493341 
L 83.830225 57.493341 
L 83.830225 57.418618 
L 83.830225 56.551334 
L 82.604915 56.551334 
L 82.604915 56.446556 
L 82.604915 55.342317 
L 81.28148 55.342317 
L 81.28148 55.246064 
L 81.28148 54.109668 
L 79.842825 54.109668 
L 79.842825 54.021394 
L 79.842825 52.786062 
L 78.266955 52.786062 
L 78.266955 52.678912 
L 78.266955 50.971166 
L 76.524913 50.971166 
L 76.524913 50.876831 
L 76.524913 49.489529 
L 74.577475 49.489529 
L 74.577475 49.38334 
L 74.577475 47.392651 
L 72.369652 47.392651 
L 72.369652 47.282736 
L 72.369652 45.421199 
L 69.820907 45.405202 
L 69.820907 45.325486 
L 69.820907 42.77149 
L 66.806382 42.77149 
L 66.806382 42.665638 
L 66.806382 39.468616 
L 63.116902 39.468616 
L 63.116902 39.363761 
L 63.116902 35.580338 
L 58.360335 35.580338 
L 58.360335 35.476678 
L 58.360335 30.898531 
L 51.656329 30.898531 
L 51.656329 30.789607 
L 51.656329 24.855248 
L 40.195756 24.855248 
L 40.195756 24.746628 
L 40.195756 14.617673 
L 40.195756 14.617673 
" style="fill:none;stroke:#006d2c;stroke-linecap:round;stroke-width:0.8;"/>
   </g>
   <g id="line2d_85">
    <path clip-path="url(#p34a6377460)" d="M 191.717526 178.433444 
L 191.717526 141.790691 
L 185.240513 141.790691 
L 185.240513 131.94983 
L 183.593271 131.94983 
L 183.593271 126.193295 
L 177.706477 126.193295 
L 177.706477 122.108968 
L 174.918285 122.108968 
L 174.918285 118.940919 
L 160.518583 118.940919 
L 160.518583 116.352433 
L 157.885831 116.352433 
L 157.885831 114.1639 
L 157.751297 114.1639 
L 157.751297 112.268107 
L 155.466104 112.268107 
L 155.466104 110.595899 
L 144.129151 110.595899 
L 144.129151 109.100057 
L 143.974481 109.100057 
L 143.974481 107.746904 
L 142.547123 107.746904 
L 142.547123 106.511572 
L 141.855218 106.511572 
L 141.855218 105.375177 
L 141.534157 105.375177 
L 141.534157 104.323039 
L 137.880659 104.323039 
L 137.880659 103.343522 
L 137.004169 103.343522 
L 137.004169 102.427246 
L 132.513908 102.427246 
L 132.513908 101.566536 
L 132.263386 101.566536 
L 132.263386 100.755037 
L 131.75066 100.755037 
L 131.75066 99.987425 
L 129.598538 99.987425 
L 129.598538 99.259196 
L 128.287456 99.259196 
L 128.287456 98.566504 
L 126.420087 98.566504 
L 126.420087 97.906043 
L 126.239384 97.906043 
L 126.239384 97.274945 
L 125.685116 97.274945 
L 125.685116 96.670711 
L 124.915949 96.670711 
L 124.817238 95.534315 
L 124.717933 95.534315 
L 124.717933 94.998502 
L 124.109247 94.998502 
L 124.109247 94.482178 
L 123.477293 94.482178 
L 123.477293 93.983974 
L 122.820222 93.983974 
L 122.820222 93.502661 
L 122.367204 93.502661 
L 122.367204 93.037132 
L 121.053335 93.037132 
L 121.053335 92.586384 
L 120.928549 92.586384 
L 120.928549 92.149508 
L 119.352679 92.149508 
L 119.352679 91.725675 
L 118.063655 91.725675 
L 118.063655 91.314128 
L 117.610637 91.314128 
L 117.610637 90.525183 
L 117.45683 90.525183 
L 117.45683 90.146564 
L 117.301579 90.146564 
L 117.301579 89.777781 
L 117.144857 89.777781 
L 117.144857 89.418334 
L 116.826883 89.418334 
L 116.826883 88.725643 
L 116.502674 88.725643 
L 116.502674 88.391572 
L 116.004121 88.391572 
L 116.004121 87.746126 
L 115.834539 87.746126 
L 115.834539 87.434084 
L 115.3151 87.434084 
L 115.3151 86.829849 
L 115.138263 86.829849 
L 115.138263 86.250285 
L 114.596112 86.250285 
L 114.596112 85.693454 
L 114.411371 85.693454 
L 114.411371 85.42302 
L 114.224543 85.42302 
L 114.224543 85.157641 
L 114.03558 85.157641 
L 114.03558 84.641316 
L 113.056945 84.641316 
L 113.056945 84.390029 
L 112.854069 84.390029 
L 112.854069 84.143112 
L 112.440695 84.143112 
L 112.440695 83.900416 
L 112.230067 83.900416 
L 112.230067 83.6618 
L 111.359649 83.6618 
L 111.359649 83.427127 
L 110.906632 83.427127 
L 110.906632 83.196271 
L 110.675381 83.196271 
L 110.675381 82.969108 
L 110.440851 82.969108 
L 110.440851 82.745523 
L 109.716614 82.745523 
L 109.716614 82.308646 
L 109.467976 82.308646 
L 109.467976 82.095148 
L 109.215542 82.095148 
L 109.215542 81.884813 
L 108.959194 81.884813 
L 108.959194 81.677549 
L 108.698809 81.677549 
L 108.698809 81.473267 
L 108.165404 81.473267 
L 108.165404 80.877486 
L 107.892107 80.877486 
L 107.892107 80.684321 
L 107.614216 80.684321 
L 107.614216 80.305703 
L 107.044018 80.305703 
L 107.044018 80.120113 
L 106.751371 80.120113 
L 106.751371 79.936919 
L 105.841006 79.936919 
L 105.841006 79.756059 
L 104.877582 79.756059 
L 104.877582 78.884781 
L 104.543548 78.884781 
L 104.543548 78.55071 
L 103.854527 78.55071 
L 103.854527 78.063896 
L 103.498941 78.063896 
L 103.498941 77.748386 
L 103.135539 77.748386 
L 103.135539 77.287891 
L 102.383859 77.287891 
L 102.383859 76.268155 
L 101.994803 76.268155 
L 101.994803 75.989766 
L 101.596372 75.989766 
L 101.596372 75.448849 
L 101.188101 75.448849 
L 101.188101 75.185927 
L 100.769494 75.185927 
L 100.769494 74.927786 
L 100.340012 74.927786 
L 100.340012 74.549168 
L 99.899076 74.549168 
L 99.899076 73.820938 
L 99.446059 73.820938 
L 99.446059 73.128247 
L 98.980278 73.128247 
L 98.980278 72.684543 
L 98.500995 72.684543 
L 98.500995 72.57575 
L 98.500995 71.734179 
L 98.007403 71.734179 
L 98.007403 71.632405 
L 98.007403 71.531356 
L 97.498621 71.531356 
L 97.498621 71.431021 
L 97.498621 71.134201 
L 96.973684 71.134201 
L 96.973684 71.036624 
L 96.973684 70.652888 
L 96.431534 70.652888 
L 96.431534 70.558553 
L 96.431534 69.915197 
L 95.871002 69.915197 
L 95.871002 69.825624 
L 95.871002 69.386042 
L 95.290798 69.386042 
L 95.290798 69.299735 
L 95.290798 68.875902 
L 94.689491 68.875902 
L 94.689491 68.792633 
L 94.689491 68.464355 
L 94.065488 68.464355 
L 94.065488 68.383459 
L 94.065488 68.064403 
L 93.417009 68.064403 
L 93.417009 67.985747 
L 93.417009 67.296791 
L 92.742053 67.296791 
L 92.742053 67.222264 
L 92.742053 66.568562 
L 92.038368 66.568562 
L 92.038368 66.497752 
L 92.038368 65.87587 
L 91.303397 65.87587 
L 91.303397 65.808424 
L 91.303397 65.023117 
L 90.53423 65.023117 
L 90.53423 64.959594 
L 90.53423 64.218694 
L 89.727528 64.158662 
L 89.727528 64.158662 
L 89.727528 63.629507 
L 88.879439 63.629507 
L 88.879439 63.571911 
L 88.879439 62.4665 
L 87.985486 62.4665 
L 87.985486 62.360549 
L 87.985486 61.440974 
L 87.040422 61.440974 
L 87.040422 61.342381 
L 87.040422 60.484561 
L 86.038048 60.484561 
L 86.038048 60.39237 
L 86.038048 59.203059 
L 84.970961 59.203059 
L 84.970961 59.118801 
L 84.970961 58.18416 
L 83.830225 58.18416 
L 83.830225 58.105721 
L 83.830225 57.05079 
L 82.604915 57.05079 
L 82.604915 56.942274 
L 82.604915 55.866991 
L 81.28148 55.866991 
L 81.28148 55.767126 
L 81.28148 54.317801 
L 79.842825 54.317801 
L 79.842825 54.228227 
L 79.842825 52.94832 
L 78.266955 52.94832 
L 78.266955 52.839942 
L 78.266955 51.5754 
L 76.524913 51.5754 
L 76.524913 51.476978 
L 76.524913 49.769395 
L 74.577475 49.769395 
L 74.577475 49.6611 
L 74.577475 47.392651 
L 72.369652 47.392651 
L 72.369652 47.282736 
L 72.369652 44.979958 
L 69.820907 44.964451 
L 69.820907 44.871758 
L 69.820907 42.352736 
L 66.806382 42.352736 
L 66.806382 42.249949 
L 66.806382 39.218252 
L 63.116902 39.218252 
L 63.116902 39.115223 
L 63.116902 35.757505 
L 58.360335 35.757505 
L 58.360335 35.652549 
L 58.360335 30.812469 
L 51.656329 30.812469 
L 51.656329 30.704201 
L 51.656329 24.572334 
L 40.195756 24.572334 
L 40.195756 24.462191 
L 40.195756 14.486653 
L 40.195756 14.486653 
" style="fill:none;stroke:#31a354;stroke-linecap:round;stroke-width:0.8;"/>
   </g>
   <g id="line2d_86">
    <path clip-path="url(#p34a6377460)" d="M 189.335889 178.433444 
L 189.335889 141.790691 
L 178.804597 141.790691 
L 178.804597 131.94983 
L 176.161691 131.94983 
L 176.161691 126.193295 
L 166.605616 126.193295 
L 166.605616 122.108968 
L 166.478613 122.108968 
L 166.478613 118.940919 
L 164.767529 118.940919 
L 164.767529 116.352433 
L 161.408326 116.352433 
L 161.408326 114.1639 
L 160.11374 114.1639 
L 160.11374 112.268107 
L 158.3743 112.268107 
L 158.269901 109.100057 
L 154.962168 109.100057 
L 154.962168 107.746904 
L 149.696818 107.746904 
L 149.696818 106.511572 
L 149.115044 106.511572 
L 149.115044 105.375177 
L 148.769852 105.375177 
L 148.769852 104.323039 
L 147.93522 104.323039 
L 147.93522 103.343522 
L 146.344669 103.343522 
L 146.344669 102.427246 
L 145.657367 102.427246 
L 145.657367 101.566536 
L 144.464416 101.566536 
L 144.464416 100.755037 
L 141.206738 100.755037 
L 141.206738 99.987425 
L 138.014902 99.987425 
L 138.014902 99.259196 
L 135.97809 99.259196 
L 135.97809 98.566504 
L 134.502733 98.566504 
L 134.502733 97.906043 
L 132.57595 97.906043 
L 132.57595 97.274945 
L 131.9448 97.274945 
L 131.880339 96.091146 
L 130.744216 96.091146 
L 130.744216 95.534315 
L 129.819487 95.534315 
L 129.819487 94.998502 
L 128.526507 94.998502 
L 128.526507 94.482178 
L 126.863387 94.482178 
L 126.863387 93.983974 
L 126.598835 93.983974 
L 126.598835 93.502661 
L 126.329982 93.502661 
L 126.329982 93.037132 
L 125.871944 93.037132 
L 125.871944 92.586384 
L 125.111621 92.586384 
L 125.111621 92.149508 
L 124.817238 92.149508 
L 124.817238 91.725675 
L 123.477293 91.725675 
L 123.477293 91.314128 
L 122.931563 91.314128 
L 122.931563 90.914176 
L 122.367204 90.914176 
L 122.367204 90.525183 
L 122.019105 90.525183 
L 122.019105 90.146564 
L 121.663519 90.146564 
L 121.663519 89.777781 
L 121.053335 89.777781 
L 121.053335 89.418334 
L 120.928549 89.418334 
L 120.928549 89.067764 
L 120.159382 89.067764 
L 120.159382 88.725643 
L 119.89483 88.725643 
L 119.89483 88.391572 
L 119.76095 88.391572 
L 119.76095 88.065181 
L 119.074789 88.065181 
L 119.074789 87.434084 
L 118.648994 87.434084 
L 118.648994 87.128752 
L 118.358914 87.128752 
L 118.358914 86.829849 
L 118.211944 86.829849 
L 118.211944 86.53711 
L 117.914024 86.53711 
L 117.914024 86.250285 
L 117.45683 86.250285 
L 117.45683 85.96914 
L 117.144857 85.96914 
L 117.144857 85.693454 
L 116.665573 85.693454 
L 116.665573 84.897132 
L 116.338154 84.897132 
L 116.338154 84.641316 
L 116.004121 84.641316 
L 116.004121 84.390029 
L 115.834539 84.390029 
L 115.834539 84.143112 
L 115.490065 84.143112 
L 115.490065 83.6618 
L 115.138263 83.6618 
L 115.138263 83.427127 
L 114.959514 83.427127 
L 114.959514 83.196271 
L 114.778811 83.196271 
L 114.778811 82.969108 
L 114.596112 82.969108 
L 114.596112 82.525404 
L 114.411371 82.525404 
L 114.411371 82.308646 
L 114.03558 82.308646 
L 114.03558 82.095148 
L 113.844432 82.095148 
L 113.844432 81.884813 
L 113.25736 81.884813 
L 113.25736 81.271882 
L 111.581587 81.271882 
L 111.581587 81.073314 
L 111.134692 81.073314 
L 111.134692 80.877486 
L 110.906632 80.877486 
L 110.906632 80.120113 
L 110.675381 80.120113 
L 110.675381 79.756059 
L 110.440851 79.756059 
L 110.440851 79.054812 
L 109.961568 79.054812 
L 109.961568 78.386577 
L 109.467976 78.386577 
L 109.467976 78.22432 
L 109.215542 78.22432 
L 109.215542 77.287891 
L 108.959194 77.287891 
L 108.959194 76.988988 
L 108.434257 76.988988 
L 108.434257 76.841864 
L 108.165404 76.841864 
L 108.165404 76.409423 
L 107.614216 76.409423 
L 107.614216 76.128278 
L 107.331575 76.128278 
L 107.331575 75.852593 
L 107.044018 75.852593 
L 107.044018 75.716732 
L 106.751371 75.716732 
L 106.751371 75.582159 
L 106.150064 75.582159 
L 106.150064 75.448849 
L 105.841006 75.448849 
L 105.841006 75.05627 
L 105.205 75.05627 
L 105.205 74.674255 
L 104.877582 74.674255 
L 104.877582 74.549168 
L 104.543548 74.549168 
L 104.543548 74.059555 
L 104.202626 74.059555 
L 104.202626 73.703117 
L 103.854527 73.703117 
L 103.854527 73.586266 
L 103.498941 73.586266 
L 103.498941 73.355409 
L 103.135539 73.355409 
L 103.135539 73.016014 
L 102.76397 73.016014 
L 102.76397 72.684543 
L 102.383859 72.684543 
L 102.383859 72.57575 
L 102.383859 72.467785 
L 101.994803 72.467785 
L 101.994803 72.360635 
L 101.994803 72.14873 
L 101.188101 72.043952 
L 101.188101 71.33139 
L 100.769494 71.33139 
L 100.769494 71.232453 
L 100.769494 71.036624 
L 100.340012 71.036624 
L 100.340012 70.939714 
L 100.340012 70.652888 
L 99.446059 70.558553 
L 99.446059 70.371743 
L 98.980278 70.371743 
L 98.980278 70.279252 
L 98.980278 69.648154 
L 98.500995 69.648154 
L 98.500995 69.560245 
L 98.500995 68.959663 
L 98.007403 68.959663 
L 98.007403 68.875902 
L 98.007403 68.627545 
L 97.498621 68.627545 
L 97.498621 68.545716 
L 97.498621 68.223035 
L 96.973684 68.223035 
L 96.973684 68.143497 
L 96.973684 67.985747 
L 96.431534 67.985747 
L 96.431534 67.907525 
L 96.431534 67.447029 
L 95.871002 67.447029 
L 95.871002 67.371712 
L 95.871002 66.639727 
L 95.290798 66.639727 
L 95.290798 66.568562 
L 95.290798 66.427294 
L 94.689491 66.427294 
L 94.689491 66.357183 
L 94.689491 66.080152 
L 94.065488 66.080152 
L 94.065488 66.011731 
L 94.065488 65.475918 
L 93.417009 65.475918 
L 93.417009 65.410341 
L 93.417009 65.086925 
L 92.742053 65.086925 
L 92.742053 65.023117 
L 92.742053 64.098884 
L 92.038368 64.098884 
L 92.038368 64.039356 
L 92.038368 63.457416 
L 91.303397 63.457416 
L 91.303397 63.400512 
L 91.303397 62.898392 
L 90.53423 62.898392 
L 90.53423 62.789181 
L 90.53423 62.360549 
L 89.727528 62.307868 
L 89.727528 62.255383 
L 89.727528 61.391592 
L 88.879439 61.391592 
L 88.879439 61.29334 
L 88.879439 60.717692 
L 87.985486 60.717692 
L 87.985486 60.62398 
L 87.985486 59.33039 
L 87.040422 59.33039 
L 87.040422 59.245376 
L 87.040422 58.342349 
L 86.038048 58.342349 
L 86.038048 58.263034 
L 86.038048 57.606168 
L 84.970961 57.606168 
L 84.970961 57.53085 
L 84.970961 56.068853 
L 83.830225 56.068853 
L 83.830225 55.967563 
L 83.830225 55.118732 
L 82.604915 55.118732 
L 82.604915 55.023978 
L 82.604915 53.933666 
L 81.28148 53.933666 
L 81.28148 53.846476 
L 81.28148 52.894028 
L 79.842825 52.894028 
L 79.842825 52.786062 
L 79.842825 51.428021 
L 78.266955 51.428021 
L 78.266955 51.330612 
L 78.266955 49.704319 
L 76.524913 49.704319 
L 76.524913 49.596518 
L 76.524913 48.245317 
L 74.577475 48.245317 
L 74.577475 48.148008 
L 74.577475 46.312955 
L 72.369652 46.312955 
L 72.369652 46.211059 
L 72.369652 44.506924 
L 69.820907 44.491924 
L 69.820907 44.402256 
L 69.820907 42.008772 
L 66.806382 42.008772 
L 66.806382 41.908437 
L 66.806382 39.094707 
L 63.116902 39.094707 
L 63.116902 38.992567 
L 63.116902 35.500532 
L 58.360335 35.500532 
L 58.360335 35.389553 
L 58.360335 30.97933 
L 51.656329 30.97933 
L 51.656329 30.869786 
L 51.656329 24.664777 
L 40.195756 24.664777 
L 40.195756 24.553917 
L 40.195756 14.601229 
L 40.195756 14.601229 
" style="fill:none;stroke:#74c476;stroke-linecap:round;stroke-width:0.8;"/>
   </g>
   <g id="line2d_87">
    <path clip-path="url(#p34a6377460)" d="M 155.924989 178.433444 
L 155.924989 141.790691 
L 152.295742 141.790691 
L 152.295742 131.94983 
L 149.115044 131.94983 
L 149.092254 122.108968 
L 149.000779 122.108968 
L 149.000779 118.940919 
L 147.539175 118.940919 
L 147.539175 116.352433 
L 147.388177 116.352433 
L 147.388177 114.1639 
L 146.155087 114.1639 
L 146.155087 112.268107 
L 145.20201 112.268107 
L 145.17313 109.100057 
L 145.0571 109.100057 
L 145.0571 107.746904 
L 144.852069 107.746904 
L 144.852069 106.511572 
L 144.005531 106.511572 
L 144.005531 105.375177 
L 143.340912 105.375177 
L 143.340912 104.323039 
L 143.080527 104.323039 
L 143.080527 103.343522 
L 142.648456 103.343522 
L 142.648456 102.427246 
L 142.308236 102.427246 
L 142.308236 101.566536 
L 141.819851 101.566536 
L 141.819851 100.755037 
L 141.641871 100.755037 
L 141.641871 99.987425 
L 140.377976 99.987425 
L 140.377976 99.259196 
L 140.261675 99.259196 
L 140.261675 98.566504 
L 139.341765 98.566504 
L 139.341765 97.274945 
L 138.755684 97.274945 
L 138.670237 96.091146 
L 138.411211 96.091146 
L 138.367643 94.998502 
L 138.059408 94.998502 
L 138.059408 94.482178 
L 137.654471 94.482178 
L 137.654471 93.983974 
L 137.145689 93.983974 
L 137.145689 93.502661 
L 136.572194 93.502661 
L 136.572194 93.037132 
L 135.876964 93.037132 
L 135.775215 92.149508 
L 135.672837 92.149508 
L 135.672837 91.725675 
L 134.77603 91.725675 
L 134.721731 90.914176 
L 134.447527 90.914176 
L 134.447527 90.525183 
L 134.168699 90.525183 
L 134.112365 89.777781 
L 133.538206 89.777781 
L 133.538206 89.418334 
L 133.003843 89.418334 
L 133.003843 89.067764 
L 132.57595 89.067764 
L 132.57595 88.725643 
L 131.685436 88.725643 
L 131.685436 88.391572 
L 131.221523 88.391572 
L 131.221523 88.065181 
L 130.744216 88.065181 
L 130.744216 87.746126 
L 130.394645 87.746126 
L 130.394645 87.434084 
L 130.037523 87.434084 
L 130.037523 87.128752 
L 129.746165 87.128752 
L 129.746165 86.829849 
L 129.524228 86.829849 
L 129.524228 86.53711 
L 129.07121 86.53711 
L 129.07121 86.250285 
L 128.762152 86.250285 
L 128.762152 85.96914 
L 128.605429 85.96914 
L 128.526507 85.157641 
L 128.367524 85.157641 
L 128.367524 84.897132 
L 127.963247 84.897132 
L 127.963247 84.641316 
L 127.798727 84.641316 
L 127.798727 84.390029 
L 127.548837 84.390029 
L 127.548837 84.143112 
L 127.123772 84.143112 
L 127.123772 83.6618 
L 126.950638 83.6618 
L 126.863387 83.196271 
L 126.775673 83.196271 
L 126.775673 82.969108 
L 126.509703 82.969108 
L 126.509703 82.745523 
L 126.329982 82.745523 
L 126.239384 82.095148 
L 126.056685 82.095148 
L 126.056685 81.884813 
L 125.685116 81.884813 
L 125.590904 81.473267 
L 125.111621 81.473267 
L 125.014075 81.073314 
L 124.915949 81.073314 
L 124.817238 80.49375 
L 124.717933 80.49375 
L 124.717933 80.120113 
L 124.109247 80.120113 
L 124.109247 79.936919 
L 123.901268 79.936919 
L 123.901268 79.756059 
L 123.58431 79.756059 
L 123.58431 79.577473 
L 123.369579 79.577473 
L 123.369579 79.401106 
L 123.152021 79.401106 
L 123.152021 79.226903 
L 122.481628 79.226903 
L 122.481628 79.054812 
L 122.251984 79.054812 
L 122.251984 78.55071 
L 122.135954 78.55071 
L 122.135954 78.386577 
L 122.019105 78.386577 
L 122.019105 78.22432 
L 121.782899 78.22432 
L 121.782899 77.905265 
L 121.663519 77.905265 
L 121.663519 77.593222 
L 121.300117 77.593222 
L 121.300117 77.287891 
L 121.177187 77.287891 
L 121.177187 76.988988 
L 121.053335 76.988988 
L 121.053335 76.841864 
L 120.802813 76.841864 
L 120.802813 76.552112 
L 120.290087 76.552112 
L 120.290087 76.409423 
L 120.159382 76.409423 
L 120.159382 76.268155 
L 119.76095 76.268155 
L 119.76095 76.128278 
L 119.074789 76.128278 
L 119.074789 75.989766 
L 118.792147 75.989766 
L 118.792147 75.716732 
L 118.50459 75.716732 
L 118.50459 75.582159 
L 118.211944 75.582159 
L 118.211944 75.448849 
L 118.063655 75.448849 
L 118.063655 75.31678 
L 117.914024 75.31678 
L 117.914024 75.05627 
L 117.610637 75.05627 
L 117.610637 74.927786 
L 117.45683 74.927786 
L 117.45683 74.674255 
L 116.665573 74.674255 
L 116.665573 74.425172 
L 116.502674 74.425172 
L 116.502674 74.059555 
L 116.338154 74.059555 
L 116.338154 73.939745 
L 116.004121 73.939745 
L 116.004121 73.820938 
L 115.834539 73.820938 
L 115.834539 73.703117 
L 115.663199 73.703117 
L 115.663199 73.470368 
L 115.490065 73.470368 
L 115.490065 73.241374 
L 115.3151 73.241374 
L 115.3151 73.016014 
L 114.959514 73.016014 
L 114.959514 72.904661 
L 114.411371 72.794176 
L 114.411371 72.684543 
L 114.03558 72.57575 
L 114.03558 72.467785 
L 113.651048 72.467785 
L 113.651048 72.360635 
L 113.651048 72.14873 
L 113.455376 72.14873 
L 113.455376 72.043952 
L 113.455376 71.734179 
L 113.056945 71.632405 
L 113.056945 71.531356 
L 112.854069 71.531356 
L 112.854069 71.431021 
L 112.854069 71.33139 
L 112.648674 71.33139 
L 112.648674 71.232453 
L 112.648674 71.134201 
L 112.440695 71.134201 
L 112.440695 71.036624 
L 112.440695 70.939714 
L 112.230067 70.939714 
L 112.230067 70.84346 
L 112.230067 70.652888 
L 112.01672 70.652888 
L 112.01672 70.558553 
L 112.01672 70.464841 
L 111.800585 70.464841 
L 111.800585 70.371743 
L 111.800585 70.279252 
L 111.359649 70.187359 
L 111.359649 70.096058 
L 110.906632 70.096058 
L 110.906632 70.00534 
L 110.906632 69.915197 
L 110.675381 69.915197 
L 110.675381 69.825624 
L 110.675381 69.648154 
L 110.440851 69.648154 
L 110.440851 69.560245 
L 110.440851 69.386042 
L 109.467976 69.299735 
L 109.467976 68.959663 
L 108.959194 68.959663 
L 108.959194 68.875902 
L 108.959194 68.709849 
L 108.698809 68.709849 
L 108.698809 68.627545 
L 108.698809 68.545716 
L 108.434257 68.545716 
L 108.434257 68.464355 
L 108.434257 68.383459 
L 107.892107 68.383459 
L 107.892107 68.30302 
L 107.892107 68.143497 
L 107.614216 68.143497 
L 107.614216 68.064403 
L 107.614216 67.67541 
L 107.044018 67.598874 
L 107.044018 67.522749 
L 106.453451 67.447029 
L 106.453451 67.001002 
L 106.150064 67.001002 
L 106.150064 66.928008 
L 106.150064 66.783136 
L 105.841006 66.783136 
L 105.841006 66.71125 
L 105.841006 66.497752 
L 105.526061 66.497752 
L 105.526061 66.427294 
L 105.526061 66.148905 
L 105.205 66.148905 
L 105.205 66.080152 
L 105.205 65.87587 
L 104.877582 65.87587 
L 104.877582 65.808424 
L 104.877582 65.607988 
L 104.543548 65.607988 
L 104.543548 65.541799 
L 104.543548 65.086925 
L 104.202626 65.086925 
L 104.202626 65.023117 
L 104.202626 64.584311 
L 103.854527 64.584311 
L 103.854527 64.522717 
L 103.854527 64.218694 
L 103.498941 64.218694 
L 103.498941 64.158662 
L 103.498941 64.098884 
L 102.76397 64.039356 
L 102.76397 63.862256 
L 102.383859 63.862256 
L 102.383859 63.80371 
L 102.383859 63.400512 
L 101.994803 63.400512 
L 101.994803 63.343836 
L 101.994803 63.119367 
L 101.596372 63.119367 
L 101.596372 63.00845 
L 101.596372 62.898392 
L 101.188101 62.898392 
L 101.188101 62.789181 
L 101.188101 62.626924 
L 100.340012 62.519773 
L 100.340012 62.15099 
L 99.899076 62.15099 
L 99.899076 62.047359 
L 99.899076 61.842339 
L 99.446059 61.842339 
L 99.446059 61.740929 
L 99.446059 61.540257 
L 98.980278 61.540257 
L 98.980278 61.440974 
L 98.980278 61.391592 
L 98.500995 61.391592 
L 98.500995 61.29334 
L 98.500995 60.906993 
L 98.007403 60.906993 
L 98.007403 60.812027 
L 98.007403 60.717692 
L 97.498621 60.717692 
L 97.498621 60.62398 
L 97.498621 60.209765 
L 96.973684 60.209765 
L 96.973684 60.119335 
L 96.973684 59.807293 
L 96.431534 59.807293 
L 96.431534 59.719383 
L 96.431534 59.632015 
L 95.871002 59.632015 
L 95.871002 59.54518 
L 95.871002 59.287819 
L 95.290798 59.287819 
L 95.290798 59.203059 
L 95.290798 58.993345 
L 94.689491 58.993345 
L 94.689491 58.910319 
L 94.689491 58.664116 
L 94.065488 58.664116 
L 94.065488 58.582988 
L 94.065488 58.066663 
L 93.417009 58.066663 
L 93.417009 57.988869 
L 93.417009 57.681888 
L 92.742053 57.681888 
L 92.742053 57.606168 
L 92.742053 57.233513 
L 92.038368 57.233513 
L 92.038368 57.123597 
L 92.038368 56.834582 
L 91.303397 56.834582 
L 91.303397 56.727701 
L 91.303397 56.446556 
L 90.53423 56.446556 
L 90.53423 56.342545 
L 90.53423 55.767126 
L 89.727528 55.733994 
L 89.727528 55.667959 
L 89.727528 54.961157 
L 88.879439 54.961157 
L 88.879439 54.867445 
L 88.879439 54.347785 
L 87.985486 54.347785 
L 87.985486 54.258023 
L 87.985486 53.673686 
L 87.040422 53.673686 
L 87.040422 53.588074 
L 87.040422 52.866959 
L 86.038048 52.866959 
L 86.038048 52.759199 
L 86.038048 52.001478 
L 84.970961 52.001478 
L 84.970961 51.900068 
L 84.970961 51.428021 
L 83.830225 51.428021 
L 83.830225 51.330612 
L 83.830225 50.597529 
L 82.604915 50.597529 
L 82.604915 50.505637 
L 82.604915 49.596518 
L 81.28148 49.596518 
L 81.28148 49.489529 
L 81.28148 48.721917 
L 79.842825 48.721917 
L 79.842825 48.621297 
L 79.842825 47.577756 
L 78.266955 47.577756 
L 78.266955 47.484902 
L 78.266955 46.415587 
L 76.524913 46.415587 
L 76.524913 46.312955 
L 76.524913 44.964451 
L 74.577475 44.964451 
L 74.577475 44.856368 
L 74.577475 43.161959 
L 72.369652 43.161959 
L 72.369652 43.053166 
L 72.369652 41.332872 
L 69.820907 41.320876 
L 69.820907 41.22527 
L 69.820907 39.353318 
L 66.806382 39.353318 
L 66.806382 39.249307 
L 66.806382 36.660822 
L 63.116902 36.660822 
L 63.116902 36.557568 
L 63.116902 33.659557 
L 58.360335 33.659557 
L 58.360335 33.555087 
L 58.360335 29.429187 
L 51.656329 29.429187 
L 51.656329 29.320632 
L 51.656329 23.850187 
L 40.195756 23.850187 
L 40.195756 23.74201 
L 40.195756 14.504778 
L 40.195756 14.504778 
" style="fill:none;stroke:#bae4b3;stroke-linecap:round;stroke-width:0.8;"/>
   </g>
   <g id="patch_3">
    <path d="M 31.826531 148.155893 
L 31.826531 8.121451 
" style="fill:none;stroke:#000000;stroke-linecap:square;stroke-linejoin:miter;"/>
   </g>
   <g id="patch_4">
    <path d="M 31.826531 148.155893 
L 215.949491 148.155893 
" style="fill:none;stroke:#000000;stroke-linecap:square;stroke-linejoin:miter;"/>
   </g>
   <g id="legend_1">
    <g id="text_13">
     <!-- K -->
     <defs>
      <path d="M 7.328125 0 
L 7.328125 71.578125 
L 16.796875 71.578125 
L 16.796875 36.078125 
L 52.34375 71.578125 
L 65.1875 71.578125 
L 35.15625 42.578125 
L 66.5 0 
L 54 0 
L 28.515625 36.234375 
L 16.796875 24.8125 
L 16.796875 0 
z
" id="ArialMT-75"/>
     </defs>
     <g transform="translate(185.332868 18.213621)scale(0.06246 -0.06246)">
      <use xlink:href="#ArialMT-75"/>
     </g>
    </g>
    <g id="line2d_88">
     <path d="M 164.503922 24.862683 
L 172.311422 24.862683 
" style="fill:none;stroke:#006d2c;stroke-linecap:round;stroke-width:0.8;"/>
    </g>
    <g id="line2d_89"/>
    <g id="text_14">
     <!-- 0 -->
     <g transform="translate(175.434422 27.048783)scale(0.06246 -0.06246)">
      <use xlink:href="#ArialMT-48"/>
     </g>
    </g>
    <g id="line2d_90">
     <path d="M 164.503922 33.697845 
L 172.311422 33.697845 
" style="fill:none;stroke:#31a354;stroke-linecap:round;stroke-width:0.8;"/>
    </g>
    <g id="line2d_91"/>
    <g id="text_15">
     <!-- 10 -->
     <g transform="translate(175.434422 35.883945)scale(0.06246 -0.06246)">
      <use xlink:href="#ArialMT-49"/>
      <use x="55.615234" xlink:href="#ArialMT-48"/>
     </g>
    </g>
    <g id="line2d_92">
     <path d="M 185.504145 24.862683 
L 193.311645 24.862683 
" style="fill:none;stroke:#74c476;stroke-linecap:round;stroke-width:0.8;"/>
    </g>
    <g id="line2d_93"/>
    <g id="text_16">
     <!-- 100 -->
     <g transform="translate(196.434645 27.048783)scale(0.06246 -0.06246)">
      <use xlink:href="#ArialMT-49"/>
      <use x="55.615234" xlink:href="#ArialMT-48"/>
      <use x="111.230469" xlink:href="#ArialMT-48"/>
     </g>
    </g>
    <g id="line2d_94">
     <path d="M 185.504145 33.697845 
L 193.311645 33.697845 
" style="fill:none;stroke:#bae4b3;stroke-linecap:round;stroke-width:0.8;"/>
    </g>
    <g id="line2d_95"/>
    <g id="text_17">
     <!-- 1000 -->
     <g transform="translate(196.434645 35.883945)scale(0.06246 -0.06246)">
      <use xlink:href="#ArialMT-49"/>
      <use x="55.615234" xlink:href="#ArialMT-48"/>
      <use x="111.230469" xlink:href="#ArialMT-48"/>
      <use x="166.845703" xlink:href="#ArialMT-48"/>
     </g>
    </g>
   </g>
  </g>
 </g>
 <defs>
  <clipPath id="p34a6377460">
   <rect height="140.034442" width="184.12296" x="31.826531" y="8.121451"/>
  </clipPath>
 </defs>
</svg>
